<svg width="12" height="9" viewBox="0 0 12 9" fill="none" xmlns="http://www.w3.org/2000/svg">
<path d="M2.25926 3.34921C1.89983 2.92988 1.26853 2.88132 0.849209 3.24074C0.429883 3.60017 0.381321 4.23147 0.740743 4.65079L2.25926 3.34921ZM4.5 7.5L3.74074 8.15079C3.92655 8.36756 4.19615 8.49458 4.4816 8.49983C4.76706 8.50508 5.04115 8.38807 5.2348 8.17828L4.5 7.5ZM11.2348 1.67828C11.6094 1.27246 11.5841 0.6398 11.1783 0.265197C10.7725 -0.109407 10.1398 -0.0841008 9.7652 0.32172L11.2348 1.67828ZM0.740743 4.65079L3.74074 8.15079L5.25926 6.84921L2.25926 3.34921L0.740743 4.65079ZM5.2348 8.17828L11.2348 1.67828L9.7652 0.32172L3.7652 6.82172L5.2348 8.17828Z" fill="#F8F9FA"/>
</svg>
