<svg width="13" height="20" viewBox="0 0 13 20" fill="none" xmlns="http://www.w3.org/2000/svg">
<path d="M1 10L0.366762 9.22604C0.134626 9.41597 -4.06513e-07 9.70007 -3.93403e-07 10C-3.80292e-07 10.2999 0.134626 10.584 0.366762 10.774L1 10ZM12.6332 1.77396C13.0607 1.42423 13.1237 0.794206 12.774 0.366762C12.4242 -0.0606828 11.7942 -0.123686 11.3668 0.226041L12.6332 1.77396ZM11.3668 19.774C11.7942 20.1237 12.4242 20.0607 12.774 19.6332C13.1237 19.2058 13.0607 18.5758 12.6332 18.226L11.3668 19.774ZM1.63324 10.774L12.6332 1.77396L11.3668 0.226041L0.366762 9.22604L1.63324 10.774ZM12.6332 18.226L1.63324 9.22604L0.366762 10.774L11.3668 19.774L12.6332 18.226Z" fill="#212529"/>
</svg>
