<svg width="40" height="40" viewBox="0 0 40 40" fill="none" xmlns="http://www.w3.org/2000/svg">
<path d="M14 20L13.3668 19.226C13.1346 19.416 13 19.7001 13 20C13 20.2999 13.1346 20.584 13.3668 20.774L14 20ZM25.6332 11.774C26.0607 11.4242 26.1237 10.7942 25.774 10.3668C25.4242 9.93932 24.7942 9.87631 24.3668 10.226L25.6332 11.774ZM24.3668 29.774C24.7942 30.1237 25.4242 30.0607 25.774 29.6332C26.1237 29.2058 26.0607 28.5758 25.6332 28.226L24.3668 29.774ZM14.6332 20.774L25.6332 11.774L24.3668 10.226L13.3668 19.226L14.6332 20.774ZM25.6332 28.226L14.6332 19.226L13.3668 20.774L24.3668 29.774L25.6332 28.226Z" fill="black"/>
</svg>
