<svg width="98" height="81" viewBox="0 0 98 81" fill="none" xmlns="http://www.w3.org/2000/svg">
<path d="M4.37598 22.6994C5.34558 22.673 6.43278 23.1194 6.76638 23.1338C7.01838 23.1434 7.69038 23.1554 7.99038 23.3306C8.70558 23.7482 9.91518 24.0026 10.3496 24.1106C10.5656 24.1538 11.2832 24.3794 11.4344 24.437C11.7896 24.5714 12.8888 24.6914 13.172 24.761C14.5304 25.1954 16.7384 25.8986 17.0816 25.9562C17.3264 25.997 17.5328 26.237 17.6264 26.2826C17.8016 26.369 18.44 26.3906 18.7112 26.3906C18.9752 26.4098 20.4488 27.0434 20.6672 27.1514C20.84 27.2114 22.808 27.8834 23.2472 27.9938C23.9672 28.1714 24.9896 28.1066 25.88 28.3466C26.684 28.5626 28.052 28.7522 28.7408 28.9034C29.288 29.0234 30.92 28.9682 31.0928 28.997C31.2176 29.0186 31.6112 29.405 31.7432 29.4314C31.8848 29.4626 32.3288 29.4674 32.9384 29.7578C33.5264 30.0362 34.6904 30.4994 34.892 30.5186C35.7056 30.5978 37.1744 31.1234 37.616 31.1978C38.7656 31.3898 39.5504 31.6202 40.1048 31.9298C40.7288 32.2202 42.752 32.441 42.9296 32.4722C43.1768 32.5154 43.6736 32.8706 43.7984 32.9066C44.8064 33.2138 50.1728 33.9986 51.6176 34.3178C51.7112 34.337 53.6768 35.0762 53.6816 35.0786C53.7896 35.1506 54.3536 35.4746 54.6584 35.513C54.9104 35.5442 55.5224 35.5202 55.6352 35.621C55.736 35.717 56.0696 35.7314 56.288 35.7314C56.42 35.7458 56.6024 35.945 56.612 35.9474C56.72 35.969 57.332 36.185 57.9656 36.1754C58.4744 36.1706 58.832 36.1466 58.8944 36.1658C61.2416 36.8618 62.276 36.773 62.5856 37.0346" stroke="#EF586A" stroke-width="2.88" stroke-linecap="round"/>
<path d="M62.8047 36.8161V36.7081C62.8791 36.6553 66.1911 35.9113 69.4287 34.8625C70.2111 34.6153 74.9007 32.7121 75.1839 32.5801C75.4263 32.4721 77.4615 31.3729 77.7903 31.2769C78.3135 31.1305 79.0383 30.8449 80.0727 30.6265C80.2167 30.5953 82.4439 30.3793 82.7871 29.9737C82.8807 29.8657 84.0567 29.7937 84.5247 29.5393C84.9639 29.2993 86.4159 28.9225 86.4783 28.8889C86.7087 28.7641 87.3807 28.3369 87.9999 28.2361C88.6527 28.1257 89.1831 28.1353 89.1951 28.1281C89.4591 27.9649 89.6703 27.7129 89.9535 27.5857C90.2199 27.4633 90.9255 27.4825 90.9327 27.4777C91.0119 27.4129 91.2351 27.2233 92.1255 27.0433C92.3847 26.9905 93.9039 26.6281 93.9735 26.6089C94.2903 26.5057 95.3583 25.9057 95.3847 25.9561" stroke="#EF586A" stroke-width="2.88" stroke-linecap="round"/>
<path d="M69.755 22.0467H69.6469C69.5197 22.3659 69.539 23.2203 69.5318 23.8779C69.5294 24.4011 69.611 25.5435 69.863 26.1747C69.9494 26.4603 70.3357 27.5355 70.4053 27.8019C70.4053 27.8019 70.3958 30.8283 70.5158 31.7115C71.339 31.8555 72.587 31.6347 73.3262 31.4379C73.9838 31.2627 75.8701 30.9699 76.0525 30.9531C76.6069 30.9531 77.1878 30.6387 77.3558 30.4083C77.6318 30.0243 78.3518 29.1555 78.659 28.9971C80.2982 28.1691 84.3614 27.0435 85.175 27.0435C85.2182 27.0387 87.1934 26.4867 88.4462 26.2827C89.2862 26.1435 90.0253 25.6875 90.6565 25.7115C91.7293 25.7475 92.6942 25.7619 92.8862 25.6299C92.8046 25.5027 91.6933 25.5195 90.9853 25.5267C89.8213 25.5291 88.4245 25.5003 87.9997 25.4139C87.8125 25.3755 86.2358 24.9531 85.3934 24.8715C84.6326 24.8163 81.7742 24.6747 81.5918 24.6531C81.3998 24.6315 79.8109 24.3963 79.6381 24.2187C79.4293 24.0051 79.2014 24.0123 79.0934 24.0027C79.0454 23.9979 75.527 23.4891 75.4814 23.4795C75.1382 23.4003 74.2621 23.1435 74.2069 23.1339C74.0605 23.1075 72.3686 23.1651 71.7374 23.0187C71.3318 22.9203 70.9813 22.9443 70.8397 22.9155C70.7317 22.8939 69.9614 22.5099 69.863 22.4811C69.7934 22.4595 69.3349 22.4787 69.2125 22.3731C69.0901 22.2651 68.6845 21.6027 68.3438 21.0699C68.3509 20.8371 69.9566 21.0699 72.2486 21.6987C75.3398 22.5339 76.4078 22.7019 78.1166 23.1339C78.9926 23.3499 81.9326 23.4363 83.0702 23.6787C83.5814 23.7315 85.0766 24.0027 85.175 24.0027C86.399 24.2307 86.9989 24.2139 87.9997 24.2187" stroke="#EF586A" stroke-width="2.88" stroke-linecap="round"/>
<path d="M68.2329 23.1338C68.2401 24.4754 68.2065 25.5866 68.2329 25.7402C68.2593 25.8842 68.4633 27.0794 68.4705 28.4306C68.4633 29.4362 68.4489 31.7834 68.4513 31.8218C68.4657 32.1098 68.2017 32.7482 68.2329 33.341" stroke="#EF586A" stroke-width="2.88" stroke-linecap="round"/>
<path d="M64.542 34.4281C65.5788 34.4329 66.6828 34.3825 67.434 33.9577C68.106 33.5401 71.7804 31.2889 71.8188 31.2769C71.9964 31.2289 72.1908 31.2409 72.3612 31.1689C72.5268 31.0993 74.0436 30.1921 74.5332 29.9737C74.9052 29.7817 76.4964 28.6489 76.8132 28.4545C77.7204 27.9001 81.7404 25.8193 81.81 25.7401C81.4908 25.7401 80.574 25.7377 79.9716 25.7329C79.0668 25.7305 78.0156 25.8913 77.238 26.1769C76.5372 26.4481 74.8692 27.0889 74.6412 27.1513C74.0772 27.3121 73.9044 27.4249 73.6644 27.8017C73.422 28.1953 72.63 29.0521 72.4692 29.1049C72.4068 29.1001 72.222 28.6921 72.1428 28.3465C72.1284 28.2745 72.15 25.7569 72.2532 25.7401C72.9372 25.6657 74.6724 25.9681 75.0756 25.9561C74.6628 25.9513 74.2404 25.9705 74.2068 25.9561C74.058 25.8961 73.9332 25.7665 73.7724 25.7401C73.5228 25.6945 72.8412 25.7185 72.498 25.5265C72.0636 25.2841 71.49 25.3105 71.274 25.3057" stroke="#EF586A" stroke-width="2.88" stroke-linecap="round"/>
<path d="M63.0205 35.0784C63.7141 35.124 64.1197 35.016 64.3237 34.644C64.8901 33.6192 65.5789 32.628 65.7805 32.1912C66.0589 31.584 67.4197 29.052 67.7989 28.236C67.9669 27.9744 68.4877 27.2688 68.6653 26.9592C68.8765 26.6088 69.0373 26.4624 69.6469 26.064C69.8653 25.9224 70.6285 25.5384 70.7317 25.4136C70.8541 25.26 71.2045 24.5256 71.2741 24.3264C71.3221 24.1896 71.2453 23.724 71.2741 23.676C71.3293 23.5896 71.5237 23.4168 71.4925 23.3496" stroke="#EF586A" stroke-width="2.88" stroke-linecap="round"/>
<path d="M2.42285 21.8307C6.07325 21.8355 12.4429 21.8907 12.7381 21.8307C13.0669 21.7611 14.2861 21.2739 14.9101 21.1779C15.0949 21.1515 16.2805 21.1971 16.5397 21.1779C17.1373 21.0699 18.4669 20.8947 18.7117 20.7435C18.8245 20.6763 19.1509 20.4939 19.6069 20.5083C20.8117 20.5419 21.1213 20.4315 21.9709 20.3091C22.2661 20.2659 23.8717 19.9827 24.3589 19.8747C24.5389 19.8651 24.7309 19.9371 24.9013 19.8747C24.9973 19.8387 25.0189 19.6803 25.1197 19.6587C25.3669 19.6011 25.6285 19.6947 25.8805 19.6587C26.0725 19.6299 27.4957 19.0299 27.6181 19.0059C27.7597 18.9771 28.9693 18.7947 29.2453 18.6795C29.3413 18.6411 29.6053 18.3747 29.8981 18.3555C29.9701 18.3507 33.2388 17.6763 33.3732 17.5947C33.5916 17.6091 33.4141 21.0267 33.4813 21.1779C33.5797 21.3891 33.8053 21.5187 33.9157 21.7203C33.9709 21.8163 33.9204 22.1595 34.0236 22.2651C34.1316 22.3707 34.1461 22.4283 34.1341 22.6995" stroke="#EF586A" stroke-width="2.88" stroke-linecap="round"/>
<path d="M14.5859 20.0926L14.6939 19.8742C15.4355 19.8694 16.6379 19.903 16.9739 19.8742C17.1395 19.8598 21.1451 19.4974 21.3179 19.4398C22.2323 19.1278 23.5691 18.9334 23.8163 18.8974C24.7043 18.7702 25.9571 18.8326 26.4227 18.571C26.5811 18.4822 27.0179 18.151 27.2915 18.1366C27.2915 18.1366 28.2347 18.1654 28.4867 18.1366C28.7099 18.1126 30.6707 17.8702 30.9803 17.7022C31.1915 17.587 32.6987 17.2438 33.0467 17.2678" stroke="#EF586A" stroke-width="2.88" stroke-linecap="round"/>
<path d="M13.0645 23.5681C13.2949 23.6305 14.1541 24.0025 15.1285 24.0025C15.2725 24.0097 16.7725 24.2545 18.1693 24.4369C19.6501 24.6433 20.8069 24.6337 20.8837 24.6529C21.0133 24.6841 21.7501 25.0633 21.8605 25.0873C22.0021 25.1185 24.1957 25.4137 24.3373 25.4353C25.1029 25.5529 26.7589 25.4977 27.5077 25.7401C27.8173 25.8409 31.5709 26.4769 31.6357 26.4985C31.6381 26.5009 32.0845 26.8369 32.3965 26.9329C33.0973 27.1585 34.3597 27.8617 34.8925 27.8857C35.3869 27.9073 36.3949 28.4977 37.2277 28.5625C38.0725 28.6297 38.8645 29.1001 39.7813 29.3233C42.2317 29.9065 47.4901 31.4953 48.4453 31.8937C48.8533 32.0257 49.4485 32.0041 49.6621 32.0377C49.8709 32.0689 50.5765 32.4601 50.6413 32.4721C52.9957 32.6929 53.9341 32.6593 55.5277 33.0145C55.6765 33.0481 56.5549 33.3241 56.7229 33.3409C56.9389 33.3649 57.7525 33.3577 58.0261 33.4489C58.1797 33.5017 59.2645 33.8089 59.4373 33.8833C60.7693 34.4569 64.4341 34.4281 64.6501 34.4281C64.8709 34.1473 65.4085 32.4937 65.4109 32.4721C65.4181 32.3641 65.6317 31.6513 65.6269 31.4953C65.6221 31.3537 65.6269 30.4081 65.6269 30.1921C65.3773 30.0937 64.6693 29.8369 64.5421 29.8657C64.1581 29.9473 61.5013 28.6009 61.2829 28.5625C60.1837 28.3753 58.8661 27.9265 58.7845 27.9121C58.6429 27.8857 56.7397 27.5809 56.6173 27.5593C56.0605 27.4657 53.8765 27.5257 53.4709 27.2593C53.1541 27.0457 52.7749 27.0697 52.5949 27.0433C52.3357 27.0025 51.6781 26.7913 51.3133 26.8057C50.8117 26.8273 49.4965 26.8417 49.4461 26.8249C48.4669 26.4793 46.8757 26.3161 46.7317 26.2825C45.3109 25.9537 44.2213 26.0185 43.7389 25.7377C43.6141 25.6633 42.4957 25.3057 42.1693 25.3057C41.0845 24.9793 39.2389 24.3553 38.4781 24.4369C38.2069 24.4681 37.7389 24.1081 37.4989 24.0025C37.4101 23.9617 36.7789 24.0337 36.5221 24.0025C36.3949 23.9881 35.7253 23.7913 35.5453 23.7841C35.2549 23.7721 34.9621 23.8249 34.6765 23.7841C34.4149 23.7481 33.7477 23.5321 33.4237 23.5897C33.0877 23.6401 32.7445 23.4697 32.2861 23.0233C32.0989 22.8385 31.3213 22.2505 31.0933 22.1545C30.1669 21.7825 29.6437 21.8473 28.5949 21.6121C28.5781 21.6097 28.2925 21.6097 28.2685 21.5041C28.2445 21.3457 28.2973 20.8705 28.3765 20.7433C28.5085 20.5561 29.2117 20.5513 29.4637 20.5273C29.8693 20.4889 30.9205 20.1289 30.9829 20.0929C31.0693 20.0377 31.2901 19.8433 31.6357 19.8745L31.7437 20.6353C31.6213 20.6977 31.1605 20.9137 31.0933 20.9617C30.9829 21.0337 30.6829 21.1969 30.0805 21.1753C29.2213 21.1417 28.0837 21.3409 27.6181 21.3961C26.5957 21.6265 26.0317 21.6097 24.4021 21.6121C20.5501 21.6217 19.5877 21.5593 19.3645 21.6121C18.0973 21.9169 16.5397 22.4809 16.2133 22.5889C16.2685 22.8721 16.9309 22.9201 20.3005 22.9249C22.6789 22.9225 27.7261 22.9153 27.7261 22.9153C27.7741 22.9321 28.3861 23.2465 28.7029 23.4577C28.8997 23.5561 29.5021 23.5441 29.6797 23.5681C30.0781 23.6185 30.7957 24.0145 30.9829 24.1105C31.1701 24.2041 32.4493 24.3817 32.7205 24.4369C33.0373 24.5233 33.6781 24.9121 35.2669 25.4017C35.8525 25.5793 36.2653 25.7833 36.4141 25.8481C36.6373 25.9465 37.2133 25.9249 37.3909 25.9561C37.6141 25.9945 38.0317 26.4049 38.1517 26.4985C38.1973 26.5369 40.9093 27.0865 42.8221 27.2593C43.0789 27.2833 45.1693 27.2593 45.6445 27.3673C45.8677 27.4201 46.5541 27.6865 46.6213 27.6937C46.7653 27.7105 46.9165 27.6553 47.0557 27.6937C47.2141 27.7369 47.3341 27.8737 47.4901 27.9121C47.6677 27.9529 51.3445 28.3705 51.7261 28.5625C51.8725 28.6345 52.3189 28.8145 52.9309 28.8001C53.5861 28.7881 53.9461 28.7569 54.0061 28.7809C54.2341 28.8697 54.7981 29.1697 55.0933 29.2153C55.7989 29.3233 57.4021 29.7049 57.5917 29.7577C58.0165 29.8753 59.4085 29.8585 59.8717 30.0841C60.0181 30.1537 60.1453 30.2761 60.3061 30.3001C60.5557 30.3409 61.1917 30.3049 61.5853 30.4057C62.1733 30.5497 63.6901 30.4897 63.8893 30.5185C64.6237 30.6217 65.5117 31.0561 65.9533 31.1689C66.4861 31.3057 66.8893 31.6441 66.9301 31.7113C66.9829 31.8001 67.1773 32.0185 67.1485 32.3641C66.9373 32.4625 66.4573 32.4433 66.2797 32.4721C66.0949 32.5033 65.3605 32.8921 65.3029 32.9065C65.2453 32.9209 60.7117 32.9209 60.6325 32.9065C60.3901 32.8633 59.7421 32.4433 59.5453 32.3641C59.4469 32.3233 56.1421 31.4881 54.2245 31.1689C54.0277 31.1257 52.8781 30.7609 52.7029 30.7345C52.5445 30.7105 51.2749 30.7249 49.5733 30.4225C48.9517 30.3073 48.3565 30.3313 48.1429 30.3001C47.8861 30.2641 47.0437 29.8801 46.9477 29.8657C46.7485 29.8345 45.4813 29.8969 45.3181 29.8657C45.0949 29.8249 44.5189 29.6137 44.0293 29.6281C43.2349 29.6449 41.2213 29.6785 41.0845 29.6497C40.8277 29.5921 40.1149 29.4001 39.5629 29.4313" stroke="#EF586A" stroke-width="2.88" stroke-linecap="round"/>
<path d="M74.3149 60.0576C73.9885 60.4656 73.1461 62.0976 72.6877 62.9904C72.2269 63.9048 71.3845 66.5184 70.9501 67.7688C70.7317 68.4288 70.3261 69.0672 70.1893 69.288C70.1629 69.3288 69.7213 71.16 69.7357 71.5056C69.7597 72.0792 69.7549 73.1304 69.7549 73.416C70.6477 73.644 72.9781 73.1832 75.6589 72.3864C76.0957 72.2616 79.7581 71.2104 80.6149 70.9176" stroke="#B0E4D6" stroke-width="2.88" stroke-linecap="round"/>
<path d="M68.8864 66.5739C68.3896 67.2339 67.1656 68.0211 67.0408 68.2035C66.9952 68.2683 66.7672 68.5491 66.7144 68.6379C66.6952 68.6715 66.7192 69.0435 66.7408 69.8643C66.7624 70.6035 66.6256 71.1651 66.388 71.3523C66.3304 71.3955 66.0448 71.3475 65.9536 71.4603C65.6608 71.8179 65.452 71.9331 65.3032 72.0027C65.1784 71.8563 65.188 67.6395 65.1928 67.5507C65.2672 66.5547 66.712 63.7803 66.7144 63.5331C66.7168 62.8395 67.0936 62.1435 67.1488 61.4691C67.1632 61.2627 67.6048 59.2971 67.5664 58.5891C67.5448 58.1643 67.5376 57.3507 67.5832 57.1251C67.6384 56.8467 68.0008 56.0067 68.0176 55.9299C68.0728 55.6587 68.0464 53.5875 68.0176 53.4339C67.8208 52.6467 67.768 51.6699 67.4752 51.3699C67.4392 51.3339 67.1128 50.3235 67.1488 50.1747C67.1848 50.0187 66.8248 49.5411 66.7144 49.3059C66.6832 49.2387 66.7 46.1595 66.7144 46.0467C66.724 45.9579 66.76 45.8499 66.8224 45.7227L67.1488 45.9387" stroke="#B0E4D6" stroke-width="12" stroke-linecap="round"/>
<path d="M76.4868 46.373C76.0524 46.8314 75.906 46.9466 75.618 47.0258C75.4212 47.081 73.5564 47.9594 72.726 48.2906C72.078 48.5618 71.5164 48.9074 71.3844 49.1978C71.2788 49.4402 71.2812 50.261 71.274 50.2826C71.0892 51.017 70.6884 51.5354 70.5156 51.5858C71.0724 51.5858 71.9604 51.4034 72.7668 51.0962C73.4604 50.8274 75.3252 50.0378 75.618 49.9586C76.158 49.817 77.5284 49.8818 78.0084 49.7402C78.2556 49.6658 79.902 48.9314 80.5068 48.7634C80.0796 49.3442 78.9804 50.8994 78.7692 51.2618C78.2124 52.2002 77.5548 52.889 77.2476 53.4338C76.9116 54.1058 76.1748 55.2218 75.846 55.865C75.3444 56.8754 75.0396 57.7754 74.886 58.0778C74.7252 58.3874 73.6404 60.2978 73.5564 60.4922C73.5012 60.617 73.3116 61.5386 73.23 61.577" stroke="#B0E4D6" stroke-width="12" stroke-linecap="round"/>
<path d="M63.4551 40.291L64.3239 40.5094" stroke="#B0E4D6" stroke-width="4.8" stroke-linecap="round"/>
<path d="M65.4112 42.2474H65.3032C65.056 41.9642 65.2888 40.9922 65.5192 40.9442C65.7712 40.9082 65.8504 40.829 66.496 40.7258C66.6208 40.7066 66.9112 40.6346 67.3648 40.5098" stroke="#B0E4D6" stroke-width="4.8" stroke-linecap="round"/>
<path d="M65.8457 40.2918C66.1721 40.2174 67.2497 39.9918 67.4753 39.8574C68.1977 39.4254 68.4449 39.4134 68.9945 39.207C69.7961 38.9046 70.7897 38.583 70.9505 38.5542C71.2745 38.5542 71.7089 38.535 71.8193 38.3382C71.9273 38.1486 72.3977 38.1246 72.5777 38.1198C72.9281 38.115 73.7273 37.7646 73.9913 37.6854C74.0585 37.6638 74.6177 37.3518 74.8601 37.251C74.9921 37.1958 75.1529 37.2822 75.2945 37.251C75.5945 37.1838 78.3185 36.375 78.5513 36.3822C78.8777 36.3822 79.4009 36.3918 79.4201 36.3822C79.5689 36.3246 80.1761 36.003 80.3969 35.9478C80.6489 35.8878 82.2257 35.9934 82.4609 35.8398C82.7681 35.631 83.9345 35.0526 84.0905 35.079" stroke="#B0E4D6" stroke-width="4.8" stroke-linecap="round"/>
<path d="M75.8369 35.2966C76.9505 35.3302 77.9009 35.0782 78.3353 35.0782C78.5921 35.0278 78.8321 34.8958 79.0937 34.8622C79.2737 34.8382 79.4681 34.927 79.6385 34.8622C79.8809 34.7638 80.0513 34.5334 80.2889 34.4278C80.4209 34.3678 81.1529 34.267 81.3761 34.2094C81.6833 34.1326 82.7393 33.703 83.3297 33.775C83.9513 33.8614 85.7681 32.7958 86.5889 32.9062C86.6129 32.911 87.9377 32.3638 89.6297 32.0374C89.9417 31.9774 90.5537 31.627 90.7145 31.603C90.9281 31.5694 91.5161 31.5766 91.8617 31.3438C92.4089 30.9766 93.6593 30.703 93.9737 30.7342L94.2977 30.2998" stroke="#B0E4D6" stroke-width="4.8" stroke-linecap="round"/>
<path d="M94.0813 32.6904C93.9373 32.892 93.2653 33.8304 92.9941 34.1016C92.6797 34.5264 92.1109 35.1696 91.6909 36.0552C91.2253 37.056 90.7045 38.4336 90.6061 38.5536C90.5077 38.6736 90.1669 39.0312 90.1717 39.2064C90.1813 39.5112 89.8645 39.9552 89.7373 40.1832C89.5765 40.476 89.4901 41.0112 89.5189 41.268C89.5453 41.4552 89.0149 43.128 88.8685 43.5504C88.8157 43.7016 88.1605 47.3328 87.7957 48.1896C87.5149 48.8472 87.3301 49.6848 87.3325 50.268C87.3469 51.0528 87.3661 52.8264 87.2773 53.5656C87.2437 53.8344 86.6629 55.02 86.4781 55.9296C86.4013 56.34 86.1541 57.2328 86.0437 57.5592C86.0245 57.6504 86.0437 58.4832 86.0437 58.7544C86.0629 59.2416 85.8781 59.424 85.8277 59.5152C85.7725 59.6088 85.3693 61.4904 85.3933 61.6872C85.4077 61.4448 85.4341 60.8256 85.5013 60.708C85.6045 60.5304 86.0845 60.1248 86.2621 59.8392C86.3725 59.6616 86.9821 58.7376 87.6157 57.0432C88.1845 54.9744 89.3989 50.8584 89.5189 49.848C89.5285 49.776 89.5165 40.4712 89.5189 37.7928C89.2381 37.6728 84.3181 37.6824 83.6437 37.704C82.5397 37.7424 81.9277 37.8504 81.2653 38.1192C81.1021 38.1888 77.2501 39.6 76.4533 40.068C76.0189 40.3224 74.9221 40.6632 74.6341 40.8048C74.2861 40.98 73.2997 41.7504 72.8893 41.9568C72.6517 42.0768 72.0253 42.2616 71.8189 42.3552C71.7493 42.3864 70.9717 42.8664 70.8397 42.8976C70.7341 42.924 69.5149 43.1856 68.9941 43.332C69.4285 43.5168 69.6853 43.5912 69.9181 43.5552C70.3957 43.4808 74.3893 42.516 76.1629 42.1368C76.8325 41.9712 80.4733 40.68 81.8077 40.2C82.1077 40.0848 82.6789 40.08 82.8949 40.0752C83.1877 40.0632 83.5189 39.8328 83.6557 39.5304C83.7661 39.2784 83.8165 38.9928 83.9821 38.772C84.2557 38.3976 87.3829 35.6736 87.4573 35.6208C88.5613 34.8696 89.1445 34.7088 89.5189 34.752C89.0797 35.352 87.9445 36.2064 87.4573 36.4896C87.2869 36.588 86.0845 37.1808 85.2853 37.4688C85.0285 37.56 83.6413 38.328 83.5477 38.3376C83.3317 38.3592 82.6813 38.376 82.0261 38.6616C81.1933 39.024 79.9501 39.4224 79.3117 39.4224C79.0693 39.456 78.3469 39.9504 78.1165 40.0752C77.7853 40.2576 77.0989 40.2576 76.9213 40.2912C76.8733 40.3008 76.2109 40.656 75.9445 40.7256C75.3037 40.8936 72.5221 40.9584 72.2533 41.052L72.1429 41.268C73.7341 41.748 80.1109 40.9344 82.5685 40.5096C85.4725 40.0272 87.4669 40.1232 87.7813 40.0752C88.0861 40.0248 89.2741 39.4752 89.8453 39.4224C89.6845 39.3912 88.0765 39.6432 87.7765 39.708C87.2341 39.828 86.3221 40.3176 86.2621 40.2912" stroke="#B0E4D6" stroke-width="4.8" stroke-linecap="round"/>
<path d="M82.5687 38.7725C83.1303 39.7829 83.2623 42.6389 83.6559 44.2013C83.8647 45.0173 84.1143 45.8789 84.1239 46.3157C84.1263 46.6973 83.9991 47.0645 83.7639 47.3501C83.7063 47.4197 81.7023 49.1765 81.5919 49.3061C81.5391 49.3685 81.4575 49.5605 81.1575 49.8485C80.8839 50.1173 80.7879 50.7965 80.7231 51.0437C80.6847 51.1901 79.6503 53.1173 79.2231 53.6069C78.6351 54.2885 77.4279 55.6757 77.0151 56.0621C76.6335 56.4221 75.7311 57.7733 75.1839 58.4285C74.6079 59.1773 74.4063 59.6717 74.2239 60.7637C74.1399 61.2845 73.6359 62.2829 73.6311 62.8493C73.6311 63.2309 73.7007 63.4013 73.8807 63.5333C74.4423 63.3149 77.2167 61.5077 78.7239 60.9533C80.1639 60.4325 81.4719 59.7149 82.2447 59.4053C82.5975 59.2421 83.4519 57.7373 83.5479 57.4517C83.6031 57.2813 84.0567 55.4189 84.3855 54.3269C84.5751 53.6717 84.5175 52.6973 84.5247 51.9125C84.0999 51.8165 83.7735 51.7853 83.5455 51.8669C83.0319 52.0517 81.8319 53.1773 81.3759 53.5421C80.8791 53.9381 78.8871 55.3325 78.6591 55.4957C77.9463 56.0165 76.6383 57.2957 76.0311 57.9005C75.1791 58.7693 74.1999 59.9813 73.6983 60.8357C72.6783 62.6021 72.5703 63.2693 72.5775 63.3149" stroke="#B0E4D6" stroke-width="4.8" stroke-linecap="round"/>
<path d="M83.2211 55.2793H83.3291C83.1203 55.6297 82.2514 56.0929 80.8594 57.0817C78.9706 58.4041 76.3979 59.6017 75.6179 60.3841C74.8355 61.1761 71.5451 66.0049 71.2739 66.2473C71.2907 66.3505 73.3139 66.3577 73.3379 66.3553C74.2259 66.2569 76.8515 64.9921 79.1699 64.2937C80.0651 64.0225 82.9858 62.6545 84.1978 62.3377C84.9394 62.1433 86.0003 61.3321 86.1539 61.2529C85.8707 61.5793 84.5315 62.3545 83.7635 62.9905C83.6603 63.0769 82.6307 63.8473 82.1339 64.2937C81.8219 64.5697 81.4283 64.6729 81.1571 64.7281C80.9915 64.7905 79.8779 65.5345 79.7459 65.5969C79.6115 65.6593 79.0019 65.7817 78.7691 65.9209C78.6131 66.0145 78.1691 66.3553 78.0083 66.3553C77.9003 66.3577 77.6003 66.3889 77.2475 66.6817C76.9043 66.9721 76.1698 67.3345 75.745 67.6609C74.9746 68.1001 73.7915 69.0073 73.6643 69.0721C72.8003 69.5065 71.6915 70.1881 71.6003 70.2649C71.1659 70.6441 69.7378 72.4825 69.6466 72.5473C69.529 72.6241 68.9387 72.8977 68.8859 72.9817C68.7371 73.2169 68.3939 73.5433 68.3435 73.6321C68.3243 73.6633 68.1803 74.1313 68.1251 74.1745C67.6955 74.5177 67.3715 75.0817 66.9299 75.4777C66.7883 75.6049 66.3323 75.7057 66.1715 75.8041C66.0707 75.7369 66.6587 74.9329 67.3643 74.2849C68.0099 73.7041 69.0395 73.0849 70.0499 72.6193C70.4699 72.4297 71.8739 71.5345 72.3659 71.2825C72.7883 71.0161 74.6531 69.5761 74.7491 69.5065C75.4811 68.9761 76.5946 68.5297 77.1394 68.0929C77.425 67.9105 78.4163 67.6537 78.6587 67.5505C79.1579 67.3369 80.7779 66.0049 81.1571 65.7049C81.3875 65.5225 81.7499 65.5297 81.8099 65.4865C82.0259 65.2705 82.429 64.9153 82.7866 64.8361C83.4682 64.6801 84.8051 64.0009 84.8507 63.9673C85.3403 63.5809 85.5059 63.0481 85.8275 62.7721C85.9547 62.6617 86.2618 61.9033 86.4778 61.4689C86.5066 61.3633 86.9315 59.6929 87.0227 59.6233C87.1619 59.8345 87.1643 60.9457 86.9819 61.4737C86.7851 61.9057 86.3843 63.1105 86.2619 63.3145C85.9763 63.7897 85.2035 64.8457 85.1747 64.9441C85.1507 65.0305 85.1507 65.2105 85.1747 65.4865" stroke="#B0E4D6" stroke-width="4.8" stroke-linecap="round"/>
<path d="M62.5865 77.2152C62.5841 73.2696 62.5961 66.348 62.5865 66.2472C62.5817 66.192 62.3057 64.7208 62.3705 64.0752C62.4041 63.732 62.4041 63.5136 62.3705 63.4248C62.2769 63.18 61.8665 62.6304 61.8977 62.2296C61.9409 61.668 61.9505 59.7144 61.9361 59.6232C61.9049 59.4408 61.5257 58.6728 61.5017 58.536C61.4825 58.4352 61.4825 41.3376 61.5017 41.268C61.5449 41.1144 61.7489 40.7664 61.7177 40.7256" stroke="#7EA399" stroke-width="4.8" stroke-linecap="round"/>
<path d="M61.7171 41.3785C60.4979 41.3665 58.6379 41.4289 58.3499 41.3785C58.3379 41.3761 57.1067 40.7521 56.5043 40.7257C56.2715 40.7161 55.4746 40.7545 55.309 40.7257C54.5602 40.5385 53.7154 40.4905 53.0146 40.2241C52.6954 40.1041 52.2755 40.0441 51.9371 40.0681C51.5579 40.0945 51.3106 39.8857 51.1834 39.8569C51.073 39.8329 48.5914 39.8689 47.5738 39.8761C46.5682 39.8737 44.8979 39.8761 44.2331 39.6409C43.5371 39.3913 42.025 39.4393 41.3818 39.3889C39.7114 39.1897 36.6683 38.8681 35.1107 38.6617C34.3283 38.5609 31.885 38.5753 31.6354 38.5537C27.5866 37.8793 20.0674 36.9313 17.8018 36.4921C17.029 36.3457 15.505 36.3937 15.1282 36.2737C14.7466 36.1105 14.2091 35.8969 13.8923 35.9281C13.3403 35.9833 10.8922 35.6857 9.77625 35.2945C9.22185 35.1001 8.60745 35.1265 8.39385 35.0785C8.17785 34.9705 7.88745 34.8481 7.09065 34.8625C7.01865 34.8649 6.98265 34.9009 6.98265 34.9705C7.00905 35.9161 7.23945 36.5905 7.63545 37.0345C7.73145 37.1425 8.13465 37.7905 8.17785 37.9033C8.21865 38.0089 8.45385 38.4409 8.72025 38.5537C8.72265 38.5561 18.433 38.5537 22.1866 38.5537C24.4522 38.5249 27.9203 39.0193 29.5115 39.0073C32.1059 38.9545 33.1523 39.0457 35.5451 39.4225C36.4211 39.5665 38.8738 40.0753 40.3234 40.0753C40.6474 40.0969 46.0594 40.9153 46.1866 40.9441C46.3258 40.9729 47.3435 41.3449 47.6003 41.3785C47.8427 41.4097 48.9826 41.3497 49.1194 41.3785C49.2058 41.3953 49.7795 41.6473 50.1275 41.7697C50.4539 41.8897 53.1275 42.4369 53.3555 42.4633C53.6075 42.4921 53.8714 42.3937 54.1162 42.4633C54.3946 42.5449 54.8939 42.9073 55.2011 42.8977C55.2731 42.8977 56.053 43.0561 56.1778 43.1161C57.073 43.5433 58.2347 45.3865 58.3499 45.6121C58.4483 45.8041 58.7363 47.1721 58.7843 47.3497C58.8635 47.6329 59.077 47.8633 59.329 48.0025L59.2187 49.1977C58.7579 49.2217 58.2203 49.1497 57.8075 48.9793C57.6803 48.9265 56.6195 48.3265 55.8539 48.0025C55.6619 47.9209 53.3627 47.0281 53.3555 47.0257C53.0915 46.8985 52.4051 46.4929 51.8531 46.2889C51.3011 46.1137 49.6235 45.5161 49.5539 45.5041C49.3931 45.4777 44.1035 45.4921 41.9075 45.5113C39.5459 45.5113 37.6907 45.2929 37.0643 45.1777C36.1331 45.0049 35.053 44.6665 34.6762 44.6353C34.4746 44.6209 29.1538 44.6401 27.073 44.6449C25.7674 44.6377 22.5898 44.3665 21.1018 44.2009C20.881 44.1769 16.3186 44.2129 14.2762 44.2153C13.4962 44.2201 12.6082 43.7305 11.9698 43.7473C11.413 43.7593 11.0602 43.7905 11.0002 43.7665C10.9834 43.7593 9.73785 43.0585 9.04665 42.8977C8.58345 42.7921 7.09545 42.2545 6.98265 42.1369C6.81225 41.9473 6.75465 41.6449 6.65625 41.4865C6.68745 41.3761 15.2722 41.3713 19.0402 41.3713C28.5418 41.3761 42.8603 41.3785 47.6771 41.3785C48.1547 41.3809 48.9058 41.3785 50.749 41.8129H50.2066" stroke="#7EA399" stroke-width="4.8" stroke-linecap="round"/>
<path d="M10.4582 45.5039L10.1318 45.9383C10.3502 46.2047 10.5734 46.3271 11.0006 46.3727C13.0358 46.5959 16.6838 47.2391 17.4086 47.3495C19.3766 47.6495 23.231 47.8895 23.9798 47.9711C24.7598 48.0575 26.735 48.5879 27.5702 48.6839C28.115 48.7439 30.1238 48.8495 30.9518 49.0223C31.295 49.0919 33.1118 49.4231 34.1318 49.4303C38.255 49.3919 43.403 49.7471 44.6102 49.8719C45.0806 49.9175 45.4526 50.0327 45.971 50.2823C46.487 50.5319 47.891 50.4599 48.7934 50.7167C49.0094 50.7527 50.8598 50.9135 50.9654 50.9351C51.5918 51.0983 54.335 51.7343 54.4406 51.8039C54.659 51.9479 54.8438 52.1639 55.0934 52.2383C55.3358 52.3103 56.0246 52.2431 56.0702 52.3463C56.111 52.4303 57.563 52.8527 58.1342 52.8887C58.3982 52.9055 59.483 53.4287 59.5454 53.6495C59.2646 53.7671 54.6926 53.7647 53.4926 53.6183C52.967 53.5487 49.7846 51.8543 49.0118 51.4775C48.9758 51.4607 47.1494 50.6087 46.547 50.3279C45.5654 49.8743 44.7734 49.8575 43.907 49.6319C43.8926 49.6271 39.455 49.6343 38.2598 49.6319" stroke="#7EA399" stroke-width="4.8" stroke-linecap="round"/>
<path d="M44.7755 48.7637L53.3555 49.4141C51.9395 49.4141 48.7331 49.4141 46.9403 49.4165C45.0731 49.4213 42.9131 49.2053 40.2107 48.7901C35.0915 47.9621 30.9035 47.4629 30.3323 47.2421C29.3963 46.8821 27.9515 46.7117 27.4547 46.5413C27.2435 46.4693 26.7203 46.1765 26.6387 46.1573C26.5331 46.1333 17.1611 46.1525 15.2363 46.1573" stroke="#7EA399" stroke-width="4.8" stroke-linecap="round"/>
<path d="M10.2422 48.3291C11.207 48.3243 14.1134 48.7443 15.7286 49.0131C17.7518 49.3803 21.0206 50.2491 22.859 50.7531C25.1222 51.4059 27.4526 52.3899 28.3142 52.6275C29.8478 52.9779 32.651 53.6571 34.3502 53.7579C36.0614 53.8491 42.1742 54.4323 43.6766 54.7515C44.2094 54.8643 45.4718 54.8379 45.9158 54.8787C49.355 55.4283 51.5198 55.8267 52.8134 56.0403C53.2838 56.1411 53.8118 56.1507 54.659 56.4747C55.3502 56.7363 57.4046 57.0771 57.4814 57.1251C57.5678 57.1803 57.8462 57.4299 58.1342 57.4515C58.2782 57.4635 58.8542 57.4635 59.003 57.5595C59.2454 57.7251 59.3534 58.0779 59.3294 58.5363C59.3222 58.6251 59.3174 59.5827 59.3294 59.7315C59.3462 59.9451 59.6702 60.2595 59.7638 60.3843C59.783 60.4107 59.7422 61.6779 59.8718 61.7955C59.9654 61.8747 60.2102 63.0867 60.1982 63.2067C59.7974 63.2283 59.1206 62.9835 58.439 62.5419C58.031 62.2731 56.1158 61.3251 54.4406 60.1659C53.711 59.6571 52.5374 58.4787 51.7262 57.9939C50.315 57.2883 47.9942 56.1003 46.1918 55.5939C45.023 55.2891 41.519 54.9531 40.7582 54.8451C40.6046 54.8331 39.323 54.8355 38.2166 54.6963C36.215 54.4443 31.9046 53.6379 31.2062 53.5947C30.203 53.5347 29.2022 53.5539 28.5662 53.3451C27.3878 52.9611 27.0014 52.8843 25.9814 52.8771C24.8702 52.8771 22.1294 52.8867 22.079 52.8891C21.8078 52.9059 21.3254 52.7163 21.1022 52.6731C20.9462 52.6419 19.8782 52.7043 19.6886 52.6731C19.5494 52.6491 18.7718 52.2747 18.6038 52.2387C18.5198 52.2195 17.8478 52.2603 17.627 52.2387C17.4158 52.2171 16.6742 52.0299 16.5398 52.0203C16.2014 51.9939 15.383 52.0371 15.3446 52.0203C15.1958 51.9579 14.7134 51.7587 14.2598 51.8043C14.1326 51.8163 13.031 51.3027 12.6302 51.1515" stroke="#7EA399" stroke-width="4.8" stroke-linecap="round"/>
<path d="M9.58887 48.5449C9.83127 48.5353 9.99687 48.5593 10.2417 48.6529C10.4937 48.7657 10.8417 50.6353 11.0001 50.8273C11.4537 51.3529 11.5857 51.5305 12.2625 51.7465C12.4377 51.8017 16.0569 52.1401 20.8833 53.2153C21.9633 53.4673 25.2201 54.3697 26.5305 54.7369C27.9417 55.1401 30.1473 55.4497 33.4233 56.2033C36.0081 56.8225 37.4025 57.4345 38.6361 57.6889C39.9897 57.9697 44.2137 59.4049 44.6673 59.4049C44.9577 59.4553 45.4065 59.8201 45.5361 59.8393C45.8217 59.8873 46.5825 59.8441 47.0217 59.9257C48.2841 60.1561 49.4841 60.3289 49.9881 60.4921C50.1393 60.5401 51.5049 61.1617 51.9441 61.2529C52.2081 61.3057 53.1009 61.4209 53.2473 61.4689C53.5089 61.5553 55.1985 62.1529 55.8537 62.3377C56.5521 62.5321 57.7689 62.8321 58.3497 63.0985C58.7433 63.2785 58.8465 63.3697 59.0025 63.6409C59.1081 63.8401 59.5329 64.9969 59.5449 65.2705C59.5929 66.2209 59.7633 67.9849 59.7633 70.1569C59.4489 70.2049 59.3217 70.1545 58.7841 69.7225C58.6737 69.6313 56.4849 67.9921 56.2881 67.8769C55.8345 67.6177 45.0777 63.3097 44.0145 62.9905C42.9297 62.7169 40.3617 62.0185 39.3465 61.9033C39.0681 61.8721 36.7545 61.6993 36.0537 61.5289C34.7889 61.1833 27.6993 60.4777 27.4017 60.4249C26.8593 60.3241 25.2177 59.7769 24.9009 59.7313C24.5001 59.6713 23.5713 59.6593 23.4897 59.6233C23.2809 59.5249 22.8273 59.1001 22.5465 59.0209C20.4105 58.4401 17.7969 57.1417 16.0569 56.7505C15.4041 56.6065 14.1969 56.2513 13.3401 56.1385C11.6961 55.9297 10.6521 55.9177 10.4625 55.8457" stroke="#7EA399" stroke-width="4.8" stroke-linecap="round"/>
<path d="M11.1113 54.8447C13.1849 54.8639 15.4961 55.0247 18.4025 55.3319C20.9465 55.6271 26.2649 56.5079 27.5273 56.6471C28.1153 56.7479 31.6049 58.0271 32.7425 58.2671C35.7617 58.9703 40.7201 59.9879 41.5121 60.0887C44.5409 60.4583 47.3105 60.9671 49.1081 61.6823C50.1449 62.0807 51.3497 62.2007 51.5105 62.2295C51.6737 62.2583 52.5281 62.5871 52.8953 62.7311C53.4473 62.9447 54.2681 63.0215 54.5513 63.0983C54.7121 63.1415 55.9793 63.8351 56.5049 63.9671C57.1001 64.1687 59.5265 65.6759 59.5457 65.7047H57.1577" stroke="#7EA399" stroke-width="4.8" stroke-linecap="round"/>
<path d="M12.6299 60.274C13.7459 60.262 14.8187 60.442 15.7331 60.8188C16.1891 61.0132 18.0539 61.462 18.5075 61.81C19.2059 62.35 21.9131 63.1372 22.0787 63.2068C22.3019 63.298 23.0627 63.6844 23.3819 63.7492C24.8123 63.9532 30.3995 65.2948 31.6355 65.5972C32.2475 65.7172 33.0899 65.698 33.9155 65.9212C34.4435 66.0676 35.3339 66.4876 35.8619 66.6508C36.5171 66.8548 37.3643 67.4356 37.6091 67.4428C38.1563 67.4596 38.7395 67.9348 38.8019 67.9852C39.1091 68.2228 39.8339 68.5828 40.3235 68.854C40.4987 68.9188 43.6907 69.7228 45.4283 70.2652C46.4387 70.5412 47.4203 70.7116 47.6003 70.81C47.7347 70.882 48.0107 71.1916 48.3587 71.2444C48.6563 71.2924 49.0043 71.4412 49.3379 71.6788C49.8923 72.0748 50.4251 72.1732 50.6411 72.2212C50.8643 72.2692 51.4643 72.7444 51.5099 72.7636C51.7859 72.874 52.8059 73.21 53.0291 73.306C53.4491 73.486 54.0851 73.4836 54.2243 73.5244C54.3515 73.5604 55.2827 74.2108 55.4195 74.2852C55.4843 74.3212 57.7211 75.2356 57.9155 75.262C58.2419 75.262 58.8995 75.298 59.2187 75.478C59.3771 75.5692 59.7155 75.8452 59.7635 75.8044C59.8043 75.6916 59.6795 75.382 59.4371 75.0436C59.3195 74.8804 59.0603 74.7772 59.0027 74.7196C58.9091 74.6284 58.6643 74.218 58.5683 74.1748C58.4291 74.1148 57.1187 73.2244 56.8307 72.982C56.6435 72.8236 56.4443 72.4492 55.9619 72.2212C55.5827 72.0028 54.4955 71.3236 54.3323 71.2444C54.1979 71.1772 52.4675 70.4788 51.1835 69.7228C49.8179 68.9716 47.1227 67.414 46.3259 67.0204C43.5563 65.662 41.9795 65.0212 41.8427 64.9444C41.6675 64.8436 39.7859 63.7012 39.6707 63.6412C39.4643 63.5356 39.3875 63.5212 39.1283 63.5332C39.7739 63.514 46.3115 64.1788 49.6619 64.9444C50.6123 65.1652 51.8531 65.7604 52.0523 65.8132C52.2419 65.8636 53.1467 65.9404 53.4635 66.0316C53.4923 66.2236 51.9875 65.9332 50.9651 65.4868C50.7107 65.374 49.1507 64.5724 48.1691 64.2124C47.0579 63.8068 40.5323 61.978 38.9123 61.6876C37.9163 61.5052 36.0755 60.7804 35.6531 60.7084" stroke="#7EA399" stroke-width="4.8" stroke-linecap="round"/>
<path d="M14.152 38.9881C12.0256 37.6609 10.2544 35.8441 9.69759 35.5129C9.61599 35.4649 9.13119 34.6753 9.04719 34.5361C8.83119 34.1785 8.49279 33.2209 8.07039 32.7985C7.79679 32.3641 7.06719 31.3321 6.98319 30.7345C6.95679 30.5425 6.64239 29.2585 6.51279 28.9945C6.28239 28.5265 6.07119 28.3921 6.00639 28.3465C5.84799 28.2385 5.19519 27.7297 5.13759 27.6937C4.94799 27.5737 3.44319 26.3497 3.39999 26.2825C3.38079 26.2537 3.34479 26.1433 3.29199 25.9561" stroke="#7EA399" stroke-width="4.8" stroke-linecap="round"/>
<path d="M3.29199 25.5215C3.71439 25.5719 3.90639 25.6655 4.21839 25.9943C4.66479 26.4599 6.01359 26.7527 6.22239 26.9327C7.03839 27.5855 9.32319 29.5895 9.83439 29.9159C13.2736 32.0711 16.9528 33.4871 18.0616 34.1015C18.3424 34.2383 21.5296 35.3423 23.0536 35.7287C25.444 36.3167 32.5192 38.6087 37.2352 39.8591C37.8328 40.0535 39.5944 41.0063 40.4608 41.4815C41.3224 41.9591 42.5656 42.2783 42.604 42.2471" stroke="#7EA399" stroke-width="4.8" stroke-linecap="round"/>
<path d="M3.50781 27.0435C4.37661 27.0291 5.45661 27.3147 6.48861 27.7107C7.48941 28.0947 8.52381 28.2555 9.09741 28.3467C11.5334 28.7355 13.4942 29.1123 16.5038 29.3691C17.1446 29.4219 18.5894 29.5155 19.1078 29.6835C19.403 29.7819 21.023 30.4587 21.3398 30.6195C21.6806 30.7899 22.4438 31.3443 23.0558 31.6035C24.3974 32.1651 26.471 33.1443 28.3766 33.6675C28.6694 33.7467 31.9238 34.5963 34.0238 35.1867C34.7654 35.3979 35.7518 35.9187 36.1958 36.0555C37.1534 36.3507 39.623 36.9675 40.2158 37.0347" stroke="#7EA399" stroke-width="4.8" stroke-linecap="round"/>
<path d="M6.98242 27.6934C7.22962 27.691 9.22162 27.751 9.80722 27.8014C10.8152 27.8998 20.276 30.6958 20.7752 30.9526C21.008 31.0702 21.6872 31.5406 21.9704 31.603C22.028 31.6174 22.1024 31.6174 22.1864 31.603" stroke="#7EA399" stroke-width="4.8" stroke-linecap="round"/>
<path d="M4.81055 27.0431C5.14655 27.0335 8.99855 27.7607 11.5353 28.1495C12.2937 28.2599 13.7097 28.3463 14.0865 28.4759C16.1721 29.2079 16.4793 29.2583 18.2697 29.9975C18.7569 30.1943 19.9329 30.3983 20.4969 30.6119C21.3657 30.9431 22.1001 31.1495 22.8129 31.1927C23.4369 31.2311 25.3665 31.8791 25.5537 31.9295C26.5689 32.2007 27.3561 32.5919 27.9561 32.7335C28.8897 32.9495 30.5673 33.3887 30.8745 33.4487C32.9337 33.7655 34.2153 33.7847 35.5449 33.9935C35.8521 34.0415 36.6561 34.3871 36.8481 34.4279C36.9897 34.4567 38.4393 34.6895 39.1281 34.6439C39.4569 34.6247 40.7505 35.2607 41.4081 35.4047C41.9313 35.5127 42.8769 35.5127 43.2561 35.7311C43.6497 35.9591 46.1985 36.2639 46.8393 36.5999C47.2329 36.8087 47.6385 36.7895 47.8161 36.8159C48.4929 36.9239 49.7841 37.5527 49.8801 37.5767C50.2449 37.6655 51.0441 37.6463 51.1833 37.6847C51.3393 37.7279 53.4393 38.5511 53.4633 38.5535C53.6793 38.5775 53.9097 38.4887 54.1161 38.5535C54.3945 38.6423 54.9897 39.0383 55.3089 38.9879C55.5033 38.9591 55.8058 39.0191 55.8538 39.0959C55.9162 39.2015 56.5401 39.1919 56.8305 39.2063C57.1329 39.2183 57.373 39.4223 57.481 39.5303C57.637 39.6407 59.4369 39.6767 60.3057 40.0751C61.0017 40.3919 61.5993 40.5311 61.7169 40.5095" stroke="#7EA399" stroke-width="4.8" stroke-linecap="round"/>
<path d="M17.6272 54.8451C17.1304 54.8091 16.7608 54.8955 16.432 55.1715C15.7888 55.7163 14.92 56.9403 14.5864 57.3435C14.3536 57.6267 14.1904 58.6611 13.8256 59.0811C13.552 59.3859 13.4464 59.6427 13.3912 60.0579C12.976 60.0459 12.5656 60.0795 12.5224 60.0579C12.2632 59.9235 11.8024 59.4243 11.7616 59.1891C11.7352 59.0187 11.788 48.2091 11.7688 47.9115C11.7136 47.2683 11.02 46.1475 10.6768 45.7227" stroke="#7EA399" stroke-width="4.8" stroke-linecap="round"/>
<path d="M28.4872 47.0258L26.5312 46.373H44.668H21.8608C25.5592 46.3754 32.1016 46.3898 32.776 46.4282C33.4936 46.4714 42.5896 47.537 42.604 47.5682C42.3568 47.8346 42.1672 47.9762 41.8744 48.0482C40.684 48.3338 37.3888 48.7778 35.1928 48.7634C31.7464 48.8666 25.9384 48.9698 21.1696 49.385C21.0376 49.3946 20.8696 49.4043 20.668 49.4139C23.7736 49.4139 31.3432 49.4162 35.8048 49.4186C41.4568 49.4162 43.9984 49.3826 45.1384 49.7978C45.2704 49.8482 46.3192 50.2346 46.5136 50.393C45.4792 50.753 43.2424 50.9066 40.7248 50.9282C36.364 50.9306 25.3168 50.9282 25.012 50.9354C23.9224 50.9618 23.4472 51.0818 22.948 51.2618C23.044 51.5186 23.9056 51.6866 24.8344 51.7994C26.9056 52.0466 31.0288 52.6394 31.4992 52.7258C32.5576 52.9298 36.46 54.3218 37.5232 54.6194C38.272 54.8258 40.3336 55.2626 40.5952 55.3322C40.9168 55.421 42.3592 56.0138 43.1464 56.2562C43.5256 56.3714 45.4528 56.8106 45.4288 56.909C45.052 57.0218 34.8352 57.0458 30.2728 57.0458C28.5544 57.0242 24.3064 56.9666 22.6576 56.6714C21.628 56.4866 21.1552 56.4194 20.776 56.3642C22.228 56.309 25.5256 56.7914 27.6568 57.1442C34.9744 58.4762 48.5776 60.5618 55.1776 61.6082C58.6456 62.0042 58.7728 62.0354 58.8952 62.1218V62.5562C58.516 62.6714 36.3616 62.6714 27.2992 62.6666C25.7776 62.6666 23.3296 62.6642 22.4056 62.6642" stroke="#72A89A" stroke-width="4.8" stroke-linecap="round"/>
<path d="M12.8486 58.7549C13.7942 59.3453 16.9598 60.0725 17.5166 60.2741C18.0062 60.4493 19.3214 60.4973 21.0446 60.7829C22.2518 60.9845 25.2926 61.9277 26.8766 62.3837C27.3566 62.5301 28.0238 62.5949 28.2686 62.6645C28.2782 62.6669 29.2046 63.0653 29.5718 63.1757C29.9414 63.2885 30.6302 63.3533 30.875 63.4253C32.8838 64.2053 33.3254 64.4405 35.1134 65.1077C35.4614 65.2301 37.5566 65.7029 38.0366 65.9093C38.6318 66.1661 40.2806 66.6725 40.6502 66.7901C41.9318 67.2101 43.2902 68.0477 43.3646 68.0933C43.5638 68.2181 45.4166 69.2693 45.6446 69.3965C46.3646 69.7997 50.0126 70.5965 51.4862 70.7357C52.1774 70.7981 56.2286 71.3429 56.6126 71.4605C57.395 71.7077 58.1174 71.9669 58.6766 72.0029C59.063 72.0269 59.3678 72.3773 59.4374 72.4373L58.4606 72.0029" stroke="#72A89A" stroke-width="4.8" stroke-linecap="round"/>
<path d="M13.7168 60.0579C15.0056 60.0171 15.8576 60.0963 16.4312 60.3843C16.5896 60.4659 17.2232 60.7731 17.3 60.8187C17.4848 60.9219 17.7368 60.9003 17.8424 60.9267C18.0272 60.9699 18.5936 61.3563 18.6032 61.3611C18.7304 61.4091 22.6664 62.5299 23.4776 62.7555C26.4344 63.5811 28.3832 64.3203 29.9552 64.5843C30.6512 64.6995 32.4632 65.2515 33.1544 65.3787C33.7568 65.4867 36.4088 65.7579 36.74 65.8131C37.7552 65.9883 39.2648 66.6555 39.3464 66.6819C40.8512 67.1787 41.3768 67.2483 42.0608 67.7691C42.2312 67.8963 42.7856 68.0523 42.9296 68.0931C43.2536 68.1867 43.8176 68.5659 44.0144 68.6379C44.192 68.7003 45.4304 68.8155 45.644 68.8539C46.0808 68.9307 46.8248 69.3219 47.0552 69.3963C47.1776 69.4371 47.7512 69.3627 47.924 69.3963C48.356 69.4803 48.9512 69.8619 49.772 70.1571C50.5616 70.4427 51.5696 70.9635 51.6176 71.0259C51.968 71.4867 53.0144 72.0075 53.1368 72.1131C54.02 72.8571 54.3032 73.0299 54.332 73.0899" stroke="#72A89A" stroke-width="4.8" stroke-linecap="round"/>
<path d="M39.3467 68.3116C40.3163 68.29 40.8995 68.3284 41.7347 68.638C41.8331 68.674 44.7035 69.6916 44.7755 69.7228C46.8155 70.6324 47.3891 71.0284 49.1195 71.4604C49.2251 71.4916 50.7179 72.0364 51.1835 72.0028C51.3659 71.9908 51.4643 72.0268 51.8123 72.2236C52.1507 72.4156 52.5611 72.4156 52.7027 72.4372C52.9547 72.4756 54.0131 72.9316 54.4403 73.198C54.5795 73.282 57.9731 74.2324 58.0259 74.2852C58.0931 74.35 58.5827 74.4076 58.8947 74.7196C58.9787 74.794 59.6555 74.9908 60.5219 75.5884C61.1579 76.0204 61.7939 76.3156 61.8275 76.3468C61.8563 76.3468 62.5523 76.5916 62.8043 76.7812" stroke="#72A89A" stroke-width="4.8" stroke-linecap="round"/>
<path d="M63.2387 76.999L62.9123 76.891C62.8523 76.5742 62.6291 76.1782 62.5859 76.0222C62.5451 75.8758 62.6387 75.235 62.5859 75.1534C62.4779 74.9782 62.2331 74.9062 62.1515 74.719C62.0651 74.5198 62.1467 73.915 62.0435 73.6318L61.9355 78.295" stroke="#72A89A" stroke-width="4.8" stroke-linecap="round"/>
<path d="M62.1514 76.9995L62.2618 76.4571L62.5858 76.3467" stroke="#72A89A" stroke-width="4.8" stroke-linecap="round"/>
<path d="M61.9358 76.7807L62.3702 76.6727C62.3654 72.8903 62.4134 64.1183 62.3702 63.9671C62.2862 63.6863 61.8974 63.1223 61.9358 62.7719C62.0966 61.2887 61.7006 57.2183 61.7006 57.2183C61.7078 53.4239 61.7366 42.6263 61.7174 42.5711C61.667 42.4199 61.5302 42.2975 61.5014 42.1367C61.4486 41.8535 61.4894 41.0183 61.3934 40.3991C60.9134 40.1183 60.3062 40.0751 60.0878 40.0751C59.603 40.0679 56.6078 39.3791 56.3966 39.3143C56.171 39.2447 55.9958 38.9903 55.9622 38.9879C55.7102 38.9735 54.8702 38.9519 54.3326 38.7719C54.107 38.6975 53.3702 38.3639 53.2478 38.3375C53.123 38.3087 51.5102 38.2271 50.7494 38.1191C50.651 38.1023 49.7918 37.6487 49.5542 37.5767C49.3622 37.5191 46.8038 37.1543 46.7318 37.1423C46.4438 37.0943 43.7054 36.6095 43.5806 36.5999C43.4366 36.5855 41.7854 36.5759 40.7582 36.3815C40.487 36.3311 38.9846 36.1655 38.6942 36.0551C37.787 35.6015 33.431 34.8791 32.1854 34.6799C31.8854 34.6463 31.4534 34.6559 31.3094 34.6439C31.1822 34.6343 29.6126 33.9839 29.3558 33.8831C29.2166 33.8303 27.4718 33.4511 26.8574 33.2327C25.679 32.8151 24.4382 32.4167 24.251 32.3639C23.8478 32.2511 22.5734 32.2583 22.079 32.0375C21.8342 31.9271 20.171 31.5911 19.799 31.6031C19.4726 31.6031 18.8582 31.6175 18.8198 31.6031C18.6686 31.5455 18.5438 31.4207 18.3854 31.3871C18.2438 31.3559 18.0878 31.4351 17.951 31.3871C17.7806 31.3247 17.3726 30.9551 17.1926 30.9527C16.2662 30.9311 14.3294 30.1199 14.0414 30.0839C13.571 30.0287 7.35496 27.5591 7.09096 27.4775C6.62056 27.3287 5.74696 26.7959 5.46376 26.7167C4.88056 26.5991 4.70775 26.3423 4.26855 26.0639C4.36935 25.9583 4.60696 25.9559 5.25016 26.0855C7.07896 26.4551 7.97656 26.6639 8.85976 26.9855C11.5526 27.9983 12.443 28.2047 12.6302 28.3463C12.8174 28.4831 13.451 28.9631 13.7174 28.9967C13.9886 28.9967 14.615 29.0327 14.9102 29.2151C15.1334 29.3519 15.311 29.5799 15.563 29.6495C15.8414 29.7263 16.487 29.6495 16.6478 29.7575C16.7462 29.8199 18.4646 30.5471 18.6038 30.6263C19.5686 31.1687 20.1614 31.1687 20.9918 31.3871C21.0974 31.4135 22.3574 31.8215 22.7294 31.8215C23.7686 32.0279 29.627 32.9111 29.6798 32.9063C30.4022 32.8679 31.799 33.4343 31.8518 33.4487C32.1662 33.5375 33.4646 33.7703 33.4814 33.7751C33.7742 33.8447 38.9966 35.5943 39.9518 35.8559C49.9502 38.5775 53.375 39.4559 54.0806 39.4391C55.067 39.4151 55.2278 39.5663 55.3094 39.6407H55.2014" stroke="#72A89A" stroke-width="4.8" stroke-linecap="round"/>
<path d="M5.67951 29.2158C5.63871 29.847 5.76351 31.2006 6.00591 32.1462C6.44031 33.5598 7.63311 37.4358 7.74351 37.9038C8.13951 39.6414 8.03871 46.0782 8.03871 46.1214C8.02671 46.575 8.71791 47.6166 8.82831 48.111C8.91231 48.4854 9.38991 49.3062 10.0211 50.1894C10.1891 50.4342 11.7371 53.9238 11.9795 54.7374C12.0803 55.0734 12.9899 56.1222 13.0643 56.2566C13.2131 56.5206 13.4627 57.7134 13.4987 57.7782C13.6547 58.047 14.1923 58.947 14.8019 59.7318C14.8043 56.487 14.8067 52.1814 14.6339 49.923C14.5931 49.2606 14.4539 47.4774 14.0747 46.5342C13.4795 45.1062 13.2995 44.5878 13.1723 43.875C13.0523 43.1886 12.3131 41.1942 12.3035 41.1606C12.2651 41.0286 12.1307 40.2006 12.0875 40.0758C12.0323 39.9222 11.1491 38.0118 11.1107 37.9038C11.0915 37.8486 10.8275 36.903 10.6571 36.3126C10.4771 35.6814 10.1963 33.7902 10.2419 33.6678C10.2827 33.567 10.7483 33.471 11.2187 33.1254C11.2523 33.099 11.3243 33.027 11.4347 32.907C11.6507 32.9574 12.1163 33.2094 12.3035 33.4494C12.3659 33.5286 13.1123 34.947 13.7651 35.8566C14.5931 37.0158 15.6707 40.2918 16.1315 41.6238C16.7579 43.3734 17.1971 45.4566 17.6219 46.839C17.9507 47.991 18.0707 50.6838 18.0467 53.5278C18.0179 55.4886 18.3731 57.879 18.3851 57.8862C18.8339 57.2958 19.1795 53.5758 19.3643 52.8894C19.5899 52.0302 19.5875 46.587 19.5347 45.843C19.4699 45.0126 18.8027 43.1142 17.6651 40.3086C17.3267 39.459 17.2115 38.9286 17.1563 38.1918C17.1227 37.6662 16.5131 36.243 16.5251 35.6262C16.5371 35.295 16.5419 34.8246 16.5395 34.5366C16.5179 34.3302 17.4851 35.1438 18.2963 36.1254C18.7115 36.6318 19.8155 37.5822 20.1179 37.9086C20.6075 38.4414 21.3515 39.303 21.6443 39.9654C22.1867 41.3238 23.2331 43.839 23.5955 45.5334C23.8787 46.8654 24.5411 49.2246 24.7931 51.4782C24.8411 51.9078 25.2683 54.5958 25.3355 54.7374C25.7147 54.447 26.0747 51.8046 26.1011 49.587C26.0915 47.9286 26.0387 43.9326 25.8851 43.2006C25.7747 42.699 24.0635 39.2238 23.3819 37.9038C22.4483 35.9982 22.3979 34.7958 22.4051 34.1022C22.4747 33.999 23.0555 33.9798 23.4899 34.1022C23.4971 34.1046 26.6051 36.279 28.5611 37.7334C29.8811 38.7414 32.1659 40.4958 33.5771 41.907C34.2635 42.615 35.2427 43.8078 35.8931 44.763C36.3539 45.4446 36.7931 46.3854 37.0187 46.6902C37.2083 46.9422 37.5107 47.2542 37.8203 47.511C38.2211 47.8326 39.7811 47.9406 40.4315 47.7846C40.6235 47.7342 40.6595 47.4942 40.6523 46.923C40.6379 46.5054 40.6595 45.9006 40.6499 45.831C40.5779 45.4134 40.3643 44.7654 40.2107 44.5734C39.8435 44.1342 38.4539 42.9342 37.8251 42.5718C37.4459 42.3582 32.9867 40.8078 31.0811 40.1286C29.7203 39.6486 29.3075 39.6414 29.1371 39.531C29.2355 39.411 30.8795 39.5958 31.0931 39.6414C31.3547 39.699 36.3371 41.199 39.2699 41.511C42.5507 41.9766 47.7467 42.5382 50.7227 42.9438C51.0419 42.9774 51.9035 43.131 52.4867 43.1166L52.5947 42.7902C52.2563 42.543 51.1115 42.0174 50.6411 41.9214C48.9659 41.6646 46.3595 40.7838 45.6803 40.6278C43.7195 40.1862 39.1763 38.5638 38.6675 38.4198C35.4515 37.5126 31.0739 37.227 30.4403 37.143C30.3779 36.4158 35.4371 38.0286 36.0875 38.2278C36.5123 38.3598 38.6147 39.051 39.2363 39.207C40.0019 39.3942 42.2627 39.771 43.0331 39.963C43.6883 40.1286 44.8355 40.5462 45.7523 40.7262C46.3187 40.8366 54.4835 42.1446 55.4915 42.243C56.7395 42.363 58.6571 42.4974 58.6763 42.5718C58.7363 42.8574 58.6763 43.875 58.6763 43.875C58.5371 44.1846 58.0787 44.5422 57.6995 44.6358C56.6147 44.8854 54.0611 44.8494 53.3651 44.8326C52.9691 44.8182 52.3139 45.0414 52.0523 45.0702C51.8363 45.0966 51.6059 44.9982 51.3995 45.0702C51.1547 45.1566 50.6171 45.5718 50.2571 45.543C49.7315 45.5022 47.4587 45.4974 47.2739 45.6126C47.2019 45.6606 47.0219 45.8046 46.7315 46.047C46.7891 46.6566 46.9163 47.031 47.2403 47.2422C48.0755 47.7798 52.1363 48.8598 53.1227 48.9942C54.2819 49.1478 59.2019 49.191 59.2187 49.1982C59.2859 49.2222 60.4163 50.5614 60.5435 50.8134C60.7043 51.1494 60.8003 51.471 60.8483 51.9126C60.9059 52.5774 60.7883 52.9782 60.4139 53.1078C59.6843 53.3406 57.6971 53.3478 57.2363 53.3502C56.1683 53.3526 53.4659 53.3358 53.4203 53.3382C52.7483 53.343 50.9603 52.839 50.7491 52.7814C50.4371 52.6974 49.4003 52.251 49.3379 52.239C49.2683 52.2246 46.5875 52.2582 46.1867 52.239C45.9131 52.2246 45.5027 52.3926 45.3179 52.455C45.2123 52.4934 45.2099 52.5654 45.2099 53.2158C45.4331 53.3382 45.7979 53.7558 45.9707 53.8686C45.9731 53.871 47.7059 54.603 48.2291 54.7326C48.9515 54.9102 50.2811 55.2318 51.2915 55.2798C51.7163 55.2966 54.2267 55.2894 55.2779 55.2774C55.9571 55.2678 56.8307 55.4958 57.1571 55.6062C57.7475 55.7934 58.6283 56.355 58.7843 56.3646C58.8827 56.3718 59.5139 57.0918 59.5451 57.2334C59.5715 57.351 59.5403 58.4526 59.5451 58.647C59.5475 59.0694 59.4995 59.2782 59.3291 59.4054C58.9859 59.6406 57.0011 59.6358 56.5643 59.6358C52.4195 59.6334 45.0899 59.6838 41.6147 59.4054C39.2843 59.199 37.9931 59.1846 37.9331 59.2974C38.0699 59.6022 38.0123 60.8598 38.2595 61.2534C38.4899 61.5942 39.5963 61.947 40.4315 62.1222C41.1251 62.2638 43.2443 62.7438 43.2923 62.7534C44.1755 62.9142 48.1043 62.883 48.7811 62.8398C49.1171 62.8158 49.6283 63.2454 49.8803 63.315C50.1587 63.3966 50.7995 63.315 50.9651 63.4254C51.1571 63.543 53.2499 64.251 53.3555 64.2942C53.8427 64.4862 55.8515 65.7342 55.9619 65.8134C56.0891 65.9022 56.6963 66.507 57.0467 66.6822C57.2531 66.7854 57.4979 66.7926 57.6995 66.9006C57.8363 66.9702 58.3907 67.4358 58.5683 67.551C58.7147 67.647 59.1947 68.343 59.1107 68.6382C59.0651 68.7846 58.7123 69.1374 58.5683 69.1806C58.5539 69.183 49.7819 69.183 47.9675 69.1902C46.9091 69.1782 44.4683 68.4174 44.1251 68.3118" stroke="#72A89A" stroke-width="4.8" stroke-linecap="round"/>
<path d="M42.8223 62.6641C43.3959 62.6473 46.8735 63.6337 47.5167 63.8857C49.6647 64.7593 52.0503 65.7649 53.5719 66.4657C53.9727 66.6169 54.6159 66.7369 54.7671 66.7897C55.1031 66.9073 55.5231 67.1857 55.9623 67.5505C56.0895 67.6585 56.4735 67.6273 56.6127 67.6585C56.7063 67.6801 58.0143 68.2825 58.2423 68.3113C58.3191 68.3185 59.6847 68.3137 59.7639 68.3113C60.2799 68.2825 60.9399 68.0545 61.1751 67.7689C61.4007 67.4737 61.5255 66.8689 61.5183 66.3193C61.5159 66.2833 61.5303 62.9953 61.5327 62.6713C61.5399 61.5505 60.5391 56.6377 59.7639 54.8449C59.0919 53.2777 58.6767 49.2913 58.3503 48.2185C58.2255 47.7985 58.2663 46.0393 58.1343 45.3961L57.8079 45.2881" stroke="#72A89A" stroke-width="4.8" stroke-linecap="round"/>
<path d="M65.8233 40.4736C65.8257 44.3016 65.8257 50.3664 65.8065 51.048C65.8041 51.2952 66.0297 52.392 66.0345 53.244C66.0297 55.1376 66.0393 58.2816 66.0201 58.3632C65.9889 58.5048 65.8065 58.8264 65.8233 59.3448C65.8281 59.4816 65.8257 68.4768 65.8233 70.0584C65.8185 71.1288 65.8377 71.5464 65.6289 72.4176C65.6025 72.5208 65.6289 76.3368 65.6289 77.0376" stroke="#B0E4D6" stroke-width="4.8" stroke-linecap="round"/>
<path d="M67.2012 39.295C68.9196 39.2926 72.5076 39.2926 74.3748 39.295C76.3956 39.3286 78.9372 38.9782 80.3148 38.887C81.1788 38.815 86.6628 37.7758 86.9556 37.723C87.2532 37.6678 88.0596 37.4998 88.626 37.5262" stroke="#B0E4D6" stroke-width="4.8" stroke-linecap="round"/>
<path d="M64.8418 35.5606V35.659C65.1946 35.6782 66.481 35.311 67.1194 34.9894C69.541 33.7222 73.7602 32.503 76.3234 31.315C76.6906 31.1446 78.6826 30.4702 78.7978 30.4486C78.9922 30.4126 79.6234 30.4438 79.7818 30.3502C79.861 30.3046 80.0722 30.0598 80.173 30.0574C80.5042 30.0382 82.3114 29.1574 83.7538 28.747C84.2266 28.6102 86.113 28.0174 86.1682 27.9934C86.6602 27.7462 87.3394 27.307 87.4474 27.3046C87.6106 27.2974 88.1914 27.2254 88.6258 26.911C89.1034 26.5678 92.0674 25.5358 92.2618 25.5358C92.4034 25.4902 92.7226 25.3102 92.7538 25.339" stroke="#EF586A" stroke-width="4.8" stroke-linecap="round"/>
<path d="M4.8877 21.9961L4.9861 22.1929C5.2165 22.1689 5.97969 22.5361 6.9517 22.5865C7.5901 22.6849 9.1909 22.7497 9.4093 22.7833C9.6733 22.8241 11.2597 23.2705 11.9653 23.3737C12.1885 23.4049 13.2061 23.3617 13.3405 23.3737C13.4341 23.3809 17.3149 24.2641 18.5509 24.3553C18.6877 24.3673 19.8589 24.3265 20.0245 24.3553C20.2165 24.3889 20.6389 24.7369 20.7109 24.7489C20.9053 24.7849 21.4813 24.7753 22.0237 24.9865C22.1821 25.0465 25.6861 25.7425 26.7085 25.9297C26.9053 25.9657 27.5365 25.9081 27.5917 25.9297C28.1461 26.2057 31.5061 26.9977 31.9165 27.2065C32.1157 27.3073 34.0621 27.8833 34.1773 27.8953C34.9261 27.9673 35.9269 28.3369 37.0285 28.5817C37.6357 28.7857 39.8245 29.4577 39.8773 29.4673C40.0717 29.4985 40.6765 29.4745 41.0581 29.5657C41.8981 29.7625 44.9965 30.8281 46.5853 31.1905C46.7701 31.2313 47.0821 31.2385 47.7397 31.2361" stroke="#EF586A" stroke-width="4.8" stroke-linecap="round"/>
<path d="M64.484 25.3467C64.5008 24.8163 63.9344 23.4483 63.9296 22.9203C63.932 21.5883 63.9152 20.6283 64.0664 20.2875C64.1936 19.8627 65.612 17.2395 65.7296 16.4043C65.7488 16.2747 65.8424 14.6235 65.8688 14.4651C65.876 14.4291 66.4088 13.0923 66.4928 12.9411C66.6992 12.5619 66.7304 12.0771 66.7712 12.0387C66.8936 11.9259 67.6688 11.0307 67.6712 10.9995C67.7168 10.6107 68.1704 9.9435 68.2256 9.8907C68.1824 9.8139 63.1232 9.8187 63.0272 9.8211C62.7776 9.8283 61.6184 9.4947 61.5032 9.5451C61.4048 9.4491 61.0088 9.1587 60.74 8.9211C60.1352 8.3763 59.4248 7.1187 59.2856 6.8403C59.12 6.4179 58.844 6.2691 58.7312 6.0795C58.4192 6.0987 57.8768 5.8275 57.2072 5.8011C56.5472 5.7315 54.86 5.6115 54.7808 5.5947C54.6224 5.5587 52.7792 5.0715 52.3544 5.1075C52.172 5.1267 50.6888 4.9731 50.048 4.9731C48.944 4.9707 47.324 4.9707 46.8104 4.9707L46.6016 7.3947C46.5368 7.7115 43.2272 7.1715 41.8616 6.9459C41.0336 6.7659 39.9752 6.1875 39.7424 6.0795C38.9792 5.7315 38.4584 5.3907 37.6616 5.2467C36.8696 5.1147 34.2656 5.1075 34.0592 5.1075L33.3656 5.3163L33.0176 5.5947C33.0272 5.6523 34.3712 6.9795 35.0288 7.6035C35.1584 7.7379 36.0728 9.1683 36.2072 9.4755C36.2528 9.5811 36.6536 10.9971 36.6224 11.5539C36.6128 11.7123 36.7808 12.3171 36.7616 12.5235L37.3856 13.4259" stroke="white" stroke-width="4.8" stroke-linecap="round"/>
<path d="M33.4355 7.74243C34.6835 7.60323 36.4643 7.04883 38.4251 7.04883C40.0019 7.05603 42.2795 7.95363 42.4451 8.01843C42.5459 8.05923 43.0619 8.31363 43.2059 8.29683C43.2755 8.37363 45.0227 9.30243 45.0779 9.33603C46.2107 10.1856 46.7819 10.2408 46.8803 10.3056L47.2259 10.6536L47.4347 8.99043C47.7827 8.59923 48.8003 8.05203 49.1675 7.81203C49.2611 7.74963 49.8852 7.61043 49.9284 7.60323C50.1372 7.60323 50.9339 7.44963 52.3547 7.46403C54.2915 7.46403 57.4715 7.46403 57.6227 7.53363C57.8651 7.65123 58.9667 9.11283 59.0771 9.61203C59.1467 9.82083 59.406 10.68 59.7012 10.86C59.8428 10.9344 61.3067 10.9296 62.1491 10.932C64.1243 10.932 64.6139 11.088 64.6907 11.0688H64.3451" stroke="#E0E4E2" stroke-width="2.4" stroke-linecap="round"/>
<path d="M62.6816 11.3446C63.3056 11.3446 65.5232 11.3494 65.6624 11.3446C66.6464 11.3206 67.8968 11.827 68.2952 11.7622L68.504 11.9686C68.5376 12.3622 68.0912 13.1758 68.0864 13.6318C68.084 14.083 66.8984 15.8038 66.632 16.7518C66.5648 16.9942 66.536 17.8702 66.2168 18.8302C66.032 19.3798 65.5856 20.6854 65.5928 21.187C65.5976 21.8614 65.0552 24.7966 65.0384 26.6614C64.796 26.503 64.772 26.3134 64.76 26.2462C64.7384 26.1022 64.6016 25.7638 64.6208 25.7614" stroke="#E0E4E2" stroke-width="2.4" stroke-linecap="round"/>
<path d="M35.3752 9.82132C37.396 9.79972 38.92 10.1285 41.0584 10.3757C41.5504 10.4453 42.2512 10.6493 42.652 10.8605C42.676 10.8749 43.1392 11.1725 43.276 11.3453C43.6816 11.8229 43.9264 11.8685 44.0392 11.8997C44.1688 11.9357 44.632 12.2981 44.7328 12.3173C44.9608 12.3557 45.9808 12.4397 46.048 12.4541C47.3008 12.7181 48.1144 12.5837 48.1288 12.5237C48.04 12.1973 47.7856 12.0125 47.1256 11.8685C46.1584 11.6597 45.0568 11.6189 44.584 11.5829C43.3504 11.4917 40.0192 11.3453 40.0192 11.3453C39.7648 11.3381 38.464 10.4957 37.732 10.1669C37.228 9.94852 35.2528 9.97732 34.96 10.0301C35.1544 10.6925 36.64 12.7157 36.7624 13.0085C37.1464 13.9301 37.5328 15.4637 37.8016 15.7805C37.8184 15.8021 37.8424 15.8237 37.8712 15.8501C37.8496 15.9365 38.128 16.7189 38.1472 16.8221C38.1592 16.8821 38.1472 18.1373 38.1472 18.2069C38.2552 18.3053 39.3448 18.3941 39.5344 18.4157C40.2424 18.4157 43.456 19.2629 43.6936 19.3157C45.832 19.6781 48.964 20.1677 49.168 20.2181C49.2832 20.2445 52.0912 21.2645 52.3552 21.3269C52.4896 21.3581 52.888 21.3389 53.3464 21.4853C54.136 21.7349 56.236 22.4573 56.9296 22.4357C57.2536 22.4237 57.8536 22.8317 58.108 22.9205C58.3936 23.0213 59.2864 23.1965 59.4256 23.2661C59.5648 23.3357 62.176 24.0869 62.3344 24.0989C62.8408 24.0989 63.1624 24.3701 63.2368 24.3749C63.3064 24.3797 64.204 24.6149 64.2064 24.4445C64.2064 24.2765 64.4824 20.6501 64.4824 20.2997C64.4872 18.8069 64.4728 18.2381 64.6216 17.7917C64.6384 17.7485 65.2888 16.3517 65.524 15.7133C65.5984 15.5093 66.0424 15.0749 66.148 14.9501C66.34 14.7125 66.5128 14.1821 66.3544 14.0501C65.2384 13.1549 58.7032 12.9581 57.208 13.0085C56.8792 13.0157 56.1736 12.5501 56.0992 12.5933L55.8208 12.4541L55.336 11.2757L56.9992 11.0693C56.4688 10.6997 55.66 10.3949 55.0576 10.3757C54.0952 10.3517 51.8704 10.2461 49.7872 10.2269C49.228 10.2173 48.532 10.5413 48.4744 10.5845C48.2656 10.7573 47.9776 10.9925 47.9896 11.2757C48.2176 11.4677 49.3336 11.6477 49.6528 11.7629C49.8952 11.8661 50.4544 12.0917 50.4832 12.1781C50.5144 12.2693 50.476 12.9101 50.4832 12.9413C50.3224 13.1765 48.2896 13.2965 45.7288 13.2845C44.788 13.2869 42.7864 13.2749 42.7216 13.2869C42.304 13.4261 41.1832 13.4261 40.5736 13.7717C40.5016 13.8125 40.5112 14.0093 40.504 14.3261L39.1192 14.4653C39.2728 14.8061 39.4096 14.9933 39.6736 15.0893C40.0888 15.2261 40.8688 15.5213 41.0584 15.5741C41.3488 15.6485 51.0376 15.6461 51.9784 15.8165C52.4296 15.9029 55.996 16.5629 56.7904 16.7525C57.3136 16.8749 58.5976 16.9085 59.1472 17.0285C59.8984 17.2037 62.0008 18.4037 62.1976 18.4853C63.4336 18.9341 65.0824 20.0477 65.1088 20.0789C64.036 19.8437 60.3856 18.4541 59.8912 18.4373C59.2864 18.4157 58.1824 18.4085 58.0384 18.4853C57.5776 18.7301 53.2912 18.6773 52.7704 18.5549C51.3856 18.1517 48.6952 17.4437 47.2048 17.0381C46.5112 16.8557 44.9776 16.6637 44.8696 16.6133C46.0552 17.1533 49.2808 17.8445 49.5136 17.9117C49.636 17.9501 51.8656 18.7445 52.8232 18.9533C54.5872 19.3085 57.1336 19.8989 57.2752 19.9397C57.4888 20.0021 59.032 20.6597 59.632 20.6429C60.2536 20.6237 62.1208 20.6597 62.1976 20.6333C62.3656 20.5685 62.7304 20.1941 63.3064 19.8701C64.0192 19.4621 64.9048 19.1237 65.1088 19.0397C65.1688 18.7997 65.2048 18.3389 65.1088 18.1373C64.9792 17.8733 63.7864 16.6253 63.3064 16.4045C62.716 16.1621 61.036 15.4301 60.4648 15.2957C58.3456 14.9045 56.4616 14.3477 54.088 13.8413C51.9112 13.4237 49.9168 13.1381 49.3072 13.1477C49.2448 13.2053 49.2328 13.9157 48.8896 14.7413C48.6592 15.2765 48.052 16.0277 47.9896 16.3373C47.9632 16.4741 47.8528 16.9349 47.8504 17.0285C47.848 17.4461 47.9752 18.1373 48.1288 18.2765C49.0336 19.0589 52.756 19.9685 52.9096 20.0093C56.7496 20.8325 58.66 21.9005 60.4648 22.2965" stroke="#E0E4E2" stroke-width="4.08" stroke-linecap="round"/>
<path d="M68.3652 21.1875L68.7108 24.1683L68.9196 24.2379" stroke="#EF586A" stroke-width="4.08" stroke-linecap="round"/>
<path d="M62.5166 8.87793L68.5262 8.98113L68.6822 9.59793" stroke="white" stroke-width="4.08" stroke-linecap="round"/>
<path d="M65.4449 25.4182C65.5097 25.3534 65.0057 23.755 64.7777 23.2606C64.6961 23.0854 64.6721 22.0102 64.5209 21.4126C64.4441 21.0526 64.2833 20.3998 64.2641 19.8718C64.2521 19.6174 63.6617 18.2182 63.4409 17.251C63.3017 16.6102 63.2657 14.0614 63.2369 13.9126C63.0809 13.4758 62.8169 12.5182 62.7233 12.319C62.5601 11.9782 62.5025 10.9534 62.6705 10.7278C62.9369 10.387 63.1457 10.1422 63.2369 10.111C63.5561 10.0102 66.7025 10.0078 67.3961 10.0078C67.8017 10.2142 64.5737 15.4942 64.4681 15.9142C64.4825 15.9406 64.9385 15.5422 65.1377 15.2998C65.2193 15.199 65.7737 14.1574 66.5129 13.195C66.9689 12.6022 67.9721 11.7574 68.1665 11.4982L67.9625 11.3422" stroke="white" stroke-width="4.08" stroke-linecap="round"/>
<path d="M59.4346 12.0625C59.629 12.2641 59.6434 13.1617 59.6914 13.4449C59.7586 13.8433 60.1258 15.1777 60.193 15.7993C60.2026 15.8785 60.3442 18.1777 60.3586 18.3817C60.4402 19.4809 60.9754 20.1961 61.6426 21.3601C61.9258 21.8737 62.305 22.5745 62.3098 22.9033C62.3122 23.0113 62.7514 24.1657 62.8234 24.2881C63.0178 24.6049 63.361 24.8353 63.493 25.1113C63.541 25.2553 63.7234 25.8433 63.9538 26.0353" stroke="#E0E4E2" stroke-width="4.08" stroke-linecap="round"/>
<path d="M47.1202 5.10547C47.353 5.10547 49.7698 7.21987 50.2522 7.38787C50.8234 7.57507 52.9786 7.31347 54.8746 6.75187C55.0402 6.71107 55.8706 6.61507 55.9882 6.59107C56.1418 6.56227 57.109 6.20947 57.4762 6.16627C57.6058 6.15667 59.2834 6.07267 59.4418 6.00787C59.4634 5.93347 56.8282 5.71267 54.9274 5.74147C52.4002 5.75107 50.4874 5.72227 50.413 5.74147C50.2114 5.79187 49.7938 5.96707 49.6162 5.95507C49.1842 5.92387 48.1426 5.96227 47.917 5.84707C47.4826 5.62627 47.1658 5.64067 46.8538 5.63587C46.8106 5.81587 46.7842 6.09907 46.801 6.27187C46.8394 6.59107 48.0226 7.23187 48.2362 7.22947C48.6034 7.58227 50.4658 7.54387 53.2402 7.55347C54.8458 7.55347 57.5866 7.02787 59.389 7.01587C59.8306 7.01587 60.5986 7.01587 60.9274 7.01587" stroke="white" stroke-width="4.08" stroke-linecap="round"/>
<path d="M32.1442 4.78613C32.0578 5.35973 35.5162 6.58373 35.5954 6.59093C35.6962 6.60053 45.6466 6.58373 45.685 6.59093C46.3114 6.71813 47.293 6.78293 47.4394 6.80453C47.509 6.81413 48.2122 6.96773 48.5002 7.01573C48.6226 7.03493 52.729 7.01573 53.917 7.01573" stroke="white" stroke-width="4.08" stroke-linecap="round"/>
<path d="M32.0986 5.87793V5.94993C32.3458 6.05553 33.3082 6.56673 33.5098 6.58353C34.4242 6.66993 35.4418 7.06113 35.8354 7.14753C35.9842 7.17873 36.9778 7.59153 37.5418 7.57713C37.8586 7.56513 39.5386 7.59153 40.0282 7.47873C40.4914 7.37073 40.7194 7.32993 41.2714 7.25793C41.7346 7.20033 42.3538 6.92913 42.5986 6.86433C42.7114 6.83553 44.9602 6.85473 45.7714 6.86433C46.537 6.88353 46.8514 6.84513 47.0386 6.72513" stroke="white" stroke-width="4.08" stroke-linecap="round"/>
<path d="M43.6572 11.2346V11.1626C43.6956 11.1266 46.4892 10.229 46.686 10.1066C46.7724 10.0562 47.0868 9.73459 47.25 9.68419C47.31 9.66499 48.1092 9.54498 48.2364 9.54258C48.5268 9.53778 49.2828 9.11058 50.2092 9.12018C50.9844 9.12258 53.2092 9.12258 53.31 9.12018C53.982 9.09618 55.2132 9.40098 55.7076 9.47298C56.058 9.58578 56.9388 10.0178 57.258 10.2482C56.1228 10.2674 54.7836 10.109 54.6492 10.1066C54.3444 10.097 53.658 10.0994 53.5212 9.96499C53.3772 9.81859 52.2924 9.67459 52.1124 9.61219C52.0884 9.60499 51.5628 9.27858 51.3372 9.26178C51.0564 9.23778 50.4564 9.25938 50.2092 9.18978C49.5156 8.99298 49.3668 8.83458 49.2228 8.76738C49.518 8.69058 53.4708 8.69058 54.4428 8.68578C56.478 8.64978 57.0804 9.37458 57.186 9.47298C57.3876 9.89058 53.6628 9.15618 52.254 8.90898C49.3428 8.24418 49.2708 8.18658 49.2228 8.13378L48.5196 7.92258C48.5364 7.85058 52.8972 7.85059 54.8268 7.85059C55.5732 7.85059 56.4156 8.16258 56.694 8.48658C57.0564 8.92098 58.35 11.177 58.3836 11.2346C58.422 11.2994 58.614 11.6522 58.5948 11.9378" stroke="#E0E4E2" stroke-width="4.08" stroke-linecap="round"/>
<path d="M34.3499 5.53906C34.3163 5.85586 33.9444 6.25426 33.8076 6.40786C33.7212 6.50626 33.4404 6.79906 33.3732 6.84226C33.282 6.90226 33.27 7.42066 33.2652 7.60306C33.2604 8.02066 33.2868 8.12386 33.4812 8.47186C33.7548 8.94706 34.7916 10.4423 34.8924 10.5359C35.3364 10.9487 35.8716 11.8919 36.0876 12.1631C36.1188 12.2303 36.0995 12.4415 36.1955 12.5975C36.4331 12.6359 36.6828 12.5279 36.8484 12.2735C37.0644 11.8391 37.5035 11.0519 38.0435 10.4255C38.0819 10.3823 40.1052 9.12226 40.5396 8.90626C41.0004 8.63506 41.6219 7.94866 41.8427 7.81906C41.8931 7.79026 42.5027 7.69426 42.6035 7.60306C42.7427 7.48306 42.9011 7.28146 42.9299 7.27666C43.0931 7.27666 43.3476 7.26466 43.4724 7.16866C43.6116 7.06546 44.0556 7.08946 44.2332 7.06066C44.3868 7.03426 45.174 6.64786 45.318 6.62626C45.534 6.59026 46.1772 6.61666 46.2972 6.51586C46.674 6.20386 47.1612 6.18226 47.9244 5.97346C47.9916 5.95666 52.71 5.97826 54.8028 5.97826C56.1492 5.97586 56.6172 5.95906 57.4812 6.19186C57.6012 6.22306 57.8172 6.25906 58.134 6.29986C58.2396 6.76306 58.7028 7.28386 58.7844 7.38466C58.9548 7.55506 60.198 9.38146 60.414 9.66706" stroke="white" stroke-width="4.08" stroke-linecap="round"/>
<path d="M61.6406 8.81738C61.6406 9.62378 61.6478 9.95738 61.703 10.051C61.7774 10.1782 62.399 11.4142 62.5046 11.5318C62.6606 11.7046 63.0062 12.0334 63.1838 12.3958C63.8006 13.567 64.5086 15.0862 64.6022 15.1702C64.8278 15.367 64.9502 15.4414 65.0966 15.4798" stroke="white" stroke-width="4.08" stroke-linecap="round"/>
<path d="M61.1489 9.80469L61.0241 9.86709C60.9641 10.8151 61.5113 12.0223 61.5185 12.0871C61.5449 12.3127 61.5233 12.8623 61.5809 12.8887C61.6145 12.9055 62.3297 15.2647 62.5049 15.9727C62.5361 16.0735 62.7689 16.2919 62.8145 16.4047C62.8601 16.5223 63.2465 17.8159 63.3065 18.0103C63.7049 19.2847 64.9673 21.5239 64.9721 21.8335C64.9793 22.2151 65.1137 22.4863 65.0969 22.5127" stroke="white" stroke-width="4.08" stroke-linecap="round"/>
<path d="M37.4222 18.8594C37.4102 17.9594 37.6934 17.0354 37.739 16.9682C38.0318 16.6754 38.0894 16.0658 38.1614 15.797C38.2934 15.2858 38.231 13.3634 38.2646 13.0826C38.3414 12.4442 38.6918 11.825 38.6894 10.9538C38.687 9.81617 38.6846 8.30657 38.6846 7.93457" stroke="white" stroke-width="4.08" stroke-linecap="round"/>
<path d="M40.7843 7.30376C40.7771 7.60136 40.7987 8.08856 40.7843 8.14616C40.4963 9.19496 36.9443 13.4046 36.7931 13.6086C36.6923 13.743 36.0011 14.5398 35.9531 14.763C36.4355 13.8894 37.7147 12.3942 37.8443 12.243C38.2379 11.7774 38.9435 11.0358 38.9987 10.9806C39.4643 10.527 39.9659 10.3182 40.0499 10.2462C40.5467 9.81176 41.1563 8.89256 41.5187 7.93496C41.6171 7.67576 41.5787 7.29416 41.6243 7.20056C41.6699 7.11176 41.8043 7.08296 41.8355 6.98936C41.8787 6.85736 41.8955 6.33896 42.1499 5.93816C42.1907 5.87576 42.2243 5.83976 42.2555 5.83496" stroke="white" stroke-width="4.08" stroke-linecap="round"/>
<path d="M48.6035 7.14473C48.8867 7.90073 49.6379 9.54713 49.8083 9.98393C50.3243 11.3447 50.8139 14.5367 50.8403 14.7167C50.8595 14.8535 50.8355 15.6383 50.8403 15.7487C50.8739 15.7439 51.3275 14.2127 51.3563 14.0279C51.3803 13.8767 51.4475 11.7647 51.6035 11.0015C51.6827 10.6199 51.8555 9.53273 52.0571 8.97353C52.2419 8.44313 52.1747 6.42473 52.2155 6.19913C52.2347 6.10313 52.2923 5.95913 52.3883 5.76953" stroke="white" stroke-width="4.08" stroke-linecap="round"/>
<path d="M47.0557 8.52246C47.0221 8.98806 47.2717 9.78246 47.8093 11.0137C48.2245 11.9209 49.1893 14.0497 49.2061 14.1145C49.2613 14.3401 49.6741 16.1833 49.8877 16.7881C50.1133 17.5393 50.5333 18.6409 50.5813 18.7609C50.6581 18.9457 50.6413 19.2817 50.6677 19.3633C50.6941 19.4473 50.9941 19.8049 51.0133 19.8793C51.0373 19.9825 50.9893 20.5753 51.0133 20.6545C51.1045 20.9761 51.3037 21.3097 51.4429 21.4273H51.5293" stroke="white" stroke-width="4.08" stroke-linecap="round"/>
<path d="M56.0678 4.17383C55.679 4.49303 55.3622 4.78343 55.2638 4.98023C55.1894 5.12663 54.9278 5.90903 54.8606 6.02663C54.4982 6.59063 53.7974 7.97063 53.735 8.11943C53.5046 8.66183 53.0006 9.26903 52.9286 9.48743C52.8446 9.74423 52.8302 10.409 52.6886 10.5338C52.6478 10.5674 52.595 10.6202 52.5254 10.6946C53.111 10.4978 54.3686 9.66023 54.539 9.56903C54.611 9.52823 55.3526 9.24023 55.5038 9.16583C55.8926 8.98583 58.3142 9.00503 58.3214 9.00503C58.6598 9.02663 60.5534 11.7554 60.6566 11.9018C60.8942 12.2426 61.2014 12.8258 61.5422 13.3514" stroke="white" stroke-width="4.08" stroke-linecap="round"/>
<path d="M61.7031 16.251C61.7295 17.3622 62.1711 19.9974 62.1855 20.0334C62.2311 20.1438 62.5623 20.5134 62.5887 20.5974C62.6559 20.8038 63.2007 23.1486 63.2319 23.2542C63.2847 23.4174 63.6351 24.0822 63.7959 24.219V24.3006" stroke="white" stroke-width="4.08" stroke-linecap="round"/>
<path d="M40.6689 8.70215C40.6785 8.93495 41.4273 9.52055 42.0825 9.79175C42.4065 9.92375 42.8697 10.0269 43.0425 10.0869C43.9017 10.3821 46.1409 11.9133 47.1945 13.0533C47.4921 13.5141 48.0321 14.227 48.1185 14.371C48.4977 14.3758 48.7305 14.3638 48.8433 14.3062C48.8961 14.2798 50.7225 13.1757 50.9529 13.0533C51.5361 12.7509 54.2457 11.9709 55.2945 11.9805C57.2169 12.0261 59.1369 11.9782 59.1945 11.9974C60.2961 12.4846 62.1633 13.3294 62.4249 13.3174" stroke="white" stroke-width="4.08" stroke-linecap="round"/>
<path d="M45.1523 18.3291C45.5747 18.9651 48.1427 19.9371 49.1075 20.3715C49.1243 20.3763 51.5075 20.9763 51.9419 20.9643C52.9235 20.9403 53.8355 20.9811 54.2507 20.7675C54.6275 20.5659 54.7187 20.2515 54.8435 20.1747C54.9803 20.0907 55.1507 20.0259 55.1723 20.0427" stroke="#E0E4E2" stroke-width="4.08" stroke-linecap="round"/>
<path d="M50.9534 22.1519C49.7894 22.1687 48.755 21.8975 48.7118 21.8879C48.6398 21.8711 48.4862 21.8495 48.251 21.8231C48.011 21.4607 47.9366 21.3551 47.855 21.3599C47.471 21.3767 47.0318 21.0647 46.8662 21.0959" stroke="#E0E4E2" stroke-width="4.08" stroke-linecap="round"/>
<path d="M46.9981 21.4922C46.9933 21.6938 47.7181 22.3658 48.4477 22.6802C49.6693 23.1746 51.9733 23.993 52.1413 24.065C52.1461 24.0674 52.7797 24.4898 52.9309 24.5258C53.3941 24.5906 54.5797 24.653 54.7789 24.6578" stroke="#E0E4E2" stroke-width="4.08" stroke-linecap="round"/>
<path d="M65.6025 77.8635C65.6337 77.7579 66.1161 77.5395 66.5049 77.2803C66.7929 77.1075 68.9193 76.2603 70.8585 75.3147C70.9377 75.2715 71.8425 74.5251 71.9217 74.4651C72.0033 74.4027 72.8385 73.6227 72.9297 73.5627C74.2473 72.6939 75.6441 72.0435 76.2225 71.5971C76.4889 71.3835 77.4105 70.6611 77.4441 70.6419C78.1209 70.2627 82.8393 68.1963 82.8633 68.1987C83.3433 68.2107 84.2409 67.7907 84.7209 67.6131L85.8369 66.8163C86.2713 66.9939 87.0489 65.8371 87.1113 65.7555C87.1641 65.6835 87.2889 65.4723 87.2697 65.2227" stroke="#B0E4D6" stroke-width="2.88" stroke-linecap="round"/>
<path d="M63.1191 36.4775V36.6815C63.1935 36.7775 64.1847 36.9743 64.5759 36.7727C64.6239 36.7463 65.3367 36.6167 65.5287 36.6143" stroke="#EF586A" stroke-width="2.88" stroke-linecap="round"/>
<path d="M64.458 38.4601C65.6364 37.7833 71.7492 36.1705 72.3204 36.0361C73.2348 35.7793 75.3396 34.9921 75.6132 34.9849C76.086 34.9729 76.9644 34.2769 78.2196 33.8401C79.5516 33.3721 83.5788 32.1217 83.6148 32.1025C84.3756 31.7497 85.4844 31.5241 85.5804 31.4641L87.2724 30.5953L89.01 29.9545C89.586 29.4817 92.3124 29.2873 93.858 28.2625C94.1556 28.0801 94.626 27.6673 94.6812 27.6673C94.9524 27.6841 95.5116 27.3865 95.6412 27.3937" stroke="#C5FFF0" stroke-width="1.2" stroke-linecap="round"/>
<path d="M64.64 38.8252L63.7256 79.1548" stroke="#C5FFF0" stroke-width="1.2" stroke-linecap="round" stroke-linejoin="round"/>
<path d="M63.3202 38.5438L2.51855 23.8174" stroke="#5B8F81" stroke-width="1.2" stroke-linecap="round" stroke-linejoin="round"/>
<path d="M94.7769 25.3607L67.3545 20.5127" stroke="#FF8896" stroke-width="1.2" stroke-linecap="round" stroke-linejoin="round"/>
<path d="M67.3545 20.5127L95.6697 25.9991" stroke="#FF8896" stroke-width="1.2" stroke-linecap="round" stroke-linejoin="round"/>
<path d="M95.2 26.035L67.3096 20.9902" stroke="#FF8896" stroke-width="1.2" stroke-linecap="round" stroke-linejoin="round"/>
<path d="M67.3096 20.9902H67.5208" stroke="#FF8896" stroke-width="1.2" stroke-linecap="round"/>
<path d="M70.3145 20.6623C72.3497 20.6527 74.8144 21.0391 75.7 21.3103C76.4008 21.5239 77.8888 21.9271 77.944 21.9583" stroke="#FF8896" stroke-width="1.2" stroke-linecap="round"/>
<path d="M69.7784 70.1047C69.7976 70.7119 69.5096 71.5207 69.3752 71.9911C69.3128 72.1303 68.7488 72.8503 68.7008 72.9343C68.6312 73.0591 68.3624 73.6759 68.1608 74.0143C67.9568 74.4415 67.9352 75.0127 67.892 75.0919C67.8344 75.2047 67.3952 75.6007 67.352 75.7663C67.3184 75.8959 67.3496 76.1791 67.0832 76.7095C66.9872 76.8967 66.2072 77.6239 65.8688 78.1927C65.4632 78.2359 65.0384 78.0919 64.9256 77.7895C64.88 77.6623 64.9232 67.2847 64.9016 66.7159C64.892 66.4039 65.144 66.0775 65.1944 65.9239C65.2328 65.8111 65.1512 64.8967 65.1944 64.7119C65.2496 64.4767 65.7128 62.7799 65.7344 62.5543C65.7392 62.4943 66.0368 61.4263 66.0032 60.5311C65.996 60.3007 65.9984 58.2895 66.0272 57.5023C66.032 57.3655 65.6912 56.0527 65.7344 54.8695C65.7656 54.0559 65.4536 53.8111 65.4584 53.1967C65.4608 49.1815 65.4656 41.4103 65.4584 41.1487C65.456 40.6183 65.8088 40.2103 66.0032 40.1743C66.2696 40.1287 66.8552 40.1695 67.4864 39.9055C67.6376 39.8431 68.9624 39.4183 69.104 39.3655C69.7952 39.1135 70.4552 39.1207 70.7216 39.0967C70.7408 39.0943 72.0488 38.3623 72.3392 38.2879C72.6728 38.1991 73.3736 38.3287 73.4192 38.2879C73.6064 38.1151 73.7336 37.8679 73.9592 37.7479C73.964 37.7455 74.6792 37.7479 75.0368 37.6135C75.2024 37.5535 77.2064 36.9079 77.5352 36.7975C77.888 36.6775 78.9752 36.5911 80.1608 36.1303C80.384 36.0415 81.104 35.8591 81.3728 35.8591C81.6368 35.8159 82.5152 35.3311 82.5872 35.3215C82.8536 35.2807 83.1344 35.3863 83.396 35.3215C83.5184 35.2903 83.5496 35.1031 83.6648 35.0503C83.8304 34.9783 84.4664 35.0383 84.8792 34.9159C85.3304 34.7887 85.8824 34.3231 86.0912 34.2415C86.252 34.1791 86.8232 34.2775 86.9 34.2415C87.0848 34.1623 88.484 33.7207 88.5176 33.7039C88.964 33.4759 90.1544 33.2767 91.2152 32.6239C91.268 32.5903 91.4648 32.3743 91.6184 32.3551C91.7528 32.3383 91.8968 32.4031 92.024 32.3551C92.144 32.3095 92.6528 31.9063 92.8328 31.8151C93.344 31.5535 93.4928 31.5151 93.776 31.5463" stroke="#E8FFF9" stroke-width="2.88" stroke-linecap="round"/>
<path d="M94.3164 29.9287L94.5852 29.3887" stroke="#E8FFF9" stroke-width="2.88" stroke-linecap="round"/>
<path d="M94.5848 29.3887L65.7344 39.0967" stroke="#E8FFF9" stroke-width="2.88" stroke-linecap="round" stroke-linejoin="round"/>
<path d="M68.9702 41.791C68.9846 41.9446 68.6702 43.0486 68.675 43.8022C68.7038 45.007 68.6894 46.1446 68.567 46.915C68.5046 47.2822 68.0222 49.3534 68.0174 49.3678C67.9094 49.9078 67.4366 54.0358 66.9686 55.7974C66.8534 56.2246 66.4022 57.727 66.3086 58.5982C66.1622 60.103 66.0038 61.279 66.0038 61.339C66.0062 61.6438 66.0494 62.9206 66.0038 63.2278C65.9678 63.4798 65.3582 65.011 65.0534 66.3598C64.9358 66.8854 64.919 72.6214 64.9262 72.6646C64.9382 72.751 64.9838 72.9766 65.0606 73.339L67.6214 73.2046L67.3526 73.0702C66.5438 73.6078 66.0686 73.8334 66.0038 73.879C65.8958 73.9558 65.567 74.4694 65.4662 74.5534C65.7758 74.227 67.127 73.7566 67.187 73.7158C68.3846 72.9046 70.4918 72.1342 71.9654 71.1454C72.539 70.7542 75.0734 68.7838 75.3062 68.6206C75.4718 68.5054 76.1678 68.1814 76.5206 67.9462C76.895 67.699 77.219 67.3342 77.3294 67.2718C77.9966 66.907 78.6614 66.8134 78.9518 66.595C79.2758 66.355 79.535 66.3502 79.6214 66.3286C79.9166 66.2542 80.3078 65.827 80.4302 65.7886C80.4974 65.767 80.6774 65.767 80.9702 65.7886C80.4494 66.091 79.4846 66.8254 78.6542 67.2286C74.5718 69.1846 71.879 71.3998 71.1278 72.1246C70.823 72.4294 70.3718 73.2958 69.779 74.0134C69.5558 74.2774 68.7038 74.611 67.7582 75.091C68.0222 75.2662 69.251 75.1222 69.9782 74.8534C71.039 74.455 75.1934 72.391 75.9566 72.2254C76.3046 72.1534 77.6894 71.8918 78.2822 71.599C78.7358 71.3734 78.9734 71.1118 79.0814 71.047C79.1654 70.9966 79.8854 70.8526 80.0246 70.7782C80.519 70.5094 81.9998 69.139 82.3166 69.0238C83.3054 68.6782 83.9414 68.179 84.071 68.0806C84.227 67.9606 84.4382 67.6798 84.4742 67.6774C84.6086 67.6606 85.055 67.6294 85.283 67.4062C85.3742 67.3174 85.943 67.0006 86.0918 66.8686C86.3078 66.6766 86.8238 66.1222 86.9006 66.0598C86.9726 65.9998 87.0974 65.575 87.1718 65.5198C87.2726 65.4406 87.8366 65.191 87.8462 65.1142C87.8462 65.0998 87.8462 63.0934 87.8462 62.2846" stroke="#E8FFF9" stroke-width="2.88" stroke-linecap="round"/>
<path d="M87.8457 62.2854L92.1585 33.4326" stroke="#E8FFF9" stroke-width="2.88" stroke-linecap="round" stroke-linejoin="round"/>
<path d="M92.159 33.1635C91.463 33.1347 90.3254 33.3723 89.3678 33.7467C86.0798 35.0523 78.8414 38.8131 78.5438 39.0963C78.4358 39.1971 76.0862 40.0659 74.6318 40.4427C73.9814 40.6179 72.2822 41.5155 72.2054 41.5227C72.0278 41.5419 71.4902 41.5635 71.2622 41.7915C70.9958 42.0603 70.799 42.0147 70.7222 42.0627C70.559 42.1587 70.259 42.5067 69.6446 42.7347C68.6534 43.1331 68.1446 43.0755 68.027 43.1403C67.8614 43.2339 67.7822 43.4403 67.6214 43.5435C67.4198 43.6779 66.6206 43.9923 66.275 44.3523C66.0758 44.5707 65.999 44.9163 66.0038 45.4323C66.011 45.6123 66.0182 46.0827 66.1382 46.1067C66.395 46.1427 67.0454 46.0779 67.3526 45.9723C67.3646 45.9675 69.1214 44.8587 70.055 44.4267C70.6142 44.1723 73.9214 42.6171 73.9598 42.6003C74.1494 42.5211 75.7526 41.9955 76.6742 41.4987C77.2814 41.1699 78.0086 41.0475 78.2726 40.9827C78.539 40.9203 79.3478 40.3107 79.3526 40.3083C79.5614 40.2147 80.3534 40.0971 80.699 39.9051C81.5078 39.4587 83.8694 38.3955 84.4742 38.2875C84.491 38.2827 85.7462 37.6491 86.4974 37.4787C86.795 37.4163 87.227 37.0059 87.4406 36.9387C87.6542 36.8715 87.8966 36.9891 88.115 36.9387C88.4078 36.8691 89.087 36.4539 89.327 36.3987C89.0942 36.6627 84.971 38.9283 84.1334 39.3315C81.203 40.7187 79.6622 41.6643 78.575 42.3627C77.6606 42.8643 77.135 43.3299 76.9238 43.4091C76.7102 43.4931 76.4582 43.4475 76.2518 43.5435C76.1366 43.5963 75.2486 44.3691 75.0374 44.4891C74.5646 44.6907 73.4006 45.3963 73.2854 45.4323C73.067 45.5019 72.5222 45.5979 72.3398 45.8355C72.0254 46.2411 70.7342 46.7547 70.319 47.0499C70.1486 47.1723 69.7766 47.1555 69.6446 47.1843C69.5822 47.1963 69.431 47.3955 69.239 47.4555C68.8454 47.5803 68.7614 47.7795 68.7014 47.8587C68.6342 47.9499 68.0798 48.0747 68.027 48.1275C67.7558 48.4155 67.4366 49.0395 67.3526 49.4763C67.583 49.6251 69.2582 49.6251 69.7982 49.5843C70.7198 49.5075 72.8462 48.6795 73.2854 48.5331C73.7198 48.3867 75.7502 47.8467 76.691 47.4219C77.2814 47.1507 79.2326 46.1955 79.7558 45.9723C80.4638 45.6699 81.6926 45.3123 82.1726 45.0171C82.3118 44.9331 82.9574 44.5635 83.2622 44.4891C83.483 44.4315 84.1238 44.2779 84.4742 43.9491C86.1638 42.3411 87.0134 41.4147 87.1718 41.2515C87.2294 41.1915 87.7334 40.8891 87.9806 40.7139C88.319 40.4715 88.6766 40.3971 88.7894 40.3083C88.8686 40.2483 88.9838 39.9675 89.327 39.7707C89.6942 39.5523 90.8054 38.4435 90.8102 38.4219C90.8606 38.2443 91.0286 37.6755 91.2158 37.4787C91.235 37.4571 91.4798 36.6459 91.7558 36.3987C91.7942 36.3651 91.883 36.2739 92.0246 36.1299L91.8902 35.8587C91.475 35.8683 90.695 35.8587 90.6758 35.8587C90.3398 35.8899 87.9926 37.0323 87.7094 37.2075C87.3158 37.4571 83.7374 40.6227 82.8734 41.2203C82.1606 41.7075 79.295 43.3875 79.2158 43.4091C78.4214 43.5699 77.0702 44.2803 76.9238 44.3523C75.107 45.2691 72.491 46.8483 72.071 47.0499C71.5526 47.2995 69.3086 48.2643 69.1046 48.3987C69.095 48.4035 68.9462 48.7227 68.8358 48.8019C68.6366 48.7467 68.4566 48.5427 68.2958 48.1275C67.9358 47.1795 67.5566 44.1099 67.3526 43.8147C67.2086 43.6035 66.9398 43.4955 66.8126 43.2747C66.7934 43.2411 66.7742 42.3723 66.8126 42.1971C66.8582 42.0363 67.3814 41.7939 67.6214 41.7915C67.7558 41.7939 68.3174 41.9811 68.567 42.0627C68.9222 43.4403 68.9462 44.6091 68.9702 44.8923C68.987 45.0915 69.4814 47.5059 69.5102 47.7243C69.5606 48.1395 69.527 52.6203 69.3758 53.2515C69.2054 53.9019 68.3558 54.8811 68.2958 55.0035C68.195 55.2099 68.0798 55.9371 67.7582 56.4867C67.6622 56.6475 66.695 58.1235 66.5438 58.5099C66.4886 58.6563 66.2966 59.4387 66.275 59.5875C66.167 60.3195 66.0806 60.5619 65.735 61.0707C65.4206 61.5387 65.4854 63.0027 65.3294 63.4971C65.2958 63.6075 64.9214 65.2755 64.9406 65.7123C64.9694 66.2811 64.7078 67.3923 64.6574 68.3523C64.6214 68.9499 64.079 70.6731 64.0982 71.0955C64.1054 71.2323 64.1102 71.3955 64.1174 71.5875L64.3862 71.7219" stroke="#E8FFF9" stroke-width="2.88" stroke-linecap="round"/>
<path d="M68.9697 73.0703V48.9359C68.7321 50.1215 68.6433 51.3767 68.5665 51.7679C68.5185 52.0007 67.9281 53.9399 67.7577 54.8687C67.5849 55.8215 67.0377 61.1207 66.8121 62.2847C66.7449 62.6351 66.2265 65.0015 66.1401 65.4887C65.7177 67.8743 65.7345 73.4735 65.7345 73.7447C65.8881 72.3503 66.8889 69.2711 67.4337 67.6367C67.7361 66.6791 67.8777 65.8511 67.8921 64.9799C67.9041 63.6527 68.4897 60.2207 68.8353 58.2383C69.1065 56.4479 69.5169 52.5719 69.6249 52.0367C69.7161 51.5903 70.0785 50.2247 70.0689 49.2335C70.0665 48.8879 70.0689 47.7839 70.1841 47.7239C70.3209 48.0527 70.3281 51.8879 70.3329 53.6711C70.3281 58.4159 70.3209 66.4319 70.3185 69.6983V45.1631C70.3209 48.7319 70.3209 56.0111 70.3185 59.7215C70.2969 61.3151 69.5097 65.7167 69.5097 66.1943C69.5217 65.3015 70.2681 61.5095 70.6449 59.8247C71.1297 57.8087 72.3969 53.9687 72.4089 53.9255C72.5937 53.0951 73.4121 47.6927 73.5105 46.1831C73.5585 45.3983 73.5537 41.8583 73.5537 40.8479C73.5825 43.0247 73.5081 44.9759 73.2849 46.7807C72.7881 50.5031 72.4713 55.1543 72.4425 61.5671C72.4521 63.6839 72.4689 66.8039 72.4761 67.8119C72.4593 66.1223 72.4641 62.0135 72.5913 60.6887C72.6441 60.1439 73.3809 54.3599 73.4193 53.9255C73.4601 53.4503 73.6473 51.6047 73.9593 50.6903C74.2857 49.7207 74.4057 48.6815 74.3721 47.3615C74.3601 46.9367 74.3697 46.3151 74.3937 46.0415C74.4153 45.8399 75.0009 44.8559 75.1713 44.4887C75.4401 44.9423 75.6105 45.8951 75.6681 47.1071C75.7233 49.3559 76.0881 52.0775 76.3065 53.6039C76.5033 55.4207 76.5033 65.1935 76.6545 66.7319C77.0817 66.3383 77.3217 66.0215 77.4897 65.5727C77.9385 64.3367 78.1473 60.8759 78.6777 59.3183C79.4841 56.9471 79.9209 54.8207 80.3217 52.4663C80.5113 50.9039 80.8017 48.7391 81.5049 45.4775C81.5193 45.4175 81.6585 43.5959 81.7785 43.1399L81.9129 61.3391C81.8793 58.7039 82.0617 56.0807 82.4169 54.0503C82.8465 51.7151 83.3001 48.7799 83.2785 47.4575C83.2665 45.7823 83.2569 42.4775 83.2617 40.8479V62.9591C83.2497 61.3031 83.2401 57.4871 83.2425 55.3247C83.3001 52.6703 83.6865 49.9295 84.0705 48.5327C84.2529 47.8631 84.6513 44.3087 84.8265 42.9143C84.9441 41.7311 85.4145 39.7895 85.4169 39.7703C85.4169 39.2471 85.7217 38.4335 86.0913 38.2871C86.4057 38.4647 86.6121 38.6783 86.7801 39.0647C87.2385 40.1447 87.4041 43.2383 87.7737 45.8831C88.0305 47.7839 88.0929 49.9391 88.1193 53.2751C88.1289 55.2575 88.1241 59.5727 88.0017 59.9735C87.9561 60.1175 87.7809 60.5735 87.5745 61.2047C87.5769 60.6191 87.5337 58.9799 87.5745 58.2383C87.6321 57.2711 88.3161 53.5871 88.6545 51.9023C88.8585 50.8967 89.2281 47.1983 89.2113 45.5927C89.1993 43.8431 89.1897 40.5263 89.1921 38.9615C88.5417 39.2687 87.9921 39.9671 87.7209 40.5383C86.6361 43.1207 83.6193 50.0615 83.0409 51.1799C82.3857 52.4279 80.2425 55.3343 79.6209 56.6567C79.3641 57.1991 78.7881 57.8111 78.4065 58.6439C78.2193 59.0663 77.6841 59.5511 77.5977 59.7215C77.5377 59.8439 77.5881 60.2375 77.4633 60.5303C77.3025 59.9783 77.4057 58.7015 77.4633 57.9695C77.6097 56.2463 78.2841 54.3311 79.3137 51.6599C79.9137 49.9991 81.1593 46.1063 81.3825 45.1631C81.3921 45.1199 81.7041 41.9711 81.9129 41.6567C81.9177 42.2495 81.5793 43.5119 81.0993 44.8103C80.0937 47.3279 78.9633 49.6751 78.2985 50.9951C78.0969 51.4343 77.1969 55.0487 76.5033 57.0887C76.3017 57.6839 75.2145 61.3823 74.6673 62.9687C74.4609 63.6695 74.3889 65.0375 74.3625 66.5975C74.5785 66.0071 74.6433 65.4071 74.6553 64.0031C74.6433 61.9007 74.6505 56.9135 74.7153 55.7543C74.7561 55.0919 75.0681 53.8439 75.1281 53.0351C75.1689 52.4759 75.1905 51.5591 75.3057 51.4991C75.5313 51.6671 75.6081 51.8399 75.6441 52.3487C76.0545 56.9639 75.9873 61.9655 75.9801 64.4399C75.9849 64.1687 76.0449 62.6687 76.2537 61.7375C76.8705 59.1191 77.3721 56.4119 77.4945 55.0103C77.6097 53.6327 77.5905 47.2727 77.5905 47.2583C77.5689 46.4351 77.9433 46.0247 78.1377 45.9719C77.6097 47.0111 77.0193 48.5495 76.9185 49.1495C76.7409 50.3423 75.7737 54.7247 75.7185 55.4807C75.5937 57.3455 75.8025 60.4415 75.9801 60.8015C75.9993 60.8399 76.9161 62.0063 76.9233 62.0135C76.9857 62.0639 78.2145 61.8959 78.6777 61.6103C78.9105 61.4615 80.0241 59.9927 80.5641 59.3183C81.4353 58.1423 82.4025 55.7687 83.3961 54.2039C84.7449 52.0871 85.3113 50.5439 85.6881 49.2071C85.7385 50.1527 84.7233 57.7487 83.7153 61.6199C82.9833 64.2623 82.4169 65.6087 82.3161 65.7887C82.2033 65.7455 82.1649 65.5751 82.1673 64.9535C82.1721 63.8711 82.1889 61.8695 82.2033 60.9479C82.2297 60.0935 82.8561 57.5495 83.3193 54.7487C83.5281 53.3423 83.5449 52.1351 83.7993 51.6335C83.7969 51.8879 84.1113 56.3687 84.0873 58.1663C84.0777 62.2103 84.0681 67.3031 84.0705 68.3519C84.0729 67.6175 84.1329 66.5735 84.4953 65.7623C85.3617 63.8255 86.0913 61.0703 86.4297 59.6351C86.8905 57.7247 87.7809 54.4247 87.8457 53.3855C87.8625 53.0591 87.8769 50.8391 87.8721 49.8647C87.8529 48.5687 87.8241 48.4319 87.7089 48.2639C87.5121 48.4991 87.2769 49.2119 87.1713 49.4759C87.1137 49.6151 86.4393 50.6039 86.2257 51.2279C85.7793 52.6031 84.1353 55.7831 83.9337 56.3519C83.7993 56.7407 82.7241 61.3079 82.7217 61.3391C82.7049 61.5455 82.7433 63.7367 82.7217 64.5767C82.6977 65.3159 82.1385 66.8519 82.0473 67.1375C80.8473 67.1303 78.6153 67.1615 78.5433 67.1375C78.4569 67.1087 78.3657 67.0199 78.2721 66.8687C78.8169 65.6063 80.4489 63.5351 81.6441 62.1503C81.8289 61.9343 81.9417 61.6775 81.9129 61.6103C81.9225 62.4695 81.7041 63.8399 81.5073 64.3055C81.3033 64.7783 80.4969 65.8559 79.8897 66.4631C79.2681 67.1255 78.3561 69.1799 78.2721 69.2951C78.1617 69.4487 77.9553 69.5303 77.8689 69.6983C77.8065 69.8183 77.8593 70.2287 77.7321 70.3727C77.6913 70.4207 77.3673 70.8719 76.9233 71.1815C77.6073 70.9871 78.4641 70.4279 79.1721 69.6671C79.6593 69.1319 80.7201 67.7399 80.9673 67.4495C81.2769 67.0895 82.2633 66.1199 82.5273 65.8055C82.8201 65.4527 83.7897 64.0655 84.0705 63.7679C84.2001 63.6287 84.5361 63.2591 84.6249 62.8391C84.6873 62.5031 84.9249 61.1663 85.2825 60.5303C85.6425 59.8823 85.7289 59.5727 85.7001 58.9799C85.6689 58.4111 85.6401 55.9703 85.9521 55.0559C86.0337 54.8111 86.2857 54.1103 86.2833 53.6879C86.2113 51.1031 86.2449 44.3759 86.0913 43.6799C86.0577 43.7231 80.7201 51.2255 78.9129 53.8247C78.7113 54.0959 77.5521 55.3607 76.9161 56.1671C76.2609 57.0071 74.1633 60.6839 74.0937 61.0703C73.9425 61.9127 73.3233 63.1487 73.1265 63.9887C73.0137 64.4831 73.0065 65.3975 72.7425 66.7775C72.6417 67.3007 72.4641 68.4839 72.3657 68.8079C72.2673 69.1343 72.0057 69.7367 71.9361 69.9695C71.9001 70.0871 71.9721 70.4063 71.9361 70.5071C71.8641 70.7039 71.3625 71.1551 71.2617 71.3159C71.1345 71.5223 70.8537 72.2903 70.5873 72.6647C70.5513 72.7175 70.4193 72.8255 70.3185 72.9335C70.5849 72.9623 71.0121 72.8711 71.3961 72.6647C71.5425 72.5879 73.4601 71.2631 74.1657 70.9223C75.0153 70.5143 75.9321 69.9047 76.5033 69.3527C77.1057 68.7551 77.6625 67.3247 77.7321 67.1375C77.7801 67.0127 78.1329 65.1791 78.2721 64.8455C78.3417 64.6775 78.6921 62.2847 78.6777 61.7447" stroke="#E8FFF9" stroke-width="2.88" stroke-linecap="round"/>
<path d="M62.5234 76.6055L62.9314 40.0703" stroke="#72A89A" stroke-width="2.88" stroke-linecap="round" stroke-linejoin="round"/>
<path d="M65.4111 39.1875L95.6943 27.7275" stroke="#E8FFF9" stroke-width="2.88" stroke-linecap="round" stroke-linejoin="round"/>
<path d="M22.04 52.8001C22.028 52.0873 22.1288 51.8041 22.16 51.7201C22.172 51.6913 22.5272 50.4481 22.64 50.2801C22.9232 49.8577 24.1736 48.8041 24.32 48.7201C24.3896 48.6817 24.488 48.7537 24.56 48.7201C24.8192 48.5953 25.4792 48.1297 26.036 47.9545C27.5024 47.4889 28.1288 47.5249 31.5728 47.5177C32.156 47.5153 32.66 47.5393 32.84 47.6401C33.0608 47.7673 33.2168 47.9953 33.44 48.1201C33.6584 48.2449 34.4384 48.4681 34.76 48.7201C34.9616 48.8761 35.1344 49.0777 35.36 49.2001C35.504 49.2793 36.1376 49.4281 36.44 49.6801C36.5696 49.7881 37.0424 50.1145 37.16 50.1601C37.3904 50.2489 37.652 50.6641 37.76 50.7601C37.844 50.8369 38.6048 51.1369 38.72 51.2401C38.828 51.3361 39.1544 51.8353 39.2 51.8401C39.2792 51.8497 39.6032 51.8473 39.68 51.9601C39.7808 52.1065 39.9608 52.4953 40.16 52.5601C40.256 52.5937 40.3688 52.9993 40.4 53.0401C40.5704 53.2657 41.2232 53.8945 41.24 54.1201C41.252 54.2785 41.1656 54.4585 41.24 54.6001C41.3432 54.8017 41.8112 55.2025 41.96 55.6801C42.0272 55.8937 42.32 56.0401 42.32 56.0401C42.5408 56.4265 42.6896 57.0481 42.68 57.2401L43.16 57.8401" stroke="#BF3848" stroke-width="2.4" stroke-linecap="round"/>
<path d="M43.7165 58.5599C43.7069 57.8471 43.7981 57.5615 43.8269 57.4799C43.8365 57.4511 44.1677 56.2079 44.2709 56.0399C44.5325 55.6175 45.6869 54.5663 45.8237 54.4799C45.8885 54.4415 45.9797 54.5135 46.0469 54.4799C46.2893 54.3551 46.8965 53.8895 47.4101 53.7143C48.7661 53.2487 49.3469 53.2847 52.5293 53.2775C53.0693 53.2751 53.5349 53.2991 53.7005 53.3999C53.9069 53.5295 54.0461 53.7527 54.2549 53.8799C54.4565 54.0047 55.1789 54.2279 55.4765 54.4799C55.6637 54.6359 55.8197 54.8351 56.0309 54.9599C56.1629 55.0367 56.7509 55.1879 57.0293 55.4399C57.1493 55.5479 57.5861 55.8743 57.6941 55.9199C57.9077 56.0087 58.1477 56.4215 58.2485 56.5199C58.3277 56.5967 59.0309 56.8967 59.1365 56.9999C59.2373 57.0959 59.5397 57.5951 59.5805 57.5999C59.6525 57.6095 59.9525 57.6071 60.0245 57.7199C60.1181 57.8687 60.2837 58.2551 60.4685 58.3199C60.5573 58.3535 60.6605 58.7591 60.6893 58.7999C60.8453 59.0231 61.4501 59.6543 61.4669 59.8799C61.4789 60.0383 61.3973 60.2159 61.4669 60.3599C61.5605 60.5567 61.9949 60.9623 62.1317 61.4399C62.1965 61.6535 62.4653 61.7999 62.4653 61.7999C62.6693 62.1863 62.8085 62.8079 62.7965 62.9999L63.2405 63.5999" stroke="#BF3848" stroke-width="2.3088" stroke-linecap="round"/>
<path d="M8.10558 48.2397C8.09838 47.5005 8.42958 45.8877 8.50158 45.7197C8.68878 45.2973 9.50478 44.2533 9.61278 44.1597C10.7504 43.2981 11.4752 43.1445 11.8304 42.9597C11.8568 42.9477 14.7296 42.9549 14.8424 42.9597C15.1232 42.9741 15.476 43.4253 15.6344 43.5597C15.7688 43.6749 16.2944 43.9077 16.5056 44.1597C16.64 44.3181 17.12 44.7045 17.2184 44.7597C17.4152 44.8677 17.7512 45.3765 17.852 45.4797C17.9144 45.5445 18.2576 45.6981 18.3272 45.8397C18.3872 45.9573 18.3944 46.1061 18.488 46.1997C18.6728 46.3869 19.2296 46.7949 19.3592 47.1597C19.4 47.2725 19.544 47.2725 19.5968 47.2797C19.6112 47.2797 20.1344 48.0333 20.1512 48.1197C20.2088 48.4389 20.5064 48.8709 20.6264 49.0797C20.7728 49.3341 20.732 49.8885 20.7848 50.0397C20.8472 50.2197 21.4976 51.4797 21.4976 51.4797C21.644 51.8661 21.7424 52.4877 21.7352 52.6797L22.052 53.2797" stroke="#BF3848" stroke-width="1.9512" stroke-linecap="round"/>
<path d="M64.4385 62.7239C64.7625 62.7239 64.9353 62.6999 64.9689 62.5631C65.1297 61.7255 65.5689 60.5399 65.6217 60.4535C65.7585 60.2351 66.5505 59.2775 66.6201 59.1023C66.6993 58.9055 66.7377 58.6847 66.8553 58.5071C66.9729 58.3295 67.6377 57.5639 67.8129 57.3215C67.9689 57.1103 69.4113 55.8575 69.5673 55.7111C70.0353 55.2695 70.7385 54.9935 70.9233 54.8495C71.1177 54.6983 71.4273 54.2255 71.6481 54.1319C71.8617 54.0407 73.3857 53.2295 73.4721 53.1503C73.5225 53.1071 73.8489 53.0447 73.9617 53.0159C74.2185 52.9511 74.8473 52.7159 75.3945 52.7567C75.6081 52.7735 76.2825 52.7855 76.4217 52.7759C76.6881 52.7591 77.1753 52.9919 77.3913 53.0783C77.6865 53.2007 77.7681 53.3207 77.9433 53.7935C77.9697 53.8751 78.3393 54.2567 78.4041 54.3647C78.4281 54.4007 78.4833 54.7367 78.5553 54.7919C79.0113 55.1183 78.8793 55.9223 78.8961 56.0663C78.9081 56.1767 79.2849 57.1007 79.3473 57.3407" stroke="#EF586A" stroke-width="2.4" stroke-linecap="round"/>
<path d="M79.5391 56.2105C79.6183 55.6945 79.7599 55.0873 79.8919 54.8065C79.9423 54.7009 80.8735 53.3737 81.1063 52.8673C81.3847 52.2577 81.8167 51.8329 81.9727 51.6337C82.0279 51.5641 82.2247 51.0169 82.3063 50.9497C82.6903 50.6257 83.3455 49.5985 83.6599 49.2265C83.8759 48.9721 84.2503 48.6529 84.5311 48.4801C84.8047 48.3097 85.0519 48.3313 85.1143 48.2977C85.2247 48.2425 86.0191 47.6065 86.0911 47.5225" stroke="#EF586A" stroke-width="2.4" stroke-linecap="round"/>
<path d="M90.4229 48.6221C90.4445 48.7349 90.7757 49.5269 90.7925 49.6061C90.7685 49.8965 90.7565 50.2373 90.8333 50.4389" stroke="#EF586A" stroke-width="2.4" stroke-linecap="round"/>
<path d="M84.9053 48.3723C84.9413 48.1899 85.3205 47.8444 85.3805 47.7916C85.6253 47.5924 85.9949 47.626 87.3221 47.6716C88.1885 47.698 88.6133 47.8732 88.7477 47.8612L89.1221 48.2667L89.5709 49.5916" stroke="#EF586A" stroke-width="2.4" stroke-linecap="round"/>
<path d="M89.0813 48.1344C89.0645 48.0624 89.9621 49.1064 90.0365 49.476C90.0605 49.608 90.0821 49.74 90.1061 49.8696" stroke="#EF586A" stroke-width="2.4" stroke-linecap="round"/>
<path d="M89.9287 49.0732L90.0871 49.246L90.3031 51.9004" stroke="#EF586A" stroke-width="2.4" stroke-linecap="round"/>
<path d="M64.3855 63.8428L64.0039 63.9388V64.0324" stroke="#EF586A" stroke-width="2.4" stroke-linecap="round"/>
<path d="M34.4474 14.7744C33.6146 14.7624 32.969 14.8584 31.769 15.168C29.405 15.7632 27.7202 16.1856 27.101 16.428C26.5394 16.644 24.5834 16.848 24.4346 16.8792C24.197 16.9296 23.3306 17.1768 23.0954 17.1984C21.773 17.3136 20.3042 17.7 20.225 17.7072C19.9298 17.736 18.9458 17.7096 18.6314 17.772C17.645 17.964 15.8882 18.2184 15.569 18.2808C14.2154 18.6 13.661 18.888 13.0826 18.8568C12.8354 18.84 10.6298 19.2936 9.31941 19.3656C8.91141 19.3896 7.59621 19.836 7.27941 19.8768C7.04661 19.9056 6.4394 19.8792 6.3866 19.9392C6.305 20.0424 5.67861 20.1288 5.42901 20.196C5.27541 20.2368 4.985 20.4984 4.9202 20.5152C4.8794 20.5224 4.52421 20.5104 4.40901 20.5152L3.6434 20.8968L3.0074 21.024L2.0498 21.7248" stroke="#111111" stroke-width="2.88" stroke-linecap="round"/>
<path d="M11.3623 61.7109L11.7799 62.1069" stroke="#111111" stroke-width="2.88" stroke-linecap="round"/>
<path d="M62.8418 79.1975L62.9546 79.1855L64.1666 79.3127" stroke="#111111" stroke-width="2.88" stroke-linecap="round"/>
<path d="M63.9102 79.4405C64.2102 79.4477 65.0334 79.4693 65.187 79.4405C65.4222 79.3997 65.9574 79.0901 66.2694 78.9941" stroke="#111111" stroke-width="2.88" stroke-linecap="round"/>
<path d="M86.8682 67.0685L88.0802 66.1757L88.4642 66.1133" stroke="#111111" stroke-width="2.88" stroke-linecap="round"/>
<path d="M34.4956 13.7114C34.3108 13.4138 33.7804 12.7105 33.6172 12.4153C33.6148 12.4081 32.5348 10.6729 31.1956 7.24815C31.138 7.14015 30.7564 6.42975 30.7492 5.90895C30.7492 5.89215 30.5212 5.15775 30.43 4.76175L29.9836 3.86895L29.5996 3.23055C29.6908 2.96655 30.262 2.66895 30.9388 2.65695C31.4068 2.64975 33.8692 2.16975 34.0012 2.14815C34.078 2.13615 39.4876 2.14815 39.8692 2.27535C40.786 2.59935 41.4724 2.75055 41.5252 2.78415C41.6284 2.84895 41.8324 3.07695 41.9092 3.04095C41.9764 3.14655 43.4476 3.98895 44.2036 4.38015C44.326 4.44255 45.0196 4.48575 45.7996 4.88895C45.8476 4.91535 45.91 4.93695 45.9892 4.95375C46.0468 4.95855 46.0516 4.55055 46.054 4.38015C46.0636 4.00335 46.126 3.84975 46.3732 3.61455C46.5052 3.49215 46.8556 3.16095 47.0116 3.16815C47.0596 3.17055 49.894 2.72415 50.1988 2.65695C50.2108 2.65455 60.4324 2.64015 60.5308 2.65695C60.6028 2.67135 61.2412 3.34575 61.3588 3.48735C61.9588 4.21455 61.822 4.86015 62.1244 6.22815C62.1652 6.50415 62.086 7.37535 62.1244 7.44015C62.2564 7.64415 63.2644 7.62735 64.9636 7.62255C66.9124 7.62255 70.1044 7.61295 70.2892 7.82415C70.3084 7.85055 71.4292 8.29695 71.4988 8.27055L71.818 8.71695C71.6788 8.84175 71.2636 10.2457 70.7356 10.9489C70.6228 11.0953 70.5436 11.4025 70.4788 11.5225C70.462 11.5561 70.1452 11.8417 70.0972 11.9689C69.9076 12.4489 69.4252 13.1017 69.2668 13.3081C69.1612 13.4473 68.7676 13.9489 68.566 14.2633C68.1964 14.8585 68.0524 15.3746 67.8652 15.7322C67.7524 15.9434 67.7644 16.2649 67.738 16.3681C67.7212 16.4281 67.246 17.4554 67.2268 17.5178C67.2004 17.609 67.0804 17.8226 67.0996 17.8994L66.8452 18.7274" stroke="#111111" stroke-width="2.88" stroke-linecap="round"/>
<path d="M66.8457 18.8568C67.9113 18.84 71.3769 19.4088 71.9457 19.6224C72.1737 19.7088 73.7001 20.1816 74.2425 20.3232C74.4777 20.3832 75.0297 20.364 75.2625 20.3856C75.4353 20.4024 75.8385 20.6112 75.9633 20.6424C76.3977 20.7456 77.2209 20.7432 77.4321 20.7696C78.1329 20.9616 79.1697 21.1512 81.5769 21.408C81.7929 21.4296 82.5801 21.7104 82.6617 21.7248C82.9473 21.7776 84.2601 21.8088 84.8289 21.9168C85.1217 21.9744 85.5201 22.2 85.6569 22.236C85.9281 22.3056 86.9337 22.4904 87.3801 22.6176C87.6633 22.6824 88.5081 22.6584 88.7193 22.6824C88.8945 22.7016 90.8145 23.1408 91.0785 23.1936C91.2513 23.2248 92.3049 23.196 92.6721 23.3208C92.9265 23.4096 93.6345 23.688 93.6945 23.7024C93.7713 23.724 94.2849 23.688 94.3305 23.7024C95.5977 24.084 95.6553 24.0912 95.7345 24.1488L95.9265 24.3408" stroke="#111111" stroke-width="2.88" stroke-linecap="round"/>
<path d="M10.9996 61.9254L1.66602 24.1494" stroke="#111111" stroke-width="2.88" stroke-linecap="round" stroke-linejoin="round"/>
<path d="M1.6661 24.0005C1.6709 23.4989 1.6733 22.6589 1.6661 22.5197C1.6565 22.1693 2.4725 21.6125 2.7029 21.6293" stroke="#111111" stroke-width="2.88" stroke-linecap="round"/>
<path d="M88.6016 65.0425L96.3632 24.4033" stroke="#111111" stroke-width="2.88" stroke-linecap="round" stroke-linejoin="round"/>
<path d="M34.5675 13.9756C34.5627 14.3068 34.5435 15.01 34.5675 15.1732C34.6179 15.5332 34.9947 16.2604 35.0667 16.474C35.1627 16.7524 35.1723 18.5284 35.2659 18.7708C35.3595 19.0084 35.6091 19.6276 35.5731 19.9972C35.5371 20.362 35.5947 20.5684 35.7675 20.77" stroke="#111111" stroke-width="2.88" stroke-linecap="round"/>
<path d="M35.5664 21.1709C36.0272 21.2405 40.1312 21.9533 40.2632 21.9701C41.3144 22.1021 46.7504 23.3813 47.5592 23.6693C47.5976 23.6813 49.4576 24.4517 50.1584 24.5669C50.756 24.7685 52.1216 25.0757 52.6448 25.1621C53.0696 25.2317 54.4448 25.8989 54.608 25.9373" stroke="#111111" stroke-width="2.88" stroke-linecap="round"/>
<path d="M55.167 26.124L55.659 26.448" stroke="#111111" stroke-width="2.88" stroke-linecap="round"/>
<path d="M66.3462 26.7651C66.3486 24.8499 66.3486 21.9627 66.3294 21.5043C66.3198 21.2739 66.5742 20.2731 66.5454 19.7715" stroke="#111111" stroke-width="2.88" stroke-linecap="round"/>
<path d="M66.3457 26.5654V28.3654" stroke="#111111" stroke-width="2.88" stroke-linecap="round"/>
<path d="M52.5557 25.5675C53.2757 25.5651 54.2957 25.6203 55.2533 25.9659C55.7309 26.1411 57.3701 26.3739 57.9509 26.3667C60.2477 26.3235 61.5461 26.5971 62.0501 26.5659C62.4077 26.5443 63.0485 26.7651 63.2477 26.9667C63.3749 27.0075 63.5213 26.9283 63.6485 26.9667C63.7373 26.9955 63.9845 27.1467 64.0469 27.1659C64.1909 27.2091 64.5149 27.3939 64.5485 27.3651" stroke="#111111" stroke-width="2.88" stroke-linecap="round"/>
<path d="M63.3682 27.3242L65.6506 28.3106L66.205 27.941" stroke="#111111" stroke-width="2.88" stroke-linecap="round"/>
<path d="M11.8994 62.7598L64.0346 79.4902" stroke="#111111" stroke-width="2.88" stroke-linecap="round" stroke-linejoin="round"/>
<path d="M11.252 61.8531C11.5232 61.8315 12.0392 62.4891 12.1592 62.8251C12.1688 62.8515 12.1688 62.8731 12.1592 62.8899" stroke="#111111" stroke-width="2.88" stroke-linecap="round"/>
<path d="M65.4004 79.0492V78.9916L65.518 78.9316" stroke="#111111" stroke-width="2.88" stroke-linecap="round"/>
<path d="M87.4664 66.96L65.2832 79.4016" stroke="#111111" stroke-width="2.88" stroke-linecap="round" stroke-linejoin="round"/>
</svg>
