<svg width="128" height="128" viewBox="0 0 128 128" fill="none" xmlns="http://www.w3.org/2000/svg">
<path d="M19.71 46.5548C20.6796 46.5284 21.7668 46.9748 22.1004 46.9892C22.3524 46.9988 23.0244 47.0108 23.3244 47.186C24.0396 47.6036 25.2492 47.858 25.6836 47.966C25.8996 48.0092 26.6172 48.2348 26.7684 48.2924C27.1236 48.4268 28.2228 48.5468 28.506 48.6164C29.8644 49.0508 32.0724 49.754 32.4156 49.8116C32.6604 49.8524 32.8668 50.0924 32.9604 50.138C33.1356 50.2244 33.774 50.246 34.0452 50.246C34.3092 50.2652 35.7828 50.8988 36.0012 51.0068C36.174 51.0668 38.142 51.7388 38.5812 51.8492C39.3012 52.0268 40.3236 51.962 41.214 52.202C42.018 52.418 43.386 52.6076 44.0748 52.7588C44.622 52.8788 46.254 52.8236 46.4268 52.8524C46.5516 52.874 46.9452 53.2604 47.0772 53.2868C47.2188 53.318 47.6628 53.3228 48.2724 53.6132C48.8604 53.8916 50.0244 54.3548 50.226 54.374C51.0396 54.4532 52.5084 54.9788 52.95 55.0532C54.0996 55.2452 54.8844 55.4756 55.4388 55.7852C56.0628 56.0756 58.086 56.2964 58.2636 56.3276C58.5108 56.3708 59.0076 56.726 59.1324 56.762C60.1404 57.0692 65.5068 57.854 66.9516 58.1732C67.0452 58.1924 69.0108 58.9316 69.0156 58.934C69.1236 59.006 69.6876 59.33 69.9924 59.3684C70.2444 59.3996 70.8564 59.3756 70.9692 59.4764C71.07 59.5724 71.4036 59.5868 71.622 59.5868C71.754 59.6012 71.9364 59.8004 71.946 59.8028C72.054 59.8244 72.666 60.0404 73.2996 60.0308C73.8084 60.026 74.166 60.002 74.2284 60.0212C76.5756 60.7172 77.61 60.6284 77.9196 60.89" stroke="#EF586A" stroke-width="2.88" stroke-linecap="round"/>
<path d="M78.1387 60.6716V60.5636C78.2131 60.5108 81.5251 59.7668 84.7627 58.718C85.5451 58.4708 90.2347 56.5676 90.5179 56.4356C90.7603 56.3276 92.7955 55.2284 93.1243 55.1324C93.6475 54.986 94.3723 54.7004 95.4067 54.482C95.5507 54.4508 97.7779 54.2348 98.1211 53.8292C98.2147 53.7212 99.3907 53.6492 99.8587 53.3948C100.298 53.1548 101.75 52.778 101.812 52.7444C102.043 52.6196 102.715 52.1924 103.334 52.0916C103.987 51.9812 104.517 51.9908 104.529 51.9836C104.793 51.8204 105.004 51.5684 105.287 51.4412C105.554 51.3188 106.259 51.338 106.267 51.3332C106.346 51.2684 106.569 51.0788 107.459 50.8988C107.719 50.846 109.238 50.4836 109.307 50.4644C109.624 50.3612 110.692 49.7612 110.719 49.8116" stroke="#EF586A" stroke-width="2.88" stroke-linecap="round"/>
<path d="M85.0889 45.9021H84.9809C84.8537 46.2213 84.8729 47.0757 84.8657 47.7333C84.8633 48.2565 84.9449 49.3989 85.1969 50.0301C85.2833 50.3157 85.6697 51.3909 85.7393 51.6573C85.7393 51.6573 85.7297 54.6837 85.8497 55.5669C86.6729 55.7109 87.9209 55.4901 88.6601 55.2933C89.3177 55.1181 91.2041 54.8253 91.3865 54.8085C91.9409 54.8085 92.5217 54.4941 92.6897 54.2637C92.9657 53.8797 93.6857 53.0109 93.9929 52.8525C95.6321 52.0245 99.6953 50.8989 100.509 50.8989C100.552 50.8941 102.527 50.3421 103.78 50.1381C104.62 49.9989 105.359 49.5429 105.991 49.5669C107.063 49.6029 108.028 49.6173 108.22 49.4853C108.139 49.3581 107.027 49.3749 106.319 49.3821C105.155 49.3845 103.759 49.3557 103.334 49.2693C103.147 49.2309 101.57 48.8085 100.727 48.7269C99.9665 48.6717 97.1081 48.5301 96.9257 48.5085C96.7337 48.4869 95.1449 48.2517 94.9721 48.0741C94.7633 47.8605 94.5353 47.8677 94.4273 47.8581C94.3793 47.8533 90.8609 47.3445 90.8153 47.3349C90.4721 47.2557 89.5961 46.9989 89.5409 46.9893C89.3945 46.9629 87.7025 47.0205 87.0713 46.8741C86.6657 46.7757 86.3153 46.7997 86.1737 46.7709C86.0657 46.7493 85.2953 46.3653 85.1969 46.3365C85.1273 46.3149 84.6689 46.3341 84.5465 46.2285C84.4241 46.1205 84.0185 45.4581 83.6777 44.9253C83.6849 44.6925 85.2905 44.9253 87.5825 45.5541C90.6737 46.3893 91.7417 46.5573 93.4505 46.9893C94.3265 47.2053 97.2665 47.2917 98.4041 47.5341C98.9153 47.5869 100.411 47.8581 100.509 47.8581C101.733 48.0861 102.333 48.0693 103.334 48.0741" stroke="#EF586A" stroke-width="2.88" stroke-linecap="round"/>
<path d="M83.5669 46.9893C83.5741 48.3309 83.5405 49.4421 83.5669 49.5957C83.5933 49.7397 83.7973 50.9349 83.8045 52.2861C83.7973 53.2917 83.7829 55.6389 83.7853 55.6773C83.7997 55.9653 83.5357 56.6037 83.5669 57.1965" stroke="#EF586A" stroke-width="2.88" stroke-linecap="round"/>
<path d="M79.876 58.2835C80.9128 58.2883 82.0168 58.2379 82.768 57.8131C83.44 57.3955 87.1144 55.1443 87.1528 55.1323C87.3304 55.0843 87.5248 55.0963 87.6952 55.0243C87.8608 54.9547 89.3776 54.0475 89.8672 53.8291C90.2392 53.6371 91.8304 52.5043 92.1472 52.3099C93.0544 51.7555 97.0744 49.6747 97.144 49.5955C96.8248 49.5955 95.908 49.5931 95.3056 49.5883C94.4008 49.5859 93.3496 49.7467 92.572 50.0323C91.8712 50.3035 90.2032 50.9443 89.9752 51.0067C89.4112 51.1675 89.2384 51.2803 88.9984 51.6571C88.756 52.0507 87.964 52.9075 87.8032 52.9603C87.7408 52.9555 87.556 52.5475 87.4768 52.2019C87.4624 52.1299 87.484 49.6123 87.5872 49.5955C88.2712 49.5211 90.0064 49.8235 90.4096 49.8115C89.9968 49.8067 89.5744 49.8259 89.5408 49.8115C89.392 49.7515 89.2672 49.6219 89.1064 49.5955C88.8568 49.5499 88.1752 49.5739 87.832 49.3819C87.3976 49.1395 86.824 49.1659 86.608 49.1611" stroke="#EF586A" stroke-width="2.88" stroke-linecap="round"/>
<path d="M78.3545 58.9339C79.0481 58.9795 79.4537 58.8715 79.6577 58.4995C80.2241 57.4747 80.9129 56.4835 81.1145 56.0467C81.3929 55.4395 82.7537 52.9075 83.1329 52.0915C83.3009 51.8299 83.8217 51.1243 83.9993 50.8147C84.2105 50.4643 84.3713 50.3179 84.9809 49.9195C85.1993 49.7779 85.9625 49.3939 86.0657 49.2691C86.1881 49.1155 86.5385 48.3811 86.6081 48.1819C86.6561 48.0451 86.5793 47.5795 86.6081 47.5315C86.6633 47.4451 86.8577 47.2723 86.8265 47.2051" stroke="#EF586A" stroke-width="2.88" stroke-linecap="round"/>
<path d="M17.7568 45.6862C21.4072 45.691 27.7768 45.7462 28.072 45.6862C28.4008 45.6166 29.62 45.1294 30.244 45.0334C30.4288 45.007 31.6144 45.0526 31.8736 45.0334C32.4712 44.9254 33.8008 44.7502 34.0456 44.599C34.1584 44.5318 34.4848 44.3494 34.9408 44.3638C36.1456 44.3974 36.4552 44.287 37.3048 44.1646C37.6 44.1214 39.2056 43.8382 39.6928 43.7302C39.8728 43.7206 40.0648 43.7926 40.2352 43.7302C40.3312 43.6942 40.3528 43.5358 40.4536 43.5142C40.7008 43.4566 40.9624 43.5502 41.2144 43.5142C41.4064 43.4854 42.8296 42.8854 42.952 42.8614C43.0936 42.8326 44.3032 42.6502 44.5792 42.535C44.6752 42.4966 44.9392 42.2302 45.232 42.211C45.304 42.2062 48.5728 41.5318 48.7072 41.4502C48.9256 41.4646 48.748 44.8822 48.8152 45.0334C48.9136 45.2446 49.1392 45.3742 49.2496 45.5758C49.3048 45.6718 49.2544 46.015 49.3576 46.1206C49.4656 46.2262 49.48 46.2838 49.468 46.555" stroke="#EF586A" stroke-width="2.88" stroke-linecap="round"/>
<path d="M29.9199 43.9481L30.0279 43.7297C30.7695 43.7249 31.9719 43.7585 32.3079 43.7297C32.4735 43.7153 36.4791 43.3529 36.6519 43.2953C37.5663 42.9833 38.9031 42.7889 39.1503 42.7529C40.0383 42.6257 41.2911 42.6881 41.7567 42.4265C41.9151 42.3377 42.3519 42.0065 42.6255 41.9921C42.6255 41.9921 43.5687 42.0209 43.8207 41.9921C44.0439 41.9681 46.0047 41.7257 46.3143 41.5577C46.5255 41.4425 48.0327 41.0993 48.3807 41.1233" stroke="#EF586A" stroke-width="2.88" stroke-linecap="round"/>
<path d="M28.3984 47.4235C28.6288 47.4859 29.488 47.8579 30.4624 47.8579C30.6064 47.8651 32.1064 48.1099 33.5032 48.2923C34.984 48.4987 36.1408 48.4891 36.2176 48.5083C36.3472 48.5395 37.084 48.9187 37.1944 48.9427C37.336 48.9739 39.5296 49.2691 39.6712 49.2907C40.4368 49.4083 42.0928 49.3531 42.8416 49.5955C43.1512 49.6963 46.9048 50.3323 46.9696 50.3539C46.972 50.3563 47.4184 50.6923 47.7304 50.7883C48.4312 51.0139 49.6936 51.7171 50.2264 51.7411C50.7208 51.7627 51.7288 52.3531 52.5616 52.4179C53.4064 52.4851 54.1984 52.9555 55.1152 53.1787C57.5656 53.7619 62.824 55.3507 63.7792 55.7491C64.1872 55.8811 64.7824 55.8595 64.996 55.8931C65.2048 55.9243 65.9104 56.3155 65.9752 56.3275C68.3296 56.5483 69.268 56.5147 70.8616 56.8699C71.0104 56.9035 71.8888 57.1795 72.0568 57.1963C72.2728 57.2203 73.0864 57.2131 73.36 57.3043C73.5136 57.3571 74.5984 57.6643 74.7712 57.7387C76.1032 58.3123 79.768 58.2835 79.984 58.2835C80.2048 58.0027 80.7424 56.3491 80.7448 56.3275C80.752 56.2195 80.9656 55.5067 80.9608 55.3507C80.956 55.2091 80.9608 54.2635 80.9608 54.0475C80.7112 53.9491 80.0032 53.6923 79.876 53.7211C79.492 53.8027 76.8352 52.4563 76.6168 52.4179C75.5176 52.2307 74.2 51.7819 74.1184 51.7675C73.9768 51.7411 72.0736 51.4363 71.9512 51.4147C71.3944 51.3211 69.2104 51.3811 68.8048 51.1147C68.488 50.9011 68.1088 50.9251 67.9288 50.8987C67.6696 50.8579 67.012 50.6467 66.6472 50.6611C66.1456 50.6827 64.8304 50.6971 64.78 50.6803C63.8008 50.3347 62.2096 50.1715 62.0656 50.1379C60.6448 49.8091 59.5552 49.8739 59.0728 49.5931C58.948 49.5187 57.8296 49.1611 57.5032 49.1611C56.4184 48.8347 54.5728 48.2107 53.812 48.2923C53.5408 48.3235 53.0728 47.9635 52.8328 47.8579C52.744 47.8171 52.1128 47.8891 51.856 47.8579C51.7288 47.8435 51.0592 47.6467 50.8792 47.6395C50.5888 47.6275 50.296 47.6803 50.0104 47.6395C49.7488 47.6035 49.0816 47.3875 48.7576 47.4451C48.4216 47.4955 48.0784 47.3251 47.62 46.8787C47.4328 46.6939 46.6552 46.1059 46.4272 46.0099C45.5008 45.6379 44.9776 45.7027 43.9288 45.4675C43.912 45.4651 43.6264 45.4651 43.6024 45.3595C43.5784 45.2011 43.6312 44.7259 43.7104 44.5987C43.8424 44.4115 44.5456 44.4067 44.7976 44.3827C45.2032 44.3443 46.2544 43.9843 46.3168 43.9483C46.4032 43.8931 46.624 43.6987 46.9696 43.7299L47.0776 44.4907C46.9552 44.5531 46.4944 44.7691 46.4272 44.8171C46.3168 44.8891 46.0168 45.0523 45.4144 45.0307C44.5552 44.9971 43.4176 45.1963 42.952 45.2515C41.9296 45.4819 41.3656 45.4651 39.736 45.4675C35.884 45.4771 34.9216 45.4147 34.6984 45.4675C33.4312 45.7723 31.8736 46.3363 31.5472 46.4443C31.6024 46.7275 32.2648 46.7755 35.6344 46.7803C38.0128 46.7779 43.06 46.7707 43.06 46.7707C43.108 46.7875 43.72 47.1019 44.0368 47.3131C44.2336 47.4115 44.836 47.3995 45.0136 47.4235C45.412 47.4739 46.1296 47.8699 46.3168 47.9659C46.504 48.0595 47.7832 48.2371 48.0544 48.2923C48.3712 48.3787 49.012 48.7675 50.6008 49.2571C51.1864 49.4347 51.5992 49.6387 51.748 49.7035C51.9712 49.8019 52.5472 49.7803 52.7248 49.8115C52.948 49.8499 53.3656 50.2603 53.4856 50.3539C53.5312 50.3923 56.2432 50.9419 58.156 51.1147C58.4128 51.1387 60.5032 51.1147 60.9784 51.2227C61.2016 51.2755 61.888 51.5419 61.9552 51.5491C62.0992 51.5659 62.2504 51.5107 62.3896 51.5491C62.548 51.5923 62.668 51.7291 62.824 51.7675C63.0016 51.8083 66.6784 52.2259 67.06 52.4179C67.2064 52.4899 67.6528 52.6699 68.2648 52.6555C68.92 52.6435 69.28 52.6123 69.34 52.6363C69.568 52.7251 70.132 53.0251 70.4272 53.0707C71.1328 53.1787 72.736 53.5603 72.9256 53.6131C73.3504 53.7307 74.7424 53.7139 75.2056 53.9395C75.352 54.0091 75.4792 54.1315 75.64 54.1555C75.8896 54.1963 76.5256 54.1603 76.9192 54.2611C77.5072 54.4051 79.024 54.3451 79.2232 54.3739C79.9576 54.4771 80.8456 54.9115 81.2872 55.0243C81.82 55.1611 82.2232 55.4995 82.264 55.5667C82.3168 55.6555 82.5112 55.8739 82.4824 56.2195C82.2712 56.3179 81.7912 56.2987 81.6136 56.3275C81.4288 56.3587 80.6944 56.7475 80.6368 56.7619C80.5792 56.7763 76.0456 56.7763 75.9664 56.7619C75.724 56.7187 75.076 56.2987 74.8792 56.2195C74.7808 56.1787 71.476 55.3435 69.5584 55.0243C69.3616 54.9811 68.212 54.6163 68.0368 54.5899C67.8784 54.5659 66.6088 54.5803 64.9072 54.2779C64.2856 54.1627 63.6904 54.1867 63.4768 54.1555C63.22 54.1195 62.3776 53.7355 62.2816 53.7211C62.0824 53.6899 60.8152 53.7523 60.652 53.7211C60.4288 53.6803 59.8528 53.4691 59.3632 53.4835C58.5688 53.5003 56.5552 53.5339 56.4184 53.5051C56.1616 53.4475 55.4488 53.2555 54.8968 53.2867" stroke="#EF586A" stroke-width="2.88" stroke-linecap="round"/>
<path d="M89.6489 83.9131C89.3225 84.3211 88.4801 85.9531 88.0217 86.8459C87.5609 87.7603 86.7185 90.3739 86.2841 91.6243C86.0657 92.2843 85.6601 92.9227 85.5233 93.1435C85.4969 93.1843 85.0553 95.0155 85.0697 95.3611C85.0937 95.9347 85.0889 96.9859 85.0889 97.2715C85.9817 97.4995 88.3121 97.0387 90.9929 96.2419C91.4297 96.1171 95.0921 95.0659 95.9489 94.7731" stroke="#B0E4D6" stroke-width="2.88" stroke-linecap="round"/>
<path d="M84.2204 90.4293C83.7236 91.0893 82.4996 91.8765 82.3748 92.0589C82.3292 92.1237 82.1012 92.4045 82.0484 92.4933C82.0292 92.5269 82.0532 92.8989 82.0748 93.7197C82.0964 94.4589 81.9596 95.0205 81.722 95.2077C81.6644 95.2509 81.3788 95.2029 81.2876 95.3157C80.9948 95.6733 80.786 95.7885 80.6372 95.8581C80.5124 95.7117 80.522 91.4949 80.5268 91.4061C80.6012 90.4101 82.046 87.6357 82.0484 87.3885C82.0508 86.6949 82.4276 85.9989 82.4828 85.3245C82.4972 85.1181 82.9388 83.1525 82.9004 82.4445C82.8788 82.0197 82.8716 81.2061 82.9172 80.9805C82.9724 80.7021 83.3348 79.8621 83.3516 79.7853C83.4068 79.5141 83.3804 77.4429 83.3516 77.2893C83.1548 76.5021 83.102 75.5253 82.8092 75.2253C82.7732 75.1893 82.4468 74.1789 82.4828 74.0301C82.5188 73.8741 82.1588 73.3965 82.0484 73.1613C82.0172 73.0941 82.034 70.0149 82.0484 69.9021C82.058 69.8133 82.094 69.7053 82.1564 69.5781L82.4828 69.7941" stroke="#B0E4D6" stroke-width="12" stroke-linecap="round"/>
<path d="M91.8208 70.2285C91.3864 70.6869 91.24 70.8021 90.952 70.8813C90.7552 70.9365 88.8904 71.8149 88.06 72.1461C87.412 72.4173 86.8504 72.7629 86.7184 73.0533C86.6128 73.2957 86.6152 74.1165 86.608 74.1381C86.4232 74.8725 86.0224 75.3909 85.8496 75.4413C86.4064 75.4413 87.2944 75.2589 88.1008 74.9517C88.7944 74.6829 90.6592 73.8933 90.952 73.8141C91.492 73.6725 92.8624 73.7373 93.3424 73.5957C93.5896 73.5213 95.236 72.7869 95.8408 72.6189C95.4136 73.1997 94.3144 74.7549 94.1032 75.1173C93.5464 76.0557 92.8888 76.7445 92.5816 77.2893C92.2456 77.9613 91.5088 79.0773 91.18 79.7205C90.6784 80.7309 90.3736 81.6309 90.22 81.9333C90.0592 82.2429 88.9744 84.1533 88.8904 84.3477C88.8352 84.4725 88.6456 85.3941 88.564 85.4325" stroke="#B0E4D6" stroke-width="12" stroke-linecap="round"/>
<path d="M78.7891 64.1465L79.6579 64.3649" stroke="#B0E4D6" stroke-width="4.8" stroke-linecap="round"/>
<path d="M80.7452 66.1028H80.6372C80.39 65.8196 80.6228 64.8476 80.8532 64.7996C81.1052 64.7636 81.1844 64.6844 81.83 64.5812C81.9548 64.562 82.2452 64.49 82.6988 64.3652" stroke="#B0E4D6" stroke-width="4.8" stroke-linecap="round"/>
<path d="M81.1797 64.1473C81.5061 64.0729 82.5837 63.8473 82.8093 63.7129C83.5317 63.2809 83.7789 63.2689 84.3285 63.0625C85.1301 62.7601 86.1237 62.4385 86.2845 62.4097C86.6085 62.4097 87.0429 62.3905 87.1533 62.1937C87.2613 62.0041 87.7317 61.9801 87.9117 61.9753C88.2621 61.9705 89.0613 61.6201 89.3253 61.5409C89.3925 61.5193 89.9517 61.2073 90.1941 61.1065C90.3261 61.0513 90.4869 61.1377 90.6285 61.1065C90.9285 61.0393 93.6525 60.2305 93.8853 60.2377C94.2117 60.2377 94.7349 60.2473 94.7541 60.2377C94.9029 60.1801 95.5101 59.8585 95.7309 59.8033C95.9829 59.7433 97.5597 59.8489 97.7949 59.6953C98.1021 59.4865 99.2685 58.9081 99.4245 58.9345" stroke="#B0E4D6" stroke-width="4.8" stroke-linecap="round"/>
<path d="M91.1709 59.1521C92.2845 59.1857 93.2349 58.9337 93.6693 58.9337C93.9261 58.8833 94.1661 58.7513 94.4277 58.7177C94.6077 58.6937 94.8021 58.7825 94.9725 58.7177C95.2149 58.6193 95.3853 58.3889 95.6229 58.2833C95.7549 58.2233 96.4869 58.1225 96.7101 58.0649C97.0173 57.9881 98.0733 57.5585 98.6637 57.6305C99.2853 57.7169 101.102 56.6513 101.923 56.7617C101.947 56.7665 103.272 56.2193 104.964 55.8929C105.276 55.8329 105.888 55.4825 106.049 55.4585C106.262 55.4249 106.85 55.4321 107.196 55.1993C107.743 54.8321 108.993 54.5585 109.308 54.5897L109.632 54.1553" stroke="#B0E4D6" stroke-width="4.8" stroke-linecap="round"/>
<path d="M109.415 56.5459C109.271 56.7475 108.599 57.6859 108.328 57.9571C108.014 58.3819 107.445 59.0251 107.025 59.9107C106.559 60.9115 106.039 62.2891 105.94 62.4091C105.842 62.5291 105.501 62.8867 105.506 63.0619C105.515 63.3667 105.199 63.8107 105.071 64.0387C104.911 64.3315 104.824 64.8667 104.853 65.1235C104.879 65.3107 104.349 66.9835 104.203 67.4059C104.15 67.5571 103.495 71.1883 103.13 72.0451C102.849 72.7027 102.664 73.5403 102.667 74.1235C102.681 74.9083 102.7 76.6819 102.611 77.4211C102.578 77.6899 101.997 78.8755 101.812 79.7851C101.735 80.1955 101.488 81.0883 101.378 81.4147C101.359 81.5059 101.378 82.3387 101.378 82.6099C101.397 83.0971 101.212 83.2795 101.162 83.3707C101.107 83.4643 100.703 85.3459 100.727 85.5427C100.742 85.3003 100.768 84.6811 100.835 84.5635C100.939 84.3859 101.419 83.9803 101.596 83.6947C101.707 83.5171 102.316 82.5931 102.95 80.8987C103.519 78.8299 104.733 74.7139 104.853 73.7035C104.863 73.6315 104.851 64.3267 104.853 61.6483C104.572 61.5283 99.6521 61.5379 98.9777 61.5595C97.8737 61.5979 97.2617 61.7059 96.5993 61.9747C96.4361 62.0443 92.5841 63.4555 91.7873 63.9235C91.3529 64.1779 90.2561 64.5187 89.9681 64.6603C89.6201 64.8355 88.6337 65.6059 88.2233 65.8123C87.9857 65.9323 87.3593 66.1171 87.1529 66.2107C87.0833 66.2419 86.3057 66.7219 86.1737 66.7531C86.0681 66.7795 84.8489 67.0411 84.3281 67.1875C84.7625 67.3723 85.0193 67.4467 85.2521 67.4107C85.7297 67.3363 89.7233 66.3715 91.4969 65.9923C92.1665 65.8267 95.8073 64.5355 97.1417 64.0555C97.4417 63.9403 98.0129 63.9355 98.2289 63.9307C98.5217 63.9187 98.8529 63.6883 98.9897 63.3859C99.1001 63.1339 99.1505 62.8483 99.3161 62.6275C99.5897 62.2531 102.717 59.5291 102.791 59.4763C103.895 58.7251 104.479 58.5643 104.853 58.6075C104.414 59.2075 103.279 60.0619 102.791 60.3451C102.621 60.4435 101.419 61.0363 100.619 61.3243C100.363 61.4155 98.9753 62.1835 98.8817 62.1931C98.6657 62.2147 98.0153 62.2315 97.3601 62.5171C96.5273 62.8795 95.2841 63.2779 94.6457 63.2779C94.4033 63.3115 93.6809 63.8059 93.4505 63.9307C93.1193 64.1131 92.4329 64.1131 92.2553 64.1467C92.2073 64.1563 91.5449 64.5115 91.2785 64.5811C90.6377 64.7491 87.8561 64.8139 87.5873 64.9075L87.4769 65.1235C89.0681 65.6035 95.4449 64.7899 97.9025 64.3651C100.807 63.8827 102.801 63.9787 103.115 63.9307C103.42 63.8803 104.608 63.3307 105.179 63.2779C105.019 63.2467 103.411 63.4987 103.111 63.5635C102.568 63.6835 101.656 64.1731 101.596 64.1467" stroke="#B0E4D6" stroke-width="4.8" stroke-linecap="round"/>
<path d="M97.9027 62.6279C98.4643 63.6383 98.5963 66.4943 98.9899 68.0567C99.1987 68.8727 99.4482 69.7343 99.4578 70.1711C99.4602 70.5527 99.333 70.9199 99.0978 71.2055C99.0402 71.2751 97.0362 73.0319 96.9258 73.1615C96.873 73.2239 96.7914 73.4159 96.4914 73.7039C96.2178 73.9727 96.1218 74.6519 96.057 74.8991C96.0186 75.0455 94.9842 76.9727 94.557 77.4623C93.969 78.1439 92.7618 79.5311 92.349 79.9175C91.9674 80.2775 91.065 81.6287 90.5178 82.2839C89.9418 83.0327 89.7402 83.5271 89.5578 84.6191C89.4738 85.1399 88.9698 86.1383 88.965 86.7047C88.965 87.0863 89.0346 87.2567 89.2146 87.3887C89.7762 87.1703 92.5506 85.3631 94.0578 84.8087C95.4978 84.2879 96.8058 83.5703 97.5786 83.2607C97.9314 83.0975 98.7858 81.5927 98.8818 81.3071C98.937 81.1367 99.3906 79.2743 99.7194 78.1823C99.909 77.5271 99.8514 76.5527 99.8586 75.7679C99.4338 75.6719 99.1074 75.6407 98.8794 75.7223C98.3658 75.9071 97.1659 77.0327 96.7099 77.3975C96.2131 77.7935 94.221 79.1879 93.993 79.3511C93.2802 79.8719 91.9722 81.1511 91.365 81.7559C90.513 82.6247 89.5338 83.8367 89.0322 84.6911C88.0122 86.4575 87.9042 87.1247 87.9114 87.1703" stroke="#B0E4D6" stroke-width="4.8" stroke-linecap="round"/>
<path d="M98.555 79.1348H98.663C98.4542 79.4852 97.5854 79.9484 96.1934 80.9372C94.3046 82.2596 91.7318 83.4572 90.9518 84.2396C90.1694 85.0316 86.879 89.8604 86.6078 90.1028C86.6246 90.206 88.6478 90.2132 88.6718 90.2108C89.5598 90.1124 92.1854 88.8476 94.5038 88.1492C95.399 87.878 98.3198 86.51 99.5318 86.1932C100.273 85.9988 101.334 85.1876 101.488 85.1084C101.205 85.4348 99.8654 86.21 99.0974 86.846C98.9942 86.9324 97.9646 87.7028 97.4678 88.1492C97.1558 88.4252 96.7622 88.5284 96.491 88.5836C96.3254 88.646 95.2118 89.39 95.0798 89.4524C94.9454 89.5148 94.3358 89.6372 94.103 89.7764C93.947 89.87 93.503 90.2108 93.3422 90.2108C93.2342 90.2132 92.9342 90.2444 92.5814 90.5372C92.2382 90.8276 91.5038 91.19 91.079 91.5164C90.3086 91.9556 89.1254 92.8628 88.9982 92.9276C88.1342 93.362 87.0254 94.0436 86.9342 94.1204C86.4998 94.4996 85.0718 96.338 84.9806 96.4028C84.863 96.4796 84.2726 96.7532 84.2198 96.8372C84.071 97.0724 83.7278 97.3988 83.6774 97.4876C83.6582 97.5188 83.5142 97.9868 83.459 98.03C83.0294 98.3732 82.7054 98.9372 82.2638 99.3332C82.1222 99.4604 81.6662 99.5612 81.5054 99.6596C81.4046 99.5924 81.9926 98.7884 82.6982 98.1404C83.3438 97.5596 84.3734 96.9404 85.3838 96.4748C85.8038 96.2852 87.2078 95.39 87.6998 95.138C88.1222 94.8716 89.987 93.4316 90.083 93.362C90.815 92.8316 91.9286 92.3852 92.4734 91.9484C92.759 91.766 93.7502 91.5092 93.9926 91.406C94.4918 91.1924 96.1118 89.8604 96.491 89.5604C96.7214 89.378 97.0838 89.3852 97.1438 89.342C97.3598 89.126 97.763 88.7708 98.1206 88.6916C98.8022 88.5356 100.139 87.8564 100.185 87.8228C100.674 87.4364 100.84 86.9036 101.161 86.6276C101.289 86.5172 101.596 85.7588 101.812 85.3244C101.841 85.2188 102.265 83.5484 102.357 83.4788C102.496 83.69 102.498 84.8012 102.316 85.3292C102.119 85.7612 101.718 86.966 101.596 87.17C101.31 87.6452 100.537 88.7012 100.509 88.7996C100.485 88.886 100.485 89.066 100.509 89.342" stroke="#B0E4D6" stroke-width="4.8" stroke-linecap="round"/>
<path d="M77.9205 101.071C77.9181 97.1251 77.9301 90.2035 77.9205 90.1027C77.9157 90.0475 77.6397 88.5763 77.7045 87.9307C77.7381 87.5875 77.7381 87.3691 77.7045 87.2803C77.6109 87.0355 77.2005 86.4859 77.2317 86.0851C77.2749 85.5235 77.2845 83.5699 77.2701 83.4787C77.2389 83.2963 76.8597 82.5283 76.8357 82.3915C76.8165 82.2907 76.8165 65.1931 76.8357 65.1235C76.8789 64.9699 77.0829 64.6219 77.0517 64.5811" stroke="#7EA399" stroke-width="4.8" stroke-linecap="round"/>
<path d="M77.051 65.234C75.8318 65.222 73.9718 65.2844 73.6838 65.234C73.6718 65.2316 72.4406 64.6076 71.8382 64.5812C71.6054 64.5716 70.8086 64.61 70.643 64.5812C69.8942 64.394 69.0494 64.346 68.3486 64.0796C68.0294 63.9596 67.6094 63.8996 67.271 63.9236C66.8918 63.95 66.6446 63.7412 66.5174 63.7124C66.407 63.6884 63.9254 63.7244 62.9078 63.7316C61.9022 63.7292 60.2318 63.7316 59.567 63.4964C58.871 63.2468 57.359 63.2948 56.7158 63.2444C55.0454 63.0452 52.0022 62.7236 50.4446 62.5172C49.6622 62.4164 47.219 62.4308 46.9694 62.4092C42.9206 61.7348 35.4014 60.7868 33.1358 60.3476C32.363 60.2012 30.839 60.2492 30.4622 60.1292C30.0806 59.966 29.543 59.7524 29.2262 59.7836C28.6742 59.8388 26.2262 59.5412 25.1102 59.15C24.5558 58.9556 23.9414 58.982 23.7278 58.934C23.5118 58.826 23.2214 58.7036 22.4246 58.718C22.3526 58.7204 22.3166 58.7564 22.3166 58.826C22.343 59.7716 22.5734 60.446 22.9694 60.89C23.0654 60.998 23.4686 61.646 23.5118 61.7588C23.5526 61.8644 23.7878 62.2964 24.0542 62.4092C24.0566 62.4116 33.767 62.4092 37.5206 62.4092C39.7862 62.3804 43.2542 62.8748 44.8454 62.8628C47.4398 62.81 48.4862 62.9012 50.879 63.278C51.755 63.422 54.2078 63.9308 55.6574 63.9308C55.9814 63.9524 61.3934 64.7708 61.5206 64.7996C61.6598 64.8284 62.6774 65.2004 62.9342 65.234C63.1766 65.2652 64.3166 65.2052 64.4534 65.234C64.5398 65.2508 65.1134 65.5028 65.4614 65.6252C65.7878 65.7452 68.4614 66.2924 68.6894 66.3188C68.9414 66.3476 69.2054 66.2492 69.4502 66.3188C69.7286 66.4004 70.2278 66.7628 70.535 66.7532C70.607 66.7532 71.387 66.9116 71.5118 66.9716C72.407 67.3988 73.5686 69.242 73.6838 69.4676C73.7822 69.6596 74.0702 71.0276 74.1182 71.2052C74.1974 71.4884 74.411 71.7188 74.663 71.858L74.5526 73.0532C74.0918 73.0772 73.5542 73.0052 73.1414 72.8348C73.0142 72.782 71.9534 72.182 71.1878 71.858C70.9958 71.7764 68.6966 70.8836 68.6894 70.8812C68.4254 70.754 67.739 70.3484 67.187 70.1444C66.635 69.9692 64.9574 69.3716 64.8878 69.3596C64.727 69.3332 59.4374 69.3476 57.2414 69.3668C54.8798 69.3668 53.0246 69.1484 52.3982 69.0332C51.467 68.8604 50.387 68.522 50.0102 68.4908C49.8086 68.4764 44.4878 68.4956 42.407 68.5004C41.1014 68.4932 37.9238 68.222 36.4358 68.0564C36.215 68.0324 31.6526 68.0684 29.6102 68.0708C28.8302 68.0756 27.9422 67.586 27.3038 67.6028C26.747 67.6148 26.3942 67.646 26.3342 67.622C26.3174 67.6148 25.0718 66.914 24.3806 66.7532C23.9174 66.6476 22.4294 66.11 22.3166 65.9924C22.1462 65.8028 22.0886 65.5004 21.9902 65.342C22.0214 65.2316 30.6062 65.2268 34.3742 65.2268C43.8758 65.2316 58.1942 65.234 63.011 65.234C63.4886 65.2364 64.2398 65.234 66.083 65.6684H65.5406" stroke="#7EA399" stroke-width="4.8" stroke-linecap="round"/>
<path d="M25.7922 69.3594L25.4658 69.7938C25.6842 70.0602 25.9074 70.1826 26.3346 70.2282C28.3698 70.4514 32.0178 71.0946 32.7426 71.205C34.7106 71.505 38.565 71.745 39.3138 71.8266C40.0938 71.913 42.069 72.4434 42.9042 72.5394C43.449 72.5994 45.4578 72.705 46.2858 72.8778C46.629 72.9474 48.4458 73.2786 49.4658 73.2858C53.589 73.2474 58.737 73.6026 59.9442 73.7274C60.4146 73.773 60.7866 73.8882 61.305 74.1378C61.821 74.3874 63.225 74.3154 64.1274 74.5722C64.3434 74.6082 66.1938 74.769 66.2994 74.7906C66.9258 74.9538 69.669 75.5898 69.7746 75.6594C69.993 75.8034 70.1778 76.0194 70.4274 76.0938C70.6698 76.1658 71.3586 76.0986 71.4042 76.2018C71.445 76.2858 72.897 76.7082 73.4682 76.7442C73.7322 76.761 74.817 77.2842 74.8794 77.505C74.5986 77.6226 70.0266 77.6202 68.8266 77.4738C68.301 77.4042 65.1186 75.7098 64.3458 75.333C64.3098 75.3162 62.4834 74.4642 61.881 74.1834C60.8994 73.7298 60.1074 73.713 59.241 73.4874C59.2266 73.4826 54.789 73.4898 53.5938 73.4874" stroke="#7EA399" stroke-width="4.8" stroke-linecap="round"/>
<path d="M60.1095 72.6192L68.6895 73.2696C67.2735 73.2696 64.0671 73.2696 62.2743 73.272C60.4071 73.2768 58.2471 73.0608 55.5447 72.6456C50.4255 71.8176 46.2375 71.3184 45.6663 71.0976C44.7303 70.7376 43.2855 70.5672 42.7887 70.3968C42.5775 70.3248 42.0543 70.032 41.9727 70.0128C41.8671 69.9888 32.4951 70.008 30.5703 70.0128" stroke="#7EA399" stroke-width="4.8" stroke-linecap="round"/>
<path d="M25.5762 72.1846C26.541 72.1798 29.4474 72.5998 31.0626 72.8686C33.0858 73.2358 36.3546 74.1046 38.193 74.6086C40.4562 75.2614 42.7866 76.2454 43.6482 76.483C45.1818 76.8334 47.985 77.5126 49.6842 77.6134C51.3954 77.7046 57.5082 78.2878 59.0106 78.607C59.5434 78.7198 60.8058 78.6934 61.2498 78.7342C64.689 79.2838 66.8538 79.6822 68.1474 79.8958C68.6178 79.9966 69.1458 80.0062 69.993 80.3302C70.6842 80.5918 72.7386 80.9326 72.8154 80.9806C72.9018 81.0358 73.1802 81.2854 73.4682 81.307C73.6122 81.319 74.1882 81.319 74.337 81.415C74.5794 81.5806 74.6874 81.9334 74.6634 82.3918C74.6562 82.4806 74.6514 83.4382 74.6634 83.587C74.6802 83.8006 75.0042 84.115 75.0978 84.2398C75.117 84.2662 75.0762 85.5334 75.2058 85.651C75.2994 85.7302 75.5442 86.9422 75.5322 87.0622C75.1314 87.0838 74.4546 86.839 73.773 86.3974C73.365 86.1286 71.4498 85.1806 69.7746 84.0214C69.045 83.5126 67.8714 82.3342 67.0602 81.8494C65.649 81.1438 63.3282 79.9558 61.5258 79.4494C60.357 79.1446 56.853 78.8086 56.0922 78.7006C55.9386 78.6886 54.657 78.691 53.5506 78.5518C51.549 78.2998 47.2386 77.4934 46.5402 77.4502C45.537 77.3902 44.5362 77.4094 43.9002 77.2006C42.7218 76.8166 42.3354 76.7398 41.3154 76.7326C40.2042 76.7326 37.4634 76.7422 37.413 76.7446C37.1418 76.7614 36.6594 76.5718 36.4362 76.5286C36.2802 76.4974 35.2122 76.5598 35.0226 76.5286C34.8834 76.5046 34.1058 76.1302 33.9378 76.0942C33.8538 76.075 33.1818 76.1158 32.961 76.0942C32.7498 76.0726 32.0082 75.8854 31.8738 75.8758C31.5354 75.8494 30.717 75.8926 30.6786 75.8758C30.5298 75.8134 30.0474 75.6142 29.5938 75.6598C29.4666 75.6718 28.365 75.1582 27.9642 75.007" stroke="#7EA399" stroke-width="4.8" stroke-linecap="round"/>
<path d="M24.9229 72.4004C25.1653 72.3908 25.3308 72.4148 25.5756 72.5084C25.8276 72.6212 26.1757 74.4908 26.3341 74.6828C26.7877 75.2084 26.9197 75.386 27.5965 75.602C27.7717 75.6572 31.3908 75.9956 36.2172 77.0708C37.2972 77.3228 40.5541 78.2252 41.8645 78.5924C43.2757 78.9956 45.4812 79.3052 48.7572 80.0588C51.342 80.678 52.7364 81.29 53.97 81.5444C55.3236 81.8252 59.5476 83.2604 60.0012 83.2604C60.2916 83.3108 60.7404 83.6756 60.87 83.6948C61.1556 83.7428 61.9164 83.6996 62.3556 83.7812C63.618 84.0116 64.8181 84.1844 65.3221 84.3476C65.4733 84.3956 66.8389 85.0172 67.2781 85.1084C67.5421 85.1612 68.4348 85.2764 68.5812 85.3244C68.8428 85.4108 70.5325 86.0084 71.1877 86.1932C71.8861 86.3876 73.1029 86.6876 73.6837 86.954C74.0773 87.134 74.1805 87.2252 74.3365 87.4964C74.4421 87.6956 74.8668 88.8524 74.8788 89.126C74.9268 90.0764 75.0972 91.8404 75.0972 94.0124C74.7828 94.0604 74.6557 94.01 74.1181 93.578C74.0077 93.4868 71.8189 91.8476 71.6221 91.7324C71.1685 91.4732 60.4116 87.1652 59.3484 86.846C58.2636 86.5724 55.6956 85.874 54.6804 85.7588C54.402 85.7276 52.0884 85.5548 51.3876 85.3844C50.1228 85.0388 43.0332 84.3332 42.7356 84.2804C42.1932 84.1796 40.5516 83.6324 40.2348 83.5868C39.834 83.5268 38.9052 83.5148 38.8236 83.4788C38.6148 83.3804 38.1612 82.9556 37.8804 82.8764C35.7445 82.2956 33.1309 80.9972 31.3909 80.606C30.7381 80.462 29.5309 80.1068 28.6741 79.994C27.0301 79.7852 25.9861 79.7732 25.7965 79.7012" stroke="#7EA399" stroke-width="4.8" stroke-linecap="round"/>
<path d="M26.4453 78.7002C28.5189 78.7194 30.8301 78.8802 33.7365 79.1874C36.2805 79.4826 41.5989 80.3634 42.8613 80.5026C43.4493 80.6034 46.9389 81.8826 48.0765 82.1226C51.0957 82.8258 56.0541 83.8434 56.8461 83.9442C59.8749 84.3138 62.6445 84.8226 64.4421 85.5378C65.4789 85.9362 66.6837 86.0562 66.8445 86.085C67.0077 86.1138 67.8621 86.4426 68.2293 86.5866C68.7813 86.8002 69.6021 86.877 69.8853 86.9538C70.0461 86.997 71.3133 87.6906 71.8389 87.8226C72.4341 88.0242 74.8605 89.5314 74.8797 89.5602H72.4917" stroke="#7EA399" stroke-width="4.8" stroke-linecap="round"/>
<path d="M27.9639 84.1295C29.0799 84.1175 30.1527 84.2975 31.0671 84.6743C31.5231 84.8687 33.3879 85.3175 33.8415 85.6655C34.5399 86.2055 37.2471 86.9927 37.4127 87.0623C37.6359 87.1535 38.3967 87.5399 38.7159 87.6047C40.1463 87.8087 45.7335 89.1503 46.9695 89.4527C47.5815 89.5727 48.4239 89.5535 49.2495 89.7767C49.7775 89.9231 50.6679 90.3431 51.1959 90.5063C51.8511 90.7103 52.6983 91.2911 52.9431 91.2983C53.4903 91.3151 54.0735 91.7903 54.1359 91.8407C54.4431 92.0783 55.1679 92.4383 55.6575 92.7095C55.8327 92.7743 59.0247 93.5783 60.7623 94.1207C61.7727 94.3967 62.7543 94.5671 62.9343 94.6655C63.0687 94.7375 63.3447 95.0471 63.6927 95.0999C63.9903 95.1479 64.3383 95.2967 64.6719 95.5343C65.2263 95.9303 65.7591 96.0287 65.9751 96.0767C66.1983 96.1247 66.7983 96.5999 66.8439 96.6191C67.1199 96.7295 68.1399 97.0655 68.3631 97.1615C68.7831 97.3415 69.4191 97.3391 69.5583 97.3799C69.6855 97.4159 70.6167 98.0663 70.7535 98.1407C70.8183 98.1767 73.0551 99.0911 73.2495 99.1175C73.5759 99.1175 74.2335 99.1535 74.5527 99.3335C74.7111 99.4247 75.0495 99.7007 75.0975 99.6599C75.1383 99.5471 75.0135 99.2375 74.7711 98.8991C74.6535 98.7359 74.3943 98.6327 74.3367 98.5751C74.2431 98.4839 73.9983 98.0735 73.9023 98.0303C73.7631 97.9703 72.4527 97.0799 72.1647 96.8375C71.9775 96.6791 71.7783 96.3047 71.2959 96.0767C70.9167 95.8583 69.8295 95.1791 69.6663 95.0999C69.5319 95.0327 67.8015 94.3343 66.5175 93.5783C65.1519 92.8271 62.4567 91.2695 61.6599 90.8759C58.8903 89.5175 57.3135 88.8767 57.1767 88.7999C57.0015 88.6991 55.1199 87.5567 55.0047 87.4967C54.7983 87.3911 54.7215 87.3767 54.4623 87.3887C55.1079 87.3695 61.6455 88.0343 64.9959 88.7999C65.9463 89.0207 67.1871 89.6159 67.3863 89.6687C67.5759 89.7191 68.4807 89.7959 68.7975 89.8871C68.8263 90.0791 67.3215 89.7887 66.2991 89.3423C66.0447 89.2295 64.4847 88.4279 63.5031 88.0679C62.3919 87.6623 55.8663 85.8335 54.2463 85.5431C53.2503 85.3607 51.4095 84.6359 50.9871 84.5639" stroke="#7EA399" stroke-width="4.8" stroke-linecap="round"/>
<path d="M29.486 62.8435C27.3596 61.5163 25.5884 59.6995 25.0316 59.3683C24.95 59.3203 24.4652 58.5307 24.3812 58.3915C24.1652 58.0339 23.8268 57.0763 23.4044 56.6539C23.1308 56.2195 22.4012 55.1875 22.3172 54.5899C22.2908 54.3979 21.9764 53.1139 21.8468 52.8499C21.6164 52.3819 21.4052 52.2475 21.3404 52.2019C21.182 52.0939 20.5292 51.5851 20.4716 51.5491C20.282 51.4291 18.7772 50.2051 18.734 50.1379C18.7148 50.1091 18.6788 49.9987 18.626 49.8115" stroke="#7EA399" stroke-width="4.8" stroke-linecap="round"/>
<path d="M18.626 49.377C19.0484 49.4274 19.2404 49.521 19.5524 49.8498C19.9988 50.3154 21.3476 50.6082 21.5564 50.7882C22.3724 51.441 24.6572 53.445 25.1684 53.7714C28.6076 55.9266 32.2868 57.3426 33.3956 57.957C33.6764 58.0938 36.8636 59.1978 38.3876 59.5842C40.778 60.1722 47.8532 62.4642 52.5692 63.7146C53.1668 63.909 54.9284 64.8618 55.7948 65.337C56.6564 65.8146 57.8996 66.1338 57.938 66.1026" stroke="#7EA399" stroke-width="4.8" stroke-linecap="round"/>
<path d="M18.8418 50.899C19.7106 50.8846 20.7906 51.1702 21.8226 51.5662C22.8234 51.9502 23.8578 52.111 24.4314 52.2022C26.8674 52.591 28.8282 52.9678 31.8378 53.2246C32.4786 53.2774 33.9234 53.371 34.4418 53.539C34.737 53.6374 36.357 54.3142 36.6738 54.475C37.0146 54.6454 37.7778 55.1998 38.3898 55.459C39.7314 56.0206 41.805 56.9998 43.7106 57.523C44.0034 57.6022 47.2578 58.4518 49.3578 59.0422C50.0994 59.2534 51.0858 59.7742 51.5298 59.911C52.4874 60.2062 54.957 60.823 55.5498 60.8902" stroke="#7EA399" stroke-width="4.8" stroke-linecap="round"/>
<path d="M22.3164 51.5489C22.5636 51.5465 24.5556 51.6065 25.1412 51.6569C26.1492 51.7553 35.61 54.5513 36.1092 54.8081C36.342 54.9257 37.0212 55.3961 37.3044 55.4585C37.362 55.4729 37.4364 55.4729 37.5204 55.4585" stroke="#7EA399" stroke-width="4.8" stroke-linecap="round"/>
<path d="M20.1445 50.8985C20.4805 50.8889 24.3325 51.6161 26.8693 52.0049C27.6277 52.1153 29.0437 52.2017 29.4205 52.3313C31.5061 53.0633 31.8133 53.1137 33.6037 53.8529C34.0909 54.0497 35.2669 54.2537 35.8309 54.4673C36.6997 54.7985 37.4341 55.0049 38.1469 55.0481C38.7709 55.0865 40.7005 55.7345 40.8877 55.7849C41.9029 56.0561 42.6901 56.4473 43.2901 56.5889C44.2237 56.8049 45.9013 57.2441 46.2085 57.3041C48.2677 57.6209 49.5493 57.6401 50.8789 57.8489C51.1861 57.8969 51.9901 58.2425 52.1821 58.2833C52.3237 58.3121 53.7733 58.5449 54.4621 58.4993C54.7909 58.4801 56.0845 59.1161 56.7421 59.2601C57.2653 59.3681 58.2109 59.3681 58.5901 59.5865C58.9837 59.8145 61.5325 60.1193 62.1733 60.4553C62.5669 60.6641 62.9725 60.6449 63.1501 60.6713C63.8269 60.7793 65.1181 61.4081 65.2141 61.4321C65.5789 61.5209 66.3781 61.5017 66.5173 61.5401C66.6733 61.5833 68.7733 62.4065 68.7973 62.4089C69.0133 62.4329 69.2437 62.3441 69.4501 62.4089C69.7285 62.4977 70.3237 62.8937 70.6429 62.8433C70.8373 62.8145 71.1397 62.8745 71.1877 62.9513C71.2501 63.0569 71.8741 63.0473 72.1645 63.0617C72.4669 63.0737 72.7069 63.2777 72.8149 63.3857C72.9709 63.4961 74.7709 63.5321 75.6397 63.9305C76.3357 64.2473 76.9333 64.3865 77.0509 64.3649" stroke="#7EA399" stroke-width="4.8" stroke-linecap="round"/>
<path d="M32.9611 78.7005C32.4643 78.6645 32.0947 78.7509 31.7659 79.0269C31.1227 79.5717 30.2539 80.7957 29.9203 81.1989C29.6875 81.4821 29.5243 82.5165 29.1595 82.9365C28.8859 83.2413 28.7803 83.4981 28.7251 83.9133C28.3099 83.9013 27.8995 83.9349 27.8563 83.9133C27.5971 83.7789 27.1363 83.2797 27.0955 83.0445C27.0691 82.8741 27.1219 72.0645 27.1027 71.7669C27.0475 71.1237 26.3539 70.0029 26.0107 69.5781" stroke="#7EA399" stroke-width="4.8" stroke-linecap="round"/>
<path d="M43.8212 70.8813L41.8652 70.2285H60.002H37.1948C40.8932 70.2309 47.4356 70.2453 48.11 70.2837C48.8276 70.3269 57.9236 71.3925 57.938 71.4237C57.6908 71.6901 57.5012 71.8317 57.2084 71.9037C56.018 72.1893 52.7228 72.6333 50.5268 72.6189C47.0804 72.7221 41.2724 72.8253 36.5036 73.2405C36.3716 73.2501 36.2036 73.2597 36.002 73.2693C39.1076 73.2693 46.6772 73.2717 51.1388 73.2741C56.7908 73.2717 59.3324 73.2381 60.4724 73.6533C60.6044 73.7037 61.6532 74.0901 61.8476 74.2485C60.8132 74.6085 58.5764 74.7621 56.0588 74.7837C51.698 74.7861 40.6508 74.7837 40.346 74.7909C39.2564 74.8173 38.7812 74.9373 38.282 75.1173C38.378 75.3741 39.2396 75.5421 40.1684 75.6549C42.2396 75.9021 46.3628 76.4949 46.8332 76.5813C47.8916 76.7853 51.794 78.1773 52.8572 78.4749C53.606 78.6813 55.6676 79.1181 55.9292 79.1877C56.2508 79.2765 57.6932 79.8693 58.4804 80.1117C58.8596 80.2269 60.7868 80.6661 60.7628 80.7645C60.386 80.8773 50.1692 80.9013 45.6068 80.9013C43.8884 80.8797 39.6404 80.8221 37.9916 80.5269C36.962 80.3421 36.4892 80.2749 36.11 80.2197C37.562 80.1645 40.8596 80.6469 42.9908 80.9997C50.3084 82.3317 63.9116 84.4173 70.5116 85.4637C73.9796 85.8597 74.1068 85.8909 74.2292 85.9773V86.4117C73.85 86.5269 51.6956 86.5269 42.6332 86.5221C41.1116 86.5221 38.6636 86.5197 37.7396 86.5197" stroke="#72A89A" stroke-width="4.8" stroke-linecap="round"/>
<path d="M28.1826 82.6104C29.1282 83.2008 32.2938 83.928 32.8506 84.1296C33.3402 84.3048 34.6554 84.3528 36.3786 84.6384C37.5858 84.84 40.6266 85.7832 42.2106 86.2392C42.6906 86.3856 43.3578 86.4504 43.6026 86.52C43.6122 86.5224 44.5386 86.9208 44.9058 87.0312C45.2754 87.144 45.9642 87.2087 46.209 87.2807C48.2178 88.0607 48.6594 88.296 50.4474 88.9632C50.7954 89.0856 52.8906 89.5584 53.3706 89.7648C53.9658 90.0216 55.6146 90.528 55.9842 90.6456C57.2658 91.0656 58.6242 91.9032 58.6986 91.9488C58.8978 92.0736 60.7506 93.1248 60.9786 93.252C61.6986 93.6552 65.3466 94.452 66.8202 94.5912C67.5114 94.6536 71.5626 95.1984 71.9466 95.316C72.729 95.5632 73.4514 95.8224 74.0106 95.8584C74.397 95.8824 74.7018 96.2328 74.7714 96.2928L73.7946 95.8584" stroke="#72A89A" stroke-width="4.8" stroke-linecap="round"/>
<path d="M29.0508 83.9133C30.3396 83.8725 31.1916 83.9517 31.7652 84.2397C31.9236 84.3213 32.5572 84.6285 32.634 84.6741C32.8188 84.7773 33.0708 84.7557 33.1764 84.7821C33.3612 84.8253 33.9276 85.2117 33.9372 85.2165C34.0644 85.2645 38.0004 86.3853 38.8116 86.6109C41.7684 87.4365 43.7172 88.1757 45.2892 88.4397C45.9852 88.5549 47.7972 89.1069 48.4884 89.2341C49.0908 89.3421 51.7428 89.6133 52.074 89.6685C53.0892 89.8437 54.5988 90.5109 54.6804 90.5373C56.1852 91.0341 56.7108 91.1037 57.3948 91.6245C57.5652 91.7517 58.1196 91.9077 58.2636 91.9485C58.5876 92.0421 59.1516 92.4213 59.3484 92.4933C59.526 92.5557 60.7644 92.6709 60.978 92.7093C61.4148 92.7861 62.1588 93.1773 62.3892 93.2517C62.5116 93.2925 63.0852 93.2181 63.258 93.2517C63.69 93.3357 64.2852 93.7173 65.106 94.0125C65.8956 94.2981 66.9036 94.8189 66.9516 94.8813C67.302 95.3421 68.3484 95.8629 68.4708 95.9685C69.354 96.7125 69.6372 96.8853 69.666 96.9453" stroke="#72A89A" stroke-width="4.8" stroke-linecap="round"/>
<path d="M54.6807 92.1671C55.6503 92.1455 56.2335 92.1839 57.0687 92.4935C57.1671 92.5295 60.0375 93.5471 60.1095 93.5783C62.1495 94.4879 62.7231 94.8839 64.4535 95.3159C64.5591 95.3471 66.0519 95.8919 66.5175 95.8583C66.6999 95.8463 66.7983 95.8823 67.1463 96.0791C67.4847 96.2711 67.8951 96.2711 68.0367 96.2927C68.2887 96.3311 69.3471 96.7871 69.7743 97.0535C69.9135 97.1375 73.3071 98.0879 73.3599 98.1407C73.4271 98.2055 73.9167 98.2631 74.2287 98.5751C74.3127 98.6495 74.9895 98.8463 75.8559 99.4439C76.4919 99.8759 77.1279 100.171 77.1615 100.202C77.1903 100.202 77.8863 100.447 78.1383 100.637" stroke="#72A89A" stroke-width="4.8" stroke-linecap="round"/>
<path d="M78.5727 100.855L78.2463 100.747C78.1863 100.43 77.9631 100.034 77.9199 99.8777C77.8791 99.7313 77.9727 99.0905 77.9199 99.0089C77.8119 98.8337 77.5671 98.7617 77.4855 98.5745C77.3991 98.3753 77.4807 97.7705 77.3775 97.4873L77.2695 102.151" stroke="#72A89A" stroke-width="4.8" stroke-linecap="round"/>
<path d="M77.4854 100.855L77.5957 100.313L77.9198 100.202" stroke="#72A89A" stroke-width="4.8" stroke-linecap="round"/>
<path d="M77.2697 100.636L77.7041 100.528C77.6993 96.7457 77.7473 87.9737 77.7041 87.8225C77.6201 87.5417 77.2313 86.9777 77.2697 86.6273C77.4305 85.1441 77.0345 81.0737 77.0345 81.0737C77.0417 77.2793 77.0705 66.4817 77.0513 66.4265C77.0009 66.2753 76.8641 66.1529 76.8353 65.9921C76.7825 65.7089 76.8233 64.8737 76.7273 64.2545C76.2473 63.9737 75.6401 63.9305 75.4217 63.9305C74.9369 63.9233 71.9417 63.2345 71.7305 63.1697C71.5049 63.1001 71.3297 62.8457 71.2961 62.8433C71.0441 62.8289 70.2041 62.8073 69.6665 62.6273C69.4409 62.5529 68.7041 62.2193 68.5817 62.1929C68.4569 62.1641 66.8441 62.0825 66.0833 61.9745C65.9849 61.9577 65.1257 61.5041 64.8881 61.4321C64.6961 61.3745 62.1377 61.0097 62.0657 60.9977C61.7777 60.9497 59.0393 60.4649 58.9145 60.4553C58.7705 60.4409 57.1193 60.4313 56.0921 60.2369C55.8209 60.1865 54.3185 60.0209 54.0281 59.9105C53.1209 59.4569 48.7649 58.7345 47.5193 58.5353C47.2193 58.5017 46.7873 58.5113 46.6433 58.4993C46.5161 58.4897 44.9465 57.8393 44.6897 57.7385C44.5505 57.6857 42.8057 57.3065 42.1913 57.0881C41.0129 56.6705 39.7721 56.2721 39.5849 56.2193C39.1817 56.1065 37.9073 56.1137 37.4129 55.8929C37.1681 55.7825 35.5049 55.4465 35.1329 55.4585C34.8065 55.4585 34.1921 55.4729 34.1537 55.4585C34.0025 55.4009 33.8777 55.2761 33.7193 55.2425C33.5777 55.2113 33.4217 55.2905 33.2849 55.2425C33.1145 55.1801 32.7065 54.8105 32.5265 54.8081C31.6001 54.7865 29.6633 53.9753 29.3753 53.9393C28.9049 53.8841 22.6889 51.4145 22.4249 51.3329C21.9545 51.1841 21.0809 50.6513 20.7977 50.5721C20.2145 50.4545 20.0417 50.1977 19.6025 49.9193C19.7033 49.8137 19.9409 49.8113 20.5841 49.9409C22.4129 50.3105 23.3105 50.5193 24.1937 50.8409C26.8865 51.8537 27.7769 52.0601 27.9641 52.2017C28.1513 52.3385 28.7849 52.8185 29.0513 52.8521C29.3225 52.8521 29.9489 52.8881 30.2441 53.0705C30.4673 53.2073 30.6449 53.4353 30.8969 53.5049C31.1753 53.5817 31.8209 53.5049 31.9817 53.6129C32.0801 53.6753 33.7985 54.4025 33.9377 54.4817C34.9025 55.0241 35.4953 55.0241 36.3257 55.2425C36.4313 55.2689 37.6913 55.6769 38.0633 55.6769C39.1025 55.8833 44.9609 56.7665 45.0137 56.7617C45.7361 56.7233 47.1329 57.2897 47.1857 57.3041C47.5001 57.3929 48.7985 57.6257 48.8153 57.6305C49.1081 57.7001 54.3305 59.4497 55.2857 59.7113C65.2841 62.4329 68.7089 63.3113 69.4145 63.2945C70.4009 63.2705 70.5617 63.4217 70.6433 63.4961H70.5353" stroke="#72A89A" stroke-width="4.8" stroke-linecap="round"/>
<path d="M21.0135 53.0713C20.9727 53.7025 21.0975 55.0561 21.3399 56.0017C21.7743 57.4153 22.9671 61.2913 23.0775 61.7593C23.4735 63.4969 23.3727 69.9337 23.3727 69.9769C23.3607 70.4305 24.0519 71.4721 24.1623 71.9665C24.2463 72.3409 24.7239 73.1617 25.3551 74.0449C25.5231 74.2897 27.0711 77.7793 27.3135 78.5929C27.4143 78.9289 28.3239 79.9777 28.3983 80.1121C28.5471 80.3761 28.7967 81.5689 28.8327 81.6337C28.9887 81.9025 29.5263 82.8025 30.1359 83.5873C30.1383 80.3425 30.1407 76.0369 29.9679 73.7785C29.9271 73.1161 29.7879 71.3329 29.4087 70.3897C28.8135 68.9617 28.6335 68.4433 28.5063 67.7305C28.3863 67.0441 27.6471 65.0497 27.6375 65.0161C27.5991 64.8841 27.4647 64.0561 27.4215 63.9313C27.3663 63.7777 26.4831 61.8673 26.4447 61.7593C26.4255 61.7041 26.1615 60.7585 25.9911 60.1681C25.8111 59.5369 25.5303 57.6457 25.5759 57.5233C25.6167 57.4225 26.0823 57.3265 26.5527 56.9809C26.5863 56.9545 26.6583 56.8825 26.7687 56.7625C26.9847 56.8129 27.4503 57.0649 27.6375 57.3049C27.6999 57.3841 28.4463 58.8025 29.0991 59.7121C29.9271 60.8713 31.0047 64.1473 31.4655 65.4793C32.0919 67.2289 32.5311 69.3121 32.9559 70.6945C33.2847 71.8465 33.4047 74.5393 33.3807 77.3833C33.3519 79.3441 33.7071 81.7345 33.7191 81.7417C34.1679 81.1513 34.5135 77.4313 34.6983 76.7449C34.9239 75.8857 34.9215 70.4425 34.8687 69.6985C34.8039 68.8681 34.1367 66.9697 32.9991 64.1641C32.6607 63.3145 32.5455 62.7841 32.4903 62.0473C32.4567 61.5217 31.8471 60.0985 31.8591 59.4817C31.8711 59.1505 31.8759 58.6801 31.8735 58.3921C31.8519 58.1857 32.8191 58.9993 33.6303 59.9809C34.0455 60.4873 35.1495 61.4377 35.4519 61.7641C35.9415 62.2969 36.6855 63.1585 36.9783 63.8209C37.5207 65.1793 38.5671 67.6945 38.9295 69.3889C39.2127 70.7209 39.8751 73.0801 40.1271 75.3337C40.1751 75.7633 40.6023 78.4513 40.6695 78.5929C41.0487 78.3025 41.4087 75.6601 41.4351 73.4425C41.4255 71.7841 41.3727 67.7881 41.2191 67.0561C41.1087 66.5545 39.3975 63.0793 38.7159 61.7593C37.7823 59.8537 37.7319 58.6513 37.7391 57.9577C37.8087 57.8545 38.3895 57.8353 38.8239 57.9577C38.8311 57.9601 41.9391 60.1345 43.8951 61.5889C45.2151 62.5969 47.4999 64.3513 48.9111 65.7625C49.5975 66.4705 50.5767 67.6633 51.2271 68.6185C51.6879 69.3001 52.1271 70.2409 52.3527 70.5457C52.5423 70.7977 52.8447 71.1097 53.1543 71.3665C53.5551 71.6881 55.1151 71.7961 55.7655 71.6401C55.9575 71.5897 55.9935 71.3497 55.9863 70.7785C55.9719 70.3609 55.9935 69.7561 55.9839 69.6865C55.9119 69.2689 55.6983 68.6209 55.5447 68.4289C55.1775 67.9897 53.7879 66.7897 53.1591 66.4273C52.7799 66.2137 48.3207 64.6633 46.4151 63.9841C45.0543 63.5041 44.6415 63.4969 44.4711 63.3865C44.5695 63.2665 46.2135 63.4513 46.4271 63.4969C46.6887 63.5545 51.6711 65.0545 54.6039 65.3665C57.8847 65.8321 63.0807 66.3937 66.0567 66.7993C66.3759 66.8329 67.2375 66.9865 67.8207 66.9721L67.9287 66.6457C67.5903 66.3985 66.4455 65.8729 65.9751 65.7769C64.2999 65.5201 61.6935 64.6393 61.0143 64.4833C59.0535 64.0417 54.5103 62.4193 54.0015 62.2753C50.7855 61.3681 46.4079 61.0825 45.7743 60.9985C45.7119 60.2713 50.7711 61.8841 51.4215 62.0833C51.8463 62.2153 53.9487 62.9065 54.5703 63.0625C55.3359 63.2497 57.5967 63.6265 58.3671 63.8185C59.0223 63.9841 60.1695 64.4017 61.0863 64.5817C61.6527 64.6921 69.8175 66.0001 70.8255 66.0985C72.0735 66.2185 73.9911 66.3529 74.0103 66.4273C74.0703 66.7129 74.0103 67.7305 74.0103 67.7305C73.8711 68.0401 73.4127 68.3977 73.0335 68.4913C71.9487 68.7409 69.3951 68.7049 68.6991 68.6881C68.3031 68.6737 67.6479 68.8969 67.3863 68.9257C67.1703 68.9521 66.9399 68.8537 66.7335 68.9257C66.4887 69.0121 65.9511 69.4273 65.5911 69.3985C65.0655 69.3577 62.7927 69.3529 62.6079 69.4681C62.5359 69.5161 62.3559 69.6601 62.0655 69.9025C62.1231 70.5121 62.2503 70.8865 62.5743 71.0977C63.4095 71.6353 67.4703 72.7153 68.4567 72.8497C69.6159 73.0033 74.5359 73.0465 74.5527 73.0537C74.6199 73.0777 75.7503 74.4169 75.8775 74.6689C76.0383 75.0049 76.1343 75.3265 76.1823 75.7681C76.2399 76.4329 76.1223 76.8337 75.7479 76.9633C75.0183 77.1961 73.0311 77.2033 72.5703 77.2057C71.5023 77.2081 68.7999 77.1913 68.7543 77.1937C68.0823 77.1985 66.2943 76.6945 66.0831 76.6369C65.7711 76.5529 64.7343 76.1065 64.6719 76.0945C64.6023 76.0801 61.9215 76.1137 61.5207 76.0945C61.2471 76.0801 60.8367 76.2481 60.6519 76.3105C60.5463 76.3489 60.5439 76.4209 60.5439 77.0713C60.7671 77.1937 61.1319 77.6113 61.3047 77.7241C61.3071 77.7265 63.0399 78.4585 63.5631 78.5881C64.2855 78.7657 65.6151 79.0873 66.6255 79.1353C67.0503 79.1521 69.5607 79.1449 70.6119 79.1329C71.2911 79.1233 72.1647 79.3513 72.4911 79.4617C73.0815 79.6489 73.9623 80.2105 74.1183 80.2201C74.2167 80.2273 74.8479 80.9473 74.8791 81.0889C74.9055 81.2065 74.8743 82.3081 74.8791 82.5025C74.8815 82.9249 74.8335 83.1337 74.6631 83.2609C74.3199 83.4961 72.3351 83.4913 71.8983 83.4913C67.7535 83.4889 60.4239 83.5393 56.9487 83.2609C54.6183 83.0545 53.3271 83.0401 53.2671 83.1529C53.4039 83.4577 53.3463 84.7153 53.5935 85.1089C53.8239 85.4497 54.9303 85.8025 55.7655 85.9777C56.4591 86.1193 58.5783 86.5993 58.6263 86.6089C59.5095 86.7697 63.4383 86.7385 64.1151 86.6953C64.4511 86.6713 64.9623 87.1009 65.2143 87.1705C65.4927 87.2521 66.1335 87.1705 66.2991 87.2809C66.4911 87.3985 68.5839 88.1065 68.6895 88.1497C69.1767 88.3417 71.1855 89.5897 71.2959 89.6689C71.4231 89.7577 72.0303 90.3625 72.3807 90.5377C72.5871 90.6409 72.8319 90.6481 73.0335 90.7561C73.1703 90.8257 73.7247 91.2913 73.9023 91.4065C74.0487 91.5025 74.5287 92.1985 74.4447 92.4937C74.3991 92.6401 74.0463 92.9929 73.9023 93.0361C73.8879 93.0385 65.1159 93.0385 63.3015 93.0457C62.2431 93.0337 59.8023 92.2729 59.4591 92.1673" stroke="#72A89A" stroke-width="4.8" stroke-linecap="round"/>
<path d="M58.1562 86.5196C58.7299 86.5028 62.2074 87.4892 62.8506 87.7412C64.9986 88.6148 67.3843 89.6204 68.9059 90.3212C69.3067 90.4724 69.9498 90.5924 70.101 90.6452C70.437 90.7628 70.857 91.0411 71.2962 91.4059C71.4234 91.5139 71.8074 91.4828 71.9466 91.514C72.0402 91.5356 73.3482 92.138 73.5762 92.1668C73.653 92.174 75.0186 92.1692 75.0978 92.1668C75.6138 92.138 76.2738 91.91 76.509 91.6244C76.7346 91.3292 76.8594 90.7243 76.8522 90.1747C76.8498 90.1387 76.8642 86.8508 76.8666 86.5268C76.8738 85.406 75.873 80.4931 75.0978 78.7003C74.4258 77.1331 74.0107 73.1468 73.6843 72.074C73.5595 71.654 73.6003 69.8948 73.4683 69.2516L73.1419 69.1436" stroke="#72A89A" stroke-width="4.8" stroke-linecap="round"/>
<path d="M81.1573 64.3291C81.1597 68.1571 81.1597 74.2219 81.1405 74.9035C81.1381 75.1507 81.3637 76.2475 81.3685 77.0995C81.3637 78.9931 81.3733 82.1371 81.3541 82.2187C81.3229 82.3603 81.1405 82.6819 81.1573 83.2003C81.1621 83.3371 81.1597 92.3323 81.1573 93.9139C81.1525 94.9843 81.1717 95.4019 80.9629 96.2731C80.9365 96.3763 80.9629 100.192 80.9629 100.893" stroke="#B0E4D6" stroke-width="4.8" stroke-linecap="round"/>
<path d="M82.5352 63.1505C84.2536 63.1481 87.8416 63.1481 89.7088 63.1505C91.7296 63.1841 94.2712 62.8337 95.6488 62.7425C96.5128 62.6705 101.997 61.6313 102.29 61.5785C102.587 61.5233 103.394 61.3553 103.96 61.3817" stroke="#B0E4D6" stroke-width="4.8" stroke-linecap="round"/>
<path d="M80.1758 59.4161V59.5145C80.5286 59.5337 81.815 59.1665 82.4534 58.8449C84.875 57.5777 89.0942 56.3585 91.6574 55.1705C92.0246 55.0001 94.0166 54.3257 94.1318 54.3041C94.3262 54.2681 94.9574 54.2993 95.1158 54.2057C95.195 54.1601 95.4062 53.9153 95.507 53.9129C95.8382 53.8937 97.6454 53.0129 99.0878 52.6025C99.5606 52.4657 101.447 51.8729 101.502 51.8489C101.994 51.6017 102.673 51.1625 102.781 51.1601C102.945 51.1529 103.525 51.0809 103.96 50.7665C104.437 50.4233 107.401 49.3913 107.596 49.3913C107.737 49.3457 108.057 49.1657 108.088 49.1945" stroke="#EF586A" stroke-width="4.8" stroke-linecap="round"/>
<path d="M20.2217 45.8516L20.3201 46.0484C20.5505 46.0244 21.3137 46.3916 22.2857 46.442C22.9241 46.5404 24.5249 46.6052 24.7433 46.6388C25.0073 46.6796 26.5937 47.126 27.2993 47.2292C27.5225 47.2604 28.5401 47.2172 28.6745 47.2292C28.7681 47.2364 32.6489 48.1196 33.8849 48.2108C34.0217 48.2228 35.1929 48.182 35.3585 48.2108C35.5505 48.2444 35.9729 48.5924 36.0449 48.6044C36.2393 48.6404 36.8153 48.6308 37.3577 48.842C37.5161 48.902 41.0201 49.598 42.0425 49.7852C42.2393 49.8212 42.8705 49.7636 42.9257 49.7852C43.4801 50.0612 46.8401 50.8532 47.2505 51.062C47.4497 51.1628 49.3961 51.7388 49.5113 51.7508C50.2601 51.8228 51.2609 52.1924 52.3625 52.4372C52.9697 52.6412 55.1585 53.3132 55.2113 53.3228C55.4057 53.354 56.0105 53.33 56.3921 53.4212C57.2321 53.618 60.3305 54.6836 61.9193 55.046C62.1041 55.0868 62.4161 55.094 63.0737 55.0916" stroke="#EF586A" stroke-width="4.8" stroke-linecap="round"/>
<path d="M79.818 49.2022C79.8348 48.6718 79.2684 47.3038 79.2636 46.7758C79.266 45.4438 79.2492 44.4838 79.4004 44.143C79.5276 43.7182 80.946 41.095 81.0636 40.2598C81.0828 40.1302 81.1764 38.479 81.2028 38.3206C81.21 38.2846 81.7428 36.9478 81.8268 36.7966C82.0332 36.4174 82.0644 35.9326 82.1052 35.8942C82.2276 35.7814 83.0028 34.8862 83.0052 34.855C83.0508 34.4662 83.5044 33.799 83.5596 33.7462C83.5164 33.6694 78.4572 33.6742 78.3612 33.6766C78.1116 33.6838 76.9524 33.3502 76.8372 33.4006C76.7388 33.3046 76.3428 33.0142 76.074 32.7766C75.4692 32.2318 74.7588 30.9742 74.6196 30.6958C74.454 30.2734 74.178 30.1246 74.0652 29.935C73.7532 29.9542 73.2108 29.683 72.5412 29.6566C71.8812 29.587 70.194 29.467 70.1148 29.4502C69.9564 29.4142 68.1132 28.927 67.6884 28.963C67.506 28.9822 66.0228 28.8286 65.382 28.8286C64.278 28.8262 62.658 28.8262 62.1444 28.8262L61.9356 31.2502C61.8708 31.567 58.5612 31.027 57.1956 30.8014C56.3676 30.6214 55.3092 30.043 55.0764 29.935C54.3132 29.587 53.7924 29.2462 52.9956 29.1022C52.2036 28.9702 49.5996 28.963 49.3932 28.963L48.6996 29.1718L48.3516 29.4502C48.3612 29.5078 49.7052 30.835 50.3628 31.459C50.4924 31.5934 51.4068 33.0238 51.5412 33.331C51.5868 33.4366 51.9876 34.8526 51.9564 35.4094C51.9468 35.5678 52.1148 36.1726 52.0956 36.379L52.7196 37.2814" stroke="white" stroke-width="4.8" stroke-linecap="round"/>
<path d="M48.7695 31.5979C50.0175 31.4587 51.7983 30.9043 53.7591 30.9043C55.3359 30.9115 57.6135 31.8091 57.7791 31.8739C57.8799 31.9147 58.3959 32.1691 58.5399 32.1523C58.6095 32.2291 60.3567 33.1579 60.4119 33.1915C61.5447 34.0411 62.1159 34.0963 62.2143 34.1611L62.5599 34.5091L62.7687 32.8459C63.1167 32.4547 64.1343 31.9075 64.5015 31.6675C64.5951 31.6051 65.2191 31.4659 65.2623 31.4587C65.4711 31.4587 66.2679 31.3051 67.6887 31.3195C69.6255 31.3195 72.8055 31.3195 72.9567 31.3891C73.1991 31.5067 74.3007 32.9683 74.4111 33.4675C74.4807 33.6763 74.7399 34.5355 75.0351 34.7155C75.1767 34.7899 76.6407 34.7851 77.4831 34.7875C79.4583 34.7875 79.9479 34.9435 80.0247 34.9243H79.6791" stroke="#E0E4E2" stroke-width="2.4" stroke-linecap="round"/>
<path d="M78.0156 35.2C78.6396 35.2 80.8572 35.2048 80.9964 35.2C81.9804 35.176 83.2308 35.6824 83.6292 35.6176L83.838 35.824C83.8716 36.2176 83.4252 37.0312 83.4204 37.4872C83.418 37.9384 82.2324 39.6592 81.966 40.6072C81.8988 40.8496 81.87 41.7256 81.5508 42.6856C81.366 43.2352 80.9196 44.5408 80.9268 45.0424C80.9316 45.7168 80.3892 48.652 80.3724 50.5168C80.13 50.3584 80.106 50.1688 80.094 50.1016C80.0724 49.9576 79.9356 49.6192 79.9548 49.6168" stroke="#E0E4E2" stroke-width="2.4" stroke-linecap="round"/>
<path d="M50.7091 33.6768C52.7299 33.6552 54.2539 33.984 56.3923 34.2312C56.8843 34.3008 57.5851 34.5048 57.9859 34.716C58.0099 34.7304 58.4731 35.028 58.6099 35.2008C59.0155 35.6784 59.2603 35.724 59.3731 35.7552C59.5027 35.7912 59.9659 36.1536 60.0667 36.1728C60.2947 36.2112 61.3147 36.2952 61.3819 36.3096C62.6347 36.5736 63.4483 36.4392 63.4627 36.3792C63.3739 36.0528 63.1195 35.868 62.4595 35.724C61.4923 35.5152 60.3907 35.4744 59.9179 35.4384C58.6843 35.3472 55.3531 35.2008 55.3531 35.2008C55.0987 35.1936 53.7979 34.3512 53.0659 34.0224C52.5619 33.804 50.5867 33.8328 50.2939 33.8856C50.4883 34.548 51.9739 36.5712 52.0963 36.864C52.4803 37.7856 52.8667 39.3192 53.1355 39.636C53.1523 39.6576 53.1763 39.6792 53.2051 39.7056C53.1835 39.792 53.4619 40.5744 53.4811 40.6776C53.4931 40.7376 53.4811 41.9928 53.4811 42.0624C53.5891 42.1608 54.6787 42.2496 54.8683 42.2712C55.5763 42.2712 58.7899 43.1184 59.0275 43.1712C61.1659 43.5336 64.2979 44.0232 64.5019 44.0736C64.6171 44.1 67.4251 45.12 67.6891 45.1824C67.8235 45.2136 68.2219 45.1944 68.6803 45.3408C69.4699 45.5904 71.5699 46.3128 72.2635 46.2912C72.5875 46.2792 73.1875 46.6872 73.4419 46.776C73.7275 46.8768 74.6203 47.052 74.7595 47.1216C74.8987 47.1912 77.5099 47.9424 77.6683 47.9544C78.1747 47.9544 78.4963 48.2256 78.5707 48.2304C78.6403 48.2352 79.5379 48.4704 79.5403 48.3C79.5403 48.132 79.8163 44.5056 79.8163 44.1552C79.8211 42.6624 79.8067 42.0936 79.9555 41.6472C79.9723 41.604 80.6227 40.2072 80.8579 39.5688C80.9323 39.3648 81.3763 38.9304 81.4819 38.8056C81.6739 38.568 81.8467 38.0376 81.6883 37.9056C80.5723 37.0104 74.0371 36.8136 72.5419 36.864C72.2131 36.8712 71.5075 36.4056 71.4331 36.4488L71.1547 36.3096L70.6699 35.1312L72.3331 34.9248C71.8027 34.5552 70.9939 34.2504 70.3915 34.2312C69.4291 34.2072 67.2043 34.1016 65.1211 34.0824C64.5619 34.0728 63.8659 34.3968 63.8083 34.44C63.5995 34.6128 63.3115 34.848 63.3235 35.1312C63.5515 35.3232 64.6675 35.5032 64.9867 35.6184C65.2291 35.7216 65.7883 35.9472 65.8171 36.0336C65.8483 36.1248 65.8099 36.7656 65.8171 36.7968C65.6563 37.032 63.6235 37.152 61.0627 37.14C60.1219 37.1424 58.1203 37.1304 58.0555 37.1424C57.6379 37.2816 56.5171 37.2816 55.9075 37.6272C55.8355 37.668 55.8451 37.8648 55.8379 38.1816L54.4531 38.3208C54.6067 38.6616 54.7435 38.8488 55.0075 38.9448C55.4227 39.0816 56.2027 39.3768 56.3923 39.4296C56.6827 39.504 66.3715 39.5016 67.3123 39.672C67.7635 39.7584 71.3299 40.4184 72.1243 40.608C72.6475 40.7304 73.9315 40.764 74.4811 40.884C75.2323 41.0592 77.3347 42.2592 77.5315 42.3408C78.7675 42.7896 80.4163 43.9032 80.4427 43.9344C79.3699 43.6992 75.7195 42.3096 75.2251 42.2928C74.6203 42.2712 73.5163 42.264 73.3723 42.3408C72.9115 42.5856 68.6251 42.5328 68.1043 42.4104C66.7195 42.0072 64.0291 41.2992 62.5387 40.8936C61.8451 40.7112 60.3115 40.5192 60.2035 40.4688C61.3891 41.0088 64.6147 41.7 64.8475 41.7672C64.9699 41.8056 67.1995 42.6 68.1571 42.8088C69.9211 43.164 72.4675 43.7544 72.6091 43.7952C72.8227 43.8576 74.3659 44.5152 74.9659 44.4984C75.5875 44.4792 77.4547 44.5152 77.5315 44.4888C77.6995 44.424 78.0643 44.0496 78.6403 43.7256C79.3531 43.3176 80.2387 42.9792 80.4427 42.8952C80.5027 42.6552 80.5387 42.1944 80.4427 41.9928C80.3131 41.7288 79.1203 40.4808 78.6403 40.26C78.0499 40.0176 76.3699 39.2856 75.7987 39.1512C73.6795 38.76 71.7955 38.2032 69.4219 37.6968C67.2451 37.2792 65.2507 36.9936 64.6411 37.0032C64.5787 37.0608 64.5667 37.7712 64.2235 38.5968C63.9931 39.132 63.3859 39.8832 63.3235 40.1928C63.2971 40.3296 63.1867 40.7904 63.1843 40.884C63.1819 41.3016 63.3091 41.9928 63.4627 42.132C64.3675 42.9144 68.0899 43.824 68.2435 43.8648C72.0835 44.688 73.9939 45.756 75.7987 46.152" stroke="#E0E4E2" stroke-width="4.08" stroke-linecap="round"/>
<path d="M83.6992 45.043L84.0448 48.0238L84.2536 48.0934" stroke="#EF586A" stroke-width="4.08" stroke-linecap="round"/>
<path d="M77.8506 32.7334L83.8602 32.8366L84.0162 33.4534" stroke="white" stroke-width="4.08" stroke-linecap="round"/>
<path d="M80.7789 49.2737C80.8437 49.2089 80.3397 47.6105 80.1117 47.1161C80.0301 46.9409 80.0061 45.8657 79.8549 45.2681C79.7781 44.9081 79.6173 44.2553 79.5981 43.7273C79.5861 43.4729 78.9957 42.0737 78.7749 41.1065C78.6357 40.4657 78.5997 37.9169 78.5709 37.7681C78.4149 37.3313 78.1509 36.3737 78.0573 36.1745C77.8941 35.8337 77.8365 34.8089 78.0045 34.5833C78.2709 34.2425 78.4797 33.9977 78.5709 33.9665C78.8901 33.8657 82.0365 33.8633 82.7301 33.8633C83.1357 34.0697 79.9077 39.3497 79.8021 39.7697C79.8165 39.7961 80.2725 39.3977 80.4717 39.1553C80.5533 39.0545 81.1077 38.0129 81.8469 37.0505C82.3029 36.4577 83.3061 35.6129 83.5005 35.3537L83.2965 35.1977" stroke="white" stroke-width="4.08" stroke-linecap="round"/>
<path d="M74.7686 35.918C74.963 36.1196 74.9774 37.0172 75.0254 37.3004C75.0926 37.6988 75.4598 39.0332 75.527 39.6548C75.5366 39.734 75.6782 42.0332 75.6926 42.2372C75.7742 43.3364 76.3094 44.0516 76.9766 45.2156C77.2598 45.7292 77.639 46.43 77.6438 46.7588C77.6462 46.8668 78.0854 48.0212 78.1574 48.1436C78.3518 48.4604 78.695 48.6908 78.827 48.9668C78.875 49.1108 79.0574 49.6988 79.2878 49.8908" stroke="#E0E4E2" stroke-width="4.08" stroke-linecap="round"/>
<path d="M62.4542 28.9609C62.687 28.9609 65.1038 31.0753 65.5862 31.2433C66.1574 31.4305 68.3126 31.1689 70.2086 30.6073C70.3742 30.5665 71.2046 30.4705 71.3222 30.4465C71.4758 30.4177 72.443 30.0649 72.8102 30.0217C72.9398 30.0121 74.6174 29.9281 74.7758 29.8633C74.7974 29.7889 72.1622 29.5681 70.2614 29.5969C67.7342 29.6065 65.8214 29.5777 65.747 29.5969C65.5454 29.6473 65.1278 29.8225 64.9502 29.8105C64.5182 29.7793 63.4766 29.8177 63.251 29.7025C62.8166 29.4817 62.4998 29.4961 62.1878 29.4913C62.1446 29.6713 62.1182 29.9545 62.135 30.1273C62.1734 30.4465 63.3566 31.0873 63.5702 31.0849C63.9374 31.4377 65.7998 31.3993 68.5742 31.4089C70.1798 31.4089 72.9206 30.8833 74.723 30.8713C75.1646 30.8713 75.9326 30.8713 76.2614 30.8713" stroke="white" stroke-width="4.08" stroke-linecap="round"/>
<path d="M47.4782 28.6416C47.3918 29.2152 50.8502 30.4392 50.9294 30.4464C51.0302 30.456 60.9806 30.4392 61.019 30.4464C61.6454 30.5736 62.627 30.6384 62.7734 30.66C62.843 30.6696 63.5462 30.8232 63.8342 30.8712C63.9566 30.8904 68.063 30.8712 69.251 30.8712" stroke="white" stroke-width="4.08" stroke-linecap="round"/>
<path d="M47.4326 29.7334V29.8054C47.6798 29.911 48.6422 30.4222 48.8438 30.439C49.7582 30.5254 50.7758 30.9166 51.1694 31.003C51.3182 31.0342 52.3118 31.447 52.8758 31.4326C53.1926 31.4206 54.8726 31.447 55.3622 31.3342C55.8254 31.2262 56.0534 31.1854 56.6054 31.1134C57.0686 31.0558 57.6878 30.7846 57.9326 30.7198C58.0454 30.691 60.2942 30.7102 61.1054 30.7198C61.871 30.739 62.1854 30.7006 62.3726 30.5806" stroke="white" stroke-width="4.08" stroke-linecap="round"/>
<path d="M58.9912 35.0901V35.0181C59.0296 34.9821 61.8232 34.0845 62.02 33.9621C62.1064 33.9117 62.4208 33.5901 62.584 33.5397C62.644 33.5205 63.4432 33.4005 63.5704 33.3981C63.8608 33.3933 64.6168 32.9661 65.5432 32.9757C66.3184 32.9781 68.5432 32.9781 68.644 32.9757C69.316 32.9517 70.5472 33.2565 71.0416 33.3285C71.392 33.4413 72.2728 33.8733 72.592 34.1037C71.4568 34.1229 70.1176 33.9645 69.9832 33.9621C69.6784 33.9525 68.992 33.9549 68.8552 33.8205C68.7112 33.6741 67.6264 33.5301 67.4464 33.4677C67.4224 33.4605 66.8968 33.1341 66.6712 33.1173C66.3904 33.0933 65.7904 33.1149 65.5432 33.0453C64.8496 32.8485 64.7008 32.6901 64.5568 32.6229C64.852 32.5461 68.8048 32.5461 69.7768 32.5413C71.812 32.5053 72.4144 33.2301 72.52 33.3285C72.7216 33.7461 68.9968 33.0117 67.588 32.7645C64.6768 32.0997 64.6048 32.0421 64.5568 31.9893L63.8536 31.7781C63.8704 31.7061 68.2312 31.7061 70.1608 31.7061C70.9072 31.7061 71.7496 32.0181 72.028 32.3421C72.3904 32.7765 73.684 35.0325 73.7176 35.0901C73.756 35.1549 73.948 35.5077 73.9288 35.7933" stroke="#E0E4E2" stroke-width="4.08" stroke-linecap="round"/>
<path d="M49.6839 29.3945C49.6503 29.7113 49.2783 30.1097 49.1415 30.2633C49.0551 30.3617 48.7743 30.6545 48.7071 30.6977C48.6159 30.7577 48.6039 31.2761 48.5991 31.4585C48.5943 31.8761 48.6207 31.9793 48.8151 32.3273C49.0887 32.8025 50.1255 34.2977 50.2263 34.3913C50.6703 34.8041 51.2055 35.7473 51.4215 36.0185C51.4527 36.0857 51.4335 36.2969 51.5295 36.4529C51.7671 36.4913 52.0167 36.3833 52.1823 36.1289C52.3983 35.6945 52.8375 34.9073 53.3775 34.2809C53.4159 34.2377 55.4391 32.9777 55.8735 32.7617C56.3343 32.4905 56.9559 31.8041 57.1767 31.6745C57.2271 31.6457 57.8367 31.5497 57.9375 31.4585C58.0767 31.3385 58.2351 31.1369 58.2639 31.1321C58.4271 31.1321 58.6815 31.1201 58.8063 31.0241C58.9455 30.9209 59.3895 30.9449 59.5671 30.9161C59.7207 30.8897 60.5079 30.5033 60.6519 30.4817C60.8679 30.4457 61.5111 30.4721 61.6311 30.3713C62.0079 30.0593 62.4951 30.0377 63.2583 29.8289C63.3255 29.8121 68.0439 29.8337 70.1367 29.8337C71.4831 29.8313 71.9511 29.8145 72.8151 30.0473C72.9351 30.0785 73.1511 30.1145 73.4679 30.1553C73.5735 30.6185 74.0367 31.1393 74.1183 31.2401C74.2887 31.4105 75.5319 33.2369 75.7479 33.5225" stroke="white" stroke-width="4.08" stroke-linecap="round"/>
<path d="M76.9746 32.6729C76.9746 33.4793 76.9818 33.8129 77.037 33.9065C77.1114 34.0337 77.733 35.2697 77.8386 35.3873C77.9946 35.5601 78.3402 35.8888 78.5178 36.2512C79.1346 37.4224 79.8426 38.9417 79.9362 39.0257C80.1618 39.2225 80.2842 39.2969 80.4306 39.3353" stroke="white" stroke-width="4.08" stroke-linecap="round"/>
<path d="M76.4829 33.6602L76.3581 33.7226C76.2981 34.6706 76.8453 35.8778 76.8525 35.9426C76.8789 36.1682 76.8573 36.7178 76.9149 36.7442C76.9485 36.761 77.6637 39.1202 77.8389 39.8282C77.8701 39.929 78.1029 40.1474 78.1485 40.2602C78.1941 40.3778 78.5805 41.6714 78.6405 41.8658C79.0389 43.1402 80.3013 45.3794 80.3061 45.689C80.3133 46.0706 80.4477 46.3418 80.4309 46.3682" stroke="white" stroke-width="4.08" stroke-linecap="round"/>
<path d="M52.7562 42.7148C52.7442 41.8148 53.0274 40.8908 53.073 40.8236C53.3658 40.5308 53.4234 39.9212 53.4954 39.6524C53.6274 39.1412 53.565 37.2188 53.5986 36.938C53.6754 36.2996 54.0258 35.6804 54.0234 34.8092C54.021 33.6716 54.0186 32.162 54.0186 31.79" stroke="white" stroke-width="4.08" stroke-linecap="round"/>
<path d="M56.1183 31.1592C56.1111 31.4568 56.1327 31.944 56.1183 32.0016C55.8303 33.0504 52.2783 37.26 52.1271 37.464C52.0263 37.5984 51.3351 38.3952 51.2871 38.6184C51.7695 37.7448 53.0487 36.2496 53.1783 36.0984C53.5719 35.6328 54.2775 34.8912 54.3327 34.836C54.7983 34.3824 55.2999 34.1736 55.3839 34.1016C55.8807 33.6672 56.4903 32.748 56.8527 31.7904C56.9511 31.5312 56.9127 31.1496 56.9583 31.056C57.0039 30.9672 57.1383 30.9384 57.1695 30.8448C57.2127 30.7128 57.2295 30.1944 57.4839 29.7936C57.5247 29.7312 57.5583 29.6952 57.5895 29.6904" stroke="white" stroke-width="4.08" stroke-linecap="round"/>
<path d="M63.9375 31.0002C64.2207 31.7562 64.9719 33.4026 65.1423 33.8394C65.6583 35.2002 66.1479 38.3922 66.1743 38.5722C66.1935 38.709 66.1695 39.4938 66.1743 39.6042C66.2079 39.5994 66.6615 38.0682 66.6903 37.8834C66.7143 37.7322 66.7815 35.6202 66.9375 34.857C67.0167 34.4754 67.1895 33.3882 67.3911 32.829C67.5759 32.2986 67.5087 30.2802 67.5495 30.0546C67.5687 29.9586 67.6263 29.8146 67.7223 29.625" stroke="white" stroke-width="4.08" stroke-linecap="round"/>
<path d="M62.3897 32.3779C62.3561 32.8435 62.6057 33.6379 63.1433 34.8691C63.5585 35.7763 64.5233 37.9051 64.5401 37.9699C64.5953 38.1955 65.0081 40.0387 65.2217 40.6435C65.4473 41.3947 65.8673 42.4963 65.9153 42.6163C65.9921 42.8011 65.9753 43.1371 66.0017 43.2187C66.0281 43.3027 66.3281 43.6603 66.3473 43.7347C66.3713 43.8379 66.3233 44.4307 66.3473 44.5099C66.4385 44.8315 66.6377 45.1651 66.7769 45.2827H66.8633" stroke="white" stroke-width="4.08" stroke-linecap="round"/>
<path d="M71.4018 28.0293C71.013 28.3485 70.6962 28.6389 70.5978 28.8357C70.5234 28.9821 70.2618 29.7645 70.1946 29.8821C69.8322 30.4461 69.1314 31.8261 69.069 31.9749C68.8386 32.5173 68.3346 33.1245 68.2626 33.3429C68.1786 33.5997 68.1642 34.2645 68.0226 34.3893C67.9818 34.4229 67.929 34.4757 67.8594 34.5501C68.445 34.3533 69.7026 33.5157 69.873 33.4245C69.945 33.3837 70.6866 33.0957 70.8378 33.0213C71.2266 32.8413 73.6482 32.8605 73.6554 32.8605C73.9938 32.8821 75.8874 35.6109 75.9906 35.7573C76.2282 36.0981 76.5354 36.6813 76.8762 37.2069" stroke="white" stroke-width="4.08" stroke-linecap="round"/>
<path d="M77.0371 40.1064C77.0635 41.2176 77.5051 43.8528 77.5195 43.8888C77.5651 43.9992 77.8963 44.3688 77.9227 44.4528C77.9899 44.6592 78.5347 47.004 78.5659 47.1096C78.6187 47.2728 78.9691 47.9376 79.1299 48.0744V48.156" stroke="white" stroke-width="4.08" stroke-linecap="round"/>
<path d="M56.0029 32.5576C56.0125 32.7904 56.7613 33.376 57.4165 33.6472C57.7405 33.7792 58.2037 33.8824 58.3765 33.9424C59.2357 34.2376 61.4749 35.7688 62.5285 36.9088C62.8261 37.3696 63.3661 38.0824 63.4525 38.2264C63.8317 38.2312 64.0645 38.2192 64.1773 38.1616C64.2301 38.1352 66.0565 37.0312 66.2869 36.9088C66.8701 36.6064 69.5797 35.8264 70.6285 35.836C72.5509 35.8816 74.4709 35.8336 74.5285 35.8528C75.6301 36.34 77.4973 37.1848 77.7589 37.1728" stroke="white" stroke-width="4.08" stroke-linecap="round"/>
<path d="M60.4863 42.1846C60.9087 42.8206 63.4767 43.7926 64.4415 44.227C64.4583 44.2318 66.8415 44.8318 67.2759 44.8198C68.2575 44.7958 69.1695 44.8366 69.5847 44.623C69.9615 44.4214 70.0527 44.107 70.1775 44.0302C70.3143 43.9462 70.4847 43.8814 70.5063 43.8982" stroke="#E0E4E2" stroke-width="4.08" stroke-linecap="round"/>
<path d="M66.2874 46.0074C65.1234 46.0242 64.089 45.753 64.0458 45.7434C63.9738 45.7266 63.8202 45.705 63.585 45.6786C63.345 45.3162 63.2706 45.2106 63.189 45.2154C62.805 45.2322 62.3658 44.9202 62.2002 44.9514" stroke="#E0E4E2" stroke-width="4.08" stroke-linecap="round"/>
<path d="M62.3321 45.3477C62.3273 45.5493 63.0521 46.2213 63.7817 46.5357C65.0033 47.0301 67.3073 47.8485 67.4753 47.9205C67.4801 47.9229 68.1137 48.3453 68.2649 48.3813C68.7281 48.4461 69.9137 48.5085 70.1129 48.5133" stroke="#E0E4E2" stroke-width="4.08" stroke-linecap="round"/>
<path d="M80.9365 101.719C80.9677 101.613 81.4501 101.395 81.8389 101.136C82.1269 100.963 84.2533 100.116 86.1925 99.1701C86.2717 99.1269 87.1765 98.3805 87.2557 98.3205C87.3373 98.2581 88.1725 97.4781 88.2637 97.4181C89.5813 96.5493 90.9781 95.8989 91.5565 95.4525C91.8229 95.2389 92.7445 94.5165 92.7781 94.4973C93.4549 94.1181 98.1733 92.0517 98.1973 92.0541C98.6773 92.0661 99.5749 91.6461 100.055 91.4685L101.171 90.6717C101.605 90.8493 102.383 89.6925 102.445 89.6109C102.498 89.5389 102.623 89.3277 102.604 89.0781" stroke="#B0E4D6" stroke-width="2.88" stroke-linecap="round"/>
<path d="M78.4531 60.333V60.537C78.5275 60.633 79.5187 60.8298 79.9099 60.6282C79.9579 60.6018 80.6707 60.4722 80.8627 60.4698" stroke="#EF586A" stroke-width="2.88" stroke-linecap="round"/>
<path d="M79.792 62.3156C80.9704 61.6388 87.0832 60.026 87.6544 59.8916C88.5688 59.6348 90.6736 58.8476 90.9472 58.8404C91.42 58.8284 92.2984 58.1324 93.5536 57.6956C94.8856 57.2276 98.9128 55.9772 98.9488 55.958C99.7096 55.6052 100.818 55.3796 100.914 55.3196L102.606 54.4508L104.344 53.81C104.92 53.3372 107.646 53.1428 109.192 52.118C109.49 51.9356 109.96 51.5228 110.015 51.5228C110.286 51.5396 110.846 51.242 110.975 51.2492" stroke="#C5FFF0" stroke-width="1.2" stroke-linecap="round"/>
<path d="M79.974 62.6807L79.0596 103.01" stroke="#C5FFF0" stroke-width="1.2" stroke-linecap="round" stroke-linejoin="round"/>
<path d="M78.6541 62.3993L17.8525 47.6729" stroke="#5B8F81" stroke-width="1.2" stroke-linecap="round" stroke-linejoin="round"/>
<path d="M110.111 49.2162L82.6885 44.3682" stroke="#FF8896" stroke-width="1.2" stroke-linecap="round" stroke-linejoin="round"/>
<path d="M82.6885 44.3682L111.004 49.8546" stroke="#FF8896" stroke-width="1.2" stroke-linecap="round" stroke-linejoin="round"/>
<path d="M110.534 49.8905L82.6436 44.8457" stroke="#FF8896" stroke-width="1.2" stroke-linecap="round" stroke-linejoin="round"/>
<path d="M82.6436 44.8457H82.8548" stroke="#FF8896" stroke-width="1.2" stroke-linecap="round"/>
<path d="M85.6484 44.5178C87.6836 44.5082 90.1484 44.8946 91.034 45.1658C91.7348 45.3794 93.2228 45.7826 93.278 45.8138" stroke="#FF8896" stroke-width="1.2" stroke-linecap="round"/>
<path d="M85.1124 93.9602C85.1316 94.5674 84.8436 95.3762 84.7092 95.8466C84.6468 95.9858 84.0828 96.7058 84.0348 96.7898C83.9652 96.9146 83.6964 97.5314 83.4948 97.8698C83.2908 98.297 83.2692 98.8682 83.226 98.9474C83.1684 99.0602 82.7292 99.4562 82.686 99.6218C82.6524 99.7514 82.6836 100.035 82.4172 100.565C82.3212 100.752 81.5412 101.479 81.2028 102.048C80.7972 102.091 80.3724 101.947 80.2596 101.645C80.214 101.518 80.2572 91.1402 80.2356 90.5714C80.226 90.2594 80.478 89.933 80.5284 89.7794C80.5668 89.6666 80.4852 88.7522 80.5284 88.5674C80.5836 88.3322 81.0468 86.6354 81.0684 86.4098C81.0732 86.3498 81.3708 85.2818 81.3372 84.3866C81.33 84.1562 81.3324 82.145 81.3612 81.3578C81.366 81.221 81.0252 79.9082 81.0684 78.725C81.0996 77.9114 80.7876 77.6666 80.7924 77.0522C80.7948 73.037 80.7996 65.2658 80.7924 65.0042C80.79 64.4738 81.1428 64.0658 81.3372 64.0298C81.6036 63.9842 82.1892 64.025 82.8204 63.761C82.9716 63.6986 84.2964 63.2738 84.438 63.221C85.1292 62.969 85.7892 62.9762 86.0556 62.9522C86.0748 62.9498 87.3828 62.2178 87.6732 62.1434C88.0068 62.0546 88.7076 62.1842 88.7532 62.1434C88.9404 61.9706 89.0676 61.7234 89.2932 61.6034C89.298 61.601 90.0132 61.6034 90.3708 61.469C90.5364 61.409 92.5404 60.7634 92.8692 60.653C93.222 60.533 94.3092 60.4466 95.4948 59.9858C95.718 59.897 96.438 59.7146 96.7068 59.7146C96.9708 59.6714 97.8492 59.1866 97.9212 59.177C98.1876 59.1362 98.4684 59.2418 98.73 59.177C98.8524 59.1458 98.8836 58.9586 98.9988 58.9058C99.1644 58.8338 99.8004 58.8938 100.213 58.7714C100.664 58.6442 101.216 58.1786 101.425 58.097C101.586 58.0346 102.157 58.133 102.234 58.097C102.419 58.0178 103.818 57.5762 103.852 57.5594C104.298 57.3314 105.488 57.1322 106.549 56.4794C106.602 56.4458 106.799 56.2298 106.952 56.2106C107.087 56.1938 107.231 56.2586 107.358 56.2106C107.478 56.165 107.987 55.7618 108.167 55.6706C108.678 55.409 108.827 55.3706 109.11 55.4018" stroke="#E8FFF9" stroke-width="2.88" stroke-linecap="round"/>
<path d="M109.65 53.7841L109.919 53.2441" stroke="#E8FFF9" stroke-width="2.88" stroke-linecap="round"/>
<path d="M109.919 53.2441L81.0684 62.9521" stroke="#E8FFF9" stroke-width="2.88" stroke-linecap="round" stroke-linejoin="round"/>
<path d="M84.3042 65.6465C84.3186 65.8001 84.0042 66.9041 84.009 67.6577C84.0378 68.8625 84.0234 70.0001 83.901 70.7705C83.8386 71.1377 83.3562 73.2089 83.3514 73.2233C83.2434 73.7633 82.7706 77.8913 82.3026 79.6529C82.1874 80.0801 81.7362 81.5825 81.6426 82.4537C81.4962 83.9585 81.3378 85.1345 81.3378 85.1945C81.3402 85.4993 81.3834 86.7761 81.3378 87.0833C81.3018 87.3353 80.6922 88.8665 80.3874 90.2153C80.2698 90.7409 80.253 96.4769 80.2602 96.5201C80.2722 96.6065 80.3178 96.8321 80.3946 97.1945L82.9554 97.0601L82.6866 96.9257C81.8778 97.4633 81.4026 97.6889 81.3378 97.7345C81.2298 97.8113 80.901 98.3249 80.8002 98.4089C81.1098 98.0825 82.461 97.6121 82.521 97.5713C83.7186 96.7601 85.8258 95.9897 87.2994 95.0009C87.873 94.6097 90.4074 92.6393 90.6402 92.4761C90.8058 92.3609 91.5018 92.0369 91.8546 91.8017C92.229 91.5545 92.553 91.1897 92.6634 91.1273C93.3306 90.7625 93.9954 90.6689 94.2858 90.4505C94.6098 90.2105 94.869 90.2057 94.9554 90.1841C95.2506 90.1097 95.6418 89.6825 95.7642 89.6441C95.8314 89.6225 96.0114 89.6225 96.3042 89.6441C95.7834 89.9465 94.8186 90.6809 93.9882 91.0841C89.9058 93.0401 87.213 95.2553 86.4618 95.9801C86.157 96.2849 85.7058 97.1513 85.113 97.8689C84.8898 98.1329 84.0378 98.4665 83.0922 98.9465C83.3562 99.1217 84.585 98.9777 85.3122 98.7089C86.373 98.3105 90.5274 96.2465 91.2906 96.0809C91.6386 96.0089 93.0234 95.7473 93.6162 95.4545C94.0698 95.2289 94.3074 94.9673 94.4154 94.9025C94.4994 94.8521 95.2194 94.7081 95.3586 94.6337C95.853 94.3649 97.3338 92.9945 97.6506 92.8793C98.6394 92.5337 99.2754 92.0345 99.405 91.9361C99.561 91.8161 99.7722 91.5353 99.8082 91.5329C99.9426 91.5161 100.389 91.4849 100.617 91.2617C100.708 91.1729 101.277 90.8561 101.426 90.7241C101.642 90.5321 102.158 89.9777 102.235 89.9153C102.307 89.8553 102.431 89.4305 102.506 89.3753C102.607 89.2961 103.171 89.0465 103.18 88.9697C103.18 88.9553 103.18 86.9489 103.18 86.1401" stroke="#E8FFF9" stroke-width="2.88" stroke-linecap="round"/>
<path d="M103.18 86.1409L107.492 57.2881" stroke="#E8FFF9" stroke-width="2.88" stroke-linecap="round" stroke-linejoin="round"/>
<path d="M107.493 57.019C106.797 56.9902 105.659 57.2278 104.702 57.6022C101.414 58.9078 94.1753 62.6686 93.8777 62.9518C93.7697 63.0526 91.4201 63.9214 89.9657 64.2982C89.3153 64.4734 87.6161 65.371 87.5393 65.3782C87.3617 65.3974 86.8241 65.419 86.5961 65.647C86.3297 65.9158 86.1329 65.8702 86.0561 65.9182C85.8929 66.0142 85.5929 66.3622 84.9785 66.5902C83.9873 66.9886 83.4785 66.931 83.3609 66.9958C83.1953 67.0894 83.1161 67.2958 82.9553 67.399C82.7537 67.5334 81.9545 67.8478 81.6089 68.2078C81.4097 68.4262 81.3329 68.7718 81.3377 69.2878C81.3449 69.4678 81.3521 69.9382 81.4721 69.9622C81.7289 69.9982 82.3793 69.9334 82.6865 69.8278C82.6985 69.823 84.4553 68.7142 85.3889 68.2822C85.9481 68.0278 89.2553 66.4726 89.2937 66.4558C89.4833 66.3766 91.0865 65.851 92.0081 65.3542C92.6153 65.0254 93.3425 64.903 93.6065 64.8382C93.8729 64.7758 94.6817 64.1662 94.6865 64.1638C94.8953 64.0702 95.6873 63.9526 96.0329 63.7606C96.8417 63.3142 99.2033 62.251 99.8081 62.143C99.8249 62.1382 101.08 61.5046 101.831 61.3342C102.129 61.2718 102.561 60.8614 102.775 60.7942C102.988 60.727 103.231 60.8446 103.449 60.7942C103.742 60.7246 104.421 60.3094 104.661 60.2542C104.428 60.5182 100.305 62.7838 99.4673 63.187C96.5369 64.5742 94.9961 65.5198 93.9089 66.2182C92.9945 66.7198 92.4689 67.1854 92.2577 67.2646C92.0441 67.3486 91.7921 67.303 91.5857 67.399C91.4705 67.4518 90.5825 68.2246 90.3713 68.3446C89.8985 68.5462 88.7345 69.2518 88.6193 69.2878C88.4009 69.3574 87.8561 69.4534 87.6737 69.691C87.3593 70.0966 86.0681 70.6102 85.6529 70.9054C85.4825 71.0278 85.1105 71.011 84.9785 71.0398C84.9161 71.0518 84.7649 71.251 84.5729 71.311C84.1793 71.4358 84.0953 71.635 84.0353 71.7142C83.9681 71.8054 83.4137 71.9302 83.3609 71.983C83.0897 72.271 82.7705 72.895 82.6865 73.3318C82.9169 73.4806 84.5921 73.4806 85.1321 73.4398C86.0537 73.363 88.1801 72.535 88.6193 72.3886C89.0537 72.2422 91.0841 71.7022 92.0249 71.2774C92.6153 71.0062 94.5665 70.051 95.0897 69.8278C95.7977 69.5254 97.0265 69.1678 97.5065 68.8726C97.6457 68.7886 98.2913 68.419 98.5961 68.3446C98.8169 68.287 99.4577 68.1334 99.8081 67.8046C101.498 66.1966 102.347 65.2702 102.506 65.107C102.563 65.047 103.067 64.7446 103.315 64.5694C103.653 64.327 104.011 64.2526 104.123 64.1638C104.203 64.1038 104.318 63.823 104.661 63.6262C105.028 63.4078 106.139 62.299 106.144 62.2774C106.195 62.0998 106.363 61.531 106.55 61.3342C106.569 61.3126 106.814 60.5014 107.09 60.2542C107.128 60.2206 107.217 60.1294 107.359 59.9854L107.224 59.7142C106.809 59.7238 106.029 59.7142 106.01 59.7142C105.674 59.7454 103.327 60.8878 103.043 61.063C102.65 61.3126 99.0713 64.4782 98.2073 65.0758C97.4945 65.563 94.6289 67.243 94.5497 67.2646C93.7553 67.4254 92.4041 68.1358 92.2577 68.2078C90.4409 69.1246 87.8249 70.7038 87.4049 70.9054C86.8865 71.155 84.6425 72.1198 84.4385 72.2542C84.4289 72.259 84.2801 72.5782 84.1697 72.6574C83.9705 72.6022 83.7905 72.3982 83.6297 71.983C83.2697 71.035 82.8905 67.9654 82.6865 67.6702C82.5425 67.459 82.2737 67.351 82.1465 67.1302C82.1273 67.0966 82.1081 66.2278 82.1465 66.0526C82.1921 65.8918 82.7153 65.6494 82.9553 65.647C83.0897 65.6494 83.6513 65.8366 83.9009 65.9182C84.2561 67.2958 84.2801 68.4646 84.3041 68.7478C84.3209 68.947 84.8153 71.3614 84.8441 71.5798C84.8945 71.995 84.8609 76.4758 84.7097 77.107C84.5393 77.7574 83.6897 78.7366 83.6297 78.859C83.5289 79.0654 83.4137 79.7926 83.0921 80.3422C82.9961 80.503 82.0289 81.979 81.8777 82.3654C81.8225 82.5118 81.6305 83.2942 81.6089 83.443C81.5009 84.175 81.4145 84.4174 81.0689 84.9262C80.7545 85.3942 80.8193 86.8582 80.6633 87.3526C80.6297 87.463 80.2553 89.131 80.2745 89.5678C80.3033 90.1366 80.0417 91.2478 79.9913 92.2078C79.9553 92.8054 79.4129 94.5286 79.4321 94.951C79.4393 95.0878 79.4441 95.251 79.4513 95.443L79.7201 95.5774" stroke="#E8FFF9" stroke-width="2.88" stroke-linecap="round"/>
<path d="M84.3037 96.9258V72.7914C84.0661 73.977 83.9772 75.2322 83.9004 75.6234C83.8524 75.8562 83.262 77.7954 83.0916 78.7242C82.9188 79.677 82.3716 84.9762 82.146 86.1402C82.0788 86.4906 81.5605 88.857 81.4741 89.3442C81.0517 91.7298 81.0685 97.329 81.0685 97.6002C81.2221 96.2058 82.2229 93.1266 82.7677 91.4922C83.0701 90.5346 83.2116 89.7066 83.226 88.8354C83.238 87.5082 83.8237 84.0762 84.1693 82.0938C84.4405 80.3034 84.8508 76.4274 84.9588 75.8922C85.05 75.4458 85.4124 74.0802 85.4028 73.089C85.4004 72.7434 85.4029 71.6394 85.5181 71.5794C85.6549 71.9082 85.6621 75.7434 85.6669 77.5266C85.6621 82.2714 85.6549 90.2874 85.6525 93.5538V69.0186C85.6549 72.5874 85.6549 79.8666 85.6525 83.577C85.6309 85.1706 84.8437 89.5722 84.8437 90.0498C84.8557 89.157 85.602 85.365 85.9788 83.6802C86.4636 81.6642 87.7308 77.8242 87.7428 77.781C87.9276 76.9506 88.746 71.5482 88.8444 70.0386C88.8924 69.2538 88.8877 65.7138 88.8877 64.7034C88.9165 66.8802 88.842 68.8314 88.6188 70.6362C88.122 74.3586 87.8053 79.0098 87.7765 85.4226C87.7861 87.5394 87.8028 90.6594 87.81 91.6674C87.7932 89.9778 87.7981 85.869 87.9253 84.5442C87.9781 83.9994 88.7148 78.2154 88.7532 77.781C88.794 77.3058 88.9812 75.4602 89.2932 74.5458C89.6196 73.5762 89.7396 72.537 89.706 71.217C89.694 70.7922 89.7037 70.1706 89.7277 69.897C89.7493 69.6954 90.3349 68.7114 90.5053 68.3442C90.7741 68.7978 90.9445 69.7506 91.0021 70.9626C91.0573 73.2114 91.422 75.933 91.6404 77.4594C91.8372 79.2762 91.8373 89.049 91.9885 90.5874C92.4157 90.1938 92.6557 89.877 92.8237 89.4282C93.2725 88.1922 93.4812 84.7314 94.0116 83.1738C94.818 80.8026 95.2549 78.6762 95.6557 76.3218C95.8453 74.7594 96.1356 72.5946 96.8388 69.333C96.8532 69.273 96.9925 67.4514 97.1125 66.9954L97.2469 85.1946C97.2133 82.5594 97.3957 79.9362 97.7509 77.9058C98.1805 75.5706 98.6341 72.6354 98.6125 71.313C98.6005 69.6378 98.5909 66.333 98.5957 64.7034V86.8146C98.5837 85.1586 98.5741 81.3426 98.5765 79.1802C98.6341 76.5258 99.0204 73.785 99.4044 72.3882C99.5868 71.7186 99.9852 68.1642 100.16 66.7698C100.278 65.5866 100.748 63.645 100.751 63.6258C100.751 63.1026 101.056 62.289 101.425 62.1426C101.74 62.3202 101.946 62.5338 102.114 62.9202C102.572 64.0002 102.738 67.0938 103.108 69.7386C103.364 71.6394 103.427 73.7946 103.453 77.1306C103.463 79.113 103.458 83.4282 103.336 83.829C103.29 83.973 103.115 84.429 102.908 85.0602C102.911 84.4746 102.868 82.8354 102.908 82.0938C102.966 81.1266 103.65 77.4426 103.988 75.7578C104.192 74.7522 104.562 71.0538 104.545 69.4482C104.533 67.6986 104.524 64.3818 104.526 62.817C103.876 63.1242 103.326 63.8226 103.055 64.3938C101.97 66.9762 98.9533 73.917 98.3749 75.0354C97.7197 76.2834 95.5765 79.1898 94.9549 80.5122C94.6981 81.0546 94.122 81.6666 93.7404 82.4994C93.5532 82.9218 93.018 83.4066 92.9316 83.577C92.8716 83.6994 92.922 84.093 92.7972 84.3858C92.6364 83.8338 92.7396 82.557 92.7972 81.825C92.9436 80.1018 93.6181 78.1866 94.6477 75.5154C95.2477 73.8546 96.4933 69.9618 96.7165 69.0186C96.7261 68.9754 97.0381 65.8266 97.2469 65.5122C97.2517 66.105 96.9132 67.3674 96.4332 68.6658C95.4276 71.1834 94.2973 73.5306 93.6325 74.8506C93.4309 75.2898 92.5308 78.9042 91.8372 80.9442C91.6356 81.5394 90.5485 85.2378 90.0013 86.8242C89.7949 87.525 89.7229 88.893 89.6965 90.453C89.9125 89.8626 89.9773 89.2626 89.9893 87.8586C89.9773 85.7562 89.9845 80.769 90.0493 79.6098C90.0901 78.9474 90.4021 77.6994 90.4621 76.8906C90.5029 76.3314 90.5245 75.4146 90.6397 75.3546C90.8653 75.5226 90.9421 75.6954 90.9781 76.2042C91.3885 80.8194 91.3213 85.821 91.3141 88.2954C91.3189 88.0242 91.3789 86.5242 91.5877 85.593C92.2045 82.9746 92.7061 80.2674 92.8285 78.8658C92.9437 77.4882 92.9244 71.1282 92.9244 71.1138C92.9028 70.2906 93.2772 69.8802 93.4716 69.8274C92.9436 70.8666 92.3533 72.405 92.2525 73.005C92.0749 74.1978 91.1077 78.5802 91.0525 79.3362C90.9277 81.201 91.1365 84.297 91.3141 84.657C91.3333 84.6954 92.25 85.8618 92.2572 85.869C92.3196 85.9194 93.5484 85.7514 94.0116 85.4658C94.2444 85.317 95.3581 83.8482 95.8981 83.1738C96.7693 81.9978 97.7364 79.6242 98.73 78.0594C100.079 75.9426 100.645 74.3994 101.022 73.0626C101.072 74.0082 100.057 81.6042 99.0493 85.4754C98.3173 88.1178 97.7508 89.4642 97.65 89.6442C97.5372 89.601 97.4989 89.4306 97.5013 88.809C97.5061 87.7266 97.5228 85.725 97.5372 84.8034C97.5636 83.949 98.19 81.405 98.6532 78.6042C98.862 77.1978 98.8788 75.9906 99.1332 75.489C99.1308 75.7434 99.4453 80.2242 99.4213 82.0218C99.4117 86.0658 99.402 91.1586 99.4044 92.2074C99.4068 91.473 99.4669 90.429 99.8293 89.6178C100.696 87.681 101.425 84.9258 101.764 83.4906C102.224 81.5802 103.115 78.2802 103.18 77.241C103.196 76.9146 103.211 74.6946 103.206 73.7202C103.187 72.4242 103.158 72.2874 103.043 72.1194C102.846 72.3546 102.611 73.0674 102.505 73.3314C102.448 73.4706 101.773 74.4594 101.56 75.0834C101.113 76.4586 99.4693 79.6386 99.2677 80.2074C99.1333 80.5962 98.0581 85.1634 98.0557 85.1946C98.0389 85.401 98.0773 87.5922 98.0557 88.4322C98.0317 89.1714 97.4725 90.7074 97.3813 90.993C96.1813 90.9858 93.9492 91.017 93.8772 90.993C93.7908 90.9642 93.6996 90.8754 93.606 90.7242C94.1508 89.4618 95.7829 87.3906 96.9781 86.0058C97.1629 85.7898 97.2757 85.533 97.2469 85.4658C97.2565 86.325 97.0381 87.6954 96.8413 88.161C96.6373 88.6338 95.8309 89.7114 95.2237 90.3186C94.6021 90.981 93.69 93.0354 93.606 93.1506C93.4956 93.3042 93.2893 93.3858 93.2029 93.5538C93.1405 93.6738 93.1932 94.0842 93.066 94.2282C93.0252 94.2762 92.7012 94.7274 92.2572 95.037C92.9412 94.8426 93.798 94.2834 94.506 93.5226C94.9932 92.9874 96.0541 91.5954 96.3013 91.305C96.6109 90.945 97.5973 89.9754 97.8613 89.661C98.1541 89.3082 99.1236 87.921 99.4044 87.6234C99.534 87.4842 99.87 87.1146 99.9588 86.6946C100.021 86.3586 100.259 85.0218 100.616 84.3858C100.976 83.7378 101.063 83.4282 101.034 82.8354C101.003 82.2666 100.974 79.8258 101.286 78.9114C101.368 78.6666 101.62 77.9658 101.617 77.5434C101.545 74.9586 101.579 68.2314 101.425 67.5354C101.392 67.5786 96.0541 75.081 94.2469 77.6802C94.0453 77.9514 92.886 79.2162 92.25 80.0226C91.5948 80.8626 89.4973 84.5394 89.4277 84.9258C89.2765 85.7682 88.6572 87.0042 88.4604 87.8442C88.3476 88.3386 88.3405 89.253 88.0765 90.633C87.9757 91.1562 87.7981 92.3394 87.6997 92.6634C87.6013 92.9898 87.3396 93.5922 87.27 93.825C87.234 93.9426 87.306 94.2618 87.27 94.3626C87.198 94.5594 86.6965 95.0106 86.5957 95.1714C86.4685 95.3778 86.1877 96.1458 85.9213 96.5202C85.8853 96.573 85.7533 96.681 85.6525 96.789C85.9189 96.8178 86.346 96.7266 86.73 96.5202C86.8764 96.4434 88.7941 95.1186 89.4997 94.7778C90.3493 94.3698 91.266 93.7602 91.8372 93.2082C92.4396 92.6106 92.9964 91.1802 93.066 90.993C93.114 90.8682 93.4668 89.0346 93.606 88.701C93.6756 88.533 94.026 86.1402 94.0116 85.6002" stroke="#E8FFF9" stroke-width="2.88" stroke-linecap="round"/>
<path d="M77.8574 100.461L78.2654 63.9258" stroke="#72A89A" stroke-width="2.88" stroke-linecap="round" stroke-linejoin="round"/>
<path d="M80.7451 63.043L111.028 51.583" stroke="#E8FFF9" stroke-width="2.88" stroke-linecap="round" stroke-linejoin="round"/>
<path d="M37.374 76.6556C37.362 75.9428 37.4628 75.6596 37.494 75.5756C37.506 75.5468 37.8612 74.3036 37.974 74.1356C38.2572 73.7132 39.5076 72.6596 39.654 72.5756C39.7236 72.5372 39.822 72.6092 39.894 72.5756C40.1532 72.4508 40.8132 71.9852 41.37 71.81C42.8364 71.3444 43.4628 71.3804 46.9068 71.3732C47.49 71.3708 47.994 71.3948 48.174 71.4956C48.3948 71.6228 48.5508 71.8508 48.774 71.9756C48.9924 72.1004 49.7724 72.3236 50.094 72.5756C50.2956 72.7316 50.4684 72.9332 50.694 73.0556C50.838 73.1348 51.4716 73.2836 51.774 73.5356C51.9036 73.6436 52.3764 73.97 52.494 74.0156C52.7244 74.1044 52.986 74.5196 53.094 74.6156C53.178 74.6924 53.9388 74.9924 54.054 75.0956C54.162 75.1916 54.4884 75.6908 54.534 75.6956C54.6132 75.7052 54.9372 75.7028 55.014 75.8156C55.1148 75.962 55.2948 76.3508 55.494 76.4156C55.59 76.4492 55.7028 76.8548 55.734 76.8956C55.9044 77.1212 56.5572 77.75 56.574 77.9756C56.586 78.134 56.4996 78.314 56.574 78.4556C56.6772 78.6572 57.1452 79.058 57.294 79.5356C57.3612 79.7492 57.654 79.8956 57.654 79.8956C57.8748 80.282 58.0236 80.9036 58.014 81.0956L58.494 81.6956" stroke="#BF3848" stroke-width="2.4" stroke-linecap="round"/>
<path d="M59.0505 82.4154C59.0409 81.7026 59.1321 81.417 59.1609 81.3354C59.1705 81.3066 59.5017 80.0634 59.6049 79.8954C59.8665 79.473 61.0209 78.4218 61.1577 78.3354C61.2225 78.297 61.3137 78.369 61.3809 78.3354C61.6233 78.2106 62.2305 77.745 62.7441 77.5698C64.1001 77.1042 64.6809 77.1402 67.8633 77.133C68.4033 77.1306 68.8689 77.1546 69.0345 77.2554C69.2409 77.385 69.3801 77.6082 69.5889 77.7354C69.7905 77.8602 70.5129 78.0834 70.8105 78.3354C70.9977 78.4914 71.1537 78.6906 71.3649 78.8154C71.4969 78.8922 72.0849 79.0434 72.3633 79.2954C72.4833 79.4034 72.9201 79.7298 73.0281 79.7754C73.2417 79.8642 73.4817 80.277 73.5825 80.3754C73.6617 80.4522 74.3649 80.7522 74.4705 80.8554C74.5713 80.9514 74.8737 81.4506 74.9145 81.4554C74.9865 81.465 75.2865 81.4626 75.3585 81.5754C75.4521 81.7242 75.6177 82.1106 75.8025 82.1754C75.8913 82.209 75.9945 82.6146 76.0233 82.6554C76.1793 82.8786 76.7841 83.5098 76.8009 83.7354C76.8129 83.8938 76.7313 84.0714 76.8009 84.2154C76.8945 84.4122 77.3289 84.8178 77.4657 85.2954C77.5305 85.509 77.7993 85.6554 77.7993 85.6554C78.0033 86.0418 78.1425 86.6634 78.1305 86.8554L78.5745 87.4554" stroke="#BF3848" stroke-width="2.3088" stroke-linecap="round"/>
<path d="M23.4396 72.0952C23.4324 71.356 23.7636 69.7432 23.8356 69.5752C24.0228 69.1528 24.8388 68.1088 24.9468 68.0152C26.0844 67.1536 26.8092 67 27.1644 66.8152C27.1908 66.8032 30.0636 66.8104 30.1764 66.8152C30.4572 66.8296 30.81 67.2808 30.9684 67.4152C31.1028 67.5304 31.6284 67.7632 31.8396 68.0152C31.974 68.1736 32.454 68.56 32.5524 68.6152C32.7492 68.7232 33.0852 69.232 33.186 69.3352C33.2484 69.4 33.5916 69.5536 33.6612 69.6952C33.7212 69.8128 33.7284 69.9616 33.822 70.0552C34.0068 70.2424 34.5636 70.6504 34.6932 71.0152C34.734 71.128 34.878 71.128 34.9308 71.1352C34.9452 71.1352 35.4684 71.8888 35.4852 71.9752C35.5428 72.2944 35.8404 72.7264 35.9604 72.9352C36.1068 73.1896 36.066 73.744 36.1188 73.8952C36.1812 74.0752 36.8316 75.3352 36.8316 75.3352C36.978 75.7216 37.0764 76.3432 37.0692 76.5352L37.386 77.1352" stroke="#BF3848" stroke-width="1.9512" stroke-linecap="round"/>
<path d="M79.7725 86.5793C80.0965 86.5793 80.2693 86.5553 80.3029 86.4185C80.4637 85.5809 80.9029 84.3953 80.9557 84.3089C81.0925 84.0905 81.8845 83.1329 81.9541 82.9577C82.0333 82.7609 82.0717 82.5401 82.1893 82.3625C82.3069 82.1849 82.9717 81.4193 83.1469 81.1769C83.3029 80.9657 84.7453 79.7129 84.9013 79.5665C85.3693 79.1249 86.0725 78.8489 86.2573 78.7049C86.4517 78.5537 86.7613 78.0809 86.9821 77.9873C87.1957 77.8961 88.7197 77.0849 88.8061 77.0057C88.8565 76.9625 89.1829 76.9001 89.2957 76.8713C89.5525 76.8065 90.1813 76.5713 90.7285 76.6121C90.9421 76.6289 91.6165 76.6409 91.7557 76.6313C92.0221 76.6145 92.5093 76.8473 92.7253 76.9337C93.0205 77.0561 93.1021 77.1761 93.2773 77.6489C93.3037 77.7305 93.6733 78.1121 93.7381 78.2201C93.7621 78.2561 93.8173 78.5921 93.8893 78.6473C94.3453 78.9737 94.2133 79.7777 94.2301 79.9217C94.2421 80.0321 94.6189 80.9561 94.6813 81.1961" stroke="#EF586A" stroke-width="2.4" stroke-linecap="round"/>
<path d="M94.873 80.0659C94.9522 79.5499 95.0938 78.9427 95.2258 78.6619C95.2762 78.5563 96.2074 77.2291 96.4402 76.7227C96.7186 76.1131 97.1507 75.6883 97.3067 75.4891C97.3619 75.4195 97.5586 74.8723 97.6402 74.8051C98.0242 74.4811 98.6795 73.4539 98.9939 73.0819C99.2098 72.8275 99.5843 72.5083 99.8651 72.3355C100.139 72.1651 100.386 72.1867 100.448 72.1531C100.559 72.0979 101.353 71.4619 101.425 71.3779" stroke="#EF586A" stroke-width="2.4" stroke-linecap="round"/>
<path d="M105.757 72.4775C105.778 72.5903 106.11 73.3823 106.126 73.4615C106.102 73.7519 106.09 74.0927 106.167 74.2943" stroke="#EF586A" stroke-width="2.4" stroke-linecap="round"/>
<path d="M100.239 72.2278C100.275 72.0454 100.654 71.6998 100.714 71.647C100.959 71.4478 101.329 71.4814 102.656 71.527C103.522 71.5534 103.947 71.7286 104.082 71.7166L104.456 72.1222L104.905 73.447" stroke="#EF586A" stroke-width="2.4" stroke-linecap="round"/>
<path d="M104.415 71.9899C104.398 71.9179 105.296 72.9619 105.37 73.3315C105.394 73.4635 105.416 73.5955 105.44 73.7251" stroke="#EF586A" stroke-width="2.4" stroke-linecap="round"/>
<path d="M105.263 72.9287L105.421 73.1015L105.637 75.7559" stroke="#EF586A" stroke-width="2.4" stroke-linecap="round"/>
<path d="M79.7195 87.6982L79.3379 87.7942V87.8878" stroke="#EF586A" stroke-width="2.4" stroke-linecap="round"/>
<path d="M49.7814 38.6299C48.9486 38.6179 48.303 38.7139 47.103 39.0235C44.739 39.6187 43.0542 40.0411 42.435 40.2835C41.8734 40.4995 39.9174 40.7035 39.7686 40.7347C39.531 40.7851 38.6646 41.0323 38.4294 41.0539C37.107 41.1691 35.6382 41.5555 35.559 41.5627C35.2638 41.5915 34.2798 41.5651 33.9654 41.6275C32.979 41.8195 31.2222 42.0739 30.903 42.1363C29.5494 42.4555 28.995 42.7435 28.4166 42.7123C28.1694 42.6955 25.9638 43.1491 24.6534 43.2211C24.2454 43.2451 22.9302 43.6915 22.6134 43.7323C22.3806 43.7611 21.7734 43.7347 21.7206 43.7947C21.639 43.8979 21.0126 43.9843 20.763 44.0515C20.6094 44.0923 20.319 44.3539 20.2542 44.3707C20.2134 44.3779 19.8582 44.3659 19.743 44.3707L18.9774 44.7523L18.3414 44.8795L17.3838 45.5803" stroke="#111111" stroke-width="2.88" stroke-linecap="round"/>
<path d="M26.6963 85.5664L27.1139 85.9624" stroke="#111111" stroke-width="2.88" stroke-linecap="round"/>
<path d="M78.1758 103.053L78.2886 103.041L79.5006 103.168" stroke="#111111" stroke-width="2.88" stroke-linecap="round"/>
<path d="M79.2441 103.296C79.5441 103.303 80.3673 103.325 80.5209 103.296C80.7561 103.255 81.2913 102.946 81.6033 102.85" stroke="#111111" stroke-width="2.88" stroke-linecap="round"/>
<path d="M102.202 90.924L103.414 90.0312L103.798 89.9688" stroke="#111111" stroke-width="2.88" stroke-linecap="round"/>
<path d="M49.8296 37.5668C49.6448 37.2692 49.1144 36.566 48.9512 36.2708C48.9488 36.2636 47.8688 34.5284 46.5296 31.1036C46.472 30.9956 46.0904 30.2852 46.0832 29.7644C46.0832 29.7476 45.8552 29.0132 45.764 28.6172L45.3176 27.7244L44.9336 27.086C45.0248 26.822 45.596 26.5244 46.2728 26.5124C46.7408 26.5052 49.2032 26.0252 49.3352 26.0036C49.412 25.9916 54.8216 26.0036 55.2032 26.1308C56.12 26.4548 56.8064 26.606 56.8592 26.6396C56.9624 26.7044 57.1664 26.9324 57.2432 26.8964C57.3104 27.002 58.7816 27.8444 59.5376 28.2356C59.66 28.298 60.3536 28.3412 61.1336 28.7444C61.1816 28.7708 61.244 28.7924 61.3232 28.8092C61.3808 28.814 61.3856 28.406 61.388 28.2356C61.3976 27.8588 61.46 27.7052 61.7072 27.47C61.8392 27.3476 62.1896 27.0164 62.3456 27.0236C62.3936 27.026 65.228 26.5796 65.5328 26.5124C65.5448 26.51 75.7664 26.4956 75.8648 26.5124C75.9368 26.5268 76.5752 27.2012 76.6928 27.3428C77.2928 28.07 77.156 28.7156 77.4584 30.0836C77.4992 30.3596 77.42 31.2308 77.4584 31.2956C77.5904 31.4996 78.5984 31.4828 80.2976 31.478C82.2464 31.478 85.4384 31.4684 85.6232 31.6796C85.6424 31.706 86.7632 32.1524 86.8328 32.126L87.152 32.5724C87.0128 32.6972 86.5976 34.1012 86.0696 34.8044C85.9568 34.9508 85.8776 35.258 85.8128 35.378C85.796 35.4116 85.4792 35.6972 85.4312 35.8244C85.2416 36.3044 84.7592 36.9572 84.6008 37.1636C84.4952 37.3028 84.1016 37.8044 83.9 38.1188C83.5304 38.714 83.3864 39.23 83.1992 39.5876C83.0864 39.7988 83.0984 40.1204 83.072 40.2236C83.0552 40.2836 82.58 41.3108 82.5608 41.3732C82.5344 41.4644 82.4144 41.678 82.4336 41.7548L82.1792 42.5828" stroke="#111111" stroke-width="2.88" stroke-linecap="round"/>
<path d="M82.1797 42.7123C83.2453 42.6955 86.7109 43.2643 87.2797 43.4779C87.5077 43.5643 89.0341 44.0371 89.5765 44.1787C89.8117 44.2387 90.3637 44.2195 90.5965 44.2411C90.7693 44.2579 91.1725 44.4667 91.2973 44.4979C91.7317 44.6011 92.5549 44.5987 92.7661 44.6251C93.4669 44.8171 94.5037 45.0067 96.9109 45.2635C97.1269 45.2851 97.9141 45.5659 97.9957 45.5803C98.2813 45.6331 99.5941 45.6643 100.163 45.7723C100.456 45.8299 100.854 46.0555 100.991 46.0915C101.262 46.1611 102.268 46.3459 102.714 46.4731C102.997 46.5379 103.842 46.5139 104.053 46.5379C104.228 46.5571 106.148 46.9963 106.412 47.0491C106.585 47.0803 107.639 47.0515 108.006 47.1763C108.26 47.2651 108.968 47.5435 109.028 47.5579C109.105 47.5795 109.619 47.5435 109.664 47.5579C110.932 47.9395 110.989 47.9467 111.068 48.0043L111.26 48.1963" stroke="#111111" stroke-width="2.88" stroke-linecap="round"/>
<path d="M26.3336 85.7809L17 48.0049" stroke="#111111" stroke-width="2.88" stroke-linecap="round" stroke-linejoin="round"/>
<path d="M17.0001 47.8559C17.0049 47.3543 17.0073 46.5143 17.0001 46.3751C16.9905 46.0247 17.8065 45.4679 18.0369 45.4847" stroke="#111111" stroke-width="2.88" stroke-linecap="round"/>
<path d="M103.936 88.898L111.697 48.2588" stroke="#111111" stroke-width="2.88" stroke-linecap="round" stroke-linejoin="round"/>
<path d="M49.9015 37.8311C49.8967 38.1623 49.8775 38.8655 49.9015 39.0287C49.9519 39.3887 50.3287 40.1159 50.4007 40.3295C50.4967 40.6079 50.5063 42.3839 50.5999 42.6263C50.6935 42.8639 50.9431 43.4831 50.9071 43.8527C50.8711 44.2175 50.9287 44.4239 51.1015 44.6255" stroke="#111111" stroke-width="2.88" stroke-linecap="round"/>
<path d="M50.9004 45.0264C51.3612 45.096 55.4652 45.8088 55.5972 45.8256C56.6484 45.9576 62.0844 47.2368 62.8932 47.5248C62.9316 47.5368 64.7916 48.3072 65.4924 48.4224C66.09 48.624 67.4556 48.9312 67.9788 49.0176C68.4036 49.0872 69.7788 49.7544 69.942 49.7928" stroke="#111111" stroke-width="2.88" stroke-linecap="round"/>
<path d="M70.501 49.9795L70.993 50.3035" stroke="#111111" stroke-width="2.88" stroke-linecap="round"/>
<path d="M81.6801 50.6206C81.6825 48.7054 81.6826 45.8182 81.6634 45.3598C81.6538 45.1294 81.9081 44.1286 81.8793 43.627" stroke="#111111" stroke-width="2.88" stroke-linecap="round"/>
<path d="M81.6797 50.4209V52.2209" stroke="#111111" stroke-width="2.88" stroke-linecap="round"/>
<path d="M67.8896 49.4229C68.6096 49.4205 69.6297 49.4757 70.5873 49.8213C71.0649 49.9965 72.7041 50.2293 73.2849 50.2221C75.5817 50.1789 76.88 50.4525 77.384 50.4213C77.7416 50.3997 78.3825 50.6205 78.5817 50.8221C78.7089 50.8629 78.8552 50.7837 78.9824 50.8221C79.0712 50.8509 79.3184 51.0021 79.3808 51.0213C79.5248 51.0645 79.8488 51.2493 79.8824 51.2205" stroke="#111111" stroke-width="2.88" stroke-linecap="round"/>
<path d="M78.7021 51.1797L80.9845 52.1661L81.5389 51.7965" stroke="#111111" stroke-width="2.88" stroke-linecap="round"/>
<path d="M27.2334 86.6152L79.3686 103.346" stroke="#111111" stroke-width="2.88" stroke-linecap="round" stroke-linejoin="round"/>
<path d="M26.5859 85.7085C26.8571 85.6869 27.3731 86.3445 27.4931 86.6805C27.5027 86.7069 27.5027 86.7285 27.4931 86.7453" stroke="#111111" stroke-width="2.88" stroke-linecap="round"/>
<path d="M80.7344 102.905V102.847L80.852 102.787" stroke="#111111" stroke-width="2.88" stroke-linecap="round"/>
<path d="M102.8 90.8154L80.6172 103.257" stroke="#111111" stroke-width="2.88" stroke-linecap="round" stroke-linejoin="round"/>
<g style="mix-blend-mode:multiply">
<rect width="128" height="128" fill="white"/>
</g>
</svg>
