<svg width="128" height="128" viewBox="0 0 128 128" fill="none" xmlns="http://www.w3.org/2000/svg">
<path d="M53.6419 50.857C53.5987 51.901 53.9851 53.0074 54.3283 53.5978C54.5419 53.9482 55.3171 54.6922 56.4715 55.7218C58.1539 57.1858 60.0979 58.2106 61.8619 59.8762C61.8547 59.7466 61.8883 59.2162 61.8715 59.0986C61.8091 58.6666 61.5715 58.141 61.2979 57.8026C60.2131 56.4538 57.7267 54.025 56.0851 52.753C54.7435 51.7234 51.3475 49.3354 51.2131 49.2202C50.1715 48.313 48.8131 46.3498 48.7339 46.177C48.6355 45.9538 48.6187 45.0346 48.6187 44.5786C48.6067 44.2042 48.4867 43.9714 48.1627 43.5514C47.9731 43.3162 47.9155 42.4738 47.8219 42.181C47.7259 41.8858 47.1115 41.2882 47.0227 41.1538C46.9531 41.0554 46.8187 40.5658 46.6795 40.3546C46.6195 40.2658 46.1635 39.8026 45.9931 39.6706C45.8107 39.529 45.2107 39.337 45.1939 39.3274C45.1339 39.2866 44.7379 38.8714 44.6251 38.7562C44.2267 38.3458 44.1499 38.2882 43.9387 38.3002C43.7875 38.3122 42.6595 38.5498 42.3403 38.5282L42.2275 38.3002" stroke="#EF586A" stroke-width="12" stroke-linecap="round"/>
<path d="M42.2275 38.0723C42.7963 38.1539 44.3011 38.8739 45.3091 38.9843C45.9043 39.0491 49.1539 40.0643 50.5027 40.5731C50.9755 40.7507 55.0987 41.4587 56.7547 41.7707C57.8539 41.9579 61.1395 42.2147 63.0523 42.5795C66.1963 43.2083 73.5763 44.2235 77.4427 44.7851C78.5203 44.9363 80.3203 45.1763 81.0403 45.2651C82.1875 45.4211 82.3651 45.5387 82.4107 45.7211C82.1635 45.8291 80.4019 45.9155 79.5571 46.0811C76.4179 46.7003 71.8819 47.6291 70.4995 48.0971C69.9067 48.2915 65.2771 49.4675 64.4395 49.6403C62.3635 50.0531 60.2155 50.9003 57.9571 52.1099C57.5083 52.3523 55.6195 53.2787 55.0507 53.6891C54.6955 53.9507 53.3155 55.2755 53.1859 55.7675C53.1547 55.8947 53.1763 56.9867 53.1859 57.4811C53.2171 58.0211 53.4283 58.6499 53.6875 58.9835C53.8771 59.2163 57.3307 60.4883 58.6219 60.9875C59.2123 61.1867 69.8155 62.5499 70.3099 62.8451C70.3147 63.0011 70.2787 63.4115 70.1947 63.5291C69.8011 64.0787 62.4211 66.7739 62.2579 66.8579C60.2923 67.8755 58.0675 69.3035 57.7315 69.6107C57.4915 69.8387 57.3427 70.2107 57.3115 70.6211C57.2827 71.6507 57.4099 72.4475 57.9307 72.7595C59.0899 73.4291 61.9891 74.7803 63.0283 74.9771C64.2499 75.2051 68.4811 76.5155 69.6883 77.0987C70.1275 77.3171 70.5523 77.6507 70.8115 77.9699C71.0059 78.2243 70.9867 79.3163 71.0203 80.6195C71.0323 81.5099 70.7995 82.0211 70.1347 82.8683C69.6667 83.4611 69.1627 84.4691 68.9011 85.0451C68.4115 85.9115 64.9627 89.7323 64.2259 90.8795C63.4747 92.0651 62.3803 95.7803 62.3179 96.5219C62.2819 97.0667 62.3419 97.6427 62.4907 97.9955C62.8219 98.7299 63.6643 99.5555 64.5019 100.143C65.2243 100.638 66.7171 101.648 67.0939 101.826C67.6987 102.107 72.5323 103.501 72.8203 103.599C73.8067 103.935 74.2699 104.219 74.5339 104.399" stroke="#EF586A" stroke-width="12" stroke-linecap="round"/>
<path d="M76.4755 99.9465L76.2451 100.059C76.2523 100.71 76.1995 102.546 76.4851 102.742C76.7875 102.932 78.7267 102.934 79.7059 102.925C82.6339 102.882 82.8163 102.932 82.8667 103.028C82.4875 103.436 81.1963 104.178 80.5363 104.427C79.7227 104.725 77.0683 105.351 75.9523 105.81C75.4843 105.999 72.1579 106.99 72.1363 107.024C73.0099 107.067 74.3059 106.623 74.7619 106.453C75.5707 106.201 78.4459 105.608 79.6699 105.082C80.0755 104.914 81.7411 104.468 81.9547 104.398C82.1635 104.329 83.8867 103.628 84.1219 103.599C84.2371 103.582 84.5731 103.587 84.6931 103.484C84.7459 103.438 85.5211 102.663 85.6075 102.457C85.6771 102.298 87.9787 100.318 88.0051 100.287C88.0195 100.27 88.3459 99.6033 88.3459 99.6033C88.3339 99.3897 88.7275 99.0705 88.9171 98.9169C89.0371 98.8209 89.0203 98.1753 89.0323 98.1201C89.0587 97.9761 89.4595 97.3857 89.4883 97.2057C89.5747 96.6345 89.1811 92.9457 89.1715 92.9001C89.0947 92.5689 88.7851 91.8849 88.6891 91.6113C88.6267 91.4313 88.1563 88.9593 87.9211 88.1265C87.6907 87.3177 86.1523 82.9665 85.8115 81.7185C85.3411 79.9809 84.3259 74.5881 84.3067 74.4537C84.2155 73.7793 84.2899 64.1961 84.2827 63.9489C84.2587 63.3345 84.1147 62.3409 83.8699 60.8745C83.7307 60.0249 83.7691 58.8345 83.6659 58.0497C83.6083 57.5361 83.4499 56.2305 83.3227 55.8801C83.2891 55.7865 82.7491 54.4665 82.5259 53.1417C82.4203 52.5201 81.9955 50.7609 81.8395 50.2857C81.5779 49.4817 80.8051 45.5433 80.4691 44.8065C80.3107 44.4585 80.0707 44.0289 80.0131 43.8945C79.8787 43.5681 79.9435 42.0321 79.6699 41.4969C79.5355 41.2377 79.2139 40.2225 79.2139 39.5553C79.2067 39.4713 78.8371 38.3817 78.7579 38.0721C78.6667 38.0865 76.9699 37.4241 76.7035 37.3857C76.3243 37.3353 58.7803 37.3857 55.8115 37.3857C56.1379 37.1937 56.3779 37.1289 56.8939 37.1361C61.0843 37.1841 63.7387 36.9009 70.2043 36.9489C73.5451 36.9585 75.0019 36.8265 75.9499 36.5889C76.3651 36.4833 77.5891 36.2577 77.8435 36.2457C78.0739 36.2313 79.5763 35.6193 80.2411 35.5593C80.7523 35.5593 81.2107 35.1825 81.3835 35.1033C81.4867 35.0553 82.8499 34.7649 83.2099 34.6473C81.5419 34.6113 75.0451 35.7657 73.9627 35.7897C74.8147 35.9025 79.0483 35.0841 79.5571 34.8753C80.6611 34.4193 80.9323 34.4145 81.6115 34.1913C81.6931 34.1649 83.7499 34.2177 84.0091 34.1913C84.2611 34.1601 84.4267 33.9249 84.4651 33.8481C84.5179 33.7497 84.9259 33.7137 85.4923 33.7329C86.0683 33.7593 86.3203 33.7017 86.6347 33.5049C86.9419 33.9921 86.9947 34.4505 87.3187 35.3313C87.6355 36.1905 87.6835 37.2753 87.8899 37.5009C88.0699 37.6929 88.5979 39.1665 88.6891 39.4425C88.8187 39.8361 88.7971 42.1521 88.8043 42.1809C89.0443 43.4745 89.0323 43.8969 89.0299 45.1017C89.0275 53.2065 89.0323 74.7129 89.0323 74.7177C88.7803 76.1649 88.8187 80.5089 88.8043 80.6529C88.7707 80.9409 88.0723 85.5825 88.0075 85.8225C87.8779 86.3121 87.8947 87.3561 87.8899 88.8705C87.8875 90.4761 87.9043 90.9777 87.6619 92.2977C87.6235 92.5041 87.6619 95.8929 87.6619 96.0633" stroke="#EF586A" stroke-width="6" stroke-linecap="round"/>
<path d="M88.8044 102.001C88.7756 101.408 89.0396 100.155 89.0372 99.6297C89.0348 98.6649 89.03 96.5601 89.0252 95.4177C89.0276 93.9321 89.2172 92.9817 89.2604 92.7537C89.3132 92.4681 89.486 91.9761 89.4884 91.9545C89.5028 91.8321 89.486 80.5473 89.4884 80.5377C89.7428 79.7745 89.7164 78.8937 89.7116 77.4825C89.7092 75.3921 89.7188 70.7457 89.7164 70.7217C89.5988 69.3081 89.1476 66.3345 88.9796 63.5745C88.9724 63.4737 88.046 57.8001 87.8684 56.4633C87.6476 54.7473 86.642 51.5121 86.3708 50.8713C85.5068 48.8961 84.5396 46.0257 84.4652 45.4929C84.2036 43.5633 84.2924 40.7385 84.2372 39.9417C84.206 39.5673 83.4548 37.9569 83.3228 37.0449C83.2964 36.9369 83.2196 36.7833 83.0948 36.5889C83.0996 38.1321 83.1092 42.0321 83.114 44.3865C83.1092 46.2561 83.0972 49.1265 82.8668 50.7441C82.838 50.9481 82.5668 53.1105 82.4252 53.8833C82.298 54.5553 81.95 55.8489 81.8396 56.5665C81.7628 57.0825 81.3188 61.0257 80.8076 63.1113C80.6036 63.9297 80.5868 65.0049 80.5916 65.5665C80.6204 69.6393 80.1812 78.0969 80.1284 79.8537C80.1188 81.6417 80.126 85.2273 80.1428 87.0249C80.1572 88.1841 80.0132 89.4441 79.9004 90.3561C79.898 90.3705 79.9004 92.4345 79.7852 93.4377C79.5428 95.4969 79.022 97.1169 78.758 99.2601C78.7196 99.5577 78.7772 99.9609 78.8708 100.287C79.718 100.683 86.678 100.638 86.978 100.515C86.5052 100.184 85.8956 99.1689 85.7732 98.7225C85.5044 97.7433 85.3604 96.9729 85.3604 96.2097C85.37 94.8225 85.37 91.2633 85.13 90.2121C84.5948 88.0785 84.0572 83.7705 83.9924 83.5425C83.9084 83.2473 82.322 79.6065 82.1828 79.2825C82.0988 80.6433 81.9068 84.0057 81.7268 85.2201C81.2276 88.9689 81.2588 102.37 81.3836 102.685C81.5012 102.526 81.506 92.6433 81.5036 88.0473C81.5012 84.2073 81.4964 76.8009 81.4964 73.2321C81.4748 71.5137 81.3716 67.6449 81.1124 66.5553C80.1668 62.6625 78.3572 58.2129 78.302 57.1353C78.2756 56.5377 78.3332 54.8697 78.0716 54.3969C77.7308 53.7105 76.9892 52.4937 76.8428 51.9393C76.7132 51.4449 76.7348 51.0057 76.7036 50.8569C76.6796 50.7489 76.2188 49.7361 76.2452 49.6017C76.2428 56.5233 76.2404 72.4065 76.2404 81.3681C76.2452 87.0081 76.3388 91.0833 75.6764 94.8081C75.5084 95.7105 74.8412 97.0473 74.762 97.4337C74.7068 97.7049 74.6252 98.9385 74.4188 99.1473C74.3972 99.1665 74.3588 99.2049 74.306 99.2601C74.0132 99.0777 73.9652 97.6785 73.9652 97.0713C73.9748 95.1753 73.9868 91.0665 73.9892 88.8537C73.9436 86.1153 73.79 83.2833 73.4708 81.2913C73.2788 80.0529 72.8396 76.8825 72.3668 74.8761C71.9204 72.9849 71.6804 70.2009 71.5652 68.7657C71.486 67.8921 70.946 65.8905 70.8644 65.6073C70.622 64.7577 70.0556 57.4809 70.082 54.3969C70.0724 57.8865 70.1108 67.2945 70.2332 69.2217C70.25 69.4689 71.0636 79.3497 71.2988 83.3361C71.426 85.9425 71.6324 87.2889 72.158 89.9697C72.398 91.2417 72.5828 94.1601 72.6884 95.7969C72.8372 98.5473 72.8108 102.411 72.83 102.795C72.842 103.112 72.7316 103.834 72.5924 104.17C72.4796 104.442 72.182 104.679 72.0212 104.739L71.7932 104.626C71.6636 103.94 71.6756 99.6225 71.9084 97.7769C72.1916 95.5353 72.6236 92.8401 73.0052 90.8961C73.3076 89.3721 73.5932 86.1033 73.898 84.3009C74.174 82.8537 74.5868 80.5857 74.6204 79.1553C74.6324 75.2985 74.642 65.7585 74.6804 64.8225C74.6948 64.2297 74.1716 59.7969 73.9292 57.7593C73.718 55.6713 73.754 53.4705 73.6196 53.1417C73.2188 52.9305 71.1164 55.0857 68.8004 57.6921C67.7804 58.8489 67.13 59.6145 66.6572 60.2193C66.1004 60.9297 65.3708 61.8177 65.174 62.3865C64.7516 63.6585 64.538 66.4497 64.5932 68.9937C64.61 70.2729 64.6604 73.7217 65.0204 74.8353C65.0588 74.9505 65.8916 77.2521 66.0092 77.6097C66.2348 78.3105 66.8036 80.8833 67.6172 83.7393C67.9004 84.7569 68.0372 85.6233 68.0036 86.4921C67.9868 87.1521 68.5172 90.3033 68.8268 91.1553C68.954 91.1097 68.9468 89.4657 68.942 88.4985C68.954 82.2129 68.6852 74.2665 68.6852 73.8849C68.7452 67.5273 68.4476 62.6505 68.4764 59.6577C68.4836 58.7841 68.4956 57.1641 68.3684 56.7945C68.3372 56.7009 67.6244 55.1457 67.5692 54.7401C67.4324 53.7033 67.1132 53.1825 66.77 52.2273C66.494 51.4761 65.5316 50.3049 64.9436 49.9449C64.6196 49.7553 62.9444 49.4673 62.2052 49.2585C61.6748 49.1073 60.4388 48.5913 59.8004 48.3633C58.7948 48.0153 54.0812 47.6385 52.6172 47.4249C52.1108 47.3505 46.5596 46.3833 46.1084 46.2921" stroke="#EF586A" stroke-width="6" stroke-linecap="round"/>
<path d="M40.5143 33.9639L40.1279 34.4775" stroke="#EF586A" stroke-width="6" stroke-linecap="round"/>
<path d="M39.2586 36.0176C39.0234 36.5648 38.865 37.46 38.5578 38.1992C38.2866 38.8688 38.3706 40.6136 38.3466 40.6976C38.3034 40.8296 37.9146 41.492 37.8882 41.6096C37.8714 41.6888 37.881 51.8 37.8882 51.9992C37.9146 52.58 38.8914 56.8448 39.2058 57.3704C39.489 57.8312 39.645 58.2512 39.8298 58.5056C40.1802 58.2992 40.3938 58.0256 40.6098 57.4496C40.6938 57.2312 40.7754 57.0128 40.857 56.7944" stroke="#EF586A" stroke-width="6" stroke-linecap="round"/>
<path d="M41.2148 33.1143C41.5196 33.2175 42.7412 33.3927 43.2548 33.5055C43.406 33.5223 46.8476 34.1631 46.9076 34.1919C47.1932 34.3623 47.6924 34.6335 48.05 34.6479C49.058 34.6863 51.2372 35.2935 51.4748 35.3319C51.7196 35.3727 52.8596 35.3031 52.958 35.3319C53.1212 35.3799 53.4812 35.5815 53.8724 35.5599C54.1172 35.5479 54.5636 35.5647 54.974 35.6007C55.3484 35.6367 57.4436 36.2775 59.4116 36.2583C60.1292 36.2535 60.7436 36.2199 60.8348 36.2463C61.214 36.3591 62.0396 36.8559 62.09 36.9303" stroke="#EF586A" stroke-width="6" stroke-linecap="round"/>
<path d="M72.1368 95.6079C72.1368 96.0639 72.1224 96.3279 72.0216 96.4071C71.8608 96.5319 70.932 96.8991 70.6536 96.9783C70.5 97.0191 68.0904 96.9663 68.028 96.9783C67.9176 96.9975 67.7712 97.1151 67.6848 97.2063C67.4232 96.6303 67.3608 94.8447 67.2288 93.7815C67.1376 93.0567 66.4368 89.0343 66.2184 87.5295C65.6352 84.6711 62.9232 79.1631 62.9064 79.1343C62.6352 78.5895 61.5912 77.0751 61.0632 76.4295C60.7152 76.0071 57.7584 72.7263 56.8392 71.5215C56.3832 70.9191 54.8016 68.8095 54.7848 68.7807C54.7128 68.6583 54.4536 67.7199 54.3288 67.5255C54.1968 67.3191 53.7504 66.7863 53.6424 66.4983C53.5728 66.3063 52.6584 64.3023 52.6152 64.2135C52.5528 64.0839 51.804 62.6127 51.204 61.8663C50.8872 61.4703 50.1912 60.6087 50.1048 60.4479C49.9656 60.1935 49.6248 59.3367 49.4184 59.0775C49.236 58.8423 48.7512 58.2567 48.6024 57.8703C48.2712 57.0135 47.5872 55.6359 47.2512 55.1967C46.872 54.6975 46.5192 53.5383 46.2024 52.7079C45.96 52.0671 45.8112 51.2055 45.4248 50.2863C45.2232 49.8111 45.216 49.2207 45.1944 49.0311C45.1536 48.6063 44.6448 47.7879 44.5104 47.5479C44.4504 47.4423 43.8384 46.2927 43.7112 46.1775C43.608 46.0863 42.984 46.0503 42.7992 46.0623C42.5976 46.0839 42.4416 45.8751 42.3408 45.8343C42.2712 45.8103 41.7768 45.8463 41.772 45.9495C41.7216 48.9711 42.6072 55.1775 42.6264 55.4055C42.6864 56.1543 42.7152 60.9831 42.7152 63.0999C42.6624 65.9415 42.5232 67.4391 42.2184 69.4623C41.7864 72.1719 41.7672 72.5103 41.7528 75.3015C41.7456 90.6303 41.7864 90.9279 41.8848 91.1559H42.228C42.3312 90.9135 43.1352 87.0639 43.4832 85.4487C43.932 83.4303 45.0552 78.4575 45.1104 77.9991C45.504 74.6895 45.6912 66.7311 45.9456 64.5255C46.1448 62.4831 46.5384 58.3719 46.728 56.3031C46.8072 55.3743 47.1 54.8223 47.364 54.5103C47.8296 54.9351 48.3384 55.5495 48.5064 56.4519C48.5592 56.7519 48.7992 59.1135 48.9048 59.7615C49.02 60.4383 49.4832 62.3463 49.5744 63.1239C49.7448 64.6239 49.752 91.3551 49.8768 92.2983C49.9512 92.8527 50.0376 93.1359 50.2176 93.4383C50.5008 92.9991 50.4168 91.5927 50.676 90.6999C50.7384 90.4815 51.8712 84.9567 52.032 83.7375C52.284 81.7935 52.2816 58.8927 52.2744 58.8495C52.2144 58.5183 51.9816 58.0335 51.816 57.8223C51.816 58.9575 52.7304 62.2599 53.2464 64.0935C53.928 66.4599 54.0024 67.4343 54.1392 70.0143C54.3192 74.0079 54.5952 81.4695 54.5616 85.7439C54.5184 91.1271 55.1736 92.7495 55.356 92.8671C55.452 92.8239 55.5288 91.3095 55.7232 90.4239C56.2608 88.1103 56.544 86.8071 57.3792 83.9847C58.2936 80.8983 58.8672 78.7071 59.0448 76.8039C59.16 75.1671 59.4192 72.0423 59.808 70.1967C60.1872 68.4159 61.0704 66.6399 61.4064 65.5839C61.5168 65.7615 62.2728 69.6999 62.5968 71.2887C62.8944 72.8511 62.9736 75.1431 62.9904 77.8455C62.9976 82.1727 63.0048 89.8575 63.0048 93.2103C62.772 93.2151 62.7864 88.8879 62.7984 86.8671C62.7768 84.4263 62.4336 83.0319 62.0616 80.6919C61.7208 78.4095 61.308 76.9335 60.72 75.2871C60.5832 74.9031 60.1128 73.2567 60.0096 72.6399C59.8632 71.7591 59.5128 70.5591 59.2368 70.4943C59.1456 70.7415 58.8792 71.8383 58.4496 72.6279C57.6912 74.0007 57.0552 75.2223 56.7984 76.0023C56.052 78.2871 54.8136 81.1143 54.4128 82.8231C54.2952 83.3487 53.3376 94.5039 53.4144 96.1791C53.6712 94.6647 53.6376 92.0535 53.6544 89.5311C53.6664 88.5135 53.664 86.2311 53.6424 85.9047C53.568 84.8031 53.1096 83.6847 52.7736 83.0007C51.7944 81.0495 51.048 79.6695 50.904 79.3983" stroke="#EF586A" stroke-width="6" stroke-linecap="round"/>
<path d="M38.3475 56.1084C38.3379 59.9508 38.3451 69.7356 38.4987 70.9884C38.6739 72.5508 39.0459 76.8972 39.1299 77.5836C39.4995 80.514 39.4779 81.2892 39.7155 83.622C39.7467 83.91 39.7371 84.6756 39.7155 85.1052C39.6867 85.686 40.1739 87.5172 40.2867 87.7308C40.5003 88.1388 40.6563 89.7252 40.6539 93.0276C40.6467 93.9036 40.5963 95.6772 40.6299 95.7228C40.7595 95.8932 40.9923 95.9844 41.0859 96.1788C41.1291 96.2652 41.0619 98.6988 41.2011 98.8044C41.3043 98.8692 41.3283 98.9772 41.3139 99.2604" stroke="#EF586A" stroke-width="6" stroke-linecap="round"/>
<path d="M37.8887 76.8848C37.8983 80.9216 37.9007 88.2416 37.8887 88.3016C37.8359 88.616 37.4783 89.2784 37.4327 89.444C37.4063 89.5376 37.4327 92.2904 37.4327 92.2976C37.4399 92.5088 37.2527 92.8184 37.2047 92.9816C37.1879 93.0392 37.1903 100.254 37.1879 100.309C37.1783 100.892 37.2983 101.23 37.5479 101.314C38.0471 101.314 39.0095 102.106 39.0311 102.114C39.2807 102.214 40.0271 102.265 40.4015 102.457C40.9991 102.762 41.8367 103.119 41.8847 103.141C41.9951 103.191 42.5927 103.518 42.7991 103.599C42.7991 103.599 43.3511 103.599 43.5983 103.712C44.1671 103.978 44.4215 104.401 45.0815 104.511C45.4943 104.581 46.2359 104.996 47.0231 105.198C47.0327 105.2 49.9103 106.102 49.9895 106.11C50.1791 106.129 50.3831 106.04 50.5607 106.11C50.8151 106.213 50.9951 106.455 51.2447 106.566C51.3839 106.63 52.4423 106.803 55.0871 106.782C55.4015 106.782 56.6111 106.774 56.7263 106.796C56.8247 106.813 57.9383 107.214 58.2095 107.252C58.3535 107.271 59.4479 107.228 59.6927 107.252C59.8439 107.266 60.7943 107.487 62.2103 107.502C64.3775 107.494 68.1431 107.485 69.7391 107.48C67.9823 107.478 63.6791 107.48 63.0743 107.329C62.0543 107.07 61.4543 106.798 60.7031 106.314C59.2895 105.402 56.2607 104.528 54.7391 103.705C52.8503 102.661 50.3495 101.79 48.6911 101.442C48.1535 101.326 46.6271 100.849 45.6119 100.484C45.0455 100.287 43.5047 100.066 42.9671 99.8456C42.6983 99.7376 41.8943 99.2936 41.7719 99.26C41.6951 99.2408 40.5695 99.2336 40.2863 99.1472C40.0871 99.0848 39.2015 98.5184 39.0311 98.4608C38.7863 98.3792 37.7519 98.3696 37.6607 98.348C37.5431 98.3192 37.3079 98.2208 36.9551 98.0552" stroke="#EF586A" stroke-width="6" stroke-linecap="round"/>
<path d="M37.1133 97.0022C38.5869 97.103 42.2469 97.307 43.3077 97.379C44.9277 97.5038 48.5517 98.075 49.9197 98.1614C50.7261 98.2118 52.8309 98.5502 53.3013 98.6894C53.7717 98.8286 54.8301 99.251 54.8997 99.2606C55.1253 99.2942 55.7565 99.2822 56.3037 99.4814C56.5197 99.5606 56.7357 99.6398 56.9541 99.7166C55.9845 99.7574 55.2093 99.6782 54.2133 99.3758C52.5117 98.8574 48.9213 97.5806 48.3909 97.4342C47.8941 97.2974 45.8037 96.7814 45.5373 96.635C45.2565 96.4766 44.4357 95.8646 44.1669 95.6078C43.8309 95.279 43.5957 94.0574 43.5981 93.2102C43.6005 92.819 43.5765 91.7438 43.5981 91.6118C43.6293 91.439 44.1045 90.7814 44.2821 90.6998C44.5437 90.587 50.7837 90.575 51.6261 90.6782C51.8037 90.7022 56.9997 91.6334 57.6381 91.955C57.8661 92.0702 58.4301 92.3606 58.4373 92.411C57.3117 92.4302 56.4117 92.3798 55.6989 92.183C53.9205 91.679 51.8973 90.863 49.6437 89.7926C47.9301 88.943 46.1469 87.7574 45.9933 87.503C45.7437 87.0686 45.6405 85.283 45.6357 84.9998C45.6333 84.5246 45.7053 84.1502 45.8805 83.963C46.0509 83.7902 46.8093 83.1014 47.0229 82.9358C47.4621 82.607 51.5493 81.7862 52.5813 81.7094C52.9101 81.6878 57.4197 81.6638 57.9813 81.7958C58.1733 82.2542 58.2453 82.7342 58.2093 83.3942C58.1973 83.5694 57.7605 83.7758 57.5253 83.8502C57.1173 83.9606 52.8645 83.9774 50.8029 83.9798C49.4349 83.9702 48.2901 83.9126 47.7069 83.735C46.6581 83.4038 46.3557 83.219 46.2237 83.051C46.3533 82.7654 46.5477 82.655 47.0781 82.643C49.4877 82.571 50.9037 82.6262 53.2989 83.1254C54.4269 83.3654 56.0565 83.831 56.8965 84.1694C57.5133 84.4214 61.1565 86.1686 61.7493 86.7038C61.8765 86.8214 62.3685 87.431 62.4333 87.503C62.8437 87.9782 62.9517 88.2038 62.9685 88.6934C62.9973 89.435 63.0309 91.1126 62.8701 91.7366C62.6469 92.5598 61.6773 94.0718 61.2909 94.5806C60.8709 95.1302 58.9629 97.2686 58.7805 97.4342C58.4901 97.2086 58.3869 96.9782 58.3989 96.4502C58.4181 95.6294 58.4709 93.9662 58.5525 93.5534C59.0949 90.8438 59.2965 88.8974 59.3517 87.3878C59.3781 86.6294 59.3565 85.5566 59.3517 85.3334C59.3589 89.1134 59.4093 98.819 59.1237 100.458C59.0901 100.636 58.8861 101.742 58.8933 101.886C58.5741 101.965 57.9093 101.197 57.7533 100.631" stroke="#EF586A" stroke-width="6" stroke-linecap="round"/>
<path d="M39.0312 93.7812C39.4944 94.6597 39.6049 95.0509 39.7153 96.4069C39.7369 96.6685 40.0633 98.5765 40.1809 99.4069C40.2433 99.8581 40.3297 100.033 40.5145 100.175L41.3137 99.0325" stroke="#EF586A" stroke-width="6" stroke-linecap="round"/>
<path d="M47.9354 89.9004C47.9282 90.222 47.909 90.9036 47.9354 91.0404C47.9738 91.2444 48.4802 92.2236 48.5066 92.298C48.5306 92.3652 48.6362 93.2196 48.7346 93.438C48.8282 93.6564 49.3826 94.3428 49.4186 94.4652C49.4978 94.7244 49.5746 95.4204 49.7618 95.6076" stroke="#EF586A" stroke-width="6" stroke-linecap="round"/>
<path d="M40.1731 31.6787C40.1923 32.2307 39.9715 32.6363 39.9427 32.7059C39.8827 32.8667 39.6811 33.3251 39.7147 33.8483C39.9643 34.0235 40.3627 34.2275 40.5139 34.3043C41.1139 34.6115 41.5099 35.0339 41.6563 35.1035C41.7595 35.1539 42.1507 35.1107 42.2275 35.2187C42.2755 35.2883 42.4027 35.4947 42.6835 35.5595" stroke="#EF586A" stroke-width="6" stroke-linecap="round"/>
<path d="M56.2098 25.8487L54.7146 25.9423C54.717 26.0383 58.9722 26.0263 61.089 26.0215C63.8562 26.0335 64.7226 26.1295 66.681 26.5975C66.549 26.5855 63.5226 26.9575 61.7946 27.2383C61.2834 27.3223 52.4682 27.3655 52.461 27.3655C51.7962 27.3823 50.913 26.8831 50.4138 26.7847C50.1906 26.7415 48.6378 26.3575 48.4506 26.3167C47.6418 26.1415 47.3154 25.9015 47.1402 25.8487C46.9914 25.8031 46.4706 25.8223 46.3002 25.6615C46.2018 25.5703 44.9394 24.8911 44.709 24.6343C44.6778 24.5983 44.2914 24.1303 44.1474 24.1663C43.749 24.2695 43.4562 24.4207 43.2138 24.6343C44.4186 24.7615 45.2226 24.6343 45.645 24.5407C45.8058 24.5263 48.609 24.5815 49.1538 24.5767C50.1594 24.5599 51.4266 24.2191 52.0026 24.1663C52.6362 24.1087 58.4202 24.2047 59.109 24.1663C62.721 23.9551 66.2826 23.0767 66.4938 23.0431C62.9802 23.0479 52.5642 23.0431 52.5642 23.0431C52.2882 23.1055 51.6882 23.4079 51.6282 23.4175C51.4386 23.4463 50.4498 23.4031 50.1114 23.3887C49.6338 23.3695 49.3674 23.4511 49.0098 23.6983C48.8778 23.7919 48.2274 23.7439 47.9826 23.7919C47.8794 23.8111 47.133 24.1639 46.953 24.1663C46.6242 24.1711 44.5602 24.5023 44.3346 24.5407C44.2122 24.5623 43.7154 24.6703 43.5882 24.7279C42.3906 25.2655 42.0162 25.2319 41.9034 25.2871C41.7498 25.3735 41.6826 25.5751 41.5314 25.6615C41.4474 25.7143 41.2818 25.6615 41.2506 25.7551C41.2338 25.8055 41.2506 27.3439 41.2506 27.4375C41.4114 27.5719 41.8122 27.7183 42.0906 27.8119C42.3066 27.9055 48.6546 28.8751 49.1034 28.8415C49.5018 28.8103 49.7514 28.8103 49.8522 28.8415C50.0922 28.9135 50.541 29.2327 50.7882 29.2159C52.2738 29.0983 54.1266 29.4031 56.5698 29.4175C61.0482 29.4103 68.5626 29.4007 68.6466 29.4007C69.6258 29.4079 71.1042 29.0719 71.3562 29.0287C71.505 29.0023 73.3146 29.0551 73.413 29.0287C73.5474 28.9927 75.0018 28.5031 75.657 28.4671C76.2954 28.4671 78.1698 28.2871 78.7434 28.0927C79.6626 27.7759 81.1026 27.4735 81.3618 27.3439C81.9978 27.0223 84.1194 26.3335 84.633 26.2231C84.9354 26.1583 85.3722 25.8919 85.4754 25.8487C85.5642 25.8007 85.5618 25.2559 85.569 25.0063C85.5786 24.1375 85.509 23.7247 85.2882 23.5111C84.9306 23.1967 81.9354 23.0191 79.353 23.0575C78.285 23.0743 76.1682 23.0671 75.3906 22.8751C75.1938 22.8247 73.8642 22.4359 73.113 22.1983C72.3858 21.9727 69.3978 21.7351 67.7994 21.4375C67.2666 21.3391 65.001 21.3751 64.905 21.3607C63.8826 21.1567 62.1138 21.1543 61.6626 21.1543C59.349 21.1543 53.7522 21.1711 53.685 21.1735C52.8498 21.2263 50.2842 22.3039 49.5714 22.7623C49.4394 22.8487 48.5754 22.9759 48.5442 23.1367C48.537 23.1991 48.5274 23.5135 48.5442 23.6047C48.585 23.7967 48.837 23.9479 49.2906 24.0727C51.5298 24.6463 53.709 24.8887 55.1442 25.1623C55.8402 25.2727 74.3226 25.2871 77.7138 25.2871" stroke="#72A89A" stroke-width="6" stroke-linecap="round"/>
<path d="M42.466 25.6619C42.3316 25.9499 43.3108 26.5427 44.4292 26.7851C45.2452 26.9507 48.6052 27.6827 49.7644 27.7067C57.3652 27.7115 73.0324 27.7283 81.0964 27.7427C81.6268 27.7379 82.6588 27.7307 83.1532 27.5867C83.5348 27.4667 84.1948 26.5715 84.262 26.1299C84.2668 26.0963 84.2884 24.4331 84.0748 24.0731C84.0244 23.9963 82.6012 23.4251 82.4836 23.4179C82.3564 23.4107 81.2212 23.4491 80.9884 23.4179C80.8084 23.3963 79.354 23.0651 78.5956 23.0243C77.8756 22.9859 72.9772 22.2131 71.3572 22.0163C70.426 21.8771 67.102 21.0539 66.4036 20.9867C66.0172 20.9507 64.8076 20.9963 64.7188 20.9867C64.4308 20.9555 63.4396 20.6171 63.4108 20.6123C63.238 20.5835 47.6668 20.6123 47.5156 20.7059C47.3284 20.8307 46.5796 21.2675 46.2076 21.4547C46.0612 21.5363 45.9556 21.8051 45.9268 21.8291C45.8716 21.8723 44.6764 22.3187 44.5228 22.3907C44.2756 22.5059 43.0348 23.2139 43.0276 23.2307C42.9436 23.4011 42.3412 23.4107 42.0916 23.4179C41.542 23.4347 40.9228 24.3131 40.69 24.4475C40.6948 24.6467 40.678 25.4915 40.69 25.5683C40.6996 25.6211 41.41 26.2979 42.1852 26.8787C42.6652 27.2267 42.9796 27.3227 43.6828 27.3443C43.8292 27.3491 49.0732 27.3467 50.9908 27.3515C54.1396 27.4019 58.8412 26.5403 58.9228 26.5043C59.1508 26.4011 60.658 25.7291 59.8564 25.2875C59.5996 25.1555 58.1284 24.9683 56.8372 24.8867C56.0236 24.8339 54.382 24.4595 54.1252 24.4283C53.4244 24.3467 46.6468 24.3371 46.486 24.3539C44.77 24.5219 44.6092 25.2443 44.6164 25.3811C45.8404 25.9259 54.2212 25.8539 57.8932 25.8491C59.3164 25.8539 63.7588 25.9211 64.5628 26.0771C65.0644 26.2067 65.9164 26.4035 66.862 26.4419C67.654 26.4779 68.8516 26.9843 68.926 27.2507C68.9404 27.3059 69.0004 29.5643 68.926 29.6819C68.7292 29.9819 68.0764 30.1787 67.5772 30.1571C67.4836 30.1499 51.418 30.1499 50.6956 30.1499C58.594 30.1475 71.8036 30.1523 72.4804 30.0779C73.966 29.9051 78.0532 29.1899 78.5932 29.2019C79.2772 29.2187 81.2284 29.2067 81.8308 29.1227C82.1356 29.0795 83.878 28.8131 84.5404 28.4675C85.0204 27.9899 86.0884 27.4403 86.3188 27.1571C86.434 27.0179 86.6188 26.6651 86.878 26.5979C87.346 26.4731 87.826 26.2715 87.814 26.1299C87.8044 26.0267 87.8068 25.4483 87.814 25.1003" stroke="#E8FFF9" stroke-width="6" stroke-linecap="round"/>
<path d="M84.6331 33.7041C85.0267 33.6369 85.4947 32.9841 85.7563 32.4873C85.7443 32.5209 84.1843 33.0969 83.9395 33.1977C83.2651 33.4761 81.7507 33.6705 81.3571 33.7689C80.0611 34.1985 77.2003 35.0097 75.9115 35.4201C75.3115 35.6073 73.9603 35.8305 73.5067 35.9481C72.7123 36.1473 70.9459 36.1449 70.5115 36.1449C66.3187 36.1401 59.0371 36.2313 55.9507 36.3273C51.6691 36.3249 46.3771 36.3225 45.3643 36.3201" stroke="#EF586A" stroke-width="6" stroke-linecap="round"/>
<path d="M68.9257 33.5166C68.9305 34.8078 68.9209 35.5758 69.0073 36.0558C69.1513 36.8238 69.4393 37.6614 69.4873 38.3766C69.4993 38.5662 69.8425 40.5654 69.8617 41.8374C69.8713 42.3654 71.1529 46.4094 71.6377 47.3526C71.7481 47.5662 72.8041 50.2686 73.9561 52.4286C74.4793 53.2326 75.7993 55.4166 76.5937 56.7966C77.0185 57.6486 79.0225 61.2942 79.2121 61.5654C79.5361 62.0382 79.7017 62.6622 80.0521 63.2478C80.0545 63.2526 80.3017 64.9638 80.3329 65.1174C80.7241 66.7806 81.1441 70.6278 81.1753 70.8222C81.4657 72.6318 81.4657 75.3606 81.4561 77.1798C81.4561 78.6942 81.4801 79.755 81.2689 80.3598C81.1657 80.6478 80.7961 81.4374 80.7073 81.855C80.4985 82.815 80.0737 83.5614 79.6801 84.4734C79.3033 85.335 78.8353 86.1222 78.6289 86.6598C78.5137 86.967 78.1297 88.827 77.8681 89.3622C76.7449 91.6038 76.0609 93.8622 75.1969 95.3358C74.2753 96.903 72.5257 99.7854 72.2929 99.9942C71.5345 100.657 69.9505 102.449 69.8617 102.519C69.7009 102.644 68.8489 102.975 68.8321 102.987C68.8201 102.994 67.5721 104.252 67.1497 104.576C66.9553 104.725 65.7553 105.641 65.4673 105.79C64.1113 106.484 63.8761 106.918 62.9425 107.66C62.1481 108.315 61.2385 109.061 60.8857 109.251" stroke="#E8FFF9" stroke-width="2.88" stroke-linecap="round"/>
<path d="M62.9419 108.689C62.7691 108.634 62.3131 108.989 62.0995 109.064C62.0635 109.076 61.3699 109.059 61.1659 109.157C60.1411 109.64 58.2643 110.141 57.7051 110.559" stroke="#E8FFF9" stroke-width="2.88" stroke-linecap="round"/>
<path d="M75.8447 33.5166C75.8471 37.4862 75.8447 44.079 75.8447 44.0814C76.0535 44.9022 76.0247 46.9326 76.1255 46.9806C76.2095 47.019 76.1927 47.6046 76.2191 47.8206C76.2503 48.0798 76.5911 48.7398 76.5935 48.7566C76.6223 48.9414 76.7735 49.9398 76.7807 50.0646C76.7903 50.2518 77.1575 50.6334 77.3423 51.2814C77.3759 51.4038 77.9015 52.791 77.9015 52.9638C77.8991 53.4222 78.1823 53.979 78.2759 54.2718C78.3359 54.4614 78.2399 55.1718 78.2759 55.3014C78.3311 55.503 78.6743 56.2398 78.7439 56.4222C78.7703 56.487 78.8159 56.8614 78.8375 56.9838C78.8759 57.2286 79.1807 57.783 79.2119 57.9198C79.2407 58.0398 79.2215 58.455 79.3055 58.5726C79.3343 58.6158 79.5791 58.8414 79.5863 58.947C79.6103 59.4774 79.8935 60.3558 79.9583 60.6294C80.3591 62.3502 80.2583 64.0782 80.8007 65.211C80.9183 65.4702 80.8703 66.9534 81.0815 67.1766" stroke="#E8FFF9" stroke-width="2.88" stroke-linecap="round"/>
<path d="M80.3324 60.2578C80.2916 60.4234 80.6372 61.3738 80.7068 62.5018C80.7308 62.9074 81.0524 65.0266 81.0812 65.2114C81.278 66.4978 81.2684 66.9178 81.2636 68.2354C81.2612 70.2514 81.2612 74.2642 81.2636 76.261C81.266 77.5234 81.2852 78.1282 81.0812 78.8002C80.9036 79.3882 80.8004 82.6498 80.7068 83.9122C80.7284 85.405 80.1764 87.2338 79.85 89.269C79.7612 89.8642 79.814 91.4386 79.586 92.0266C79.1684 93.0802 79.2236 94.9978 79.118 95.3194C79.094 95.3914 78.722 96.1018 78.65 96.349C78.5012 96.8578 78.4676 97.5634 78.4628 97.7506C78.458 97.9474 77.7764 99.2986 77.5292 100.556C77.4716 100.842 77.0084 102.457 76.9676 102.613C76.9484 102.683 76.4276 103.95 76.406 104.857C76.4036 105.085 76.094 105.462 76.0316 105.603C75.9932 105.69 75.8588 106.878 75.8444 106.914C75.842 106.919 75.4244 107.972 75.2852 108.128" stroke="#E8FFF9" stroke-width="2.88" stroke-linecap="round"/>
<path d="M79.7735 62.874C79.7375 64.0092 80.1599 64.89 80.1527 65.4228C80.1527 65.4972 80.1455 75.5244 80.0495 75.9372C79.9679 76.2852 79.7471 78.3852 79.7735 78.582C79.7999 78.8004 79.2695 79.9716 79.2119 81.0132C79.1927 81.3324 78.2423 84.2364 77.7143 85.2204C77.5247 85.5828 77.0255 87.0756 76.9679 87.186C76.8983 87.3156 76.6223 87.6324 76.5935 87.7452C76.3463 88.698 75.9023 89.298 75.3791 90.3636C75.1535 90.8196 74.3303 92.4444 74.1623 92.7948C73.9199 93.306 73.0871 94.4772 72.6671 95.226C72.5711 95.3652 71.3087 96.9252 71.2631 97.002C71.2487 97.026 71.1239 97.4292 71.0759 97.47C70.8911 97.5636 69.9671 98.3292 69.4871 98.778C69.3791 98.8812 68.3087 99.7188 67.7111 100.556C67.6295 100.66 67.3175 101.032 67.2431 101.116C67.2191 101.144 64.0991 103.168 63.9719 103.266C62.5151 104.396 59.6615 105.68 58.0799 106.633C57.9527 106.71 57.0047 107.053 56.6783 107.195C56.5319 107.291 56.4671 107.502 56.3039 107.567C56.2223 107.6 56.0351 107.6 55.7423 107.567C55.5959 107.836 54.3311 108.476 54.2471 108.503C54.1271 108.539 53.9903 108.46 53.8727 108.503C53.7911 108.534 53.7719 108.673 53.6855 108.69C53.4407 108.738 52.8191 108.7 52.8455 108.784C54.0263 109.062 56.1695 108.8 57.1295 108.484C57.5711 108.335 58.3055 108.373 58.5479 108.316C58.6343 108.296 58.6487 108.145 58.7351 108.128C59.0111 108.076 59.7623 108.109 60.1199 107.924C60.7919 107.576 61.7447 106.842 62.2631 106.619C63.6359 106.026 64.7927 105.649 64.9991 105.51C65.3711 105.26 66.3215 104.845 66.4943 104.764C66.7151 104.658 70.5215 101.778 71.0759 101.49C71.8847 101.07 72.5975 100.297 72.7607 100.088C72.8207 100.009 73.6223 98.8356 73.8815 98.406C73.9583 98.2788 74.4239 97.9524 74.8175 97.47C75.1775 96.9708 75.8759 96.0564 75.9383 95.7876C75.0503 96.2364 74.2247 96.6996 73.6871 97.1652C72.7679 97.9692 69.5663 101.099 69.2063 101.864C69.1127 102.071 68.7047 103.05 68.7383 103.079" stroke="#E8FFF9" stroke-width="2.88" stroke-linecap="round"/>
<path d="M82.5763 57.4521C82.4851 58.1049 83.6611 60.6465 83.6995 60.8169C83.7475 61.0329 83.8579 61.8346 83.9803 62.1274C84.1867 62.5426 84.6715 64.3209 84.8203 64.4649V64.3713" stroke="#EF586A" stroke-width="2.88" stroke-linecap="round"/>
<path d="M82.2021 59.5088C82.3821 60.5864 82.4469 61.4984 82.4829 61.5656C82.5597 61.7024 82.9221 62.156 82.9509 62.3144C82.9797 62.468 83.3373 65.5592 83.5125 66.2408" stroke="#EF586A" stroke-width="2.88" stroke-linecap="round"/>
<path d="M82.3893 58.0137V60.3513L82.2021 59.1345" stroke="#EF586A" stroke-width="2.88" stroke-linecap="round"/>
<path d="M79.7732 59.8838C79.7684 60.6638 79.7612 62.843 79.7732 63.155C79.7996 63.8558 80.3132 65.5118 80.426 66.1478C80.4812 66.4598 80.7236 68.3342 80.7068 68.579C80.3876 68.6102 80.2772 68.3606 80.3324 67.7366" stroke="#E8FFF9" stroke-width="2.88" stroke-linecap="round"/>
<path d="M78.4629 58.9473C78.4101 59.8929 78.5013 61.1505 78.7221 62.0793C79.1997 63.6921 80.5005 68.0961 80.5197 68.2041C80.6973 69.1857 80.7069 71.7825 80.7069 72.2241" stroke="#E8FFF9" stroke-width="2.88" stroke-linecap="round"/>
<path d="M79.025 80.6406C78.9938 81.3822 79.1186 82.4622 79.2122 83.163C79.229 83.343 79.2314 89.5566 79.097 89.967C78.3722 92.031 76.4378 96.8118 75.3794 99.6198C75.3314 99.7686 74.849 101.453 74.4434 102.238C74.2778 102.557 73.8962 103.04 73.8818 103.078C73.8122 103.287 73.5626 104.427 73.5074 104.576C73.493 104.612 73.1138 104.933 73.0418 104.95C72.9482 104.967 67.7666 104.967 66.6602 105.183C65.8322 105.353 62.0138 106.805 61.6346 106.82C61.4594 106.825 61.3058 106.952 61.2602 107.101C61.6274 107.264 62.8802 107.105 63.5066 106.796C63.965 106.563 68.4458 104.847 68.8298 104.684C69.449 104.422 73.0994 102.562 73.5074 102.238C73.9034 101.907 73.9754 101.456 74.1626 101.115C74.0858 100.957 73.1234 101.089 71.9186 101.489C70.7666 101.828 69.6098 102.327 69.2066 102.332C69.0818 102.334 68.6114 102.416 68.5538 102.613C68.5202 102.733 68.6018 102.872 68.5538 102.987C68.4674 103.193 68.2562 103.335 68.1794 103.546C68.1506 103.623 68.1818 103.717 68.273 103.827C68.885 103.606 71.8706 101.374 72.1058 101.209C72.4946 100.94 74.0114 100.481 74.4746 100.201C74.7434 100.035 75.7226 99.2382 76.3658 98.9022C77.0234 98.559 77.8682 98.0838 77.9018 97.9374C77.909 97.9038 77.909 97.8414 77.9018 97.7502C77.9378 98.4414 77.8538 99.027 77.621 99.5262C77.561 99.6606 77.141 100.405 76.6874 101.021C76.6298 101.103 76.4066 101.489 76.4066 101.957C76.3994 102.01 76.0802 102.613 75.9386 102.893C75.5282 104.086 75.2114 104.525 75.0986 104.857C75.0266 105.065 73.6034 107.141 73.5074 107.194C73.313 107.295 72.7034 107.785 71.225 107.765C69.2978 107.765 65.5706 107.761 63.7682 107.753C63.2618 107.756 62.069 107.969 61.5722 107.957C60.6386 107.938 58.9802 107.936 58.9226 107.941C58.901 107.943 57.7154 108.644 57.5186 108.783C57.557 108.879 58.7378 109.066 59.3786 109.172C59.8562 109.246 67.1258 109.253 67.1498 109.251C67.2674 109.239 69.1394 107.835 69.4874 107.66C69.6434 107.576 69.9242 107.509 70.049 107.475C70.1954 107.429 70.613 106.253 70.6274 105.497C70.637 104.626 70.397 104.05 70.2362 103.921C70.1594 103.865 69.353 103.508 69.0194 103.453C68.7986 103.417 68.081 102.91 67.8986 102.893C67.649 102.877 66.3194 102.869 66.2162 102.893C65.4722 103.059 65.3546 103.594 65.1866 103.733V103.827" stroke="#E8FFF9" stroke-width="2.88" stroke-linecap="round"/>
<path d="M78.8371 56.8909C78.7747 56.5045 77.7931 55.3165 77.7139 55.2085C76.2523 53.1445 75.2635 51.0181 74.3491 49.5037C73.9291 48.8965 73.2259 47.8333 73.2259 47.4469C73.0747 46.8133 71.7523 44.1013 71.5435 42.7717C71.4187 41.9605 71.1523 40.9309 71.1571 40.3837C71.1595 39.8869 71.2003 39.4933 71.1691 39.4069C71.0659 39.1189 70.5931 37.8973 70.6027 36.8053C70.6123 35.7181 70.5931 35.3389 70.7971 35.1061C70.8235 35.0749 70.8547 35.0125 70.8907 34.9189C71.2627 34.8733 71.8747 34.6645 72.0115 34.6381C72.2251 34.5997 72.7411 34.6333 72.8539 34.5445C73.2211 34.2517 74.4283 34.2661 74.6299 34.2637C74.7979 34.5133 74.9011 34.6861 74.9107 34.8253C74.9203 34.9573 74.8843 35.9653 74.9107 36.1333C75.0979 36.8821 75.3355 38.5669 75.3787 38.9389C75.6643 41.6821 75.6691 44.6461 75.6643 46.7389C75.6547 49.2469 75.7987 49.7653 76.0315 50.4397C76.0363 49.1485 75.9451 48.6757 75.4843 47.7205C74.9155 46.5637 73.3531 41.8453 73.2787 41.4757C73.2115 41.1157 73.2427 36.6901 73.2259 36.6013C73.1827 36.3709 72.4243 36.2293 72.0115 36.3205C71.7787 36.3805 71.7499 36.7909 71.7307 36.8821C71.5411 38.0005 71.5483 38.1901 71.5507 39.7189C71.5483 41.2573 71.5243 42.1357 71.7307 42.7717C71.8867 43.2421 71.9131 43.6141 71.9179 43.7077C71.9227 43.8349 72.0643 43.9261 72.2923 43.9885" stroke="#E8FFF9" stroke-width="2.88" stroke-linecap="round"/>
<path d="M40.3174 31.8516C40.8574 32.2788 42.403 33.0492 42.9382 33.1572C44.6014 33.4284 46.1734 33.9468 47.7598 34.122C48.0598 34.1556 48.8206 34.1436 49.1494 34.122C49.7494 34.0836 51.2518 34.6404 52.0486 34.77C52.7014 34.8732 76.4518 34.8756 76.5214 34.8804C76.927 34.9044 77.4334 34.6668 77.6566 34.626C77.9038 34.5828 78.5926 34.6044 78.991 34.4004C79.2694 34.2612 79.9966 33.8988 80.179 33.87C80.3878 33.8388 82.2502 33.6108 82.3222 33.618C82.8142 33.654 83.5534 33.2388 84.0886 33.114C84.2758 33.0732 85.3414 32.3604 85.351 32.3556C85.507 32.2956 85.939 32.2716 85.9822 32.2308C86.071 32.1372 86.3038 32.0892 86.4862 32.1036" stroke="#C5273A" stroke-width="2.88" stroke-linecap="round"/>
<path d="M41.5801 32.1035H41.4529C41.4385 32.2835 41.5129 32.5859 41.7073 32.7347C42.1273 33.0515 44.2633 33.6803 44.4817 33.7427C44.6281 33.7883 45.7465 33.9515 45.9961 33.9971C46.6657 34.1171 47.3425 34.0859 47.6353 34.1219C47.8177 34.1459 50.1841 34.7891 51.0409 34.8803C51.2161 34.8971 68.8801 34.8803 71.0977 34.8803" stroke="#C5273A" stroke-width="2.88" stroke-linecap="round"/>
<path d="M43.0947 32.8623C43.6779 32.8359 44.9595 33.3663 45.2379 33.4911C45.4299 33.5775 45.7683 33.8871 46.1211 33.9975C47.9571 34.5615 49.6347 34.6503 50.0307 34.7535C51.4659 35.1207 52.0251 35.1951 53.1123 35.1591C53.5131 35.1447 54.0771 35.1063 54.1947 35.1327C54.2883 35.1519 56.2083 35.8695 56.3379 35.8887C56.4099 35.8983 74.0307 35.9175 74.2515 35.8887C74.5899 35.8431 76.7163 35.3463 77.1531 35.3847" stroke="#C5273A" stroke-width="2.88" stroke-linecap="round"/>
<path d="M41.5797 33.6181C41.2917 33.6109 40.9341 33.6469 40.8237 33.7429C40.7085 33.8437 40.2309 34.4557 40.0653 34.6261C39.8397 34.8685 39.8541 35.2645 39.8133 35.3845C39.7509 35.5813 38.8677 36.9613 38.6781 37.4029C38.3565 37.9549 37.9989 39.2365 38.0469 39.9253C38.0733 40.2901 37.1157 42.5437 37.6701 43.2037C37.7085 43.2493 37.7925 43.4989 37.7949 43.5829C37.8117 43.7629 38.4405 44.0965 40.6965 45.6013C41.4453 46.1989 43.0413 46.9069 43.6413 47.1133C43.9845 47.2309 44.3589 47.2117 44.4813 47.2405C44.7165 47.2957 45.2973 47.7901 45.4893 47.8717C45.8685 48.0301 47.2581 47.9749 47.7597 48.1237C48.3165 48.2989 48.7845 48.4837 48.8949 48.6277C49.0845 48.8821 49.4229 49.8277 49.4013 50.1421C49.3965 50.2021 49.3965 50.2453 49.4013 50.2693" stroke="#C5273A" stroke-width="2.88" stroke-linecap="round"/>
<path d="M49.4014 50.2695L49.9054 107.536" stroke="#C5273A" stroke-width="2.88" stroke-linecap="round" stroke-linejoin="round"/>
<path d="M47.1314 106.527C47.129 104.696 47.1242 99.3105 47.1314 99.0849C47.1626 98.0841 46.7282 94.0497 46.5002 91.9617C46.4402 91.4721 45.8066 89.4081 45.8258 88.7793C45.833 88.5969 45.8978 87.8361 45.869 87.6057C45.8474 87.4305 45.6506 86.6961 45.617 86.3433C45.581 85.9617 45.6146 63.8649 45.617 63.7641C45.6506 62.6073 45.401 61.3857 45.365 60.9897C45.341 60.7137 45.3578 55.3497 45.365 53.4225C45.3554 52.5681 45.3074 51.1689 45.6194 50.3193C45.893 49.5753 46.1354 48.0321 46.121 47.7441" stroke="#C5273A" stroke-width="4.08" stroke-linecap="round"/>
<path d="M47.8867 50.2695C47.6659 50.5263 47.6707 50.9871 47.6347 51.1527C47.6275 51.1791 47.2075 51.7839 47.1307 52.0335C47.0659 52.2399 46.6651 53.7111 46.6243 54.5583C46.6243 54.5847 43.9387 65.0823 43.8499 65.6583C43.8475 65.6751 43.8595 70.4127 43.8595 72.6879C43.8523 76.1223 43.8139 77.3103 44.0299 79.0335C44.1019 79.6479 44.0947 86.9919 44.0827 88.8807C44.0875 89.9223 44.8747 95.2527 44.8603 95.9319" stroke="#C5273A" stroke-width="4.08" stroke-linecap="round"/>
<path d="M48.1387 54.8096H48.2659C48.3907 54.9848 48.3955 58.4792 48.3979 60.032C48.3883 69.1208 48.3835 88.0952 48.3907 88.2368C48.4459 89.1824 48.9499 90.872 49.0219 91.2632C49.1443 91.952 49.1275 96.0008 49.1491 96.056C49.2115 96.2336 49.4227 96.6368 49.4011 97.0664C49.3915 97.2128 49.3987 97.9352 49.4011 98.2016" stroke="#C5273A" stroke-width="4.08" stroke-linecap="round"/>
<path d="M43.0946 53.2952C43.085 52.808 43.0802 52.076 43.0946 51.908C43.109 51.6824 42.8978 51.4064 42.7994 51.284C42.5258 50.9528 40.9226 50.084 40.445 49.6376C40.0658 49.196 38.825 47.9024 38.8058 47.8712C38.2274 46.9112 38.0498 46.7456 37.7954 46.6088C37.8122 46.1624 37.4738 45.2792 37.4186 45.2216C37.2746 45.0656 37.289 43.9856 37.2938 43.3616C37.2938 43.2248 37.2914 43.088 37.2914 42.9512" stroke="#C5273A" stroke-width="4.08" stroke-linecap="round"/>
<path d="M37.0391 39.6729V42.6992" stroke="#C5273A" stroke-width="4.08" stroke-linecap="round"/>
<path d="M40.8242 49.5107C40.9274 49.6283 42.365 50.7707 42.5882 50.8979C43.1474 51.2099 43.9874 51.2891 44.3546 51.2771" stroke="#C5273A" stroke-width="4.08" stroke-linecap="round"/>
<path d="M40.318 48.5029C40.3036 48.5821 40.39 48.8173 40.5724 48.8821C40.8124 48.9661 41.506 49.0429 41.782 49.1629C42.0436 49.2757 42.6964 49.7557 42.9676 49.8901C43.1428 49.9789 43.9948 50.0893 44.1028 50.1421C44.1916 50.1829 44.5108 50.5309 44.6068 50.5213" stroke="#C5273A" stroke-width="4.08" stroke-linecap="round"/>
<path d="M37.543 47.999V48.503" stroke="#C5273A" stroke-width="4.08" stroke-linecap="round"/>
<path d="M37.543 48.5029L38.047 101.987" stroke="#C5273A" stroke-width="4.08" stroke-linecap="round" stroke-linejoin="round"/>
<path d="M38.0469 101.986H38.2989" stroke="#C5273A" stroke-width="4.08" stroke-linecap="round"/>
<path d="M38.8057 101.987C39.4297 101.98 39.8281 102.001 40.1305 102.126C40.9129 102.445 42.7657 103.477 43.6441 103.972C44.9161 104.711 47.7073 106.545 47.8873 106.653C48.0337 106.741 49.3921 107.337 49.5265 107.411C49.5049 107.514 49.1785 107.577 48.7705 107.536C48.6025 107.517 48.3553 107.154 48.2665 107.032C48.1393 106.854 47.8273 106.72 47.7601 106.653C47.6545 106.547 47.3881 106.12 47.1313 105.897C46.0321 104.939 44.4265 103.379 43.5985 102.616C42.9673 101.987 42.7033 101.836 42.4633 101.356C42.4297 101.31 42.1009 101.188 42.0841 101.104C42.0697 101.02 42.0001 100.768 41.9593 100.725C41.8417 100.597 41.8777 100.211 41.8321 100.093C41.7457 99.8654 41.0521 98.2766 40.5721 97.823C40.3225 97.5878 40.3153 97.5518 40.3057 94.6094C40.3057 89.999 40.3177 81.3302 40.3633 80.4638C40.3777 79.943 39.7585 78.0998 39.7609 77.579C39.8137 75.623 39.8257 71.8982 39.8233 69.8678C39.8185 68.9942 39.6625 67.955 39.5617 67.4246C39.5425 67.259 39.5641 61.7462 39.4417 61.319C39.2665 60.7142 39.2881 53.0006 39.3097 52.9166C39.4153 52.559 39.8785 52.3166 40.4449 52.2878C40.7185 52.2854 41.1673 52.2902 41.4529 52.2878C41.6137 52.295 41.9977 52.811 42.0841 53.1686C42.1393 53.4038 42.0697 54.8702 42.0841 55.0622C42.0985 55.235 42.8137 57.5726 42.8425 57.7118C42.8593 57.803 42.8857 62.1374 42.8425 62.3774C42.7945 62.6222 42.3337 64.0862 42.3361 65.1542C42.3433 66.1766 42.0721 67.115 42.0841 67.9286C42.0889 68.1878 42.0889 82.1342 42.0841 82.4342C42.0577 83.7422 41.6353 85.355 41.5801 85.8398C41.5513 86.1062 41.6473 88.2446 41.5801 88.7414C41.4889 89.3918 40.8697 90.8678 40.8337 91.4654C40.8241 91.6574 40.8193 99.287 40.8241 99.3374C40.8577 99.6854 41.4073 100.585 41.6905 101.224C41.8249 101.526 42.0169 102.385 42.4633 102.995C42.5617 102.813 43.1233 101.452 43.2193 100.852C43.3609 99.9542 43.6129 99.1262 43.5985 98.327C43.5913 98.0174 43.5985 94.5446 43.5985 93.7862L43.4713 98.9582C43.3297 98.9078 43.3345 97.1198 43.3369 96.0806C43.3729 93.2246 43.1137 88.4822 43.0945 88.3622C43.0009 87.8678 42.3625 86.723 42.3361 86.5958C42.2785 86.3078 42.3097 85.511 42.0841 85.0838" stroke="#C5273A" stroke-width="4.08" stroke-linecap="round"/>
<path d="M42.3362 41.9434C42.3074 42.0706 42.4322 42.5554 42.5882 42.8266C42.6242 42.8842 42.9578 42.9874 43.5362 43.213C44.1314 43.4386 44.4842 43.4266 44.6066 43.4554C44.753 43.489 45.5306 43.9378 45.617 43.9618C45.6914 43.981 47.7626 43.957 48.6434 43.9618" stroke="#EF586A" stroke-width="4.08" stroke-linecap="round"/>
<path d="M41.0762 41.6914C41.5922 41.7682 41.8658 41.9938 41.9594 42.0682C42.2018 42.265 43.469 42.7618 43.9682 42.949C44.5058 43.1674 45.5978 43.6282 46.361 43.7098C47.4098 43.8226 48.1298 44.221 48.7778 44.2186C50.8922 44.2186 54.2306 44.2162 55.4546 44.2138" stroke="#EF586A" stroke-width="4.08" stroke-linecap="round"/>
<path d="M42.3358 42.1953C42.3286 42.5961 42.307 43.4481 42.3358 43.5825C42.379 43.7721 42.823 44.1609 42.967 44.2137C43.0486 44.2377 44.3062 44.5809 45.115 44.8161C45.499 44.9289 50.7094 45.4329 50.9134 45.4737C51.1246 45.5169 51.7534 45.9657 51.7966 45.9801C51.895 46.0089 52.687 45.9729 52.807 45.9801C52.9438 45.9849 53.6494 45.6897 53.6902 45.7281" stroke="#EF586A" stroke-width="4.08" stroke-linecap="round"/>
<path d="M86.9902 34.3741L87.1174 34.1221C87.2614 34.2973 88.0102 34.6141 88.2526 35.0053C88.327 35.1325 88.7758 35.4013 88.8814 35.5093C88.9486 35.5765 89.8702 36.5869 90.0166 37.2757C90.0598 37.4821 90.0478 38.0701 90.271 38.2861C90.5158 38.5261 90.499 38.7085 90.523 38.7901C90.583 39.0085 90.8158 39.5917 90.7774 39.9877C90.7366 40.4629 91.2574 41.9797 91.279 42.3205C91.2838 42.4045 91.4638 42.7285 91.531 42.8269C91.543 42.8437 91.5238 43.2181 91.531 43.7101" stroke="#EFB3BA" stroke-width="2.4" stroke-linecap="round"/>
<path d="M91.5314 43.71L90.7754 102.491" stroke="#EFB3BA" stroke-width="2.4" stroke-linecap="round" stroke-linejoin="round"/>
<path d="M68.8008 36.143C68.8608 35.9438 70.0872 35.5358 70.1688 35.5094C70.62 35.3702 71.076 35.3726 71.0976 35.363C71.5656 35.147 72.4632 35.1854 73.3464 35.1662C74.4408 35.1446 75.8232 35.8598 75.888 35.8502L76.3272 36.2918L75.936 34.5326L69.2425 34.4822C69.1777 34.427 69.1969 36.0806 69.1441 36.2918C69.1201 36.3782 69.0552 36.5414 68.9472 36.779C68.9016 36.359 68.9472 35.8286 68.8992 35.6558C68.868 35.543 68.676 35.2886 68.7048 34.9718C68.7216 34.7678 68.6904 34.6046 68.6064 34.3838" stroke="#72A89A" stroke-width="2.4" stroke-linecap="round"/>
<path d="M69.3887 36.4382V36.4862C69.4535 36.5366 74.1047 36.5342 74.4215 36.4382C74.5943 36.383 75.2999 36.3422 75.4487 36.3398" stroke="#72A89A" stroke-width="2.4" stroke-linecap="round"/>
<path d="M43.6201 29.3847C43.6273 28.7007 43.6129 28.0983 43.6705 27.9975C44.0209 27.4023 45.1777 26.7567 45.6241 26.6103C46.2961 26.3943 48.0241 25.8495 48.5017 25.5327C49.1449 25.2759 50.2177 25.2735 50.4025 25.1727C50.8777 24.9159 58.3729 24.5343 58.7233 24.4527C58.7761 24.4407 59.3785 24.2439 60.6097 24.2391C64.8073 24.2439 72.1921 24.2439 75.3793 24.2391C76.8217 24.2199 77.8873 24.5583 78.2449 24.5559C78.6457 24.5607 80.6233 25.1319 80.8633 25.2759C81.0025 25.3575 81.1081 25.3887 81.1729 25.3791C81.3961 25.6095 82.9657 26.7087 83.2777 26.9199C83.4481 27.0351 84.0361 27.9423 84.1513 28.3071L84.4081 28.9743" stroke="#72A89A" stroke-width="2.4" stroke-linecap="round"/>
<path d="M67.9705 21.3708C69.7321 21.3636 73.6465 21.366 74.5465 21.5244C76.5721 21.7908 78.2257 22.2444 79.6321 22.398C80.0401 22.4484 80.2033 22.602 80.3497 22.6548C80.7457 22.8036 82.4689 23.8044 83.1241 24.1956C83.0833 24.2172 79.1281 23.058 78.5017 22.9644C76.9081 22.6548 73.3417 21.9588 73.2097 21.9348C72.7945 21.8676 65.9209 20.958 65.8921 20.958C63.8113 20.958 60.1753 20.9604 58.6201 20.9604" stroke="#E8FFF9" stroke-width="2.4" stroke-linecap="round"/>
<path d="M42.3867 27.1232C42.6147 27.1304 45.0531 25.0304 45.5259 24.7088C47.0667 23.6624 49.7187 22.3808 50.2467 22.1408C51.3531 21.6416 52.4307 21.3896 55.1787 20.9072C56.2587 20.6672 57.7563 20.6552 58.7259 20.6504C59.2515 20.6504 60.1251 20.6504 60.4707 20.6504" stroke="#E8FFF9" stroke-width="2.4" stroke-linecap="round"/>
<path d="M51.6339 25.5826C51.6051 25.6162 48.0459 27.097 47.5251 27.5866C47.4795 27.6298 46.5555 28.633 46.4979 28.6642C46.4283 28.7002 46.1499 29.0314 45.6243 29.077C45.3747 29.0938 45.2355 28.9402 45.1611 28.8202L46.4451 28.6138L45.1611 29.3338C45.2571 29.3938 66.0099 29.4922 74.2731 29.4898C76.1523 29.4874 77.1363 29.461 77.3211 29.641C77.0595 29.9002 75.4803 30.289 74.9571 30.3322C73.9371 30.4162 72.7731 30.5866 71.8347 30.7882C71.0931 30.9394 67.4379 30.9346 66.1707 31.1314C63.7851 31.5034 57.6603 31.5418 54.0291 31.5394C53.5179 31.5394 53.0787 31.5562 53.0211 31.5418C52.6035 31.429 52.5483 31.1578 52.4571 31.0786C52.5507 30.937 52.6323 30.8362 52.7139 30.8218C53.4699 30.709 77.5707 30.721 77.5779 30.721C79.0995 30.4858 81.6507 29.4634 81.9939 29.2306C82.1979 29.0818 82.2435 29.005 82.2507 28.7674C82.2531 28.7242 82.2507 28.189 82.2507 27.997C82.0659 27.7594 80.5371 27.4714 80.3499 27.433C80.1579 27.3946 79.7547 27.2362 79.6323 27.2266C76.8843 27.0202 53.8539 27.0226 53.8443 27.0226C53.4915 27.013 51.9075 27.3274 51.8907 27.3298C51.8187 27.337 51.2427 27.3274 50.9667 27.3298L50.8635 27.0226H50.4531L50.0931 27.5866C50.2371 27.6778 58.3707 25.8706 62.3427 25.5802C63.7587 25.4794 67.0467 25.4746 69.2451 25.4746C71.1747 25.477 73.6275 25.477 75.2931 25.7218C75.7011 25.7818 76.1907 25.8922 76.3947 25.8922C76.5051 25.9138 76.9011 26.197 77.0115 26.2498C77.1195 26.305 77.5155 26.3002 77.5251 26.3026C77.5683 26.3146 79.2051 27.2074 80.0427 27.8938C80.0715 27.9202 80.3043 28.2682 80.2995 28.6642C79.2963 28.9258 77.8371 29.0746 75.6891 29.0794C74.8947 29.0818 74.7051 29.005 74.5971 28.921L74.5467 28.6138C74.7699 28.1674 77.2251 27.949 77.4219 27.9466" stroke="#72A89A" stroke-width="2.4" stroke-linecap="round"/>
<path d="M41.8947 27.4375C41.8875 27.8623 42.1467 28.1935 42.1803 28.2319C42.6315 28.7143 44.1795 29.2519 44.6763 29.2519C44.8563 29.2615 45.2115 29.6167 45.8691 29.5927C46.5219 29.5663 52.5795 30.5911 52.8507 30.6151C54.2691 30.7447 56.0283 31.0255 57.9027 30.9559C58.0611 30.9487 58.2435 31.0687 59.2659 31.0615C61.6179 31.1839 74.6571 31.1959 74.7627 31.1839C75.7635 31.0447 77.4291 30.4303 77.6571 30.3871C77.7171 30.3775 78.1731 30.0751 78.2811 30.0487C78.3915 30.0199 78.7059 30.0343 78.9051 29.9335" stroke="#E8FFF9" stroke-width="2.4" stroke-linecap="round"/>
<path d="M70.8457 30.8437C71.7625 30.8461 75.4705 30.3037 76.0081 30.2893C77.2009 30.2245 80.0497 30.1261 80.8921 29.8213C80.9473 29.8045 82.3729 29.8261 82.4257 29.8213C83.3977 29.7061 84.4513 29.3485 84.6961 29.3677C84.7441 29.3701 84.8017 29.3701 84.8665 29.3677L86.1721 28.9141" stroke="#E8FFF9" stroke-width="2.4" stroke-linecap="round"/>
<path d="M73.9102 31.0689C74.1046 31.0377 75.0166 30.6273 75.7822 30.4449C77.8198 29.9697 79.7254 29.1921 80.2102 29.0817C80.5222 29.0145 81.7414 28.8633 81.8566 28.7985C82.0102 28.7121 83.4886 28.2993 83.7286 28.2321C84.2854 28.0809 85.8574 26.9385 86.1718 26.9817" stroke="#E8FFF9" stroke-width="2.4" stroke-linecap="round"/>
<path d="M45.5803 93.625C45.5923 94.1458 44.6779 98.5786 44.4979 99.229C44.0515 100.859 44.0491 102.179 44.0083 102.371C43.9771 102.515 43.7803 102.865 43.7947 103.22C43.8283 104.036 43.7947 105.061 44.0083 105.32C44.0683 105.39 44.2267 105.591 44.2051 105.911L44.7931 106.206" stroke="#C5273A" stroke-width="2.4" stroke-linecap="round"/>
<path d="M91.3463 93.6299C91.3583 94.1915 91.1687 94.9955 91.1447 95.0939C90.9407 95.9795 90.9455 96.7139 90.8423 97.1651C90.8135 97.2875 89.6855 100.695 89.2751 101.411C89.1647 101.603 88.8263 102.695 88.1135 103.482C87.2495 104.439 86.5775 105.078 86.3447 105.301L86.3951 105.351" stroke="#EFB3BA" stroke-width="2.4" stroke-linecap="round"/>
<path d="M44.0352 26.2256V27.7256" stroke="#E8FFF9" stroke-width="2.88" stroke-linecap="round"/>
<path d="M84.5234 24.999V25.407" stroke="#E8FFF9" stroke-width="2.88" stroke-linecap="round"/>
<path d="M45.9668 26.6504C45.4004 26.6504 44.4716 26.6528 44.3996 26.6072C43.9532 26.2424 43.6124 26.012 43.3988 25.9112C43.3628 25.8056 42.998 25.6184 42.9644 25.5632C42.8228 25.3112 43.2116 24.0704 43.2692 23.8664C43.3028 23.7464 43.7252 23.0552 43.7036 22.8656L44.138 21.9512" stroke="#72A89A" stroke-width="2.4" stroke-linecap="round"/>
<path d="M81.5469 26.3891L82.4613 26.0411C83.2005 25.3019 83.8053 24.1643 83.8101 24.0851C83.8125 23.9963 83.8893 22.8251 83.8965 22.6043C83.8989 22.5131 83.7981 22.2227 83.8101 22.1699C83.9709 22.4075 84.2205 22.7243 84.5493 23.7371C84.7221 24.2819 84.6693 24.9899 84.6357 25.0403L82.9389 25.4315" stroke="#72A89A" stroke-width="2.4" stroke-linecap="round"/>
<path d="M47.9998 25.7774H47.959C49.4518 25.2614 52.9774 24.3734 53.0902 24.371C54.115 24.3518 55.1542 24.0398 55.159 24.0398C55.1902 24.035 56.8582 24.0398 57.7246 24.0374C58.6438 24.035 60.0046 23.6918 61.1998 23.7086C63.211 23.7086 66.5422 23.7086 67.8622 23.7086" stroke="#72A89A" stroke-width="2.4" stroke-linecap="round"/>
<path d="M56.3594 23.7085C57.5594 23.7181 60.3026 23.3749 61.7618 23.3701C63.9986 23.3725 68.9042 23.3677 68.981 23.3773C69.6674 23.4589 70.9466 23.5429 71.1314 23.5429C71.3594 23.5837 72.5234 23.7709 73.6154 24.0805C73.8314 24.1405 76.9922 25.0357 77.0066 25.0741L80.525 25.4461" stroke="#72A89A" stroke-width="2.4" stroke-linecap="round"/>
<path d="M82.2624 25.6118C80.6712 25.6166 79.5888 25.4486 78.2064 25.0742C77.3472 24.839 75.5016 24.5462 75.4344 24.5342C75.4296 24.5342 67.9392 24.5366 67.6152 24.5342" stroke="#72A89A" stroke-width="2.4" stroke-linecap="round"/>
<path d="M67.7783 23.9551C71.5103 23.9551 76.9079 23.9551 77.4215 24.0799C80.1455 24.8575 80.7431 25.0903 80.8151 25.1959H80.9375" stroke="#72A89A" stroke-width="2.4" stroke-linecap="round"/>
<path d="M79.6962 24.7836C77.4546 24.7788 75.9618 24.8292 74.7714 24.4932C74.5866 24.4524 73.7994 24.2364 73.4898 24.2052C70.4706 23.946 68.613 23.9556 68.3994 23.9556L75.3522 24.0396L71.5026 23.79L75.8898 24.0396" stroke="#72A89A" stroke-width="2.4" stroke-linecap="round"/>
<path d="M62.8131 86.1159C62.6475 86.6199 62.0547 87.3831 61.7667 87.5415C61.5291 87.6711 60.9651 87.8463 60.3411 88.3023C60.1515 88.4391 59.4003 88.8879 59.2947 88.9671C58.9371 89.2383 58.7211 89.8359 58.6299 90.0135C58.5051 90.2559 57.9075 91.1895 57.7731 91.4391C57.7179 91.5399 57.4995 92.1255 57.3939 92.2959C57.3339 92.3919 56.9475 92.6199 56.9187 92.8647C56.6715 94.9431 56.7459 95.9415 56.8227 96.6687C57.6411 96.7455 60.8787 96.7695 60.9099 96.7623C61.4739 96.6591 62.9283 95.3271 63.3819 94.9575C63.5235 94.8399 64.6083 93.4095 64.7139 93.2463C64.8315 93.0639 65.4531 92.5527 65.7603 92.1999C66.1611 91.7247 66.7227 90.5607 66.8043 90.3927C67.2051 89.4591 70.0467 85.6191 70.5123 84.4047C70.5987 84.1815 70.6971 83.0103 70.8939 82.6935C71.0139 82.4991 71.1867 82.3335 71.2731 82.1223C71.3475 81.9447 71.4099 81.3855 71.5587 81.2679C71.5899 81.2415 71.6523 81.2103 71.7483 81.1719" stroke="#E8FFF9" stroke-width="1.68" stroke-linecap="round"/>
<path d="M60.6796 81.8297C60.9724 81.8945 61.3612 82.0217 62.6596 82.0265C69.9628 82.0193 70.2004 82.0289 70.6612 81.8297C70.8436 81.7481 71.122 81.2729 71.422 81.1649C71.4748 80.9009 71.6668 80.4737 71.7076 80.3081C71.7316 80.2121 71.7316 77.5241 71.7076 77.3609C71.6428 76.9481 71.3548 76.7465 70.7572 76.6001C70.2652 76.5017 64.198 76.5065 64.198 76.5065C64.0324 76.4873 63.2428 76.1489 63.0556 76.1249C62.8684 76.1009 62.4364 76.1153 62.2012 75.9353C61.0396 75.0065 60.8644 74.5025 60.586 73.8449C60.4708 73.5689 59.8084 72.5897 59.7292 71.9417C59.7124 71.8169 59.7196 71.4473 59.6332 71.3729C59.374 71.1377 58.7932 68.6897 58.7788 68.6153C58.7692 68.5673 58.774 65.2985 58.8748 65.2889C59.302 65.2769 59.9332 65.4065 60.0988 65.4521" stroke="#E8FFF9" stroke-width="1.68" stroke-linecap="round"/>
<path d="M66.7973 57.0979C66.5285 56.6875 66.2861 55.9699 65.8133 55.4011C65.7173 55.2883 65.2829 54.4963 65.1485 54.3547C65.0573 54.2563 64.2629 53.6059 64.1981 53.5003C63.9461 52.9987 63.4733 52.5427 63.3413 52.4539C63.2429 52.3867 61.2005 52.3483 61.0613 52.3579C60.7373 52.3867 59.9813 53.1523 59.9189 53.3107C59.7821 53.6683 59.6309 54.5635 59.5397 54.8299C59.3309 55.4443 59.3741 56.5771 59.3501 57.2083C59.3381 57.4699 59.5037 58.2955 59.5397 58.3483C59.9333 58.8811 59.9189 58.9243 60.4901 59.4883C60.5885 59.5843 60.9965 59.5771 61.1549 59.5843C61.4909 59.5963 61.8101 59.8819 61.9157 59.9635C61.9781 60.0091 62.6885 59.8579 62.8661 59.7739C63.0173 59.7019 64.4069 58.7155 64.6757 58.3123C64.9421 57.9067 65.5853 56.6491 65.6237 56.4475C65.6597 56.2579 65.9357 55.3147 66.0029 55.0219C66.0341 54.8875 66.0125 50.6155 66.0029 50.5531C65.9453 50.0707 65.5325 49.1371 65.4341 48.8419C65.3261 48.5323 64.6517 47.4691 64.5773 47.4163C64.2461 47.1787 63.5501 46.7035 63.3413 46.6555C63.2597 46.6363 61.3445 46.6627 60.2165 46.6603C59.7341 46.6579 58.3253 46.6267 57.4469 46.8451C57.3533 46.8619 57.0725 46.8667 56.6885 47.0347" stroke="#E8FFF9" stroke-width="1.68" stroke-linecap="round"/>
<path d="M60.9912 66.407C61.3344 66.5942 62.1384 67.3622 62.652 67.631C62.76 67.6886 65.5944 69.3566 66.6768 69.5558C66.8496 69.587 67.3128 69.563 67.5528 69.6446C67.6752 69.8942 67.908 69.9158 69.1272 69.9062C69.5088 69.9038 70.0872 69.8942 70.3512 69.8198C70.6128 69.2078 71.0736 68.075 71.1384 67.631C71.148 67.5638 71.1288 65.6678 71.1528 65.0462C71.16 64.8686 70.9392 64.1414 70.9632 64.0454C70.8984 63.9854 70.7976 63.8606 70.788 63.7838C70.7376 63.2894 70.2624 62.2934 70.2624 62.0342C70.2624 61.8422 70.1448 61.6238 70.0008 61.5086C69.96 61.475 69.5496 60.2822 69.0384 59.4974C69.0192 59.4662 67.296 57.1382 67.2024 57.047C67.1544 57.0014 66.2952 56.4134 66.24 56.3462V56.2598" stroke="#E8FFF9" stroke-width="1.68" stroke-linecap="round"/>
<path d="M59.9404 65.709L60.9916 66.4074" stroke="#E8FFF9" stroke-width="1.68" stroke-linecap="round"/>
<path d="M72.7127 25.0889C71.6447 25.1057 70.4327 25.3073 69.2015 25.6289C69.0071 25.6841 68.6783 26.1641 68.7167 26.2217C68.7551 26.2745 70.3559 26.5073 70.6607 26.4929C70.7807 26.4881 73.5383 26.5025 73.5767 26.4929C73.9007 26.3585 75.0527 26.0225 75.3575 25.8449C75.4103 25.8137 75.4151 25.7201 75.4127 25.2497C75.2711 25.1945 70.6295 25.1945 68.5199 25.1969C66.9887 25.2017 66.3431 25.3265 65.8535 25.4657C65.9087 25.7297 65.9111 25.8233 65.9615 25.8449C66.8591 26.1977 69.7343 26.1737 71.3687 26.1689C73.3103 26.1713 75.9047 26.1737 76.0607 26.1137L76.0055 25.6817C74.9039 25.5161 70.7135 25.5113 70.6055 25.5209C69.9551 25.6385 67.6367 25.6289 67.6367 25.6289C67.1135 25.6937 66.7871 25.9937 66.3935 26.1137V26.3849C68.1455 26.3849 73.3799 26.3825 73.4687 26.3849C73.5479 26.3873 76.4303 26.1713 76.5455 26.1689L76.6007 26.0609" stroke="#1E5C4C" stroke-width="1.68" stroke-linecap="round"/>
<path d="M64.0879 43.1703C64.0639 43.3527 64.4935 43.7559 64.9879 43.9695C65.0695 44.0055 65.3623 43.9551 65.5879 43.9695C65.8303 43.5999 65.6263 43.1295 65.2879 42.7695" stroke="#E8FFF9" stroke-width="2.4" stroke-linecap="round"/>
<path d="M55.7646 80.1904V80.9176L55.8774 81.196" stroke="#E8FFF9" stroke-width="2.4" stroke-linecap="round"/>
<path d="M83.7891 48.8179V48.9835V48.7051" stroke="#E8FFF9" stroke-width="2.4" stroke-linecap="round"/>
<path d="M84.3482 95.9346L84.2354 97.3866" stroke="#E8FFF9" stroke-width="2.4" stroke-linecap="round"/>
<path d="M88.9847 73.0957L88.6943 74.6269V74.6989" stroke="#E8FFF9" stroke-width="2.4" stroke-linecap="round"/>
<path d="M43.2578 69.0063L43.7714 69.9063V68.4951" stroke="#72A89A" stroke-width="2.4" stroke-linecap="round"/>
<path d="M44.458 88.0293V88.2741" stroke="#72A89A" stroke-width="2.4" stroke-linecap="round"/>
<path d="M84.1615 66.6693C84.1543 67.1109 84.2695 74.7741 84.2671 76.6581C84.2599 77.3109 84.5023 77.9613 84.4855 78.1701C84.8431 77.6949 85.2703 76.0365 85.3039 75.6045C85.3375 75.1365 85.3471 70.6461 85.3495 68.8437C85.3495 66.2589 85.1623 65.0613 84.8095 63.9141C84.8815 64.7709 85.7695 68.3301 86.0503 72.3045C86.0863 72.7389 86.4103 74.5461 86.4247 75.4509C86.4271 76.3245 86.4295 77.6589 86.4295 78.1173C86.4295 78.1341 86.4175 76.2117 86.4295 76.0653C86.7631 72.0813 86.7535 70.1109 86.7535 69.9093" stroke="#EF586A" stroke-width="2.4" stroke-linecap="round"/>
<path d="M86.7529 69.9092L88.8049 79.9532" stroke="#EF586A" stroke-width="2.4" stroke-linecap="round" stroke-linejoin="round"/>
<path d="M88.8051 79.9531H88.8579C88.9179 79.8019 88.9155 75.4123 88.9131 73.5571C88.9251 71.3251 88.6371 68.4691 88.4811 67.8571C88.3635 67.3915 88.3707 64.0195 88.3731 63.5371" stroke="#EF586A" stroke-width="2.4" stroke-linecap="round"/>
<path d="M85.2414 93.6689C84.5934 95.0729 82.983 98.2649 82.959 99.2633C82.959 99.3401 82.9638 99.4721 82.9734 99.6617C83.2974 98.9753 83.5974 97.7225 83.6742 97.0169C83.7294 96.5081 83.9598 94.0458 83.9454 93.9378C84.0894 93.9282 84.5574 95.1377 84.5934 95.8817C84.603 96.1577 84.591 99.2849 84.5934 99.3929C84.603 99.9281 84.4686 100.358 84.4854 100.418L84.3774 98.9609" stroke="#EF586A" stroke-width="2.4" stroke-linecap="round"/>
<path d="M85.1328 97.2324L85.4016 97.2852L85.5648 99.3372L85.4568 99.2844" stroke="#EF586A" stroke-width="2.4" stroke-linecap="round"/>
<path d="M82.5723 96.6885V96.6045L82.7427 97.6365V97.0341" stroke="#E8FFF9" stroke-width="2.4" stroke-linecap="round"/>
<path d="M83.7357 48.2129H83.647L83.5605 49.7873" stroke="#E8FFF9" stroke-width="2.4" stroke-linecap="round"/>
<path d="M41.8486 21.7931L42.031 21.7499L42.3814 21.5723" stroke="black" stroke-width="2.9256" stroke-linecap="round"/>
<path d="M42.7129 21.4001L43.0537 21.3281" stroke="black" stroke-width="2.9256" stroke-linecap="round"/>
<path d="M89.3991 24.7713L89.1279 24.4209" stroke="black" stroke-width="2.9256" stroke-linecap="round"/>
<path d="M40.1277 30.2559L35.4189 37.2855" stroke="black" stroke-width="2.9256" stroke-linecap="round" stroke-linejoin="round"/>
<path d="M37.1923 35.3174C37.1947 35.579 36.4867 36.3854 36.3739 36.6518C36.0667 37.2134 35.4355 38.4926 35.4187 38.6894C35.4187 39.1406 35.1427 40.3646 35.0107 40.6574" stroke="black" stroke-width="2.9256" stroke-linecap="round"/>
<path d="M35.9636 37.0049C35.9852 37.5905 35.198 38.4641 35.1476 39.3233C35.126 39.6857 35.1596 40.6697 35.0108 41.1521C34.9964 41.1905 34.9964 41.2145 35.0108 41.2217" stroke="black" stroke-width="2.9256" stroke-linecap="round"/>
<path d="M35.0107 41.2217L35.3971 101.418" stroke="black" stroke-width="2.9256" stroke-linecap="round" stroke-linejoin="round"/>
<path d="M35.2822 100.405C35.3566 101.694 37.0942 103.756 37.0558 103.849L37.4638 104.202" stroke="black" stroke-width="2.9256" stroke-linecap="round"/>
<path d="M37.3271 103.216C37.8191 103.881 38.8175 104.989 39.3719 105.186" stroke="black" stroke-width="2.9256" stroke-linecap="round"/>
<path d="M38.1455 104.202C38.2463 104.171 39.0695 105.011 39.5087 105.186C39.5615 105.205 41.1095 106.211 41.4863 106.52C41.7839 106.763 44.3759 107.692 44.8943 107.716C45.5399 107.749 46.1471 108.157 46.3247 108.208C46.6127 108.289 50.9423 109.4 50.9591 109.403C51.7175 109.489 52.5455 109.717 53.2103 109.684C53.4455 109.672 54.2663 109.758 54.4367 109.825C54.5735 109.876 54.6359 110.068 54.7775 110.106C54.9575 110.152 55.9127 110.089 55.9367 110.106C55.9919 110.14 56.0831 110.252 56.3447 110.245C56.5943 110.243 57.2831 110.236 57.2999 110.245C57.7895 110.55 58.0919 110.514 58.9343 110.668C59.0015 110.68 67.2095 110.668 68.3447 110.668" stroke="black" stroke-width="2.9256" stroke-linecap="round"/>
<path d="M92.0011 97.9502L91.9795 101.418" stroke="black" stroke-width="2.9256" stroke-linecap="round" stroke-linejoin="round"/>
<path d="M92.0947 100.405C92.0203 101.694 90.2827 103.756 90.3211 103.849L89.9131 104.202" stroke="black" stroke-width="2.9256" stroke-linecap="round"/>
<path d="M90.0497 103.216C89.5577 103.881 88.5593 104.989 88.0049 105.186" stroke="black" stroke-width="2.9256" stroke-linecap="round"/>
<path d="M89.2314 104.202C89.1306 104.171 88.3074 105.011 87.8682 105.186C87.8154 105.205 86.2674 106.211 85.8906 106.52C85.593 106.763 83.001 107.692 82.4826 107.716C81.837 107.749 81.2298 108.157 81.0522 108.208C80.7642 108.289 76.4346 109.4 76.4178 109.403C75.6594 109.489 74.8314 109.717 74.1666 109.684C73.9314 109.672 73.1106 109.758 72.9402 109.825C72.8034 109.876 72.741 110.068 72.5994 110.106C72.4194 110.152 71.4642 110.089 71.4402 110.106C71.385 110.14 71.2938 110.252 71.0322 110.245C70.7826 110.243 70.0938 110.236 70.077 110.245C69.5874 110.55 69.285 110.514 68.4426 110.668C68.3754 110.68 60.1674 110.668 59.0322 110.668" stroke="black" stroke-width="2.9256" stroke-linecap="round"/>
<path d="M89.8792 24.7721L88.9936 23.8601L88.876 23.7617" stroke="black" stroke-width="2.9256" stroke-linecap="round"/>
<path d="M88.5165 23.5074L88.3125 23.3682" stroke="black" stroke-width="2.9256" stroke-linecap="round"/>
<path d="M87.8348 22.9458L87.374 22.6602" stroke="black" stroke-width="2.9256" stroke-linecap="round"/>
<path d="M86.3058 22.0497L86.2002 21.9609" stroke="black" stroke-width="2.9256" stroke-linecap="round"/>
<path d="M90.0166 25.6162C90.019 26.1994 90.0094 26.6986 89.9494 26.8114C89.6566 27.361 87.9262 28.921 87.631 29.0602C87.3958 29.1706 87.2782 29.2666 87.0166 29.5522" stroke="black" stroke-width="2.9256" stroke-linecap="round"/>
<path d="M87.0166 29.5527L92.1982 37.2855" stroke="black" stroke-width="2.9256" stroke-linecap="round" stroke-linejoin="round"/>
<path d="M90.4248 35.3174C90.4224 35.579 91.1304 36.3854 91.2432 36.6518C91.5504 37.2134 92.1816 38.4926 92.1984 38.6894C92.1984 39.1406 92.4744 40.3646 92.6064 40.6574" stroke="black" stroke-width="2.9256" stroke-linecap="round"/>
<path d="M91.6528 37.0049C91.6312 37.5905 92.4184 38.4641 92.4688 39.3233C92.4904 39.6857 92.4568 40.6697 92.6056 41.1521C92.62 41.1905 92.62 41.2145 92.6056 41.2217" stroke="black" stroke-width="2.9256" stroke-linecap="round"/>
<path d="M92.6061 41.2217L92.2197 101.418" stroke="black" stroke-width="2.9256" stroke-linecap="round" stroke-linejoin="round"/>
<path d="M92.3349 100.405C92.2605 101.694 90.5229 103.756 90.5613 103.849L90.1533 104.202" stroke="black" stroke-width="2.9256" stroke-linecap="round"/>
<path d="M90.2899 103.216C89.7979 103.881 88.7995 104.989 88.2451 105.186" stroke="black" stroke-width="2.9256" stroke-linecap="round"/>
<path d="M89.4716 104.202C89.3708 104.171 88.5476 105.011 88.1084 105.186C88.0556 105.205 86.5076 106.211 86.1308 106.52C85.8332 106.763 83.2412 107.692 82.7228 107.716C82.0772 107.749 81.47 108.157 81.2924 108.208C81.0044 108.289 76.6748 109.4 76.658 109.403C75.8996 109.489 75.0716 109.717 74.4068 109.684C74.1716 109.672 73.3508 109.758 73.1804 109.825C73.0436 109.876 72.9812 110.068 72.8396 110.106C72.6596 110.152 71.7044 110.089 71.6804 110.106C71.6252 110.14 71.534 110.252 71.2724 110.245C71.0228 110.243 70.334 110.236 70.3172 110.245C69.8276 110.55 69.5228 110.514 68.6828 110.668C68.618 110.68 61.1156 110.668 60.7988 110.668" stroke="black" stroke-width="2.9256" stroke-linecap="round"/>
<path d="M60.8398 110.665L68.5846 110.667" stroke="black" stroke-width="2.9256" stroke-linecap="round"/>
<path d="M43.3291 20.4615L43.4611 20.3799" stroke="black" stroke-width="2.9256" stroke-linecap="round"/>
<path d="M43.8721 20.1685C44.7817 19.9645 45.5665 19.9093 45.8473 19.7461C46.0081 19.6549 46.1473 19.5157 46.3249 19.4653C46.6129 19.3837 50.9425 18.2725 50.9593 18.2701C51.7177 18.1837 52.5457 17.9557 53.2105 17.9893C53.4457 18.0013 54.2665 17.9149 54.4369 17.8477C54.5737 17.7973 54.6361 17.6053 54.7777 17.5669C54.9577 17.5213 55.9129 17.5837 55.9369 17.5669C55.9921 17.5333 56.0833 17.4205 56.3449 17.4277C56.5945 17.4301 57.2833 17.4373 57.3001 17.4277C57.7897 17.1229 58.0921 17.1589 58.9345 17.0053C59.0017 16.9933 67.2097 17.0053 68.3449 17.0053" stroke="black" stroke-width="2.9256" stroke-linecap="round"/>
<path d="M88.1393 22.5593L88.0049 22.4873" stroke="black" stroke-width="2.9256" stroke-linecap="round"/>
<path d="M88.1398 22.5585C87.8422 22.4937 85.819 21.0921 85.6198 21.0105C85.1326 20.8161 83.5414 20.1537 82.483 19.9569L82.291 19.9473" stroke="black" stroke-width="2.9256" stroke-linecap="round"/>
<path d="M81.8087 19.8781L81.5303 19.7461" stroke="black" stroke-width="2.9256" stroke-linecap="round"/>
<path d="M81.0522 19.4653C80.2098 19.3645 78.453 18.7069 77.781 18.5509C77.2698 18.4117 75.9186 18.1669 75.6666 18.1309C75.5994 18.1213 73.1106 17.9149 72.9402 17.8477C72.8034 17.7973 72.741 17.6053 72.5994 17.5669C72.4194 17.5213 71.4642 17.5837 71.4402 17.5669C71.385 17.5333 71.2938 17.4205 71.0322 17.4277C70.7826 17.4301 70.0938 17.4373 70.077 17.4277C69.5874 17.1229 69.285 17.1589 68.4426 17.0053C68.3754 16.9933 60.1674 17.0053 59.0322 17.0053" stroke="black" stroke-width="2.9256" stroke-linecap="round"/>
<path d="M88.1081 22.4871C87.9497 22.3839 86.5073 21.4623 86.1305 21.1527C85.8329 20.9103 83.3153 20.0103 82.7225 19.9575C82.6433 19.9503 82.5089 19.9503 82.3145 19.9575" stroke="black" stroke-width="2.9256" stroke-linecap="round"/>
<path d="M81.77 19.7461C81.4748 19.5205 80.6948 19.4029 80.4068 19.3261C80.0396 19.2253 78.8204 18.8029 77.6804 18.4813C76.6916 18.3061 75.0716 17.9557 74.4068 17.9893C74.1716 18.0013 73.3508 17.9149 73.1804 17.8477C73.0436 17.7973 72.9812 17.6053 72.8396 17.5669C72.6596 17.5213 71.7044 17.5837 71.6804 17.5669C71.6252 17.5333 71.534 17.4205 71.2724 17.4277C71.0228 17.4301 70.334 17.4373 70.3172 17.4277C69.8276 17.1229 69.5228 17.1589 68.6828 17.0053C68.618 16.9933 61.1156 17.0053 60.7988 17.0053" stroke="black" stroke-width="2.9256" stroke-linecap="round"/>
<path d="M60.8398 17.0073L68.5846 17.0049" stroke="black" stroke-width="2.9256" stroke-linecap="round"/>
<path d="M42.1533 21.4793L45.7125 20.4785" stroke="black" stroke-width="2.88" stroke-linecap="round"/>
<path d="M44.9971 20.6675C45.6859 20.0003 46.5475 19.8275 46.6507 19.7891" stroke="black" stroke-width="2.88" stroke-linecap="round"/>
<path d="M47.2344 19.5492C47.6448 19.2108 48.3888 19.0908 48.6552 19.0404C48.8616 19.002 49.1184 18.7908 49.2648 18.6348" stroke="black" stroke-width="2.88" stroke-linecap="round"/>
<path d="M53.6445 33.1289L54.3405 33.1433" stroke="black" stroke-width="2.88" stroke-linecap="round"/>
<path d="M85.8496 29.5884L86.224 29.3076" stroke="black" stroke-width="2.88" stroke-linecap="round"/>
<path d="M87.0234 28.8632L87.1578 28.748" stroke="black" stroke-width="2.88" stroke-linecap="round"/>
<path d="M88.1777 27.2559L88.2809 27.1575L88.5617 26.9727" stroke="black" stroke-width="2.88" stroke-linecap="round"/>
<path d="M88.6699 24.582C88.9051 24.8772 88.8643 25.9284 88.8667 26.8716C88.8691 27.1068 88.8691 27.3444 88.8715 27.5796" stroke="black" stroke-width="2.88" stroke-linecap="round"/>
<path d="M43.459 31.4678L43.615 31.5086L46.6582 32.4734" stroke="black" stroke-width="2.88" stroke-linecap="round"/>
<path d="M52.6553 33.2773L55.3001 33.4813" stroke="black" stroke-width="2.88" stroke-linecap="round"/>
<path d="M37.9775 24.7713L38.2487 24.4209" stroke="black" stroke-width="2.9256" stroke-linecap="round"/>
<path d="M37.4971 24.7721L38.3827 23.8601L38.5003 23.7617" stroke="black" stroke-width="2.9256" stroke-linecap="round"/>
<path d="M38.8604 23.5074L39.0643 23.3682" stroke="black" stroke-width="2.9256" stroke-linecap="round"/>
<path d="M39.542 22.9458L40.0028 22.6602" stroke="black" stroke-width="2.9256" stroke-linecap="round"/>
<path d="M41.0703 22.0497L41.1759 21.9609" stroke="black" stroke-width="2.9256" stroke-linecap="round"/>
<path d="M37.3607 25.6162C37.3583 26.1994 37.3679 26.6986 37.4279 26.8114C37.4903 26.9266 38.0159 27.4714 38.1455 27.6106" stroke="black" stroke-width="2.9256" stroke-linecap="round"/>
<path d="M40.0223 30.0537L38.8799 31.7625" stroke="black" stroke-width="2.9256" stroke-linecap="round" stroke-linejoin="round"/>
<path d="M39.2373 22.5593L39.3717 22.4873" stroke="black" stroke-width="2.9256" stroke-linecap="round"/>
<path d="M39.2373 22.5585C39.5349 22.4937 41.5581 21.0921 41.7573 21.0105C42.2445 20.8161 43.8357 20.1537 44.8941 19.9569L45.0861 19.9473" stroke="black" stroke-width="2.9256" stroke-linecap="round"/>
<path d="M45.5684 19.8781L45.8468 19.7461" stroke="black" stroke-width="2.9256" stroke-linecap="round"/>
<path d="M46.3242 19.4655C47.1666 19.3647 48.9234 18.7071 49.5954 18.5511C50.457 18.3159 52.5042 17.9655 52.9746 17.9799" stroke="black" stroke-width="2.9256" stroke-linecap="round"/>
<path d="M39.2686 22.4871C39.427 22.3839 40.8694 21.4623 41.2462 21.1527C41.5438 20.9103 44.0614 20.0103 44.6542 19.9575C44.7334 19.9503 44.8678 19.9503 45.0622 19.9575" stroke="black" stroke-width="2.9256" stroke-linecap="round"/>
<path d="M45.6064 19.7463C45.9016 19.5207 46.6816 19.4031 46.9696 19.3263C47.3368 19.2255 48.556 18.8031 49.696 18.4815C50.6848 18.3063 52.2544 17.9655 52.9696 17.9895" stroke="black" stroke-width="2.9256" stroke-linecap="round"/>
<path d="M38.9081 26.9727H38.8145" stroke="black" stroke-width="2.88" stroke-linecap="round"/>
<path d="M38.707 24.582C38.4718 24.8748 38.5126 25.95 38.5102 26.7924C38.5078 27.0036 38.5078 27.2148 38.5078 27.4236" stroke="black" stroke-width="2.88" stroke-linecap="round"/>
<path d="M39.2832 28.3262L39.48 28.4726" stroke="black" stroke-width="2.88" stroke-linecap="round"/>
<path d="M41.8244 30.6709H41.8724L42.362 31.0621L42.8516 31.1605L41.042 30.6709" stroke="black" stroke-width="2.88" stroke-linecap="round"/>
<path d="M46.3223 32.8213C47.2247 32.8261 50.0015 33.3013 50.3783 33.3109C51.8447 33.3421 52.5191 33.5509 52.5767 33.6997" stroke="black" stroke-width="2.88" stroke-linecap="round"/>
<path d="M48.667 33.1143L54.5302 33.4071" stroke="black" stroke-width="2.88" stroke-linecap="round"/>
<path d="M37.9316 28.0859L38.378 28.1483L38.6972 28.6595C38.5916 28.9643 39.5156 29.9363 39.4628 29.9987" stroke="black" stroke-width="2.88" stroke-linecap="round"/>
<path d="M40.7373 29.488C40.3197 29.1664 39.8685 29.0152 39.7821 28.9792C39.4389 28.8328 38.8533 27.9688 38.6973 27.832" stroke="black" stroke-width="2.88" stroke-linecap="round"/>
<path d="M55.2783 33.5703C55.4823 33.5727 56.7447 33.7047 57.2535 33.6975C58.2111 33.6975 59.6247 33.6903 59.9319 33.8247C59.9631 33.8391 61.2087 33.9399 61.2711 33.9519C61.4247 33.9855 61.8447 34.0983 62.1639 34.0815" stroke="black" stroke-width="2.88" stroke-linecap="round"/>
<path d="M61.2715 33.8245L61.3363 33.6973H73.9003" stroke="black" stroke-width="2.88" stroke-linecap="round"/>
<path d="M73.7734 33.5697C74.8558 33.5049 77.6158 33.4017 78.0454 33.1881C78.1822 33.1185 78.4798 32.9097 78.811 32.9313C79.411 32.9721 79.9438 32.7849 80.4046 32.8041" stroke="black" stroke-width="2.88" stroke-linecap="round"/>
<path d="M76.833 32.677C77.145 32.6914 78.7458 32.4538 79.5114 32.3578C79.785 32.3098 85.4994 30.769 85.8882 30.5098" stroke="black" stroke-width="2.88" stroke-linecap="round"/>
<path d="M85.2528 30.6369C85.1232 30.4161 86.112 29.8449 86.6544 29.4873" stroke="black" stroke-width="2.88" stroke-linecap="round"/>
<path d="M85.7607 30.6373L85.8255 30.4453C85.9599 30.3901 86.7711 29.4421 86.7807 29.4253C86.9127 29.1925 87.7359 28.5349 87.7383 28.5325C87.8487 28.4269 88.4727 27.2893 88.6959 26.8741C88.7511 26.7661 88.9431 25.9645 88.9503 25.9165C88.9623 25.8181 88.9479 24.3565 88.9503 24.1309" stroke="black" stroke-width="2.88" stroke-linecap="round"/>
<g style="mix-blend-mode:multiply">
<rect width="128" height="128" fill="white"/>
</g>
</svg>
