<svg width="128" height="128" viewBox="0 0 128 128" fill="none" xmlns="http://www.w3.org/2000/svg">
<path d="M27.7949 76.1008C27.9677 76.0864 29.9213 76.8592 30.9173 77.0176C32.2373 77.1616 34.5053 77.4784 35.4509 77.6488C36.2861 77.8048 36.6317 78.0976 36.8285 78.1648C36.9917 78.2224 37.5173 78.2224 37.6037 78.2512C37.7165 78.2848 41.9381 79.5424 42.9365 79.8856C43.2773 80.0032 44.1773 80.0824 44.4005 80.1448C44.5517 80.1856 45.3029 80.6152 45.5189 80.6608C45.8285 80.7256 47.5853 80.8912 47.7557 80.9176C47.8805 80.9368 48.5813 81.2488 48.7013 81.2632C49.4525 81.3544 50.3549 81.6328 50.5085 81.6928C50.7437 81.7816 54.8789 82.6168 55.3253 82.6384C55.6493 82.6552 57.3941 82.78 57.5621 82.8112C57.7781 82.8976 58.8605 83.1856 59.2637 83.1736C60.2669 83.1472 61.1885 83.308 61.6061 83.3272C61.6421 83.3296 62.5589 83.692 62.8109 83.6728C63.0077 83.6536 64.2149 83.8432 64.4453 84.016C64.6397 84.16 66.6509 84.9016 66.8549 84.8752" stroke="#EF586A" stroke-width="2.88" stroke-linecap="round"/>
<path d="M27.7949 77.4784C28.5917 77.4832 30.3677 77.4328 31.2773 77.6512C31.8365 77.7856 33.4253 77.86 34.0757 77.9944C34.4189 78.064 35.3549 78.508 35.6237 78.5968C35.7509 78.6376 39.8501 79.6072 41.0645 79.6696C42.9293 79.768 46.1717 80.296 46.7285 80.5264C47.5445 80.8792 50.0981 81.3424 50.8349 81.5104C53.0765 82.0264 53.1245 82.0696 53.1749 82.2088C54.5453 82.5856 55.2893 82.8112 55.8413 82.8112C56.1101 82.8424 57.1757 83.1712 57.2189 83.2408C57.3101 83.3872 58.9397 83.6728 61.0037 84.016C61.1381 84.0304 63.5981 83.9896 63.7589 84.016C64.1597 84.0856 64.6037 84.208 64.9613 84.3592" stroke="#EF586A" stroke-width="2.88" stroke-linecap="round"/>
<path d="M62.7246 84.7051C62.751 85.0075 63.7062 85.3603 64.275 85.3939C64.4862 85.4035 65.8494 85.8547 66.5982 85.9099C66.7494 85.9195 69.2046 85.9075 70.1238 85.9099" stroke="#EF586A" stroke-width="2.88" stroke-linecap="round"/>
<path d="M64.791 85.5642C65.0958 85.5546 67.419 85.7322 67.9734 85.7418C68.5566 85.749 68.7774 85.725 68.919 85.6506L69.0054 84.3594C69.2238 84.4698 69.3318 84.6426 69.2646 84.8754C69.2214 85.0242 69.039 85.4442 68.919 85.8234C69.0894 85.3314 70.1814 85.125 70.2966 85.1346C70.4118 85.3506 70.5894 85.4778 70.7262 85.3938C70.7958 85.3506 70.9542 85.1946 71.1582 85.221" stroke="#EF586A" stroke-width="2.88" stroke-linecap="round"/>
<path d="M71.1582 85.0477L72.0174 84.1885" stroke="#EF586A" stroke-width="2.88" stroke-linecap="round"/>
<path d="M72.0176 84.1891L102.13 37.7275" stroke="#EF586A" stroke-width="2.88" stroke-linecap="round" stroke-linejoin="round"/>
<path d="M28.5103 76.5065V76.4369L26.6791 76.0121C26.6647 75.6689 27.0943 75.2537 27.5935 75.0257C27.8095 74.9297 30.5911 72.8849 30.9055 72.5609C31.2223 72.2297 31.8847 71.2265 31.8919 70.7993C31.8943 70.6673 32.4727 69.8417 32.4559 69.4601C32.4511 69.3161 33.3919 67.6961 33.4423 67.6265C33.5023 67.5473 34.3351 66.5201 35.2039 65.8649C36.3847 64.9889 38.0671 64.4441 39.3631 63.4697C39.7711 63.1481 40.0879 62.8961 40.1383 62.7641C40.2175 62.5457 40.1935 61.5569 40.2079 61.4969C40.2703 61.2137 40.6303 60.5273 40.6303 60.5105C40.7239 59.5577 40.9303 59.0057 41.1247 57.9737C41.1487 57.8489 41.7319 56.8001 41.8279 55.9289C41.9071 55.5281 42.6775 54.4649 43.0975 53.9561C43.2223 54.1721 43.0711 54.7289 42.7063 55.2761C41.1127 57.6065 38.7151 60.1409 38.2735 60.9737C36.9151 63.5849 35.9263 65.8769 35.8399 65.9369C35.2039 66.3761 34.1551 67.4249 34.0063 67.5569C33.2911 68.1953 32.4679 69.2705 32.1751 69.5993C31.6207 70.2185 30.7087 71.2745 30.6247 71.3609C30.3247 71.6657 30.0679 71.7281 29.9191 71.7137" stroke="#EF586A" stroke-width="2.88" stroke-linecap="round"/>
<path d="M29.0742 74.5331C29.9718 74.5331 32.6478 74.5283 32.739 74.5331C33.3438 74.5571 36.9774 75.2123 38.0142 75.5987C38.4654 75.7379 46.4766 76.7819 46.9734 76.9283C47.5446 77.0963 48.6438 77.2307 49.1598 77.2115C49.887 77.1923 51.183 77.6339 51.1998 77.6339C51.6294 77.6147 56.0526 78.9203 56.2038 78.9731C56.475 79.0643 59.1342 80.3075 59.3742 80.3819C59.6526 80.4659 65.0142 81.9995 65.0838 82.0019C65.5158 82.0235 67.3662 82.2419 67.5486 82.2827C67.7742 82.3355 68.9046 82.7267 69.0294 82.7075L69.171 83.0579C68.4582 83.3891 67.5486 83.4107 66.783 83.4155C63.1494 83.4251 61.5726 83.3627 60.291 82.9883C59.6862 82.8107 52.9878 80.0051 52.2582 79.8179C51.9678 79.7459 50.3694 79.7771 49.7406 79.6595C48.975 79.4963 47.8782 79.3019 47.1846 79.1843C46.5054 79.0523 46.0134 79.0403 45.2118 78.7595C45.0534 78.7043 43.1622 78.1691 42.9558 78.1259C42.7542 78.0851 40.7694 77.9411 40.6302 77.9147C40.5822 77.9051 39.0102 77.1395 38.3766 76.8587C37.9494 76.6691 35.0286 75.6611 34.2894 75.3779C34.1238 75.3227 33.783 75.0659 33.6534 74.8859C33.6246 74.8427 33.5814 74.1299 33.303 73.6859C33.1878 73.5107 33.0126 72.5147 33.0198 72.3491C33.4662 72.2747 33.7038 72.2819 34.0062 72.4187C34.671 72.7139 39.3534 74.0387 39.999 74.2403C41.391 74.6699 47.4342 76.3691 55.4286 77.2811C56.4582 77.4011 60.0006 78.3707 61.6254 78.7115C63.1422 78.9467 65.8182 79.4195 66.7038 79.8179C66.8382 79.8779 67.9998 80.3507 68.607 80.4515C69.3414 80.5739 69.6102 80.6027 69.8046 80.8043C70.095 81.1427 70.1934 81.3275 70.227 81.3683C70.2798 81.4307 70.5126 81.4139 70.5798 81.4379C70.7358 81.4979 70.815 81.7211 70.791 81.9323C70.7982 81.4715 70.7814 81.2411 70.791 81.2267C70.8822 81.0851 71.8686 79.2395 72.3414 79.3955C72.3102 79.7411 71.9574 80.3651 71.5662 81.6491C71.5158 81.8219 71.3238 82.2611 71.3382 82.6547C71.3526 82.9811 71.3574 83.3531 71.355 83.7635C71.4822 83.7251 72.7758 80.8691 73.1166 80.0987C73.1958 79.9187 73.3926 78.9347 73.791 78.2579C74.151 77.6483 74.3214 76.9667 74.3142 76.8587C74.199 76.7099 72.1518 77.2691 69.7326 77.5619C69.1206 77.6363 67.6974 77.6291 66.9846 77.7731C65.4558 78.0875 61.9734 78.1907 61.3542 78.1931C58.9158 78.2147 56.6862 78.0563 56.0622 77.8451C55.9062 77.7899 55.2654 77.4803 55.0062 77.4227C54.747 77.3603 51.543 76.8275 51.2718 76.7867C50.7246 76.7051 43.5198 74.8307 41.8998 74.1803C38.8686 73.1939 34.8366 71.9771 34.2894 71.6435C33.8214 71.3579 33.5598 70.9163 33.5838 70.5155C33.6846 70.4411 35.619 70.4315 36.4038 70.5875C39.0078 71.1155 39.4686 71.2523 42.0054 72.1187C43.107 72.4883 51.1518 74.5595 52.3278 74.6723C52.9686 74.7371 63.531 76.3355 63.8838 76.3643C64.2726 76.3955 68.259 76.5155 69.2406 76.7171C72.7326 77.1059 73.2726 77.2307 73.3974 77.2091V78.8315C72.7326 79.0859 71.559 79.0019 71.4246 79.0427C71.2638 79.0907 70.9518 79.3427 70.4382 79.3235C69.8142 79.2995 68.8134 79.0763 68.7462 79.0427C68.019 78.6251 65.4462 77.9555 64.227 77.5523C63.2574 77.2307 61.0398 76.7219 59.619 76.2635C58.7286 75.9659 56.463 75.0491 55.359 74.6723C54.927 74.5235 50.3238 72.2243 47.5374 71.4323C45.0126 70.7531 40.2078 69.5987 38.799 69.1763C38.595 69.1187 37.5294 68.6123 36.9654 68.4011C36.7686 68.3315 35.3238 68.1803 35.0646 68.1899C36.663 68.1899 41.0046 68.2259 44.5062 68.8067C44.9478 68.8811 48.5838 69.5675 50.3502 69.6947C51.0582 69.7499 52.2822 69.9395 53.4918 70.1627C54.0318 70.2563 56.103 70.3499 56.6886 70.4939C57.8526 70.7939 66.0774 71.8091 67.8318 71.8547C69.015 71.8883 69.963 72.1691 70.5078 72.1355C70.6998 72.1235 70.803 72.2459 70.8606 72.2771C70.8822 72.2891 72.4134 72.3299 72.7638 72.4883C72.9006 72.5531 73.7214 73.1603 73.8198 73.1939V73.9691C72.1998 73.9811 68.1534 73.9763 66.7878 73.8371C63.5382 73.4771 58.479 72.7763 58.4598 72.7715C57.4542 72.5291 55.935 72.5723 55.851 72.5603C55.7046 72.5339 54.4062 72.2771 53.5974 72.1355C53.4774 72.1259 50.955 72.1355 50.8494 72.1355C50.8182 72.4667 50.8926 72.6947 51.1302 72.8411C51.5478 73.0931 52.6134 73.4531 53.7366 73.6859C53.9358 73.7267 56.8254 74.1107 58.383 74.1155C66.2766 74.1131 74.631 74.1107 75.0894 74.1107C75.1494 74.1731 75.1566 74.8859 75.159 75.1667C75.1638 75.4427 75.1422 75.4835 75.0198 75.5891C75.3678 75.4667 75.831 73.8995 75.9342 73.7579C76.023 73.6355 76.395 73.1747 76.4286 73.0523C76.431 73.0403 76.4262 72.6731 76.4982 72.6299C77.0886 72.2987 77.2878 71.8979 77.343 71.8547L78.0486 71.1491C77.7078 71.5211 76.7214 71.9555 76.0758 72.1355C75.6246 72.2627 74.691 72.4091 74.103 72.6995C73.7718 72.8603 72.2166 72.8339 71.7078 72.8411C70.5318 72.8555 67.419 72.2459 66.4926 72.1355C66.2262 72.1067 64.3542 71.9963 64.0254 71.9243C63.4902 71.7827 54.3222 70.2779 53.7918 70.3067C53.0502 70.3499 50.2662 69.7523 50.1438 69.7403C49.911 69.7163 47.1558 69.4763 47.043 69.4595C45.951 69.1763 44.4366 68.8259 43.8726 68.5427C43.4382 68.3723 42.7998 68.3963 42.675 68.3315C42.5574 68.2715 42.5166 68.0939 42.3918 68.0507C42.387 68.0483 41.7366 68.0003 41.6886 67.9787C41.4774 67.9091 40.3854 67.7339 40.1382 67.6259C38.5998 66.9635 38.3118 66.8867 38.1654 66.9227L37.4598 66.2171C40.323 65.7323 44.235 66.3635 46.7526 66.6227C47.6406 66.7187 50.8566 67.4795 54.795 67.8371C55.9806 68.0363 61.5774 68.1851 61.6302 68.1899C61.8966 68.2163 63.8982 68.5907 64.5198 68.6123C65.9766 68.6627 67.7838 69.1907 68.9598 69.1835C69.7446 69.1811 71.5662 69.3395 71.8854 69.3323C72.939 69.3131 73.7502 69.5483 73.9614 69.5987C75.075 69.8651 78.1014 69.8795 78.6126 69.8819C77.091 70.3763 74.4846 70.4459 72.243 70.4531C70.0374 70.4555 65.8374 70.4555 63.843 70.4531C61.923 70.4435 58.0206 69.8531 57.9654 69.8123C58.1142 69.7907 61.179 70.2395 62.8494 70.5563C64.179 70.7987 70.6062 71.5163 74.5254 71.4323C74.9766 71.4251 75.603 71.3963 75.723 71.4323C76.4286 71.6579 76.5054 71.8787 76.5678 72.4187C76.5798 72.5315 76.659 72.6611 76.7094 72.6995" stroke="#EF586A" stroke-width="2.88" stroke-linecap="round"/>
<path d="M39.7854 64.5255H39.7158C39.7902 64.8231 39.9078 64.9215 40.3134 64.9455C40.9974 64.9863 42.8262 65.4039 43.167 65.4423C43.7118 65.5047 48.435 65.6751 49.2102 65.8479C50.8134 66.2055 53.007 66.3327 54.3726 66.6399C55.0542 66.7887 68.1726 66.7647 68.3238 66.7815C68.631 66.8175 70.2486 66.9543 70.8606 67.1343C71.6478 67.3647 73.4694 67.3623 73.935 67.3647C76.2174 67.3575 80.9862 67.3551 81.0078 67.3455C81.4326 67.1559 81.6198 66.7095 81.855 66.4287C81.9798 66.2775 82.7886 65.1183 82.7694 64.7391C82.6134 64.6599 60.9174 64.6647 52.2726 64.6695C48.4446 64.6671 43.4334 64.6671 42.2526 64.6671L41.7582 64.1751C41.775 64.0839 41.3766 63.2295 41.4774 62.8359C41.4918 62.7759 41.5398 62.7039 41.6166 62.6247C42.1998 62.5335 42.339 62.4087 43.239 62.4135C47.8422 62.5551 62.751 62.5575 71.0742 62.5551C75.4662 62.5527 82.5462 62.5527 85.2366 62.5527C85.4406 62.2455 85.455 61.8423 85.659 61.6383C85.8678 61.3287 85.8246 60.8343 85.8702 60.6519C85.899 60.5367 86.1678 60.2175 86.1534 60.0159C86.1486 59.9751 86.1246 59.9271 86.0814 59.8767C85.407 59.8647 81.6414 60.1239 79.8102 60.3687C79.1622 60.4575 76.395 60.8607 74.487 60.8655C66.087 60.8583 54.6246 60.8583 52.611 61.0023C50.5614 61.1583 43.4766 61.1367 43.4502 61.1439C42.9366 61.2999 42.5142 61.2807 42.3918 61.2855C42.2814 61.0935 42.4038 60.6255 42.8142 60.0879C42.8958 59.9823 43.1502 59.7471 43.239 59.5935C43.8246 59.5839 45.063 59.7495 45.7758 59.8767C46.587 60.0183 55.8678 60.0255 60.099 60.0255C68.3694 60.0207 79.1406 60.0231 81.6366 60.0279C82.047 60.0327 82.5078 59.9007 82.6998 59.8767C82.8678 59.8527 83.883 59.8935 83.967 59.8767C84.1374 59.8383 85.1742 59.1927 86.0118 58.5375C86.4414 58.2039 87.5622 57.7959 87.6318 57.6903C87.639 57.6207 66.6438 57.6207 58.2486 57.6207C50.883 57.6207 43.167 57.6207 42.8142 57.6207C42.687 57.0615 42.8646 56.4087 43.3782 56.1399C43.7862 55.9407 43.9494 55.9287 45.3558 55.9287C52.9854 55.9311 68.8686 55.9311 77.1246 55.9287C80.8014 55.9287 86.7582 55.9263 86.8566 55.9287C87.1518 55.9383 87.6078 55.6503 87.915 55.2951C87.9318 55.2735 88.3494 54.6183 88.5486 54.4503C88.8726 54.1767 88.9926 53.9919 89.1126 53.8863C89.019 53.8167 68.5662 53.8167 59.8326 53.8167C52.1838 53.8167 44.1702 53.8167 43.8006 53.8167V53.4639C44.5998 53.2575 47.415 53.2431 48.8742 53.2407C57.579 53.2431 74.619 53.2503 82.9518 53.2527C83.919 53.2527 86.511 53.2431 87.7038 52.9695C87.8718 52.9335 88.3014 52.6935 88.3374 52.6887C88.3902 52.6791 89.8158 52.6887 89.8878 52.6887L88.1958 55.0143C88.1406 54.7071 88.1982 54.5871 88.6182 54.1671C88.7022 54.0855 89.535 53.1471 89.8878 52.7583C90.507 52.1607 90.543 51.8919 91.227 51.3495C91.5678 51.0807 91.6422 50.9871 91.8606 50.9967L93.339 49.7295" stroke="#EF586A" stroke-width="2.88" stroke-linecap="round"/>
<path d="M93.3394 49.73C90.5386 49.718 88.7674 49.9796 86.6554 50.2652C85.6882 50.3924 83.4946 50.7164 81.4162 50.7212C72.8602 50.714 61.2514 50.714 59.2354 50.8556C58.3618 50.9132 57.0658 51.2732 56.8378 51.2804C55.8634 51.2996 54.2338 51.5396 53.9506 51.5612C53.785 51.5732 52.5082 51.8468 52.4698 51.842C51.9706 51.8084 50.4322 51.8852 50.0026 52.0556C49.7746 52.1468 47.4826 52.4492 46.4794 52.406C46.1722 52.3892 45.0562 51.7868 44.8594 51.4916L47.0434 50.4332C47.1562 50.2796 47.581 50.294 49.1482 50.3012C52.8178 50.3084 54.301 50.1524 55.429 50.0108C61.2394 49.862 77.4706 49.8596 86.3554 49.8644C87.7594 49.8668 90.5362 49.8644 91.0858 49.73C91.4386 49.5884 91.8562 49.43 92.353 49.4468C93.0586 49.4588 94.4458 47.834 94.609 47.4044C94.6258 47.3588 94.6714 47.2652 94.7506 47.1212C94.5226 47.0444 73.2994 47.0492 65.2234 47.0516C60.6418 47.054 55.0738 47.054 54.0898 47.0516C50.9722 47.0036 48.7522 47.5988 48.7354 47.6156L47.2546 47.9684C47.5354 48.1676 48.2578 48.1796 48.661 48.2444C49.177 48.326 55.3882 48.3428 55.7818 48.3188C56.4754 48.278 59.0626 47.8916 59.7994 47.8964" stroke="#EF586A" stroke-width="2.88" stroke-linecap="round"/>
<path d="M83.3333 54.8036C83.3093 54.662 83.7893 53.9444 84.0389 53.7452C84.9269 53.0492 87.8237 51.1484 88.4141 50.6516C90.5981 48.8036 93.5549 47.3084 93.6917 47.1932C93.8957 47.0204 94.2725 46.8332 94.3973 46.5572C94.4645 46.4036 95.4029 45.2276 96.0173 44.2316C96.0629 44.1596 96.5021 43.3196 96.8645 43.034C97.1957 42.7724 98.0549 41.6636 98.3429 41.1332C98.4053 41.018 99.0005 40.4708 99.1877 40.358C99.4709 40.1852 100.294 38.8172 100.599 38.4548C100.714 38.3132 101.163 37.0916 101.233 36.6932C101.24 36.6452 101.369 35.3348 101.377 34.6364C101.381 33.5732 101.271 33.3212 101.021 33.0284C100.647 32.6036 100.174 32.3228 99.3293 31.7588C98.8613 31.4564 97.4837 31.022 97.4765 31.0196C96.1133 30.3692 93.8693 29.33 92.9885 28.9412C92.2829 28.658 91.0733 27.9068 90.8021 27.8852C90.3509 27.8492 87.3653 26.3108 86.5757 25.982C86.4653 25.934 85.9685 25.8596 85.8005 25.7708C85.6493 25.6916 85.2485 25.4084 85.0253 25.3484C84.2813 25.1492 83.1245 24.6836 82.1357 24.5012C80.7605 24.2636 79.6133 23.9348 77.7269 23.918C75.5957 23.9204 72.0797 23.9372 71.6357 24.0788C71.1053 24.266 69.6629 25.8404 69.6629 25.8404C69.5213 26.0348 69.4133 27.2516 69.3821 27.4604C69.3629 27.5876 69.2333 27.8588 69.2405 28.5188C69.2693 30.8828 69.5597 32.0516 69.8045 33.5228C69.8285 33.7412 69.9701 35.3588 69.9461 35.7068C69.9293 35.9708 70.1261 36.254 70.2269 36.3404" stroke="#EF586A" stroke-width="2.88" stroke-linecap="round"/>
<path d="M68.6768 26.8987C71.048 25.9003 74.372 25.6675 75.3704 25.6291C75.8432 25.6123 81.8024 25.6459 81.8552 25.6291C81.9848 25.5859 82.4888 25.3747 82.6304 25.3483C83.3816 25.2067 87.4928 25.2091 89.6648 25.2091C90.2312 25.2115 91.172 25.1875 91.2968 25.2067C91.8056 25.3699 93.1376 25.6819 93.3392 25.7707C94.3112 26.2555 95.4968 26.7547 95.8064 27.1099C95.9144 27.2347 96.3104 27.7027 96.3008 27.7435" stroke="#EF586A" stroke-width="2.88" stroke-linecap="round"/>
<path d="M71.9187 27.8849C71.8899 28.4753 72.0651 29.0321 72.1299 29.2217C72.1803 29.3633 72.4563 29.8865 72.7635 29.9969C73.1571 30.1265 74.4459 29.9153 75.3555 29.6513C75.8643 29.5049 77.4819 28.9913 77.5707 28.9673C78.2811 28.7753 82.4475 28.4465 83.8467 28.4489C84.1539 28.4489 85.8699 28.4249 86.5035 28.2353C87.0627 28.0697 89.0523 28.0145 89.1123 27.9545C89.0427 27.7217 88.8747 27.6113 88.4787 27.6017C88.3827 27.5993 81.0651 27.6041 80.9379 27.6017C79.8507 27.5801 77.6163 27.8897 77.1051 27.9425C76.8003 27.9737 75.8643 28.3073 75.1587 28.3073C74.9283 28.2905 72.4203 28.9553 71.7075 29.2937C71.4051 29.4377 71.0955 29.7665 71.0715 29.7857C71.0691 30.0065 70.9251 30.5657 70.9323 30.8441C70.9347 31.1009 70.9395 31.8785 70.9323 31.9001C70.7475 32.2073 70.4859 33.2777 70.5075 33.5921C70.5339 33.9233 70.1235 34.6769 70.0851 34.7201C69.9579 34.8569 69.5931 35.3585 69.5211 35.4233C69.3243 35.6033 65.7267 38.6729 65.5755 38.8073C64.9899 39.3929 64.0803 40.0289 63.6027 40.4273C63.5883 40.4369 61.7763 41.3777 61.7715 41.4137" stroke="#EF586A" stroke-width="2.88" stroke-linecap="round"/>
<path d="M97.5673 42.1191C97.7065 41.4375 98.7049 39.3159 99.1873 38.8071C99.8425 38.1207 99.8233 35.7855 99.7513 35.6343C99.6409 35.3967 99.3913 35.2335 99.1873 35.2119C98.5777 35.6463 97.7665 36.6687 97.4641 36.9447C96.5017 37.8255 94.1113 39.6015 91.9945 40.8663C90.9577 41.4927 90.4466 41.7231 88.865 42.2415C87.6842 42.6039 83.9306 42.9423 83.0594 42.9543C81.1802 42.9591 76.1762 42.9735 76.169 42.9735C75.3866 42.9567 70.589 42.6807 70.0154 42.5415C69.9866 42.5343 68.1818 42.5415 67.337 42.5415C66.581 42.5511 65.213 42.5703 64.5194 42.3303C64.301 42.2463 64.181 42.1287 64.1666 41.9775C64.1402 41.4111 64.325 40.7583 64.6585 40.4967C64.7017 40.4655 64.9682 40.2471 65.0114 40.1439" stroke="#EF586A" stroke-width="2.88" stroke-linecap="round"/>
<path d="M68.2536 37.7483C66.8592 37.7339 65.0856 38.2283 64.0968 38.3123C64.0248 38.3195 62.4144 38.9747 61.4184 39.2291C60.5184 39.4595 58.4688 39.4139 58.3872 39.4403C58.2072 39.5003 57.7056 39.7139 57.612 39.7211C57.3288 39.7475 56.5872 39.8843 56.1864 39.8747C55.2552 39.8579 53.7624 39.8675 53.736 39.8627C53.6352 39.8411 53.4288 39.6107 53.5248 39.2987C53.7432 39.3083 55.128 39.1427 56.7456 39.1427C58.3512 39.1547 59.1432 39.1739 59.3736 39.0179C59.5008 38.9291 63.024 38.4539 63.7488 38.2427C64.7904 37.9403 67.5312 37.1723 68.3496 36.8987C70.7376 36.1067 72.9024 35.6075 73.9608 34.9307C74.3232 34.6955 74.9472 34.0499 75.2304 33.7331C75.432 33.5219 75.456 33.3179 75.4416 32.5331C75.432 32.2427 75.4296 31.7027 75.4416 31.5467C75.4728 31.0787 75.0576 30.3083 74.4552 29.7155C73.9872 29.2667 73.224 29.1995 73.116 29.1515C72.8688 28.9763 72.2304 28.7459 72.0576 28.6595C71.8656 28.5587 70.968 27.7691 70.86 27.7427C70.8264 27.7331 70.7784 27.7331 70.7184 27.7427C71.3664 27.7523 72.804 27.7619 73.4352 27.6491C74.6736 27.3395 78.9096 26.9603 79.5288 26.8787C81.264 26.6147 85.3704 25.9667 85.3752 25.9667C85.788 25.9043 91.1904 25.8995 91.7184 26.0507C92.4696 26.1995 94.728 27.9251 94.9608 28.1651C95.34 28.5683 96.2736 29.2475 96.3 29.2931" stroke="#EF586A" stroke-width="2.88" stroke-linecap="round"/>
<path d="M85.8698 29.1519C85.385 29.0847 82.2434 30.3807 80.2322 31.4775C77.5034 33.0231 74.8562 34.8879 73.8194 35.7759C73.7258 35.1207 73.9682 33.7263 74.2442 33.0279C74.5058 32.3487 74.5658 32.0487 74.5802 31.2831C74.6018 29.9631 74.585 29.8815 74.525 29.8575C74.4602 29.9103 73.301 31.5591 73.1162 31.8999C73.0346 32.0487 71.0666 36.3135 71.0018 36.4095C71.7146 35.6295 72.7658 34.4079 73.3346 33.7455C74.0906 32.9055 77.5034 30.3711 78.6506 29.7903C79.2362 29.4999 79.6706 29.3151 79.8794 29.2935C79.9418 29.2887 85.121 29.2935 86.5034 29.2935L75.9338 32.3943C78.6458 32.3943 79.7138 32.3607 81.6242 31.9887C83.0402 31.7367 88.8314 31.0503 89.6042 30.9831C89.129 30.9495 79.2938 33.6663 78.2018 33.8199C76.253 34.1079 71.7266 34.7319 71.2514 34.8111C70.7354 34.8951 70.0658 35.1807 69.9458 35.2119L85.6586 35.3535C85.2722 35.6871 84.4106 35.8431 83.7146 35.9175C82.5338 36.0423 79.2842 36.4959 77.789 36.6711C76.049 36.9999 71.489 37.7463 70.9706 37.8951C70.445 38.0487 69.881 38.2431 69.3098 38.4543C69.4178 38.6151 70.5722 38.6031 71.2946 38.6007C75.413 38.5959 82.5602 38.5935 85.589 38.5959C85.4018 38.7063 82.0802 39.2871 80.333 39.5823C78.1922 39.9111 74.7362 40.1607 73.8602 40.3407C72.1394 40.7319 70.217 41.0319 67.9706 41.6943C67.1594 41.9415 66.4634 42.2607 65.5058 42.7527C65.7122 42.9303 66.017 42.9999 66.7058 42.9807C67.7858 42.9495 70.2362 42.7575 70.2938 42.7503C71.2562 42.6471 73.2554 42.1311 73.733 42.0471C74.2082 41.9655 78.6794 41.4231 80.3522 41.2239C81.1946 41.1207 83.1578 40.7247 83.6858 40.7079C83.7338 40.7079 84.3506 40.7103 84.6722 40.7079C82.8698 40.8423 80.2154 41.5839 77.8202 41.8527C77.3282 41.9079 72.8138 42.6063 71.9882 42.8415C69.9266 43.4343 68.5322 44.1279 68.2538 44.4423L85.589 42.1887C85.1978 42.1671 80.7002 43.3479 79.181 43.7991C76.6418 44.6127 74.9714 45.2823 74.8778 45.4311C75.0458 45.4023 79.7402 43.8807 80.6402 43.7007C82.2842 43.3767 91.6274 42.2079 91.8602 42.0471C89.2322 42.6783 88.505 42.9423 86.645 43.8807C85.7042 44.3631 85.1738 44.8455 84.7418 45.2895C85.481 45.3111 92.2802 44.4999 92.9162 44.3727C93.5426 44.2455 94.6802 43.8879 94.8194 43.6695C94.8674 43.5759 94.9106 43.2495 94.889 43.0335C94.8314 42.5079 94.4882 42.1143 93.9746 41.9775C93.9098 41.9607 88.2842 41.9775 87.137 42.0447C85.4162 42.1479 83.2298 42.5751 81.6002 42.7335C80.8322 42.8103 75.2762 43.9743 75.1586 44.0199C75.1274 44.0343 75.1034 44.0583 75.089 44.0919C78.713 44.0943 88.8986 44.0847 89.7626 43.9911C89.8538 43.9815 91.8866 43.5159 92.4938 43.5279C92.5874 43.5303 92.729 43.5303 92.9162 43.5279L82.4882 44.9367C83.741 44.9223 89.345 43.1055 90.7082 42.6399C91.2578 42.4575 93.281 42.0639 94.1162 41.7663C95.2658 41.3511 96.4298 41.0223 97.4066 40.8159C98.1458 40.6575 98.9282 40.1607 99.1178 40.0743C99.1706 39.7767 98.4674 37.5543 98.4122 36.8319C98.405 36.7215 98.2058 35.8239 98.1314 35.4951C98.117 35.4303 97.5938 34.6551 97.4978 34.5783C97.4066 34.5087 96.4754 34.0839 96.017 33.8727C95.7986 33.7623 95.0618 33.0639 94.3274 32.4639C94.2146 32.3751 94.1066 32.1255 94.0442 32.0415C93.8762 31.8111 91.289 30.8175 90.1682 30.3495C88.7834 29.9199 86.7698 29.7759 86.645 29.7159C87.9098 29.8047 89.7362 30.3567 92.5538 31.0575C94.2842 31.3959 99.3434 32.2983 99.4706 32.3223C99.8234 32.3967 100.219 32.6631 100.668 33.0975C100.812 33.2439 100.805 34.3383 100.81 34.5783C100.433 35.0751 90.041 34.1727 89.501 34.0527C88.5938 33.8007 85.601 33.8031 85.517 33.8727C85.433 33.9543 85.2722 34.2063 85.2362 34.2255L97.0034 34.2951C96.6266 34.5303 94.8722 34.5255 93.845 34.5279C92.813 34.5207 90.6794 34.5087 90.4514 34.4367C90.3002 34.3911 90.0098 34.2207 89.6762 34.2255C89.4722 34.2303 88.5866 34.2039 88.337 34.2255C87.7658 34.2831 86.8634 34.7655 86.2226 35.2119C86.7506 35.2119 88.3706 35.1999 88.901 35.1423C89.4962 35.0727 90.629 34.6647 91.2266 34.3671C91.9082 34.0167 92.9762 33.2559 93.3386 32.7471C93.4658 32.5575 93.4946 32.0559 93.4106 31.8303C93.341 31.6647 92.921 31.4439 92.705 31.4079C92.621 31.3959 90.6122 31.3911 90.521 31.4079C90.1874 31.4751 89.3354 33.1407 89.1818 33.7335C88.7378 35.4831 88.049 37.1967 87.6314 38.3127C87.461 38.6823 87.2042 39.1575 87.0674 39.3687C88.0298 39.2175 89.0738 38.7519 89.801 38.4279C90.6842 38.0295 92.369 37.2711 92.9882 36.8319C93.1082 36.7455 93.893 36.1743 93.9026 35.8455C93.9002 35.7759 93.8402 35.4951 93.6914 35.4231C93.6026 35.3847 91.553 35.3487 90.6122 35.3439C89.6114 35.3463 88.9898 35.4351 88.3346 35.6463C87.7322 35.8455 86.6258 36.3975 86.1002 36.7791C85.7018 37.0743 84.413 38.3439 84.2498 38.7351C84.1874 38.8863 84.2354 39.4935 84.2498 39.7935C84.7418 40.2279 85.9082 40.3911 87.473 40.4271C90.1994 40.4463 92.1506 40.2855 93.5594 39.7959C94.6178 39.4215 96.6218 38.1423 96.7922 37.8903C96.9434 37.6503 96.6386 37.0335 96.3002 36.9039C95.3234 36.5535 93.2354 36.3591 90.3098 36.3399C89.3402 36.3279 88.5002 36.4047 88.1258 36.5511C87.7682 36.6951 86.8082 37.2495 86.5754 37.4679C86.3618 37.6767 86.0354 38.2455 86.0114 38.4543C85.9946 38.6775 86.0258 39.6783 86.081 39.7935C86.2826 40.1727 87.8114 40.4271 88.9802 40.4343C90.0722 40.4391 92.2658 40.4367 92.8466 40.3431C95.597 39.8823 98.2418 38.2863 98.273 38.2431L98.1314 37.8903C97.3346 37.7319 93.1994 37.7463 91.2194 37.7487C89.9738 37.7487 89.0834 37.7871 88.2578 37.9431C87.4106 38.1063 86.0738 38.4735 85.1858 38.7711C83.825 39.2367 82.7834 39.8679 82.6298 39.9327C82.1378 40.0743 81.6026 40.4655 80.5994 40.7439C79.589 41.0223 76.0754 41.6943 74.7626 41.8119C72.4802 42.0207 70.3826 42.3831 69.4514 42.5415C70.0442 41.8695 71.1962 40.6023 71.3546 40.4967C71.489 40.4103 71.4986 40.1895 71.4242 39.7935C70.721 39.7119 68.945 39.7191 67.9178 39.7215C66.9218 39.7215 66.2306 39.7983 64.8362 40.1631C64.6586 40.2111 62.3138 40.9119 61.385 41.1951C60.5018 41.4711 59.2466 42.0759 58.889 42.2271C57.7682 42.7047 56.9978 43.2879 56.909 43.2447C57.5306 42.2127 57.7538 41.7351 57.7994 41.0439C57.8234 40.5255 57.809 40.0431 57.7538 39.7935C57.7034 39.5967 57.3746 39.4287 57.0482 39.3687C56.3234 39.2583 54.9626 39.3351 54.5834 39.5823C54.1706 39.8679 53.5202 40.9791 53.3858 41.3439C53.3666 41.3895 53.249 42.0735 53.1746 42.2583C53.1218 42.3879 52.2986 43.5783 52.2578 43.6695C52.217 43.7583 52.169 44.2287 52.1162 44.3031C51.3314 45.3855 50.1506 45.6543 50.0018 45.7119C50.0402 45.2559 50.2466 44.9055 50.777 44.4423C51.2642 44.0223 52.8794 42.8727 53.033 42.7527C53.4842 42.3975 54.5594 41.8479 54.5834 41.7663L54.5114 41.3439C54.1922 41.1903 53.837 40.9959 53.8082 40.9911C52.2938 40.6911 50.1818 41.8959 50.1434 41.9055C50.0354 42.0591 50.0882 42.4479 49.8626 43.1751C49.565 44.0895 48.5594 45.3135 48.4514 45.5007C48.3938 45.6039 48.3626 45.9111 48.2402 45.9927C49.0826 45.4047 50.1818 44.5743 50.6378 44.3031C53.0306 42.8847 57.0482 42.3975 57.1898 42.3999C57.473 42.4095 59.0306 43.1031 59.3426 43.1871C62.2898 43.9767 64.8962 44.0967 67.901 44.0919C63.8906 44.0919 57.9866 44.0919 56.0954 44.0919C54.8786 44.0895 54.3554 44.0823 54.089 44.2311C53.7386 44.4375 52.2482 45.0807 51.413 45.7119C51.4178 45.7815 69.0242 45.7887 72.5714 45.7839C72.761 45.7839 81.1538 45.1935 84.1082 45.2175C82.3562 45.8175 79.5002 46.2471 77.7818 46.5015C75.9458 46.7775 72.5354 47.3343 70.961 47.6151C68.1794 48.0471 65.3522 48.3207 64.2626 48.5271C63.3026 48.7167 62.369 48.9351 62.3354 49.0935C62.5274 49.3143 62.7962 49.4967 63.1658 49.5759C64.0562 49.7655 68.669 49.7295 70.5938 49.7223C72.2522 49.7127 75.6458 49.0911 76.4738 48.9783C77.3426 48.8631 81.1562 48.5943 82.8746 48.2127C83.6522 48.0423 90.029 48.0375 90.3098 48.0375H87.4202" stroke="#EF586A" stroke-width="2.88" stroke-linecap="round"/>
<path d="M62.002 84.4961V84.5513L68.5372 87.6809H68.5924" stroke="#EF586A" stroke-width="2.88" stroke-linecap="round"/>
<path d="M58.0492 82.5205C58.0372 82.5997 58.3612 83.0125 58.654 83.1781C58.6564 83.1805 63.9772 85.3885 64.09 85.4293C64.5964 85.6189 68.1435 86.5045 68.2059 86.4733L68.6452 86.8021C68.7844 86.7733 69.8404 87.5029 70.294 87.4621C70.3492 87.4573 70.4907 87.4549 70.5675 87.4069C70.4619 87.0229 71.1124 86.3701 71.8852 85.2661C72.2572 84.7381 72.6676 82.7893 72.6556 82.6309" stroke="#EF586A" stroke-width="2.88" stroke-linecap="round"/>
<path d="M70.582 90.8657H70.498V89.9657L70.9084 89.3945" stroke="#C5273A" stroke-width="2.88" stroke-linecap="round"/>
<path d="M69.5977 90.0475L102.665 40.6123" stroke="#C5273A" stroke-width="2.88" stroke-linecap="round" stroke-linejoin="round"/>
<path d="M98.4102 48.306C99.0126 47.6724 99.4134 46.4484 99.4734 46.3404C99.9462 45.4836 100.047 44.7852 100.21 44.622C100.316 44.5188 100.441 43.7004 100.702 43.3932C100.851 43.2228 101.192 42.2484 101.192 42.1668C101.233 42.0852 101.542 41.0532 101.521 40.8564C101.504 40.7148 101.662 40.6044 101.684 40.53C101.715 40.4244 101.648 40.3044 101.684 40.2012C101.727 40.074 101.998 39.7644 102.01 39.546C102.015 39.4764 102.013 37.2804 102.01 36.5196C102.008 36.1548 101.83 35.7012 101.847 35.454C101.873 35.046 101.669 34.2588 101.521 33.9804C101.494 33.9348 101.333 33.4356 101.357 33.4092" stroke="#C5273A" stroke-width="2.88" stroke-linecap="round"/>
<path d="M102.502 39.4648H102.257C101.727 40.1392 101.638 41.8048 101.52 42.004C101.42 42.172 101.252 42.3064 101.192 42.4936C101.144 42.6496 101.223 42.8248 101.192 42.9856C101.153 43.1896 100.839 44.14 100.536 44.5408C100.121 45.0904 99.5165 47.1568 99.3917 47.404C99.1469 47.7328 98.0645 49.4032 97.7549 49.7776" stroke="#C5273A" stroke-width="2.88" stroke-linecap="round"/>
<path d="M101.029 46.5035C100.983 46.4939 100.285 48.0395 99.1472 49.3691C98.996 49.5563 98.4368 50.3987 98.4104 50.4323C98.06 50.9051 97.6328 52.1099 97.4288 52.5611C97.3808 52.7195 96.9176 54.3155 96.9368 54.4427C96.9344 53.8043 97.004 52.2755 97.2632 51.5795C97.5032 50.9507 99.0656 48.0995 99.3104 47.5691C99.3896 47.3843 99.3656 46.9643 99.392 46.8323C99.6368 46.1363 99.884 45.2219 100.047 44.6219C100.066 44.5499 100.035 44.0987 100.047 43.9667C100.059 43.8083 100.306 43.5683 100.374 43.4747C100.407 43.4315 100.398 43.1795 100.537 42.7403C100.705 42.2147 101.518 42.2531 101.521 42.3299C101.473 42.4067 101.766 42.8051 101.847 42.9851C101.871 43.0355 101.854 44.2331 101.766 44.5403C101.61 45.0347 98.6456 50.8331 98.2472 51.4163C98.0696 51.6731 96.8744 54.4067 96.692 54.5243C96.0848 54.9155 94.616 56.1035 94.5632 56.1635C94.5176 56.2139 93.7184 57.3947 93.0896 58.0451C92.6192 58.5371 91.7984 60.1787 91.3616 60.8987C91.0496 61.4123 90.2192 64.3019 90.1424 64.4291C90.1064 64.3979 90.584 62.9291 90.9128 62.3579C91.22 61.8299 91.8584 60.1235 91.8968 60.0323C92.1608 59.4251 93.0368 58.0211 93.4712 57.3299C93.896 56.6507 94.724 54.9299 95.1176 54.2339C95.4248 53.6939 96.1808 53.0363 96.1184 52.8059C96.2024 52.7363 96.8912 51.6947 96.692 51.4163C96.3632 51.6947 93.8216 56.4515 93.7448 56.5715C93.6776 56.6747 90.584 60.7787 90.224 61.3187C89.3024 62.7155 88.3736 65.3435 88.2608 66.0659C88.3736 65.9891 88.8992 65.1059 89.5712 64.5107C89.8112 64.2683 90.6488 63.6083 91.004 62.8451C91.5992 61.5539 93.62 58.6019 94.2224 58.0355C94.8584 57.4355 95.2808 56.6147 95.3 56.3267C95.3048 56.2163 95.3216 55.9235 95.4632 55.7531C95.5496 56.0267 95.5376 56.3075 95.3816 56.8163C95.2592 57.2075 94.1384 59.1539 92.4704 61.7219C92.2424 62.0723 89.9792 65.2571 89.4872 65.8211C88.4744 66.9347 86.3336 69.9107 86.2136 70.1579C85.6424 71.2643 84.74 72.9011 84.4136 73.4315C84.32 73.6379 84.248 74.0915 84.0056 74.4155C83.4392 75.3587 83.1992 75.6395 82.8584 75.9707" stroke="#C5273A" stroke-width="2.88" stroke-linecap="round"/>
<path d="M88.5874 66.4769L88.0162 66.5585C87.8962 66.8057 87.7234 67.1033 87.6058 67.2113C87.5602 67.2545 86.1946 68.1233 85.5994 68.5865C83.3098 70.3841 80.1754 74.6561 79.8682 75.3089C79.4986 76.0745 78.7618 77.6873 78.5386 78.4073C78.4402 78.7361 78.1378 81.3185 78.1114 81.5369C78.0418 82.1369 77.4226 83.4905 77.4562 83.5817C77.8018 83.0801 79.4986 80.9129 82.7842 76.3721C84.3658 74.1497 86.4826 71.2553 86.5426 71.1401C86.629 70.9649 86.6074 68.9681 86.7058 68.8505C86.7586 68.7929 86.8162 68.7401 86.869 68.6849C86.7322 68.7209 83.7322 70.7657 82.8586 71.6321C82.3882 72.1097 80.6962 74.4017 79.993 76.2161C79.8778 76.5185 79.5178 78.3713 79.1794 79.0241C78.8722 79.6121 78.1714 81.0425 78.2746 81.4553C78.445 81.3209 80.7058 77.7809 81.7018 75.7649C82.0786 74.9993 82.6786 72.5969 82.6954 72.4505C82.7146 72.2873 82.7266 71.8625 82.9402 71.7137C83.0194 71.6921 83.0242 73.8209 83.0218 73.8425C82.9522 74.6273 82.525 76.0241 82.0402 77.1161C81.7474 77.7569 80.9482 79.5497 80.8954 79.6529C80.497 80.4209 80.3002 81.2249 79.9114 82.2737C80.0098 82.0529 82.4146 79.2881 83.221 78.1337C83.7946 77.3033 84.553 75.4745 84.6586 75.2345C84.781 74.9537 85.8058 72.6521 86.1322 72.2057C86.2522 72.0401 86.7754 71.4041 86.869 71.2241C87.2962 70.3817 87.493 69.5177 87.4426 68.7665C87.4234 68.5385 87.6946 67.2401 87.769 67.1297C87.9682 66.8489 87.9226 66.4025 88.0978 66.2297C88.3762 65.9633 89.2258 65.1257 89.3242 65.1665C89.4154 65.1665 89.4082 67.6697 89.4058 67.7033C89.3866 68.2121 88.0498 70.7681 86.869 72.3689C86.7802 72.4889 83.0866 76.7105 82.8874 76.9985C82.465 77.6297 80.1226 81.0329 79.7578 81.8465C79.4434 82.5497 78.9898 83.1833 78.685 83.8289C78.6442 83.9177 77.737 85.7897 77.5378 86.1185C77.4298 86.3009 73.4794 91.8785 73.3642 92.4209C73.3546 92.4761 73.321 92.6729 73.0378 93.0761C73.3882 92.6801 75.4306 89.7881 75.6562 89.3105C76.3282 87.8585 76.5994 85.2425 76.7194 84.8921C76.813 84.6281 77.9482 82.4177 77.9482 82.1081C77.8714 81.9521 77.4058 82.0577 76.9666 82.4369C76.8634 82.5281 76.3954 82.8857 76.2298 83.0921C75.4498 84.1649 73.201 87.4529 72.985 87.7049C72.565 88.1945 71.8162 89.3057 71.401 90.1289C71.353 90.2225 70.5634 92.3153 70.417 92.5865C70.9546 92.4617 71.2234 92.3705 71.3818 92.2121C71.7658 91.8305 74.8618 88.2257 75.4834 87.5921C75.8434 87.2153 76.1146 86.5289 76.2298 86.2025C76.5178 86.7113 76.4866 87.5945 76.393 88.2473C76.2826 89.1425 75.6706 90.4361 75.5554 90.7865C75.0562 92.2745 75.0442 93.0065 75.001 93.0761C74.8906 93.2585 74.5306 93.6449 74.4274 93.8945C74.1994 94.4249 74.0314 94.6361 73.7746 94.6313C73.6426 94.6265 72.625 94.6193 72.5458 94.5497L72.4642 93.8945L72.3826 96.6785L72.1378 96.7601C72.0634 96.6857 72.085 96.2657 72.0538 96.1049C72.0538 96.1049 71.8402 95.7833 71.7274 95.5313C71.5858 95.7401 71.5714 96.1865 71.5642 96.3497C71.5618 96.3665 71.2738 96.7697 71.1538 97.0865C71.0506 96.1793 71.1634 95.6633 71.2354 94.8761C71.2426 94.8257 71.269 94.7705 71.317 94.7129C71.5258 95.0537 71.6002 95.3489 71.5906 95.9633C71.5738 97.5401 71.5378 98.2097 71.2354 98.5601" stroke="#C5273A" stroke-width="2.88" stroke-linecap="round"/>
<path d="M27.3652 74.8242C28.99 74.8266 32.8708 74.8266 33.5164 74.9106C36.394 75.3042 37.1836 75.525 38.4964 75.6426C38.6332 75.657 39.4372 75.7122 40.378 76.053C40.5892 76.1298 41.1412 76.2762 41.1964 76.2978C41.278 76.3266 41.5924 76.5618 41.6884 76.6242C41.7124 76.641 42.9172 76.749 43.0804 76.7898C43.2556 76.8498 43.6516 77.1162 43.6516 77.1162C43.7572 77.145 44.7292 77.3202 45.6988 77.5266C46.2724 77.7306 47.2516 78.021 47.9092 78.261C47.9572 78.2802 49.8316 78.5082 50.2012 78.6714C50.674 78.8826 51.8692 79.1082 52.0828 79.245C52.5076 79.5138 53.7436 79.605 54.3196 79.9002C54.7564 80.1282 55.87 80.3778 55.93 80.3898C56.254 80.469 56.4652 80.7162 56.5036 80.7186C57.0244 80.7498 60.6028 82.0074 61.0036 82.0266C61.6564 82.0602 62.8516 82.2834 63.6244 82.3554C64.3372 82.4154 65.8588 82.905 66.1612 83.0082C66.5716 83.1522 67.1452 83.1426 67.306 83.1738C67.4212 83.193 67.6948 83.493 67.7164 83.5002C68.05 83.5002 69.2452 84.0162 69.2716 83.9922" stroke="#8EC58E" stroke-width="2.88" stroke-linecap="round"/>
<path d="M42.752 76.461C44.1536 76.4082 50.7416 78.4266 51.14 78.5106C52.3616 78.7434 53.0072 78.753 53.312 78.8346C53.9672 78.9978 54.9416 79.269 55.1936 79.4082C55.4648 79.5618 56.276 79.9098 56.504 79.9002C56.5904 79.8954 57.1928 80.2146 57.2408 80.2266C57.6632 80.3274 60.5432 80.6898 61.2512 80.9634C62.2928 81.3642 62.7752 81.3786 62.9696 81.4554C63.1304 81.5178 64.8824 82.1322 65.6696 82.6818C65.7224 82.7178 66.8432 83.0082 66.8984 83.0082C67.04 83.0154 67.292 83.2722 67.3904 83.337C67.436 83.3658 68.2832 83.5578 68.4536 83.6634C68.6768 83.8074 68.9216 83.8338 69.1088 84.0738C69.1664 84.1458 69.764 84.2202 69.9272 84.4002C70.1144 84.6162 70.376 84.7554 70.5824 84.9738" stroke="#8EC58E" stroke-width="2.88" stroke-linecap="round"/>
<path d="M71.2345 85.4658V85.5474C71.0089 85.8042 69.2665 86.9826 68.9425 87.5106C68.8801 87.6162 68.0833 88.9002 67.9609 89.0658" stroke="#8EC58E" stroke-width="2.88" stroke-linecap="round"/>
<path d="M26.2178 77.1155C29.3186 77.1227 31.2242 77.0987 31.2938 77.1155C31.5434 77.1803 32.1962 77.4083 32.5202 77.4251C34.9682 77.5619 37.853 78.0779 38.6594 78.1787C39.269 78.2507 39.6818 78.2603 39.8882 78.2603C40.1282 78.2771 40.7498 78.5459 41.8514 78.6707C42.7106 78.7547 43.5962 78.7475 44.225 78.9155C44.3474 78.9491 44.7626 79.2131 44.8802 79.2443C46.9754 79.7891 48.641 80.2619 48.7274 80.3075C49.1162 80.5115 49.853 80.5931 50.3642 80.8811C50.5346 80.9771 53.453 81.8915 53.9666 82.1075C54.0218 82.1315 55.0418 82.2755 55.517 82.3547C56.4314 82.5059 57.9362 82.4939 58.1402 82.5179C58.2002 82.5251 59.825 82.9715 60.3506 83.0075C60.5546 83.0219 61.1594 82.9955 61.2506 83.0075C61.5434 83.0483 62.5442 83.4971 62.5586 83.4995C62.8538 83.5547 64.5242 83.6507 64.769 83.6627C64.8026 83.6651 65.3834 83.9915 65.7506 84.1547C65.8562 84.1883 67.1858 84.4043 67.3058 84.5627C67.6082 85.0355 68.6666 85.2107 68.9426 85.5467C67.3658 85.7699 66.4394 85.5851 64.0322 85.0547C63.0026 84.8675 60.893 84.1907 60.7586 84.1547C59.5298 83.8115 58.109 83.0675 57.977 83.0075C57.5354 82.8107 56.357 82.1027 55.9298 81.9443C55.6946 81.8603 50.1074 80.3795 48.9722 79.9811C48.7202 79.8923 45.1778 79.1531 43.325 78.9971C43.0994 78.9803 41.357 78.9203 41.033 78.7523C40.769 78.6155 39.8498 78.4163 39.5642 78.4187C37.865 78.4235 35.8562 78.4259 35.549 78.4259" stroke="#8EC58E" stroke-width="2.88" stroke-linecap="round"/>
<path d="M28.3467 77.9342C29.1363 77.9198 32.5539 78.1694 35.4603 79.163C36.8019 79.619 39.2043 79.907 40.4211 80.0678C42.0603 80.2574 43.3899 80.5838 44.8947 81.071C45.2859 81.1982 46.0011 81.1742 46.2723 81.2078C46.6275 81.2534 47.9115 81.7094 49.1235 81.887C49.6131 81.9614 50.1459 82.0934 50.4531 82.211C50.4963 82.2254 59.2971 83.4998 60.1035 83.4998C61.1907 83.6174 62.1267 84.2534 62.7243 84.3182C63.2859 84.3782 63.8763 84.8966 64.6059 85.1366C64.6995 85.1678 64.9731 85.2758 65.4243 85.4654H64.8507" stroke="#8EC58E" stroke-width="2.88" stroke-linecap="round"/>
<path d="M50.7754 82.0264C50.7826 82.0408 53.353 82.804 54.5386 83.1736C54.6154 83.2 54.9682 83.4856 55.0306 83.5C55.5346 83.6224 56.269 83.9992 56.893 84.0568C57.4546 84.1048 58.2202 84.5824 58.7146 84.6472C58.9906 84.6808 59.9218 84.8824 59.941 84.892C60.0562 84.9472 60.4282 85.2832 60.5146 85.3C60.6538 85.3288 61.1866 85.2856 61.2514 85.3C61.8538 85.4536 62.2618 85.7416 62.3962 85.792C62.6842 85.9552 63.8986 86.344 63.9514 86.3656C66.121 87.2128 66.5242 87.7192 66.7354 87.9208L67.5538 88.2472H67.6354" stroke="#8EC58E" stroke-width="2.88" stroke-linecap="round"/>
<path d="M72.053 86.6107C72.0482 86.6419 72.077 86.9347 72.053 87.0211C71.993 87.2611 71.5514 87.7603 71.4818 87.9211C71.4122 88.0723 71.3498 88.5979 71.153 88.9027C70.913 89.2843 70.9058 90.0307 70.5818 90.3763C70.4306 90.5299 70.3994 90.7387 70.4162 91.2763C70.373 90.8683 70.7882 89.9251 71.153 89.3947C71.1554 89.3899 71.7146 88.7059 71.7266 88.4923C71.7434 88.1803 72.0338 87.0715 72.053 87.0211C72.2282 86.5843 72.2138 86.2675 72.2186 86.0371C72.0794 86.4667 72.0314 86.5819 71.8898 86.6923C71.4434 87.0427 70.349 88.1323 70.3346 88.1659C70.133 88.6459 69.7274 89.2507 69.6794 89.3107C69.641 89.3587 68.681 90.1531 68.6162 90.2947L69.1082 90.3763" stroke="#579D57" stroke-width="2.88" stroke-linecap="round"/>
<path d="M72.0531 86.4473C72.0267 87.3785 72.1971 87.9353 72.2187 88.4105C72.2187 88.4249 72.5547 88.9721 72.5475 89.6609C72.5211 91.2569 72.3939 92.1617 72.3003 92.3393C72.0531 92.7497 71.7819 93.3377 71.7267 93.4049C71.6643 93.4793 71.2251 93.7409 71.1531 93.8945C71.0835 94.0457 70.9659 94.5905 70.9083 94.7129C70.7163 94.5953 70.6083 94.5137 70.5819 94.4681C70.3875 94.1321 70.4187 91.9889 70.4163 91.7681C70.3995 91.7465 70.8387 92.9801 70.9083 93.2393C71.3475 95.0297 70.9899 95.8601 70.9083 96.0233C71.2971 95.8745 72.2979 95.2073 72.6267 94.8761C73.1523 94.3505 73.8459 93.3449 73.8555 93.1577C73.8579 93.0185 74.0115 91.6337 74.0139 91.0145C74.0115 90.4145 74.0331 89.5457 74.0187 89.4761C73.8291 88.5833 73.5627 88.2761 73.4451 88.0841L73.2003 88.1657C73.2195 88.7105 73.0635 89.6417 73.0371 89.8025C72.9675 90.2105 72.0675 91.8065 71.7267 92.1761C70.6539 93.3305 70.3251 94.4753 70.0083 94.7945C69.9339 94.8689 69.9171 95.2481 69.8451 95.2865C69.6363 95.2169 69.5595 95.0249 69.5787 94.4873C69.6051 93.4889 69.6099 91.9865 69.6795 91.9313C69.9507 92.1017 70.0803 92.2793 70.0899 92.5865C70.0923 92.6465 70.0971 95.6297 70.0899 95.6969C69.9987 96.4649 69.5139 96.8825 69.2715 97.4153" stroke="#579D57" stroke-width="2.88" stroke-linecap="round"/>
<path d="M74.1819 84.6474C74.2707 85.0362 74.8371 85.9386 74.8371 85.9554C74.8563 86.3082 75.4803 87.3858 75.4923 87.6738C75.4947 87.7434 75.4923 91.113 75.4923 91.2762C75.4875 90.7506 75.3411 88.9386 75.2451 88.6578C75.0099 87.969 73.8315 85.7106 73.8555 85.0554C73.8723 84.573 73.6899 84.2538 73.2819 83.9922C73.1931 84.1074 73.4547 85.197 73.5267 85.3002C73.8315 85.7466 74.0331 87.0666 74.1819 87.3474C74.4867 87.921 74.5563 88.1634 74.5323 88.6458C74.5083 89.0874 74.5107 90.1242 74.5107 90.129C74.4819 90.3546 74.1651 92.2554 74.1819 92.421C74.1915 92.517 73.9947 93.153 74.0187 93.3234" stroke="#C5273A" stroke-width="2.88" stroke-linecap="round"/>
<path d="M71.7266 86.1182H71.8082C71.9306 86.2502 72.053 86.3534 72.053 86.3654C72.113 86.8262 72.4322 87.4262 72.3818 87.839C72.3794 87.8606 72.713 89.4542 72.7898 89.5574C72.8834 89.6822 72.8762 90.6134 72.8738 91.1726C72.8762 91.5182 73.0442 92.4542 73.037 92.9126C73.0322 93.0758 73.0322 93.3758 73.037 93.8126" stroke="#579D57" stroke-width="2.88" stroke-linecap="round"/>
<path d="M25.8916 79.5713C26.158 80.2937 26.5444 81.0377 26.5468 81.0449C26.6164 81.2777 26.8276 81.3905 26.8732 81.4553V81.5369" stroke="#2F742F" stroke-width="2.88" stroke-linecap="round"/>
<path d="M25.7285 79.7344V79.816C25.7837 79.8832 26.5613 80.5648 26.7101 80.6344C27.0989 80.8168 28.0925 80.8912 28.5101 80.8816" stroke="#2F742F" stroke-width="2.88" stroke-linecap="round"/>
<path d="M27.0367 80.2266H26.9551C27.3511 80.5842 28.8031 80.9682 29.6335 81.2274C30.1375 81.4218 31.4815 81.7482 31.6207 81.7818C32.0263 81.8754 33.1543 81.837 33.6679 82.0266C34.0759 82.149 35.1199 82.5186 35.1415 82.5186C35.2495 82.521 35.7775 82.5906 36.1231 82.7634C36.1615 82.7826 37.2703 82.9818 37.3519 83.0082C37.5583 83.0826 38.9599 83.4498 39.1519 83.5002C39.9127 83.6994 40.8439 84.0018 41.0335 83.9922C34.6111 83.3202 28.3159 83.337 28.2655 83.2554C28.4863 83.1618 28.7911 83.1954 29.1655 83.4186C29.9719 83.9034 30.7423 84.6498 31.0495 84.8106C31.3351 84.9594 32.3719 85.4394 32.6047 85.4658C33.2551 85.5378 33.2695 85.5738 33.3391 85.629C33.4111 85.593 36.0079 86.3946 36.2863 86.4474C36.5503 86.4978 38.1487 87.2538 38.4967 87.3474C38.7679 87.4194 39.4015 87.393 39.5599 87.429C39.6799 87.4554 39.9127 87.5994 40.2151 87.5922C40.7575 87.573 41.1007 87.3762 41.1967 87.2658C41.2279 87.2298 41.3215 86.8554 41.3623 86.6922C42.6559 86.085 42.8407 85.6626 42.8335 85.629C42.3055 85.4394 41.4487 85.4682 40.5631 85.4682C38.7943 85.4658 36.9007 85.4658 36.7783 85.4658C36.5359 85.125 36.5239 84.765 36.2863 84.237C36.0151 83.6466 35.5591 83.1786 34.7311 82.7634C33.9799 82.3458 31.8823 81.4482 31.7839 81.537" stroke="#2F742F" stroke-width="2.88" stroke-linecap="round"/>
<path d="M29.3281 81.208C30.1033 81.2824 31.3321 81.5776 32.1937 81.8632C32.2825 81.892 34.5433 82.1608 34.7305 82.1896C34.8769 82.216 38.1721 83.1712 38.5777 83.3368C38.8849 83.464 39.3721 83.4784 39.4777 83.5C39.6529 83.5336 39.9985 83.8192 40.0513 83.8288C40.9105 83.8696 42.3025 83.9512 42.8329 83.992C43.3657 84.0736 45.7153 84.5008 46.0273 84.4816" stroke="#2F742F" stroke-width="2.88" stroke-linecap="round"/>
<path d="M29.165 81.0449C32.7674 81.0449 34.8602 81.2777 34.8938 81.2897C35.1482 81.3881 35.513 81.7409 36.041 81.8633C36.137 81.8849 36.4514 81.8393 36.5306 81.8633C36.6194 81.8873 38.1722 82.4777 38.4146 82.5185C39.7706 82.7441 41.1266 83.5505 42.0986 83.6633C43.145 83.7761 47.0066 84.4769 47.0906 84.4817C47.093 84.4817 48.041 84.6929 48.9722 84.6473C49.3082 84.6305 49.505 84.6737 49.709 84.8105C49.9298 84.9593 50.4746 84.9497 50.6906 84.9737C50.8946 84.9953 52.2386 85.5713 52.6562 85.6289C53.2178 85.6289 53.7818 86.0513 53.9666 86.1185C54.0938 86.1665 55.133 86.3225 56.1242 86.6393C56.645 86.8049 57.7202 86.7641 58.7138 86.9369C59.1698 87.0233 59.3978 87.1793 59.8586 87.2657C60.029 87.2969 60.5162 87.4097 60.5954 87.4289C60.749 87.4673 60.917 87.7913 61.0034 87.8393C61.1786 87.9329 65.0186 89.2937 65.4242 89.5577C65.897 89.7929 66.0602 90.0737 66.2426 90.2945C66.341 90.4145 66.7418 90.7985 66.8162 90.9497C66.9458 91.2089 66.9914 92.0009 67.2242 92.2577C67.3034 92.3393 67.6346 93.0401 67.6346 93.1577C67.6346 93.2705 67.9922 94.1801 68.0426 94.2233C68.1218 94.2857 68.0906 94.9889 68.1242 95.2865C68.1362 95.3873 68.5946 96.0689 68.6162 96.2681C68.6354 96.4601 68.8154 96.7313 68.861 96.9233C68.5298 96.9257 68.189 96.9113 68.0426 96.8417C67.961 96.8033 67.2698 96.3113 67.1426 96.2681C66.4418 96.0233 65.597 95.6297 65.4242 95.6129C65.1794 95.5913 64.925 95.6753 64.6874 95.6129C64.6082 95.5937 63.6266 95.0777 63.377 95.0417C61.973 94.8185 61.181 94.4897 60.8498 94.4081C60.4202 94.3049 54.4418 94.2977 54.2114 94.3865C54.4682 94.6649 56.0138 94.8809 56.4218 94.9601C58.8962 95.4329 59.8082 95.4233 59.8586 95.4497C60.065 95.5625 61.6274 96.4913 62.1506 96.5969C62.285 96.6233 62.8322 96.6305 63.0506 96.7601C63.353 96.9329 64.0322 96.9233 66.0794 96.9233L65.8346 96.5969" stroke="#2F742F" stroke-width="2.88" stroke-linecap="round"/>
<path d="M41.607 84.8105H41.5254C41.6142 85.0985 42.8958 85.4177 44.0886 85.5809C44.9838 85.7009 48.6702 86.7665 48.8094 86.8553C48.9102 86.9225 49.911 87.0281 50.775 87.4289C50.9958 87.5345 53.979 88.3457 55.6038 88.6577C55.8222 88.6985 57.6366 89.8097 57.7302 89.9657C57.8358 90.1505 57.795 90.4961 57.6486 90.9497C57.591 91.1129 56.6742 91.7993 56.2566 91.9313C56.0598 91.9913 55.239 92.6225 55.1118 92.9129C55.3302 92.3609 55.6662 91.7993 56.0118 91.5209C56.2134 91.3601 57.5886 90.3401 57.6486 90.2945C57.6774 90.2705 58.0782 90.0401 58.4694 90.0449C59.139 90.0569 60.0558 90.0305 61.0878 90.2129C61.299 90.2489 63.7014 90.5681 63.7878 90.6209C63.963 90.7961 64.3302 90.9065 64.5246 91.1129C64.5102 91.2041 64.8294 91.8809 64.851 91.9313C65.1558 92.4377 65.211 93.1697 65.0982 93.3233C65.0526 93.3137 63.9774 93.6857 63.1614 93.6809C61.7694 93.6473 61.4286 93.6617 60.8406 93.4049C60.6222 93.3041 58.6302 91.7273 57.8958 91.1129C57.7902 91.0385 56.7174 90.3377 56.667 90.2945C56.2542 89.9129 56.7006 89.2625 56.7486 89.2289C56.8662 89.2625 57.5046 88.8209 57.8958 88.9025C58.2222 88.9841 58.827 89.0993 58.959 89.1473C59.0502 89.1833 60.1278 89.7785 60.2694 90.0473C60.759 91.0625 61.5078 91.5521 61.659 91.7681C61.731 91.8689 63.0102 92.3105 63.3774 92.4209C63.519 92.4641 64.8366 92.6993 65.0982 92.8313C65.6598 93.1169 66.3078 93.3545 66.9798 93.8129C67.2102 93.9737 67.7622 94.2497 67.8798 94.3865C67.9566 94.4729 68.1678 94.6865 68.2086 94.7945L67.143 94.4681" stroke="#2F742F" stroke-width="2.88" stroke-linecap="round"/>
<path d="M34.7305 82.6817C36.4489 82.6817 38.9617 82.6745 41.3713 82.9409C41.8705 82.9961 43.7593 83.3921 44.1313 83.4617C44.7961 83.5889 46.2289 83.8097 46.5985 84.0737C46.8577 84.2609 49.3921 84.8897 50.3641 85.2185C52.0345 85.7921 53.2681 86.0969 53.3929 86.1185C53.6593 86.1713 54.1273 86.0921 54.2113 86.1185C56.5105 87.0041 57.3865 87.1097 57.6481 87.1025" stroke="#2F742F" stroke-width="2.88" stroke-linecap="round"/>
<path d="M26.6045 82.218L26.7605 82.1412C26.7605 81.546 26.7653 79.5876 26.7605 79.494C26.7461 79.1508 27.3677 77.7372 27.4613 77.7012C27.9845 77.5308 29.2901 77.562 29.3309 77.5476C29.3669 77.5308 29.4197 77.4804 29.4869 77.3916C29.5829 77.646 28.8197 78.0372 28.3949 78.402C28.3517 78.4404 28.0373 78.6852 27.9293 78.7932L26.9165 79.4148" stroke="#8EC58E" stroke-width="1.92" stroke-linecap="round"/>
<path d="M28.8946 72.8604H28.7266" stroke="#EFB3BA" stroke-width="2.4" stroke-linecap="round"/>
<path d="M28.7266 72.8605L55.1266 37.4893" stroke="#EFB3BA" stroke-width="2.4" stroke-linecap="round" stroke-linejoin="round"/>
<path d="M55.126 37.4893L29.2324 73.1989" stroke="#EFB3BA" stroke-width="2.4" stroke-linecap="round" stroke-linejoin="round"/>
<path d="M53.9404 38.8455C54.8332 38.8479 57.4084 38.8503 57.6652 38.8455C58.2868 38.8287 60.3916 38.3055 60.6268 38.1687C61.186 37.8399 62.0356 37.8231 62.4868 37.6599C62.5972 37.6191 63.1156 37.5183 63.1636 37.4895C65.1556 36.3903 67.1404 35.5671 67.9036 35.1207C68.1172 34.9911 69.1036 33.8079 69.2572 33.5127C69.2596 33.5079 69.5188 33.0255 69.5116 32.3295C69.5068 31.7439 70.0228 29.9439 69.85 28.6911C69.8332 28.5783 68.806 27.1119 68.8348 26.3223C68.8372 26.2191 68.8468 25.2087 68.9188 25.0527C69.3556 24.9471 69.8908 24.6639 70.1044 24.6279C70.7812 24.6279 72.2716 24.4935 72.8116 24.4599C73.9708 24.2655 81.5884 24.1479 82.1188 23.9511C82.2628 23.9007 82.714 23.7471 83.134 23.7831C83.662 23.8239 84.3052 23.5215 84.574 23.4447C84.6796 23.4135 87.2884 23.4663 88.2124 23.4447C89.0236 23.4255 89.8348 23.7135 90.0724 23.9511C90.4108 24.1215 92.1628 25.1103 92.782 25.7295C94.6564 27.5847 95.3476 27.9447 95.9116 28.5207" stroke="#EFB3BA" stroke-width="2.4" stroke-linecap="round"/>
<path d="M85.7568 24.9668C86.0592 24.9692 87.588 25.01 88.1112 25.2116C88.6152 25.4108 89.3832 25.9124 89.9688 26.0828C91.2624 26.4644 91.9176 26.6756 92.6112 26.6612C92.7816 26.654 93.4608 26.6588 93.7104 26.6612" stroke="#EFB3BA" stroke-width="2.4" stroke-linecap="round"/>
<path d="M71.5423 25.3047C71.2111 25.2783 70.7815 25.8135 70.4431 26.1519C70.3759 26.2287 69.8143 26.9487 69.5959 27.1671C69.3679 27.4263 69.3271 27.6903 69.4279 27.9279L71.8807 25.8135" stroke="#EFB3BA" stroke-width="2.4" stroke-linecap="round"/>
<path d="M71.2037 26.9987C71.1509 26.8499 71.3381 26.4851 71.6261 26.2355C72.4469 25.5371 74.2901 24.7139 74.8421 24.2891C74.1941 24.5675 73.4045 25.3043 72.8957 25.8131C72.6581 26.0075 71.9621 26.4083 71.6261 26.5739C71.0645 26.8499 70.3301 27.7499 69.6797 28.1819C69.6197 28.2251 69.5645 28.2827 69.5117 28.3523" stroke="#EFB3BA" stroke-width="2.4" stroke-linecap="round"/>
<path d="M30.9248 72.1836H32.2808" stroke="#EFB3BA" stroke-width="2.4" stroke-linecap="round"/>
<path d="M32.2803 72.1841L54.7875 38.3369" stroke="#EFB3BA" stroke-width="2.4" stroke-linecap="round" stroke-linejoin="round"/>
<path d="M29.048 75.4817L27.4808 77.2625C27.6032 76.6745 29.0576 76.0505 29.2088 75.8585C29.456 75.5321 29.7104 74.8481 29.696 74.7785L30.02 74.3465C29.792 74.3033 29.396 74.7857 28.94 75.2105C27.3632 76.6889 26.7824 78.7361 26.78 78.7745C26.7704 78.9905 26.7704 80.8937 26.8328 81.0425C27.0272 80.6033 27.2648 78.6665 27.32 78.1817C27.3272 78.1409 28.3976 76.7225 28.508 76.6145C28.616 76.5065 29.456 75.5705 29.5328 75.4817L30.02 75.2657" stroke="#9FDD9F" stroke-width="2.4" stroke-linecap="round"/>
<path d="M78.173 71.6729C78.185 72.4385 78.1562 72.8968 78.0458 73.1392C78.0458 73.1392 76.6251 75.4097 76.5795 75.4985H76.5146" stroke="#EF586A" stroke-width="2.4" stroke-linecap="round"/>
<path d="M72.8167 84.0452H72.7543L72.6895 83.918" stroke="#9D1F2E" stroke-width="1.44" stroke-linecap="round"/>
<path d="M72.6895 83.9174L100.623 41.3174" stroke="#9D1F2E" stroke-width="1.44" stroke-linecap="round" stroke-linejoin="round"/>
<path d="M100.623 33.918C100.604 34.122 100.757 34.8636 100.762 36.2028C100.76 37.194 100.753 38.9532 100.75 39.7212C100.743 41.1612 100.76 41.3844 100.558 41.7636C100.493 41.9532 100.412 42.1788 100.366 42.2724V41.9532" stroke="#9D1F2E" stroke-width="1.44" stroke-linecap="round"/>
<path d="M98.4531 44.3775C98.5251 43.9503 99.1587 42.5967 99.2187 42.2103C99.3483 41.3079 99.5739 41.0919 99.7299 40.9983C99.6963 40.7799 100.116 39.9759 100.304 39.2127C100.332 39.0855 100.64 37.7151 100.623 37.3623" stroke="#9D1F2E" stroke-width="1.44" stroke-linecap="round"/>
<path d="M98.8369 47.4399C99.2353 47.0079 99.6097 46.0191 99.7921 45.5895C99.8641 45.4215 100.241 44.9007 100.303 44.7615C100.347 44.6607 100.68 43.8447 100.812 42.9111C100.863 42.6975 101.122 42.5031 101.131 42.3999C101.153 42.2199 101.196 40.9335 101.259 40.7439C101.292 40.6119 101.751 38.9391 101.897 38.7015C102.051 38.4471 102.149 36.6663 102.151 36.5967" stroke="#C5273A" stroke-width="1.44" stroke-linecap="round"/>
<path d="M71.7055 85.0859L71.7991 85.1315C71.6239 85.3691 70.3255 87.0203 70.0783 87.5507C70.0615 87.5891 69.7759 88.2203 69.6607 88.2947L69.2887 89.0387C69.1735 89.3867 69.0031 89.6315 68.9623 89.6891C68.8183 89.8859 68.1271 89.8187 68.0335 89.7827L68.6839 89.3627L69.0559 89.2715L69.2887 89.0387L66.1279 89.5499" stroke="#2F742F" stroke-width="1.44" stroke-linecap="round"/>
<path d="M37.2003 101.887C36.7035 101.856 36.3675 101.935 36.3123 102.153C36.2979 102.208 36.2979 102.328 36.3123 102.508C36.6987 102.636 37.1787 102.969 37.2891 103.041C37.4259 103.128 38.0619 103.123 38.3571 103.13C39.0171 103.14 39.2955 103.089 39.7803 102.864C40.1211 102.705 40.6083 102.432 40.6707 102.42C40.8147 102.393 41.4099 102.391 41.7363 102.242C41.9163 102.16 45.0291 100.478 45.1179 100.464C45.4755 100.392 45.8403 100.12 46.1835 99.6619C46.4451 99.3091 46.4523 98.9515 46.8075 98.5939C46.8459 98.5411 47.2947 98.1619 47.4291 97.9723C47.4891 97.8883 47.5179 97.7395 47.5179 97.5283C47.1867 97.4083 46.0323 97.6483 44.8491 97.8763C44.1315 98.0203 40.3659 99.6763 39.9867 99.8995C39.1107 100.416 36.1131 101.181 35.9547 101.263C35.7867 101.352 35.4147 101.678 35.1555 101.707C35.0739 101.51 35.0523 101.282 35.1555 101.174C35.2971 101.032 37.7355 100.329 38.2683 100.195C39.1515 99.8395 39.9747 98.8483 40.0467 98.7715C39.8763 98.5435 41.0475 96.4579 41.1147 95.9251C41.1195 95.8795 41.6667 94.6003 41.7363 94.4131C40.5435 94.9171 40.0131 95.2339 39.2619 96.0043C38.7363 96.5515 37.0467 98.2291 36.8451 98.4163C37.1259 98.1955 38.2659 97.4683 38.5347 97.1707C38.9235 96.7435 39.4371 96.5827 39.8307 96.2155C40.2939 95.7835 41.2491 94.8115 41.2923 94.7707C41.4459 94.6243 41.5131 94.2931 41.5587 94.2355C41.6979 94.0627 42.3675 93.4075 42.3603 93.2587C42.4779 93.1675 44.4771 91.4563 44.5827 91.3891C44.6331 91.3579 44.8683 91.3843 44.9403 91.3003C44.9835 91.2499 45.3819 90.7699 45.3843 90.7675C45.4323 90.5875 45.3123 90.1723 45.1179 90.0547C44.7171 89.8771 44.2803 89.6803 44.2275 89.6995C44.9187 89.9755 46.5939 90.2371 47.5179 90.5011C47.5947 90.5131 49.7451 90.5035 49.8315 90.5011C50.2155 90.4891 50.3715 90.5203 50.6331 90.6787C50.9283 90.8707 51.0579 91.0411 51.0771 91.3003C51.1011 92.2867 51.0003 92.6083 50.4915 92.9467C49.0491 93.8635 46.0059 95.1115 45.1179 95.1259C44.8515 95.1283 43.9947 95.1595 43.6059 95.3035C43.3059 95.4211 43.1955 96.1075 42.9819 96.6379C42.7323 97.2523 42.1035 98.4571 42.0051 98.9515C41.9883 99.0283 42.0099 99.3763 42.0051 99.4843C42.4011 99.5323 42.7131 99.4219 43.0707 99.0403C43.5171 98.5651 43.9563 97.8547 44.7603 96.9931C45.5979 96.1195 46.3179 95.9395 46.8963 94.9483C47.1219 94.5523 47.3043 94.4011 47.3403 94.3243C47.4387 94.1347 47.5539 93.6499 47.6067 93.6139C47.9067 93.4147 48.2691 93.3115 48.4971 93.3475C48.7635 93.7747 48.7755 93.9235 48.7635 95.3035C48.7323 96.1939 47.1555 97.5355 46.5411 97.7947C46.5219 97.8019 45.8163 98.6083 45.7395 98.6827C45.2091 99.2035 44.7027 99.3763 44.5827 99.4843C44.4075 99.6475 44.1291 100.471 44.0499 100.641C43.9275 100.905 42.8355 102.177 42.6267 102.242C42.3987 102.309 41.7147 102.7 41.5587 102.775C41.2083 102.943 40.9251 103.236 40.8483 103.399C41.1363 103.329 41.9235 102.624 42.2787 102.12C43.1475 100.869 44.3739 99.7267 44.6715 99.1291C44.8635 98.7403 45.5307 96.9811 45.5619 96.8155C45.5763 96.7291 45.5643 93.4747 45.5619 93.3475C45.5427 92.5795 45.7491 91.7947 45.8283 91.6579C46.1187 91.5451 48.2091 91.5931 48.4971 91.5667C48.9867 91.4779 49.9875 91.3411 50.7219 91.3891C50.9595 91.4059 51.0891 91.2427 51.1659 91.2115C51.1947 91.1995 51.6483 91.2163 51.9651 91.2115" stroke="#FFC5AA" stroke-width="4.08" stroke-linecap="round"/>
<path d="M35.1076 101.754C35.0908 102.095 36.2476 103.055 36.538 103.184C37.3972 103.566 39.4228 103.945 41.2636 104.154C41.7508 104.204 44.7244 104.204 45.0676 104.204" stroke="#B17255" stroke-width="1.92" stroke-linecap="round"/>
<path d="M42.3604 104.358C42.8428 104.384 45.43 103.552 45.7084 103.439C46.7836 102.997 47.2252 102.563 47.266 102.52" stroke="#B17255" stroke-width="1.92" stroke-linecap="round"/>
<path d="M43.2002 104.293C43.409 104.327 44.9138 103.338 45.1994 103.047C45.2234 103.021 45.3314 102.966 45.3626 102.949L45.5282 102.752L45.6914 102.491V102.457" stroke="#B17255" stroke-width="1.92" stroke-linecap="round"/>
<path d="M45.6914 102.458L53.429 91.377" stroke="#B17255" stroke-width="1.92" stroke-linecap="round" stroke-linejoin="round"/>
<path d="M53.4292 91.377L43.0684 105.539" stroke="#B17255" stroke-width="1.92" stroke-linecap="round" stroke-linejoin="round"/>
<path d="M43.0687 105.539H43.0039" stroke="#B17255" stroke-width="1.92" stroke-linecap="round"/>
<path d="M43.0039 105.54L53.5591 90.3955" stroke="#B17255" stroke-width="1.92" stroke-linecap="round" stroke-linejoin="round"/>
<path d="M45.8235 102.328C44.8539 102.818 43.5507 103.845 43.4955 103.9C43.1427 104.251 41.3835 104.726 41.3643 104.721C41.9427 104.21 44.7075 103.082 44.8395 102.983C44.9091 102.928 45.8619 102.412 46.0515 102.23C46.1379 102.148 46.3179 101.831 46.5435 101.541" stroke="#B17255" stroke-width="1.92" stroke-linecap="round"/>
<path d="M42.4873 104C43.5817 103.568 45.3601 102.848 45.6385 102.541C46.2169 101.903 46.4233 101.591 46.5889 101.423H46.6225" stroke="#B17255" stroke-width="1.92" stroke-linecap="round"/>
<path d="M43.5049 104.202L43.6393 104.135" stroke="#B17255" stroke-width="1.92" stroke-linecap="round"/>
<path d="M43.6396 104.135L53.4676 90.1719" stroke="#B17255" stroke-width="1.92" stroke-linecap="round" stroke-linejoin="round"/>
<path d="M42.7227 103.252C43.3683 102.837 43.6683 102.602 44.6931 102.098C45.3795 101.757 45.4731 101.543 45.5091 101.474C45.5763 101.44 45.8211 101.306 45.9411 101.234C45.9819 101.202 46.2675 100.828 46.4715 100.85" stroke="#B17255" stroke-width="1.92" stroke-linecap="round"/>
<path d="M72.7755 27.4988C72.4419 27.734 71.9019 27.938 71.8251 28.0532C71.8083 28.0796 71.7819 28.1324 71.7459 28.2116L70.9539 28.2908C70.8795 28.0388 70.8723 27.8756 70.9539 27.8156C71.0043 27.7844 71.3619 27.5132 71.4291 27.4988C71.5491 27.4748 79.3563 27.4988 79.6635 27.4988C78.9723 27.4988 75.3531 27.3236 74.5707 27.3308C73.3779 27.35 73.1427 27.3332 72.9339 27.1028C72.8691 27.0284 71.5875 26.8724 71.5083 26.8652C71.3979 26.8556 71.0739 26.5484 70.9539 26.4692C70.8675 26.3684 70.8795 26.1764 70.9539 26.0732C71.2107 26.0996 72.2931 25.9076 73.8315 25.9004C74.9451 25.9052 77.5563 25.9172 77.6043 25.9148C78.2115 25.9052 78.6819 26.138 79.1091 26.39" stroke="#EF586A" stroke-width="1.92" stroke-linecap="round"/>
<path d="M74.4537 24.3877C74.3937 24.3949 73.1937 24.8893 72.9105 25.0045C72.1449 25.3165 70.9569 25.9237 70.3209 26.5477C69.3945 27.4717 68.7801 28.3309 68.6553 28.3357" stroke="#EFADB5" stroke-width="1.92" stroke-linecap="round"/>
<path d="M75.1924 24.3878C76.0732 24.3878 78.7084 24.3854 78.8332 24.3878C79.5004 24.4046 80.5732 24.647 81.9172 24.635C82.6564 24.635 83.8564 24.6254 84.3844 24.7574C84.4444 24.7742 87.2596 25.6502 87.346 25.7462C87.4444 25.8542 89.722 26.507 89.8132 26.6078C89.9884 26.8022 91.8988 27.3566 92.0332 27.4718C92.2012 27.6134 93.0844 27.9998 93.1444 28.0286C93.3436 28.1222 94.414 28.6046 94.6252 28.8302C94.7884 28.7462 96.2308 30.0638 96.2908 30.1238C96.5644 30.3998 97.9036 31.931 98.0164 32.1614C98.0596 32.2502 98.3668 32.387 98.4484 32.5934L98.8204 32.6534L99.7444 34.259" stroke="#EFADB5" stroke-width="1.92" stroke-linecap="round"/>
<path d="M55.3447 41.1836L32.3887 73.1732" stroke="#EF586A" stroke-width="1.92" stroke-linecap="round" stroke-linejoin="round"/>
<path d="M32.89 74.553L32.7004 74.4258L31.822 74.6154L31.4476 74.865L30.13 76.497L28.8748 78.0018C28.8724 77.9586 29.6884 76.9074 29.7532 76.8714C29.8828 76.8042 31.2172 75.3258 31.3852 74.553C30.9124 74.7546 30.6964 74.8674 30.6316 74.9898C29.7532 76.7466 29.734 76.7994 29.7532 76.8714C29.5972 77.061 29.2564 77.4954 29.2516 77.5002C29.0092 77.6586 28.8388 78.3042 28.75 78.3786V78.441" stroke="#8EC58E" stroke-width="1.92" stroke-linecap="round"/>
<path d="M85.3447 44.2842L62.7559 79.0362" stroke="#C5273A" stroke-width="1.92" stroke-linecap="round" stroke-linejoin="round"/>
<path d="M64.7092 41.0244L41.4268 73.8036" stroke="#C5273A" stroke-width="1.92" stroke-linecap="round" stroke-linejoin="round"/>
<path d="M42.7588 74.3099L66.1708 40.9307" stroke="#EFB3BA" stroke-width="1.92" stroke-linecap="round" stroke-linejoin="round"/>
<path d="M60.5645 38.466C61.0877 38.3124 62.7101 38.2428 62.8733 38.2356C63.2117 38.2212 63.5549 38.0268 63.6821 38.0028C63.6821 38.0028 64.7117 38.0052 64.8941 37.9452C65.0165 37.9068 66.0173 37.4556 66.3941 37.254C66.9845 37.0524 67.5413 36.4524 67.5485 36.4452C67.6925 36.2724 67.8989 36.0372 68.0669 35.9268" stroke="#EFB3BA" stroke-width="1.92" stroke-linecap="round"/>
<path d="M60.1035 38.9275C60.8547 38.9275 62.8443 38.9371 62.9307 38.9275C63.8595 38.8363 65.9283 37.9483 65.9307 37.9459C66.9411 37.2547 68.4243 36.1891 68.5875 35.9851C68.6523 35.8987 69.2163 33.9523 69.4515 32.9827C69.4827 32.8579 69.6867 32.3659 69.6843 31.3675C69.6819 30.4723 69.6819 28.7707 69.6843 27.9619" stroke="#EFB3BA" stroke-width="1.92" stroke-linecap="round"/>
<path d="M65.8874 40.9433V40.7657C66.389 39.7793 65.9258 39.5273 65.8274 39.4169L65.357 39.2993L65.0066 39.1818L64.6538 39.0641C64.6154 38.9297 64.7402 38.8769 65.357 38.7713C65.4746 38.7425 65.6258 38.7065 65.7098 38.7113L66.1202 38.3009L66.3554 37.7154V38.5361L66.9434 37.5977L66.473 38.3009L67.6466 36.9521" stroke="#EFB3BA" stroke-width="1.92" stroke-linecap="round"/>
<path d="M66.3369 39.2747C67.1361 38.5091 68.2065 37.5059 68.3553 37.2539C68.9889 36.1883 69.2337 36.0611 69.2217 35.8691L69.6849 35.2907C69.6369 35.2811 69.9729 34.2515 70.0305 34.0211C70.1577 33.6251 70.1433 32.7467 70.1457 31.4819C70.1433 30.6683 70.0425 30.0443 70.0305 29.7515C70.0233 29.6123 69.5985 28.7051 69.5673 28.5971C69.5361 28.4843 69.4449 27.9011 69.4521 27.4427L69.3369 27.1523" stroke="#EFB3BA" stroke-width="1.92" stroke-linecap="round"/>
<path d="M66.3365 40.3117C66.2885 40.1605 66.7445 39.2725 66.7973 39.1573C67.4213 37.8469 67.9757 36.8173 68.0093 36.7909C68.0789 36.7405 68.2997 36.6373 68.4125 36.5029" stroke="#EFB3BA" stroke-width="1.92" stroke-linecap="round"/>
<path d="M65.5039 41.5603L64.5007 39.9931C64.2055 39.5323 63.9967 39.5827 63.4351 39.3019C63.3703 39.2779 62.1583 39.1699 61.6783 39.1771C61.4503 39.1795 60.3799 39.1771 59.9863 39.1771" stroke="#EFB3BA" stroke-width="1.92" stroke-linecap="round"/>
<path d="M65.1292 41.8096L65.002 42.5632" stroke="#EFB3BA" stroke-width="1.92" stroke-linecap="round"/>
<path d="M65.1292 41.8096L65.002 42.4384" stroke="#EFB3BA" stroke-width="1.92" stroke-linecap="round"/>
<path d="M55.3369 39.2246V39.3686C55.3993 39.5054 56.1625 39.5174 57.5305 39.659C60.9841 40.0238 65.3113 39.6734 65.3905 39.587C65.4481 39.5174 65.5225 39.5054 65.8273 39.515" stroke="#EFB3BA" stroke-width="1.92" stroke-linecap="round"/>
<path d="M55.1904 39.0781V39.5149" stroke="#EFB3BA" stroke-width="1.92" stroke-linecap="round"/>
<path d="M55.1914 39.5146L31.4434 73.0258" stroke="#EFB3BA" stroke-width="1.92" stroke-linecap="round" stroke-linejoin="round"/>
<path d="M83.9383 43.3817L84.1447 42.7145L85.3255 42.0449C85.8991 42.0497 86.3383 42.0713 86.6119 42.3017C86.8063 42.4697 87.1255 42.6665 87.1759 42.7649C86.6479 42.7649 84.7975 42.7505 84.7111 42.7649C84.1831 42.8537 83.7487 43.5113 83.7343 43.5353L83.2207 44.6153" stroke="#EFB3BA" stroke-width="1.92" stroke-linecap="round"/>
<path d="M24 78.0279L24.2808 77.6367" stroke="black" stroke-width="2.88" stroke-linecap="round" stroke-linejoin="round"/>
<path d="M27.3574 73.3379L53.5246 36.8027" stroke="black" stroke-width="2.88" stroke-linecap="round" stroke-linejoin="round"/>
<path d="M53.7051 36.6206C57.4515 36.6206 62.4171 36.6326 62.4795 36.6206C62.5683 36.6038 63.0315 35.9846 63.3819 35.7182C63.4323 35.6822 64.6755 35.2286 65.0115 35.1758C65.0115 35.1758 66.0915 34.6334 66.0963 34.631C66.2427 34.5974 66.7155 34.6262 66.8187 34.5422C67.1811 34.271 67.6155 33.9398 67.6347 33.8174" stroke="black" stroke-width="2.88" stroke-linecap="round"/>
<path d="M69.2617 25.0362V23.5986" stroke="black" stroke-width="2.88" stroke-linecap="round"/>
<path d="M67.9941 24.1408C68.1069 24.1672 69.7389 23.656 70.2549 23.4208C71.0637 23.0536 72.7053 22.7944 72.9693 22.6936C73.2213 22.6 74.0085 22.192 74.3253 22.1512C74.4453 22.1368 74.7765 22.144 75.0501 22.06L75.1629 22" stroke="black" stroke-width="2.88" stroke-linecap="round"/>
<path d="M88.9775 23.6895L89.6111 23.8695" stroke="black" stroke-width="2.88" stroke-linecap="round"/>
<path d="M89.9707 24.1406L90.9691 24.683" stroke="black" stroke-width="2.88" stroke-linecap="round"/>
<path d="M98.9375 29.8076C99.0023 29.8412 99.6695 30.8396 99.7391 30.9236C100.281 31.6028 101.726 33.6308 101.909 33.818C102.096 34.0124 102.696 35.8124 102.725 35.8988C102.818 36.1796 103.063 36.8372 103.085 36.8948C103.298 37.4204 103.241 38.4644 103.447 38.702C103.653 38.9396 103.622 39.8948 103.625 40.5476C103.627 40.6868 103.627 40.8236 103.627 40.9628" stroke="black" stroke-width="2.88" stroke-linecap="round"/>
<path d="M103.81 41.1445C103.803 42.0709 103.827 43.2397 103.81 43.3141C103.738 43.5901 103.068 45.6301 102.996 45.8461C102.744 46.5925 102.692 47.5333 102.543 47.7445C102.404 47.9461 101.628 50.3221 101.638 50.4589L101.458 50.5501" stroke="black" stroke-width="2.88" stroke-linecap="round"/>
<path d="M101.457 50.5508L72.4053 97.886" stroke="black" stroke-width="2.88" stroke-linecap="round" stroke-linejoin="round"/>
<path d="M26.0645 82.7412L26.4845 83.1084" stroke="black" stroke-width="2.88" stroke-linecap="round"/>
<path d="M29.3135 86.6699L29.3783 86.8163L29.6495 87.0875" stroke="black" stroke-width="2.88" stroke-linecap="round"/>
<path d="M29.6494 87.0882C30.0598 87.0762 30.5494 87.4482 30.7342 87.5394C31.1398 87.765 31.7902 88.0506 31.9102 88.0818C32.3254 88.1898 32.9782 88.6242 33.175 88.7154C33.259 88.7538 33.9598 88.8954 34.6222 89.0778C34.6822 89.0922 34.9054 89.229 34.9846 89.2578C35.0446 89.2794 35.4094 89.253 35.4358 89.2578" stroke="black" stroke-width="2.88" stroke-linecap="round"/>
<path d="M52.4307 95.8477L68.4819 99.4309" stroke="black" stroke-width="2.88" stroke-linecap="round" stroke-linejoin="round"/>
<path d="M36.7031 89.9805L37.6967 90.1629" stroke="black" stroke-width="2.88" stroke-linecap="round"/>
<path d="M26.3373 74.5332C26.3421 74.766 26.3205 75.1596 26.2365 75.2436C26.1285 75.3516 25.9269 75.3324 25.8285 75.4476C25.7397 75.5532 25.7997 75.7332 25.7277 75.8532C25.6653 75.9588 25.3389 76.158 25.1181 76.6668C24.8973 77.1876 24.9213 78.2868 24.9141 79.41" stroke="black" stroke-width="2.88" stroke-linecap="round"/>
<path d="M24.5093 77.582C24.5381 77.8028 24.3341 78.1436 24.3053 78.2924C24.2837 78.4148 24.3173 79.3868 24.3053 79.5116C24.2813 79.8644 24.5333 80.102 24.6101 80.2244C24.7109 80.3756 24.8549 80.7956 25.6277 81.5444C25.6781 81.5924 26.0333 82.0532 26.2373 82.154" stroke="black" stroke-width="2.88" stroke-linecap="round"/>
<path d="M26.3379 82.3574L26.6427 82.559" stroke="black" stroke-width="2.88" stroke-linecap="round"/>
<path d="M68.8101 98.9204C68.9805 98.9132 70.4085 98.7596 70.5381 98.7164C70.6965 98.6612 71.2149 98.2796 71.3493 98.2076C71.5341 98.1092 71.8317 98.1476 71.9589 98.1068C72.0525 98.078 72.4029 97.7924 72.4677 97.802C72.6021 98.0828 71.4405 98.6756 71.1477 98.7164C70.6677 98.7716 69.8157 99.1724 69.2157 99.122C68.9637 99.1004 68.6541 99.2996 68.5053 99.326C68.3517 99.3524 67.5573 99.3164 67.5909 99.326" stroke="black" stroke-width="2.88" stroke-linecap="round"/>
<path d="M25.2092 78.7676C25.1684 79.358 26.1956 82.4948 26.57 83.0108C26.6276 83.0924 26.846 83.8004 27.2108 84.3716C27.5396 84.9524 27.9308 85.2428 28.6532 85.9724" stroke="black" stroke-width="2.88" stroke-linecap="round"/>
<path d="M68.3259 24.3707V24.7739L67.5195 25.2563C67.5723 24.8003 67.9203 24.6611 68.1627 24.4499C68.5251 24.1283 68.9475 23.7563 69.0483 23.7275L69.1299 25.1531" stroke="black" stroke-width="2.88" stroke-linecap="round"/>
<path d="M66.7151 26.1426C66.7151 26.817 66.7079 28.3578 66.7151 28.3962C66.7919 28.7898 67.4687 29.9178 67.6007 30.0858C67.6895 30.2082 67.9967 30.4986 68.0015 30.7314C68.0087 31.0266 68.0207 32.0994 68.0015 32.3394C67.9991 32.3778 67.4639 32.8866 67.4399 32.9034C67.2695 33.021 67.0127 33.8682 67.0367 33.8706" stroke="black" stroke-width="2.88" stroke-linecap="round"/>
<path d="M67.5189 33.7097C67.4901 33.2729 67.5429 33.0425 67.7613 32.7425C68.0901 32.2817 68.1789 31.7537 68.1621 31.5353L68.3253 31.4561" stroke="black" stroke-width="2.88" stroke-linecap="round"/>
<path d="M52.7832 96.0977L53.1384 96.1793" stroke="black" stroke-width="2.88" stroke-linecap="round" stroke-linejoin="round"/>
<path d="M38.1836 90.335L39.7412 90.8918" stroke="black" stroke-width="2.88" stroke-linecap="round"/>
<path d="M40.9802 90.1504L34.8242 99.4432" stroke="black" stroke-width="2.88" stroke-linecap="round" stroke-linejoin="round"/>
<path d="M34.7068 101.118L34.438 101.209C34.3828 101.519 34.33 101.687 34.2748 101.675C34.1764 101.668 34.2412 103.163 34.2604 103.626C34.5844 103.813 35.4364 104.377 35.8324 104.557C35.9188 104.596 36.5644 105.177 37.2244 105.486C37.3396 105.539 38.9332 106.146 39.1492 106.137C39.2236 106.134 41.9596 106.144 42.0436 106.137C42.3268 106.11 42.5524 106.017 42.5788 105.949C42.9172 106.057 45.202 104.111 45.2212 104.092L46.1884 103.348" stroke="black" stroke-width="2.88" stroke-linecap="round"/>
<path d="M46.1885 103.348L55.0949 90.335" stroke="black" stroke-width="2.88" stroke-linecap="round" stroke-linejoin="round"/>
<path d="M41.6954 89.9636C41.7338 89.4188 42.881 87.9572 42.9746 87.9188C43.2386 87.806 43.4522 87.362 43.4882 87.1748C43.2386 87.362 42.3986 88.2428 42.269 88.3844C42.2042 88.454 40.6202 90.6596 40.2842 90.8924" stroke="black" stroke-width="2.88" stroke-linecap="round"/>
<path d="M43.4062 87.3613H44.1286L44.3086 87.4141" stroke="black" stroke-width="2.88" stroke-linecap="round"/>
<path d="M44.6426 86.6172L55.2482 89.5908" stroke="black" stroke-width="2.88" stroke-linecap="round" stroke-linejoin="round"/>
<path d="M34.6344 99.2588C34.6392 99.2804 34.3104 100.296 34.2288 100.466C34.0272 100.922 33.9696 101.776 34.0464 102.792" stroke="black" stroke-width="2.88" stroke-linecap="round"/>
<path d="M52.7783 95.4785C52.9031 95.4809 53.8967 95.6105 54.0407 95.6441C54.2495 95.6921 55.7831 96.1865 55.7975 96.1913C55.9127 96.2369 56.5487 96.4769 56.8415 96.4673" stroke="black" stroke-width="2.88" stroke-linecap="round"/>
<path d="M34.8574 88.9141C35.2126 89.0797 37.0726 89.6629 37.1926 89.6941C37.4278 89.7325 39.247 89.9821 39.3742 90.0037C39.535 90.0325 40.1062 90.3349 40.1518 90.3157" stroke="black" stroke-width="2.88" stroke-linecap="round"/>
<path d="M74.8105 22.3117C76.6897 22.3141 82.3033 22.3141 82.3921 22.3117C82.9321 22.3021 83.9617 22.7053 83.9761 22.7077C84.0265 22.7221 84.5569 22.6837 84.6337 22.7077C84.6937 22.7269 84.8137 22.8589 85.0297 22.8397" stroke="black" stroke-width="2.88" stroke-linecap="round"/>
<path d="M98.6924 29.4277L99.2708 29.8285H99.4676" stroke="black" stroke-width="2.88" stroke-linecap="round"/>
<path d="M87.8691 23.5576C88.3395 23.6704 89.0859 23.848 89.1915 23.8336C89.4291 23.8072 91.6347 24.8032 92.1531 24.8704C92.3019 24.8896 92.5995 24.8728 92.8947 25.0936C92.9379 25.1272 93.0771 25.1944 93.1923 25.3168L93.5619 25.4632" stroke="black" stroke-width="2.88" stroke-linecap="round"/>
<path d="M87.3623 23.0822C87.7151 23.0726 88.7519 23.4206 88.8935 23.4638C89.2127 23.5598 91.8383 24.8318 92.4503 25.019C92.5751 25.055 93.5663 25.6622 93.7103 25.7606C94.0559 25.991 95.0663 26.4326 95.4863 26.723C96.6767 27.6758 97.9175 28.3382 98.5247 28.9454C98.6015 29.0246 99.5447 30.1862 99.7103 30.3518H99.7823" stroke="black" stroke-width="2.88" stroke-linecap="round"/>
<path d="M84.377 22.2041C84.6194 22.4609 85.1426 22.4825 85.3394 22.5017C86.2802 22.5977 88.3538 23.2625 88.3754 23.2409" stroke="black" stroke-width="2.88" stroke-linecap="round"/>
<g style="mix-blend-mode:multiply">
<rect width="128" height="128" fill="white"/>
</g>
</svg>
