<svg width="128" height="128" viewBox="0 0 128 128" fill="none" xmlns="http://www.w3.org/2000/svg">
<path d="M39.9062 93.0684C40.187 93.102 40.8494 93.5052 41.1206 93.6204C41.3654 93.7236 43.7487 93.7476 43.8831 93.8412L43.6623 95.61" stroke="#E8FFF9" stroke-width="12" stroke-linecap="round"/>
<path d="M42.0565 95.1055L41.9269 95.9359L40.8445 97.2751C40.6453 97.3159 40.1845 97.0207 40.0141 97.0831C39.8629 97.1407 39.6925 97.6543 39.6325 97.7215C39.4741 97.9135 39.2413 98.3743 38.9941 98.5495" stroke="#E8FFF9" stroke-width="7.2" stroke-linecap="round"/>
<path d="M38.9941 98.6143C39.1261 98.6863 61.1629 98.6791 69.0493 98.6767C69.2773 98.6767 69.6829 98.6767 69.8605 98.6791" stroke="#E8FFF9" stroke-width="7.2" stroke-linecap="round"/>
<path d="M58.6357 98.168H87.7189" stroke="#E8FFF9" stroke-width="7.2" stroke-linecap="round"/>
<path d="M89.6323 91.6641C89.5507 92.0697 88.9627 93.2553 88.6123 93.5769C87.5275 94.5465 85.7683 95.4657 84.5299 95.8713C84.3475 95.9313 82.8907 96.6273 81.9163 96.5097C81.7435 96.4881 81.7147 96.2265 81.7243 95.7441" stroke="#E8FFF9" stroke-width="7.2" stroke-linecap="round"/>
<path d="M89.5043 98.1688L90.3323 98.5504L90.5867 98.8072C90.7979 98.8816 90.9035 99.0064 90.9059 99.2536C90.9179 99.868 90.9971 99.9952 91.0979 100.082C91.1819 99.9568 90.4523 99.3208 90.2051 99.0616C89.9891 98.8336 89.4467 98.1424 89.3123 98.0416C89.1851 97.9768 88.5035 97.348 88.3547 97.2112L90.7163 99.1264C91.0139 98.7352 91.0763 98.3536 91.2251 97.9144C91.5371 96.6712 92.2403 95.6104 92.4371 95.4256C92.3891 95.2072 92.8355 94.12 92.8187 93.8968C92.7875 93.3256 92.9771 92.944 92.9483 92.7472C92.8883 92.3368 93.1571 91.8904 93.2027 91.8544C93.1787 91.3168 93.7235 89.4544 93.7139 89.368C93.6995 89.2768 94.1699 87.2848 94.2227 85.9888C94.2251 85.9432 94.9475 84.3376 94.9883 84.2032C95.0003 84.1576 94.9859 79.6912 94.9883 78.3352C95.0195 78.6664 94.0115 79.816 93.5843 80.056C93.5171 80.0944 91.7291 82.1512 91.6091 82.288C91.1699 82.7848 86.8331 86.0632 86.5067 86.4352C86.4371 86.5144 85.8587 86.8744 85.6763 86.944C85.5083 87.0136 82.5131 89.2408 82.1699 89.4304C81.2051 89.9128 79.7315 90.8056 79.1075 90.8992C78.4523 91.0048 77.6243 91.4152 76.8755 91.6C76.5899 91.696 75.5771 91.9 75.4739 91.9192C75.3635 91.936 74.9915 92.2144 74.9003 92.2384C74.6771 92.296 72.9395 92.4016 72.8579 92.428C72.6419 92.5048 72.4451 92.6416 72.2195 92.6848C71.5259 92.8144 58.7075 92.8216 58.6355 92.812C57.9995 92.6848 54.7043 92.2264 54.1091 92.1112C51.9299 91.672 48.7379 91.3816 48.4331 91.2808C47.9171 91.108 44.9867 90.4096 44.9243 90.388C44.8163 90.352 43.6619 89.9008 43.4579 89.8768C43.3451 89.8648 39.5675 89.8768 39.4403 89.8768C39.3827 89.9488 39.1331 90.5872 39.1211 90.8344C39.1067 91.1272 38.8067 91.3984 38.6747 91.5352C38.1995 91.5712 37.4411 91.0504 37.4003 91.0264C37.2731 90.8656 36.1907 90.1432 36.0611 89.9416C36.0779 89.8744 35.7299 88.7152 35.6771 88.4104C35.6459 88.2232 35.4659 86.0848 35.4227 85.2856C35.4179 85.1848 35.1923 84.8488 35.1683 84.712C35.1683 83.536 34.9355 82.5208 34.9115 82.3528C34.8779 82.1104 34.4483 80.956 34.2755 80.5024C34.2203 80.3584 34.1483 79.6744 34.1483 79.2904C34.0907 79.048 33.8147 78.2056 33.7643 78.016C33.6395 77.536 33.6059 77.152 33.6371 76.5496C33.6563 76.2016 33.4187 75.9328 33.3827 75.784C33.3227 75.5584 33.2459 72.8416 33.1907 72.7864C33.1475 72.8368 32.8739 74.5672 32.8691 76.7776C32.8691 78.6472 32.8715 84.1168 32.8715 84.1384C32.9123 85.492 33.6251 87.3736 33.7019 87.5176C33.7235 87.5632 34.8755 89.116 35.1683 89.3032C35.7731 89.6896 36.4499 90.256 37.0211 90.5224C37.6139 90.7984 38.6411 91.5016 39.2051 91.7104C39.9635 91.9888 44.3651 94.2088 44.4779 94.2784C44.9003 94.54 46.2827 95.5648 46.6475 95.9368C46.6547 94.9984 46.6235 94.6384 46.2011 93.5128C46.1507 93.3784 45.7355 91.7488 45.5627 91.408C43.7915 87.9136 42.3155 83.2792 41.0339 80.3752C40.3859 79.2952 39.6803 77.1712 38.7395 76.2304C38.2931 75.6568 37.0571 73.8376 36.9539 73.744L36.4427 72.6592" stroke="#E8FFF9" stroke-width="7.2" stroke-linecap="round"/>
<path d="M35.9345 79.5462C35.5865 78.8766 35.5361 77.7318 35.4233 77.5686C35.1809 77.2062 35.1545 75.4302 35.0873 74.8302C35.0153 74.1918 34.7825 73.2846 34.5953 71.7006C34.5665 71.4654 34.3625 69.7974 34.1489 69.2766C34.0169 68.9574 34.0217 65.8614 34.0193 64.623C33.7049 68.0094 33.2273 69.9702 32.8721 70.8078C32.7521 71.1054 32.7473 72.6054 32.8721 72.8502C33.3449 73.7334 34.2065 75.8094 34.4657 77.0574C34.5497 77.4582 35.7809 81.7158 36.0617 82.383C36.6833 83.883 38.3753 88.3014 38.4833 88.5366C38.7329 89.0718 40.1249 91.1502 41.1641 92.2998C41.4041 92.5662 43.4609 93.543 43.5857 93.5766" stroke="#E8FFF9" stroke-width="7.2" stroke-linecap="round"/>
<path d="M34.7844 74.0607C34.8036 73.5447 34.05 71.6919 34.0188 71.4471C33.9036 70.5087 33.3852 69.6399 33.3828 68.8959C33.3828 68.5167 33.2556 66.7647 33.2532 66.2823C33.2484 65.3799 33.246 63.1119 33.2556 63.0279C33.3444 62.2383 33.5268 61.7535 33.51 61.1151C33.498 60.6423 33.546 60.5343 33.6372 60.1599C33.7668 59.6199 33.762 59.5047 33.7644 58.1775C33.7644 57.3471 33.7572 55.7247 33.7644 55.6935C33.7932 55.5831 34.0212 54.9207 34.4028 53.7183C34.518 53.3487 34.5636 53.2983 34.6572 53.2071C34.59 52.9551 35.7804 49.5399 35.8044 49.3815C36.174 47.0655 37.6404 44.1255 38.4204 42.9399C38.7108 42.5007 38.9364 42.0999 39.6324 41.4087C40.1412 40.8999 41.898 39.2535 42.7572 38.7951C43.7004 38.3007 46.7148 36.1215 48.114 35.0943C48.762 34.5999 51.942 33.1959 52.4508 32.9271C52.7052 32.7951 54.4716 32.1807 54.7476 32.0991C55.1148 31.9863 56.1516 31.8591 56.7228 31.5879C56.8836 31.5135 58.254 31.3335 59.0196 31.2063C59.1036 31.1967 59.6916 31.0095 59.9124 30.9495C59.9916 30.9279 61.1868 30.9519 61.4436 30.9495" stroke="#E8FFF9" stroke-width="7.2" stroke-linecap="round"/>
<path d="M34.5303 49.3813C34.7583 49.0477 34.7847 48.7933 35.0415 47.8501C35.1519 47.4373 35.3871 45.1669 35.4231 44.9797C35.4375 44.9077 35.7663 44.5717 35.8047 44.4709C35.8215 44.4301 35.7951 44.1925 35.8695 44.0869C36.3063 43.4677 36.5655 42.7141 36.6351 42.5557C36.7359 42.3301 37.0815 41.4397 37.2735 41.0269C37.3479 40.8445 37.3095 40.4629 37.3359 40.3885C37.3935 40.2277 37.5927 39.7429 37.9095 38.7301C38.6079 36.3589 38.9799 35.2525 39.0591 35.0941C39.1119 34.9885 39.4407 34.6813 39.5055 34.4581C39.5775 34.2133 39.8703 33.3685 39.9519 33.1189C40.1151 32.7901 40.2663 31.7365 40.2687 29.8549C40.2687 29.6461 40.2687 29.4373 40.2711 29.2285" stroke="#E8FFF9" stroke-width="7.2" stroke-linecap="round"/>
<path d="M41.0342 28.4629C41.3414 28.5757 42.3182 29.0725 43.0766 29.2285C43.3238 29.2765 44.7902 29.7493 45.5606 29.8765C46.9334 30.0949 49.4678 30.4069 50.627 30.5005C51.1502 30.5797 61.211 30.5725 64.3118 30.5677C62.5646 30.5653 58.8998 30.5485 57.9998 30.6949C57.3302 30.8053 54.491 31.0117 52.9478 31.3477C52.0718 31.5397 50.327 31.7485 50.0918 31.7797C48.8006 31.9549 47.9846 32.1973 47.555 32.2333C46.0334 32.3581 44.5622 32.3557 42.9494 32.4805C42.611 32.5069 41.2934 32.7517 41.0342 32.7349" stroke="#E8FFF9" stroke-width="7.2" stroke-linecap="round"/>
<path d="M50.8575 32.7349C58.5255 32.7349 71.7471 32.7373 77.3007 32.7373C78.2439 32.7397 79.1655 32.7013 79.4919 32.4805C79.8615 32.2213 80.0823 32.0413 80.4471 31.7149C80.7231 31.4629 80.6967 30.7717 80.7039 30.6301C80.5815 30.3133 77.4495 30.0661 76.1103 29.9461C73.9023 29.7925 54.5727 29.7997 54.4287 29.8021C53.7591 29.8141 52.7127 29.5309 51.9399 29.5477C51.2079 29.5645 47.0439 29.4325 45.4983 29.2909C45.3687 29.2789 45.1551 29.2789 44.8623 29.2909C44.8983 29.0941 45.7431 29.0197 46.2543 28.9117C46.8735 28.7821 56.4903 28.7869 61.1511 28.7869C65.1687 28.7845 73.1343 28.7773 74.2815 28.9501C74.9511 29.0509 77.2335 29.2813 79.7655 29.2933C80.2527 29.2957 81.2751 29.2813 81.4047 29.2909C81.5559 29.3053 82.8711 29.6101 83.3823 29.6749C83.5479 29.6917 89.3919 29.6725 89.8239 29.6101L90.3975 28.9093" stroke="#E8FFF9" stroke-width="7.2" stroke-linecap="round"/>
<path d="M90.3978 28.9092H90.5874C90.6594 28.9788 90.6426 32.6772 90.6522 32.7348C90.6714 32.8644 90.8947 32.9916 90.9067 33.054C90.9163 33.0996 90.9138 42.6036 90.8442 42.6852C90.4314 42.7116 89.6586 42.2316 88.8018 41.5356C85.7922 39.0828 79.881 34.926 79.365 34.5852C79.3074 34.5492 78.1723 34.1244 78.0883 34.1388L77.5146 33.246" stroke="#E8FFF9" stroke-width="7.2" stroke-linecap="round"/>
<path d="M80.0654 32.4805C81.0182 32.4925 82.2254 32.4493 82.5518 32.5453C83.3006 32.7709 84.9134 33.8101 85.1678 34.2661C86.027 35.7013 87.3326 37.9597 88.1006 39.7501C88.6094 41.0197 89.0078 43.3189 88.9934 43.4485" stroke="#E8FFF9" stroke-width="7.2" stroke-linecap="round"/>
<path d="M87.5918 41.7928C87.6134 41.7472 87.9614 42.664 87.9734 42.6856C88.0334 42.796 88.787 43.7608 88.931 44.0248C89.4878 45.0568 90.7118 48.0304 91.2902 50.5288C91.295 50.548 93.1118 56.164 93.275 56.9896C93.3854 57.5608 93.5846 59.2984 93.7142 60.0952C93.7286 60.2392 93.7166 64.696 93.7142 65.452C93.719 63.6136 93.719 58.5928 93.6782 57.7288C93.647 57.1576 93.3134 55.7416 93.107 54.8968C93.0206 54.4816 92.8694 52.4896 92.7566 51.676C92.7062 51.3256 92.0126 47.3248 92.0558 46.2568C92.0558 43.8208 91.8782 43.132 91.6718 40.9C91.6502 40.6552 91.379 40.1272 91.2902 39.9424C91.2686 40.7944 92.3366 44.7112 92.3726 44.8528C92.951 46.96 94.2038 55.2784 94.2254 55.7536C94.2302 55.8712 94.2206 58.2856 94.2182 59.2168C94.2206 60.7456 94.2326 61.2712 94.0958 61.8808C93.8798 62.7952 93.7886 63.6472 93.7142 63.7312" stroke="#E8FFF9" stroke-width="7.2" stroke-linecap="round"/>
<path d="M94.0958 52.0596C94.4462 52.434 94.487 53.4804 94.7342 54.1644C94.835 54.4452 95.1278 56.9964 95.135 59.6604C95.1182 61.542 95.087 64.3428 95.1158 64.4316C95.243 64.7196 95.4086 65.1156 95.3918 65.4036C95.363 65.9532 95.3798 67.6284 95.3078 67.7484C95.2526 67.8348 95.2238 68.3148 95.243 68.8308C95.267 69.39 95.0582 69.7596 94.9886 69.9156C94.9718 69.9516 94.9934 76.3812 94.9886 76.4844C94.9838 76.5756 94.703 79.1916 94.415 80.0556C94.0286 81.1884 93.4886 84.2676 92.8886 85.5036C92.5622 86.1732 91.9718 87.7116 91.8638 87.9012C91.787 88.0308 90.4454 89.7924 90.2054 90.0684C89.8238 90.546 89.2166 91.2852 88.8662 91.3452C88.8686 91.014 88.9118 90.1068 89.1734 89.0652C89.3894 88.2132 90.3038 85.1172 90.4934 83.994C91.0382 80.7804 91.5638 78.9132 91.9262 78.0156" stroke="#E8FFF9" stroke-width="7.2" stroke-linecap="round"/>
<path d="M93.3306 68.8311C93.3234 70.0743 93.3546 71.2022 93.2034 72.0206C92.961 73.3022 92.1642 75.7095 91.1634 77.9511C90.9954 78.3231 90.1362 80.3607 89.9442 80.7447C89.5002 81.6231 87.453 84.2223 87.1074 84.9711C86.8506 85.5327 85.2138 87.5871 84.1482 88.5375C82.3506 90.1407 81.0522 91.2039 81.0234 91.2183C80.0826 91.6383 78.4411 92.1062 77.1595 92.7734C76.6459 93.0374 73.3098 93.6399 71.073 93.7047C68.853 93.7047 66.7914 94.2495 65.6058 94.1943C65.121 94.1895 63.0426 94.4631 62.9106 94.4703C62.7954 94.4751 58.2162 94.4799 58.0626 94.4703C56.5866 94.3623 55.3146 93.935 53.7906 93.1934C52.425 92.5358 49.233 91.1966 49.1346 91.1534C48.6858 90.9542 46.845 89.2215 45.2442 88.1559C43.6242 86.9991 42.2106 86.2119 40.0146 84.4575C39.441 84.0423 38.5242 83.3438 38.1666 82.799C38.0514 82.6214 37.4658 82.0047 37.3362 81.7143C37.1634 81.3231 35.433 77.9295 35.5506 77.6343" stroke="#E8FFF9" stroke-width="7.2" stroke-linecap="round"/>
<path d="M69.2829 50.1822C67.4373 50.1846 62.3133 50.1678 62.2125 50.1822C61.7781 50.2518 61.1277 50.4822 60.8973 50.667C60.2421 51.2406 58.3701 52.5894 58.2621 52.6782C57.7341 53.1438 56.3061 54.3486 56.0445 54.6174C55.9461 54.723 54.8661 56.2806 54.4893 56.8542C54.0645 57.5142 53.6757 58.6374 53.4525 59.331C53.3517 59.607 51.3381 63.8622 51.0141 64.6902C50.7237 65.3718 50.3853 66.1758 49.9965 67.7526C49.8285 68.3622 49.5957 69.2526 49.5861 70.1214C49.5861 71.0622 49.5861 73.1238 49.8069 73.6086C49.9077 73.8174 50.4477 74.3886 50.6397 74.5782C50.8725 74.787 53.1717 75.3222 55.4277 75.4974C56.3997 75.5694 58.6533 75.5238 59.1645 75.5478C59.8749 75.5838 61.2021 75.8094 61.8669 75.8262C62.7573 75.8334 64.7517 75.8406 65.2845 75.7374C65.5197 75.6894 67.7013 74.9646 68.0517 74.7678C68.6205 74.451 70.1109 73.1118 70.5813 72.7926C71.3109 72.3438 72.3213 71.6982 73.4229 70.7142C75.8373 68.5686 77.0301 67.4046 77.8077 66.0534C78.0813 65.5686 78.4749 64.3926 78.6477 63.6126C78.8061 62.8638 78.8709 61.443 78.8469 60.7854C78.8181 60.1326 78.5325 58.9758 78.2925 58.3614C78.0453 57.7398 76.0029 54.5526 75.5901 54.2022C75.4797 54.111 73.3533 52.803 72.5397 52.6086C71.4045 52.347 69.0165 52.2654 66.2757 52.2558C65.2269 52.2582 64.7373 52.3446 63.6741 52.6974C61.8117 53.3334 58.8453 54.9414 57.9981 55.6206C57.3693 56.1342 56.3469 57.7086 55.7709 59.0454C54.3789 62.2758 53.1837 66.5838 53.2029 67.1622C53.3565 67.227 58.1373 64.5966 58.4613 64.4502C59.0013 64.2054 62.9061 62.5878 64.5093 61.8822C66.9309 60.7854 67.9677 60.3774 70.6125 59.6622C73.6365 58.8126 74.7957 58.4574 75.2421 58.2918C74.1237 58.2414 73.1397 58.347 72.2637 58.6374C71.5797 58.8678 67.1589 59.9262 65.5029 60.5334C64.7757 60.8022 60.7173 62.6814 59.3373 63.2646C58.0509 63.8286 55.1685 66.039 54.6237 66.3822C54.2877 66.5934 54.1893 66.783 54.1749 67.1622C54.1749 67.2078 54.1749 67.2558 54.1749 67.3014C54.3549 67.5126 59.1717 67.4982 60.0453 67.4598C60.9885 67.4142 65.1093 66.7254 66.6501 66.6942C70.0773 66.687 73.7157 66.6774 73.9269 66.6774C73.7565 66.7038 69.2757 68.0526 68.8605 68.1126C67.1661 68.3742 63.5277 68.9646 61.5861 69.2934C58.3557 69.8454 55.7949 70.059 55.1109 70.1766C53.2029 70.515 51.2181 71.2494 51.2637 71.3214C51.2493 71.595 51.4893 71.8182 52.3029 72.4302C53.1477 73.0446 56.0877 74.6214 57.5709 75.615C57.8925 75.831 60.4293 77.1942 60.5493 77.4198C60.6237 77.571 60.4893 78.0222 60.3429 78.183C59.7429 78.7974 59.2317 79.0134 58.0893 79.347C56.3301 79.8582 53.9565 80.3022 52.6485 80.4702C51.0957 80.6742 49.1061 81.3846 48.9765 81.4398C48.8133 81.5958 48.9357 82.2006 49.1829 82.479C49.3077 82.611 50.2533 83.1726 50.6781 83.4078C51.7485 83.991 52.5117 84.183 52.7181 84.2814C53.2629 84.5334 54.4005 84.6966 54.5901 84.8358C55.2213 85.3158 56.5413 85.9014 56.6685 85.9446C56.7189 85.959 65.5509 85.9422 67.3629 85.9422C67.8885 85.9422 71.4285 85.7454 72.8109 85.6854C73.4757 85.7118 74.0013 85.4358 74.2029 85.3902C74.4285 85.3374 74.9781 85.3782 75.3117 85.1814C75.4533 85.0998 76.3773 84.8214 76.8381 84.6966C77.1861 84.5982 78.8229 83.3526 79.1253 83.103C80.7885 81.4398 81.7869 80.3022 82.4517 79.5678C83.0229 78.915 83.4621 77.8686 83.4909 77.835C83.6493 77.643 84.1605 76.2126 84.1845 76.1718C84.4701 75.6774 84.9885 75.0702 85.9173 73.3998C86.0445 73.1406 86.2461 72.1758 86.4021 71.8758C86.4621 71.7558 86.5437 70.5966 86.7477 70.3494C86.8077 70.2774 87.0381 68.8998 87.0261 68.2014C87.0261 66.747 87.2733 65.7294 87.2829 65.343C87.2925 64.959 87.5733 63.8622 87.5805 63.7662C87.5829 63.7302 87.5805 61.0734 87.5805 59.9334C87.5781 58.3614 87.5925 57.5934 87.4413 56.9742C87.4245 56.907 87.0261 55.2798 86.9565 55.1022C86.7117 54.4902 86.3517 53.4174 86.3325 53.2326C86.2557 52.4862 85.7949 51.8598 85.7085 51.7062C85.6341 51.579 84.5517 50.2134 84.5301 50.1822C84.0717 49.419 81.8949 46.9494 81.7581 46.7862C81.6429 46.6494 79.7997 44.4702 79.4709 44.2926C77.4261 43.215 76.7661 42.5574 76.2141 42.2814C76.1493 42.2478 74.8629 41.727 74.8269 41.727C74.3733 41.739 74.1693 41.5278 74.0661 41.451C73.9773 41.3838 73.1565 41.3598 73.0245 41.3118C72.8685 41.2542 72.5493 41.0118 72.1245 41.0334C71.8413 41.0478 68.9805 40.4934 68.9373 40.479C68.6157 40.3758 66.3381 40.0638 65.4717 39.9246C64.6005 39.7806 59.8917 40.2462 59.6493 40.2726C59.4405 40.2942 57.9597 40.3878 57.1533 40.6182C57.0141 40.659 55.8237 41.0262 55.7685 41.0334C55.3173 41.103 54.0861 41.415 53.9661 41.451C53.5149 41.583 52.2669 42.4734 51.7821 42.7782C50.5557 43.5534 49.8789 44.0286 49.2525 44.5686C48.2901 45.3606 47.6037 46.1334 46.9653 47.1318C46.4445 47.9598 45.0861 49.7982 44.4717 50.5278C45.0957 50.8134 53.0061 48.5934 53.3397 48.4686C54.6357 47.9982 55.6053 47.8758 56.1141 47.6958C56.8437 47.439 60.6861 46.8222 61.6677 46.8342C63.9789 46.8894 65.6613 46.9782 66.0261 47.0646C66.2277 47.1102 66.5013 47.3142 66.5805 47.3406C66.6645 47.3718 67.4301 47.4942 67.5501 47.5494C67.6269 47.583 68.1237 47.9382 68.2437 47.9646C68.8125 48.0462 72.6381 48.783 72.8877 48.9342C73.1205 49.0854 75.3261 49.9494 75.8661 50.5974C75.9909 50.7486 76.9797 51.3342 77.3925 51.7062C77.5605 51.8622 78.9189 53.2326 79.0557 53.439C79.8237 54.6198 80.5221 56.3262 81.0645 57.1134C81.3285 57.5022 81.7437 58.6878 81.7581 58.7766C81.7581 59.2254 82.3773 60.9078 82.3821 60.9246C82.4133 61.047 82.4469 61.9902 82.5213 62.1726C82.6269 62.4414 83.0061 63.1182 83.0061 63.627C83.0061 65.1486 83.0157 66.0726 82.8669 66.5382C82.0581 68.9646 78.9237 73.2054 78.6381 73.6086C78.5613 73.731 77.7645 75.3078 77.3925 75.7566C76.3749 76.9686 74.5005 78.3702 73.2333 78.9438C72.7269 79.1694 70.1685 79.8102 69.9069 79.8462C67.2789 80.0646 64.3749 80.643 63.5301 80.6766C62.4501 80.7246 61.2477 81.0846 60.8973 81.1614C60.9165 81.2454 62.1693 81.243 63.1053 81.159C64.2597 81.051 65.1357 80.8278 66.2973 80.4558C69.5493 79.455 77.2605 77.1726 78.2229 76.7262C78.9645 76.3734 79.7277 75.483 80.1645 74.7174C81.1797 72.915 82.9509 69.0222 83.0061 68.895C83.1525 68.5446 83.1501 66.8766 83.0061 66.6078C82.5477 65.8134 80.1477 63.1638 78.9861 62.3814C76.9965 61.047 75.2973 59.6742 74.7573 59.331C74.4909 59.163 73.2069 58.4598 72.6789 58.2918C71.0133 57.7686 70.1157 57.6678 67.4805 57.6678C67.0269 57.6702 64.3989 58.2222 62.9061 58.0134C62.2941 57.9222 60.8565 57.2622 60.6885 57.183C60.4389 57.0606 59.4357 56.5494 59.2341 56.2806C59.1477 56.163 59.2221 55.1526 59.2341 55.1022C59.3013 54.8694 60.4653 53.8686 60.8973 53.6478C61.1253 53.5326 62.9229 52.7958 63.4653 52.4862C66.0885 50.8878 68.8197 49.2438 71.5701 47.9646C72.9309 47.331 76.1541 45.4422 76.2141 45.4014C76.3917 45.2742 76.9821 44.979 77.0445 44.7078C77.0781 44.5518 76.8501 43.9998 76.7685 43.9446C75.5637 43.1526 72.2397 40.371 71.0157 39.9942C70.6797 39.8982 69.9477 39.6318 69.6981 39.6486C69.4629 39.663 68.1429 39.363 67.6893 39.3702C67.5141 39.375 66.2733 39.3726 65.8173 39.3702" stroke="#FFC762" stroke-width="7.2" stroke-linecap="round"/>
<path d="M87.4408 67.7871C87.4384 68.4735 87.436 70.1823 87.436 71.2047C87.4384 72.5919 87.4648 73.1631 87.1624 73.6791C86.98 73.9767 85.4416 75.2823 85.2232 75.4791C84.7096 75.9471 83.9752 77.0319 83.7664 77.4207C83.3824 78.1455 82.6552 78.7311 82.588 78.7383C80.6416 78.8871 78.292 78.8751 76.9072 78.8751" stroke="#FFC762" stroke-width="7.2" stroke-linecap="round"/>
<path d="M50.2934 44.4992L50.2238 44.0144C50.0006 43.9088 49.715 43.7984 48.6278 43.8056C48.3494 43.8128 47.7542 43.8296 47.6582 43.8752C47.5262 43.9424 46.7918 44.6024 46.4798 44.9144C46.2926 45.0752 45.719 46.1336 45.371 46.5776C45.1934 46.8416 45.023 47.42 44.9558 47.5496C44.8694 47.7128 44.1638 48.7712 44.123 48.8648C44.0558 49.2128 43.211 51.6128 42.947 52.0544C42.7142 52.436 42.2726 53.168 42.1838 53.3024C41.9774 53.6168 41.3846 55.568 41.4206 56.0744C41.4566 56.528 41.1206 57.26 41.1446 57.8768C41.1566 58.1552 41.003 59.3504 40.9886 60.7064C40.9838 61.6832 40.9814 63.764 40.9814 64.868C40.9838 65.3216 40.9886 67.2896 41.2142 68.0648C41.4662 68.9264 42.143 71.3888 42.1838 71.528C42.2798 71.8664 42.5966 72.3968 42.6686 72.5696C42.7382 72.7304 42.8966 73.6208 42.947 73.7456C43.0262 73.952 44.7854 76.9064 44.8166 76.9352C45.2006 77.2688 46.5326 79.7144 46.619 79.8464C46.7294 80.012 46.9934 80.5832 47.4518 80.9552C47.8382 80.9192 48.071 80.8328 48.2126 80.6072C48.7286 79.7792 49.6478 75.308 49.7246 75.0008C49.7942 74.6936 50.411 69.4424 50.4302 68.8256C50.4422 68.492 50.4374 62.3984 50.3894 61.4912C50.3558 60.8984 49.8206 58.436 49.8062 58.3616C49.7702 58.1552 49.5542 56.6888 49.2518 56.2112C49.1342 56.0336 48.2174 55.7432 47.3822 55.7264C47.0966 56.0048 45.6158 59.9072 44.8502 63.0584C44.6414 63.9536 44.1854 66.7952 44.183 67.8392C44.1878 68.8232 44.1926 70.3568 44.1926 70.9064C44.3702 70.9424 44.6078 70.5992 45.095 69.4496C45.419 68.636 46.2638 66.4928 46.343 66.2624C46.4462 65.9432 47.0846 61.7864 47.099 60.3032C47.1038 58.4384 47.1134 53.7776 46.9646 53.2328C46.8686 52.8872 46.7126 52.5008 46.619 52.3304C46.655 52.2944 48.8102 51.7256 51.1694 51.4616C53.183 51.2552 55.8854 51.284 56.1134 51.3608C56.1326 51.6584 55.9694 52.4288 55.9742 53.3696C55.9766 53.564 55.967 56.4416 55.9742 56.6984C56.003 57.4376 56.2958 58.772 56.3918 59.1224C56.5406 59.6432 57.0062 60.3032 57.7766 61.2032C57.9374 61.3808 58.3382 61.4672 58.6094 61.4096C59.0822 61.292 60.5486 58.9928 61.6574 56.9744C62.1566 56.0912 63.1718 53.4008 63.8774 51.776C64.1678 51.0968 64.523 49.8536 64.5446 49.0808C64.5686 48.1736 64.5734 46.2032 64.5686 46.0928C64.559 45.884 64.1822 44.7344 63.8078 44.2928C63.6878 44.1512 62.8262 43.3016 62.4206 42.6272C62.3486 42.5072 62.3558 42.4544 62.4206 42.212C63.599 41.8928 66.527 41.5352 68.363 41.5472C69.6782 41.5712 70.0982 41.6576 70.6694 42.0728C71.3798 42.62 71.8694 43.2968 72.2438 44.0696C72.3446 44.2808 73.811 49.208 74.6342 50.6336C75.2342 51.6752 75.2606 51.788 75.2414 51.9848" stroke="#FFC762" stroke-width="7.2" stroke-linecap="round"/>
<path d="M77.0439 55.7266C77.0847 55.8106 79.0143 59.1922 80.2431 61.6186C80.6607 62.449 81.0231 63.4954 81.1191 64.0234C81.2199 64.6306 81.2319 69.7114 81.0903 70.2178C81.0807 70.249 80.5551 71.8498 80.3703 72.5698C80.0775 73.4002 79.4727 73.7866 79.4007 73.7458" stroke="#FFC762" stroke-width="7.2" stroke-linecap="round"/>
<path d="M78.9852 69.0352C79.2732 69.5728 79.3884 69.8848 79.398 70.2112C79.4052 70.54 79.3716 71.2672 79.3308 71.4616C79.2852 71.6608 78.9852 71.9176 78.7764 72.016C78.234 72.232 73.9788 72.232 72.6084 72.2224" stroke="#FFC762" stroke-width="7.2" stroke-linecap="round"/>
<path d="M38.2336 63.9064C38.2168 64.768 38.3896 65.668 38.5792 66.3328C38.6464 66.5656 39.0568 67.1536 39.1336 67.3024C39.16 67.3504 40.1608 70.1104 40.5208 70.6984C40.9504 71.4016 41.6992 73.204 41.6992 73.6096C41.6992 73.7104 44.1424 77.1952 44.1928 77.2408C45.5176 78.424 46.9192 79.5952 47.104 79.708C47.3008 79.828 47.8216 80.3992 48.1432 80.608C48.2344 80.668 48.9208 80.9824 48.976 81.0256C48.9808 81.028 49.7488 81.7 49.9456 81.856C50.8624 82.576 52.336 82.9312 53.0656 83.104C55.6216 83.908 58.2448 84.1528 59.2336 84.1432C65.9296 84.136 68.404 84.2008 70.9792 83.5432C71.0152 83.5336 72.6975 83.4064 73.4415 83.104C74.4447 82.6888 76.756 81.7984 76.9072 81.7168C77.1256 81.5992 78.5127 80.8432 78.7071 80.8168C79.0047 80.7784 80.6319 80.1784 81.4119 79.4992C81.4359 79.4776 82.1272 78.7168 82.4512 78.3904C82.6312 78.2128 83.2888 77.8504 83.6296 77.4904C83.86 77.2432 84.4816 76.7752 84.5992 76.4512C84.6232 76.3864 86.8 74.0272 86.8864 73.6792C87.0088 73.1752 87.0375 72.256 87.5103 71.044C87.5439 70.9552 87.7312 70.6912 87.7864 70.6288C87.8536 70.5568 87.8247 70.072 87.8559 69.9352C87.8679 69.8824 88.3071 69.3472 88.4103 69.1048C88.4295 69.0616 89.2383 67.0336 89.2431 66.8872C89.2599 66.3232 89.6728 65.7232 89.6584 65.1544C89.6368 64.5496 90.1119 63.4456 90.2127 62.728C90.2199 62.6824 90.2319 62.524 90.3519 62.2432" stroke="#C28517" stroke-width="2.88" stroke-linecap="round"/>
<path d="M37.6797 56.2812C37.6821 57.162 37.8117 59.9413 37.9557 60.5797C37.9749 60.6589 37.9125 61.3165 37.9557 61.4797C38.0085 61.6789 38.2557 62.106 38.2341 62.658C38.1621 64.5564 38.4117 65.2092 38.3733 65.7084C38.3565 65.8932 38.5869 66.078 38.6493 66.1932C38.6949 66.2724 39.2037 68.3508 39.2037 68.826C39.2877 69.2796 39.6117 70.3813 39.6189 70.4197C39.6309 70.4845 39.6429 71.7972 39.8277 72.6372C40.2117 74.3268 40.4301 75.534 40.5693 75.93C40.6989 76.314 40.9173 76.9548 41.0061 77.2116" stroke="#C28517" stroke-width="2.88" stroke-linecap="round"/>
<path d="M40.1729 74.1631C40.5713 74.2111 40.7825 74.2639 40.8665 74.3695C43.1849 77.2783 43.8785 78.4519 44.6777 79.1527C44.7569 79.2199 45.8489 79.9495 45.9953 80.0527C46.0625 80.1031 47.2793 81.3199 48.0737 81.8551C48.2993 82.0039 49.3025 82.5943 49.3913 82.6183C49.5257 82.6543 49.6745 82.5799 49.8065 82.6183C49.9673 82.6615 51.0137 83.2303 51.3329 83.4487C51.4409 83.5231 51.6497 83.6623 51.9569 83.8663" stroke="#C28517" stroke-width="2.88" stroke-linecap="round"/>
<path d="M44.6104 79.5684C45.412 80.1972 46.6839 81.8628 46.8279 81.9948C47.3007 82.4292 48.7048 83.2716 48.976 83.3796C49.3 83.5092 53.7112 84.7524 54.5848 84.9612C56.0344 85.2972 56.62 85.5228 56.7376 85.53C57.244 85.5492 58.5759 85.6644 58.9551 85.6668C58.4775 85.686 57.1983 85.2156 56.5671 85.1148C55.0503 84.87 51.9832 84.5172 50.9848 84.3516C50.8696 84.3324 49.0408 84.1044 48.1432 83.934C47.416 83.7948 46.3864 83.3628 46.0648 83.034C46.1512 83.1084 47.2504 84.4812 47.3824 84.6276C48.0856 85.4004 49.1031 85.9932 49.5999 86.2212C50.2695 86.5236 51.4455 86.8692 52.6479 86.9148C52.7727 86.9196 54.7167 87.2196 55.4679 87.2148C56.5023 87.1908 60.7456 87.1932 62.8504 87.1956C64.9312 87.1956 69.2415 87.1956 69.7671 87.054C69.9639 87.0012 72.4792 86.4804 72.5392 86.4996C68.5552 86.502 61.7584 86.4996 61.4512 86.43C61.396 86.418 61.2088 86.262 61.1032 86.2212C64.3384 86.226 72.0543 86.1636 73.8831 86.0268C76.7295 85.806 79.8903 85.026 80.3703 84.7668C80.4735 84.7092 80.8743 84.6924 81.5487 84.6972H78.5703" stroke="#C28517" stroke-width="2.88" stroke-linecap="round"/>
<path d="M73.4419 84.8366L73.3027 84.767C74.1355 84.1094 75.5323 83.495 75.7963 83.3798C76.3699 83.135 77.6779 82.883 78.8467 82.5494C80.3707 82.0286 83.8339 80.9557 84.1843 80.6077C84.5227 80.2669 84.8587 79.3118 85.0147 79.0838C85.0963 78.9662 85.5115 78.6062 85.5691 78.5294C85.5883 78.5054 86.0203 77.2814 86.2627 76.727C86.3131 76.547 86.3851 75.9253 86.5411 75.6877C86.8123 75.3493 87.3451 74.4998 87.3715 74.4398C87.4339 74.3054 87.4099 73.9046 87.4411 73.8158C87.4627 73.7582 88.1203 72.8006 88.2043 72.707C88.2715 72.6278 88.2715 72.023 88.2715 72.0158C88.3267 71.8142 89.0659 69.9518 89.1043 69.5198C89.1355 69.1646 89.5243 68.3005 89.5891 68.2021C89.6275 68.7733 88.8931 70.355 88.7563 70.6598C88.3363 71.5958 87.0691 73.6982 86.3323 74.9942C85.7683 75.8006 84.1843 78.3206 84.0451 78.5294C84.0187 78.563 83.7451 78.8246 83.6995 78.9446C83.6275 79.1294 83.3923 79.667 83.1451 79.847C82.9963 79.9526 81.6499 80.4926 81.5491 80.5382C81.4363 80.591 80.3155 81.1814 79.9555 81.3014C79.5523 81.503 79.3075 82.1798 79.2619 82.271C79.1971 82.4102 79.0387 82.8662 78.9859 82.9646C79.5019 83.159 79.6555 83.1782 79.8163 83.0342C79.8931 82.967 80.8699 82.4462 81.3427 82.4798" stroke="#C28517" stroke-width="2.88" stroke-linecap="round"/>
<path d="M89.7972 63.6272C89.7972 62.0456 89.7996 57.368 89.7972 57.32C89.7756 57.0848 90.0348 56.7416 90.0732 56.5592C90.2292 55.8128 89.9172 54.9968 89.9364 54.7568" stroke="#C28517" stroke-width="2.88" stroke-linecap="round"/>
<path d="M40.9629 28.0525C41.5893 28.0021 52.1253 28.0045 56.2605 28.0069C57.6309 28.0045 59.4429 28.2757 61.5837 28.2805C69.3597 28.2829 78.3357 28.2565 78.4317 28.2829C78.6309 28.3357 78.7845 28.5133 78.9861 28.5589C78.9909 28.5613 85.6413 28.5493 86.0853 28.6285C86.5845 28.7197 87.6909 28.8085 87.8565 28.8373C88.2933 28.9141 88.4661 29.1253 89.0349 29.1133C89.1333 29.1109 91.5021 29.1133 92.2917 29.1133" stroke="#EF586A" stroke-width="2.88" stroke-linecap="round"/>
<path d="M41.1904 26.6195C48.7576 26.6195 63.496 26.6195 70.6648 26.6195C78.3592 26.6195 90.0952 26.6099 90.1432 26.6195C90.2968 26.6483 90.496 26.8787 90.5584 26.8955C90.6472 26.9219 91.6192 27.1019 91.9456 27.2435C92.0608 27.2939 92.26 27.3155 92.2912 27.3107" stroke="#EF586A" stroke-width="2.88" stroke-linecap="round"/>
<path d="M36.4316 98.5598C50.3252 98.5358 51.5468 98.7158 66.1964 98.7038C67.9724 98.7014 72.1988 98.7014 72.2636 98.6966C72.5084 98.6798 72.7964 98.927 72.9572 98.975C73.0436 99.0014 86.03 98.9678 86.1236 98.975C86.5724 99.0086 86.9204 99.119 87.8564 99.1142C89.7524 99.1142 91.97 99.1142 92.2916 99.1142" stroke="#EF586A" stroke-width="2.88" stroke-linecap="round"/>
<path d="M37.125 100.777C37.1994 100.885 38.397 100.95 38.5794 100.984C38.5914 100.986 39.8586 101.303 40.1058 101.331C41.3826 101.471 60.357 101.473 68.8194 101.471C77.3586 101.468 89.3178 101.468 89.937 101.485C90.4722 101.495 90.6954 101.43 90.7674 101.262C90.7938 101.192 90.9066 100.938 91.0458 100.916C91.5906 100.82 92.2458 100.453 92.5002 100.499C93.0786 100.621 93.2298 100.736 93.5394 101.123C93.645 101.257 93.693 101.463 93.6786 101.607C93.609 101.727 93.4098 101.754 92.5698 101.747C90.4098 101.723 87.2922 101.562 86.1306 101.315C84.8778 101.048 82.3218 101.082 81.1338 100.847C79.881 100.597 76.1658 100.196 75.1746 100.223C74.109 100.251 71.6802 100.069 68.7186 100.091C68.1066 100.098 64.4826 99.6659 63.261 99.6611C59.3322 99.6587 51.6138 99.6611 47.8266 99.6659C46.1922 99.6683 43.1562 99.6611 42.5298 99.8051C42.0786 99.9131 41.613 99.9611 41.3514 99.9443C41.4186 100.172 41.5794 100.283 42.0018 100.316C42.7578 100.372 52.413 100.364 55.2834 100.359" stroke="#EF586A" stroke-width="2.88" stroke-linecap="round"/>
<path d="M35.7661 95.6436H35.6917C35.6677 95.8908 35.8405 95.9867 35.9149 96.0131C36.6877 96.2939 37.4701 96.3852 38.8045 96.3852C39.1933 96.3708 39.4357 96.5124 39.5437 96.5316C39.6205 96.546 48.9085 96.5291 50.9365 96.5219C52.0693 96.5195 53.6461 96.7211 56.6557 96.6803C57.7285 96.7547 59.9629 96.9756 60.8701 96.9756C68.7781 96.9756 88.8229 96.9804 88.8781 96.9756C89.3749 96.9492 89.8501 97.2179 90.0637 97.2731C90.1765 97.3019 92.5237 97.2851 92.5813 97.2731C92.8933 97.1987 93.9037 96.6371 94.4341 96.0875" stroke="#72A89A" stroke-width="2.88" stroke-linecap="round"/>
<path d="M36.7842 98.8187H36.849L36.981 98.5547H37.1778" stroke="#EF586A" stroke-width="2.88" stroke-linecap="round"/>
<path d="M37.1777 98.5546C44.3033 98.5546 58.8449 98.5546 66.2657 98.5546C73.6145 98.5546 91.5737 98.5546 91.5737 98.5546C91.6361 98.557 92.0129 98.4034 92.0345 98.4226" stroke="#EF586A" stroke-width="2.88" stroke-linecap="round"/>
<path d="M48.2559 55.1728C48.3159 55.1272 51.3327 54.0856 53.3967 53.5912C56.1111 52.888 60.5487 52.2736 61.4415 52.2712C63.6735 52.1224 77.8863 52.1368 80.5623 52.1392" stroke="#C28517" stroke-width="2.88" stroke-linecap="round"/>
<path d="M47.8604 65.063C48.0476 65.423 50.69 64.8446 54.7172 64.3214C55.2356 64.2566 75.4484 64.2686 81.3548 64.271" stroke="#C28517" stroke-width="2.88" stroke-linecap="round"/>
<path d="M71.5957 44.4902C71.5885 44.5982 72.7765 48.3926 73.0333 49.0598C73.3429 49.8614 74.7253 54.5222 74.7589 54.9086C74.8237 55.6646 75.3205 57.6302 75.3541 57.743C75.4189 57.9758 75.4165 58.991 75.4189 58.9958C75.4621 59.1686 75.6253 59.291 75.6829 59.459C75.7381 59.6246 75.9637 62.5406 75.9469 64.5998C75.9397 64.895 76.0861 65.5742 76.0789 66.6446C76.0429 69.599 76.2301 70.3358 76.2109 70.4678" stroke="#C28517" stroke-width="2.88" stroke-linecap="round"/>
<path d="M53.793 45.8096C54.0402 45.8216 54.129 45.8792 54.453 46.2704C54.9426 46.8704 55.1154 47.4104 55.5738 48.4472C55.6482 48.6176 56.409 52.5032 56.4546 53.372C56.5242 54.6056 57.2658 58.9688 57.2874 59.0624C57.3594 59.3696 57.7554 60.284 57.8154 60.512C57.9042 60.848 58.0674 63.8048 58.0146 65.984C58.0026 66.5648 58.2906 67.124 58.2762 68.0936C58.2738 68.2328 58.2762 70.9016 58.2762 71.7872" stroke="#C28517" stroke-width="2.88" stroke-linecap="round"/>
<path d="M50.3801 60.1328C50.3513 60.32 50.0561 60.9248 49.8713 61.0784C49.7633 61.1648 49.4633 61.4792 49.3601 61.5152C49.3097 61.5344 48.9857 61.6064 48.9233 61.6616C48.5777 61.9688 48.0881 63.1448 47.9753 63.2648C47.8697 63.38 47.4977 63.6848 47.4665 63.92C47.4593 63.9752 47.4569 64.4792 47.4665 64.5752C47.4929 64.8248 47.2361 65.036 47.1737 65.1584C47.1521 65.204 47.1689 66.3824 47.3201 66.908C47.4545 67.3328 47.7761 67.7504 47.8313 67.8536C47.9441 67.8824 49.1537 69.308 50.8169 69.7472" stroke="#FFC762" stroke-width="2.88" stroke-linecap="round"/>
<path d="M92.0204 26.4805H91.9292C91.8284 26.6365 91.8236 29.7589 91.8404 29.8261C91.8716 29.9581 92.0468 30.2389 92.0204 30.2797" stroke="#FF8F9C" stroke-width="2.88" stroke-linecap="round"/>
<path d="M83.0732 82.1963C83.0132 82.8131 82.694 83.3939 82.25 83.8379C81.7676 84.4427 80.7836 85.0715 80.4308 85.4219C80.2772 85.5371 78.29 86.5451 78.1436 86.6555" stroke="#C28517" stroke-width="2.88" stroke-linecap="round"/>
<path d="M42.3163 27.8459C41.8123 27.8363 40.5691 28.2683 39.7195 28.2419C39.2779 28.2251 37.8955 28.4051 37.9123 28.4099" stroke="#EF586A" stroke-width="2.88" stroke-linecap="round"/>
<path d="M42.2585 26.4922L37.7417 26.6602L37.6865 26.7178" stroke="#EF586A" stroke-width="2.88" stroke-linecap="round"/>
<path d="M38.7012 26.2383L39.4356 28.6095L38.7012 26.6055" stroke="#FF8F9C" stroke-width="2.88" stroke-linecap="round"/>
<path d="M41.2891 25.7148L41.3587 28.0956" stroke="#EF586A" stroke-width="2.88" stroke-linecap="round"/>
<path d="M40.3838 25.5251C44.135 25.5275 54.6974 25.5227 54.7046 25.5251C55.307 25.7171 56.9222 25.7171 57.3422 25.7195C61.835 25.7147 69.2846 25.7075 69.383 25.7027C69.8486 25.6931 70.9646 26.0603 71.6942 26.0603C71.9942 26.0915 73.0406 26.2379 74.1902 26.2355C81.995 26.2355 90.623 26.2379 91.4414 26.2379" stroke="#FF8F9C" stroke-width="2.88" stroke-linecap="round"/>
<path d="M29.9824 84.7549C30.4216 85.0381 31.348 86.5573 31.7032 86.9989C33.3064 88.9693 36.5368 91.3069 36.8752 91.5709C37.4152 91.9957 38.2624 92.2909 38.3296 92.2597C38.44 92.3653 39.2488 92.9893 39.4792 93.1021C39.8296 93.2749 40.48 93.3037 40.5496 93.3325C41.3416 93.6565 41.5264 93.6301 41.6224 93.6397" stroke="#72A89A" stroke-width="2.88" stroke-linecap="round"/>
<path d="M38.0996 92.2598C38.4692 92.4134 39.5828 92.9606 40.2884 93.1142C41.2508 93.323 44.2748 94.2422 44.4572 94.2518C44.9012 94.2686 45.758 94.4054 46.2956 94.559C46.4492 94.583 48.11 94.6838 48.2084 94.7102C48.4964 94.7894 49.2044 95.0078 49.2812 95.0174C50.3828 95.2022 52.634 95.1422 52.7276 95.171C52.8644 95.2118 53.4596 95.6102 53.57 95.6294C53.57 95.6294 56.5292 95.6222 57.8588 95.783C59.1284 95.9366 59.1764 95.9366 60.3044 95.9342C68.1164 95.9366 81.2108 95.9366 81.7556 95.963C81.9932 95.975 83.5268 95.6294 83.8196 95.5526C84.7628 95.3174 85.094 95.0246 85.1972 95.0174C85.3748 95.0054 85.9676 95.0102 86.1164 94.9406C86.2532 94.8806 86.7212 94.583 86.882 94.559C87.0092 94.5374 87.386 94.5542 87.494 94.4822C87.7364 94.3166 89.99 93.1382 90.098 93.0254C90.1964 92.9222 91.238 92.3846 91.4012 92.4134" stroke="#72A89A" stroke-width="2.88" stroke-linecap="round"/>
<path d="M97.8325 80.4658C97.8445 80.809 97.8781 81.7522 97.8325 81.9226C97.7749 82.1434 97.3909 82.837 97.3741 83.1466C97.3405 83.713 97.0213 84.121 96.8365 84.2194C96.8173 84.253 96.2558 86.089 95.7662 86.6698C95.627 86.809 95.1973 87.445 95.1517 87.5122C95.0941 87.6034 94.5734 88.5706 94.3862 88.813C94.295 88.933 93.4861 90.0178 93.0853 90.3466C92.9533 90.4522 92.6245 90.7666 92.3965 90.8818C91.7653 91.333 90.1909 92.1394 90.0973 92.1082C89.9653 92.2522 88.2566 93.0154 88.1078 93.025C87.7238 93.025 87.2917 93.0298 87.2653 93.1018C87.2605 93.1114 86.7469 93.3634 86.2693 93.4858C86.1133 93.5242 85.4845 93.685 85.0429 93.6394C84.9085 93.625 84.5053 93.9178 84.4309 93.9442C84.3109 93.9898 82.463 94.2274 82.2878 94.2514C81.023 94.417 80.3509 94.3858 79.8637 94.5586C79.4341 94.7122 75.8342 94.7074 74.0006 94.7074C66.4358 94.7074 56.8861 94.7098 54.8989 94.7074C53.6701 94.7098 52.9621 94.5802 52.8037 94.5586C52.5997 94.5298 46.1653 93.805 46.0645 93.793C45.3757 93.6394 44.1542 93.3634 43.9958 93.3322C43.931 93.3202 39.8701 93.3394 38.8861 93.3466C38.3845 93.3538 37.8493 93.2074 37.6405 93.1786C37.5397 93.1666 36.9373 92.9458 36.7213 92.8738C36.6349 92.8426 35.4517 92.8498 35.3438 92.7202" stroke="#72A89A" stroke-width="2.88" stroke-linecap="round"/>
<path d="M33.1983 90.2695C33.1911 90.5791 33.6255 90.8815 33.7335 91.0351C34.3047 91.8199 35.0703 92.4487 35.2671 92.7199C35.4423 92.9599 37.8375 93.7303 38.0223 93.7927C38.2527 93.8623 40.2447 93.9271 40.3215 93.9439C40.5399 93.9967 40.7199 94.1959 40.7799 94.2511H40.2447" stroke="#72A89A" stroke-width="2.88" stroke-linecap="round"/>
<path d="M37.7939 93.793C38.2715 94.1434 39.7835 94.2898 40.5491 94.3282C41.8187 94.5802 44.9411 94.5658 45.7571 94.5586" stroke="#72A89A" stroke-width="2.88" stroke-linecap="round"/>
<path d="M88.6434 95.0176H88.5666C88.4658 95.1496 88.6458 95.188 89.409 95.1712C89.721 95.164 90.6498 95.164 90.8634 95.1712C91.3146 95.1832 91.8714 94.8376 91.9362 94.7872C92.5842 94.2976 93.537 92.7688 94.0818 91.5712C94.269 91.1608 95.1066 90.1768 95.1522 90.04C95.2674 89.7016 95.6778 89.104 95.6898 89.044C95.7162 88.9192 95.6922 88.6144 95.7666 88.5856C95.7954 88.5736 95.8458 88.5496 95.9178 88.5088C95.181 89.7088 94.1706 91.0672 94.0818 91.2664C93.8922 91.828 93.1242 92.9152 92.7786 93.4096C92.373 93.9808 91.5402 94.6048 91.017 94.7872C91.0098 94.4392 91.5474 93.8392 91.6314 93.7168C91.7466 93.556 92.4018 93.7744 93.009 94.1752C93.5946 94.5496 93.7242 94.588 94.0818 94.5592L94.1586 94.4056" stroke="#72A89A" stroke-width="2.88" stroke-linecap="round"/>
<path d="M52.1846 30.6055C50.3582 30.6079 46.307 30.5959 46.1102 30.7207C45.7982 30.9271 45.4598 30.9727 45.1454 31.1743C44.6006 31.5247 42.5582 32.1223 41.6246 32.5927C38.6774 34.0711 36.9974 34.8295 36.9134 34.8631L36.743 35.0335C36.7214 34.8703 36.6206 34.2127 36.6878 34.0687C36.971 33.6727 37.5014 32.8567 37.5374 32.7631C37.6838 32.4031 37.8182 32.1943 38.447 31.9111C39.1886 31.5871 40.463 31.3375 40.7174 31.1743C40.9262 31.0423 42.2774 31.0639 42.3062 31.0615C42.383 31.0471 42.5318 30.9247 42.8174 30.8335L38.9582 30.9463H49.5734" stroke="#72A89A" stroke-width="1.92" stroke-linecap="round"/>
<path d="M38.4473 30.0391C38.5433 30.1567 43.0337 30.1591 45.0905 30.1543C47.2409 30.1519 47.3441 30.1783 48.8921 30.3799C48.8945 30.3799 51.7745 30.3799 52.0697 30.3799" stroke="#72A89A" stroke-width="1.92" stroke-linecap="round"/>
<path d="M36.5176 32.876C36.7504 32.8304 37.9072 32.708 38.4472 32.5352C39.508 32.1584 42.0208 31.76 43.7824 31.628C44.1664 31.5944 44.8168 31.4192 44.9176 31.4C44.9368 31.3976 48.592 31.2752 49.1176 31.1744C49.3624 31.1264 50.1976 30.8312 51.3304 30.8312C52.2568 30.8312 54.2584 30.8432 54.34 30.8336C55.0456 30.74 55.5592 30.4784 55.5904 30.4928" stroke="#72A89A" stroke-width="1.92" stroke-linecap="round"/>
<path d="M39.582 35.2617C39.8292 35.2929 43.1004 34.3737 44.0652 33.9561C44.286 33.8601 45.3252 33.5433 45.4284 33.5025C45.5196 33.4641 46.4436 33.0993 47.1324 32.9337C48.0876 32.7033 49.0932 32.6001 49.5156 32.3097C49.6788 32.1969 51.5028 32.0865 51.6156 32.0817C51.7956 32.0745 52.7412 31.7001 52.8084 31.6281C52.926 31.6209 55.278 31.1169 55.6452 31.0617C56.0628 31.0161 56.5404 30.9297 57.4068 30.9465" stroke="#E8FFF9" stroke-width="1.92" stroke-linecap="round"/>
<path d="M94.1896 36.6228C94.2112 36.6156 91.3864 34.8204 90.7264 34.2396C90.1288 33.7164 87.7168 32.922 87.1504 32.8764C86.9632 32.862 85.4848 32.7804 85.3912 32.7636C85.2664 32.742 84.4192 32.4036 83.6872 32.4228C82.072 32.466 79.9984 31.7412 79.4872 31.5708C79.0384 31.4076 78.9856 31.35 78.2944 31.2876C78.0208 31.2636 77.248 30.9348 77.2168 30.9468L76.9336 30.834" stroke="#72A89A" stroke-width="1.92" stroke-linecap="round"/>
<path d="M77.0469 30.8335C78.9093 30.8335 83.6829 30.7759 86.5941 30.7207C87.5205 30.7183 90.3381 31.0759 90.5013 31.0615L91.9773 33.1615L92.8845 33.8983C92.8773 33.8143 91.2837 33.5359 90.7845 33.3871C89.4549 32.9719 88.3437 32.6503 87.5493 32.4223C86.8749 32.2135 84.8589 31.2631 84.5973 31.2871C86.5125 31.2895 91.3773 31.2799 91.4085 31.2871C91.4901 31.3087 91.6677 31.4167 91.6917 31.3999" stroke="#72A89A" stroke-width="1.92" stroke-linecap="round"/>
<path d="M74.3223 31.0615C76.0095 31.0591 78.4551 31.5631 78.8055 31.6279C79.0719 31.6783 83.4831 33.0391 83.5167 33.0463C84.6207 33.2815 86.8575 34.3183 86.9799 34.4095C87.8151 35.0095 88.9815 35.2327 89.4783 35.6023C90.8703 36.6247 91.6215 36.9223 92.4303 37.4191C93.5487 38.1223 93.7479 39.0079 93.7359 39.2335" stroke="#E8FFF9" stroke-width="1.92" stroke-linecap="round"/>
<path d="M36.1743 31.4658C35.7375 32.0922 34.6287 35.745 34.5615 35.9802C34.4463 36.3954 34.0167 36.9234 33.9303 37.1154C33.8991 37.185 33.7863 38.2122 33.6783 38.5026C33.6135 38.6802 32.9943 39.7794 32.9223 40.0146C32.8263 40.3194 32.7375 42.0546 32.5431 42.6642C32.4879 42.8322 32.0703 43.5738 32.0391 43.6746C32.0199 43.7322 32.0679 44.5146 32.0391 44.8098C31.9119 45.3762 31.7799 46.7538 31.7079 47.0682C31.5543 47.7306 30.9975 49.1418 31.0287 49.6026C31.0959 50.517 30.7527 52.569 30.5247 53.6394C30.4959 53.7762 30.5487 54.4314 30.5247 54.6474C30.3975 55.2162 29.7303 58.5906 29.7423 59.7186C29.7447 60.0306 29.7951 60.7074 29.7687 60.8298C29.7399 60.9474 29.2911 61.929 29.2623 62.0898C29.0967 63.0426 28.9935 63.4146 29.0103 64.3602C29.0175 64.6458 28.9839 82.233 29.0103 82.3986C29.2143 83.6466 30.0255 85.1418 30.3975 86.5626C30.5223 87.129 30.8919 88.6698 30.9039 88.7058C30.9423 88.833 31.1343 90.0282 31.5327 90.4722C31.8903 90.8706 32.0751 91.761 32.2911 91.9866C32.7303 92.4522 32.7543 92.9226 32.7951 92.9946C32.9391 93.2634 33.3015 93.7578 33.2991 94.1298C33.3015 94.3842 34.0575 95.505 34.1823 95.6442C34.2231 95.6898 34.5855 96.5994 34.9407 96.9066C35.2143 97.1418 35.3631 97.3482 35.5695 97.6626" stroke="black" stroke-width="2.88" stroke-linecap="round"/>
<path d="M93.4697 31.5635C94.2137 34.1291 95.1713 37.4051 95.2673 37.8299C95.3681 38.2955 95.4377 39.2027 95.7401 40.3931C96.4313 43.0883 96.8777 46.0427 97.0145 46.5851C97.1321 46.9715 97.3697 47.8211 97.5233 48.9275C97.6529 49.8683 97.6073 51.5027 97.7657 52.2131C97.8761 52.6907 97.8497 53.3891 97.8857 53.6387C97.9145 53.8547 98.3585 55.1219 98.3897 55.2779C98.4137 55.4051 98.3681 56.9915 98.4425 57.7307C98.5409 58.3979 98.6633 59.2739 98.6417 60.4499C98.6249 61.1267 98.9057 62.3003 98.9009 63.0707C98.9009 71.0003 98.9129 83.9867 98.8937 84.0395C98.8913 84.0491 98.4329 84.7235 98.3897 84.9227C98.3513 85.0859 98.3753 85.7099 98.2625 86.0579C97.4033 88.4243 97.4249 88.8875 97.3793 88.9595C97.2209 89.2163 96.9713 89.4275 96.8753 89.7155C96.7961 89.9555 96.8753 90.5219 96.7505 90.5987C96.4985 90.7451 96.6593 91.6931 96.6233 91.7339C96.4241 91.9547 96.1505 92.1107 95.9921 92.3651C95.8793 92.5451 95.8337 93.1427 95.6345 93.5051C95.1401 94.4123 95.0393 95.0867 94.8569 95.5187C94.8377 95.5643 94.5809 95.8331 94.4801 95.8955C94.3577 95.9651 94.3409 96.1547 94.3529 96.9059" stroke="black" stroke-width="2.88" stroke-linecap="round"/>
<path d="M36.0762 97.1584V97.0312V101.951" stroke="black" stroke-width="2.88" stroke-linecap="round"/>
<path d="M36.0762 102.203L36.201 102.455C36.5466 102.467 38.0826 102.434 38.9562 102.412C40.1802 102.39 41.2242 102.515 42.0426 102.815C42.6474 103.038 46.7226 102.966 48.585 102.954C50.6202 102.954 54.9186 102.959 57.1818 102.962C58.8138 102.962 62.5434 102.969 63.3066 103.086C64.3122 103.245 84.5754 103.211 90.5682 103.214" stroke="black" stroke-width="2.88" stroke-linecap="round"/>
<path d="M93.3447 97.1582C93.4119 97.2518 93.8943 98.387 93.8727 98.8238C93.8583 99.2102 93.8223 99.4958 93.8487 99.5558C93.9231 99.7262 94.1367 100.201 94.1007 100.564L94.0911 100.698" stroke="black" stroke-width="2.88" stroke-linecap="round"/>
<path d="M90.0419 103.026C89.7707 103.168 89.2739 103.442 89.1803 103.466C89.1131 103.48 87.6203 103.461 87.2891 103.466" stroke="black" stroke-width="2.88" stroke-linecap="round"/>
<path d="M90.3135 103.295L94.7847 103.345" stroke="black" stroke-width="2.88" stroke-linecap="round"/>
<path d="M94.1533 100.185L94.3957 103.053" stroke="black" stroke-width="2.88" stroke-linecap="round"/>
<path d="M34.9531 34.271C35.5987 33.0182 35.6827 32.3846 35.8603 31.9526C35.8795 31.907 36.1315 31.6382 36.2299 31.5758C36.3499 31.5062 36.3643 31.3166 36.3547 30.5654" stroke="black" stroke-width="2.8464" stroke-linecap="round"/>
<path d="M93.3037 30.3133V30.4405V25.5205" stroke="black" stroke-width="2.8464" stroke-linecap="round"/>
<path d="M93.3034 25.2687L93.181 25.0167C92.845 25.0047 91.3426 25.0383 90.4882 25.0599C89.293 25.0815 88.273 24.9567 87.4714 24.6567C86.881 24.4335 82.8994 24.5055 81.0802 24.5175C76.8778 24.5151 67.4794 24.5103 66.6922 24.3855C65.7106 24.2271 45.9082 24.2607 40.0498 24.2583" stroke="black" stroke-width="2.8464" stroke-linecap="round"/>
<path d="M37.3381 30.3134C37.2709 30.2198 36.8005 29.0846 36.8221 28.6478C36.8365 28.2614 36.8701 27.9758 36.8461 27.9158C36.7717 27.7454 36.5629 27.2702 36.5989 26.9078L36.6085 26.7734" stroke="black" stroke-width="2.8464" stroke-linecap="round"/>
<path d="M40.5664 24.4454C41.2384 24.0686 41.5048 23.9726 41.9008 24.0062C42.0496 24.0206 42.7936 24.0134 43.2568 24.0062" stroke="black" stroke-width="2.8464" stroke-linecap="round"/>
<path d="M40.302 24.1764L35.9316 24.126" stroke="black" stroke-width="2.8464" stroke-linecap="round"/>
<path d="M36.5491 27.2869L36.3115 24.4189" stroke="black" stroke-width="2.8464" stroke-linecap="round"/>
<path d="M40.4483 48.4717C40.0811 48.8869 38.5187 51.9637 38.4611 52.1197C38.3963 52.2997 38.3075 53.0197 38.1803 53.2429C37.8011 53.7517 37.6163 54.6709 37.6211 55.2997C37.6235 55.7485 37.1507 56.8861 37.0595 57.6373C37.0475 57.7453 37.0619 64.6069 37.0595 64.7437C37.0259 66.1357 37.5563 68.3341 38.0891 69.6997" stroke="black" stroke-width="2.88" stroke-linecap="round"/>
<path d="M44.833 41.7349C45.3802 41.2357 46.4722 40.0045 48.9346 38.7493C50.221 38.0917 53.4706 36.7669 53.9842 36.6925C54.2626 36.6541 58.093 35.3653 58.4722 35.3845C58.9906 35.4133 59.8258 35.2909 60.3418 35.1973C60.4978 35.1829 61.8562 35.2309 62.9602 35.0101C63.073 34.9933 70.561 34.9957 70.621 34.9933C71.3866 34.9837 73.009 35.6341 73.2442 35.7589C74.0626 36.1861 75.877 36.9541 76.237 37.0669C76.4698 37.1389 76.777 37.4677 76.8898 37.5349C76.9138 37.5469 78.4186 38.2381 78.9802 38.6413C79.7122 39.2101 81.7546 40.7101 82.5946 41.9293C82.8178 42.2533 83.833 42.9469 84.277 43.4245C84.5098 43.6765 85.165 43.9213 85.213 44.0797C85.2682 44.2813 85.3762 44.5141 85.4938 44.6413C85.5538 44.7061 86.1802 45.5653 86.2402 45.7621C86.5498 46.7365 87.7786 48.3517 87.8314 48.4741C87.8962 48.6277 88.5658 50.4085 88.5778 50.4373C88.8586 50.9053 89.4634 52.0189 89.5138 52.1197C89.6314 52.3621 89.7346 53.0629 89.7946 53.2429C89.8282 53.3509 90.313 54.5173 90.3538 54.7381C90.3538 54.8245 90.649 56.0101 90.7282 56.1421C90.7882 56.2381 90.9034 56.7349 90.9154 56.8885C90.9274 57.0349 91.0978 57.1165 91.1026 57.1693C91.1098 57.2389 91.1098 57.4573 91.1026 57.8245" stroke="black" stroke-width="2.88" stroke-linecap="round"/>
<path d="M37.8085 67.3623C37.8061 68.0703 37.8013 70.0887 37.8085 70.3527C37.8301 71.1591 38.0917 71.9655 38.1805 72.4095C38.2141 72.5271 38.4637 73.1271 38.5549 73.3455" stroke="black" stroke-width="2.88" stroke-linecap="round"/>
<path d="M38.7109 73.8809L39.0421 75.1793" stroke="black" stroke-width="2.88" stroke-linecap="round"/>
<path d="M39.1162 75.6826C39.289 76.2658 40.1938 77.8714 40.333 78.1138C40.333 78.1138 42.493 80.8162 42.577 80.9194C42.8482 81.2578 43.0906 81.4186 43.417 81.9466C43.729 82.453 46.6378 86.0914 47.8114 86.7154C48.013 86.821 48.2602 86.8066 48.4666 86.9026C48.9802 87.229 50.5162 88.0834 50.617 88.1194C50.9914 88.213 52.225 88.6138 52.4866 88.7722C52.5994 88.8394 53.7778 88.9546 53.797 88.9594C54.0562 89.017 56.509 89.785 56.6002 89.8018C56.6938 89.8162 57.841 89.989 59.0314 90.1762C59.2402 90.2074 67.2274 90.193 67.261 90.1762C67.3546 90.0826 67.4842 89.9698 67.7266 89.989C67.9738 90.0058 68.6074 89.9578 68.8498 89.8954C68.9458 89.869 69.6994 89.8714 69.9706 89.8018C70.2154 89.7394 70.6738 89.4058 71.0938 89.4274C72.1522 89.4754 73.6546 89.2282 74.7394 88.8658C74.8018 88.8514 76.3066 88.537 76.4242 88.4914C76.5682 88.4362 76.9546 88.117 77.1706 88.1194C77.5018 88.117 78.8746 87.5074 78.949 87.4642C79.0234 87.4186 79.5274 86.9482 79.6018 86.9026C79.6858 86.8522 79.9474 86.785 80.0698 86.7154" stroke="black" stroke-width="2.88" stroke-linecap="round"/>
<path d="M90.916 61.7513V57.6377" stroke="black" stroke-width="2.88" stroke-linecap="round"/>
<path d="M91.1034 59.5068C91.1058 63.462 91.1034 69.8364 91.0098 70.1652C90.9186 70.4604 90.7074 71.1516 90.6354 71.4756C90.453 72.306 90.429 72.3684 90.2634 72.4092C90.177 72.4284 89.9946 73.7508 89.9826 73.8132C89.937 74.0364 88.5522 77.5404 87.6474 78.882C87.3642 79.2468 86.8098 80.142 86.709 80.2644C86.6802 80.298 86.1882 80.8932 85.6818 81.1068C85.5882 81.1452 83.9898 83.2404 83.9034 83.3508C83.8194 83.454 82.845 84.1644 82.5018 84.6588C82.245 85.0308 81.8874 85.35 81.8466 85.4076C81.5946 85.7484 80.3994 86.2932 80.1642 86.5284C79.6626 86.862 79.0842 87.3564 79.041 87.3708C78.8922 87.4212 78.5466 87.342 78.4818 87.3708C78.225 87.4812 77.6154 87.798 77.6394 87.7452" stroke="black" stroke-width="2.88" stroke-linecap="round"/>
<path d="M41.5481 46.2302L41.4545 46.3238C41.4497 46.2134 41.4857 45.8246 41.5481 45.6686C41.6345 45.4574 42.4169 44.7734 42.7625 44.267C42.8417 44.1518 43.6265 42.9494 43.6985 42.8654C44.2481 42.215 44.6153 42.0038 44.7281 41.7422" stroke="black" stroke-width="2.88" stroke-linecap="round"/>
<path d="M40.986 46.6045L40.7988 47.3533" stroke="black" stroke-width="2.88" stroke-linecap="round"/>
<g style="mix-blend-mode:multiply">
<rect width="128" height="128" fill="white"/>
</g>
</svg>
