<svg width="62" height="98" viewBox="0 0 62 98" fill="none" xmlns="http://www.w3.org/2000/svg">
<path d="M20.9134 36.2604C20.8702 37.3044 21.2566 38.4108 21.5998 39.0012C21.8134 39.3516 22.5886 40.0956 23.743 41.1252C25.4254 42.5892 27.3694 43.614 29.1334 45.2796C29.1262 45.15 29.1598 44.6196 29.143 44.502C29.0806 44.07 28.843 43.5444 28.5694 43.206C27.4846 41.8572 24.9982 39.4284 23.3566 38.1564C22.015 37.1268 18.619 34.7388 18.4846 34.6236C17.443 33.7164 16.0846 31.7532 16.0054 31.5804C15.907 31.3572 15.8902 30.438 15.8902 29.982C15.8782 29.6076 15.7582 29.3748 15.4342 28.9548C15.2446 28.7196 15.187 27.8772 15.0934 27.5844C14.9974 27.2892 14.383 26.6916 14.2942 26.5572C14.2246 26.4588 14.0902 25.9692 13.951 25.758C13.891 25.6692 13.435 25.206 13.2646 25.074C13.0822 24.9324 12.4822 24.7404 12.4654 24.7308C12.4054 24.69 12.0094 24.2748 11.8966 24.1596C11.4982 23.7492 11.4214 23.6916 11.2102 23.7036C11.059 23.7156 9.93102 23.9532 9.61182 23.9316L9.49902 23.7036" stroke="#EF586A" stroke-width="12" stroke-linecap="round"/>
<path d="M9.49902 23.4756C10.0678 23.5572 11.5726 24.2772 12.5806 24.3876C13.1758 24.4524 16.4254 25.4676 17.7742 25.9764C18.247 26.154 22.3702 26.862 24.0262 27.174C25.1254 27.3612 28.411 27.618 30.3238 27.9828C33.4678 28.6116 40.8478 29.6268 44.7142 30.1884C45.7918 30.3396 47.5918 30.5796 48.3118 30.6684C49.459 30.8244 49.6366 30.942 49.6822 31.1244C49.435 31.2324 47.6734 31.3188 46.8286 31.4844C43.6894 32.1036 39.1534 33.0324 37.771 33.5004C37.1782 33.6948 32.5486 34.8708 31.711 35.0436C29.635 35.4564 27.487 36.3036 25.2286 37.5132C24.7798 37.7556 22.891 38.682 22.3222 39.0924C21.967 39.354 20.587 40.6788 20.4574 41.1708C20.4262 41.298 20.4478 42.39 20.4574 42.8844C20.4886 43.4244 20.6998 44.0532 20.959 44.3868C21.1486 44.6196 24.6022 45.8916 25.8934 46.3908C26.4838 46.59 37.087 47.9532 37.5814 48.2484C37.5862 48.4044 37.5502 48.8148 37.4662 48.9324C37.0726 49.482 29.6926 52.1772 29.5294 52.2612C27.5638 53.2788 25.339 54.7068 25.003 55.014C24.763 55.242 24.6142 55.614 24.583 56.0244C24.5542 57.054 24.6814 57.8508 25.2022 58.1628C26.3614 58.8324 29.2606 60.1836 30.2998 60.3804C31.5214 60.6084 35.7526 61.9188 36.9598 62.502C37.399 62.7204 37.8238 63.054 38.083 63.3732C38.2774 63.6276 38.2582 64.7196 38.2918 66.0228C38.3038 66.9132 38.071 67.4244 37.4062 68.2716C36.9382 68.8644 36.4342 69.8724 36.1726 70.4484C35.683 71.3148 32.2342 75.1356 31.4974 76.2828C30.7462 77.4684 29.6518 81.1836 29.5894 81.9252C29.5534 82.47 29.6134 83.046 29.7622 83.3988C30.0934 84.1332 30.9358 84.9588 31.7734 85.5468C32.4958 86.0412 33.9886 87.0516 34.3654 87.2292C34.9702 87.51 39.8038 88.9044 40.0918 89.0028C41.0782 89.3388 41.5414 89.622 41.8054 89.802" stroke="#EF586A" stroke-width="12" stroke-linecap="round"/>
<path d="M43.747 85.3498L43.5166 85.4626C43.5238 86.113 43.471 87.949 43.7566 88.1458C44.059 88.3354 45.9982 88.3378 46.9774 88.3282C49.9054 88.285 50.0878 88.3354 50.1382 88.4314C49.759 88.8394 48.4678 89.581 47.8078 89.8306C46.9942 90.1282 44.3398 90.7546 43.2238 91.213C42.7558 91.4026 39.4294 92.3938 39.4078 92.4274C40.2814 92.4706 41.5774 92.0266 42.0334 91.8562C42.8422 91.6042 45.7174 91.0114 46.9414 90.4858C47.347 90.3178 49.0126 89.8714 49.2262 89.8018C49.435 89.7322 51.1582 89.0314 51.3934 89.0026C51.5086 88.9858 51.8446 88.9906 51.9646 88.8874C52.0174 88.8418 52.7926 88.0666 52.879 87.8602C52.9486 87.7018 55.2502 85.7218 55.2766 85.6906C55.291 85.6738 55.6174 85.0066 55.6174 85.0066C55.6054 84.793 55.999 84.4738 56.1886 84.3202C56.3086 84.2242 56.2918 83.5786 56.3038 83.5234C56.3302 83.3794 56.731 82.789 56.7598 82.609C56.8462 82.0378 56.4526 78.349 56.443 78.3034C56.3662 77.9722 56.0566 77.2882 55.9606 77.0146C55.8982 76.8346 55.4278 74.3626 55.1926 73.5298C54.9622 72.721 53.4238 68.3698 53.083 67.1218C52.6126 65.3842 51.5974 59.9914 51.5782 59.857C51.487 59.1826 51.5614 49.5994 51.5542 49.3522C51.5302 48.7378 51.3862 47.7442 51.1414 46.2778C51.0022 45.4282 51.0406 44.2378 50.9374 43.453C50.8798 42.9394 50.7214 41.6338 50.5942 41.2834C50.5606 41.1898 50.0206 39.8698 49.7974 38.545C49.6918 37.9234 49.267 36.1642 49.111 35.689C48.8494 34.885 48.0766 30.9466 47.7406 30.2098C47.5822 29.8618 47.3422 29.4322 47.2846 29.2978C47.1502 28.9714 47.215 27.4354 46.9414 26.9002C46.807 26.641 46.4854 25.6258 46.4854 24.9586C46.4782 24.8746 46.1086 23.785 46.0294 23.4754C45.9382 23.4898 44.2414 22.8274 43.975 22.789C43.5958 22.7386 26.0518 22.789 23.083 22.789C23.4094 22.597 23.6494 22.5322 24.1654 22.5394C28.3558 22.5874 31.0102 22.3042 37.4758 22.3522C40.8166 22.3618 42.2734 22.2298 43.2214 21.9922C43.6366 21.8866 44.8606 21.661 45.115 21.649C45.3454 21.6346 46.8478 21.0226 47.5126 20.9626C48.0238 20.9626 48.4822 20.5858 48.655 20.5066C48.7582 20.4586 50.1214 20.1682 50.4814 20.0506C48.8134 20.0146 42.3166 21.169 41.2342 21.193C42.0862 21.3058 46.3198 20.4874 46.8286 20.2786C47.9326 19.8226 48.2038 19.8178 48.883 19.5946C48.9646 19.5682 51.0214 19.621 51.2806 19.5946C51.5326 19.5634 51.6982 19.3282 51.7366 19.2514C51.7894 19.153 52.1974 19.117 52.7638 19.1362C53.3398 19.1626 53.5918 19.105 53.9062 18.9082C54.2134 19.3954 54.2662 19.8538 54.5902 20.7346C54.907 21.5938 54.955 22.6786 55.1614 22.9042C55.3414 23.0962 55.8694 24.5698 55.9606 24.8458C56.0902 25.2394 56.0686 27.5554 56.0758 27.5842C56.3158 28.8778 56.3038 29.3002 56.3014 30.505C56.299 38.6098 56.3038 60.1162 56.3038 60.121C56.0518 61.5682 56.0902 65.9122 56.0758 66.0562C56.0422 66.3442 55.3438 70.9858 55.279 71.2258C55.1494 71.7154 55.1662 72.7594 55.1614 74.2738C55.159 75.8794 55.1758 76.381 54.9334 77.701C54.895 77.9074 54.9334 81.2962 54.9334 81.4666" stroke="#EF586A" stroke-width="6" stroke-linecap="round"/>
<path d="M56.0759 87.4042C56.0471 86.8114 56.3111 85.5586 56.3087 85.033C56.3063 84.0682 56.3015 81.9634 56.2967 80.821C56.2991 79.3354 56.4887 78.385 56.5319 78.157C56.5847 77.8714 56.7575 77.3794 56.7599 77.3578C56.7743 77.2354 56.7575 65.9506 56.7599 65.941C57.0143 65.1778 56.9879 64.297 56.9831 62.8858C56.9807 60.7954 56.9903 56.149 56.9879 56.125C56.8703 54.7114 56.4191 51.7378 56.2511 48.9778C56.2439 48.877 55.3175 43.2034 55.1399 41.8666C54.9191 40.1506 53.9135 36.9154 53.6423 36.2746C52.7783 34.2994 51.8111 31.429 51.7367 30.8962C51.4751 28.9666 51.5639 26.1418 51.5087 25.345C51.4775 24.9706 50.7263 23.3602 50.5943 22.4482C50.5679 22.3402 50.4911 22.1866 50.3663 21.9922C50.3711 23.5354 50.3807 27.4354 50.3855 29.7898C50.3807 31.6594 50.3687 34.5298 50.1383 36.1474C50.1095 36.3514 49.8383 38.5138 49.6967 39.2866C49.5695 39.9586 49.2215 41.2522 49.1111 41.9698C49.0343 42.4858 48.5903 46.429 48.0791 48.5146C47.8751 49.333 47.8583 50.4082 47.8631 50.9698C47.8919 55.0426 47.4527 63.5002 47.3999 65.257C47.3903 67.045 47.3975 70.6306 47.4143 72.4282C47.4287 73.5874 47.2847 74.8474 47.1719 75.7594C47.1695 75.7738 47.1719 77.8378 47.0567 78.841C46.8143 80.9002 46.2935 82.5202 46.0295 84.6634C45.9911 84.961 46.0487 85.3642 46.1423 85.6906C46.9895 86.0866 53.9495 86.041 54.2495 85.9186C53.7767 85.5874 53.1671 84.5722 53.0447 84.1258C52.7759 83.1466 52.6319 82.3762 52.6319 81.613C52.6415 80.2258 52.6415 76.6666 52.4015 75.6154C51.8663 73.4818 51.3287 69.1738 51.2639 68.9458C51.1799 68.6506 49.5935 65.0098 49.4543 64.6858C49.3703 66.0466 49.1783 69.409 48.9983 70.6234C48.4991 74.3722 48.5303 87.7738 48.6551 88.0882C48.7727 87.9298 48.7775 78.0466 48.7751 73.4506C48.7727 69.6106 48.7679 62.2042 48.7679 58.6354C48.7463 56.917 48.6431 53.0482 48.3839 51.9586C47.4383 48.0658 45.6287 43.6162 45.5735 42.5386C45.5471 41.941 45.6047 40.273 45.3431 39.8002C45.0023 39.1138 44.2607 37.897 44.1143 37.3426C43.9847 36.8482 44.0063 36.409 43.9751 36.2602C43.9511 36.1522 43.4903 35.1394 43.5167 35.005C43.5143 41.9266 43.5119 57.8098 43.5119 66.7714C43.5167 72.4114 43.6103 76.4866 42.9479 80.2114C42.7799 81.1138 42.1127 82.4506 42.0335 82.837C41.9783 83.1082 41.8967 84.3418 41.6903 84.5506C41.6687 84.5698 41.6303 84.6082 41.5775 84.6634C41.2847 84.481 41.2367 83.0818 41.2367 82.4746C41.2463 80.5786 41.2583 76.4698 41.2607 74.257C41.2151 71.5186 41.0615 68.6866 40.7423 66.6946C40.5503 65.4562 40.1111 62.2858 39.6383 60.2794C39.1919 58.3882 38.9519 55.6042 38.8367 54.169C38.7575 53.2954 38.2175 51.2938 38.1359 51.0106C37.8935 50.161 37.3271 42.8842 37.3535 39.8002C37.3439 43.2898 37.3823 52.6978 37.5047 54.625C37.5215 54.8722 38.3351 64.753 38.5703 68.7394C38.6975 71.3458 38.9039 72.6922 39.4295 75.373C39.6695 76.645 39.8543 79.5634 39.9599 81.2002C40.1087 83.9506 40.0823 87.8146 40.1015 88.1986C40.1135 88.5154 40.0031 89.2378 39.8639 89.5738C39.7511 89.845 39.4535 90.0826 39.2927 90.1426L39.0647 90.0298C38.9351 89.3434 38.9471 85.0258 39.1799 83.1802C39.4631 80.9386 39.8951 78.2434 40.2767 76.2994C40.5791 74.7754 40.8647 71.5066 41.1695 69.7042C41.4455 68.257 41.8583 65.989 41.8919 64.5586C41.9039 60.7018 41.9135 51.1618 41.9519 50.2258C41.9663 49.633 41.4431 45.2002 41.2007 43.1626C40.9895 41.0746 41.0255 38.8738 40.8911 38.545C40.4903 38.3338 38.3879 40.489 36.0719 43.0954C35.0519 44.2522 34.4015 45.0178 33.9287 45.6226C33.3719 46.333 32.6423 47.221 32.4455 47.7898C32.0231 49.0618 31.8095 51.853 31.8647 54.397C31.8815 55.6762 31.9319 59.125 32.2919 60.2386C32.3303 60.3538 33.1631 62.6554 33.2807 63.013C33.5063 63.7138 34.0751 66.2866 34.8887 69.1426C35.1719 70.1602 35.3087 71.0266 35.2751 71.8954C35.2583 72.5554 35.7887 75.7066 36.0983 76.5586C36.2255 76.513 36.2183 74.869 36.2135 73.9018C36.2255 67.6162 35.9567 59.6698 35.9567 59.2882C36.0167 52.9306 35.7191 48.0538 35.7479 45.061C35.7551 44.1874 35.7671 42.5674 35.6399 42.1978C35.6087 42.1042 34.8959 40.549 34.8407 40.1434C34.7039 39.1066 34.3847 38.5858 34.0415 37.6306C33.7655 36.8794 32.8031 35.7082 32.2151 35.3482C31.8911 35.1586 30.2159 34.8706 29.4767 34.6618C28.9463 34.5106 27.7103 33.9946 27.0719 33.7666C26.0663 33.4186 21.3527 33.0418 19.8887 32.8282C19.3823 32.7538 13.8311 31.7866 13.3799 31.6954" stroke="#EF586A" stroke-width="6" stroke-linecap="round"/>
<path d="M7.78581 19.3672L7.39941 19.8808" stroke="#EF586A" stroke-width="6" stroke-linecap="round"/>
<path d="M6.53013 21.4209C6.29493 21.9681 6.13652 22.8633 5.82932 23.6025C5.55812 24.2721 5.64213 26.0169 5.61813 26.1009C5.57493 26.2329 5.18613 26.8953 5.15973 27.0129C5.14293 27.0921 5.15253 37.2033 5.15973 37.4025C5.18613 37.9833 6.16293 42.2481 6.47733 42.7737C6.76053 43.2345 6.91653 43.6545 7.10133 43.9089C7.45173 43.7025 7.66533 43.4289 7.88133 42.8529C7.96533 42.6345 8.04692 42.4161 8.12852 42.1977" stroke="#EF586A" stroke-width="6" stroke-linecap="round"/>
<path d="M8.48633 18.5176C8.79113 18.6208 10.0127 18.796 10.5263 18.9088C10.6775 18.9256 14.1191 19.5664 14.1791 19.5952C14.4647 19.7656 14.9639 20.0368 15.3215 20.0512C16.3295 20.0896 18.5087 20.6968 18.7463 20.7352C18.9911 20.776 20.1311 20.7064 20.2295 20.7352C20.3927 20.7832 20.7527 20.9848 21.1439 20.9632C21.3887 20.9512 21.8351 20.968 22.2455 21.004C22.6199 21.04 24.7151 21.6808 26.6831 21.6616C27.4007 21.6568 28.0151 21.6232 28.1063 21.6496C28.4855 21.7624 29.3111 22.2592 29.3615 22.3336" stroke="#EF586A" stroke-width="6" stroke-linecap="round"/>
<path d="M39.4082 81.0112C39.4082 81.4672 39.3938 81.7312 39.293 81.8104C39.1322 81.9352 38.2034 82.3024 37.925 82.3816C37.7714 82.4224 35.3618 82.3696 35.2994 82.3816C35.189 82.4008 35.0426 82.5184 34.9562 82.6096C34.6946 82.0336 34.6322 80.248 34.5002 79.1848C34.409 78.46 33.7082 74.4376 33.4898 72.9328C32.9066 70.0744 30.1946 64.5664 30.1778 64.5376C29.9066 63.9928 28.8626 62.4784 28.3346 61.8328C27.9866 61.4104 25.0298 58.1296 24.1106 56.9248C23.6546 56.3224 22.073 54.2128 22.0562 54.184C21.9842 54.0616 21.725 53.1232 21.6002 52.9288C21.4682 52.7224 21.0218 52.1896 20.9138 51.9016C20.8442 51.7096 19.9298 49.7056 19.8866 49.6168C19.8242 49.4872 19.0754 48.016 18.4754 47.2696C18.1586 46.8736 17.4626 46.012 17.3762 45.8512C17.237 45.5968 16.8962 44.74 16.6898 44.4808C16.5074 44.2456 16.0226 43.66 15.8738 43.2736C15.5426 42.4168 14.8586 41.0392 14.5226 40.6C14.1434 40.1008 13.7906 38.9416 13.4738 38.1112C13.2314 37.4704 13.0826 36.6088 12.6962 35.6896C12.4946 35.2144 12.4874 34.624 12.4658 34.4344C12.425 34.0096 11.9162 33.1912 11.7818 32.9512C11.7218 32.8456 11.1098 31.696 10.9826 31.5808C10.8794 31.4896 10.2554 31.4536 10.0706 31.4656C9.86904 31.4872 9.71304 31.2784 9.61224 31.2376C9.54264 31.2136 9.04824 31.2496 9.04344 31.3528C8.99304 34.3744 9.87864 40.5808 9.89784 40.8088C9.95784 41.5576 9.98664 46.3864 9.98664 48.5032C9.93384 51.3448 9.79464 52.8424 9.48984 54.8656C9.05784 57.5752 9.03864 57.9136 9.02424 60.7048C9.01704 76.0336 9.05784 76.3312 9.15624 76.5592H9.49944C9.60264 76.3168 10.4066 72.4672 10.7546 70.852C11.2034 68.8336 12.3266 63.8608 12.3818 63.4024C12.7754 60.0928 12.9626 52.1344 13.217 49.9288C13.4162 47.8864 13.8098 43.7752 13.9994 41.7064C14.0786 40.7776 14.3714 40.2256 14.6354 39.9136C15.101 40.3384 15.6098 40.9528 15.7778 41.8552C15.8306 42.1552 16.0706 44.5168 16.1762 45.1648C16.2914 45.8416 16.7546 47.7496 16.8458 48.5272C17.0162 50.0272 17.0234 76.7584 17.1482 77.7016C17.2226 78.256 17.309 78.5392 17.489 78.8416C17.7722 78.4024 17.6882 76.996 17.9474 76.1032C18.0098 75.8848 19.1426 70.36 19.3034 69.1408C19.5554 67.1968 19.553 44.296 19.5458 44.2528C19.4858 43.9216 19.253 43.4368 19.0874 43.2256C19.0874 44.3608 20.0018 47.6632 20.5178 49.4968C21.1994 51.8632 21.2738 52.8376 21.4106 55.4176C21.5906 59.4112 21.8666 66.8728 21.833 71.1472C21.7898 76.5304 22.445 78.1528 22.6274 78.2704C22.7234 78.2272 22.8002 76.7128 22.9946 75.8272C23.5322 73.5136 23.8154 72.2104 24.6506 69.388C25.565 66.3016 26.1386 64.1104 26.3162 62.2072C26.4314 60.5704 26.6906 57.4456 27.0794 55.6C27.4586 53.8192 28.3418 52.0432 28.6778 50.9872C28.7882 51.1648 29.5442 55.1032 29.8682 56.692C30.1658 58.2544 30.245 60.5464 30.2618 63.2488C30.269 67.576 30.2762 75.2608 30.2762 78.6136C30.0434 78.6184 30.0578 74.2912 30.0698 72.2704C30.0482 69.8296 29.705 68.4352 29.333 66.0952C28.9922 63.8128 28.5794 62.3368 27.9914 60.6904C27.8546 60.3064 27.3842 58.66 27.281 58.0432C27.1346 57.1624 26.7842 55.9624 26.5082 55.8976C26.417 56.1448 26.1506 57.2416 25.721 58.0312C24.9626 59.404 24.3266 60.6256 24.0698 61.4056C23.3234 63.6904 22.085 66.5176 21.6842 68.2264C21.5666 68.752 20.609 79.9072 20.6858 81.5824C20.9426 80.068 20.909 77.4568 20.9258 74.9344C20.9378 73.9168 20.9354 71.6344 20.9138 71.308C20.8394 70.2064 20.381 69.088 20.045 68.404C19.0658 66.4528 18.3194 65.0728 18.1754 64.8016" stroke="#EF586A" stroke-width="6" stroke-linecap="round"/>
<path d="M5.61901 41.5117C5.60941 45.3541 5.61661 55.1389 5.77021 56.3917C5.94541 57.9541 6.31741 62.3005 6.40141 62.9869C6.77101 65.9173 6.74941 66.6925 6.98701 69.0253C7.01821 69.3133 7.00861 70.0789 6.98701 70.5085C6.95821 71.0893 7.44541 72.9205 7.55821 73.1341C7.77181 73.5421 7.92781 75.1285 7.92541 78.4309C7.91821 79.3069 7.86781 81.0805 7.90141 81.1261C8.03101 81.2965 8.26382 81.3877 8.35742 81.5821C8.40062 81.6685 8.33341 84.1021 8.47261 84.2077C8.57581 84.2725 8.59981 84.3805 8.58541 84.6637" stroke="#EF586A" stroke-width="6" stroke-linecap="round"/>
<path d="M5.16016 62.2881C5.16976 66.3249 5.17216 73.6449 5.16016 73.7049C5.10736 74.0193 4.74976 74.6817 4.70416 74.8473C4.67776 74.9409 4.70416 77.6937 4.70416 77.7009C4.71136 77.9121 4.52416 78.2217 4.47616 78.3849C4.45936 78.4425 4.46176 85.6569 4.45936 85.7121C4.44976 86.2953 4.56976 86.6337 4.81936 86.7177C5.31856 86.7177 6.28096 87.5097 6.30256 87.5169C6.55216 87.6177 7.29856 87.6681 7.67296 87.8601C8.27056 88.1649 9.10816 88.5225 9.15616 88.5441C9.26656 88.5945 9.86416 88.9209 10.0706 89.0025C10.0706 89.0025 10.6226 89.0025 10.8698 89.1153C11.4386 89.3817 11.693 89.8041 12.353 89.9145C12.7658 89.9841 13.5074 90.3993 14.2946 90.6009C14.3042 90.6033 17.1818 91.5057 17.261 91.5129C17.4506 91.5321 17.6546 91.4433 17.8322 91.5129C18.0866 91.6161 18.2666 91.8585 18.5162 91.9689C18.6554 92.0337 19.7138 92.2065 22.3586 92.1849C22.673 92.1849 23.8826 92.1777 23.9978 92.1993C24.0962 92.2161 25.2098 92.6169 25.481 92.6553C25.625 92.6745 26.7194 92.6313 26.9642 92.6553C27.1154 92.6697 28.0658 92.8905 29.4818 92.9049C31.649 92.8977 35.4146 92.8881 37.0106 92.8833C35.2538 92.8809 30.9506 92.8833 30.3458 92.7321C29.3258 92.4729 28.7258 92.2017 27.9746 91.7169C26.561 90.8049 23.5322 89.9313 22.0106 89.1081C20.1218 88.0641 17.621 87.1929 15.9626 86.8449C15.425 86.7297 13.8986 86.2521 12.8834 85.8873C12.317 85.6905 10.7762 85.4697 10.2386 85.2489C9.96976 85.1409 9.16576 84.6969 9.04336 84.6633C8.96656 84.6441 7.84096 84.6369 7.55776 84.5505C7.35856 84.4881 6.47296 83.9217 6.30256 83.8641C6.05776 83.7825 5.02336 83.7729 4.93216 83.7513C4.81456 83.7225 4.57936 83.6241 4.22656 83.4585" stroke="#EF586A" stroke-width="6" stroke-linecap="round"/>
<path d="M4.38477 82.4055C5.85837 82.5063 9.51836 82.7103 10.5792 82.7823C12.1992 82.9071 15.8232 83.4783 17.1912 83.5647C17.9976 83.6151 20.1024 83.9535 20.5728 84.0927C21.0432 84.2319 22.1016 84.6543 22.1712 84.6639C22.3968 84.6975 23.028 84.6855 23.5752 84.8847C23.7912 84.9639 24.0072 85.0431 24.2256 85.1199C23.256 85.1607 22.4808 85.0815 21.4848 84.7791C19.7832 84.2607 16.1928 82.9839 15.6624 82.8375C15.1656 82.7007 13.0752 82.1847 12.8088 82.0383C12.528 81.8799 11.7072 81.2679 11.4384 81.0111C11.1024 80.6823 10.8672 79.4607 10.8696 78.6135C10.872 78.2223 10.848 77.1471 10.8696 77.0151C10.9008 76.8423 11.376 76.1847 11.5536 76.1031C11.8152 75.9903 18.0552 75.9783 18.8976 76.0815C19.0752 76.1055 24.2712 77.0367 24.9096 77.3583C25.1376 77.4735 25.7016 77.7639 25.7088 77.8143C24.5832 77.8335 23.6832 77.7831 22.9704 77.5863C21.192 77.0823 19.1688 76.2663 16.9152 75.1959C15.2016 74.3463 13.4184 73.1607 13.2648 72.9063C13.0152 72.4719 12.912 70.6863 12.9072 70.4031C12.9048 69.9279 12.9768 69.5535 13.152 69.3663C13.3224 69.1935 14.0808 68.5047 14.2944 68.3391C14.7336 68.0103 18.8208 67.1895 19.8528 67.1127C20.1816 67.0911 24.6912 67.0671 25.2528 67.1991C25.4448 67.6575 25.5168 68.1375 25.4808 68.7975C25.4688 68.9727 25.032 69.1791 24.7968 69.2535C24.3888 69.3639 20.136 69.3807 18.0744 69.3831C16.7064 69.3735 15.5616 69.3159 14.9784 69.1383C13.9296 68.8071 13.6272 68.6223 13.4952 68.4543C13.6248 68.1687 13.8192 68.0583 14.3496 68.0463C16.7592 67.9743 18.1752 68.0295 20.5704 68.5287C21.6984 68.7687 23.328 69.2343 24.168 69.5727C24.7848 69.8247 28.428 71.5719 29.0208 72.1071C29.148 72.2247 29.64 72.8343 29.7048 72.9063C30.1152 73.3815 30.2232 73.6071 30.24 74.0967C30.2688 74.8383 30.3024 76.5159 30.1416 77.1399C29.9184 77.9631 28.9488 79.4751 28.5624 79.9839C28.1424 80.5335 26.2344 82.6719 26.052 82.8375C25.7616 82.6119 25.6584 82.3815 25.6704 81.8535C25.6896 81.0327 25.7424 79.3695 25.824 78.9567C26.3664 76.2471 26.568 74.3007 26.6232 72.7911C26.6496 72.0327 26.628 70.9599 26.6232 70.7367C26.6304 74.5167 26.6808 84.2223 26.3952 85.8615C26.3616 86.0391 26.1576 87.1455 26.1648 87.2895C25.8456 87.3687 25.1808 86.6007 25.0248 86.0343" stroke="#EF586A" stroke-width="6" stroke-linecap="round"/>
<path d="M6.30273 79.1846C6.76593 80.063 6.87634 80.4542 6.98674 81.8102C7.00834 82.0718 7.33474 83.9798 7.45234 84.8102C7.51474 85.2614 7.60114 85.4366 7.78594 85.5782L8.58514 84.4358" stroke="#EF586A" stroke-width="6" stroke-linecap="round"/>
<path d="M15.2069 75.3037C15.1997 75.6253 15.1805 76.3069 15.2069 76.4437C15.2453 76.6477 15.7517 77.6269 15.7781 77.7013C15.8021 77.7685 15.9077 78.6229 16.0061 78.8413C16.0997 79.0597 16.6541 79.7461 16.6901 79.8685C16.7693 80.1277 16.8461 80.8237 17.0333 81.0109" stroke="#EF586A" stroke-width="6" stroke-linecap="round"/>
<path d="M7.44457 17.082C7.46377 17.634 7.24297 18.0396 7.21417 18.1092C7.15417 18.27 6.95257 18.7284 6.98617 19.2516C7.23577 19.4268 7.63417 19.6308 7.78537 19.7076C8.38537 20.0148 8.78137 20.4372 8.92777 20.5068C9.03097 20.5572 9.42217 20.514 9.49897 20.622C9.54697 20.6916 9.67417 20.898 9.95497 20.9628" stroke="#EF586A" stroke-width="6" stroke-linecap="round"/>
<path d="M23.4813 11.252L21.9861 11.3456C21.9885 11.4416 26.2437 11.4296 28.3605 11.4248C31.1277 11.4368 31.9941 11.5328 33.9525 12.0008C33.8205 11.9888 30.7941 12.3608 29.0661 12.6416C28.5549 12.7256 19.7397 12.7688 19.7325 12.7688C19.0677 12.7856 18.1845 12.2864 17.6853 12.188C17.4621 12.1448 15.9093 11.7608 15.7221 11.72C14.9133 11.5448 14.5869 11.3048 14.4117 11.252C14.2629 11.2064 13.7421 11.2256 13.5717 11.0648C13.4733 10.9736 12.2109 10.2944 11.9805 10.0376C11.9493 10.0016 11.5629 9.53362 11.4189 9.56962C11.0205 9.67282 10.7277 9.82402 10.4853 10.0376C11.6901 10.1648 12.4941 10.0376 12.9165 9.94402C13.0773 9.92962 15.8805 9.98482 16.4253 9.98002C17.4309 9.96322 18.6981 9.62242 19.2741 9.56962C19.9077 9.51202 25.6917 9.60802 26.3805 9.56962C29.9925 9.35842 33.5541 8.48002 33.7653 8.44642C30.2517 8.45122 19.8357 8.44642 19.8357 8.44642C19.5597 8.50882 18.9597 8.81122 18.8997 8.82082C18.7101 8.84962 17.7213 8.80642 17.3829 8.79202C16.9053 8.77282 16.6389 8.85442 16.2813 9.10162C16.1493 9.19522 15.4989 9.14722 15.2541 9.19522C15.1509 9.21442 14.4045 9.56722 14.2245 9.56962C13.8957 9.57442 11.8317 9.90562 11.6061 9.94402C11.4837 9.96562 10.9869 10.0736 10.8597 10.1312C9.66212 10.6688 9.28772 10.6352 9.17492 10.6904C9.02132 10.7768 8.95411 10.9784 8.80291 11.0648C8.71891 11.1176 8.55332 11.0648 8.52212 11.1584C8.50532 11.2088 8.52212 12.7472 8.52212 12.8408C8.68292 12.9752 9.08372 13.1216 9.36212 13.2152C9.57812 13.3088 15.9261 14.2784 16.3749 14.2448C16.7733 14.2136 17.0229 14.2136 17.1237 14.2448C17.3637 14.3168 17.8125 14.636 18.0597 14.6192C19.5453 14.5016 21.3981 14.8064 23.8413 14.8208C28.3197 14.8136 35.8341 14.804 35.9181 14.804C36.8973 14.8112 38.3757 14.4752 38.6277 14.432C38.7765 14.4056 40.5861 14.4584 40.6845 14.432C40.8189 14.396 42.2733 13.9064 42.9285 13.8704C43.5669 13.8704 45.4413 13.6904 46.0149 13.496C46.9341 13.1792 48.3741 12.8768 48.6333 12.7472C49.2693 12.4256 51.3909 11.7368 51.9045 11.6264C52.2069 11.5616 52.6437 11.2952 52.7469 11.252C52.8357 11.204 52.8333 10.6592 52.8405 10.4096C52.8501 9.54082 52.7805 9.12802 52.5597 8.91442C52.2021 8.60002 49.2069 8.42242 46.6245 8.46082C45.5565 8.47762 43.4397 8.47042 42.6621 8.27842C42.4653 8.22802 41.1357 7.83922 40.3845 7.60162C39.6573 7.37602 36.6693 7.13842 35.0709 6.84082C34.5381 6.74242 32.2725 6.77842 32.1765 6.76402C31.1541 6.56002 29.3853 6.55762 28.9341 6.55762C26.6205 6.55762 21.0237 6.57442 20.9565 6.57682C20.1213 6.62962 17.5557 7.70722 16.8429 8.16562C16.7109 8.25202 15.8469 8.37922 15.8157 8.54002C15.8085 8.60242 15.7989 8.91682 15.8157 9.00802C15.8565 9.20002 16.1085 9.35122 16.5621 9.47602C18.8013 10.0496 20.9805 10.292 22.4157 10.5656C23.1117 10.676 41.5941 10.6904 44.9853 10.6904" stroke="#72A89A" stroke-width="6" stroke-linecap="round"/>
<path d="M9.73745 11.0652C9.60305 11.3532 10.5822 11.946 11.7006 12.1884C12.5166 12.354 15.8766 13.086 17.0358 13.11C24.6366 13.1148 40.3038 13.1316 48.3678 13.146C48.8982 13.1412 49.9302 13.134 50.4246 12.99C50.8062 12.87 51.4662 11.9748 51.5334 11.5332C51.5382 11.4996 51.5598 9.83637 51.3462 9.47637C51.2958 9.39957 49.8726 8.82837 49.755 8.82117C49.6278 8.81397 48.4926 8.85237 48.2598 8.82117C48.0798 8.79957 46.6254 8.46837 45.867 8.42757C45.147 8.38917 40.2486 7.61637 38.6286 7.41957C37.6974 7.28037 34.3734 6.45717 33.675 6.38997C33.2886 6.35397 32.079 6.39957 31.9902 6.38997C31.7022 6.35877 30.711 6.02037 30.6822 6.01557C30.5094 5.98677 14.9382 6.01557 14.787 6.10917C14.5998 6.23397 13.851 6.67077 13.479 6.85797C13.3326 6.93957 13.227 7.20837 13.1982 7.23237C13.143 7.27557 11.9478 7.72197 11.7942 7.79397C11.547 7.90917 10.3062 8.61717 10.299 8.63397C10.215 8.80437 9.61264 8.81397 9.36304 8.82117C8.81344 8.83797 8.19425 9.71637 7.96145 9.85077C7.96625 10.05 7.94945 10.8948 7.96145 10.9716C7.97105 11.0244 8.68144 11.7012 9.45664 12.282C9.93664 12.63 10.251 12.726 10.9542 12.7476C11.1006 12.7524 16.3446 12.75 18.2622 12.7548C21.411 12.8052 26.1126 11.9436 26.1942 11.9076C26.4222 11.8044 27.9294 11.1324 27.1278 10.6908C26.871 10.5588 25.3998 10.3716 24.1086 10.29C23.295 10.2372 21.6534 9.86277 21.3966 9.83157C20.6958 9.74997 13.9182 9.74037 13.7574 9.75717C12.0414 9.92517 11.8806 10.6476 11.8878 10.7844C13.1118 11.3292 21.4926 11.2572 25.1646 11.2524C26.5878 11.2572 31.0302 11.3244 31.8342 11.4804C32.3358 11.61 33.1878 11.8068 34.1334 11.8452C34.9254 11.8812 36.123 12.3876 36.1974 12.654C36.2118 12.7092 36.2718 14.9676 36.1974 15.0852C36.0006 15.3852 35.3478 15.582 34.8486 15.5604C34.755 15.5532 18.6894 15.5532 17.967 15.5532C25.8654 15.5508 39.075 15.5556 39.7518 15.4812C41.2374 15.3084 45.3246 14.5932 45.8646 14.6052C46.5486 14.622 48.4998 14.61 49.1022 14.526C49.407 14.4828 51.1494 14.2164 51.8118 13.8708C52.2918 13.3932 53.3598 12.8436 53.5902 12.5604C53.7054 12.4212 53.8902 12.0684 54.1494 12.0012C54.6174 11.8764 55.0974 11.6748 55.0854 11.5332C55.0758 11.43 55.0782 10.8516 55.0854 10.5036" stroke="#E8FFF9" stroke-width="6" stroke-linecap="round"/>
<path d="M51.9045 19.1074C52.2981 19.0402 52.7661 18.3874 53.0277 17.8906C53.0157 17.9242 51.4557 18.5002 51.2109 18.601C50.5365 18.8794 49.0221 19.0738 48.6285 19.1722C47.3325 19.6018 44.4717 20.413 43.1829 20.8234C42.5829 21.0106 41.2317 21.2338 40.7781 21.3514C39.9837 21.5506 38.2173 21.5482 37.7829 21.5482C33.5901 21.5434 26.3085 21.6346 23.2221 21.7306C18.9405 21.7282 13.6485 21.7258 12.6357 21.7234" stroke="#EF586A" stroke-width="6" stroke-linecap="round"/>
<path d="M36.1972 18.9199C36.202 20.2111 36.1924 20.9791 36.2788 21.4591C36.4228 22.2271 36.7108 23.0647 36.7588 23.7799C36.7708 23.9695 37.114 25.9687 37.1332 27.2407C37.1428 27.7687 38.4244 31.8127 38.9092 32.7559C39.0196 32.9695 40.0756 35.6719 41.2276 37.8319C41.7508 38.6359 43.0708 40.8199 43.8652 42.1999C44.29 43.0519 46.294 46.6975 46.4836 46.9687C46.8076 47.4415 46.9732 48.0655 47.3236 48.6511C47.326 48.6559 47.5732 50.3671 47.6044 50.5207C47.9956 52.1839 48.4156 56.0311 48.4468 56.2255C48.7372 58.0351 48.7372 60.7639 48.7276 62.5831C48.7276 64.0975 48.7516 65.1583 48.5404 65.7631C48.4372 66.0511 48.0676 66.8407 47.9788 67.2583C47.77 68.2183 47.3452 68.9647 46.9516 69.8767C46.5748 70.7383 46.1068 71.5255 45.9004 72.0631C45.7852 72.3703 45.4012 74.2303 45.1396 74.7655C44.0164 77.0071 43.3324 79.2655 42.4684 80.7391C41.5468 82.3063 39.7972 85.1887 39.5644 85.3975C38.806 86.0599 37.222 87.8527 37.1332 87.9223C36.9724 88.0471 36.1204 88.3783 36.1036 88.3903C36.0916 88.3975 34.8436 89.6551 34.4212 89.9791C34.2268 90.1279 33.0268 91.0447 32.7388 91.1935C31.3828 91.8871 31.1476 92.3215 30.214 93.0631C29.4196 93.7183 28.51 94.4647 28.1572 94.6543" stroke="#E8FFF9" stroke-width="2.88" stroke-linecap="round"/>
<path d="M30.2134 94.0927C30.0406 94.0375 29.5846 94.3927 29.371 94.4671C29.335 94.4791 28.6414 94.4623 28.4374 94.5607C27.4126 95.0431 25.5358 95.5447 24.9766 95.9623" stroke="#E8FFF9" stroke-width="2.88" stroke-linecap="round"/>
<path d="M43.1162 18.9199C43.1186 22.8895 43.1162 29.4823 43.1162 29.4847C43.325 30.3055 43.2962 32.3359 43.397 32.3839C43.481 32.4223 43.4642 33.0079 43.4906 33.2239C43.5218 33.4831 43.8626 34.1431 43.865 34.1599C43.8938 34.3447 44.045 35.3431 44.0522 35.4679C44.0618 35.6551 44.429 36.0367 44.6138 36.6847C44.6474 36.8071 45.173 38.1943 45.173 38.3671C45.1706 38.8255 45.4538 39.3823 45.5474 39.6751C45.6074 39.8647 45.5114 40.5751 45.5474 40.7047C45.6026 40.9063 45.9458 41.6431 46.0154 41.8255C46.0418 41.8903 46.0874 42.2647 46.109 42.3871C46.1474 42.6319 46.4522 43.1863 46.4834 43.3231C46.5122 43.4431 46.493 43.8583 46.577 43.9759C46.6058 44.0191 46.8506 44.2447 46.8578 44.3503C46.8818 44.8807 47.165 45.7591 47.2298 46.0327C47.6306 47.7535 47.5298 49.4815 48.0722 50.6143C48.1898 50.8735 48.1418 52.3567 48.353 52.5799" stroke="#E8FFF9" stroke-width="2.88" stroke-linecap="round"/>
<path d="M47.6038 45.6611C47.563 45.8267 47.9086 46.7771 47.9782 47.9051C48.0022 48.3107 48.3238 50.4299 48.3526 50.6147C48.5494 51.9011 48.5398 52.3211 48.535 53.6387C48.5326 55.6547 48.5326 59.6675 48.535 61.6643C48.5374 62.9267 48.5566 63.5315 48.3526 64.2035C48.175 64.7915 48.0718 68.0531 47.9782 69.3155C47.9998 70.8083 47.4478 72.6371 47.1214 74.6723C47.0326 75.2675 47.0854 76.8419 46.8574 77.4299C46.4398 78.4835 46.495 80.4011 46.3894 80.7227C46.3654 80.7947 45.9934 81.5051 45.9214 81.7523C45.7726 82.2611 45.739 82.9667 45.7342 83.1539C45.7294 83.3507 45.0478 84.7019 44.8006 85.9595C44.743 86.2451 44.2798 87.8603 44.239 88.0163C44.2198 88.0859 43.699 89.3531 43.6774 90.2603C43.675 90.4883 43.3654 90.8651 43.303 91.0067C43.2646 91.0931 43.1302 92.2811 43.1158 92.3171C43.1134 92.3219 42.6958 93.3755 42.5566 93.5315" stroke="#E8FFF9" stroke-width="2.88" stroke-linecap="round"/>
<path d="M47.045 48.2773C47.009 49.4125 47.4314 50.2933 47.4242 50.8261C47.4242 50.9005 47.417 60.9277 47.321 61.3405C47.2394 61.6885 47.0186 63.7885 47.045 63.9853C47.0714 64.2037 46.541 65.3749 46.4834 66.4165C46.4642 66.7357 45.5138 69.6397 44.9858 70.6237C44.7962 70.9861 44.297 72.4789 44.2394 72.5893C44.1698 72.7189 43.8938 73.0357 43.865 73.1485C43.6178 74.1013 43.1738 74.7013 42.6506 75.7669C42.425 76.2229 41.6018 77.8477 41.4338 78.1981C41.1914 78.7093 40.3586 79.8805 39.9386 80.6293C39.8426 80.7685 38.5802 82.3285 38.5346 82.4053C38.5202 82.4293 38.3954 82.8325 38.3474 82.8733C38.1626 82.9669 37.2386 83.7325 36.7586 84.1813C36.6506 84.2845 35.5802 85.1221 34.9826 85.9597C34.901 86.0629 34.589 86.4349 34.5146 86.5189C34.4906 86.5477 31.3706 88.5709 31.2434 88.6693C29.7866 89.7997 26.933 91.0837 25.3514 92.0365C25.2242 92.1133 24.2762 92.4565 23.9498 92.5981C23.8034 92.6941 23.7386 92.9053 23.5754 92.9701C23.4938 93.0037 23.3066 93.0037 23.0138 92.9701C22.8674 93.2389 21.6026 93.8797 21.5186 93.9061C21.3986 93.9421 21.2618 93.8629 21.1442 93.9061C21.0626 93.9373 21.0434 94.0765 20.957 94.0933C20.7122 94.1413 20.0906 94.1029 20.117 94.1869C21.2978 94.4653 23.441 94.2037 24.401 93.8869C24.8426 93.7381 25.577 93.7765 25.8194 93.7189C25.9058 93.6997 25.9202 93.5485 26.0066 93.5317C26.2826 93.4789 27.0338 93.5125 27.3914 93.3277C28.0634 92.9797 29.0162 92.2453 29.5346 92.0221C30.9074 91.4293 32.0642 91.0525 32.2706 90.9133C32.6426 90.6637 33.593 90.2485 33.7658 90.1669C33.9866 90.0613 37.793 87.1813 38.3474 86.8933C39.1562 86.4733 39.869 85.7005 40.0322 85.4917C40.0922 85.4125 40.8938 84.2389 41.153 83.8093C41.2298 83.6821 41.6954 83.3557 42.089 82.8733C42.449 82.3741 43.1474 81.4597 43.2098 81.1909C42.3218 81.6397 41.4962 82.1029 40.9586 82.5685C40.0394 83.3725 36.8378 86.5021 36.4778 87.2677C36.3842 87.4741 35.9762 88.4533 36.0098 88.4821" stroke="#E8FFF9" stroke-width="2.88" stroke-linecap="round"/>
<path d="M49.8478 42.8555C49.7566 43.5083 50.9326 46.0499 50.971 46.2203C51.019 46.4363 51.1294 47.2379 51.2518 47.5307C51.4582 47.9459 51.943 49.7243 52.0918 49.8683V49.7747" stroke="#EF586A" stroke-width="2.88" stroke-linecap="round"/>
<path d="M49.4736 44.9121C49.6536 45.9897 49.7184 46.9017 49.7544 46.9689C49.8312 47.1057 50.1936 47.5593 50.2224 47.7177C50.2512 47.8713 50.6088 50.9625 50.784 51.6441" stroke="#EF586A" stroke-width="2.88" stroke-linecap="round"/>
<path d="M49.6608 43.417V45.7546L49.4736 44.5378" stroke="#EF586A" stroke-width="2.88" stroke-linecap="round"/>
<path d="M47.0447 45.2871C47.0399 46.0671 47.0327 48.2463 47.0447 48.5583C47.0711 49.2591 47.5847 50.9151 47.6975 51.5511C47.7527 51.8631 47.9951 53.7375 47.9783 53.9823C47.6591 54.0135 47.5487 53.7639 47.6039 53.1399" stroke="#E8FFF9" stroke-width="2.88" stroke-linecap="round"/>
<path d="M45.7343 44.3506C45.6815 45.2962 45.7727 46.5538 45.9935 47.4826C46.4711 49.0954 47.7719 53.4994 47.7911 53.6074C47.9687 54.589 47.9783 57.1858 47.9783 57.6274" stroke="#E8FFF9" stroke-width="2.88" stroke-linecap="round"/>
<path d="M46.2964 66.0439C46.2652 66.7855 46.39 67.8655 46.4836 68.5663C46.5004 68.7463 46.5028 74.9599 46.3684 75.3703C45.6436 77.4343 43.7092 82.2151 42.6508 85.0231C42.6028 85.1719 42.1204 86.8567 41.7148 87.6415C41.5492 87.9607 41.1676 88.4431 41.1532 88.4815C41.0836 88.6903 40.834 89.8303 40.7788 89.9791C40.7644 90.0151 40.3852 90.3367 40.3132 90.3535C40.2196 90.3703 35.038 90.3703 33.9316 90.5863C33.1036 90.7567 29.2852 92.2087 28.906 92.2231C28.7308 92.2279 28.5772 92.3551 28.5316 92.5039C28.8988 92.6671 30.1516 92.5087 30.778 92.1991C31.2364 91.9663 35.7172 90.2504 36.1012 90.0872C36.7204 89.8256 40.3708 87.9655 40.7788 87.6415C41.1748 87.3103 41.2468 86.8591 41.434 86.5183C41.3572 86.3599 40.3948 86.492 39.19 86.8928C38.038 87.2312 36.8812 87.7303 36.478 87.7351C36.3532 87.7375 35.8828 87.8191 35.8252 88.0159C35.7916 88.1359 35.8732 88.2751 35.8252 88.3903C35.7388 88.5967 35.5276 88.7383 35.4508 88.9495C35.422 89.0263 35.4532 89.1199 35.5444 89.2303C36.1564 89.0095 39.142 86.7775 39.3772 86.6119C39.766 86.3431 41.2828 85.8847 41.746 85.6039C42.0148 85.4383 42.994 84.6415 43.6372 84.3055C44.2948 83.9623 45.1396 83.4871 45.1732 83.3407C45.1804 83.3071 45.1804 83.2447 45.1732 83.1535C45.2092 83.8447 45.1252 84.4303 44.8924 84.9295C44.8324 85.0639 44.4124 85.8079 43.9588 86.4247C43.9012 86.5063 43.678 86.8927 43.678 87.3607C43.6708 87.4135 43.3516 88.0159 43.21 88.2967C42.7996 89.4895 42.4828 89.9288 42.37 90.26C42.298 90.4688 40.8748 92.5447 40.7788 92.5975C40.5844 92.6983 39.9748 93.1879 38.4964 93.1687C36.5692 93.1687 32.842 93.1639 31.0396 93.1567C30.5332 93.1591 29.3404 93.3727 28.8436 93.3607C27.91 93.3415 26.2516 93.3391 26.194 93.3439C26.1724 93.3463 24.9868 94.0471 24.79 94.1863C24.8284 94.2823 26.0092 94.4695 26.65 94.5751C27.1276 94.6495 34.3972 94.6567 34.4212 94.6543C34.5388 94.6423 36.4108 93.2383 36.7588 93.0631C36.9148 92.9791 37.1956 92.9119 37.3204 92.8783C37.4668 92.8327 37.8844 91.6567 37.8988 90.9007C37.9084 90.0295 37.6684 89.4535 37.5076 89.3239C37.4308 89.2687 36.6244 88.9111 36.2908 88.8559C36.07 88.8199 35.3524 88.3135 35.17 88.2967C34.9204 88.2799 33.5908 88.2727 33.4876 88.2967C32.7436 88.4623 32.626 88.9975 32.458 89.1367V89.2303" stroke="#E8FFF9" stroke-width="2.88" stroke-linecap="round"/>
<path d="M46.1086 42.2942C46.0462 41.9078 45.0646 40.7198 44.9854 40.6118C43.5238 38.5478 42.535 36.4214 41.6206 34.907C41.2006 34.2998 40.4974 33.2366 40.4974 32.8502C40.3462 32.2166 39.0238 29.5046 38.815 28.175C38.6902 27.3638 38.4238 26.3342 38.4286 25.787C38.431 25.2902 38.4718 24.8966 38.4406 24.8102C38.3374 24.5222 37.8646 23.3006 37.8742 22.2086C37.8838 21.1214 37.8646 20.7422 38.0686 20.5094C38.095 20.4782 38.1262 20.4158 38.1622 20.3222C38.5342 20.2766 39.1462 20.0678 39.283 20.0414C39.4966 20.003 40.0126 20.0366 40.1254 19.9478C40.4926 19.655 41.6998 19.6694 41.9014 19.667C42.0694 19.9166 42.1726 20.0894 42.1822 20.2286C42.1918 20.3606 42.1558 21.3686 42.1822 21.5366C42.3694 22.2854 42.607 23.9702 42.6502 24.3422C42.9358 27.0854 42.9406 30.0494 42.9358 32.1422C42.9262 34.6502 43.0702 35.1686 43.303 35.843C43.3078 34.5518 43.2166 34.079 42.7558 33.1238C42.187 31.967 40.6246 27.2486 40.5502 26.879C40.483 26.519 40.5142 22.0934 40.4974 22.0046C40.4542 21.7742 39.6958 21.6326 39.283 21.7238C39.0502 21.7838 39.0214 22.1942 39.0022 22.2854C38.8126 23.4038 38.8198 23.5934 38.8222 25.1222C38.8198 26.6606 38.7958 27.539 39.0022 28.175C39.1582 28.6454 39.1846 29.0174 39.1894 29.111C39.1942 29.2382 39.3358 29.3294 39.5638 29.3918" stroke="#E8FFF9" stroke-width="2.88" stroke-linecap="round"/>
<path d="M7.58887 17.2549C8.12887 17.6821 9.67447 18.4525 10.2097 18.5605C11.8729 18.8317 13.4449 19.3501 15.0313 19.5253C15.3313 19.5589 16.0921 19.5469 16.4209 19.5253C17.0209 19.4869 18.5233 20.0437 19.3201 20.1733C19.9729 20.2765 43.7233 20.2789 43.7929 20.2837C44.1985 20.3077 44.7049 20.0701 44.9281 20.0293C45.1753 19.9861 45.8641 20.0077 46.2625 19.8037C46.5409 19.6645 47.2681 19.3021 47.4505 19.2733C47.6593 19.2421 49.5217 19.0141 49.5937 19.0213C50.0857 19.0573 50.8249 18.6421 51.3601 18.5173C51.5473 18.4765 52.6129 17.7637 52.6225 17.7589C52.7785 17.6989 53.2105 17.6749 53.2537 17.6341C53.3425 17.5405 53.5753 17.4925 53.7577 17.5069" stroke="#C5273A" stroke-width="2.88" stroke-linecap="round"/>
<path d="M8.85159 17.5068H8.72439C8.70999 17.6868 8.78439 17.9892 8.97879 18.138C9.39879 18.4548 11.5348 19.0836 11.7532 19.146C11.8996 19.1916 13.018 19.3548 13.2676 19.4004C13.9372 19.5204 14.614 19.4892 14.9068 19.5252C15.0892 19.5492 17.4556 20.1924 18.3124 20.2836C18.4876 20.3004 36.1516 20.2836 38.3692 20.2836" stroke="#C5273A" stroke-width="2.88" stroke-linecap="round"/>
<path d="M10.3662 18.2656C10.9494 18.2392 12.231 18.7696 12.5094 18.8944C12.7014 18.9808 13.0398 19.2904 13.3926 19.4008C15.2286 19.9648 16.9062 20.0536 17.3022 20.1568C18.7374 20.524 19.2966 20.5984 20.3838 20.5624C20.7846 20.548 21.3486 20.5096 21.4662 20.536C21.5598 20.5552 23.4798 21.2728 23.6094 21.292C23.6814 21.3016 41.3022 21.3208 41.523 21.292C41.8614 21.2464 43.9878 20.7496 44.4246 20.788" stroke="#C5273A" stroke-width="2.88" stroke-linecap="round"/>
<path d="M8.85117 19.0214C8.56317 19.0142 8.20557 19.0502 8.09517 19.1462C7.97997 19.247 7.50237 19.859 7.33677 20.0294C7.11117 20.2718 7.12557 20.6678 7.08477 20.7878C7.02237 20.9846 6.13917 22.3646 5.94957 22.8062C5.62797 23.3582 5.27037 24.6398 5.31837 25.3286C5.34477 25.6934 4.38717 27.947 4.94157 28.607C4.97997 28.6526 5.06397 28.9022 5.06637 28.9862C5.08317 29.1662 5.71197 29.4998 7.96797 31.0046C8.71677 31.6022 10.3128 32.3102 10.9128 32.5166C11.256 32.6342 11.6304 32.615 11.7528 32.6438C11.988 32.699 12.5688 33.1934 12.7608 33.275C13.14 33.4334 14.5296 33.3782 15.0312 33.527C15.588 33.7022 16.056 33.887 16.1664 34.031C16.356 34.2854 16.6944 35.231 16.6728 35.5454C16.668 35.6054 16.668 35.6486 16.6728 35.6726" stroke="#C5273A" stroke-width="2.88" stroke-linecap="round"/>
<path d="M16.6729 35.6729L17.1769 92.9392" stroke="#C5273A" stroke-width="2.88" stroke-linecap="round" stroke-linejoin="round"/>
<path d="M14.4029 91.9307C14.4005 90.0995 14.3957 84.7139 14.4029 84.4883C14.4341 83.4875 13.9997 79.4531 13.7717 77.3651C13.7117 76.8755 13.0781 74.8115 13.0973 74.1827C13.1045 74.0003 13.1693 73.2395 13.1405 73.0091C13.1189 72.8339 12.9221 72.0995 12.8885 71.7467C12.8525 71.3651 12.8861 49.2683 12.8885 49.1675C12.9221 48.0107 12.6725 46.7891 12.6365 46.3931C12.6125 46.1171 12.6293 40.7531 12.6365 38.8259C12.6269 37.9715 12.5789 36.5723 12.8909 35.7227C13.1645 34.9787 13.4069 33.4355 13.3925 33.1475" stroke="#C5273A" stroke-width="4.08" stroke-linecap="round"/>
<path d="M15.1582 35.6729C14.9374 35.9297 14.9422 36.3904 14.9062 36.556C14.899 36.5824 14.479 37.1873 14.4022 37.4369C14.3374 37.6433 13.9366 39.1145 13.8958 39.9617C13.8958 39.9881 11.2102 50.4857 11.1214 51.0617C11.119 51.0785 11.131 55.8161 11.131 58.0913C11.1238 61.5257 11.0854 62.7137 11.3014 64.4369C11.3734 65.0513 11.3662 72.3953 11.3542 74.2841C11.359 75.3257 12.1462 80.6561 12.1318 81.3353" stroke="#C5273A" stroke-width="4.08" stroke-linecap="round"/>
<path d="M15.4102 40.2129H15.5374C15.6622 40.3881 15.667 43.8825 15.6694 45.4353C15.6598 54.5241 15.655 73.4985 15.6622 73.6401C15.7174 74.5857 16.2214 76.2753 16.2934 76.6665C16.4158 77.3553 16.399 81.4041 16.4206 81.4593C16.483 81.6369 16.6942 82.0401 16.6726 82.4697C16.663 82.6161 16.6702 83.3385 16.6726 83.6049" stroke="#C5273A" stroke-width="4.08" stroke-linecap="round"/>
<path d="M10.3661 38.6985C10.3565 38.2113 10.3517 37.4793 10.3661 37.3113C10.3805 37.0857 10.1693 36.8097 10.0709 36.6873C9.7973 36.3561 8.19409 35.4873 7.71649 35.0409C7.33729 34.5993 6.0965 33.3057 6.0773 33.2745C5.4989 32.3145 5.32129 32.1489 5.06689 32.0121C5.08369 31.5657 4.74529 30.6825 4.69009 30.6249C4.54609 30.4689 4.56049 29.3889 4.56529 28.7649C4.56529 28.6281 4.56289 28.4913 4.56289 28.3545" stroke="#C5273A" stroke-width="4.08" stroke-linecap="round"/>
<path d="M4.31055 25.0762V28.1026" stroke="#C5273A" stroke-width="4.08" stroke-linecap="round"/>
<path d="M8.0957 34.9141C8.1989 35.0317 9.6365 36.1741 9.8597 36.3013C10.4189 36.6133 11.2589 36.6925 11.6261 36.6805" stroke="#C5273A" stroke-width="4.08" stroke-linecap="round"/>
<path d="M7.58944 33.9062C7.57504 33.9855 7.66143 34.2207 7.84383 34.2855C8.08383 34.3695 8.77744 34.4463 9.05344 34.5663C9.31504 34.6791 9.96784 35.159 10.239 35.2934C10.4142 35.3822 11.2662 35.4927 11.3742 35.5455C11.463 35.5863 11.7822 35.9343 11.8782 35.9247" stroke="#C5273A" stroke-width="4.08" stroke-linecap="round"/>
<path d="M4.81445 33.4023V33.9063" stroke="#C5273A" stroke-width="4.08" stroke-linecap="round"/>
<path d="M4.81445 33.9062L5.31845 87.3902" stroke="#C5273A" stroke-width="4.08" stroke-linecap="round" stroke-linejoin="round"/>
<path d="M5.31836 87.3896H5.57036" stroke="#C5273A" stroke-width="4.08" stroke-linecap="round"/>
<path d="M6.07715 87.3903C6.70115 87.3831 7.09955 87.4047 7.40195 87.5295C8.18435 87.8487 10.0371 88.8807 10.9155 89.3751C12.1875 90.1143 14.9787 91.9479 15.1587 92.0559C15.3051 92.1447 16.6635 92.7399 16.7979 92.8143C16.7763 92.9175 16.4499 92.9799 16.0419 92.9391C15.8739 92.9199 15.6267 92.5575 15.5379 92.4351C15.4107 92.2575 15.0987 92.1231 15.0315 92.0559C14.9259 91.9503 14.6595 91.5231 14.4027 91.2999C13.3035 90.3423 11.6979 88.7823 10.8699 88.0191C10.2387 87.3903 9.97475 87.2391 9.73475 86.7591C9.70115 86.7135 9.37235 86.5911 9.35555 86.5071C9.34115 86.4231 9.27155 86.1711 9.23075 86.1279C9.11315 86.0007 9.14914 85.6143 9.10354 85.4967C9.01714 85.2687 8.32354 83.6799 7.84354 83.2263C7.59394 82.9911 7.58675 82.9551 7.57715 80.0127C7.57715 75.4023 7.58915 66.7335 7.63475 65.8671C7.64915 65.3463 7.02995 63.5031 7.03235 62.9823C7.08515 61.0263 7.09715 57.3015 7.09475 55.2711C7.08995 54.3975 6.93395 53.3583 6.83315 52.8279C6.81395 52.6623 6.83555 47.1495 6.71315 46.7223C6.53795 46.1175 6.55955 38.4039 6.58115 38.3199C6.68675 37.9623 7.14995 37.7199 7.71635 37.6911C7.98995 37.6887 8.43875 37.6935 8.72435 37.6911C8.88515 37.6983 9.26915 38.2143 9.35555 38.5719C9.41075 38.8071 9.34115 40.2735 9.35555 40.4655C9.36995 40.6383 10.0851 42.9759 10.1139 43.1151C10.1307 43.2063 10.1571 47.5407 10.1139 47.7807C10.0659 48.0255 9.60515 49.4895 9.60755 50.5575C9.61475 51.5799 9.34355 52.5183 9.35555 53.3319C9.36035 53.5911 9.36035 67.5375 9.35555 67.8375C9.32915 69.1455 8.90675 70.7583 8.85155 71.2431C8.82275 71.5095 8.91875 73.6479 8.85155 74.1447C8.76035 74.7951 8.14115 76.2711 8.10515 76.8687C8.09555 77.0607 8.09075 84.6903 8.09555 84.7407C8.12915 85.0887 8.67875 85.9887 8.96195 86.6271C9.09635 86.9295 9.28835 87.7887 9.73475 88.3983C9.83315 88.2159 10.3947 86.8551 10.4907 86.2551C10.6323 85.3575 10.8843 84.5295 10.8699 83.7303C10.8627 83.4207 10.8699 79.9479 10.8699 79.1895L10.7427 84.3615C10.6011 84.3111 10.6059 82.5231 10.6083 81.4839C10.6443 78.6279 10.3851 73.8855 10.3659 73.7655C10.2723 73.2711 9.63395 72.1263 9.60755 71.9991C9.54995 71.7111 9.58115 70.9143 9.35555 70.4871" stroke="#C5273A" stroke-width="4.08" stroke-linecap="round"/>
<path d="M9.60767 27.3467C9.57887 27.4739 9.70367 27.9587 9.85967 28.2299C9.89567 28.2875 10.2293 28.3907 10.8077 28.6163C11.4029 28.8419 11.7557 28.8299 11.8781 28.8587C12.0245 28.8923 12.8021 29.3411 12.8885 29.3651C12.9629 29.3843 15.0341 29.3603 15.9149 29.3651" stroke="#EF586A" stroke-width="4.08" stroke-linecap="round"/>
<path d="M8.34766 27.0947C8.86366 27.1715 9.13726 27.3971 9.23086 27.4715C9.47326 27.6683 10.7405 28.1651 11.2397 28.3523C11.7773 28.5707 12.8693 29.0315 13.6325 29.1131C14.6813 29.2259 15.4013 29.6243 16.0493 29.6219C18.1637 29.6219 21.5021 29.6195 22.7261 29.6171" stroke="#EF586A" stroke-width="4.08" stroke-linecap="round"/>
<path d="M9.60733 27.5986C9.60013 27.9994 9.57853 28.8514 9.60733 28.9858C9.65053 29.1754 10.0945 29.5642 10.2385 29.617C10.3201 29.641 11.5777 29.9842 12.3865 30.2194C12.7705 30.3322 17.9809 30.8362 18.1849 30.877C18.3961 30.9202 19.0249 31.369 19.0681 31.3834C19.1665 31.4122 19.9585 31.3762 20.0785 31.3834C20.2153 31.3882 20.9209 31.093 20.9617 31.1314" stroke="#EF586A" stroke-width="4.08" stroke-linecap="round"/>
<path d="M54.2617 19.7774L54.3889 19.5254C54.5329 19.7006 55.2817 20.0174 55.5241 20.4086C55.5985 20.5358 56.0473 20.8046 56.1529 20.9126C56.2201 20.9798 57.1417 21.9902 57.2881 22.679C57.3313 22.8854 57.3193 23.4734 57.5425 23.6894C57.7873 23.9294 57.7705 24.1118 57.7945 24.1934C57.8545 24.4118 58.0873 24.995 58.0489 25.391C58.0081 25.8662 58.5289 27.383 58.5505 27.7238C58.5553 27.8078 58.7353 28.1318 58.8025 28.2302C58.8145 28.247 58.7953 28.6214 58.8025 29.1134" stroke="#EFB3BA" stroke-width="2.4" stroke-linecap="round"/>
<path d="M58.8029 29.1133L58.0469 87.8941" stroke="#EFB3BA" stroke-width="2.4" stroke-linecap="round" stroke-linejoin="round"/>
<path d="M36.0723 21.5463C36.1323 21.3471 37.3587 20.9391 37.4403 20.9127C37.8915 20.7735 38.3475 20.7759 38.3691 20.7663C38.8371 20.5503 39.7347 20.5887 40.6179 20.5695C41.7123 20.5479 43.0947 21.2631 43.1595 21.2535L43.5987 21.6951L43.2075 19.9359L36.5139 19.8855C36.4491 19.8303 36.4683 21.4839 36.4155 21.6951C36.3915 21.7815 36.3267 21.9447 36.2187 22.1823C36.1731 21.7623 36.2187 21.2319 36.1707 21.0591C36.1395 20.9463 35.9475 20.6919 35.9763 20.3751C35.9931 20.1711 35.9619 20.0079 35.8779 19.7871" stroke="#72A89A" stroke-width="2.4" stroke-linecap="round"/>
<path d="M36.6602 21.8416V21.8896C36.725 21.94 41.3762 21.9376 41.693 21.8416C41.8658 21.7864 42.5714 21.7456 42.7202 21.7432" stroke="#72A89A" stroke-width="2.4" stroke-linecap="round"/>
<path d="M10.8916 14.788C10.8988 14.104 10.8844 13.5016 10.942 13.4008C11.2924 12.8056 12.4492 12.16 12.8956 12.0136C13.5676 11.7976 15.2956 11.2528 15.7732 10.936C16.4164 10.6792 17.4892 10.6768 17.674 10.576C18.1492 10.3192 25.6444 9.93759 25.9948 9.85599C26.0476 9.84399 26.65 9.64719 27.8812 9.64239C32.0788 9.64719 39.4636 9.64719 42.6508 9.64239C44.0932 9.62319 45.1588 9.96159 45.5164 9.95919C45.9172 9.96399 47.8948 10.5352 48.1348 10.6792C48.274 10.7608 48.3796 10.792 48.4444 10.7824C48.6676 11.0128 50.2372 12.112 50.5492 12.3232C50.7196 12.4384 51.3076 13.3456 51.4228 13.7104L51.6796 14.3776" stroke="#72A89A" stroke-width="2.4" stroke-linecap="round"/>
<path d="M35.242 6.77413C37.0036 6.76693 40.918 6.76933 41.818 6.92773C43.8436 7.19413 45.4972 7.64773 46.9036 7.80133C47.3116 7.85173 47.4748 8.00533 47.6212 8.05813C48.0172 8.20693 49.7404 9.20773 50.3956 9.59893C50.3548 9.62053 46.3996 8.46133 45.7732 8.36773C44.1796 8.05813 40.6132 7.36213 40.4812 7.33813C40.066 7.27093 33.1924 6.36133 33.1636 6.36133C31.0828 6.36133 27.4468 6.36373 25.8916 6.36373" stroke="#E8FFF9" stroke-width="2.4" stroke-linecap="round"/>
<path d="M9.6582 12.5265C9.8862 12.5337 12.3246 10.4337 12.7974 10.1121C14.3382 9.06571 16.9902 7.78411 17.5182 7.54411C18.6246 7.04491 19.7022 6.79291 22.4502 6.31051C23.5302 6.07051 25.0278 6.05851 25.9974 6.05371C26.523 6.05371 27.3966 6.05371 27.7422 6.05371" stroke="#E8FFF9" stroke-width="2.4" stroke-linecap="round"/>
<path d="M18.9054 10.9859C18.8766 11.0195 15.3174 12.5003 14.7966 12.9899C14.751 13.0331 13.827 14.0363 13.7694 14.0675C13.6998 14.1035 13.4214 14.4347 12.8958 14.4803C12.6462 14.4971 12.507 14.3435 12.4326 14.2235L13.7166 14.0171L12.4326 14.7371C12.5286 14.7971 33.2814 14.8955 41.5446 14.8931C43.4238 14.8907 44.4078 14.8643 44.5926 15.0443C44.331 15.3035 42.7518 15.6923 42.2286 15.7355C41.2086 15.8195 40.0446 15.9899 39.1062 16.1915C38.3646 16.3427 34.7094 16.3379 33.4422 16.5347C31.0566 16.9067 24.9318 16.9451 21.3006 16.9427C20.7894 16.9427 20.3502 16.9595 20.2926 16.9451C19.875 16.8323 19.8198 16.5611 19.7286 16.4819C19.8222 16.3403 19.9038 16.2395 19.9854 16.2251C20.7414 16.1123 44.8422 16.1243 44.8494 16.1243C46.371 15.8891 48.9222 14.8667 49.2654 14.6339C49.4694 14.4851 49.515 14.4083 49.5222 14.1707C49.5246 14.1275 49.5222 13.5923 49.5222 13.4003C49.3374 13.1627 47.8086 12.8747 47.6214 12.8363C47.4294 12.7979 47.0262 12.6395 46.9038 12.6299C44.1558 12.4235 21.1254 12.4259 21.1158 12.4259C20.763 12.4163 19.179 12.7307 19.1622 12.7331C19.0902 12.7403 18.5142 12.7307 18.2382 12.7331L18.135 12.4259H17.7246L17.3646 12.9899C17.5086 13.0811 25.6422 11.2739 29.6142 10.9835C31.0302 10.8827 34.3182 10.8779 36.5166 10.8779C38.4462 10.8803 40.899 10.8803 42.5646 11.1251C42.9726 11.1851 43.4622 11.2955 43.6662 11.2955C43.7766 11.3171 44.1726 11.6003 44.283 11.6531C44.391 11.7083 44.787 11.7035 44.7966 11.7059C44.8398 11.7179 46.4766 12.6107 47.3142 13.2971C47.343 13.3235 47.5758 13.6715 47.571 14.0675C46.5678 14.3291 45.1086 14.4779 42.9606 14.4827C42.1662 14.4851 41.9766 14.4083 41.8686 14.3243L41.8182 14.0171C42.0414 13.5707 44.4966 13.3523 44.6934 13.3499" stroke="#72A89A" stroke-width="2.4" stroke-linecap="round"/>
<path d="M9.16616 12.8408C9.15896 13.2656 9.41816 13.5968 9.45176 13.6352C9.90296 14.1176 11.451 14.6552 11.9478 14.6552C12.1278 14.6648 12.483 15.02 13.1406 14.996C13.7934 14.9696 19.851 15.9944 20.1222 16.0184C21.5406 16.148 23.2998 16.4288 25.1742 16.3592C25.3326 16.352 25.515 16.472 26.5374 16.4648C28.8894 16.5872 41.9286 16.5992 42.0342 16.5872C43.035 16.448 44.7006 15.8336 44.9286 15.7904C44.9886 15.7808 45.4446 15.4784 45.5526 15.452C45.663 15.4232 45.9774 15.4376 46.1766 15.3368" stroke="#E8FFF9" stroke-width="2.4" stroke-linecap="round"/>
<path d="M38.1172 16.247C39.034 16.2494 42.742 15.707 43.2796 15.6926C44.4724 15.6278 47.3212 15.5294 48.1636 15.2246C48.2188 15.2078 49.6444 15.2294 49.6972 15.2246C50.6692 15.1094 51.7228 14.7518 51.9676 14.771C52.0156 14.7734 52.0732 14.7734 52.138 14.771L53.4436 14.3174" stroke="#E8FFF9" stroke-width="2.4" stroke-linecap="round"/>
<path d="M41.1816 16.4722C41.376 16.441 42.288 16.0306 43.0536 15.8482C45.0912 15.373 46.9968 14.5954 47.4816 14.485C47.7936 14.4178 49.0128 14.2666 49.128 14.2018C49.2816 14.1154 50.76 13.7026 51 13.6354C51.5568 13.4842 53.1288 12.3418 53.4432 12.385" stroke="#E8FFF9" stroke-width="2.4" stroke-linecap="round"/>
<path d="M12.8518 79.0283C12.8638 79.5491 11.9494 83.9819 11.7694 84.6323C11.323 86.2619 11.3206 87.5819 11.2798 87.7739C11.2486 87.9179 11.0518 88.2683 11.0662 88.6235C11.0998 89.4395 11.0662 90.4643 11.2798 90.7235C11.3398 90.7931 11.4982 90.9947 11.4766 91.3139L12.0646 91.6091" stroke="#C5273A" stroke-width="2.4" stroke-linecap="round"/>
<path d="M58.6178 79.0332C58.6298 79.5948 58.4402 80.3988 58.4162 80.4972C58.2122 81.3828 58.217 82.1172 58.1138 82.5684C58.085 82.6908 56.957 86.0988 56.5466 86.814C56.4362 87.006 56.0978 88.098 55.385 88.8852C54.521 89.8428 53.849 90.4812 53.6162 90.7044L53.6666 90.7548" stroke="#EFB3BA" stroke-width="2.4" stroke-linecap="round"/>
<path d="M11.3066 11.6289V13.1289" stroke="#E8FFF9" stroke-width="2.88" stroke-linecap="round"/>
<path d="M51.7949 10.4023V10.8103" stroke="#E8FFF9" stroke-width="2.88" stroke-linecap="round"/>
<path d="M13.2383 12.0537C12.6719 12.0537 11.7431 12.0561 11.6711 12.0105C11.2247 11.6457 10.8839 11.4153 10.6703 11.3145C10.6343 11.2089 10.2695 11.0217 10.2359 10.9665C10.0943 10.7145 10.4831 9.47369 10.5407 9.26969C10.5743 9.14969 10.9967 8.45849 10.9751 8.26889L11.4095 7.35449" stroke="#72A89A" stroke-width="2.4" stroke-linecap="round"/>
<path d="M48.8184 11.7924L49.7328 11.4444C50.472 10.7052 51.0768 9.56764 51.0816 9.48844C51.084 9.39964 51.1608 8.22844 51.168 8.00764C51.1704 7.91644 51.0696 7.62604 51.0816 7.57324C51.2424 7.81084 51.492 8.12764 51.8208 9.14044C51.9936 9.68524 51.9408 10.3932 51.9072 10.4436L50.2104 10.8348" stroke="#72A89A" stroke-width="2.4" stroke-linecap="round"/>
<path d="M15.2713 11.1807H15.2305C16.7233 10.6647 20.2489 9.77672 20.3617 9.77432C21.3865 9.75512 22.4257 9.44312 22.4305 9.44312C22.4617 9.43832 24.1297 9.44312 24.9961 9.44072C25.9153 9.43832 27.2761 9.09513 28.4713 9.11193C30.4825 9.11193 33.8137 9.11193 35.1337 9.11193" stroke="#72A89A" stroke-width="2.4" stroke-linecap="round"/>
<path d="M23.6309 9.11184C24.8309 9.12144 27.5741 8.77824 29.0333 8.77344C31.2701 8.77584 36.1757 8.77104 36.2525 8.78064C36.9389 8.86224 38.2181 8.94624 38.4029 8.94624C38.6309 8.98704 39.7949 9.17424 40.8869 9.48384C41.1029 9.54384 44.2637 10.439 44.2781 10.4774L47.7965 10.8494" stroke="#72A89A" stroke-width="2.4" stroke-linecap="round"/>
<path d="M49.5339 11.0151C47.9427 11.0199 46.8603 10.8519 45.4779 10.4775C44.6187 10.2423 42.7731 9.9495 42.7059 9.9375C42.7011 9.9375 35.2107 9.9399 34.8867 9.9375" stroke="#72A89A" stroke-width="2.4" stroke-linecap="round"/>
<path d="M35.0498 9.3584C38.7818 9.3584 44.1794 9.3584 44.693 9.4832C47.417 10.2608 48.0146 10.4936 48.0866 10.5992H48.209" stroke="#72A89A" stroke-width="2.4" stroke-linecap="round"/>
<path d="M46.9677 10.187C44.7261 10.1822 43.2333 10.2326 42.0429 9.89656C41.8581 9.85576 41.0709 9.63976 40.7613 9.60856C37.7421 9.34936 35.8845 9.35896 35.6709 9.35896L42.6237 9.44296L38.7741 9.19336L43.1613 9.44296" stroke="#72A89A" stroke-width="2.4" stroke-linecap="round"/>
<path d="M30.0845 71.5192C29.9189 72.0232 29.3261 72.7864 29.0381 72.9448C28.8005 73.0744 28.2365 73.2496 27.6125 73.7056C27.4229 73.8424 26.6717 74.2912 26.5661 74.3704C26.2085 74.6416 25.9925 75.2392 25.9013 75.4168C25.7765 75.6592 25.1789 76.5928 25.0445 76.8424C24.9893 76.9432 24.7709 77.5288 24.6653 77.6992C24.6053 77.7952 24.2189 78.0232 24.1901 78.268C23.9429 80.3464 24.0173 81.3448 24.0941 82.072C24.9125 82.1488 28.1501 82.1728 28.1813 82.1656C28.7453 82.0624 30.1997 80.7304 30.6533 80.3608C30.7949 80.2432 31.8797 78.8128 31.9853 78.6496C32.1029 78.4672 32.7245 77.956 33.0317 77.6032C33.4325 77.128 33.9941 75.964 34.0757 75.796C34.4765 74.8624 37.3181 71.0224 37.7837 69.808C37.8701 69.5848 37.9685 68.4136 38.1653 68.0968C38.2853 67.9024 38.4581 67.7368 38.5445 67.5256C38.6189 67.348 38.6813 66.7888 38.8301 66.6712C38.8613 66.6448 38.9237 66.6136 39.0197 66.5752" stroke="#E8FFF9" stroke-width="1.68" stroke-linecap="round"/>
<path d="M27.9511 67.233C28.2439 67.2978 28.6327 67.425 29.9311 67.4298C37.2343 67.4226 37.4719 67.4322 37.9327 67.233C38.1151 67.1514 38.3935 66.6762 38.6935 66.5682C38.7463 66.3042 38.9383 65.877 38.9791 65.7114C39.0031 65.6154 39.0031 62.9274 38.9791 62.7642C38.9143 62.3514 38.6263 62.1498 38.0287 62.0034C37.5367 61.905 31.4695 61.9098 31.4695 61.9098C31.3039 61.8906 30.5143 61.5522 30.3271 61.5282C30.1399 61.5042 29.7079 61.5186 29.4727 61.3386C28.3111 60.4098 28.1359 59.9058 27.8575 59.2482C27.7423 58.9722 27.0799 57.993 27.0007 57.345C26.9839 57.2202 26.9911 56.8506 26.9047 56.7762C26.6455 56.541 26.0647 54.093 26.0503 54.0186C26.0407 53.9706 26.0455 50.7018 26.1463 50.6922C26.5735 50.6802 27.2047 50.8098 27.3703 50.8554" stroke="#E8FFF9" stroke-width="1.68" stroke-linecap="round"/>
<path d="M34.0688 42.5012C33.8 42.0908 33.5576 41.3732 33.0848 40.8044C32.9888 40.6916 32.5544 39.8996 32.42 39.758C32.3288 39.6596 31.5344 39.0092 31.4696 38.9036C31.2176 38.402 30.7448 37.946 30.6128 37.8572C30.5144 37.79 28.472 37.7516 28.3328 37.7612C28.0088 37.79 27.2528 38.5556 27.1904 38.714C27.0536 39.0716 26.9024 39.9668 26.8112 40.2332C26.6024 40.8476 26.6456 41.9804 26.6216 42.6116C26.6096 42.8732 26.7752 43.6988 26.8112 43.7516C27.2048 44.2844 27.1904 44.3276 27.7616 44.8916C27.86 44.9876 28.268 44.9804 28.4264 44.9876C28.7624 44.9996 29.0816 45.2852 29.1872 45.3668C29.2496 45.4124 29.96 45.2612 30.1376 45.1772C30.2888 45.1052 31.6784 44.1188 31.9472 43.7156C32.2136 43.31 32.8568 42.0524 32.8952 41.8508C32.9312 41.6612 33.2072 40.718 33.2744 40.4252C33.3056 40.2908 33.284 36.0188 33.2744 35.9564C33.2168 35.474 32.804 34.5404 32.7056 34.2452C32.5976 33.9356 31.9232 32.8724 31.8488 32.8196C31.5176 32.582 30.8216 32.1068 30.6128 32.0588C30.5312 32.0396 28.616 32.066 27.488 32.0636C27.0056 32.0612 25.5968 32.03 24.7184 32.2484C24.6248 32.2652 24.344 32.27 23.96 32.438" stroke="#E8FFF9" stroke-width="1.68" stroke-linecap="round"/>
<path d="M28.2627 51.8103C28.6059 51.9975 29.4099 52.7655 29.9235 53.0343C30.0315 53.0919 32.8659 54.7599 33.9483 54.9591C34.1211 54.9903 34.5843 54.9663 34.8243 55.0479C34.9467 55.2975 35.1795 55.3191 36.3987 55.3095C36.7803 55.3071 37.3587 55.2975 37.6227 55.2231C37.8843 54.6111 38.3451 53.4783 38.4099 53.0343C38.4195 52.9671 38.4003 51.0711 38.4243 50.4495C38.4315 50.2719 38.2107 49.5447 38.2347 49.4487C38.1699 49.3887 38.0691 49.2639 38.0595 49.1871C38.0091 48.6927 37.5339 47.6967 37.5339 47.4375C37.5339 47.2455 37.4163 47.0271 37.2723 46.9119C37.2315 46.8783 36.8211 45.6855 36.3099 44.9007C36.2907 44.8695 34.5675 42.5415 34.4739 42.4503C34.4259 42.4047 33.5667 41.8167 33.5115 41.7495V41.6631" stroke="#E8FFF9" stroke-width="1.68" stroke-linecap="round"/>
<path d="M27.2119 51.1123L28.2631 51.8107" stroke="#E8FFF9" stroke-width="1.68" stroke-linecap="round"/>
<path d="M39.9842 10.4922C38.9162 10.509 37.7042 10.7106 36.473 11.0322C36.2786 11.0874 35.9498 11.5674 35.9882 11.625C36.0266 11.6778 37.6274 11.9106 37.9322 11.8962C38.0522 11.8914 40.8098 11.9058 40.8482 11.8962C41.1722 11.7618 42.3242 11.4258 42.629 11.2482C42.6818 11.217 42.6866 11.1234 42.6842 10.653C42.5426 10.5978 37.901 10.5978 35.7914 10.6002C34.2602 10.605 33.6146 10.7298 33.125 10.869C33.1802 11.133 33.1826 11.2266 33.233 11.2482C34.1306 11.601 37.0058 11.577 38.6402 11.5722C40.5818 11.5746 43.1762 11.577 43.3322 11.517L43.277 11.085C42.1754 10.9194 37.985 10.9146 37.877 10.9242C37.2266 11.0418 34.9082 11.0322 34.9082 11.0322C34.385 11.097 34.0586 11.397 33.665 11.517V11.7882C35.417 11.7882 40.6514 11.7858 40.7402 11.7882C40.8194 11.7906 43.7018 11.5746 43.817 11.5722L43.8722 11.4642" stroke="#1E5C4C" stroke-width="1.68" stroke-linecap="round"/>
<path d="M31.3594 28.5737C31.3354 28.7561 31.765 29.1593 32.2594 29.3729C32.341 29.4089 32.6338 29.3585 32.8594 29.3729C33.1018 29.0033 32.8978 28.5329 32.5594 28.1729" stroke="#E8FFF9" stroke-width="2.4" stroke-linecap="round"/>
<path d="M23.0361 65.5938V66.3209L23.1489 66.5993" stroke="#E8FFF9" stroke-width="2.4" stroke-linecap="round"/>
<path d="M51.0605 34.2212V34.3868V34.1084" stroke="#E8FFF9" stroke-width="2.4" stroke-linecap="round"/>
<path d="M51.6196 81.3379L51.5068 82.7899" stroke="#E8FFF9" stroke-width="2.4" stroke-linecap="round"/>
<path d="M56.2562 58.499L55.9658 60.0302V60.1022" stroke="#E8FFF9" stroke-width="2.4" stroke-linecap="round"/>
<path d="M10.5293 54.4096L11.0429 55.3096V53.8984" stroke="#72A89A" stroke-width="2.4" stroke-linecap="round"/>
<path d="M11.7295 73.4326V73.6774" stroke="#72A89A" stroke-width="2.4" stroke-linecap="round"/>
<path d="M51.4329 52.0726C51.4257 52.5142 51.5409 60.1774 51.5385 62.0614C51.5313 62.7142 51.7737 63.3646 51.7569 63.5734C52.1145 63.0982 52.5417 61.4398 52.5753 61.0078C52.6089 60.5398 52.6185 56.0494 52.6209 54.247C52.6209 51.6622 52.4337 50.4646 52.0809 49.3174C52.1529 50.1742 53.0409 53.7334 53.3217 57.7078C53.3577 58.1422 53.6817 59.9494 53.6961 60.8542C53.6985 61.7278 53.7009 63.0622 53.7009 63.5206C53.7009 63.5374 53.6889 61.615 53.7009 61.4686C54.0345 57.4846 54.0249 55.5142 54.0249 55.3126" stroke="#EF586A" stroke-width="2.4" stroke-linecap="round"/>
<path d="M54.0244 55.3125L56.0764 65.3565" stroke="#EF586A" stroke-width="2.4" stroke-linecap="round" stroke-linejoin="round"/>
<path d="M56.0766 65.3564H56.1294C56.1894 65.2052 56.187 60.8156 56.1846 58.9604C56.1966 56.7284 55.9086 53.8724 55.7526 53.2604C55.635 52.7948 55.6422 49.4228 55.6446 48.9404" stroke="#EF586A" stroke-width="2.4" stroke-linecap="round"/>
<path d="M52.5129 79.0723C51.8649 80.4763 50.2545 83.6683 50.2305 84.6667C50.2305 84.7435 50.2353 84.8755 50.2449 85.0651C50.5689 84.3787 50.8689 83.1259 50.9457 82.4203C51.0009 81.9115 51.2313 79.4491 51.2169 79.3411C51.3609 79.3315 51.8289 80.5411 51.8649 81.2851C51.8745 81.5611 51.8625 84.6883 51.8649 84.7963C51.8745 85.3315 51.7401 85.7611 51.7569 85.8211L51.6489 84.3643" stroke="#EF586A" stroke-width="2.4" stroke-linecap="round"/>
<path d="M52.4043 82.6357L52.6731 82.6885L52.8363 84.7405L52.7283 84.6877" stroke="#EF586A" stroke-width="2.4" stroke-linecap="round"/>
<path d="M49.8438 82.0918V82.0078L50.0142 83.0398V82.4374" stroke="#E8FFF9" stroke-width="2.4" stroke-linecap="round"/>
<path d="M51.0072 33.6162H50.9184L50.832 35.1906" stroke="#E8FFF9" stroke-width="2.4" stroke-linecap="round"/>
<path d="M9.12012 7.19639L9.30252 7.15319L9.65292 6.97559" stroke="black" stroke-width="2.9256" stroke-linecap="round"/>
<path d="M9.98438 6.80345L10.3252 6.73145" stroke="black" stroke-width="2.9256" stroke-linecap="round"/>
<path d="M56.6706 10.1746L56.3994 9.82422" stroke="black" stroke-width="2.9256" stroke-linecap="round"/>
<path d="M7.39923 15.6592L2.69043 22.6888" stroke="black" stroke-width="2.9256" stroke-linecap="round" stroke-linejoin="round"/>
<path d="M4.46383 20.7207C4.46623 20.9823 3.75823 21.7887 3.64543 22.0551C3.33823 22.6167 2.70703 23.8959 2.69023 24.0927C2.69023 24.5439 2.41423 25.7679 2.28223 26.0607" stroke="black" stroke-width="2.9256" stroke-linecap="round"/>
<path d="M3.23508 22.4082C3.25668 22.9938 2.46949 23.8674 2.41909 24.7266C2.39749 25.089 2.43108 26.073 2.28228 26.5554C2.26788 26.5938 2.26788 26.6178 2.28228 26.625" stroke="black" stroke-width="2.9256" stroke-linecap="round"/>
<path d="M2.28223 26.625L2.66863 86.8218" stroke="black" stroke-width="2.9256" stroke-linecap="round" stroke-linejoin="round"/>
<path d="M2.55371 85.8086C2.62811 87.0974 4.36571 89.159 4.32731 89.2526L4.73531 89.6054" stroke="black" stroke-width="2.9256" stroke-linecap="round"/>
<path d="M4.59863 88.6191C5.09063 89.2839 6.08903 90.3927 6.64343 90.5895" stroke="black" stroke-width="2.9256" stroke-linecap="round"/>
<path d="M5.41699 89.6053C5.51779 89.5741 6.34099 90.4141 6.78019 90.5893C6.83299 90.6085 8.38099 91.6141 8.75779 91.9237C9.05539 92.1661 11.6474 93.0949 12.1658 93.1189C12.8114 93.1525 13.4186 93.5605 13.5962 93.6109C13.8842 93.6925 18.2138 94.8037 18.2306 94.8061C18.989 94.8925 19.817 95.1205 20.4818 95.0869C20.717 95.0749 21.5378 95.1613 21.7082 95.2285C21.845 95.2789 21.9074 95.4709 22.049 95.5093C22.229 95.5549 23.1842 95.4925 23.2082 95.5093C23.2634 95.5429 23.3546 95.6557 23.6162 95.6485C23.8658 95.6461 24.5546 95.6389 24.5714 95.6485C25.061 95.9533 25.3634 95.9173 26.2058 96.0709C26.273 96.0829 34.481 96.0709 35.6162 96.0709" stroke="black" stroke-width="2.9256" stroke-linecap="round"/>
<path d="M59.2726 83.3535L59.251 86.8215" stroke="black" stroke-width="2.9256" stroke-linecap="round" stroke-linejoin="round"/>
<path d="M59.3662 85.8086C59.2918 87.0974 57.5542 89.159 57.5926 89.2526L57.1846 89.6054" stroke="black" stroke-width="2.9256" stroke-linecap="round"/>
<path d="M57.3212 88.6191C56.8292 89.2839 55.8308 90.3927 55.2764 90.5895" stroke="black" stroke-width="2.9256" stroke-linecap="round"/>
<path d="M56.5029 89.6053C56.4021 89.5741 55.5789 90.4141 55.1397 90.5893C55.0869 90.6085 53.5389 91.6141 53.1621 91.9237C52.8645 92.1661 50.2725 93.0949 49.7541 93.1189C49.1085 93.1525 48.5013 93.5605 48.3237 93.6109C48.0357 93.6925 43.7061 94.8037 43.6893 94.8061C42.9309 94.8925 42.1029 95.1205 41.4381 95.0869C41.2029 95.0749 40.3821 95.1613 40.2117 95.2285C40.0749 95.2789 40.0125 95.4709 39.8709 95.5093C39.6909 95.5549 38.7357 95.4925 38.7117 95.5093C38.6565 95.5429 38.5653 95.6557 38.3037 95.6485C38.0541 95.6461 37.3653 95.6389 37.3485 95.6485C36.8589 95.9533 36.5565 95.9173 35.7141 96.0709C35.6469 96.0829 27.4389 96.0709 26.3037 96.0709" stroke="black" stroke-width="2.9256" stroke-linecap="round"/>
<path d="M57.1507 10.1754L56.2651 9.26344L56.1475 9.16504" stroke="black" stroke-width="2.9256" stroke-linecap="round"/>
<path d="M55.788 8.91068L55.584 8.77148" stroke="black" stroke-width="2.9256" stroke-linecap="round"/>
<path d="M55.1063 8.34908L54.6455 8.06348" stroke="black" stroke-width="2.9256" stroke-linecap="round"/>
<path d="M53.5773 7.45306L53.4717 7.36426" stroke="black" stroke-width="2.9256" stroke-linecap="round"/>
<path d="M57.2881 11.0195C57.2905 11.6027 57.2809 12.1019 57.2209 12.2147C56.9281 12.7643 55.1977 14.3243 54.9025 14.4635C54.6673 14.5739 54.5497 14.6699 54.2881 14.9555" stroke="black" stroke-width="2.9256" stroke-linecap="round"/>
<path d="M54.2881 14.9561L59.4697 22.6889" stroke="black" stroke-width="2.9256" stroke-linecap="round" stroke-linejoin="round"/>
<path d="M57.6963 20.7207C57.6939 20.9823 58.4019 21.7887 58.5147 22.0551C58.8219 22.6167 59.4531 23.8959 59.4699 24.0927C59.4699 24.5439 59.7459 25.7679 59.8779 26.0607" stroke="black" stroke-width="2.9256" stroke-linecap="round"/>
<path d="M58.9243 22.4082C58.9027 22.9938 59.6899 23.8674 59.7403 24.7266C59.7619 25.089 59.7283 26.073 59.8771 26.5554C59.8915 26.5938 59.8915 26.6178 59.8771 26.625" stroke="black" stroke-width="2.9256" stroke-linecap="round"/>
<path d="M59.8776 26.625L59.4912 86.8218" stroke="black" stroke-width="2.9256" stroke-linecap="round" stroke-linejoin="round"/>
<path d="M59.6064 85.8086C59.532 87.0974 57.7944 89.159 57.8328 89.2526L57.4248 89.6054" stroke="black" stroke-width="2.9256" stroke-linecap="round"/>
<path d="M57.5614 88.6191C57.0694 89.2839 56.071 90.3927 55.5166 90.5895" stroke="black" stroke-width="2.9256" stroke-linecap="round"/>
<path d="M56.7431 89.6053C56.6423 89.5741 55.8191 90.4141 55.3799 90.5893C55.3271 90.6085 53.7791 91.6141 53.4023 91.9237C53.1047 92.1661 50.5127 93.0949 49.9943 93.1189C49.3487 93.1525 48.7415 93.5605 48.5639 93.6109C48.2759 93.6925 43.9463 94.8037 43.9295 94.8061C43.1711 94.8925 42.3431 95.1205 41.6783 95.0869C41.4431 95.0749 40.6223 95.1613 40.4519 95.2285C40.3151 95.2789 40.2527 95.4709 40.1111 95.5093C39.9311 95.5549 38.9759 95.4925 38.9519 95.5093C38.8967 95.5429 38.8055 95.6557 38.5439 95.6485C38.2943 95.6461 37.6055 95.6389 37.5887 95.6485C37.0991 95.9533 36.7943 95.9173 35.9543 96.0709C35.8895 96.0829 28.3871 96.0709 28.0703 96.0709" stroke="black" stroke-width="2.9256" stroke-linecap="round"/>
<path d="M28.1113 96.0684L35.8561 96.0708" stroke="black" stroke-width="2.9256" stroke-linecap="round"/>
<path d="M10.6006 5.8648L10.7326 5.7832" stroke="black" stroke-width="2.9256" stroke-linecap="round"/>
<path d="M11.1436 5.57185C12.0532 5.36785 12.838 5.31265 13.1188 5.14945C13.2796 5.05825 13.4188 4.91905 13.5964 4.86865C13.8844 4.78705 18.214 3.67585 18.2308 3.67345C18.9892 3.58705 19.8172 3.35905 20.482 3.39265C20.7172 3.40465 21.538 3.31825 21.7084 3.25105C21.8452 3.20065 21.9076 3.00865 22.0492 2.97025C22.2292 2.92465 23.1844 2.98705 23.2084 2.97025C23.2636 2.93665 23.3548 2.82385 23.6164 2.83105C23.866 2.83345 24.5548 2.84065 24.5716 2.83105C25.0612 2.52625 25.3636 2.56225 26.206 2.40865C26.2732 2.39665 34.4812 2.40865 35.6164 2.40865" stroke="black" stroke-width="2.9256" stroke-linecap="round"/>
<path d="M55.4108 7.96263L55.2764 7.89062" stroke="black" stroke-width="2.9256" stroke-linecap="round"/>
<path d="M55.4113 7.96179C55.1137 7.89699 53.0905 6.49539 52.8913 6.41379C52.4041 6.21939 50.8129 5.55699 49.7545 5.36019L49.5625 5.35059" stroke="black" stroke-width="2.9256" stroke-linecap="round"/>
<path d="M49.0802 5.28141L48.8018 5.14941" stroke="black" stroke-width="2.9256" stroke-linecap="round"/>
<path d="M48.3237 4.86865C47.4813 4.76785 45.7245 4.11025 45.0525 3.95425C44.5413 3.81505 43.1901 3.57025 42.9381 3.53425C42.8709 3.52465 40.3821 3.31825 40.2117 3.25105C40.0749 3.20065 40.0125 3.00865 39.8709 2.97025C39.6909 2.92465 38.7357 2.98705 38.7117 2.97025C38.6565 2.93665 38.5653 2.82385 38.3037 2.83105C38.0541 2.83345 37.3653 2.84065 37.3485 2.83105C36.8589 2.52625 36.5565 2.56225 35.7141 2.40865C35.6469 2.39665 27.4389 2.40865 26.3037 2.40865" stroke="black" stroke-width="2.9256" stroke-linecap="round"/>
<path d="M55.3795 7.89047C55.2211 7.78727 53.7787 6.86567 53.4019 6.55607C53.1043 6.31367 50.5867 5.41367 49.9939 5.36087C49.9147 5.35367 49.7803 5.35367 49.5859 5.36087" stroke="black" stroke-width="2.9256" stroke-linecap="round"/>
<path d="M49.0415 5.14945C48.7463 4.92385 47.9663 4.80625 47.6783 4.72945C47.3111 4.62865 46.0919 4.20625 44.9519 3.88465C43.9631 3.70945 42.3431 3.35905 41.6783 3.39265C41.4431 3.40465 40.6223 3.31825 40.4519 3.25105C40.3151 3.20065 40.2527 3.00865 40.1111 2.97025C39.9311 2.92465 38.9759 2.98705 38.9519 2.97025C38.8967 2.93665 38.8055 2.82385 38.5439 2.83105C38.2943 2.83345 37.6055 2.84065 37.5887 2.83105C37.0991 2.52625 36.7943 2.56225 35.9543 2.40865C35.8895 2.39665 28.3871 2.40865 28.0703 2.40865" stroke="black" stroke-width="2.9256" stroke-linecap="round"/>
<path d="M28.1113 2.4106L35.8561 2.4082" stroke="black" stroke-width="2.9256" stroke-linecap="round"/>
<path d="M9.4248 6.88264L12.984 5.88184" stroke="black" stroke-width="2.88" stroke-linecap="round"/>
<path d="M12.2686 6.07078C12.9574 5.40358 13.819 5.23078 13.9222 5.19238" stroke="black" stroke-width="2.88" stroke-linecap="round"/>
<path d="M14.5059 4.95249C14.9163 4.61409 15.6603 4.49409 15.9267 4.44369C16.1331 4.40529 16.3899 4.19409 16.5363 4.03809" stroke="black" stroke-width="2.88" stroke-linecap="round"/>
<path d="M20.916 18.5322L21.612 18.5466" stroke="black" stroke-width="2.88" stroke-linecap="round"/>
<path d="M53.1211 14.9917L53.4955 14.7109" stroke="black" stroke-width="2.88" stroke-linecap="round"/>
<path d="M54.2949 14.2675L54.4293 14.1523" stroke="black" stroke-width="2.88" stroke-linecap="round"/>
<path d="M55.4492 12.6592L55.5524 12.5608L55.8332 12.376" stroke="black" stroke-width="2.88" stroke-linecap="round"/>
<path d="M55.9414 9.98535C56.1766 10.2806 56.1358 11.3318 56.1382 12.275C56.1406 12.5102 56.1406 12.7478 56.143 12.983" stroke="black" stroke-width="2.88" stroke-linecap="round"/>
<path d="M10.7305 16.8711L10.8865 16.9119L13.9297 17.8767" stroke="black" stroke-width="2.88" stroke-linecap="round"/>
<path d="M19.9268 18.6807L22.5716 18.8847" stroke="black" stroke-width="2.88" stroke-linecap="round"/>
<path d="M5.24902 10.1746L5.52022 9.82422" stroke="black" stroke-width="2.9256" stroke-linecap="round"/>
<path d="M4.76855 10.1754L5.65416 9.26344L5.77176 9.16504" stroke="black" stroke-width="2.9256" stroke-linecap="round"/>
<path d="M6.13184 8.91068L6.33583 8.77148" stroke="black" stroke-width="2.9256" stroke-linecap="round"/>
<path d="M6.81348 8.34908L7.27428 8.06348" stroke="black" stroke-width="2.9256" stroke-linecap="round"/>
<path d="M8.3418 7.45306L8.4474 7.36426" stroke="black" stroke-width="2.9256" stroke-linecap="round"/>
<path d="M4.63216 11.0195C4.62976 11.6027 4.63936 12.1019 4.69936 12.2147C4.76176 12.3299 5.28737 12.8747 5.41697 13.0139" stroke="black" stroke-width="2.9256" stroke-linecap="round"/>
<path d="M7.29377 15.457L6.15137 17.1658" stroke="black" stroke-width="2.9256" stroke-linecap="round" stroke-linejoin="round"/>
<path d="M6.50879 7.96263L6.64319 7.89062" stroke="black" stroke-width="2.9256" stroke-linecap="round"/>
<path d="M6.50879 7.96179C6.80639 7.89699 8.82959 6.49539 9.02879 6.41379C9.51599 6.21939 11.1072 5.55699 12.1656 5.36019L12.3576 5.35059" stroke="black" stroke-width="2.9256" stroke-linecap="round"/>
<path d="M12.8398 5.28141L13.1182 5.14941" stroke="black" stroke-width="2.9256" stroke-linecap="round"/>
<path d="M13.5957 4.86884C14.4381 4.76804 16.1949 4.11044 16.8669 3.95444C17.7285 3.71924 19.7757 3.36884 20.2461 3.38324" stroke="black" stroke-width="2.9256" stroke-linecap="round"/>
<path d="M6.54004 7.89047C6.69844 7.78727 8.14084 6.86567 8.51764 6.55607C8.81524 6.31367 11.3328 5.41367 11.9256 5.36087C12.0048 5.35367 12.1392 5.35367 12.3336 5.36087" stroke="black" stroke-width="2.9256" stroke-linecap="round"/>
<path d="M12.8779 5.14961C13.1731 4.92401 13.9531 4.80641 14.2411 4.72961C14.6083 4.62881 15.8275 4.20641 16.9675 3.88481C17.9563 3.70961 19.5259 3.36881 20.2411 3.39281" stroke="black" stroke-width="2.9256" stroke-linecap="round"/>
<path d="M6.17954 12.376H6.08594" stroke="black" stroke-width="2.88" stroke-linecap="round"/>
<path d="M5.9785 9.98535C5.7433 10.2782 5.7841 11.3534 5.7817 12.1958C5.7793 12.407 5.7793 12.6182 5.7793 12.827" stroke="black" stroke-width="2.88" stroke-linecap="round"/>
<path d="M6.55469 13.7295L6.75149 13.8759" stroke="black" stroke-width="2.88" stroke-linecap="round"/>
<path d="M9.09588 16.0742H9.14388L9.63348 16.4654L10.1231 16.5638L8.31348 16.0742" stroke="black" stroke-width="2.88" stroke-linecap="round"/>
<path d="M13.5938 18.2246C14.4961 18.2294 17.2729 18.7046 17.6497 18.7142C19.1161 18.7454 19.7905 18.9542 19.8481 19.103" stroke="black" stroke-width="2.88" stroke-linecap="round"/>
<path d="M15.9385 18.5176L21.8017 18.8104" stroke="black" stroke-width="2.88" stroke-linecap="round"/>
<path d="M5.20312 13.4893L5.64953 13.5517L5.96873 14.0629C5.86313 14.3677 6.78713 15.3397 6.73433 15.4021" stroke="black" stroke-width="2.88" stroke-linecap="round"/>
<path d="M8.00875 14.8914C7.59115 14.5698 7.13995 14.4186 7.05355 14.3826C6.71035 14.2362 6.12475 13.3722 5.96875 13.2354" stroke="black" stroke-width="2.88" stroke-linecap="round"/>
<path d="M22.5498 18.9736C22.7538 18.976 24.0162 19.108 24.525 19.1008C25.4826 19.1008 26.8962 19.0936 27.2034 19.228C27.2346 19.2424 28.4802 19.3432 28.5426 19.3552C28.6962 19.3888 29.1162 19.5016 29.4354 19.4848" stroke="black" stroke-width="2.88" stroke-linecap="round"/>
<path d="M28.543 19.2278L28.6078 19.1006H41.1718" stroke="black" stroke-width="2.88" stroke-linecap="round"/>
<path d="M41.0449 18.973C42.1273 18.9082 44.8873 18.805 45.3169 18.5914C45.4537 18.5218 45.7513 18.313 46.0825 18.3346C46.6825 18.3754 47.2153 18.1882 47.6761 18.2074" stroke="black" stroke-width="2.88" stroke-linecap="round"/>
<path d="M44.1045 18.0803C44.4165 18.0947 46.0173 17.8571 46.7829 17.7611C47.0565 17.7131 52.7709 16.1723 53.1597 15.9131" stroke="black" stroke-width="2.88" stroke-linecap="round"/>
<path d="M52.5243 16.0402C52.3947 15.8194 53.3835 15.2482 53.9259 14.8906" stroke="black" stroke-width="2.88" stroke-linecap="round"/>
<path d="M53.0322 16.0406L53.097 15.8486C53.2314 15.7934 54.0426 14.8454 54.0522 14.8286C54.1842 14.5958 55.0074 13.9382 55.0098 13.9358C55.1202 13.8302 55.7442 12.6926 55.9674 12.2774C56.0226 12.1694 56.2146 11.3678 56.2218 11.3198C56.2338 11.2214 56.2194 9.75978 56.2218 9.53418" stroke="black" stroke-width="2.88" stroke-linecap="round"/>
</svg>
