<svg width="74" height="84" viewBox="0 0 74 84" fill="none" xmlns="http://www.w3.org/2000/svg">
<path d="M12.8809 70.8926C13.1617 70.9262 13.8241 71.3294 14.0953 71.4446C14.3401 71.5478 16.7233 71.5718 16.8577 71.6654L16.6369 73.4342" stroke="#E8FFF9" stroke-width="12" stroke-linecap="round"/>
<path d="M15.0312 72.9297L14.9016 73.7601L13.8192 75.0993C13.62 75.1401 13.1591 74.8449 12.9887 74.9073C12.8375 74.9649 12.6672 75.4785 12.6072 75.5457C12.4488 75.7377 12.2159 76.1985 11.9688 76.3737" stroke="#E8FFF9" stroke-width="7.2" stroke-linecap="round"/>
<path d="M11.9688 76.4385C12.1007 76.5105 34.1376 76.5033 42.024 76.5009C42.252 76.5009 42.6576 76.5009 42.8352 76.5033" stroke="#E8FFF9" stroke-width="7.2" stroke-linecap="round"/>
<path d="M31.6104 75.9922H60.6936" stroke="#E8FFF9" stroke-width="7.2" stroke-linecap="round"/>
<path d="M62.6069 69.4883C62.5253 69.8939 61.9373 71.0795 61.5869 71.4011C60.5021 72.3707 58.7429 73.2899 57.5045 73.6955C57.3221 73.7555 55.8653 74.4515 54.8909 74.3339C54.7181 74.3123 54.6893 74.0507 54.6989 73.5683" stroke="#E8FFF9" stroke-width="7.2" stroke-linecap="round"/>
<path d="M62.4789 75.993L63.3069 76.3746L63.5613 76.6314C63.7725 76.7058 63.8782 76.8306 63.8806 77.0778C63.8926 77.6922 63.9717 77.8194 64.0725 77.9058C64.1565 77.781 63.4269 77.145 63.1797 76.8858C62.9637 76.6578 62.4213 75.9666 62.2869 75.8658C62.1597 75.801 61.4781 75.1722 61.3293 75.0354L63.6909 76.9506C63.9885 76.5594 64.0509 76.1778 64.1997 75.7386C64.5117 74.4954 65.2149 73.4346 65.4117 73.2498C65.3637 73.0314 65.8102 71.9442 65.7934 71.721C65.7622 71.1498 65.9517 70.7682 65.9229 70.5714C65.8629 70.161 66.1317 69.7146 66.1773 69.6786C66.1533 69.141 66.6981 67.2786 66.6885 67.1922C66.6741 67.101 67.1445 65.109 67.1973 63.813C67.1997 63.7674 67.9221 62.1618 67.9629 62.0274C67.9749 61.9818 67.9605 57.5154 67.9629 56.1594C67.9941 56.4906 66.9861 57.6402 66.5589 57.8802C66.4917 57.9186 64.7037 59.9754 64.5837 60.1122C64.1445 60.609 59.8077 63.8874 59.4813 64.2594C59.4117 64.3386 58.8333 64.6986 58.6509 64.7682C58.4829 64.8378 55.4877 67.065 55.1445 67.2546C54.1797 67.737 52.7061 68.6298 52.0821 68.7234C51.4269 68.829 50.5989 69.2394 49.8501 69.4242C49.5645 69.5202 48.5517 69.7242 48.4485 69.7434C48.3381 69.7602 47.9662 70.0386 47.875 70.0626C47.6518 70.1202 45.9141 70.2258 45.8325 70.2522C45.6165 70.329 45.4197 70.4658 45.1941 70.509C44.5005 70.6386 31.6822 70.6458 31.6102 70.6362C30.9742 70.509 27.679 70.0506 27.0838 69.9354C24.9046 69.4962 21.7125 69.2058 21.4077 69.105C20.8917 68.9322 17.9614 68.2338 17.899 68.2122C17.791 68.1762 16.6366 67.725 16.4326 67.701C16.3198 67.689 12.5421 67.701 12.4149 67.701C12.3573 67.773 12.1077 68.4114 12.0957 68.6586C12.0813 68.9514 11.7813 69.2226 11.6493 69.3594C11.1741 69.3954 10.4157 68.8746 10.3749 68.8506C10.2477 68.6898 9.16535 67.9674 9.03575 67.7658C9.05255 67.6986 8.70455 66.5394 8.65175 66.2346C8.62055 66.0474 8.44055 63.909 8.39735 63.1098C8.39255 63.009 8.16695 62.673 8.14295 62.5362C8.14295 61.3602 7.91015 60.345 7.88615 60.177C7.85255 59.9346 7.42295 58.7802 7.25015 58.3266C7.19495 58.1826 7.12295 57.4986 7.12295 57.1146C7.06535 56.8722 6.78935 56.0298 6.73895 55.8402C6.61415 55.3602 6.58055 54.9762 6.61175 54.3738C6.63095 54.0258 6.39335 53.757 6.35735 53.6082C6.29735 53.3826 6.22055 50.6658 6.16535 50.6106C6.12215 50.661 5.84855 52.3914 5.84375 54.6018C5.84375 56.4714 5.84615 61.941 5.84615 61.9626C5.88695 63.3162 6.59975 65.1978 6.67655 65.3418C6.69815 65.3874 7.85015 66.9402 8.14295 67.1274C8.74775 67.5138 9.42455 68.0802 9.99575 68.3466C10.5885 68.6226 11.6158 69.3258 12.1798 69.5346C12.9382 69.813 17.3398 72.033 17.4526 72.1026C17.875 72.3642 19.2573 73.389 19.6221 73.761C19.6293 72.8226 19.5981 72.4626 19.1757 71.337C19.1253 71.2026 18.7102 69.573 18.5374 69.2322C16.7662 65.7378 15.2901 61.1034 14.0085 58.1994C13.3605 57.1194 12.6549 54.9954 11.7141 54.0546C11.2677 53.481 10.0317 51.6618 9.92855 51.5682L9.41735 50.4834" stroke="#E8FFF9" stroke-width="7.2" stroke-linecap="round"/>
<path d="M8.90909 57.3705C8.56109 56.7009 8.51069 55.5561 8.39789 55.3929C8.15549 55.0305 8.12909 53.2545 8.06189 52.6545C7.98989 52.0161 7.75709 51.1089 7.56989 49.5249C7.54109 49.2897 7.33709 47.6217 7.12349 47.1009C6.99149 46.7817 6.99629 43.6857 6.99389 42.4473C6.67949 45.8337 6.20189 47.7945 5.84669 48.6321C5.72669 48.9297 5.72189 50.4297 5.84669 50.6745C6.31949 51.5577 7.18109 53.6337 7.44029 54.8817C7.52429 55.2825 8.75549 59.5401 9.03629 60.2073C9.65789 61.7073 11.3499 66.1257 11.4579 66.3609C11.7075 66.8961 13.0995 68.9745 14.1387 70.1241C14.3787 70.3905 16.4355 71.3673 16.5603 71.4009" stroke="#E8FFF9" stroke-width="7.2" stroke-linecap="round"/>
<path d="M7.75903 51.8849C7.77823 51.3689 7.02463 49.5161 6.99343 49.2713C6.87823 48.3329 6.35983 47.4641 6.35743 46.7201C6.35743 46.3409 6.23023 44.5889 6.22783 44.1065C6.22303 43.2041 6.22063 40.9361 6.23023 40.8521C6.31903 40.0625 6.50143 39.5777 6.48463 38.9393C6.47263 38.4665 6.52063 38.3585 6.61183 37.9841C6.74143 37.4441 6.73663 37.3289 6.73903 36.0017C6.73903 35.1713 6.73183 33.5489 6.73903 33.5177C6.76783 33.4073 6.99583 32.7449 7.37743 31.5425C7.49263 31.1729 7.53823 31.1225 7.63183 31.0313C7.56463 30.7793 8.75503 27.3641 8.77903 27.2057C9.14863 24.8897 10.615 21.9497 11.395 20.7641C11.6854 20.3249 11.911 19.9241 12.607 19.2329C13.1158 18.7241 14.8726 17.0777 15.7318 16.6193C16.675 16.1249 19.6894 13.9457 21.0886 12.9185C21.7366 12.4241 24.9166 11.0201 25.4254 10.7513C25.6798 10.6193 27.4462 10.0049 27.7222 9.92334C28.0894 9.81054 29.1262 9.68334 29.6974 9.41214C29.8582 9.33774 31.2286 9.15774 31.9942 9.03054C32.0782 9.02094 32.6662 8.83374 32.887 8.77374C32.9662 8.75214 34.1614 8.77614 34.4182 8.77374" stroke="#E8FFF9" stroke-width="7.2" stroke-linecap="round"/>
<path d="M7.50488 27.2055C7.73288 26.8719 7.75928 26.6175 8.01608 25.6743C8.12648 25.2615 8.36168 22.9911 8.39768 22.8039C8.41208 22.7319 8.74088 22.3959 8.77928 22.2951C8.79608 22.2543 8.76968 22.0167 8.84408 21.9111C9.28088 21.2919 9.54008 20.5383 9.60968 20.3799C9.71048 20.1543 10.0561 19.2639 10.2481 18.8511C10.3225 18.6687 10.2841 18.2871 10.3105 18.2127C10.3681 18.0519 10.5673 17.5671 10.8841 16.5543C11.5825 14.1831 11.9545 13.0767 12.0337 12.9183C12.0865 12.8127 12.4153 12.5055 12.4801 12.2823C12.5521 12.0375 12.8449 11.1927 12.9265 10.9431C13.0897 10.6143 13.2409 9.56073 13.2433 7.67913C13.2433 7.47033 13.2433 7.26153 13.2457 7.05273" stroke="#E8FFF9" stroke-width="7.2" stroke-linecap="round"/>
<path d="M14.0088 6.28711C14.316 6.39991 15.2928 6.89671 16.0512 7.05271C16.2984 7.10071 17.7648 7.57351 18.5352 7.70071C19.908 7.91911 22.4424 8.23111 23.6016 8.32471C24.1248 8.40391 34.1856 8.39671 37.2864 8.39191C35.5392 8.38951 31.8744 8.37271 30.9744 8.51911C30.3048 8.62951 27.4656 8.83591 25.9224 9.17191C25.0464 9.36391 23.3016 9.57271 23.0664 9.60391C21.7752 9.77911 20.9592 10.0215 20.5296 10.0575C19.008 10.1823 17.5368 10.1799 15.924 10.3047C15.5856 10.3311 14.268 10.5759 14.0088 10.5591" stroke="#E8FFF9" stroke-width="7.2" stroke-linecap="round"/>
<path d="M23.8321 10.5591C31.5001 10.5591 44.7217 10.5615 50.2753 10.5615C51.2185 10.5639 52.1401 10.5255 52.4665 10.3047C52.8361 10.0455 53.0569 9.86554 53.4217 9.53914C53.6977 9.28714 53.6713 8.59594 53.6785 8.45434C53.5561 8.13754 50.4241 7.89034 49.0849 7.77034C46.8769 7.61674 27.5473 7.62394 27.4033 7.62634C26.7337 7.63834 25.6873 7.35514 24.9145 7.37194C24.1825 7.38874 20.0185 7.25674 18.4729 7.11514C18.3433 7.10314 18.1297 7.10314 17.8369 7.11514C17.8729 6.91834 18.7177 6.84394 19.2289 6.73594C19.8481 6.60634 29.4649 6.61114 34.1257 6.61114C38.1433 6.60874 46.1089 6.60154 47.2561 6.77434C47.9257 6.87514 50.2081 7.10554 52.7401 7.11754C53.2273 7.11994 54.2497 7.10554 54.3793 7.11514C54.5305 7.12954 55.8457 7.43434 56.3569 7.49914C56.5225 7.51594 62.3665 7.49674 62.7985 7.43434L63.3721 6.73354" stroke="#E8FFF9" stroke-width="7.2" stroke-linecap="round"/>
<path d="M63.3725 6.7334H63.5621C63.6341 6.803 63.6173 10.5014 63.6269 10.559C63.6461 10.6886 63.8693 10.8158 63.8813 10.8782C63.8909 10.9238 63.8885 20.4278 63.8189 20.5094C63.4061 20.5358 62.6333 20.0558 61.7765 19.3598C58.7669 16.907 52.8557 12.7502 52.3397 12.4094C52.2821 12.3734 51.1469 11.9486 51.0629 11.963L50.4893 11.0702" stroke="#E8FFF9" stroke-width="7.2" stroke-linecap="round"/>
<path d="M53.04 10.3047C53.9928 10.3167 55.2 10.2735 55.5264 10.3695C56.2752 10.5951 57.888 11.6343 58.1424 12.0903C59.0016 13.5255 60.3072 15.7839 61.0752 17.5743C61.584 18.8439 61.9824 21.1431 61.968 21.2727" stroke="#E8FFF9" stroke-width="7.2" stroke-linecap="round"/>
<path d="M60.5664 19.617C60.588 19.5714 60.936 20.4882 60.948 20.5098C61.008 20.6202 61.7616 21.585 61.9056 21.849C62.4624 22.881 63.6864 25.8546 64.2648 28.353C64.2696 28.3722 66.0864 33.9882 66.2496 34.8138C66.36 35.385 66.5592 37.1226 66.6888 37.9194C66.7032 38.0634 66.6912 42.5202 66.6888 43.2762C66.6936 41.4378 66.6936 36.417 66.6528 35.553C66.6216 34.9818 66.288 33.5658 66.0816 32.721C65.9952 32.3058 65.844 30.3138 65.7312 29.5002C65.6808 29.1498 64.9872 25.149 65.0304 24.081C65.0304 21.645 64.8528 20.9562 64.6464 18.7242C64.6248 18.4794 64.3536 17.9514 64.2648 17.7666C64.2432 18.6186 65.3112 22.5354 65.3472 22.677C65.9256 24.7842 67.1784 33.1026 67.2 33.5778C67.2048 33.6954 67.1952 36.1098 67.1928 37.041C67.1952 38.5698 67.2072 39.0954 67.0704 39.705C66.8544 40.6194 66.7632 41.4714 66.6888 41.5554" stroke="#E8FFF9" stroke-width="7.2" stroke-linecap="round"/>
<path d="M67.0704 29.8838C67.4208 30.2582 67.4616 31.3046 67.7088 31.9886C67.8096 32.2694 68.1024 34.8206 68.1096 37.4846C68.0928 39.3662 68.0616 42.167 68.0904 42.2558C68.2176 42.5438 68.3832 42.9398 68.3664 43.2278C68.3376 43.7774 68.3544 45.4526 68.2824 45.5726C68.2272 45.659 68.1984 46.139 68.2176 46.655C68.2416 47.2142 68.0328 47.5838 67.9632 47.7398C67.9464 47.7758 67.968 54.2054 67.9632 54.3086C67.9584 54.3998 67.6776 57.0158 67.3896 57.8798C67.0032 59.0126 66.4632 62.0918 65.8632 63.3278C65.5368 63.9974 64.9464 65.5358 64.8384 65.7254C64.7616 65.855 63.42 67.6166 63.18 67.8926C62.7984 68.3702 62.1912 69.1094 61.8408 69.1694C61.8432 68.8382 61.8864 67.931 62.148 66.8894C62.364 66.0374 63.2784 62.9414 63.468 61.8182C64.0128 58.6046 64.5384 56.7374 64.9008 55.8398" stroke="#E8FFF9" stroke-width="7.2" stroke-linecap="round"/>
<path d="M66.3053 46.6553C66.2981 47.8985 66.3293 49.0265 66.1781 49.8449C65.9357 51.1265 65.1389 53.5337 64.1381 55.7753C63.9701 56.1473 63.1109 58.1849 62.9189 58.5689C62.4749 59.4473 60.4277 62.0465 60.0821 62.7953C59.8253 63.3569 58.1885 65.4113 57.1229 66.3617C55.3253 67.9649 54.0269 69.0281 53.9981 69.0425C53.0573 69.4625 51.4157 69.9305 50.1341 70.5977C49.6205 70.8617 46.2845 71.4641 44.0477 71.5289C41.8277 71.5289 39.7661 72.0737 38.5805 72.0185C38.0957 72.0137 36.0173 72.2873 35.8853 72.2945C35.7701 72.2993 31.1909 72.3041 31.0373 72.2945C29.5613 72.1865 28.2893 71.7593 26.7653 71.0177C25.3997 70.3601 22.2077 69.0209 22.1093 68.9777C21.6605 68.7785 19.8197 67.0457 18.2189 65.9801C16.5989 64.8233 15.1853 64.0361 12.9893 62.2817C12.4157 61.8665 11.4989 61.1681 11.1413 60.6233C11.0261 60.4457 10.4405 59.8289 10.3109 59.5385C10.1381 59.1473 8.40766 55.7537 8.52526 55.4585" stroke="#E8FFF9" stroke-width="7.2" stroke-linecap="round"/>
<path d="M42.2575 28.0065C40.4119 28.0089 35.2879 27.9921 35.1871 28.0065C34.7527 28.0761 34.1023 28.3065 33.8719 28.4913C33.2167 29.0649 31.3447 30.4137 31.2367 30.5025C30.7087 30.9681 29.2807 32.1729 29.0191 32.4417C28.9207 32.5473 27.8407 34.1049 27.4639 34.6785C27.0391 35.3385 26.6503 36.4617 26.4271 37.1553C26.3263 37.4313 24.3127 41.6865 23.9887 42.5145C23.6983 43.1961 23.3599 44.0001 22.9711 45.5769C22.8031 46.1865 22.5703 47.0769 22.5607 47.9457C22.5607 48.8865 22.5607 50.9481 22.7815 51.4329C22.8823 51.6417 23.4223 52.2129 23.6143 52.4025C23.8471 52.6113 26.1463 53.1465 28.4023 53.3217C29.3743 53.3937 31.6279 53.3481 32.1391 53.3721C32.8495 53.4081 34.1767 53.6337 34.8415 53.6505C35.7319 53.6577 37.7263 53.6649 38.2591 53.5617C38.4943 53.5137 40.6759 52.7889 41.0263 52.5921C41.5951 52.2753 43.0855 50.9361 43.5559 50.6169C44.2855 50.1681 45.2959 49.5225 46.3975 48.5385C48.8119 46.3929 50.0047 45.2289 50.7823 43.8777C51.0559 43.3929 51.4495 42.2169 51.6223 41.4369C51.7807 40.6881 51.8455 39.2673 51.8215 38.6097C51.7927 37.9569 51.5071 36.8001 51.2671 36.1857C51.0199 35.5641 48.9775 32.3769 48.5647 32.0265C48.4543 31.9353 46.3279 30.6273 45.5143 30.4329C44.3791 30.1713 41.9911 30.0897 39.2503 30.0801C38.2015 30.0825 37.7119 30.1689 36.6487 30.5217C34.7863 31.1577 31.8199 32.7657 30.9727 33.4449C30.3439 33.9585 29.3215 35.5329 28.7455 36.8697C27.3535 40.1001 26.1583 44.4081 26.1775 44.9865C26.3311 45.0513 31.1119 42.4209 31.4359 42.2745C31.9759 42.0297 35.8807 40.4121 37.4839 39.7065C39.9055 38.6097 40.9423 38.2017 43.5871 37.4865C46.6111 36.6369 47.7703 36.2817 48.2167 36.1161C47.0983 36.0657 46.1143 36.1713 45.2383 36.4617C44.5543 36.6921 40.1335 37.7505 38.4775 38.3577C37.7503 38.6265 33.6919 40.5057 32.3119 41.0889C31.0255 41.6529 28.1431 43.8633 27.5983 44.2065C27.2623 44.4177 27.1639 44.6073 27.1495 44.9865C27.1495 45.0321 27.1495 45.0801 27.1495 45.1257C27.3295 45.3369 32.1463 45.3225 33.0199 45.2841C33.9631 45.2385 38.0839 44.5497 39.6247 44.5185C43.0519 44.5113 46.6903 44.5017 46.9015 44.5017C46.7311 44.5281 42.2503 45.8769 41.8351 45.9369C40.1407 46.1985 36.5023 46.7889 34.5607 47.1177C31.3303 47.6697 28.7695 47.8833 28.0855 48.0009C26.1775 48.3393 24.1927 49.0737 24.2383 49.1457C24.2239 49.4193 24.4639 49.6425 25.2775 50.2545C26.1223 50.8689 29.0623 52.4457 30.5455 53.4393C30.8671 53.6553 33.4039 55.0185 33.5239 55.2441C33.5983 55.3953 33.4639 55.8465 33.3175 56.0073C32.7175 56.6217 32.2063 56.8377 31.0639 57.1713C29.3047 57.6825 26.9311 58.1265 25.6231 58.2945C24.0703 58.4985 22.0807 59.2089 21.9511 59.2641C21.7879 59.4201 21.9103 60.0249 22.1575 60.3033C22.2823 60.4353 23.2279 60.9969 23.6527 61.2321C24.7231 61.8153 25.4863 62.0073 25.6927 62.1057C26.2375 62.3577 27.3751 62.5209 27.5647 62.6601C28.1959 63.1401 29.5159 63.7257 29.6431 63.7689C29.6935 63.7833 38.5255 63.7665 40.3375 63.7665C40.8631 63.7665 44.4031 63.5697 45.7855 63.5097C46.4503 63.5361 46.9759 63.2601 47.1775 63.2145C47.4031 63.1617 47.9527 63.2025 48.2863 63.0057C48.4279 62.9241 49.3519 62.6457 49.8127 62.5209C50.1607 62.4225 51.7975 61.1769 52.0999 60.9273C53.7631 59.2641 54.7615 58.1265 55.4263 57.3921C55.9975 56.7393 56.4367 55.6929 56.4655 55.6593C56.6239 55.4673 57.1351 54.0369 57.1591 53.9961C57.4447 53.5017 57.9631 52.8945 58.8919 51.2241C59.0191 50.9649 59.2207 50.0001 59.3767 49.7001C59.4367 49.5801 59.5183 48.4209 59.7223 48.1737C59.7823 48.1017 60.0127 46.7241 60.0007 46.0257C60.0007 44.5713 60.2479 43.5537 60.2575 43.1673C60.2671 42.7833 60.5479 41.6865 60.5551 41.5905C60.5575 41.5545 60.5551 38.8977 60.5551 37.7577C60.5527 36.1857 60.5671 35.4177 60.4159 34.7985C60.3991 34.7313 60.0007 33.1041 59.9311 32.9265C59.6863 32.3145 59.3263 31.2417 59.3071 31.0569C59.2303 30.3105 58.7695 29.6841 58.6831 29.5305C58.6087 29.4033 57.5263 28.0377 57.5047 28.0065C57.0463 27.2433 54.8695 24.7737 54.7327 24.6105C54.6175 24.4737 52.7743 22.2945 52.4455 22.1169C50.4007 21.0393 49.7407 20.3817 49.1887 20.1057C49.1239 20.0721 47.8375 19.5513 47.8015 19.5513C47.3479 19.5633 47.1439 19.3521 47.0407 19.2753C46.9519 19.2081 46.1311 19.1841 45.9991 19.1361C45.8431 19.0785 45.5239 18.8361 45.0991 18.8577C44.8159 18.8721 41.9551 18.3177 41.9119 18.3033C41.5903 18.2001 39.3127 17.8881 38.4463 17.7489C37.5751 17.6049 32.8663 18.0705 32.6239 18.0969C32.4151 18.1185 30.9343 18.2121 30.1279 18.4425C29.9887 18.4833 28.7983 18.8505 28.7431 18.8577C28.2919 18.9273 27.0607 19.2393 26.9407 19.2753C26.4895 19.4073 25.2415 20.2977 24.7567 20.6025C23.5303 21.3777 22.8535 21.8529 22.2271 22.3929C21.2647 23.1849 20.5783 23.9577 19.9399 24.9561C19.4191 25.7841 18.0607 27.6225 17.4463 28.3521C18.0703 28.6377 25.9807 26.4177 26.3143 26.2929C27.6103 25.8225 28.5799 25.7001 29.0887 25.5201C29.8183 25.2633 33.6607 24.6465 34.6423 24.6585C36.9535 24.7137 38.6359 24.8025 39.0007 24.8889C39.2023 24.9345 39.4759 25.1385 39.5551 25.1649C39.6391 25.1961 40.4047 25.3185 40.5247 25.3737C40.6015 25.4073 41.0983 25.7625 41.2183 25.7889C41.7871 25.8705 45.6127 26.6073 45.8623 26.7585C46.0951 26.9097 48.3007 27.7737 48.8407 28.4217C48.9655 28.5729 49.9543 29.1585 50.3671 29.5305C50.5351 29.6865 51.8935 31.0569 52.0303 31.2633C52.7983 32.4441 53.4967 34.1505 54.0391 34.9377C54.3031 35.3265 54.7183 36.5121 54.7327 36.6009C54.7327 37.0497 55.3519 38.7321 55.3567 38.7489C55.3879 38.8713 55.4215 39.8145 55.4959 39.9969C55.6015 40.2657 55.9807 40.9425 55.9807 41.4513C55.9807 42.9729 55.9903 43.8969 55.8415 44.3625C55.0327 46.7889 51.8983 51.0297 51.6127 51.4329C51.5359 51.5553 50.7391 53.1321 50.3671 53.5809C49.3495 54.7929 47.4751 56.1945 46.2079 56.7681C45.7015 56.9937 43.1431 57.6345 42.8815 57.6705C40.2535 57.8889 37.3495 58.4673 36.5047 58.5009C35.4247 58.5489 34.2223 58.9089 33.8719 58.9857C33.8911 59.0697 35.1439 59.0673 36.0799 58.9833C37.2343 58.8753 38.1103 58.6521 39.2719 58.2801C42.5239 57.2793 50.2351 54.9969 51.1975 54.5505C51.9391 54.1977 52.7023 53.3073 53.1391 52.5417C54.1543 50.7393 55.9255 46.8465 55.9807 46.7193C56.1271 46.3689 56.1247 44.7009 55.9807 44.4321C55.5223 43.6377 53.1223 40.9881 51.9607 40.2057C49.9711 38.8713 48.2719 37.4985 47.7319 37.1553C47.4655 36.9873 46.1815 36.2841 45.6535 36.1161C43.9879 35.5929 43.0903 35.4921 40.4551 35.4921C40.0015 35.4945 37.3735 36.0465 35.8807 35.8377C35.2687 35.7465 33.8311 35.0865 33.6631 35.0073C33.4135 34.8849 32.4103 34.3737 32.2087 34.1049C32.1223 33.9873 32.1967 32.9769 32.2087 32.9265C32.2759 32.6937 33.4399 31.6929 33.8719 31.4721C34.0999 31.3569 35.8975 30.6201 36.4399 30.3105C39.0631 28.7121 41.7943 27.0681 44.5447 25.7889C45.9055 25.1553 49.1287 23.2665 49.1887 23.2257C49.3663 23.0985 49.9567 22.8033 50.0191 22.5321C50.0527 22.3761 49.8247 21.8241 49.7431 21.7689C48.5383 20.9769 45.2143 18.1953 43.9903 17.8185C43.6543 17.7225 42.9223 17.4561 42.6727 17.4729C42.4375 17.4873 41.1175 17.1873 40.6639 17.1945C40.4887 17.1993 39.2479 17.1969 38.7919 17.1945" stroke="#FFC762" stroke-width="7.2" stroke-linecap="round"/>
<path d="M60.4154 45.6113C60.413 46.2977 60.4106 48.0065 60.4106 49.0289C60.413 50.4161 60.4394 50.9873 60.137 51.5033C59.9546 51.8009 58.4162 53.1065 58.1978 53.3033C57.6842 53.7713 56.9498 54.8561 56.741 55.2449C56.357 55.9697 55.6298 56.5553 55.5626 56.5625C53.6162 56.7113 51.2666 56.6993 49.8818 56.6993" stroke="#FFC762" stroke-width="7.2" stroke-linecap="round"/>
<path d="M23.2681 22.3234L23.1985 21.8386C22.9753 21.733 22.6897 21.6226 21.6025 21.6298C21.3241 21.637 20.7289 21.6538 20.6329 21.6994C20.5009 21.7666 19.7665 22.4266 19.4545 22.7386C19.2673 22.8994 18.6937 23.9578 18.3457 24.4018C18.1681 24.6658 17.9977 25.2442 17.9305 25.3738C17.8441 25.537 17.1385 26.5954 17.0977 26.689C17.0305 27.037 16.1857 29.437 15.9217 29.8786C15.6889 30.2602 15.2473 30.9922 15.1585 31.1266C14.9521 31.441 14.3593 33.3922 14.3953 33.8986C14.4313 34.3522 14.0953 35.0842 14.1193 35.701C14.1313 35.9794 13.9777 37.1746 13.9633 38.5306C13.9585 39.5074 13.9561 41.5882 13.9561 42.6922C13.9585 43.1458 13.9633 45.1138 14.1889 45.889C14.4409 46.7506 15.1177 49.213 15.1585 49.3522C15.2545 49.6906 15.5713 50.221 15.6433 50.3938C15.7129 50.5546 15.8713 51.445 15.9217 51.5698C16.0009 51.7762 17.7601 54.7306 17.7913 54.7594C18.1753 55.093 19.5073 57.5386 19.5937 57.6706C19.7041 57.8362 19.9681 58.4074 20.4265 58.7794C20.8129 58.7434 21.0457 58.657 21.1873 58.4314C21.7033 57.6034 22.6225 53.1322 22.6993 52.825C22.7689 52.5178 23.3857 47.2666 23.4049 46.6498C23.4169 46.3162 23.4121 40.2226 23.3641 39.3154C23.3305 38.7226 22.7953 36.2602 22.7809 36.1858C22.7449 35.9794 22.5289 34.513 22.2265 34.0354C22.1089 33.8578 21.1921 33.5674 20.3569 33.5506C20.0713 33.829 18.5905 37.7314 17.8249 40.8826C17.6161 41.7778 17.1601 44.6194 17.1577 45.6634C17.1625 46.6474 17.1673 48.181 17.1673 48.7306C17.3449 48.7666 17.5825 48.4234 18.0697 47.2738C18.3937 46.4602 19.2385 44.317 19.3177 44.0866C19.4209 43.7674 20.0593 39.6106 20.0737 38.1274C20.0785 36.2626 20.0881 31.6018 19.9393 31.057C19.8433 30.7114 19.6873 30.325 19.5937 30.1546C19.6297 30.1186 21.7849 29.5498 24.1441 29.2858C26.1577 29.0794 28.8601 29.1082 29.0881 29.185C29.1073 29.4826 28.9441 30.253 28.9489 31.1938C28.9513 31.3882 28.9417 34.2658 28.9489 34.5226C28.9777 35.2618 29.2705 36.5962 29.3665 36.9466C29.5153 37.4674 29.9809 38.1274 30.7513 39.0274C30.9121 39.205 31.3129 39.2914 31.5841 39.2338C32.0569 39.1162 33.5233 36.817 34.6321 34.7986C35.1313 33.9154 36.1465 31.225 36.8521 29.6002C37.1425 28.921 37.4977 27.6778 37.5193 26.905C37.5433 25.9978 37.5481 24.0274 37.5433 23.917C37.5337 23.7082 37.1569 22.5586 36.7825 22.117C36.6625 21.9754 35.8009 21.1258 35.3953 20.4514C35.3233 20.3314 35.3305 20.2786 35.3953 20.0362C36.5737 19.717 39.5017 19.3594 41.3377 19.3714C42.6529 19.3954 43.0729 19.4818 43.6441 19.897C44.3545 20.4442 44.8441 21.121 45.2185 21.8938C45.3193 22.105 46.7857 27.0322 47.6089 28.4578C48.2089 29.4994 48.2353 29.6122 48.2161 29.809" stroke="#FFC762" stroke-width="7.2" stroke-linecap="round"/>
<path d="M50.0186 33.5508C50.0594 33.6348 51.989 37.0164 53.2178 39.4428C53.6354 40.2732 53.9978 41.3196 54.0938 41.8476C54.1946 42.4548 54.2066 47.5356 54.065 48.042C54.0554 48.0732 53.5298 49.674 53.345 50.394C53.0522 51.2244 52.4474 51.6108 52.3754 51.57" stroke="#FFC762" stroke-width="7.2" stroke-linecap="round"/>
<path d="M51.9598 46.8594C52.2478 47.397 52.363 47.709 52.3726 48.0354C52.3798 48.3642 52.3462 49.0914 52.3054 49.2858C52.2598 49.485 51.9598 49.7418 51.751 49.8402C51.2086 50.0562 46.9534 50.0562 45.583 50.0466" stroke="#FFC762" stroke-width="7.2" stroke-linecap="round"/>
<path d="M11.2082 41.7306C11.1914 42.5922 11.3642 43.4922 11.5538 44.157C11.621 44.3898 12.0314 44.9778 12.1082 45.1266C12.1346 45.1746 13.1354 47.9346 13.4954 48.5226C13.925 49.2258 14.6738 51.0282 14.6738 51.4338C14.6738 51.5346 17.117 55.0194 17.1674 55.065C18.4922 56.2482 19.8938 57.4194 20.0786 57.5322C20.2754 57.6522 20.7962 58.2234 21.1178 58.4322C21.209 58.4922 21.8954 58.8066 21.9506 58.8498C21.9554 58.8522 22.7234 59.5242 22.9202 59.6802C23.837 60.4002 25.3106 60.7554 26.0402 60.9282C28.5962 61.7322 31.2194 61.977 32.2082 61.9674C38.9042 61.9602 41.3786 62.025 43.9538 61.3674C43.9898 61.3578 45.6722 61.2306 46.4162 60.9282C47.4194 60.513 49.7306 59.6226 49.8818 59.541C50.1002 59.4234 51.4874 58.6674 51.6818 58.641C51.9794 58.6026 53.6066 58.0026 54.3866 57.3234C54.4106 57.3018 55.1018 56.541 55.4258 56.2146C55.6058 56.037 56.2634 55.6746 56.6042 55.3146C56.8346 55.0674 57.4562 54.5994 57.5738 54.2754C57.5978 54.2106 59.7746 51.8514 59.861 51.5034C59.9834 50.9994 60.0122 50.0802 60.485 48.8682C60.5186 48.7794 60.7058 48.5154 60.761 48.453C60.8282 48.381 60.7994 47.8962 60.8306 47.7594C60.8426 47.7066 61.2818 47.1714 61.385 46.929C61.4042 46.8858 62.213 44.8578 62.2178 44.7114C62.2346 44.1474 62.6474 43.5474 62.633 42.9786C62.6114 42.3738 63.0866 41.2698 63.1874 40.5522C63.1946 40.5066 63.2066 40.3482 63.3266 40.0674" stroke="#C28517" stroke-width="2.88" stroke-linecap="round"/>
<path d="M10.6543 34.1055C10.6567 34.9863 10.7863 37.7655 10.9303 38.4039C10.9495 38.4831 10.8871 39.1407 10.9303 39.3039C10.9831 39.5031 11.2303 39.9303 11.2087 40.4823C11.1367 42.3807 11.3863 43.0335 11.3479 43.5327C11.3311 43.7175 11.5615 43.9023 11.6239 44.0175C11.6695 44.0967 12.1783 46.1751 12.1783 46.6503C12.2623 47.1039 12.5863 48.2055 12.5935 48.2439C12.6055 48.3087 12.6175 49.6215 12.8023 50.4615C13.1863 52.1511 13.4047 53.3583 13.5439 53.7543C13.6735 54.1383 13.8919 54.7791 13.9807 55.0359" stroke="#C28517" stroke-width="2.88" stroke-linecap="round"/>
<path d="M13.1475 51.9873C13.5459 52.0353 13.7571 52.0881 13.8411 52.1937C16.1595 55.1025 16.8531 56.2761 17.6523 56.9769C17.7315 57.0441 18.8235 57.7737 18.9699 57.8769C19.0371 57.9273 20.2539 59.1441 21.0483 59.6793C21.2739 59.8281 22.2771 60.4185 22.3659 60.4425C22.5003 60.4785 22.6491 60.4041 22.7811 60.4425C22.9419 60.4857 23.9883 61.0545 24.3075 61.2729C24.4155 61.3473 24.6243 61.4865 24.9315 61.6905" stroke="#C28517" stroke-width="2.88" stroke-linecap="round"/>
<path d="M17.585 57.3926C18.3866 58.0214 19.6586 59.687 19.8026 59.819C20.2754 60.2534 21.6794 61.0958 21.9506 61.2038C22.2746 61.3334 26.6858 62.5766 27.5594 62.7854C29.009 63.1214 29.5946 63.347 29.7122 63.3542C30.2186 63.3734 31.5506 63.4886 31.9298 63.491C31.4522 63.5102 30.173 63.0398 29.5418 62.939C28.025 62.6942 24.9578 62.3414 23.9594 62.1758C23.8442 62.1566 22.0154 61.9286 21.1178 61.7582C20.3906 61.619 19.361 61.187 19.0394 60.8582C19.1258 60.9326 20.225 62.3054 20.357 62.4518C21.0602 63.2246 22.0778 63.8174 22.5746 64.0454C23.2442 64.3478 24.4202 64.6934 25.6226 64.739C25.7474 64.7438 27.6914 65.0438 28.4426 65.039C29.477 65.015 33.7202 65.0174 35.825 65.0198C37.9058 65.0198 42.2162 65.0198 42.7418 64.8782C42.9386 64.8254 45.4538 64.3046 45.5138 64.3238C41.5298 64.3262 34.733 64.3238 34.4258 64.2542C34.3706 64.2422 34.1834 64.0862 34.0778 64.0454C37.313 64.0502 45.029 63.9878 46.8578 63.851C49.7042 63.6302 52.865 62.8502 53.345 62.591C53.4482 62.5334 53.849 62.5166 54.5234 62.5214H51.545" stroke="#C28517" stroke-width="2.88" stroke-linecap="round"/>
<path d="M46.4165 62.6608L46.2773 62.5912C47.1101 61.9336 48.5069 61.3192 48.7709 61.204C49.3445 60.9592 50.6525 60.7072 51.8213 60.3736C53.3453 59.8528 56.8085 58.78 57.1589 58.432C57.4973 58.0912 57.8333 57.136 57.9893 56.908C58.0709 56.7904 58.4861 56.4304 58.5437 56.3536C58.5629 56.3296 58.9949 55.1056 59.2373 54.5512C59.2877 54.3712 59.3597 53.7496 59.5157 53.512C59.7869 53.1736 60.3197 52.324 60.3461 52.264C60.4085 52.1296 60.3845 51.7288 60.4157 51.64C60.4373 51.5824 61.0949 50.6248 61.1789 50.5312C61.2461 50.452 61.2461 49.8472 61.2461 49.84C61.3013 49.6384 62.0405 47.776 62.0789 47.344C62.1101 46.9888 62.4989 46.1248 62.5637 46.0264C62.6021 46.5976 61.8677 48.1792 61.7309 48.484C61.3109 49.42 60.0437 51.5224 59.3069 52.8184C58.7429 53.6248 57.1589 56.1448 57.0197 56.3536C56.9933 56.3872 56.7197 56.6488 56.6741 56.7688C56.6021 56.9536 56.3669 57.4912 56.1197 57.6712C55.9709 57.7768 54.6245 58.3168 54.5237 58.3624C54.4109 58.4152 53.2901 59.0056 52.9301 59.1256C52.5269 59.3272 52.2821 60.004 52.2365 60.0952C52.1717 60.2344 52.0133 60.6904 51.9605 60.7888C52.4765 60.9832 52.6301 61.0024 52.7909 60.8584C52.8677 60.7912 53.8445 60.2704 54.3173 60.304" stroke="#C28517" stroke-width="2.88" stroke-linecap="round"/>
<path d="M62.7718 41.4515C62.7718 39.8699 62.7742 35.1923 62.7718 35.1443C62.7502 34.9091 63.0094 34.5659 63.0478 34.3835C63.2038 33.6371 62.8918 32.8211 62.911 32.5811" stroke="#C28517" stroke-width="2.88" stroke-linecap="round"/>
<path d="M13.9375 5.8767C14.5639 5.8263 25.0999 5.8287 29.2351 5.8311C30.6055 5.8287 32.4175 6.0999 34.5583 6.1047C42.3343 6.1071 51.3103 6.0807 51.4063 6.1071C51.6055 6.1599 51.7591 6.3375 51.9607 6.3831C51.9655 6.3855 58.6159 6.3735 59.0599 6.4527C59.5591 6.5439 60.6655 6.6327 60.8311 6.6615C61.2679 6.7383 61.4407 6.9495 62.0095 6.9375C62.1079 6.9351 64.4767 6.9375 65.2663 6.9375" stroke="#EF586A" stroke-width="2.88" stroke-linecap="round"/>
<path d="M14.165 4.44372C21.7322 4.44372 36.4706 4.44372 43.6394 4.44372C51.3338 4.44372 63.0698 4.43412 63.1178 4.44372C63.2714 4.47252 63.4706 4.70292 63.533 4.71972C63.6218 4.74612 64.5938 4.92612 64.9202 5.06772C65.0354 5.11812 65.2346 5.13972 65.2658 5.13492" stroke="#EF586A" stroke-width="2.88" stroke-linecap="round"/>
<path d="M9.40625 76.384C23.2999 76.36 24.5214 76.54 39.171 76.528C40.947 76.5256 45.1734 76.5256 45.2382 76.5208C45.483 76.504 45.7711 76.7512 45.9319 76.7992C46.0183 76.8256 59.0046 76.792 59.0982 76.7992C59.547 76.8328 59.895 76.9432 60.831 76.9384C62.727 76.9384 64.9447 76.9384 65.2663 76.9384" stroke="#EF586A" stroke-width="2.88" stroke-linecap="round"/>
<path d="M10.0996 78.6013C10.174 78.7093 11.3716 78.7741 11.554 78.8077C11.566 78.8101 12.8332 79.1269 13.0804 79.1557C14.3572 79.2949 33.3316 79.2973 41.794 79.2949C50.3332 79.2925 62.2924 79.2925 62.9116 79.3093C63.4468 79.3189 63.67 79.2541 63.742 79.0861C63.7684 79.0165 63.8812 78.7621 64.0204 78.7405C64.5652 78.6445 65.2204 78.2773 65.4748 78.3229C66.0532 78.4453 66.2044 78.5605 66.514 78.9469C66.6196 79.0813 66.6676 79.2877 66.6532 79.4317C66.5836 79.5517 66.3844 79.5781 65.5444 79.5709C63.3844 79.5469 60.2668 79.3861 59.1052 79.1389C57.8524 78.8725 55.2964 78.9061 54.1084 78.6709C52.8556 78.4213 49.1404 78.0205 48.1492 78.0469C47.0836 78.0757 44.6548 77.8933 41.6932 77.9149C41.0812 77.9221 37.4572 77.4901 36.2356 77.4853C32.3068 77.4829 24.5884 77.4853 20.8012 77.4901C19.1668 77.4925 16.1308 77.4853 15.5044 77.6293C15.0532 77.7373 14.5876 77.7853 14.326 77.7685C14.3932 77.9965 14.554 78.1069 14.9764 78.1405C15.7324 78.1957 25.3876 78.1885 28.258 78.1837" stroke="#EF586A" stroke-width="2.88" stroke-linecap="round"/>
<path d="M8.74073 73.4678H8.66633C8.64233 73.715 8.81513 73.811 8.88953 73.8374C9.66233 74.1182 10.4447 74.2094 11.7791 74.2094C12.1679 74.195 12.4103 74.3366 12.5183 74.3558C12.5951 74.3702 21.8831 74.3534 23.9111 74.3462C25.0439 74.3438 26.6207 74.5454 29.6303 74.5046C30.7031 74.579 32.9375 74.7998 33.8447 74.7998C41.7527 74.7998 61.7975 74.8046 61.8527 74.7998C62.3495 74.7734 62.8247 75.0422 63.0383 75.0974C63.1511 75.1262 65.4983 75.1094 65.5559 75.0974C65.8679 75.023 66.8783 74.4614 67.4087 73.9118" stroke="#72A89A" stroke-width="2.88" stroke-linecap="round"/>
<path d="M9.75879 76.6429H9.82359L9.95559 76.3789H10.1524" stroke="#EF586A" stroke-width="2.88" stroke-linecap="round"/>
<path d="M10.1523 76.3788C17.2779 76.3788 31.8195 76.3788 39.2403 76.3788C46.5891 76.3788 64.5483 76.3788 64.5483 76.3788C64.6107 76.3812 64.9875 76.2276 65.0091 76.2468" stroke="#EF586A" stroke-width="2.88" stroke-linecap="round"/>
<path d="M21.2305 32.997C21.2905 32.9514 24.3073 31.9098 26.3713 31.4154C29.0857 30.7122 33.5233 30.0978 34.4161 30.0954C36.6481 29.9466 50.8609 29.961 53.5369 29.9634" stroke="#C28517" stroke-width="2.88" stroke-linecap="round"/>
<path d="M20.835 42.8872C21.0222 43.2472 23.6646 42.6688 27.6918 42.1456C28.2102 42.0808 48.423 42.0928 54.3294 42.0952" stroke="#C28517" stroke-width="2.88" stroke-linecap="round"/>
<path d="M44.5703 22.3145C44.5631 22.4225 45.7512 26.2169 46.008 26.8841C46.3176 27.6857 47.7 32.3465 47.7336 32.7329C47.7984 33.4889 48.2951 35.4545 48.3287 35.5673C48.3935 35.8001 48.3912 36.8153 48.3936 36.8201C48.4368 36.9929 48.5999 37.1153 48.6575 37.2833C48.7127 37.4489 48.9383 40.3649 48.9215 42.4241C48.9143 42.7193 49.0608 43.3985 49.0536 44.4689C49.0176 47.4233 49.2047 48.1601 49.1855 48.2921" stroke="#C28517" stroke-width="2.88" stroke-linecap="round"/>
<path d="M26.7676 23.6338C27.0148 23.6458 27.1036 23.7034 27.4276 24.0946C27.9172 24.6946 28.09 25.2346 28.5484 26.2714C28.6228 26.4418 29.3836 30.3274 29.4292 31.1962C29.4988 32.4298 30.2404 36.793 30.262 36.8866C30.334 37.1938 30.73 38.1082 30.79 38.3362C30.8788 38.6722 31.042 41.629 30.9892 43.8082C30.9772 44.389 31.2652 44.9482 31.2508 45.9178C31.2484 46.057 31.2508 48.7258 31.2508 49.6114" stroke="#C28517" stroke-width="2.88" stroke-linecap="round"/>
<path d="M23.3547 37.957C23.3259 38.1442 23.0307 38.749 22.8459 38.9026C22.7379 38.989 22.4379 39.3034 22.3347 39.3394C22.2843 39.3586 21.9603 39.4306 21.8979 39.4858C21.5523 39.793 21.0627 40.969 20.9499 41.089C20.8443 41.2042 20.4723 41.509 20.4411 41.7442C20.4339 41.7994 20.4315 42.3034 20.4411 42.3994C20.4675 42.649 20.2107 42.8602 20.1483 42.9826C20.1267 43.0282 20.1435 44.2066 20.2947 44.7322C20.4291 45.157 20.7507 45.5746 20.8059 45.6778C20.9187 45.7066 22.1283 47.1322 23.7915 47.5714" stroke="#FFC762" stroke-width="2.88" stroke-linecap="round"/>
<path d="M64.995 4.30469H64.9038C64.803 4.46069 64.7982 7.58309 64.815 7.65029C64.8462 7.78229 65.0214 8.06309 64.995 8.10389" stroke="#FF8F9C" stroke-width="2.88" stroke-linecap="round"/>
<path d="M56.0478 60.0205C55.9878 60.6373 55.6686 61.2181 55.2246 61.6621C54.7422 62.2669 53.7582 62.8957 53.4054 63.2461C53.2518 63.3613 51.2646 64.3693 51.1182 64.4797" stroke="#C28517" stroke-width="2.88" stroke-linecap="round"/>
<path d="M15.2909 5.67008C14.7869 5.66048 13.5437 6.09248 12.6941 6.06608C12.2525 6.04928 10.8701 6.22928 10.8869 6.23408" stroke="#EF586A" stroke-width="2.88" stroke-linecap="round"/>
<path d="M15.2331 4.31641L10.7163 4.48441L10.6611 4.54201" stroke="#EF586A" stroke-width="2.88" stroke-linecap="round"/>
<path d="M11.6758 4.0625L12.4102 6.4337L11.6758 4.4297" stroke="#FF8F9C" stroke-width="2.88" stroke-linecap="round"/>
<path d="M14.2637 3.53906L14.3333 5.91986" stroke="#EF586A" stroke-width="2.88" stroke-linecap="round"/>
<path d="M13.3584 3.34933C17.1096 3.35173 27.672 3.34693 27.6792 3.34933C28.2816 3.54133 29.8968 3.54133 30.3168 3.54373C34.8096 3.53893 42.2592 3.53173 42.3576 3.52693C42.8232 3.51733 43.9392 3.88452 44.6688 3.88452C44.9688 3.91572 46.0152 4.06213 47.1648 4.05973C54.9696 4.05973 63.5976 4.06213 64.416 4.06213" stroke="#FF8F9C" stroke-width="2.88" stroke-linecap="round"/>
<path d="M2.95703 62.5791C3.39623 62.8623 4.32263 64.3815 4.67783 64.8231C6.28103 66.7935 9.51143 69.1311 9.84983 69.3951C10.3898 69.8199 11.237 70.1151 11.3042 70.0839C11.4146 70.1895 12.2234 70.8135 12.4538 70.9263C12.8042 71.0991 13.4546 71.1279 13.5242 71.1567C14.3162 71.4807 14.501 71.4543 14.597 71.4639" stroke="#72A89A" stroke-width="2.88" stroke-linecap="round"/>
<path d="M11.0742 70.084C11.4438 70.2376 12.5574 70.7848 13.263 70.9384C14.2254 71.1472 17.2494 72.0664 17.4318 72.076C17.8758 72.0928 18.7326 72.2296 19.2702 72.3832C19.4238 72.4072 21.0846 72.508 21.183 72.5344C21.471 72.6136 22.179 72.832 22.2558 72.8416C23.3574 73.0264 25.6086 72.9664 25.7022 72.9952C25.839 73.036 26.4342 73.4344 26.5446 73.4536C26.5446 73.4536 29.5038 73.4464 30.8334 73.6072C32.103 73.7608 32.151 73.7608 33.279 73.7584C41.091 73.7608 54.1854 73.7608 54.7302 73.7872C54.9678 73.7992 56.5014 73.4536 56.7942 73.3768C57.7374 73.1416 58.0686 72.8488 58.1718 72.8416C58.3494 72.8296 58.9422 72.8344 59.091 72.7648C59.2278 72.7048 59.6958 72.4072 59.8566 72.3832C59.9838 72.3616 60.3606 72.3784 60.4686 72.3064C60.711 72.1408 62.9646 70.9624 63.0726 70.8496C63.171 70.7464 64.2126 70.2088 64.3758 70.2376" stroke="#72A89A" stroke-width="2.88" stroke-linecap="round"/>
<path d="M70.8072 58.29C70.8192 58.6332 70.8528 59.5764 70.8072 59.7468C70.7496 59.9676 70.3656 60.6612 70.3488 60.9708C70.3152 61.5372 69.996 61.9452 69.8112 62.0436C69.792 62.0772 69.2304 63.9132 68.7408 64.494C68.6016 64.6332 68.172 65.2692 68.1264 65.3364C68.0688 65.4276 67.548 66.3948 67.3608 66.6372C67.2696 66.7572 66.4608 67.842 66.06 68.1708C65.928 68.2764 65.5992 68.5908 65.3712 68.706C64.74 69.1572 63.1656 69.9636 63.072 69.9324C62.94 70.0764 61.2312 70.8396 61.0824 70.8492C60.6984 70.8492 60.2664 70.854 60.24 70.926C60.2352 70.9356 59.7216 71.1876 59.244 71.31C59.088 71.3484 58.4592 71.5092 58.0176 71.4636C57.8832 71.4492 57.48 71.742 57.4056 71.7684C57.2856 71.814 55.4376 72.0516 55.2624 72.0756C53.9976 72.2412 53.3256 72.21 52.8384 72.3828C52.4088 72.5364 48.8088 72.5316 46.9752 72.5316C39.4104 72.5316 29.8608 72.534 27.8736 72.5316C26.6448 72.534 25.9368 72.4044 25.7784 72.3828C25.5744 72.354 19.14 71.6292 19.0392 71.6172C18.3504 71.4636 17.1288 71.1876 16.9704 71.1564C16.9056 71.1444 12.8448 71.1636 11.8608 71.1708C11.3592 71.178 10.824 71.0316 10.6152 71.0028C10.5144 70.9908 9.91196 70.77 9.69596 70.698C9.60956 70.6668 8.42636 70.674 8.31836 70.5444" stroke="#72A89A" stroke-width="2.88" stroke-linecap="round"/>
<path d="M6.17294 68.0938C6.16574 68.4033 6.60014 68.7058 6.70814 68.8594C7.27934 69.6442 8.04494 70.2729 8.24174 70.5441C8.41694 70.7841 10.8121 71.5545 10.9969 71.6169C11.2273 71.6865 13.2193 71.7513 13.2961 71.7681C13.5145 71.8209 13.6945 72.0201 13.7545 72.0753H13.2193" stroke="#72A89A" stroke-width="2.88" stroke-linecap="round"/>
<path d="M10.7686 71.6172C11.2462 71.9676 12.7582 72.114 13.5238 72.1524C14.7934 72.4044 17.9158 72.39 18.7318 72.3828" stroke="#72A89A" stroke-width="2.88" stroke-linecap="round"/>
<path d="M61.618 72.8418H61.5412C61.4404 72.9738 61.6204 73.0122 62.3836 72.9954C62.6956 72.9882 63.6244 72.9882 63.838 72.9954C64.2892 73.0074 64.846 72.6618 64.9108 72.6114C65.5588 72.1218 66.5116 70.593 67.0564 69.3954C67.2436 68.985 68.0812 68.001 68.1268 67.8642C68.242 67.5258 68.6524 66.9282 68.6644 66.8682C68.6908 66.7434 68.6668 66.4386 68.7412 66.4098C68.77 66.3978 68.8204 66.3738 68.8924 66.333C68.1556 67.533 67.1452 68.8914 67.0564 69.0906C66.8668 69.6522 66.0988 70.7394 65.7532 71.2338C65.3476 71.805 64.5148 72.429 63.9916 72.6114C63.9844 72.2634 64.522 71.6634 64.606 71.541C64.7212 71.3802 65.3764 71.5986 65.9836 71.9994C66.5692 72.3738 66.6988 72.4122 67.0564 72.3834L67.1332 72.2298" stroke="#72A89A" stroke-width="2.88" stroke-linecap="round"/>
<path d="M25.1592 8.42969C23.3328 8.43209 19.2816 8.42009 19.0848 8.54489C18.7728 8.75129 18.4344 8.79689 18.12 8.99849C17.5752 9.34889 15.5328 9.94649 14.5992 10.4169C11.652 11.8953 9.97202 12.6537 9.88802 12.6873L9.71763 12.8577C9.69603 12.6945 9.59522 12.0369 9.66242 11.8929C9.94562 11.4969 10.476 10.6809 10.512 10.5873C10.6584 10.2273 10.7928 10.0185 11.4216 9.73529C12.1632 9.41129 13.4376 9.16169 13.692 8.99849C13.9008 8.86649 15.252 8.88809 15.2808 8.88569C15.3576 8.87129 15.5064 8.74889 15.792 8.65769L11.9328 8.77049H22.548" stroke="#72A89A" stroke-width="1.92" stroke-linecap="round"/>
<path d="M11.4219 7.86328C11.5179 7.98088 16.0083 7.98328 18.0651 7.97848C20.2155 7.97608 20.3187 8.00248 21.8667 8.20408C21.8691 8.20408 24.7491 8.20408 25.0443 8.20408" stroke="#72A89A" stroke-width="1.92" stroke-linecap="round"/>
<path d="M9.49219 10.7002C9.72499 10.6546 10.8818 10.5322 11.4218 10.3594C12.4826 9.98258 14.9954 9.58418 16.757 9.45218C17.141 9.41858 17.7914 9.24338 17.8922 9.22418C17.9114 9.22178 21.5666 9.09938 22.0922 8.99858C22.337 8.95058 23.1722 8.65538 24.305 8.65538C25.2314 8.65538 27.233 8.66738 27.3146 8.65778C28.0202 8.56418 28.5338 8.30258 28.565 8.31698" stroke="#72A89A" stroke-width="1.92" stroke-linecap="round"/>
<path d="M12.5566 13.0859C12.8038 13.1171 16.075 12.1979 17.0398 11.7803C17.2606 11.6843 18.2998 11.3675 18.403 11.3267C18.4942 11.2883 19.4182 10.9235 20.107 10.7579C21.0622 10.5275 22.0678 10.4243 22.4902 10.1339C22.6534 10.0211 24.4774 9.91069 24.5902 9.90589C24.7702 9.89869 25.7158 9.52429 25.783 9.45229C25.9006 9.44509 28.2526 8.94109 28.6198 8.88589C29.0374 8.84029 29.515 8.75389 30.3814 8.77069" stroke="#E8FFF9" stroke-width="1.92" stroke-linecap="round"/>
<path d="M67.1642 14.447C67.1858 14.4398 64.361 12.6446 63.701 12.0638C63.1034 11.5406 60.6914 10.7462 60.125 10.7006C59.9378 10.6862 58.4594 10.6046 58.3658 10.5878C58.241 10.5662 57.3938 10.2278 56.6618 10.247C55.0466 10.2902 52.973 9.5654 52.4618 9.395C52.013 9.2318 51.9602 9.1742 51.269 9.1118C50.9954 9.0878 50.2226 8.759 50.1914 8.771L49.9082 8.6582" stroke="#72A89A" stroke-width="1.92" stroke-linecap="round"/>
<path d="M50.0215 8.65773C51.8839 8.65773 56.6575 8.60013 59.5687 8.54493C60.4951 8.54253 63.3127 8.90013 63.4759 8.88573L64.9519 10.9857L65.8591 11.7225C65.8519 11.6385 64.2583 11.3601 63.7591 11.2113C62.4295 10.7961 61.3183 10.4745 60.5239 10.2465C59.8495 10.0377 57.8335 9.08733 57.5719 9.11133C59.4871 9.11373 64.3519 9.10413 64.3831 9.11133C64.4647 9.13293 64.6423 9.24093 64.6663 9.22413" stroke="#72A89A" stroke-width="1.92" stroke-linecap="round"/>
<path d="M47.2969 8.88575C48.9841 8.88335 51.4297 9.38735 51.7801 9.45215C52.0465 9.50255 56.4577 10.8634 56.4913 10.8706C57.5953 11.1058 59.8321 12.1425 59.9545 12.2337C60.7897 12.8337 61.9561 13.057 62.4529 13.4266C63.8449 14.449 64.5961 14.7466 65.4049 15.2434C66.5233 15.9466 66.7225 16.8322 66.7105 17.0578" stroke="#E8FFF9" stroke-width="1.92" stroke-linecap="round"/>
<path d="M9.1489 9.29004C8.7121 9.91644 7.6033 13.5692 7.5361 13.8044C7.4209 14.2196 6.9913 14.7476 6.9049 14.9396C6.8737 15.0092 6.7609 16.0364 6.6529 16.3268C6.5881 16.5044 5.9689 17.6036 5.8969 17.8388C5.8009 18.1436 5.7121 19.8788 5.5177 20.4884C5.4625 20.6564 5.0449 21.398 5.0137 21.4988C4.9945 21.5564 5.0425 22.3388 5.0137 22.634C4.8865 23.2004 4.7545 24.578 4.6825 24.8924C4.5289 25.5548 3.9721 26.966 4.0033 27.4268C4.0705 28.3412 3.7273 30.3932 3.4993 31.4636C3.4705 31.6004 3.5233 32.2556 3.4993 32.4716C3.3721 33.0404 2.7049 36.4148 2.7169 37.5428C2.7193 37.8548 2.7697 38.5316 2.7433 38.654C2.7145 38.7716 2.2657 39.7532 2.2369 39.914C2.0713 40.8668 1.9681 41.2388 1.9849 42.1844C1.9921 42.47 1.9585 60.0572 1.9849 60.2228C2.1889 61.4708 3.0001 62.966 3.3721 64.3868C3.4969 64.9532 3.8665 66.494 3.8785 66.53C3.9169 66.6572 4.1089 67.8524 4.5073 68.2964C4.8649 68.6948 5.0497 69.5852 5.2657 69.8108C5.7049 70.2764 5.7289 70.7468 5.7697 70.8188C5.9137 71.0876 6.2761 71.582 6.2737 71.954C6.2761 72.2084 7.0321 73.3292 7.1569 73.4684C7.1977 73.514 7.5601 74.4236 7.9153 74.7308C8.1889 74.966 8.3377 75.1724 8.5441 75.4868" stroke="black" stroke-width="2.88" stroke-linecap="round"/>
<path d="M66.4443 9.3877C67.1883 11.9533 68.1459 15.2293 68.2419 15.6541C68.3427 16.1197 68.4123 17.0269 68.7147 18.2173C69.4059 20.9125 69.8523 23.8669 69.9891 24.4093C70.1067 24.7957 70.3443 25.6453 70.4979 26.7517C70.6275 27.6925 70.5819 29.3269 70.7403 30.0373C70.8507 30.5149 70.8243 31.2133 70.8603 31.4629C70.8891 31.6789 71.3331 32.9461 71.3643 33.1021C71.3883 33.2293 71.3427 34.8157 71.4171 35.5549C71.5155 36.2221 71.6379 37.0981 71.6163 38.2741C71.5995 38.9509 71.8803 40.1245 71.8755 40.8949C71.8755 48.8245 71.8875 61.8109 71.8683 61.8637C71.8659 61.8733 71.4075 62.5477 71.3643 62.7469C71.3259 62.9101 71.3499 63.5341 71.2371 63.8821C70.3779 66.2485 70.3995 66.7117 70.3539 66.7837C70.1955 67.0405 69.9459 67.2517 69.8499 67.5397C69.7707 67.7797 69.8499 68.3461 69.7251 68.4229C69.4731 68.5693 69.6339 69.5173 69.5979 69.5581C69.3987 69.7789 69.1251 69.9349 68.9667 70.1893C68.8539 70.3693 68.8083 70.9669 68.6091 71.3293C68.1147 72.2365 68.0139 72.9109 67.8315 73.3429C67.8123 73.3885 67.5555 73.6573 67.4547 73.7197C67.3323 73.7893 67.3155 73.9789 67.3275 74.7301" stroke="black" stroke-width="2.88" stroke-linecap="round"/>
<path d="M9.05078 74.9827V74.8555V79.7755" stroke="black" stroke-width="2.88" stroke-linecap="round"/>
<path d="M9.05078 80.0273L9.17558 80.2793C9.52118 80.2913 11.0572 80.2577 11.9308 80.2361C13.1548 80.2145 14.1988 80.3393 15.0172 80.6393C15.622 80.8625 19.6972 80.7905 21.5596 80.7785C23.5948 80.7785 27.8932 80.7833 30.1564 80.7857C31.7884 80.7857 35.518 80.7929 36.2812 80.9105C37.2868 81.0689 57.55 81.0353 63.5428 81.0377" stroke="black" stroke-width="2.88" stroke-linecap="round"/>
<path d="M66.3193 74.9824C66.3865 75.076 66.8689 76.2112 66.8473 76.648C66.8329 77.0344 66.7969 77.32 66.8233 77.38C66.8977 77.5504 67.1113 78.0256 67.0753 78.388L67.0657 78.5224" stroke="black" stroke-width="2.88" stroke-linecap="round"/>
<path d="M63.0165 80.8506C62.7453 80.9922 62.2485 81.2658 62.1549 81.2898C62.0877 81.3042 60.5949 81.285 60.2637 81.2898" stroke="black" stroke-width="2.88" stroke-linecap="round"/>
<path d="M63.2881 81.1191L67.7593 81.1695" stroke="black" stroke-width="2.88" stroke-linecap="round"/>
<path d="M67.1279 78.0088L67.3703 80.8768" stroke="black" stroke-width="2.88" stroke-linecap="round"/>
<path d="M7.92773 12.0952C8.57333 10.8424 8.65733 10.2088 8.83493 9.77685C8.85413 9.73125 9.10614 9.46245 9.20454 9.40005C9.32454 9.33045 9.33893 9.14085 9.32933 8.38965" stroke="black" stroke-width="2.8464" stroke-linecap="round"/>
<path d="M66.2783 8.13753V8.26473V3.34473" stroke="black" stroke-width="2.8464" stroke-linecap="round"/>
<path d="M66.278 3.0929L66.1556 2.8409C65.8196 2.8289 64.3172 2.8625 63.4628 2.8841C62.2676 2.9057 61.2476 2.7809 60.446 2.4809C59.8556 2.2577 55.874 2.3297 54.0548 2.3417C49.8524 2.3393 40.454 2.3345 39.6668 2.2097C38.6852 2.0513 18.8828 2.0849 13.0244 2.0825" stroke="black" stroke-width="2.8464" stroke-linecap="round"/>
<path d="M10.3127 8.13766C10.2455 8.04406 9.77507 6.90886 9.79667 6.47206C9.81107 6.08566 9.84467 5.80006 9.82067 5.74006C9.74627 5.56966 9.53747 5.09446 9.57347 4.73206L9.58307 4.59766" stroke="black" stroke-width="2.8464" stroke-linecap="round"/>
<path d="M13.541 2.26966C14.213 1.89286 14.4794 1.79686 14.8754 1.83046C15.0242 1.84486 15.7682 1.83766 16.2314 1.83046" stroke="black" stroke-width="2.8464" stroke-linecap="round"/>
<path d="M13.2767 2.0006L8.90625 1.9502" stroke="black" stroke-width="2.8464" stroke-linecap="round"/>
<path d="M9.52373 5.11116L9.28613 2.24316" stroke="black" stroke-width="2.8464" stroke-linecap="round"/>
<path d="M13.4229 26.2959C13.0557 26.7111 11.4933 29.7879 11.4357 29.9439C11.3709 30.1239 11.2821 30.8439 11.1549 31.0671C10.7757 31.5759 10.5909 32.4951 10.5957 33.1239C10.5981 33.5727 10.1253 34.7103 10.0341 35.4615C10.0221 35.5695 10.0365 42.4311 10.0341 42.5679C10.0005 43.9599 10.5309 46.1583 11.0637 47.5239" stroke="black" stroke-width="2.88" stroke-linecap="round"/>
<path d="M17.8076 19.5591C18.3548 19.0599 19.4468 17.8287 21.9092 16.5735C23.1956 15.9159 26.4452 14.5911 26.9588 14.5167C27.2372 14.4783 31.0676 13.1895 31.4468 13.2087C31.9652 13.2375 32.8004 13.1151 33.3164 13.0215C33.4724 13.0071 34.8308 13.0551 35.9348 12.8343C36.0476 12.8175 43.5356 12.8199 43.5956 12.8175C44.3612 12.8079 45.9836 13.4583 46.2188 13.5831C47.0372 14.0103 48.8516 14.7783 49.2116 14.8911C49.4444 14.9631 49.7516 15.2919 49.8644 15.3591C49.8884 15.3711 51.3932 16.0623 51.9548 16.4655C52.6868 17.0343 54.7292 18.5343 55.5692 19.7535C55.7924 20.0775 56.8076 20.7711 57.2516 21.2487C57.4844 21.5007 58.1396 21.7455 58.1876 21.9039C58.2428 22.1055 58.3508 22.3383 58.4684 22.4655C58.5284 22.5303 59.1548 23.3895 59.2148 23.5863C59.5244 24.5607 60.7532 26.1759 60.806 26.2983C60.8708 26.4519 61.5404 28.2327 61.5524 28.2615C61.8332 28.7295 62.438 29.8431 62.4884 29.9439C62.606 30.1863 62.7092 30.8871 62.7692 31.0671C62.8028 31.1751 63.2876 32.3415 63.3284 32.5623C63.3284 32.6487 63.6236 33.8343 63.7028 33.9663C63.7628 34.0623 63.878 34.5591 63.89 34.7127C63.902 34.8591 64.0724 34.9407 64.0772 34.9935C64.0844 35.0631 64.0844 35.2815 64.0772 35.6487" stroke="black" stroke-width="2.88" stroke-linecap="round"/>
<path d="M10.7831 45.1865C10.7807 45.8945 10.7759 47.9129 10.7831 48.1769C10.8047 48.9833 11.0663 49.7897 11.1551 50.2337C11.1887 50.3513 11.4383 50.9513 11.5295 51.1697" stroke="black" stroke-width="2.88" stroke-linecap="round"/>
<path d="M11.6855 51.7051L12.0167 53.0035" stroke="black" stroke-width="2.88" stroke-linecap="round"/>
<path d="M12.0908 53.5068C12.2636 54.09 13.1684 55.6956 13.3076 55.938C13.3076 55.938 15.4676 58.6404 15.5516 58.7436C15.8228 59.082 16.0652 59.2428 16.3916 59.7708C16.7036 60.2772 19.6124 63.9156 20.786 64.5396C20.9876 64.6452 21.2348 64.6308 21.4412 64.7268C21.9548 65.0532 23.4908 65.9076 23.5916 65.9436C23.966 66.0372 25.1996 66.438 25.4612 66.5964C25.574 66.6636 26.7524 66.7788 26.7716 66.7836C27.0308 66.8412 29.4836 67.6092 29.5748 67.626C29.6684 67.6404 30.8156 67.8132 32.006 68.0004C32.2148 68.0316 40.202 68.0172 40.2356 68.0004C40.3292 67.9068 40.4588 67.794 40.7012 67.8132C40.9484 67.83 41.582 67.782 41.8244 67.7196C41.9204 67.6932 42.674 67.6956 42.9452 67.626C43.19 67.5636 43.6484 67.23 44.0684 67.2516C45.1268 67.2996 46.6292 67.0524 47.714 66.69C47.7764 66.6756 49.2812 66.3612 49.3988 66.3156C49.5428 66.2604 49.9292 65.9412 50.1452 65.9436C50.4764 65.9412 51.8492 65.3316 51.9236 65.2884C51.998 65.2428 52.502 64.7724 52.5764 64.7268C52.6604 64.6764 52.922 64.6092 53.0444 64.5396" stroke="black" stroke-width="2.88" stroke-linecap="round"/>
<path d="M63.8906 39.5755V35.4619" stroke="black" stroke-width="2.88" stroke-linecap="round"/>
<path d="M64.078 37.3311C64.0804 41.2863 64.078 47.6607 63.9844 47.9895C63.8932 48.2847 63.682 48.9759 63.61 49.2999C63.4276 50.1303 63.4036 50.1927 63.238 50.2335C63.1516 50.2527 62.9692 51.5751 62.9572 51.6375C62.9116 51.8607 61.5268 55.3646 60.622 56.7062C60.3388 57.071 59.7844 57.9663 59.6836 58.0887C59.6548 58.1223 59.1628 58.7175 58.6564 58.9311C58.5628 58.9695 56.9644 61.0647 56.878 61.1751C56.794 61.2783 55.8196 61.9887 55.4764 62.4831C55.2196 62.8551 54.862 63.1743 54.8212 63.2319C54.5692 63.5726 53.374 64.1175 53.1388 64.3527C52.6372 64.6863 52.0588 65.1807 52.0156 65.1951C51.8668 65.2455 51.5212 65.1663 51.4564 65.1951C51.1996 65.3055 50.59 65.6223 50.614 65.5695" stroke="black" stroke-width="2.88" stroke-linecap="round"/>
<path d="M14.5227 24.0544L14.4291 24.148C14.4243 24.0376 14.4603 23.6488 14.5227 23.4928C14.6091 23.2816 15.3915 22.5976 15.7371 22.0912C15.8163 21.976 16.6011 20.7736 16.6731 20.6896C17.2227 20.0392 17.5899 19.828 17.7027 19.5664" stroke="black" stroke-width="2.88" stroke-linecap="round"/>
<path d="M13.9606 24.4287L13.7734 25.1775" stroke="black" stroke-width="2.88" stroke-linecap="round"/>
</svg>
