<svg width="84" height="88" viewBox="0 0 84 88" fill="none" xmlns="http://www.w3.org/2000/svg">
<path d="M5.63965 56.3029C5.81245 56.2885 7.76605 57.0613 8.76205 57.2197C10.082 57.3637 12.35 57.6805 13.2956 57.8509C14.1308 58.0069 14.4764 58.2997 14.6732 58.3669C14.8364 58.4245 15.362 58.4245 15.4484 58.4533C15.5612 58.4869 19.7828 59.7445 20.7812 60.0877C21.122 60.2053 22.022 60.2845 22.2452 60.3469C22.3964 60.3877 23.1476 60.8173 23.3636 60.8629C23.6732 60.9277 25.43 61.0933 25.6004 61.1197C25.7252 61.1389 26.426 61.4509 26.546 61.4653C27.2972 61.5565 28.1996 61.8349 28.3532 61.8949C28.5884 61.9837 32.7236 62.8189 33.17 62.8405C33.494 62.8573 35.2388 62.9821 35.4068 63.0133C35.6228 63.0997 36.7052 63.3877 37.1084 63.3757C38.1116 63.3493 39.0332 63.5101 39.4508 63.5293C39.4868 63.5317 40.4036 63.8941 40.6556 63.8749C40.8524 63.8557 42.0596 64.0453 42.29 64.2181C42.4844 64.3621 44.4956 65.1037 44.6996 65.0773" stroke="#EF586A" stroke-width="2.88" stroke-linecap="round"/>
<path d="M5.63965 57.6806C6.43645 57.6854 8.21245 57.635 9.12205 57.8534C9.68125 57.9878 11.27 58.0622 11.9204 58.1966C12.2636 58.2662 13.1996 58.7102 13.4684 58.799C13.5956 58.8398 17.6948 59.8094 18.9092 59.8718C20.774 59.9702 24.0164 60.4982 24.5732 60.7286C25.3892 61.0814 27.9428 61.5446 28.6796 61.7126C30.9212 62.2286 30.9692 62.2718 31.0196 62.411C32.39 62.7878 33.134 63.0134 33.686 63.0134C33.9548 63.0446 35.0204 63.3734 35.0636 63.443C35.1548 63.5894 36.7844 63.875 38.8484 64.2182C38.9828 64.2326 41.4428 64.1918 41.6036 64.2182C42.0044 64.2878 42.4485 64.4102 42.8061 64.5614" stroke="#EF586A" stroke-width="2.88" stroke-linecap="round"/>
<path d="M40.5693 64.9072C40.5957 65.2096 41.5509 65.5624 42.1197 65.596C42.3309 65.6056 43.6941 66.0568 44.4429 66.112C44.5941 66.1216 47.0493 66.1096 47.9685 66.112" stroke="#EF586A" stroke-width="2.88" stroke-linecap="round"/>
<path d="M42.6357 65.7663C42.9405 65.7567 45.2637 65.9343 45.8181 65.9439C46.4013 65.9511 46.6221 65.9271 46.7637 65.8527L46.8501 64.5615C47.0685 64.6719 47.1765 64.8447 47.1093 65.0775C47.0661 65.2263 46.8837 65.6463 46.7637 66.0255C46.9341 65.5335 48.0261 65.3271 48.1413 65.3367C48.2565 65.5527 48.4341 65.6799 48.5709 65.5959C48.6405 65.5527 48.7989 65.3967 49.0029 65.4231" stroke="#EF586A" stroke-width="2.88" stroke-linecap="round"/>
<path d="M49.0029 65.2498L49.8621 64.3906" stroke="#EF586A" stroke-width="2.88" stroke-linecap="round"/>
<path d="M49.8623 64.3913L79.9751 17.9297" stroke="#EF586A" stroke-width="2.88" stroke-linecap="round" stroke-linejoin="round"/>
<path d="M6.35499 56.7086V56.639L4.52379 56.2142C4.50939 55.871 4.93899 55.4558 5.43819 55.2278C5.65419 55.1318 8.43579 53.087 8.75019 52.763C9.06699 52.4318 9.72939 51.4286 9.73659 51.0014C9.73899 50.8694 10.3174 50.0438 10.3006 49.6622C10.2958 49.5182 11.2366 47.8982 11.287 47.8286C11.347 47.7494 12.1798 46.7222 13.0486 46.067C14.2294 45.191 15.9118 44.6462 17.2078 43.6718C17.6158 43.3502 17.9326 43.0982 17.983 42.9662C18.0622 42.7478 18.0382 41.759 18.0526 41.699C18.115 41.4158 18.475 40.7294 18.475 40.7126C18.5686 39.7598 18.775 39.2078 18.9694 38.1758C18.9934 38.051 19.5766 37.0022 19.6726 36.131C19.7518 35.7302 20.5222 34.667 20.9422 34.1582C21.067 34.3742 20.9158 34.931 20.551 35.4782C18.9574 37.8086 16.5598 40.343 16.1182 41.1758C14.7598 43.787 13.771 46.079 13.6846 46.139C13.0486 46.5782 11.9998 47.627 11.851 47.759C11.1358 48.3974 10.3126 49.4726 10.0198 49.8014C9.46539 50.4206 8.55339 51.4766 8.46939 51.563C8.16939 51.8678 7.91259 51.9302 7.76379 51.9158" stroke="#EF586A" stroke-width="2.88" stroke-linecap="round"/>
<path d="M6.91895 54.7352C7.81655 54.7352 10.4925 54.7304 10.5837 54.7352C11.1885 54.7592 14.8221 55.4144 15.8589 55.8008C16.3101 55.94 24.3213 56.984 24.8181 57.1304C25.3893 57.2984 26.4885 57.4328 27.0045 57.4136C27.7317 57.3944 29.0277 57.836 29.0445 57.836C29.4741 57.8168 33.8973 59.1224 34.0485 59.1752C34.3197 59.2664 36.9789 60.5096 37.2189 60.584C37.4973 60.668 42.8589 62.2016 42.9285 62.204C43.3605 62.2256 45.2109 62.444 45.3933 62.4848C45.6189 62.5376 46.7493 62.9288 46.8741 62.9096L47.0157 63.26C46.3029 63.5912 45.3933 63.6128 44.6277 63.6176C40.9941 63.6272 39.4173 63.5648 38.1357 63.1904C37.5309 63.0128 30.8325 60.2072 30.1029 60.02C29.8125 59.948 28.2141 59.9792 27.5853 59.8616C26.8197 59.6984 25.7229 59.504 25.0293 59.3864C24.3501 59.2544 23.8581 59.2424 23.0565 58.9616C22.8981 58.9064 21.0069 58.3712 20.8005 58.328C20.5989 58.2872 18.6141 58.1432 18.4749 58.1168C18.4269 58.1072 16.8549 57.3416 16.2213 57.0608C15.7941 56.8712 12.8733 55.8632 12.1341 55.58C11.9685 55.5248 11.6277 55.268 11.4981 55.088C11.4693 55.0448 11.4261 54.332 11.1477 53.888C11.0325 53.7128 10.8573 52.7168 10.8645 52.5512C11.3109 52.4768 11.5485 52.484 11.8509 52.6208C12.5157 52.916 17.1981 54.2408 17.8437 54.4424C19.2357 54.872 25.2789 56.5712 33.2733 57.4832C34.3029 57.6032 37.8453 58.5728 39.4701 58.9136C40.9869 59.1488 43.6629 59.6216 44.5485 60.02C44.6829 60.08 45.8445 60.5528 46.4517 60.6536C47.1861 60.776 47.4549 60.8048 47.6493 61.0064C47.9397 61.3448 48.0381 61.5296 48.0717 61.5704C48.1245 61.6328 48.3573 61.616 48.4245 61.64C48.5805 61.7 48.6597 61.9232 48.6357 62.1344C48.6429 61.6736 48.6261 61.4432 48.6357 61.4288C48.7269 61.2872 49.7133 59.4416 50.1861 59.5976C50.1549 59.9432 49.8021 60.5672 49.4109 61.8512C49.3605 62.024 49.1685 62.4632 49.1829 62.8568C49.1973 63.1832 49.2021 63.5552 49.1997 63.9656C49.3269 63.9272 50.6205 61.0712 50.9613 60.3008C51.0405 60.1208 51.2373 59.1368 51.6357 58.46C51.9957 57.8504 52.1661 57.1688 52.1589 57.0608C52.0437 56.912 49.9965 57.4712 47.5773 57.764C46.9653 57.8384 45.5421 57.8312 44.8293 57.9752C43.3005 58.2896 39.8181 58.3928 39.1989 58.3952C36.7605 58.4168 34.5309 58.2584 33.9069 58.0472C33.7509 57.992 33.1101 57.6824 32.8509 57.6248C32.5917 57.5624 29.3877 57.0296 29.1165 56.9888C28.5693 56.9072 21.3645 55.0328 19.7445 54.3824C16.7133 53.396 12.6813 52.1792 12.1341 51.8456C11.6661 51.56 11.4045 51.1184 11.4285 50.7176C11.5293 50.6432 13.4637 50.6336 14.2485 50.7896C16.8525 51.3176 17.3133 51.4544 19.8501 52.3208C20.9517 52.6904 28.9965 54.7616 30.1725 54.8744C30.8133 54.9392 41.3757 56.5376 41.7285 56.5664C42.1173 56.5976 46.1037 56.7176 47.0853 56.9192C50.5773 57.308 51.1173 57.4328 51.2421 57.4112V59.0336C50.5773 59.288 49.4037 59.204 49.2693 59.2448C49.1085 59.2928 48.7965 59.5448 48.2829 59.5256C47.6589 59.5016 46.6581 59.2784 46.5909 59.2448C45.8637 58.8272 43.2909 58.1576 42.0717 57.7544C41.1021 57.4328 38.8845 56.924 37.4637 56.4656C36.5733 56.168 34.3077 55.2512 33.2037 54.8744C32.7717 54.7256 28.1685 52.4264 25.3821 51.6344C22.8573 50.9552 18.0525 49.8008 16.6437 49.3784C16.4397 49.3208 15.3741 48.8144 14.8101 48.6032C14.6133 48.5336 13.1685 48.3824 12.9093 48.392C14.5077 48.392 18.8493 48.428 22.3509 49.0088C22.7925 49.0832 26.4285 49.7696 28.1949 49.8968C28.9029 49.952 30.1269 50.1416 31.3365 50.3648C31.8765 50.4584 33.9477 50.552 34.5333 50.696C35.6973 50.996 43.9221 52.0112 45.6765 52.0568C46.8597 52.0904 47.8077 52.3712 48.3525 52.3376C48.5445 52.3256 48.6477 52.448 48.7053 52.4792C48.7269 52.4912 50.2581 52.532 50.6085 52.6904C50.7453 52.7552 51.5661 53.3624 51.6645 53.396V54.1712C50.0445 54.1832 45.9981 54.1784 44.6325 54.0392C41.3829 53.6792 36.3237 52.9784 36.3045 52.9736C35.2989 52.7312 33.7797 52.7744 33.6957 52.7624C33.5493 52.736 32.2509 52.4792 31.4421 52.3376C31.3221 52.328 28.7997 52.3376 28.6941 52.3376C28.6629 52.6688 28.7373 52.8968 28.9749 53.0432C29.3925 53.2952 30.4581 53.6552 31.5813 53.888C31.7805 53.9288 34.6701 54.3128 36.2277 54.3176C44.1213 54.3152 52.4757 54.3128 52.9341 54.3128C52.9941 54.3752 53.0013 55.088 53.0037 55.3688C53.0085 55.6448 52.9869 55.6856 52.8645 55.7912C53.2125 55.6688 53.6757 54.1016 53.7789 53.96C53.8677 53.8376 54.2397 53.3768 54.2733 53.2544C54.2757 53.2424 54.2709 52.8752 54.3429 52.832C54.9333 52.5008 55.1325 52.1 55.1877 52.0568L55.8933 51.3512C55.5525 51.7232 54.5661 52.1576 53.9205 52.3376C53.4693 52.4648 52.5357 52.6112 51.9477 52.9016C51.6165 53.0624 50.0613 53.036 49.5525 53.0432C48.3765 53.0576 45.2637 52.448 44.3373 52.3376C44.0709 52.3088 42.1989 52.1984 41.8701 52.1264C41.3349 51.9848 32.1669 50.48 31.6365 50.5088C30.8949 50.552 28.1109 49.9544 27.9885 49.9424C27.7557 49.9184 25.0005 49.6784 24.8877 49.6616C23.7957 49.3784 22.2813 49.028 21.7173 48.7448C21.2829 48.5744 20.6445 48.5984 20.5197 48.5336C20.4021 48.4736 20.3613 48.296 20.2365 48.2528C20.2317 48.2504 19.5813 48.2024 19.5333 48.1808C19.3221 48.1112 18.2301 47.936 17.9829 47.828C16.4445 47.1656 16.1565 47.0888 16.0101 47.1248L15.3045 46.4192C18.1677 45.9344 22.0797 46.5656 24.5973 46.8248C25.4853 46.9208 28.7013 47.6816 32.6397 48.0392C33.8253 48.2384 39.4221 48.3872 39.4749 48.392C39.7413 48.4184 41.7429 48.7928 42.3645 48.8144C43.8213 48.8648 45.6285 49.3928 46.8045 49.3856C47.5893 49.3832 49.4109 49.5416 49.7301 49.5344C50.7837 49.5152 51.5949 49.7504 51.8061 49.8008C52.9197 50.0672 55.9461 50.0816 56.4573 50.084C54.9357 50.5784 52.3293 50.648 50.0877 50.6552C47.8821 50.6576 43.6821 50.6576 41.6877 50.6552C39.7677 50.6456 35.8653 50.0552 35.8101 50.0144C35.9589 49.9928 39.0237 50.4416 40.6941 50.7584C42.0237 51.0008 48.4509 51.7184 52.3701 51.6344C52.8213 51.6272 53.4477 51.5984 53.5677 51.6344C54.2733 51.86 54.3501 52.0808 54.4125 52.6208C54.4245 52.7336 54.5037 52.8632 54.5541 52.9016" stroke="#EF586A" stroke-width="2.88" stroke-linecap="round"/>
<path d="M17.6301 44.7276H17.5605C17.6349 45.0252 17.7525 45.1236 18.1581 45.1476C18.8421 45.1884 20.6709 45.606 21.0117 45.6444C21.5565 45.7068 26.2797 45.8772 27.0549 46.05C28.6581 46.4076 30.8517 46.5348 32.2173 46.842C32.8989 46.9908 46.0173 46.9668 46.1685 46.9836C46.4757 47.0196 48.0933 47.1564 48.7053 47.3364C49.4925 47.5668 51.3141 47.5644 51.7797 47.5668C54.0621 47.5596 58.8309 47.5572 58.8525 47.5476C59.2773 47.358 59.4645 46.9116 59.6997 46.6308C59.8245 46.4796 60.6333 45.3204 60.6141 44.9412C60.4581 44.862 38.7621 44.8668 30.1173 44.8716C26.2893 44.8692 21.2781 44.8692 20.0973 44.8692L19.6029 44.3772C19.6197 44.286 19.2213 43.4316 19.3221 43.038C19.3365 42.978 19.3845 42.906 19.4613 42.8268C20.0445 42.7356 20.1837 42.6108 21.0837 42.6156C25.6869 42.7572 40.5957 42.7596 48.9189 42.7572C53.3109 42.7548 60.3909 42.7548 63.0813 42.7548C63.2853 42.4476 63.2997 42.0444 63.5037 41.8404C63.7125 41.5308 63.6693 41.0364 63.7149 40.854C63.7437 40.7388 64.0125 40.4196 63.9981 40.218C63.9933 40.1772 63.9693 40.1292 63.9261 40.0788C63.2517 40.0668 59.4861 40.326 57.6549 40.5708C57.0069 40.6596 54.2397 41.0628 52.3317 41.0676C43.9317 41.0604 32.4693 41.0604 30.4557 41.2044C28.4061 41.3604 21.3213 41.3388 21.2949 41.346C20.7813 41.502 20.3589 41.4828 20.2365 41.4876C20.1261 41.2956 20.2485 40.8276 20.6589 40.29C20.7405 40.1844 20.9949 39.9492 21.0837 39.7956C21.6693 39.786 22.9077 39.9516 23.6205 40.0788C24.4317 40.2204 33.7125 40.2276 37.9437 40.2276C46.2141 40.2228 56.9853 40.2252 59.4813 40.23C59.8917 40.2348 60.3525 40.1028 60.5445 40.0788C60.7125 40.0548 61.7277 40.0956 61.8117 40.0788C61.9821 40.0404 63.0189 39.3948 63.8565 38.7396C64.2861 38.406 65.4069 37.998 65.4765 37.8924C65.4837 37.8228 44.4885 37.8228 36.0933 37.8228C28.7277 37.8228 21.0117 37.8228 20.6589 37.8228C20.5317 37.2636 20.7093 36.6108 21.2229 36.342C21.6309 36.1428 21.7941 36.1308 23.2005 36.1308C30.8301 36.1332 46.7133 36.1332 54.9693 36.1308C58.6461 36.1308 64.6029 36.1284 64.7013 36.1308C64.9965 36.1404 65.4525 35.8524 65.7597 35.4972C65.7765 35.4756 66.1941 34.8204 66.3933 34.6524C66.7173 34.3788 66.8373 34.194 66.9573 34.0884C66.8637 34.0188 46.4109 34.0188 37.6773 34.0188C30.0285 34.0188 22.0149 34.0188 21.6453 34.0188V33.666C22.4445 33.4596 25.2597 33.4452 26.7189 33.4428C35.4237 33.4452 52.4637 33.4524 60.7965 33.4548C61.7637 33.4548 64.3557 33.4452 65.5485 33.1716C65.7165 33.1356 66.1461 32.8956 66.1821 32.8908C66.2349 32.8812 67.6605 32.8908 67.7325 32.8908L66.0405 35.2164C65.9853 34.9092 66.0429 34.7892 66.4629 34.3692C66.5469 34.2876 67.3797 33.3492 67.7325 32.9604C68.3517 32.3628 68.3877 32.094 69.0717 31.5516C69.4125 31.2828 69.4869 31.1892 69.7053 31.1988L71.1837 29.9316" stroke="#EF586A" stroke-width="2.88" stroke-linecap="round"/>
<path d="M71.1841 29.9321C68.3833 29.9201 66.6121 30.1817 64.5001 30.4673C63.5329 30.5945 61.3393 30.9185 59.2609 30.9233C50.7049 30.9161 39.0961 30.9161 37.0801 31.0577C36.2065 31.1153 34.9105 31.4753 34.6825 31.4825C33.7081 31.5017 32.0785 31.7417 31.7953 31.7633C31.6297 31.7753 30.3529 32.0489 30.3145 32.0441C29.8153 32.0105 28.2769 32.0873 27.8473 32.2577C27.6193 32.3489 25.3273 32.6513 24.3241 32.6081C24.0169 32.5913 22.9009 31.9889 22.7041 31.6937L24.8881 30.6353C25.0009 30.4817 25.4257 30.4961 26.9929 30.5033C30.6625 30.5105 32.1457 30.3545 33.2737 30.2129C39.0841 30.0641 55.3153 30.0617 64.2001 30.0665C65.6041 30.0689 68.3809 30.0665 68.9305 29.9321C69.2833 29.7905 69.7009 29.6321 70.1977 29.6489C70.9033 29.6609 72.2905 28.0361 72.4537 27.6065C72.4705 27.5609 72.5161 27.4673 72.5953 27.3233C72.3673 27.2465 51.1441 27.2513 43.0681 27.2537C38.4865 27.2561 32.9185 27.2561 31.9345 27.2537C28.8169 27.2057 26.5969 27.8009 26.5801 27.8177L25.0993 28.1705C25.3801 28.3697 26.1025 28.3817 26.5057 28.4465C27.0217 28.5281 33.2329 28.5449 33.6265 28.5209C34.3201 28.4801 36.9073 28.0937 37.6441 28.0985" stroke="#EF586A" stroke-width="2.88" stroke-linecap="round"/>
<path d="M61.1781 35.0057C61.1541 34.8641 61.6341 34.1465 61.8837 33.9473C62.7717 33.2513 65.6685 31.3505 66.2589 30.8537C68.4429 29.0057 71.3997 27.5105 71.5365 27.3953C71.7405 27.2225 72.1173 27.0353 72.2421 26.7593C72.3093 26.6057 73.2477 25.4297 73.8621 24.4337C73.9077 24.3617 74.3469 23.5217 74.7093 23.2361C75.0405 22.9745 75.8997 21.8657 76.1877 21.3353C76.2501 21.2201 76.8452 20.6729 77.0324 20.5601C77.3156 20.3873 78.1389 19.0193 78.4437 18.6569C78.5589 18.5153 79.0077 17.2937 79.0773 16.8953C79.0845 16.8473 79.2141 15.5369 79.2213 14.8385C79.2261 13.7753 79.1157 13.5233 78.8661 13.2305C78.4917 12.8057 78.0189 12.5249 77.1741 11.9609C76.7061 11.6585 75.3285 11.2241 75.3213 11.2217C73.9581 10.5713 71.7141 9.53212 70.8333 9.14332C70.1277 8.86012 68.918 8.10892 68.6468 8.08732C68.1956 8.05132 65.2101 6.51292 64.4205 6.18412C64.3101 6.13612 63.8132 6.06172 63.6452 5.97292C63.494 5.89372 63.0933 5.61052 62.8701 5.55052C62.1261 5.35132 60.9693 4.88572 59.9805 4.70332C58.6053 4.46572 57.4581 4.13692 55.5717 4.12012C53.4405 4.12252 49.9245 4.13932 49.4805 4.28092C48.9501 4.46812 47.5077 6.04252 47.5077 6.04252C47.3661 6.23692 47.258 7.45372 47.2268 7.66252C47.2076 7.78972 47.078 8.06092 47.0852 8.72092C47.114 11.0849 47.4045 12.2537 47.6493 13.7249C47.6733 13.9433 47.8149 15.5609 47.7909 15.9089C47.7741 16.1729 47.9709 16.4561 48.0717 16.5425" stroke="#EF586A" stroke-width="2.88" stroke-linecap="round"/>
<path d="M46.5215 7.10087C48.8927 6.10247 52.2167 5.86967 53.2151 5.83127C53.6879 5.81447 59.6471 5.84807 59.6999 5.83127C59.8295 5.78807 60.3335 5.57687 60.4751 5.55047C61.2263 5.40887 65.3375 5.41127 67.5095 5.41127C68.0759 5.41367 69.0167 5.38967 69.1415 5.40887C69.6503 5.57207 70.9823 5.88407 71.1839 5.97287C72.1559 6.45767 73.3415 6.95687 73.6511 7.31207C73.7591 7.43687 74.1551 7.90487 74.1455 7.94567" stroke="#EF586A" stroke-width="2.88" stroke-linecap="round"/>
<path d="M49.7634 8.08701C49.7346 8.67741 49.9098 9.23421 49.9746 9.42381C50.025 9.56541 50.301 10.0886 50.6082 10.199C51.0018 10.3286 52.2906 10.1174 53.2002 9.85341C53.709 9.70701 55.3266 9.19341 55.4154 9.16941C56.1258 8.97741 60.2922 8.64861 61.6914 8.65101C61.9986 8.65101 63.7146 8.62701 64.3482 8.43741C64.9074 8.27181 66.897 8.21661 66.957 8.15661C66.8874 7.92381 66.7194 7.81341 66.3234 7.80381C66.2274 7.80141 58.9098 7.80621 58.7826 7.80381C57.6954 7.78221 55.461 8.09181 54.9498 8.14461C54.645 8.17581 53.709 8.50941 53.0034 8.50941C52.773 8.49261 50.265 9.15741 49.5522 9.49581C49.2498 9.63981 48.9402 9.96861 48.9162 9.98781C48.9138 10.2086 48.7698 10.7678 48.777 11.0462C48.7794 11.303 48.7842 12.0806 48.777 12.1022C48.5922 12.4094 48.3306 13.4798 48.3522 13.7942C48.3786 14.1254 47.9682 14.879 47.9298 14.9222C47.8026 15.059 47.4378 15.5606 47.3658 15.6254C47.169 15.8054 43.5714 18.875 43.4202 19.0094C42.8346 19.595 41.925 20.231 41.4474 20.6294C41.433 20.639 39.621 21.5798 39.6162 21.6158" stroke="#EF586A" stroke-width="2.88" stroke-linecap="round"/>
<path d="M75.4121 22.3213C75.5513 21.6397 76.5497 19.5181 77.0321 19.0093C77.6873 18.3229 77.6681 15.9877 77.5961 15.8365C77.4857 15.5989 77.2361 15.4357 77.0321 15.4141C76.4225 15.8485 75.6113 16.8709 75.3089 17.1469C74.3465 18.0277 71.9561 19.8037 69.8393 21.0685C68.8025 21.6949 68.2913 21.9253 66.7097 22.4437C65.5289 22.8061 61.7753 23.1445 60.9041 23.1565C59.0249 23.1613 54.0209 23.1757 54.0137 23.1757C53.2313 23.1589 48.4337 22.8829 47.8601 22.7437C47.8313 22.7365 46.0265 22.7437 45.1817 22.7437C44.4257 22.7533 43.0577 22.7725 42.3641 22.5325C42.1457 22.4485 42.0257 22.3309 42.0113 22.1797C41.9849 21.6133 42.1697 20.9605 42.5033 20.6989C42.5465 20.6677 42.8129 20.4493 42.8561 20.3461" stroke="#EF586A" stroke-width="2.88" stroke-linecap="round"/>
<path d="M46.0984 17.9505C44.704 17.9361 42.9304 18.4305 41.9416 18.5145C41.8696 18.5217 40.2592 19.1769 39.2632 19.4313C38.3632 19.6617 36.3136 19.6161 36.232 19.6425C36.052 19.7025 35.5504 19.9161 35.4568 19.9233C35.1736 19.9497 34.432 20.0865 34.0312 20.0769C33.1 20.0601 31.6072 20.0697 31.5808 20.0649C31.48 20.0433 31.2736 19.8129 31.3696 19.5009C31.588 19.5105 32.9728 19.3449 34.5904 19.3449C36.196 19.3569 36.988 19.3761 37.2184 19.2201C37.3456 19.1313 40.8688 18.6561 41.5936 18.4449C42.6352 18.1425 45.376 17.3745 46.1944 17.1009C48.5824 16.3089 50.7472 15.8097 51.8056 15.1329C52.168 14.8977 52.792 14.2521 53.0752 13.9353C53.2768 13.7241 53.3008 13.5201 53.2864 12.7353C53.2768 12.4449 53.2744 11.9049 53.2864 11.7489C53.3176 11.2809 52.9024 10.5105 52.3 9.91767C51.832 9.46887 51.0688 9.40167 50.9608 9.35367C50.7136 9.17847 50.0752 8.94807 49.9024 8.86167C49.7104 8.76087 48.8128 7.97127 48.7048 7.94487C48.6712 7.93527 48.6232 7.93527 48.5632 7.94487C49.2112 7.95447 50.6488 7.96407 51.28 7.85127C52.5184 7.54167 56.7544 7.16247 57.3736 7.08087C59.1088 6.81687 63.2152 6.16887 63.22 6.16887C63.6328 6.10647 69.0351 6.10167 69.5631 6.25287C70.3143 6.40167 72.5728 8.12727 72.8056 8.36727C73.1848 8.77047 74.1183 9.44967 74.1447 9.49527" stroke="#EF586A" stroke-width="2.88" stroke-linecap="round"/>
<path d="M63.7146 9.35407C63.2298 9.28687 60.0882 10.5829 58.077 11.6797C55.3482 13.2253 52.701 15.0901 51.6642 15.9781C51.5706 15.3229 51.813 13.9285 52.089 13.2301C52.3506 12.5509 52.4106 12.2509 52.425 11.4853C52.4466 10.1653 52.4298 10.0837 52.3698 10.0597C52.305 10.1125 51.1458 11.7613 50.961 12.1021C50.8794 12.2509 48.9114 16.5157 48.8466 16.6117C49.5594 15.8317 50.6106 14.6101 51.1794 13.9477C51.9354 13.1077 55.3482 10.5733 56.4954 9.99247C57.081 9.70207 57.5154 9.51727 57.7242 9.49567C57.7866 9.49087 62.9658 9.49567 64.3482 9.49567L53.7786 12.5965C56.4906 12.5965 57.5586 12.5629 59.469 12.1909C60.885 11.9389 66.6762 11.2525 67.449 11.1853C66.9738 11.1517 57.1386 13.8685 56.0466 14.0221C54.0978 14.3101 49.5714 14.9341 49.0962 15.0133C48.5802 15.0973 47.9106 15.3829 47.7906 15.4141L63.5034 15.5557C63.117 15.8893 62.2554 16.0453 61.5594 16.1197C60.3786 16.2445 57.129 16.6981 55.6338 16.8733C53.8938 17.2021 49.3338 17.9485 48.8154 18.0973C48.2898 18.2509 47.7258 18.4453 47.1546 18.6565C47.2626 18.8173 48.417 18.8053 49.1394 18.8029C53.2578 18.7981 60.405 18.7957 63.4338 18.7981C63.2466 18.9085 59.925 19.4893 58.1778 19.7845C56.037 20.1133 52.581 20.3629 51.705 20.5429C49.9842 20.9341 48.0618 21.2341 45.8154 21.8965C45.0042 22.1437 44.3082 22.4629 43.3506 22.9549C43.557 23.1325 43.8618 23.2021 44.5506 23.1829C45.6306 23.1517 48.081 22.9597 48.1386 22.9525C49.101 22.8493 51.1002 22.3333 51.5778 22.2493C52.053 22.1677 56.5242 21.6253 58.197 21.4261C59.0394 21.3229 61.0026 20.9269 61.5306 20.9101C61.5786 20.9101 62.1954 20.9125 62.517 20.9101C60.7146 21.0445 58.0602 21.7861 55.665 22.0549C55.173 22.1101 50.6586 22.8085 49.833 23.0437C47.7714 23.6365 46.377 24.3301 46.0986 24.6445L63.4338 22.3909C63.0426 22.3693 58.545 23.5501 57.0258 24.0013C54.4866 24.8149 52.8162 25.4845 52.7226 25.6333C52.8906 25.6045 57.585 24.0829 58.485 23.9029C60.129 23.5789 69.4722 22.4101 69.705 22.2493C67.077 22.8805 66.3498 23.1445 64.4898 24.0829C63.549 24.5653 63.0186 25.0477 62.5866 25.4917C63.3258 25.5133 70.125 24.7021 70.761 24.5749C71.3874 24.4477 72.525 24.0901 72.6642 23.8717C72.7122 23.7781 72.7554 23.4517 72.7338 23.2357C72.6762 22.7101 72.333 22.3165 71.8194 22.1797C71.7546 22.1629 66.129 22.1797 64.9818 22.2469C63.261 22.3501 61.0746 22.7773 59.445 22.9357C58.677 23.0125 53.121 24.1765 53.0034 24.2221C52.9722 24.2365 52.9482 24.2605 52.9338 24.2941C56.5578 24.2965 66.7434 24.2869 67.6074 24.1933C67.6986 24.1837 69.7314 23.7181 70.3386 23.7301C70.4322 23.7325 70.5738 23.7325 70.761 23.7301L60.333 25.1389C61.5858 25.1245 67.1898 23.3077 68.553 22.8421C69.1026 22.6597 71.1258 22.2661 71.961 21.9685C73.1106 21.5533 74.2746 21.2245 75.2514 21.0181C75.9906 20.8597 76.773 20.3629 76.9626 20.2765C77.0154 19.9789 76.3122 17.7565 76.257 17.0341C76.2498 16.9237 76.0506 16.0261 75.9762 15.6973C75.9618 15.6325 75.4386 14.8573 75.3426 14.7805C75.2514 14.7109 74.3202 14.2861 73.8618 14.0749C73.6434 13.9645 72.9066 13.2661 72.1722 12.6661C72.0594 12.5773 71.9514 12.3277 71.889 12.2437C71.721 12.0133 69.1338 11.0197 68.013 10.5517C66.6282 10.1221 64.6146 9.97807 64.4898 9.91807C65.7546 10.0069 67.581 10.5589 70.3986 11.2597C72.129 11.5981 77.1882 12.5005 77.3154 12.5245C77.6682 12.5989 78.0642 12.8653 78.513 13.2997C78.657 13.4461 78.6498 14.5405 78.6546 14.7805C78.2778 15.2773 67.8858 14.3749 67.3458 14.2549C66.4386 14.0029 63.4458 14.0053 63.3618 14.0749C63.2778 14.1565 63.117 14.4085 63.081 14.4277L74.8482 14.4973C74.4714 14.7325 72.717 14.7277 71.6898 14.7301C70.6578 14.7229 68.5242 14.7109 68.2962 14.6389C68.145 14.5933 67.8546 14.4229 67.521 14.4277C67.317 14.4325 66.4314 14.4061 66.1818 14.4277C65.6106 14.4853 64.7082 14.9677 64.0674 15.4141C64.5954 15.4141 66.2154 15.4021 66.7458 15.3445C67.341 15.2749 68.4738 14.8669 69.0714 14.5693C69.753 14.2189 70.821 13.4581 71.1834 12.9493C71.3106 12.7597 71.3394 12.2581 71.2554 12.0325C71.1858 11.8669 70.7658 11.6461 70.5498 11.6101C70.4658 11.5981 68.457 11.5933 68.3658 11.6101C68.0322 11.6773 67.1802 13.3429 67.0266 13.9357C66.5826 15.6853 65.8938 17.3989 65.4762 18.5149C65.3058 18.8845 65.049 19.3597 64.9122 19.5709C65.8746 19.4197 66.9186 18.9541 67.6458 18.6301C68.529 18.2317 70.2138 17.4733 70.833 17.0341C70.953 16.9477 71.7378 16.3765 71.7474 16.0477C71.745 15.9781 71.685 15.6973 71.5362 15.6253C71.4474 15.5869 69.3978 15.5509 68.457 15.5461C67.4562 15.5485 66.8346 15.6373 66.1794 15.8485C65.577 16.0477 64.4706 16.5997 63.945 16.9813C63.5466 17.2765 62.2578 18.5461 62.0946 18.9373C62.0322 19.0885 62.0802 19.6957 62.0946 19.9957C62.5866 20.4301 63.753 20.5933 65.3178 20.6293C68.0442 20.6485 69.9954 20.4877 71.4042 19.9981C72.4626 19.6237 74.4666 18.3445 74.637 18.0925C74.7882 17.8525 74.4834 17.2357 74.145 17.1061C73.1682 16.7557 71.0802 16.5613 68.1546 16.5421C67.185 16.5301 66.345 16.6069 65.9706 16.7533C65.613 16.8973 64.653 17.4517 64.4202 17.6701C64.2066 17.8789 63.8802 18.4477 63.8562 18.6565C63.8394 18.8797 63.8706 19.8805 63.9258 19.9957C64.1274 20.3749 65.6562 20.6293 66.825 20.6365C67.917 20.6413 70.1106 20.6389 70.6914 20.5453C73.4418 20.0845 76.0866 18.4885 76.1178 18.4453L75.9762 18.0925C75.1794 17.9341 71.0442 17.9485 69.0642 17.9509C67.8186 17.9509 66.9282 17.9893 66.1026 18.1453C65.2554 18.3085 63.9186 18.6757 63.0306 18.9733C61.6698 19.4389 60.6282 20.0701 60.4746 20.1349C59.9826 20.2765 59.4474 20.6677 58.4442 20.9461C57.4338 21.2245 53.9202 21.8965 52.6074 22.0141C50.325 22.2229 48.2274 22.5853 47.2962 22.7437C47.889 22.0717 49.041 20.8045 49.1994 20.6989C49.3338 20.6125 49.3434 20.3917 49.269 19.9957C48.5658 19.9141 46.7898 19.9213 45.7626 19.9237C44.7666 19.9237 44.0754 20.0005 42.681 20.3653C42.5034 20.4133 40.1586 21.1141 39.2298 21.3973C38.3466 21.6733 37.0914 22.2781 36.7338 22.4293C35.613 22.9069 34.8426 23.4901 34.7538 23.4469C35.3754 22.4149 35.5986 21.9373 35.6442 21.2461C35.6682 20.7277 35.6538 20.2453 35.5986 19.9957C35.5482 19.7989 35.2194 19.6309 34.893 19.5709C34.1682 19.4605 32.8074 19.5373 32.4282 19.7845C32.0154 20.0701 31.365 21.1813 31.2306 21.5461C31.2114 21.5917 31.0938 22.2757 31.0194 22.4605C30.9666 22.5901 30.1434 23.7805 30.1026 23.8717C30.0618 23.9605 30.0138 24.4309 29.961 24.5053C29.1762 25.5877 27.9954 25.8565 27.8466 25.9141C27.885 25.4581 28.0914 25.1077 28.6218 24.6445C29.109 24.2245 30.7242 23.0749 30.8778 22.9549C31.329 22.5997 32.4042 22.0501 32.4282 21.9685L32.3562 21.5461C32.037 21.3925 31.6818 21.1981 31.653 21.1933C30.1386 20.8933 28.0266 22.0981 27.9882 22.1077C27.8802 22.2613 27.933 22.6501 27.7074 23.3773C27.4098 24.2917 26.4042 25.5157 26.2962 25.7029C26.2386 25.8061 26.2074 26.1133 26.085 26.1949C26.9274 25.6069 28.0266 24.7765 28.4826 24.5053C30.8754 23.0869 34.893 22.5997 35.0346 22.6021C35.3178 22.6117 36.8754 23.3053 37.1874 23.3893C40.1346 24.1789 42.741 24.2989 45.7458 24.2941C41.7354 24.2941 35.8314 24.2941 33.9402 24.2941C32.7234 24.2917 32.2002 24.2845 31.9338 24.4333C31.5834 24.6397 30.093 25.2829 29.2578 25.9141C29.2626 25.9837 46.869 25.9909 50.4162 25.9861C50.6058 25.9861 58.9986 25.3957 61.953 25.4197C60.201 26.0197 57.345 26.4493 55.6266 26.7037C53.7906 26.9797 50.3802 27.5365 48.8058 27.8173C46.0242 28.2493 43.197 28.5229 42.1074 28.7293C41.1474 28.9189 40.2138 29.1373 40.1802 29.2957C40.3722 29.5165 40.641 29.6989 41.0106 29.7781C41.901 29.9677 46.5138 29.9317 48.4386 29.9245C50.097 29.9149 53.4906 29.2933 54.3186 29.1805C55.1874 29.0653 59.001 28.7965 60.7194 28.4149C61.497 28.2445 67.8738 28.2397 68.1546 28.2397H65.265" stroke="#EF586A" stroke-width="2.88" stroke-linecap="round"/>
<path d="M39.8467 64.6982V64.7534L46.3819 67.883H46.4371" stroke="#EF586A" stroke-width="2.88" stroke-linecap="round"/>
<path d="M35.8939 62.7227C35.8819 62.8019 36.2059 63.2147 36.4987 63.3803C36.5011 63.3827 41.8219 65.5907 41.9347 65.6315C42.4411 65.8211 45.9883 66.7067 46.0507 66.6755L46.4899 67.0043C46.6291 66.9755 47.6851 67.7051 48.1387 67.6643C48.1939 67.6595 48.3355 67.6571 48.4123 67.6091C48.3067 67.2251 48.9571 66.5723 49.7299 65.4683C50.1019 64.9403 50.5123 62.9915 50.5003 62.8331" stroke="#EF586A" stroke-width="2.88" stroke-linecap="round"/>
<path d="M48.4268 71.0679H48.3428V70.1679L48.7532 69.5967" stroke="#C5273A" stroke-width="2.88" stroke-linecap="round"/>
<path d="M47.4424 70.2497L80.5096 20.8145" stroke="#C5273A" stroke-width="2.88" stroke-linecap="round" stroke-linejoin="round"/>
<path d="M76.2549 28.5081C76.8573 27.8745 77.2581 26.6505 77.3181 26.5425C77.7909 25.6857 77.8917 24.9873 78.0549 24.8241C78.1605 24.7209 78.2853 23.9025 78.5469 23.5953C78.6957 23.4249 79.0365 22.4505 79.0365 22.3689C79.0773 22.2873 79.3869 21.2553 79.3653 21.0585C79.3485 20.9169 79.5069 20.8065 79.5285 20.7321C79.5597 20.6265 79.4925 20.5065 79.5285 20.4033C79.5717 20.2761 79.8429 19.9665 79.8549 19.7481C79.8597 19.6785 79.8573 17.4825 79.8549 16.7217C79.8525 16.3569 79.6749 15.9033 79.6917 15.6561C79.7181 15.2481 79.5141 14.4609 79.3653 14.1825C79.3389 14.1369 79.1781 13.6377 79.2021 13.6113" stroke="#C5273A" stroke-width="2.88" stroke-linecap="round"/>
<path d="M80.3468 19.667H80.102C79.5716 20.3414 79.4828 22.007 79.3652 22.2062C79.2644 22.3742 79.0964 22.5086 79.0364 22.6958C78.9884 22.8518 79.0676 23.027 79.0364 23.1878C78.998 23.3918 78.6836 24.3422 78.3812 24.743C77.966 25.2926 77.3612 27.359 77.2364 27.6062C76.9916 27.935 75.9092 29.6054 75.5996 29.9798" stroke="#C5273A" stroke-width="2.88" stroke-linecap="round"/>
<path d="M78.8735 26.7056C78.8279 26.696 78.1295 28.2416 76.9919 29.5712C76.8407 29.7584 76.2815 30.6008 76.2551 30.6344C75.9047 31.1072 75.4775 32.312 75.2735 32.7632C75.2255 32.9216 74.7623 34.5176 74.7815 34.6448C74.7791 34.0064 74.8487 32.4776 75.1079 31.7816C75.3479 31.1528 76.9103 28.3016 77.1551 27.7712C77.2343 27.5864 77.2103 27.1664 77.2367 27.0344C77.4815 26.3384 77.7287 25.424 77.8919 24.824C77.9111 24.752 77.8799 24.3008 77.8919 24.1688C77.9039 24.0104 78.1511 23.7704 78.2183 23.6768C78.2519 23.6336 78.2423 23.3816 78.3815 22.9424C78.5495 22.4168 79.3631 22.4552 79.3655 22.532C79.3175 22.6088 79.6103 23.0072 79.6919 23.1872C79.7159 23.2376 79.6991 24.4352 79.6103 24.7424C79.4543 25.2368 76.4903 31.0352 76.0919 31.6184C75.9143 31.8752 74.7191 34.6088 74.5367 34.7264C73.9295 35.1176 72.4607 36.3056 72.4079 36.3656C72.3623 36.416 71.5631 37.5968 70.9343 38.2472C70.4639 38.7392 69.6431 40.3808 69.2063 41.1008C68.8943 41.6144 68.0639 44.504 67.9871 44.6312C67.9511 44.6 68.4287 43.1312 68.7575 42.56C69.0647 42.032 69.7031 40.3256 69.7415 40.2344C70.0055 39.6272 70.8815 38.2232 71.3159 37.532C71.7407 36.8528 72.5687 35.132 72.9623 34.436C73.2695 33.896 74.0255 33.2384 73.9631 33.008C74.0471 32.9384 74.7359 31.8968 74.5367 31.6184C74.2079 31.8968 71.6663 36.6536 71.5895 36.7736C71.5223 36.8768 68.4287 40.9808 68.0687 41.5208C67.1471 42.9176 66.2183 45.5456 66.1055 46.268C66.2183 46.1912 66.7439 45.308 67.4159 44.7128C67.6559 44.4704 68.4935 43.8104 68.8487 43.0472C69.4439 41.756 71.4647 38.804 72.0671 38.2376C72.7031 37.6376 73.1255 36.8168 73.1447 36.5288C73.1495 36.4184 73.1663 36.1256 73.3079 35.9552C73.3943 36.2288 73.3823 36.5096 73.2263 37.0184C73.1039 37.4096 71.9831 39.356 70.3151 41.924C70.0871 42.2744 67.8239 45.4592 67.3319 46.0232C66.3191 47.1368 64.1783 50.1128 64.0583 50.36C63.4871 51.4664 62.5847 53.1032 62.2583 53.6336C62.1647 53.84 62.0927 54.2936 61.8503 54.6176C61.2839 55.5608 61.0439 55.8416 60.7031 56.1728" stroke="#C5273A" stroke-width="2.88" stroke-linecap="round"/>
<path d="M66.4321 46.679L65.8609 46.7606C65.7409 47.0078 65.5681 47.3054 65.4505 47.4134C65.4049 47.4566 64.0393 48.3254 63.4441 48.7886C61.1545 50.5862 58.0201 54.8582 57.7129 55.511C57.3433 56.2766 56.6065 57.8894 56.3833 58.6094C56.2849 58.9382 55.9825 61.5206 55.9561 61.739C55.8865 62.339 55.2673 63.6926 55.3009 63.7838C55.6465 63.2822 57.3433 61.115 60.6289 56.5742C62.2105 54.3518 64.3273 51.4574 64.3873 51.3422C64.4737 51.167 64.4521 49.1702 64.5505 49.0526C64.6033 48.995 64.6609 48.9422 64.7137 48.887C64.5769 48.923 61.5769 50.9678 60.7033 51.8342C60.2329 52.3118 58.5409 54.6038 57.8377 56.4182C57.7225 56.7206 57.3625 58.5734 57.0241 59.2262C56.7169 59.8142 56.0161 61.2446 56.1193 61.6574C56.2897 61.523 58.5505 57.983 59.5465 55.967C59.9233 55.2014 60.5233 52.799 60.5401 52.6526C60.5593 52.4894 60.5713 52.0646 60.7849 51.9158C60.8641 51.8942 60.8689 54.023 60.8665 54.0446C60.7969 54.8294 60.3697 56.2262 59.8849 57.3182C59.5921 57.959 58.7929 59.7518 58.7401 59.855C58.3417 60.623 58.1449 61.427 57.7561 62.4758C57.8545 62.255 60.2593 59.4902 61.0657 58.3358C61.6393 57.5054 62.3977 55.6766 62.5033 55.4366C62.6257 55.1558 63.6505 52.8542 63.9769 52.4078C64.0969 52.2422 64.6201 51.6062 64.7137 51.4262C65.1409 50.5838 65.3377 49.7198 65.2873 48.9686C65.2681 48.7406 65.5393 47.4422 65.6137 47.3318C65.8129 47.051 65.7673 46.6046 65.9425 46.4318C66.2209 46.1654 67.0705 45.3278 67.1689 45.3686C67.2601 45.3686 67.2529 47.8718 67.2505 47.9054C67.2313 48.4142 65.8945 50.9702 64.7137 52.571C64.6249 52.691 60.9313 56.9126 60.7321 57.2006C60.3097 57.8318 57.9673 61.235 57.6025 62.0486C57.2881 62.7518 56.8345 63.3854 56.5297 64.031C56.4889 64.1198 55.5817 65.9918 55.3825 66.3206C55.2745 66.503 51.3241 72.0806 51.2089 72.623C51.1993 72.6782 51.1657 72.875 50.8825 73.2782C51.2329 72.8822 53.2753 69.9902 53.5009 69.5126C54.1729 68.0606 54.4441 65.4446 54.5641 65.0942C54.6577 64.8302 55.7929 62.6198 55.7929 62.3102C55.7161 62.1542 55.2505 62.2598 54.8113 62.639C54.7081 62.7302 54.2401 63.0878 54.0745 63.2942C53.2945 64.367 51.0457 67.655 50.8297 67.907C50.4097 68.3966 49.6609 69.5078 49.2457 70.331C49.1977 70.4246 48.4081 72.5174 48.2617 72.7886C48.7993 72.6638 49.0681 72.5726 49.2265 72.4142C49.6105 72.0326 52.7065 68.4278 53.3281 67.7942C53.6881 67.4174 53.9593 66.731 54.0745 66.4046C54.3625 66.9134 54.3313 67.7966 54.2377 68.4494C54.1273 69.3446 53.5153 70.6382 53.4001 70.9886C52.9009 72.4766 52.8889 73.2086 52.8457 73.2782C52.7353 73.4606 52.3753 73.847 52.2721 74.0966C52.0441 74.627 51.8761 74.8382 51.6193 74.8334C51.4873 74.8286 50.4697 74.8214 50.3905 74.7518L50.3089 74.0966L50.2273 76.8806L49.9825 76.9622C49.9081 76.8878 49.9297 76.4678 49.8985 76.307C49.8985 76.307 49.6849 75.9854 49.5721 75.7334C49.4305 75.9422 49.4161 76.3886 49.4089 76.5518C49.4065 76.5686 49.1185 76.9718 48.9985 77.2886C48.8953 76.3814 49.0081 75.8654 49.0801 75.0782C49.0873 75.0278 49.1137 74.9726 49.1617 74.915C49.3705 75.2558 49.4449 75.551 49.4353 76.1654C49.4185 77.7422 49.3825 78.4118 49.0801 78.7622" stroke="#C5273A" stroke-width="2.88" stroke-linecap="round"/>
<path d="M5.20996 55.0264C6.83476 55.0288 10.7156 55.0288 11.3612 55.1128C14.2388 55.5064 15.0284 55.7272 16.3412 55.8448C16.478 55.8592 17.282 55.9144 18.2228 56.2552C18.434 56.332 18.986 56.4784 19.0412 56.5C19.1228 56.5288 19.4372 56.764 19.5332 56.8264C19.5572 56.8432 20.762 56.9512 20.9252 56.992C21.1004 57.052 21.4964 57.3184 21.4964 57.3184C21.602 57.3472 22.574 57.5224 23.5436 57.7288C24.1172 57.9328 25.0964 58.2232 25.754 58.4632C25.802 58.4824 27.6764 58.7104 28.046 58.8736C28.5188 59.0848 29.714 59.3104 29.9276 59.4472C30.3524 59.716 31.5884 59.8072 32.1644 60.1024C32.6012 60.3304 33.7148 60.58 33.7748 60.592C34.0988 60.6712 34.31 60.9184 34.3484 60.9208C34.8692 60.952 38.4476 62.2096 38.8484 62.2288C39.5012 62.2624 40.6964 62.4856 41.4692 62.5576C42.182 62.6176 43.7036 63.1072 44.006 63.2104C44.4164 63.3544 44.99 63.3448 45.1508 63.376C45.266 63.3952 45.5396 63.6952 45.5612 63.7024C45.8948 63.7024 47.09 64.2184 47.1164 64.1944" stroke="#8EC58E" stroke-width="2.88" stroke-linecap="round"/>
<path d="M20.5967 56.6631C21.9983 56.6103 28.5863 58.6287 28.9847 58.7127C30.2063 58.9455 30.8519 58.9551 31.1567 59.0367C31.8119 59.1999 32.7863 59.4711 33.0383 59.6103C33.3095 59.7639 34.1207 60.1119 34.3487 60.1023C34.4351 60.0975 35.0375 60.4167 35.0855 60.4287C35.5079 60.5295 38.3879 60.8919 39.0959 61.1655C40.1375 61.5663 40.6199 61.5807 40.8143 61.6575C40.9751 61.7199 42.7271 62.3343 43.5143 62.8839C43.5671 62.9199 44.6879 63.2103 44.7431 63.2103C44.8847 63.2175 45.1367 63.4743 45.2351 63.5391C45.2807 63.5679 46.1279 63.7599 46.2983 63.8655C46.5215 64.0095 46.7663 64.0359 46.9535 64.2759C47.0111 64.3479 47.6087 64.4223 47.7719 64.6023C47.9591 64.8183 48.2207 64.9575 48.4271 65.1759" stroke="#8EC58E" stroke-width="2.88" stroke-linecap="round"/>
<path d="M49.0793 65.668V65.7496C48.8537 66.0064 47.1113 67.1848 46.7873 67.7128C46.7249 67.8184 45.9281 69.1024 45.8057 69.268" stroke="#8EC58E" stroke-width="2.88" stroke-linecap="round"/>
<path d="M4.0625 57.3176C7.1633 57.3248 9.0689 57.3008 9.1385 57.3176C9.3881 57.3824 10.0409 57.6104 10.3649 57.6272C12.8129 57.764 15.6977 58.28 16.5041 58.3808C17.1137 58.4528 17.5265 58.4624 17.7329 58.4624C17.9729 58.4792 18.5945 58.748 19.6961 58.8728C20.5553 58.9568 21.4409 58.9496 22.0697 59.1176C22.1921 59.1512 22.6073 59.4152 22.7249 59.4464C24.8201 59.9912 26.4857 60.464 26.5721 60.5096C26.9609 60.7136 27.6977 60.7952 28.2089 61.0832C28.3793 61.1792 31.2977 62.0936 31.8113 62.3096C31.8665 62.3336 32.8865 62.4776 33.3617 62.5568C34.2761 62.708 35.7809 62.696 35.9849 62.72C36.0449 62.7272 37.6697 63.1736 38.1953 63.2096C38.3993 63.224 39.0041 63.1976 39.0953 63.2096C39.3881 63.2504 40.3889 63.6992 40.4033 63.7016C40.6985 63.7568 42.3689 63.8528 42.6137 63.8648C42.6473 63.8672 43.2281 64.1936 43.5953 64.3568C43.7009 64.3904 45.0305 64.6064 45.1505 64.7648C45.4529 65.2376 46.5113 65.4128 46.7873 65.7488C45.2105 65.972 44.2841 65.7872 41.8769 65.2568C40.8473 65.0696 38.7377 64.3928 38.6033 64.3568C37.3745 64.0136 35.9537 63.2696 35.8217 63.2096C35.3801 63.0128 34.2017 62.3048 33.7745 62.1464C33.5393 62.0624 27.9521 60.5816 26.8169 60.1832C26.5649 60.0944 23.0225 59.3552 21.1697 59.1992C20.9441 59.1824 19.2017 59.1224 18.8777 58.9544C18.6137 58.8176 17.6945 58.6184 17.4089 58.6208C15.7097 58.6256 13.7009 58.628 13.3937 58.628" stroke="#8EC58E" stroke-width="2.88" stroke-linecap="round"/>
<path d="M6.19141 58.1363C6.98101 58.1219 10.3986 58.3715 13.305 59.3651C14.6466 59.8211 17.049 60.1091 18.2658 60.2699C19.905 60.4595 21.2346 60.7859 22.7394 61.2731C23.1306 61.4003 23.8458 61.3763 24.117 61.4099C24.4722 61.4555 25.7562 61.9115 26.9682 62.0891C27.4578 62.1635 27.9906 62.2955 28.2978 62.4131C28.341 62.4275 37.1418 63.7019 37.9482 63.7019C39.0354 63.8195 39.9714 64.4555 40.569 64.5203C41.1306 64.5803 41.721 65.0987 42.4506 65.3387C42.5442 65.3699 42.8178 65.4779 43.269 65.6675H42.6954" stroke="#8EC58E" stroke-width="2.88" stroke-linecap="round"/>
<path d="M28.6201 62.2285C28.6273 62.2429 31.1977 63.0061 32.3833 63.3757C32.4601 63.4021 32.8129 63.6877 32.8753 63.7021C33.3793 63.8245 34.1137 64.2013 34.7377 64.2589C35.2993 64.3069 36.0649 64.7845 36.5593 64.8493C36.8353 64.8829 37.7665 65.0845 37.7857 65.0941C37.9009 65.1493 38.2729 65.4853 38.3593 65.5021C38.4985 65.5309 39.0313 65.4877 39.0961 65.5021C39.6985 65.6557 40.1065 65.9437 40.2409 65.9941C40.5289 66.1573 41.7433 66.5461 41.7961 66.5677C43.9657 67.4149 44.3689 67.9213 44.5801 68.1229L45.3985 68.4493H45.4801" stroke="#8EC58E" stroke-width="2.88" stroke-linecap="round"/>
<path d="M49.8977 66.8129C49.8929 66.8441 49.9217 67.1369 49.8977 67.2233C49.8377 67.4633 49.3961 67.9625 49.3265 68.1233C49.2569 68.2745 49.1945 68.8001 48.9977 69.1049C48.7577 69.4865 48.7505 70.2329 48.4265 70.5785C48.2753 70.7321 48.2441 70.9409 48.2609 71.4785C48.2177 71.0705 48.6329 70.1273 48.9977 69.5969C49.0001 69.5921 49.5593 68.9081 49.5713 68.6945C49.5881 68.3825 49.8785 67.2737 49.8977 67.2233C50.0729 66.7865 50.0585 66.4697 50.0633 66.2393C49.9241 66.6689 49.8761 66.7841 49.7345 66.8945C49.2881 67.2449 48.1937 68.3345 48.1793 68.3681C47.9777 68.8481 47.5721 69.4529 47.5241 69.5129C47.4857 69.5609 46.5257 70.3553 46.4609 70.4969L46.9529 70.5785" stroke="#579D57" stroke-width="2.88" stroke-linecap="round"/>
<path d="M49.8978 66.6494C49.8714 67.5806 50.0418 68.1374 50.0634 68.6126C50.0634 68.627 50.3994 69.1742 50.3922 69.863C50.3658 71.459 50.2386 72.3638 50.145 72.5414C49.8978 72.9518 49.6266 73.5398 49.5714 73.607C49.509 73.6814 49.0698 73.943 48.9978 74.0966C48.9282 74.2478 48.8106 74.7926 48.753 74.915C48.561 74.7974 48.453 74.7158 48.4266 74.6702C48.2322 74.3342 48.2634 72.191 48.261 71.9702C48.2442 71.9486 48.6834 73.1822 48.753 73.4414C49.1922 75.2318 48.8346 76.0622 48.753 76.2254C49.1418 76.0766 50.1426 75.4094 50.4714 75.0782C50.997 74.5526 51.6906 73.547 51.7002 73.3598C51.7026 73.2206 51.8562 71.8358 51.8586 71.2166C51.8562 70.6166 51.8778 69.7478 51.8634 69.6782C51.6738 68.7854 51.4074 68.4782 51.2898 68.2862L51.045 68.3678C51.0642 68.9126 50.9082 69.8438 50.8818 70.0046C50.8122 70.4126 49.9122 72.0086 49.5714 72.3782C48.4986 73.5326 48.1698 74.6774 47.853 74.9966C47.7786 75.071 47.7618 75.4502 47.6898 75.4886C47.481 75.419 47.4042 75.227 47.4234 74.6894C47.4498 73.691 47.4546 72.1886 47.5242 72.1334C47.7954 72.3038 47.925 72.4814 47.9346 72.7886C47.937 72.8486 47.9418 75.8318 47.9346 75.899C47.8434 76.667 47.3586 77.0846 47.1162 77.6174" stroke="#579D57" stroke-width="2.88" stroke-linecap="round"/>
<path d="M52.0266 64.8495C52.1154 65.2383 52.6818 66.1407 52.6818 66.1575C52.701 66.5103 53.325 67.5879 53.337 67.8759C53.3394 67.9455 53.337 71.3151 53.337 71.4783C53.3322 70.9527 53.1858 69.1407 53.0898 68.8599C52.8546 68.1711 51.6762 65.9127 51.7002 65.2575C51.717 64.7751 51.5346 64.4559 51.1266 64.1943C51.0378 64.3095 51.2994 65.3991 51.3714 65.5023C51.6762 65.9487 51.8778 67.2687 52.0266 67.5495C52.3314 68.1231 52.401 68.3655 52.377 68.8479C52.353 69.2895 52.3554 70.3263 52.3554 70.3311C52.3266 70.5567 52.0098 72.4575 52.0266 72.6231C52.0362 72.7191 51.8394 73.3551 51.8634 73.5255" stroke="#C5273A" stroke-width="2.88" stroke-linecap="round"/>
<path d="M49.5713 66.3203H49.6529C49.7753 66.4523 49.8977 66.5555 49.8977 66.5675C49.9577 67.0283 50.2769 67.6283 50.2265 68.0411C50.2241 68.0627 50.5577 69.6563 50.6345 69.7595C50.7281 69.8843 50.7209 70.8155 50.7185 71.3747C50.7209 71.7203 50.8889 72.6563 50.8817 73.1147C50.8769 73.2779 50.8769 73.5779 50.8817 74.0147" stroke="#579D57" stroke-width="2.88" stroke-linecap="round"/>
<path d="M3.73633 59.7734C4.00273 60.4958 4.38913 61.2398 4.39153 61.247C4.46113 61.4798 4.67233 61.5926 4.71793 61.6574V61.739" stroke="#2F742F" stroke-width="2.88" stroke-linecap="round"/>
<path d="M3.57324 59.9365V60.0181C3.62844 60.0853 4.40604 60.7669 4.55484 60.8365C4.94364 61.0189 5.93724 61.0933 6.35484 61.0837" stroke="#2F742F" stroke-width="2.88" stroke-linecap="round"/>
<path d="M4.8814 60.4287H4.7998C5.1958 60.7863 6.6478 61.1703 7.4782 61.4295C7.9822 61.6239 9.3262 61.9503 9.4654 61.9839C9.871 62.0775 10.999 62.0391 11.5126 62.2287C11.9206 62.3511 12.9646 62.7207 12.9862 62.7207C13.0942 62.7231 13.6222 62.7927 13.9678 62.9655C14.0062 62.9847 15.115 63.1839 15.1966 63.2103C15.403 63.2847 16.8046 63.6519 16.9966 63.7023C17.7574 63.9015 18.6886 64.2039 18.8782 64.1943C12.4558 63.5223 6.1606 63.5391 6.1102 63.4575C6.331 63.3639 6.6358 63.3975 7.0102 63.6207C7.8166 64.1055 8.587 64.8519 8.8942 65.0127C9.1798 65.1615 10.2166 65.6415 10.4494 65.6679C11.0998 65.7399 11.1142 65.7759 11.1838 65.8311C11.2558 65.7951 13.8526 66.5967 14.131 66.6495C14.395 66.6999 15.9934 67.4559 16.3414 67.5495C16.6126 67.6215 17.2462 67.5951 17.4046 67.6311C17.5246 67.6575 17.7574 67.8015 18.0598 67.7943C18.6022 67.7751 18.9454 67.5783 19.0414 67.4679C19.0726 67.4319 19.1662 67.0575 19.207 66.8943C20.5006 66.2871 20.6854 65.8647 20.6782 65.8311C20.1502 65.6415 19.2934 65.6703 18.4078 65.6703C16.639 65.6679 14.7454 65.6679 14.623 65.6679C14.3806 65.3271 14.3686 64.9671 14.131 64.4391C13.8598 63.8487 13.4038 63.3807 12.5758 62.9655C11.8246 62.5479 9.727 61.6503 9.6286 61.7391" stroke="#2F742F" stroke-width="2.88" stroke-linecap="round"/>
<path d="M7.17285 61.4102C7.94805 61.4846 9.17685 61.7798 10.0385 62.0654C10.1273 62.0942 12.3881 62.363 12.5753 62.3918C12.7217 62.4182 16.0168 63.3734 16.4224 63.539C16.7296 63.6662 17.2168 63.6806 17.3224 63.7022C17.4976 63.7358 17.8432 64.0214 17.896 64.031C18.7552 64.0718 20.1473 64.1534 20.6777 64.1942C21.2105 64.2758 23.5601 64.703 23.8721 64.6838" stroke="#2F742F" stroke-width="2.88" stroke-linecap="round"/>
<path d="M7.00977 61.2471C10.6122 61.2471 12.705 61.4799 12.7386 61.4919C12.993 61.5903 13.3578 61.9431 13.8858 62.0655C13.9818 62.0871 14.2962 62.0415 14.3754 62.0655C14.4642 62.0895 16.017 62.6799 16.2594 62.7207C17.6154 62.9463 18.9714 63.7527 19.9434 63.8655C20.9898 63.9783 24.8514 64.6791 24.9354 64.6839C24.9378 64.6839 25.8858 64.8951 26.817 64.8495C27.153 64.8327 27.3498 64.8759 27.5538 65.0127C27.7746 65.1615 28.3194 65.1519 28.5354 65.1759C28.7394 65.1975 30.0834 65.7735 30.501 65.8311C31.0626 65.8311 31.6266 66.2535 31.8114 66.3207C31.9386 66.3687 32.9778 66.5247 33.969 66.8415C34.4898 67.0071 35.565 66.9663 36.5586 67.1391C37.0146 67.2255 37.2426 67.3815 37.7034 67.4679C37.8738 67.4991 38.361 67.6119 38.4402 67.6311C38.5938 67.6695 38.7618 67.9935 38.8482 68.0415C39.0234 68.1351 42.8634 69.4959 43.269 69.7599C43.7418 69.9951 43.905 70.2759 44.0874 70.4967C44.1858 70.6167 44.5866 71.0007 44.661 71.1519C44.7906 71.4111 44.8362 72.2031 45.069 72.4599C45.1482 72.5415 45.4794 73.2423 45.4794 73.3599C45.4794 73.4727 45.837 74.3823 45.8874 74.4255C45.9666 74.4879 45.9354 75.1911 45.969 75.4887C45.981 75.5895 46.4394 76.2711 46.461 76.4703C46.4802 76.6623 46.6602 76.9335 46.7058 77.1255C46.3746 77.1279 46.0338 77.1135 45.8874 77.0439C45.8058 77.0055 45.1146 76.5135 44.9874 76.4703C44.2866 76.2255 43.4418 75.8319 43.269 75.8151C43.0242 75.7935 42.7698 75.8775 42.5322 75.8151C42.453 75.7959 41.4714 75.2799 41.2218 75.2439C39.8178 75.0207 39.0258 74.6919 38.6946 74.6103C38.265 74.5071 32.2866 74.4999 32.0562 74.5887C32.313 74.8671 33.8586 75.0831 34.2666 75.1623C36.741 75.6351 37.653 75.6255 37.7034 75.6519C37.9098 75.7647 39.4722 76.6935 39.9954 76.7991C40.1298 76.8255 40.677 76.8327 40.8954 76.9623C41.1978 77.1351 41.877 77.1255 43.9242 77.1255L43.6794 76.7991" stroke="#2F742F" stroke-width="2.88" stroke-linecap="round"/>
<path d="M19.4517 65.0127H19.3701C19.4589 65.3007 20.7405 65.6199 21.9333 65.7831C22.8285 65.9031 26.5149 66.9687 26.6541 67.0575C26.7549 67.1247 27.7557 67.2303 28.6197 67.6311C28.8405 67.7367 31.8237 68.5479 33.4485 68.8599C33.6669 68.9007 35.4813 70.0119 35.5749 70.1679C35.6805 70.3527 35.6397 70.6983 35.4933 71.1519C35.4357 71.3151 34.5189 72.0015 34.1013 72.1335C33.9045 72.1935 33.0837 72.8247 32.9565 73.1151C33.1749 72.5631 33.5109 72.0015 33.8565 71.7231C34.0581 71.5623 35.4333 70.5423 35.4933 70.4967C35.5221 70.4727 35.9229 70.2423 36.3141 70.2471C36.9837 70.2591 37.9005 70.2327 38.9325 70.4151C39.1437 70.4511 41.5461 70.7703 41.6325 70.8231C41.8077 70.9983 42.1749 71.1087 42.3693 71.3151C42.3549 71.4063 42.6741 72.0831 42.6957 72.1335C43.0005 72.6399 43.0557 73.3719 42.9429 73.5255C42.8973 73.5159 41.8221 73.8879 41.0061 73.8831C39.6141 73.8495 39.2733 73.8639 38.6853 73.6071C38.4669 73.5063 36.4749 71.9295 35.7405 71.3151C35.6349 71.2407 34.5621 70.5399 34.5117 70.4967C34.0989 70.1151 34.5453 69.4647 34.5933 69.4311C34.7109 69.4647 35.3493 69.0231 35.7405 69.1047C36.0669 69.1863 36.6717 69.3015 36.8037 69.3495C36.8949 69.3855 37.9725 69.9807 38.1141 70.2495C38.6037 71.2647 39.3525 71.7543 39.5037 71.9703C39.5757 72.0711 40.8549 72.5127 41.2221 72.6231C41.3637 72.6663 42.6813 72.9015 42.9429 73.0335C43.5045 73.3191 44.1525 73.5567 44.8245 74.0151C45.0549 74.1759 45.6069 74.4519 45.7245 74.5887C45.8013 74.6751 46.0125 74.8887 46.0533 74.9967L44.9877 74.6703" stroke="#2F742F" stroke-width="2.88" stroke-linecap="round"/>
<path d="M12.5752 62.8838C14.2936 62.8838 16.8064 62.8766 19.216 63.143C19.7152 63.1982 21.604 63.5942 21.976 63.6638C22.6408 63.791 24.0736 64.0118 24.4432 64.2758C24.7024 64.463 27.2368 65.0918 28.2088 65.4206C29.8792 65.9942 31.1128 66.299 31.2376 66.3206C31.504 66.3734 31.972 66.2942 32.056 66.3206C34.3552 67.2062 35.2312 67.3118 35.4928 67.3046" stroke="#2F742F" stroke-width="2.88" stroke-linecap="round"/>
<path d="M4.44922 62.4202L4.60522 62.3434C4.60522 61.7482 4.61002 59.7898 4.60522 59.6962C4.59082 59.353 5.21242 57.9394 5.30602 57.9034C5.82922 57.733 7.13482 57.7641 7.17562 57.7497C7.21162 57.7329 7.26442 57.6825 7.33162 57.5938C7.42762 57.8481 6.66442 58.2393 6.23962 58.6041C6.19642 58.6425 5.88202 58.8873 5.77402 58.9953L4.76122 59.6169" stroke="#8EC58E" stroke-width="1.92" stroke-linecap="round"/>
<path d="M6.73929 53.0625H6.57129" stroke="#EFB3BA" stroke-width="2.4" stroke-linecap="round"/>
<path d="M6.57129 53.0626L32.9713 17.6914" stroke="#EFB3BA" stroke-width="2.4" stroke-linecap="round" stroke-linejoin="round"/>
<path d="M32.9707 17.6914L7.07715 53.401" stroke="#EFB3BA" stroke-width="2.4" stroke-linecap="round" stroke-linejoin="round"/>
<path d="M31.7852 19.0477C32.678 19.0501 35.2532 19.0525 35.51 19.0477C36.1316 19.0309 38.2364 18.5077 38.4716 18.3709C39.0308 18.0421 39.8804 18.0253 40.3316 17.8621C40.442 17.8213 40.9604 17.7205 41.0084 17.6917C43.0004 16.5925 44.9852 15.7693 45.7484 15.3229C45.962 15.1933 46.9484 14.0101 47.102 13.7149C47.1044 13.7101 47.3636 13.2277 47.3564 12.5317C47.3516 11.9461 47.8676 10.1461 47.6948 8.89326C47.678 8.78046 46.6508 7.31406 46.6796 6.52446C46.682 6.42126 46.6916 5.41086 46.7636 5.25486C47.2004 5.14926 47.7356 4.86606 47.9492 4.83006C48.626 4.83006 50.1164 4.69566 50.6564 4.66206C51.8156 4.46766 59.4332 4.35006 59.9636 4.15326C60.1076 4.10286 60.5588 3.94926 60.9788 3.98526C61.5068 4.02606 62.15 3.72366 62.4188 3.64686C62.5244 3.61566 65.1332 3.66846 66.0572 3.64686C66.8684 3.62766 67.6796 3.91566 67.9172 4.15326C68.2556 4.32366 70.0075 5.31246 70.6267 5.93166C72.5011 7.78686 73.1924 8.14686 73.7564 8.72286" stroke="#EFB3BA" stroke-width="2.4" stroke-linecap="round"/>
<path d="M63.6016 5.16895C63.904 5.17135 65.4328 5.21214 65.956 5.41374C66.46 5.61294 67.228 6.11454 67.8136 6.28494C69.1072 6.66654 69.7624 6.87774 70.456 6.86334C70.6264 6.85614 71.3056 6.86094 71.5552 6.86334" stroke="#EFB3BA" stroke-width="2.4" stroke-linecap="round"/>
<path d="M49.387 5.5068C49.0558 5.4804 48.6262 6.0156 48.2878 6.354C48.2206 6.4308 47.659 7.1508 47.4406 7.3692C47.2126 7.6284 47.1718 7.8924 47.2726 8.13L49.7254 6.0156" stroke="#EFB3BA" stroke-width="2.4" stroke-linecap="round"/>
<path d="M49.0484 7.20081C48.9956 7.05201 49.1828 6.68721 49.4708 6.43761C50.2916 5.73921 52.1348 4.91601 52.6868 4.49121C52.0388 4.76961 51.2492 5.50641 50.7404 6.01521C50.5028 6.20961 49.8068 6.61041 49.4708 6.77601C48.9092 7.05201 48.1748 7.95201 47.5244 8.38401C47.4644 8.42721 47.4092 8.48481 47.3564 8.55441" stroke="#EFB3BA" stroke-width="2.4" stroke-linecap="round"/>
<path d="M8.76953 52.3857H10.1255" stroke="#EFB3BA" stroke-width="2.4" stroke-linecap="round"/>
<path d="M10.125 52.3863L32.6322 18.5391" stroke="#EFB3BA" stroke-width="2.4" stroke-linecap="round" stroke-linejoin="round"/>
<path d="M6.89277 55.6838L5.32556 57.4646C5.44796 56.8766 6.90236 56.2526 7.05356 56.0606C7.30076 55.7342 7.55516 55.0502 7.54076 54.9806L7.86476 54.5486C7.63676 54.5054 7.24076 54.9878 6.78476 55.4126C5.20796 56.891 4.62716 58.9382 4.62476 58.9766C4.61516 59.1926 4.61516 61.0958 4.67756 61.2446C4.87196 60.8054 5.10956 58.8686 5.16476 58.3838C5.17196 58.343 6.24237 56.9246 6.35277 56.8166C6.46077 56.7086 7.30076 55.7726 7.37756 55.6838L7.86476 55.4678" stroke="#9FDD9F" stroke-width="2.4" stroke-linecap="round"/>
<path d="M56.0178 51.875C56.0298 52.6406 56.001 53.099 55.8906 53.3414C55.8906 53.3414 54.4698 55.6118 54.4242 55.7006H54.3594" stroke="#EF586A" stroke-width="2.4" stroke-linecap="round"/>
<path d="M50.6614 64.2473H50.599L50.5342 64.1201" stroke="#9D1F2E" stroke-width="1.44" stroke-linecap="round"/>
<path d="M50.5342 64.1195L78.4678 21.5195" stroke="#9D1F2E" stroke-width="1.44" stroke-linecap="round" stroke-linejoin="round"/>
<path d="M78.4677 14.1201C78.4485 14.3241 78.6021 15.0657 78.6069 16.4049C78.6045 17.3961 78.5973 19.1553 78.5949 19.9233C78.5877 21.3633 78.6045 21.5865 78.4029 21.9657C78.3381 22.1553 78.2565 22.3809 78.2109 22.4745V22.1553" stroke="#9D1F2E" stroke-width="1.44" stroke-linecap="round"/>
<path d="M76.2979 24.5797C76.3699 24.1525 77.0035 22.7989 77.0635 22.4125C77.1931 21.5101 77.4187 21.2941 77.5747 21.2005C77.5411 20.9821 77.9611 20.1781 78.1483 19.4149C78.1771 19.2877 78.4843 17.9173 78.4675 17.5645" stroke="#9D1F2E" stroke-width="1.44" stroke-linecap="round"/>
<path d="M76.6816 27.642C77.08 27.21 77.4544 26.2212 77.6368 25.7916C77.7088 25.6236 78.0856 25.1028 78.148 24.9636C78.1912 24.8628 78.5248 24.0468 78.6568 23.1132C78.7072 22.8996 78.9664 22.7052 78.976 22.602C78.9976 22.422 79.0408 21.1356 79.1032 20.946C79.1368 20.814 79.5952 19.1412 79.7416 18.9036C79.8952 18.6492 79.9936 16.8684 79.996 16.7988" stroke="#C5273A" stroke-width="1.44" stroke-linecap="round"/>
<path d="M49.5503 65.2881L49.6439 65.3337C49.4687 65.5713 48.1703 67.2225 47.9231 67.7529C47.9063 67.7913 47.6207 68.4225 47.5055 68.4969L47.1335 69.2409C47.0183 69.5889 46.8479 69.8337 46.8071 69.8913C46.6631 70.0881 45.9719 70.0209 45.8783 69.9849L46.5287 69.5649L46.9007 69.4737L47.1335 69.2409L43.9727 69.7521" stroke="#2F742F" stroke-width="1.44" stroke-linecap="round"/>
<path d="M15.045 82.0889C14.5482 82.0577 14.2122 82.1369 14.157 82.3553C14.1426 82.4105 14.1426 82.5305 14.157 82.7105C14.5434 82.8377 15.0234 83.1713 15.1338 83.2433C15.2706 83.3297 15.9066 83.3249 16.2018 83.3321C16.8618 83.3417 17.1402 83.2913 17.625 83.0657C17.9658 82.9073 18.453 82.6337 18.5154 82.6217C18.6594 82.5953 19.2546 82.5929 19.581 82.4441C19.761 82.3625 22.8738 80.6801 22.9626 80.6657C23.3202 80.5937 23.685 80.3225 24.0282 79.8641C24.2898 79.5113 24.297 79.1537 24.6522 78.7961C24.6906 78.7433 25.1394 78.3641 25.2738 78.1745C25.3338 78.0905 25.3626 77.9417 25.3626 77.7305C25.0314 77.6105 23.877 77.8505 22.6938 78.0785C21.9762 78.2225 18.2106 79.8785 17.8314 80.1017C16.9554 80.6177 13.9578 81.3833 13.7994 81.4649C13.6314 81.5537 13.2594 81.8801 13.0002 81.9089C12.9186 81.7121 12.897 81.4841 13.0002 81.3761C13.1418 81.2345 15.5802 80.5313 16.113 80.3969C16.9962 80.0417 17.8194 79.0505 17.8914 78.9737C17.721 78.7457 18.8922 76.6601 18.9594 76.1273C18.9642 76.0817 19.5114 74.8025 19.581 74.6153C18.3882 75.1193 17.8578 75.4361 17.1066 76.2065C16.581 76.7537 14.8914 78.4313 14.6898 78.6185C14.9706 78.3977 16.1106 77.6705 16.3794 77.3729C16.7682 76.9457 17.2818 76.7849 17.6754 76.4177C18.1386 75.9857 19.0938 75.0137 19.137 74.9729C19.2906 74.8265 19.3578 74.4953 19.4034 74.4377C19.5426 74.2649 20.2122 73.6097 20.205 73.4609C20.3226 73.3697 22.3218 71.6585 22.4274 71.5913C22.4778 71.5601 22.713 71.5865 22.785 71.5025C22.8282 71.4521 23.2266 70.9721 23.229 70.9697C23.277 70.7897 23.157 70.3745 22.9626 70.2569C22.5618 70.0793 22.125 69.8825 22.0722 69.9017C22.7634 70.1777 24.4386 70.4393 25.3626 70.7033C25.4394 70.7153 27.5898 70.7057 27.6762 70.7033C28.0602 70.6913 28.2162 70.7225 28.4778 70.8809C28.773 71.0729 28.9026 71.2433 28.9218 71.5025C28.9458 72.4889 28.845 72.8105 28.3362 73.1489C26.8938 74.0657 23.8506 75.3137 22.9626 75.3281C22.6962 75.3305 21.8394 75.3617 21.4506 75.5057C21.1506 75.6233 21.0402 76.3097 20.8266 76.8401C20.577 77.4545 19.9482 78.6593 19.8498 79.1537C19.833 79.2305 19.8546 79.5785 19.8498 79.6865C20.2458 79.7345 20.5578 79.6241 20.9154 79.2425C21.3618 78.7673 21.801 78.0569 22.605 77.1953C23.4426 76.3217 24.1626 76.1417 24.741 75.1505C24.9666 74.7545 25.149 74.6033 25.185 74.5265C25.2834 74.3369 25.3986 73.8521 25.4514 73.8161C25.7514 73.6169 26.1138 73.5137 26.3418 73.5497C26.6082 73.9769 26.6202 74.1257 26.6082 75.5057C26.577 76.3961 25.0002 77.7377 24.3858 77.9969C24.3666 78.0041 23.661 78.8105 23.5842 78.8849C23.0538 79.4057 22.5474 79.5785 22.4274 79.6865C22.2522 79.8497 21.9738 80.6729 21.8946 80.8433C21.7722 81.1073 20.6802 82.3793 20.4714 82.4441C20.2434 82.5113 19.5594 82.9025 19.4034 82.9769C19.053 83.1449 18.7698 83.4377 18.693 83.6009C18.981 83.5313 19.7682 82.8257 20.1234 82.3217C20.9922 81.0713 22.2186 79.9289 22.5162 79.3313C22.7082 78.9425 23.3754 77.1833 23.4066 77.0177C23.421 76.9313 23.409 73.6769 23.4066 73.5497C23.3874 72.7817 23.5938 71.9969 23.673 71.8601C23.9634 71.7473 26.0538 71.7953 26.3418 71.7689C26.8314 71.6801 27.8322 71.5433 28.5666 71.5913C28.8042 71.6081 28.9338 71.4449 29.0106 71.4137C29.0394 71.4017 29.493 71.4185 29.8098 71.4137" stroke="#FFC5AA" stroke-width="4.08" stroke-linecap="round"/>
<path d="M12.9523 81.9561C12.9355 82.2969 14.0923 83.2569 14.3827 83.3865C15.2419 83.7681 17.2675 84.1473 19.1083 84.3561C19.5955 84.4065 22.5691 84.4065 22.9123 84.4065" stroke="#B17255" stroke-width="1.92" stroke-linecap="round"/>
<path d="M20.2051 84.5601C20.6875 84.5865 23.2747 83.7537 23.5531 83.6409C24.6283 83.1993 25.0699 82.7649 25.1107 82.7217" stroke="#B17255" stroke-width="1.92" stroke-linecap="round"/>
<path d="M21.0449 84.4952C21.2537 84.5288 22.7585 83.54 23.0441 83.2496C23.0681 83.2232 23.1761 83.168 23.2073 83.1512L23.3729 82.9544L23.5361 82.6928V82.6592" stroke="#B17255" stroke-width="1.92" stroke-linecap="round"/>
<path d="M23.5361 82.6599L31.2737 71.5791" stroke="#B17255" stroke-width="1.92" stroke-linecap="round" stroke-linejoin="round"/>
<path d="M31.2739 71.5791L20.9131 85.7415" stroke="#B17255" stroke-width="1.92" stroke-linecap="round" stroke-linejoin="round"/>
<path d="M20.9134 85.7412H20.8486" stroke="#B17255" stroke-width="1.92" stroke-linecap="round"/>
<path d="M20.8486 85.7417L31.4038 70.5977" stroke="#B17255" stroke-width="1.92" stroke-linecap="round" stroke-linejoin="round"/>
<path d="M23.6682 82.5304C22.6986 83.02 21.3954 84.0472 21.3402 84.1024C20.9874 84.4528 19.2282 84.928 19.209 84.9232C19.7874 84.412 22.5522 83.284 22.6842 83.1856C22.7538 83.1304 23.7066 82.6144 23.8962 82.432C23.9826 82.3504 24.1626 82.0336 24.3882 81.7432" stroke="#B17255" stroke-width="1.92" stroke-linecap="round"/>
<path d="M20.332 84.2026C21.4264 83.7706 23.2048 83.0506 23.4832 82.7434C24.0616 82.105 24.268 81.793 24.4336 81.625H24.4672" stroke="#B17255" stroke-width="1.92" stroke-linecap="round"/>
<path d="M21.3496 84.4041L21.484 84.3369" stroke="#B17255" stroke-width="1.92" stroke-linecap="round"/>
<path d="M21.4844 84.3372L31.3124 70.374" stroke="#B17255" stroke-width="1.92" stroke-linecap="round" stroke-linejoin="round"/>
<path d="M20.5674 83.4541C21.213 83.0389 21.513 82.8037 22.5378 82.2997C23.2242 81.9589 23.3178 81.7453 23.3538 81.6757C23.421 81.6421 23.6658 81.5077 23.7858 81.4357C23.8266 81.4045 24.1122 81.0301 24.3162 81.0517" stroke="#B17255" stroke-width="1.92" stroke-linecap="round"/>
<path d="M50.6203 7.70094C50.2867 7.93614 49.7467 8.14014 49.6699 8.25534C49.6531 8.28174 49.6267 8.33454 49.5907 8.41374L48.7987 8.49294C48.7243 8.24094 48.7171 8.07774 48.7987 8.01774C48.8491 7.98654 49.2067 7.71534 49.2739 7.70094C49.3939 7.67694 57.2011 7.70094 57.5083 7.70094C56.8171 7.70094 53.1979 7.52574 52.4155 7.53294C51.2227 7.55214 50.9875 7.53534 50.7787 7.30494C50.7139 7.23054 49.4323 7.07454 49.3531 7.06734C49.2427 7.05774 48.9187 6.75054 48.7987 6.67134C48.7123 6.57054 48.7243 6.37854 48.7987 6.27534C49.0555 6.30174 50.1379 6.10974 51.6763 6.10254C52.7899 6.10734 55.4011 6.11934 55.4491 6.11694C56.0563 6.10734 56.5267 6.34014 56.9539 6.59214" stroke="#EF586A" stroke-width="1.92" stroke-linecap="round"/>
<path d="M52.2984 4.58984C52.2384 4.59704 51.0384 5.09144 50.7552 5.20664C49.9896 5.51864 48.8016 6.12584 48.1656 6.74984C47.2392 7.67384 46.6248 8.53304 46.5 8.53784" stroke="#EFADB5" stroke-width="1.92" stroke-linecap="round"/>
<path d="M53.0371 4.58993C53.9179 4.58993 56.5531 4.58753 56.6779 4.58993C57.3451 4.60673 58.4179 4.84913 59.7619 4.83713C60.5011 4.83713 61.7011 4.82753 62.2291 4.95953C62.2891 4.97633 65.1043 5.85233 65.1907 5.94833C65.2891 6.05633 67.5667 6.70913 67.6579 6.80993C67.8331 7.00433 69.7435 7.55873 69.8779 7.67393C70.0459 7.81553 70.9291 8.20193 70.9891 8.23073C71.1883 8.32433 72.2587 8.80673 72.4699 9.03233C72.6331 8.94833 74.0755 10.2659 74.1355 10.3259C74.4091 10.6019 75.7483 12.1331 75.8611 12.3635C75.9043 12.4523 76.2115 12.5891 76.2931 12.7955L76.6651 12.8555L77.5891 14.4611" stroke="#EFADB5" stroke-width="1.92" stroke-linecap="round"/>
<path d="M33.1894 21.3857L10.2334 53.3753" stroke="#EF586A" stroke-width="1.92" stroke-linecap="round" stroke-linejoin="round"/>
<path d="M10.7347 54.7551L10.5451 54.6279L9.66673 54.8175L9.29233 55.0671L7.97473 56.6991L6.71953 58.2039C6.71713 58.1607 7.53313 57.1095 7.59793 57.0735C7.72753 57.0063 9.06193 55.5279 9.22993 54.7551C8.75713 54.9567 8.54113 55.0695 8.47633 55.1919C7.59793 56.9487 7.57873 57.0015 7.59793 57.0735C7.44193 57.2631 7.10113 57.6975 7.09633 57.7023C6.85393 57.8607 6.68353 58.5063 6.59473 58.5807V58.6431" stroke="#8EC58E" stroke-width="1.92" stroke-linecap="round"/>
<path d="M63.1894 24.4863L40.6006 59.2383" stroke="#C5273A" stroke-width="1.92" stroke-linecap="round" stroke-linejoin="round"/>
<path d="M42.5539 21.2266L19.2715 54.0058" stroke="#C5273A" stroke-width="1.92" stroke-linecap="round" stroke-linejoin="round"/>
<path d="M20.6035 54.512L44.0155 21.1328" stroke="#EFB3BA" stroke-width="1.92" stroke-linecap="round" stroke-linejoin="round"/>
<path d="M38.4092 18.6681C38.9324 18.5145 40.5548 18.4449 40.718 18.4377C41.0564 18.4233 41.3996 18.2289 41.5268 18.2049C41.5268 18.2049 42.5564 18.2073 42.7388 18.1473C42.8612 18.1089 43.862 17.6577 44.2388 17.4561C44.8292 17.2545 45.386 16.6545 45.3932 16.6473C45.5372 16.4745 45.7436 16.2393 45.9116 16.1289" stroke="#EFB3BA" stroke-width="1.92" stroke-linecap="round"/>
<path d="M37.9482 19.1297C38.6994 19.1297 40.689 19.1393 40.7754 19.1297C41.7042 19.0385 43.773 18.1505 43.7754 18.1481C44.7858 17.4569 46.269 16.3913 46.4322 16.1873C46.497 16.1009 47.061 14.1545 47.2962 13.1849C47.3274 13.0601 47.5314 12.5681 47.529 11.5697C47.5266 10.6745 47.5266 8.97286 47.529 8.16406" stroke="#EFB3BA" stroke-width="1.92" stroke-linecap="round"/>
<path d="M43.7321 21.1455V20.9679C44.2337 19.9815 43.7705 19.7295 43.6721 19.6191L43.2017 19.5015L42.8513 19.3839L42.4985 19.2663C42.4601 19.1319 42.5849 19.0791 43.2017 18.9735C43.3193 18.9447 43.4705 18.9087 43.5545 18.9135L43.9649 18.5031L44.2001 17.9175V18.7383L44.7881 17.7999L44.3177 18.5031L45.4913 17.1543" stroke="#EFB3BA" stroke-width="1.92" stroke-linecap="round"/>
<path d="M44.1816 19.4769C44.9808 18.7113 46.0512 17.7081 46.2 17.4561C46.8336 16.3905 47.0784 16.2633 47.0664 16.0713L47.5296 15.4929C47.4816 15.4833 47.8176 14.4537 47.8752 14.2233C48.0024 13.8273 47.988 12.9489 47.9904 11.6841C47.988 10.8705 47.8872 10.2465 47.8752 9.95369C47.868 9.81449 47.4432 8.90729 47.412 8.79929C47.3808 8.68649 47.2896 8.10329 47.2968 7.64489L47.1816 7.35449" stroke="#EFB3BA" stroke-width="1.92" stroke-linecap="round"/>
<path d="M44.1813 20.5139C44.1333 20.3627 44.5893 19.4747 44.6421 19.3595C45.2661 18.0491 45.8205 17.0195 45.8541 16.9931C45.9237 16.9427 46.1445 16.8395 46.2573 16.7051" stroke="#EFB3BA" stroke-width="1.92" stroke-linecap="round"/>
<path d="M43.3487 21.7624L42.3455 20.1952C42.0503 19.7344 41.8415 19.7849 41.2799 19.5041C41.2151 19.4801 40.0031 19.3721 39.5231 19.3793C39.2951 19.3817 38.2247 19.3793 37.8311 19.3793" stroke="#EFB3BA" stroke-width="1.92" stroke-linecap="round"/>
<path d="M42.9739 22.0117L42.8467 22.7653" stroke="#EFB3BA" stroke-width="1.92" stroke-linecap="round"/>
<path d="M42.9739 22.0117L42.8467 22.6405" stroke="#EFB3BA" stroke-width="1.92" stroke-linecap="round"/>
<path d="M33.1816 19.4268V19.5708C33.244 19.7076 34.0072 19.7196 35.3752 19.8612C38.8288 20.226 43.156 19.8756 43.2352 19.7892C43.2928 19.7196 43.3672 19.7076 43.672 19.7172" stroke="#EFB3BA" stroke-width="1.92" stroke-linecap="round"/>
<path d="M33.0352 19.2803V19.7171" stroke="#EFB3BA" stroke-width="1.92" stroke-linecap="round"/>
<path d="M33.0361 19.7168L9.28809 53.228" stroke="#EFB3BA" stroke-width="1.92" stroke-linecap="round" stroke-linejoin="round"/>
<path d="M61.783 23.5839L61.9894 22.9167L63.1702 22.2471C63.7438 22.2519 64.183 22.2735 64.4566 22.5039C64.651 22.6719 64.9702 22.8687 65.0206 22.9671C64.4926 22.9671 62.6422 22.9527 62.5558 22.9671C62.0278 23.0559 61.5934 23.7135 61.579 23.7375L61.0654 24.8175" stroke="#EFB3BA" stroke-width="1.92" stroke-linecap="round"/>
<path d="M1.84473 58.2301L2.12553 57.8389" stroke="black" stroke-width="2.88" stroke-linecap="round" stroke-linejoin="round"/>
<path d="M5.20215 53.5401L31.3693 17.0049" stroke="black" stroke-width="2.88" stroke-linecap="round" stroke-linejoin="round"/>
<path d="M31.5498 16.8227C35.2962 16.8227 40.2618 16.8347 40.3242 16.8227C40.413 16.8059 40.8762 16.1867 41.2266 15.9203C41.277 15.8843 42.5202 15.4307 42.8562 15.3779C42.8562 15.3779 43.9362 14.8355 43.941 14.8331C44.0874 14.7995 44.5602 14.8283 44.6634 14.7443C45.0258 14.4731 45.4602 14.1419 45.4794 14.0195" stroke="black" stroke-width="2.88" stroke-linecap="round"/>
<path d="M47.1064 5.23838V3.80078" stroke="black" stroke-width="2.88" stroke-linecap="round"/>
<path d="M45.8389 4.34295C45.9517 4.36935 47.5837 3.85815 48.0997 3.62295C48.9085 3.25575 50.5501 2.99655 50.8141 2.89575C51.0661 2.80215 51.8533 2.39415 52.1701 2.35335C52.2901 2.33895 52.6213 2.34615 52.8949 2.26215L53.0077 2.20215" stroke="black" stroke-width="2.88" stroke-linecap="round"/>
<path d="M66.8223 3.8916L67.4559 4.0716" stroke="black" stroke-width="2.88" stroke-linecap="round"/>
<path d="M67.8164 4.34277L68.8148 4.88517" stroke="black" stroke-width="2.88" stroke-linecap="round"/>
<path d="M76.7822 10.0098C76.847 10.0434 77.5142 11.0418 77.5838 11.1258C78.1262 11.805 79.571 13.833 79.7534 14.0202C79.9406 14.2146 80.5406 16.0146 80.5694 16.101C80.663 16.3818 80.9078 17.0394 80.9294 17.097C81.143 17.6226 81.0854 18.6666 81.2918 18.9042C81.4982 19.1418 81.467 20.097 81.4694 20.7498C81.4718 20.889 81.4718 21.0258 81.4718 21.165" stroke="black" stroke-width="2.88" stroke-linecap="round"/>
<path d="M81.6547 21.3467C81.6475 22.2731 81.6715 23.4419 81.6547 23.5163C81.5827 23.7923 80.9131 25.8323 80.8411 26.0483C80.5891 26.7947 80.5363 27.7355 80.3875 27.9467C80.2483 28.1483 79.4731 30.5243 79.4827 30.6611L79.3027 30.7523" stroke="black" stroke-width="2.88" stroke-linecap="round"/>
<path d="M79.302 30.7529L50.25 78.0881" stroke="black" stroke-width="2.88" stroke-linecap="round" stroke-linejoin="round"/>
<path d="M3.90918 62.9434L4.32918 63.3106" stroke="black" stroke-width="2.88" stroke-linecap="round"/>
<path d="M7.1582 66.8721L7.223 67.0185L7.4942 67.2897" stroke="black" stroke-width="2.88" stroke-linecap="round"/>
<path d="M7.49414 67.2903C7.90454 67.2783 8.39414 67.6503 8.57894 67.7415C8.98454 67.9671 9.63494 68.2527 9.75494 68.2839C10.1701 68.3919 10.8229 68.8263 11.0197 68.9175C11.1037 68.9559 11.8045 69.0975 12.4669 69.2799C12.5269 69.2943 12.7501 69.4311 12.8293 69.4599C12.8893 69.4815 13.2541 69.4551 13.2805 69.4599" stroke="black" stroke-width="2.88" stroke-linecap="round"/>
<path d="M30.2754 76.0498L46.3266 79.633" stroke="black" stroke-width="2.88" stroke-linecap="round" stroke-linejoin="round"/>
<path d="M14.5479 70.1826L15.5415 70.365" stroke="black" stroke-width="2.88" stroke-linecap="round"/>
<path d="M4.18199 54.7354C4.18679 54.9682 4.16519 55.3617 4.08119 55.4457C3.97319 55.5537 3.77159 55.5346 3.67319 55.6498C3.58439 55.7554 3.64439 55.9354 3.57239 56.0554C3.50999 56.161 3.18359 56.3602 2.96279 56.869C2.74199 57.3898 2.76599 58.489 2.75879 59.6122" stroke="black" stroke-width="2.88" stroke-linecap="round"/>
<path d="M2.35401 57.7842C2.38281 58.005 2.17881 58.3458 2.15001 58.4946C2.12841 58.617 2.16201 59.589 2.15001 59.7138C2.12601 60.0666 2.378 60.3042 2.4548 60.4266C2.5556 60.5778 2.69961 60.9978 3.47241 61.7466C3.52281 61.7946 3.878 62.2554 4.082 62.3562" stroke="black" stroke-width="2.88" stroke-linecap="round"/>
<path d="M4.18262 62.5596L4.48742 62.7612" stroke="black" stroke-width="2.88" stroke-linecap="round"/>
<path d="M46.6548 79.1225C46.8252 79.1153 48.2532 78.9617 48.3828 78.9185C48.5412 78.8633 49.0596 78.4817 49.194 78.4097C49.3788 78.3113 49.6764 78.3497 49.8036 78.3089C49.8972 78.2801 50.2476 77.9945 50.3124 78.0041C50.4468 78.2849 49.2852 78.8777 48.9924 78.9185C48.5124 78.9737 47.6604 79.3745 47.0604 79.3241C46.8084 79.3025 46.4988 79.5017 46.35 79.5281C46.1964 79.5545 45.402 79.5185 45.4356 79.5281" stroke="black" stroke-width="2.88" stroke-linecap="round"/>
<path d="M3.05392 58.9697C3.01312 59.5601 4.04032 62.6969 4.41472 63.2129C4.47232 63.2945 4.69072 64.0025 5.05552 64.5737C5.38432 65.1545 5.77552 65.4449 6.49792 66.1745" stroke="black" stroke-width="2.88" stroke-linecap="round"/>
<path d="M46.1707 4.57289V4.97609L45.3643 5.45849C45.4171 5.00249 45.7651 4.86329 46.0075 4.65209C46.3699 4.33049 46.7923 3.95849 46.8931 3.92969L46.9747 5.35529" stroke="black" stroke-width="2.88" stroke-linecap="round"/>
<path d="M44.5598 6.34473C44.5598 7.01913 44.5526 8.55993 44.5598 8.59833C44.6366 8.99193 45.3134 10.1199 45.4454 10.2879C45.5342 10.4103 45.8414 10.7007 45.8462 10.9335C45.8534 11.2287 45.8654 12.3015 45.8462 12.5415C45.8438 12.5799 45.3086 13.0887 45.2846 13.1055C45.1142 13.2231 44.8574 14.0703 44.8814 14.0727" stroke="black" stroke-width="2.88" stroke-linecap="round"/>
<path d="M45.3637 13.9118C45.3349 13.475 45.3877 13.2446 45.6061 12.9446C45.9349 12.4838 46.0237 11.9558 46.0069 11.7374L46.1701 11.6582" stroke="black" stroke-width="2.88" stroke-linecap="round"/>
<path d="M30.6279 76.2998L30.9831 76.3814" stroke="black" stroke-width="2.88" stroke-linecap="round" stroke-linejoin="round"/>
<path d="M16.0283 70.5371L17.5859 71.0939" stroke="black" stroke-width="2.88" stroke-linecap="round"/>
<path d="M18.8249 70.3525L12.6689 79.6453" stroke="black" stroke-width="2.88" stroke-linecap="round" stroke-linejoin="round"/>
<path d="M12.5515 81.3203L12.2827 81.4115C12.2275 81.7211 12.1747 81.8891 12.1195 81.8771C12.0211 81.8699 12.0859 83.3651 12.1051 83.8283C12.4291 84.0155 13.2811 84.5795 13.6771 84.7595C13.7635 84.7979 14.4091 85.3787 15.0691 85.6883C15.1843 85.7411 16.7779 86.3483 16.9939 86.3387C17.0683 86.3363 19.8043 86.3459 19.8883 86.3387C20.1715 86.3123 20.3971 86.2187 20.4235 86.1515C20.7619 86.2595 23.0467 84.3131 23.0659 84.2939L24.0331 83.5499" stroke="black" stroke-width="2.88" stroke-linecap="round"/>
<path d="M24.0332 83.5499L32.9396 70.5371" stroke="black" stroke-width="2.88" stroke-linecap="round" stroke-linejoin="round"/>
<path d="M19.5401 70.1658C19.5785 69.621 20.7257 68.1594 20.8193 68.121C21.0833 68.0082 21.2969 67.5642 21.3329 67.377C21.0833 67.5642 20.2433 68.4449 20.1137 68.5865C20.0489 68.6561 18.4649 70.8618 18.1289 71.0946" stroke="black" stroke-width="2.88" stroke-linecap="round"/>
<path d="M21.251 67.5635H21.9734L22.1534 67.6163" stroke="black" stroke-width="2.88" stroke-linecap="round"/>
<path d="M22.4873 66.8193L33.0929 69.7929" stroke="black" stroke-width="2.88" stroke-linecap="round" stroke-linejoin="round"/>
<path d="M12.4791 79.4609C12.4839 79.4825 12.1551 80.4977 12.0735 80.6681C11.8719 81.1241 11.8143 81.9785 11.8911 82.9937" stroke="black" stroke-width="2.88" stroke-linecap="round"/>
<path d="M30.623 75.6807C30.7478 75.6831 31.7414 75.8127 31.8854 75.8463C32.0942 75.8943 33.6278 76.3887 33.6422 76.3935C33.7574 76.4391 34.3934 76.6791 34.6862 76.6695" stroke="black" stroke-width="2.88" stroke-linecap="round"/>
<path d="M12.7021 69.1162C13.0573 69.2818 14.9174 69.865 15.0374 69.8962C15.2726 69.9346 17.0918 70.1842 17.219 70.2058C17.3798 70.2346 17.951 70.537 17.9966 70.5178" stroke="black" stroke-width="2.88" stroke-linecap="round"/>
<path d="M52.6553 2.51384C54.5345 2.51624 60.1481 2.51624 60.2369 2.51384C60.7769 2.50424 61.8065 2.90744 61.8209 2.90984C61.8713 2.92424 62.4017 2.88584 62.4785 2.90984C62.5385 2.92904 62.6585 3.06104 62.8745 3.04184" stroke="black" stroke-width="2.88" stroke-linecap="round"/>
<path d="M76.5371 9.62988L77.1155 10.0307H77.3123" stroke="black" stroke-width="2.88" stroke-linecap="round"/>
<path d="M65.7139 3.75977C66.1843 3.87257 66.9307 4.05017 67.0363 4.03577C67.2739 4.00937 69.4795 5.00537 69.9979 5.07257C70.1467 5.09177 70.4443 5.07497 70.7395 5.29577C70.7827 5.32937 70.9219 5.39657 71.0371 5.51897L71.4067 5.66537" stroke="black" stroke-width="2.88" stroke-linecap="round"/>
<path d="M65.207 3.28437C65.5598 3.27477 66.5966 3.62278 66.7382 3.66598C67.0574 3.76198 69.683 5.03397 70.295 5.22117C70.4198 5.25717 71.411 5.86438 71.555 5.96278C71.9006 6.19318 72.911 6.63478 73.331 6.92518C74.5214 7.87798 75.7622 8.54037 76.3694 9.14757C76.4462 9.22677 77.3894 10.3884 77.555 10.554H77.627" stroke="black" stroke-width="2.88" stroke-linecap="round"/>
<path d="M62.2217 2.40625C62.4641 2.66305 62.9873 2.68465 63.1841 2.70385C64.1249 2.79985 66.1985 3.46465 66.2201 3.44305" stroke="black" stroke-width="2.88" stroke-linecap="round"/>
</svg>
