<svg width="128" height="128" viewBox="0 0 128 128" fill="none" xmlns="http://www.w3.org/2000/svg">
<g style="mix-blend-mode:multiply">
<rect width="128" height="128" fill="white"/>
</g>
<path d="M55.2538 81.0223C56.1034 81.0223 58.753 81.0247 58.8898 81.0223C60.073 81.0079 61.0762 81.3197 62.1682 81.7781C64.057 82.5965 65.2522 82.9494 65.6722 83.1846C65.9146 83.3214 67.0018 84.1037 67.2442 84.2669C67.5946 84.5093 67.8298 84.9175 67.9258 85.0951C68.3866 85.9951 68.4346 86.2949 68.4298 87.8909C68.4274 88.2413 68.425 88.7862 68.425 88.983C68.1058 89.0382 67.585 88.6494 66.6466 87.8358C65.0914 86.475 62.5882 83.4365 61.741 82.1045C60.8242 80.6597 58.9978 77.979 58.8898 77.8782C58.201 77.2278 57.5266 76.4262 56.7706 76.0158C56.1754 75.6966 54.6874 74.9886 54.565 74.9286C54.433 74.8614 51.913 72.4254 51.4642 72.1926C50.7922 71.8662 50.2858 71.3501 50.2402 71.2925C50.1874 71.2181 49.1842 69.915 49.1602 69.7206C49.1578 69.7086 49.1602 68.3431 49.1602 68.0479" stroke="#7A472F" stroke-width="12" stroke-linecap="round"/>
<path d="M56.8739 69.0368L56.7491 69.0056C56.5091 68.66 55.6067 67.1504 55.0667 66.248C54.2891 64.9832 51.2963 60.7664 51.2939 60.572L50.6603 59.1752C50.1779 59.1464 50.0219 59.0696 49.8347 59.24C49.7699 59.3 48.9467 60.3128 48.8195 60.6032C48.7331 60.8048 47.7515 63.3152 47.6459 63.8384C47.6363 63.8792 47.6171 63.9416 47.5835 64.028L49.2011 59.8088C49.0211 59.7248 48.0419 60.8024 47.0771 62.348C46.3283 63.6848 46.8059 66.3656 46.8227 66.4064C47.0603 66.2072 47.2379 65.2832 47.3459 64.8152C47.5355 63.9632 47.6147 62.0144 47.6147 61.712C47.4611 61.4144 45.8987 62.4152 45.7763 62.7272C45.5147 63.428 45.4523 64.5728 45.4595 67.388C45.4595 67.9592 45.4595 69.5144 45.6563 70.1168C45.9083 70.8608 46.4603 71.8136 46.7267 72.1448C47.0987 72.6056 47.3867 72.8312 47.4563 72.9056L48.2171 73.2872L48.7883 73.256C49.2635 72.2768 49.2635 68.8832 49.2635 68.468" stroke="#7A472F" stroke-width="6" stroke-linecap="round"/>
<path d="M49.3282 65.7393C49.3258 68.1849 49.441 68.6793 49.7026 69.9945C49.861 70.7889 50.041 71.1297 50.089 71.1945" stroke="#7A472F" stroke-width="6" stroke-linecap="round"/>
<path d="M45.0345 63.9365C45.0321 65.4005 45.0393 65.7749 44.9241 66.0221C44.7441 66.4061 44.5977 67.4549 44.4849 67.7237C44.3625 68.0381 44.3841 70.0685 44.3673 70.6421C44.3577 71.1005 44.8017 72.3461 45.2001 73.2149C45.6537 74.1893 45.9393 74.6717 46.6833 75.6845C47.2977 76.5149 48.1041 77.3261 48.9873 77.9909C50.1993 78.8933 50.9505 79.3421 51.1305 79.5293C51.3825 79.8005 51.7425 80.4101 52.5033 81.0653C53.1321 81.6269 54.6801 83.6045 54.8097 83.7557C54.9681 83.9477 57.1521 85.9133 57.2793 86.0621C57.4641 86.2805 57.9273 86.8037 58.1577 86.7773C58.2033 86.7701 58.2585 86.7701 58.3233 86.7773C58.6689 86.5349 59.0961 85.8821 59.4753 84.7445C59.5569 84.5213 59.9289 83.6285 60.0249 83.2637C60.2049 82.5461 60.1953 79.7549 60.1905 79.6949C60.0969 78.8165 59.8017 78.4781 59.6409 78.2117" stroke="#7A472F" stroke-width="6" stroke-linecap="round"/>
<path d="M56.1279 70.6358C56.1687 70.4414 56.8863 69.8342 57.8847 69.371C59.4543 68.5862 61.9599 67.5638 62.6055 67.067C64.7079 65.5958 65.0271 65.5022 66.6135 64.595C66.6399 64.5806 68.5695 63.7238 68.7015 63.7166C68.7855 63.7142 69.5799 63.263 69.6903 63.167C69.8247 63.0446 69.8895 62.5958 69.7983 62.2334C69.7263 61.955 67.3455 57.9278 67.2735 57.8966C66.9159 57.7382 66.0951 56.2214 65.6271 55.7558C65.6223 55.751 64.8687 54.8438 64.8015 54.767L63.6495 53.0654" stroke="#7A472F" stroke-width="6" stroke-linecap="round"/>
<path d="M63.4834 52.7334C66.9346 52.7406 68.497 52.7022 69.3586 52.9542C69.8362 53.0982 70.1674 53.5806 71.3362 54.1614C71.5882 54.291 72.6946 55.4862 72.9826 55.9182C73.201 56.1366 74.2522 57.975 74.3002 58.0614C74.3122 58.0782 75.5938 59.7366 75.949 60.4206C76.2562 61.0254 76.7266 63.1014 77.5402 65.4174C79.981 72.3414 80.1802 74.5302 80.2306 74.751" stroke="#7A472F" stroke-width="6" stroke-linecap="round"/>
<path d="M65.1328 53.7229C64.9768 53.5597 64.1968 52.8349 64.144 52.7893C63.88 52.5829 63.688 52.4029 62.8264 52.4053C62.7136 52.4077 62.584 52.4077 62.4424 52.4053C63.1888 52.7221 64.0984 53.4781 64.696 53.8909C65.176 54.2269 69.3664 57.9229 69.676 58.2397C69.8608 58.4293 73.78 62.9629 74.4832 63.8317C75.5176 65.1109 76.8112 67.1341 78.1744 69.6349C78.8824 70.9693 79.8808 73.7485 80.5048 74.9173C80.5624 75.0229 80.9272 75.8053 80.9992 76.0165C81.2464 75.3373 80.296 73.7029 79.2928 71.4517C79.0672 70.9429 78.496 69.4165 78.0904 68.8237C76.9168 67.1845 74.9056 64.6717 74.2888 64.0597C73.9336 63.7117 72.9352 62.8261 72.7096 62.5093C72.6016 62.3557 72.3472 61.8685 72.2152 61.7941L72.16 60.6421" stroke="#7A472F" stroke-width="3.6" stroke-linecap="round"/>
<path d="M73.8057 56.7969C74.1297 56.8305 74.8545 57.6105 75.3009 58.0953C76.2225 59.0529 77.7057 61.4649 78.4737 62.7273C78.9585 63.5481 80.1561 66.6681 80.4921 67.7529C80.7057 68.4129 80.8473 69.2865 80.8449 69.7353C80.8377 70.5345 80.8329 72.2481 80.8353 73.1601C80.8353 73.3449 81.2913 74.7921 81.3849 74.9169C81.4545 75.0105 81.6489 75.2577 81.7137 75.4113C81.7257 74.6625 81.5409 73.5441 81.1641 72.6105C80.8929 71.9385 80.6745 70.8273 80.6145 70.5249" stroke="#7A472F" stroke-width="3.6" stroke-linecap="round"/>
<path d="M79.2974 65.2545C79.3358 63.8265 78.8366 62.5689 78.3638 60.8049C78.3422 60.7257 77.819 59.3577 77.651 59.1033C76.5518 57.5385 75.4478 55.9617 75.3998 55.8633C75.1238 55.9353 75.035 56.0961 75.0158 56.6889C74.9606 57.6225 74.8934 58.8441 74.9054 59.5425C74.9078 60.0945 74.3078 62.3169 74.3006 62.3433C74.159 62.8737 73.8662 65.5089 73.4222 65.8017C73.3262 65.8665 72.4478 66.2121 71.423 66.8265C71.099 67.0233 69.5246 67.8609 68.7014 68.2185C68.3534 68.4009 67.127 69.3321 66.107 70.0545C65.6918 70.3449 64.439 71.6025 63.7046 72.0081C61.9118 72.9801 60.9758 73.4625 60.8486 73.4889C60.6998 73.1793 63.4142 70.9449 64.9766 70.0425C65.8526 69.5409 68.4542 68.5257 69.4694 67.8345C70.0526 67.4529 70.4606 67.0641 70.5686 66.6801C70.6214 66.4833 70.7126 65.8449 71.1158 65.4177C71.8766 64.6017 72.203 64.0449 72.2702 63.9897C71.9894 63.9033 71.0726 63.9897 70.2926 64.3209C69.803 64.5321 61.379 69.8001 61.1246 69.9753C60.7118 70.2633 58.9094 71.2401 58.2686 71.8977C58.8062 72.1257 59.4326 72.0369 60.5918 71.7873C62.3414 71.4129 64.6286 70.7961 65.2958 70.5729C67.091 69.9705 68.4158 69.7881 70.2926 69.2625C70.7654 69.1305 72.551 68.4849 74.2454 68.4393C73.9622 68.7441 73.139 69.1569 71.687 69.7113C70.2038 70.2633 67.8758 71.0169 66.191 71.6457C63.0926 72.8001 61.0454 74.3745 60.7382 74.5329C61.1438 74.4849 64.3334 72.4785 64.9622 72.0105C65.243 71.8065 67.3694 70.7745 70.1822 69.6465C72.755 68.6145 74.399 68.1825 75.5102 67.8897C75.575 68.1705 75.5366 68.4945 75.3446 68.7129C74.2382 69.9705 72.5198 70.8417 70.9502 71.7321C70.2326 72.1305 66.527 73.7889 65.8574 74.2305C64.7798 74.9457 63.7454 75.4185 62.9366 76.0713C63.0566 76.1625 66.2894 74.8761 70.7414 72.7401C72.0302 72.1137 75.3758 70.3473 76.1126 70.4145L76.223 70.6905C76.0718 71.1057 75.3662 71.5713 74.4542 72.2745C74.4134 72.3057 71.1926 74.4081 69.6974 75.0369C69.0926 75.2913 67.7534 75.6465 67.439 75.7953C66.0662 76.5105 64.0862 77.5185 64.0334 77.6073C65.3366 77.6505 66.311 77.5569 66.9446 77.2233C68.8958 76.1553 71.0462 75.3657 73.3118 74.8617C73.8134 74.7417 75.4214 74.0769 76.091 73.9881C76.8542 73.8921 78.983 73.3689 79.079 73.4337C78.983 73.7745 78.0422 74.7729 77.183 75.3249C75.7166 76.2777 73.6718 77.5497 72.4334 78.2673C71.9198 78.6201 70.8398 79.4889 70.3838 79.7841C69.8918 80.0985 68.531 80.8329 68.0414 81.2313C68.0654 81.3561 71.2718 81.2529 72.7094 80.9577C73.7822 80.7321 76.6262 79.7265 78.035 79.3641C79.7918 78.9249 80.2478 78.8001 81.3302 78.4305C81.9758 78.2241 83.7686 77.9097 83.9102 77.8281C83.7614 78.3393 83.123 79.0065 82.1894 79.6377C81.191 80.2929 74.1662 84.2217 72.7718 85.0449C72.0806 85.4553 71.7278 85.7697 71.447 86.0625C72.3038 86.1633 73.2014 85.8849 74.5214 85.3233C76.2494 84.5433 79.6766 82.9737 81.1334 82.2705C83.7782 80.8137 87.1214 78.9897 87.479 78.6513C86.5406 78.4641 83.0222 78.9129 82.2686 79.0569C80.8046 79.3689 79.1558 79.7217 76.0574 80.7225C75.7526 80.8233 73.7102 81.3681 73.067 81.6153C72.251 81.9321 70.6094 82.6713 70.6214 82.6593C70.583 82.2657 71.1254 81.4833 71.7014 81.0369C72.5462 80.4009 77.1134 78.2817 78.419 77.9361C79.0862 77.7153 80.1062 77.0265 80.1758 76.9497C80.1134 76.8945 68.471 76.8873 68.207 77.0577C68.1902 77.0697 68.171 77.0889 68.1518 77.1129C68.7782 77.1465 71.9582 76.8969 73.3694 76.7721C74.5574 76.6641 87.035 76.6833 87.2606 76.6185C87.4022 76.5777 87.6302 76.4265 87.6446 76.4001L82.9214 73.4889" stroke="#7A472F" stroke-width="3.6" stroke-linecap="round"/>
<path d="M79.957 70.9642C80.629 70.957 82.0522 70.945 82.7026 71.1298C83.3074 71.3074 85.5922 72.3514 87.973 73.6546C87.9946 73.6666 91.3474 76.5082 91.597 76.9498V76.8946" stroke="#7A472F" stroke-width="3.6" stroke-linecap="round"/>
<path d="M85.2275 73.4893C85.5851 73.5661 88.0547 75.3853 89.4563 76.4005C89.6171 76.5277 91.8875 78.3085 92.2547 78.7069C92.9675 79.4797 94.6283 81.6085 94.9451 82.0549L95.0915 82.2085" stroke="#7A472F" stroke-width="3.6" stroke-linecap="round"/>
<path d="M87.7525 79.0905C87.6445 78.8409 91.0789 81.3705 91.9261 82.3305C92.8045 83.3721 93.9325 84.7065 94.6669 85.6401" stroke="#7A472F" stroke-width="3.6" stroke-linecap="round"/>
<path d="M95.1659 95.2334C95.1203 95.2718 93.8747 97.1318 93.1883 97.5398C92.5955 97.8926 89.7347 100.362 89.0171 100.835C84.7619 103.607 84.0443 104.939 83.5811 105.39V105.556" stroke="#7A472F" stroke-width="3.6" stroke-linecap="round"/>
<path d="M95.2213 97.9788C95.1589 98.3892 94.9045 98.862 94.5613 99.1308C94.2109 99.402 88.5277 102.678 88.4125 102.755C87.7525 103.249 86.3557 103.799 86.2165 103.854C85.4029 104.164 81.8653 106.516 80.6149 106.928C80.4013 106.998 75.4573 108.385 75.3445 108.412C75.2917 108.421 74.1829 108.452 73.8061 108.575C73.3189 108.74 72.0469 108.966 71.8861 109.014C70.8613 109.326 66.9565 109.079 66.7237 109.014C64.8709 108.445 63.5629 108.308 63.5389 108.301C63.4453 108.27 62.2021 107.771 61.1245 107.149C60.7357 107.02 59.3869 106.127 59.1469 105.884C58.9909 105.75 57.4669 104.881 57.3901 104.788C57.3133 104.694 56.2357 103.799 55.7413 103.304C55.0261 102.484 53.7205 98.0988 53.7109 98.0892C53.6389 97.9956 53.4997 97.6668 53.4901 97.5948C53.4373 97.3188 53.1589 96.114 53.1613 96.0564C53.1925 95.3964 53.0533 94.398 53.0557 91.1196C53.0557 88.9428 53.0533 85.482 53.1613 83.7564C53.1805 83.4828 53.1757 82.8036 53.2717 82.7148" stroke="#7A472F" stroke-width="3.6" stroke-linecap="round"/>
<path d="M53.4902 83.3717C53.5334 83.3981 53.6102 83.6189 53.711 83.7557C53.8646 83.9645 54.3854 84.4061 54.6998 84.7997C54.9638 85.1381 55.7414 87.1037 55.7414 87.1061C55.907 88.3421 56.4302 91.7093 56.7854 93.3101C56.939 93.9173 57.8942 96.0701 58.1582 96.6053C58.4054 97.0709 58.6598 97.5509 59.3126 99.5165C59.3462 99.6149 59.903 100.589 60.2438 101.492C60.4862 102.087 61.0766 103.085 61.727 103.577C62.1638 103.899 62.9966 104.206 63.3206 104.348C63.5222 104.434 64.5566 104.633 65.1326 105.005C65.2766 105.101 66.6902 105.747 66.8342 105.776C67.5086 105.896 71.5214 105.886 72.4334 105.665C72.9662 105.509 76.8254 104.655 78.2006 104.182C80.5526 103.369 81.0926 103.256 84.0758 102.26C84.4022 102.142 85.7582 101.499 86.3798 100.997C86.4926 100.909 88.0454 99.6797 88.907 98.9117C88.9358 98.8853 90.275 97.5749 90.8294 97.0997C91.1174 96.8501 91.6622 95.7485 91.871 94.7381C92.015 94.0661 92.207 93.6941 92.3654 93.2549C92.5814 92.6381 92.5862 92.4869 92.5886 91.0565C92.5886 90.0941 92.5862 88.0781 92.531 87.7661C92.4302 87.2453 91.595 85.8437 91.1582 85.3493C90.455 84.5669 90.2606 84.4997 89.675 83.7029C89.1806 83.0981 88.7102 82.4189 88.4678 82.1645C88.1006 81.7925 86.9318 81.4925 86.6558 81.3965C86.3198 81.2813 85.7966 81.2885 85.4486 81.2861" stroke="#7A472F" stroke-width="3.6" stroke-linecap="round"/>
<path d="M55.0283 88.0954H54.8627C54.8531 88.1146 54.4931 90.4114 54.4787 90.565C54.3803 91.7314 54.6995 94.8058 54.7547 95.0146C54.9467 95.7826 55.2419 96.9682 55.6883 97.9234C55.7555 98.0818 56.5163 99.9226 56.7851 100.285C57.2531 100.861 58.6715 102.877 58.9259 103.139C59.1467 103.441 59.9627 104.324 60.2987 104.567C60.5051 104.715 61.7771 105.702 62.3315 105.995C62.7419 106.215 64.1987 107.022 64.5827 107.149C65.1035 107.315 65.4707 107.271 65.6267 107.423C65.9603 107.403 66.9947 107.634 67.0523 107.641C67.1051 107.648 69.7619 107.639 69.9635 107.641C70.4603 107.651 75.6563 106.055 76.2779 105.939C76.4219 105.913 77.6747 105.743 78.5843 105.5C79.2011 105.33 80.1251 104.634 80.3411 104.511C80.5547 104.391 81.2243 104.159 81.2747 104.127C81.4307 104.034 81.9059 103.542 81.9323 103.525C82.0499 103.448 84.7283 102.203 85.8731 101.595C87.0323 100.945 87.2987 100.772 88.5323 99.8626C89.1995 99.3706 89.5091 98.977 89.8955 98.1442C90.0035 97.9498 90.4475 96.9826 91.2683 96.001C91.6547 95.5378 91.8155 94.8754 91.8707 94.5202C92.1707 93.5674 92.7107 90.9346 92.7107 89.4514C92.7059 88.729 92.6819 88.4266 92.5859 88.2058C92.2139 87.3946 91.9595 87.2194 91.7075 86.8882C91.2539 86.293 89.9363 85.0426 88.7963 84.361C88.5635 84.2218 88.0547 84.0298 87.9731 83.977C87.8435 83.9002 87.7643 83.7106 87.6995 83.7034C87.6227 83.6938 82.4771 83.6962 80.2739 83.6914C78.4163 83.6938 74.6723 83.7034 73.8611 83.9218C72.8723 84.1954 71.6531 84.721 71.2163 84.8602C70.8755 84.9682 68.1803 85.5994 66.6011 86.1874C65.2019 86.7082 61.5299 87.6658 61.2323 87.7114C60.7187 87.7906 57.9107 88.7482 57.3899 88.8634C57.2387 88.897 56.5619 89.3122 56.4011 89.5234C56.2883 89.6698 55.7267 90.5434 55.5227 91.1146C55.4675 91.2802 55.4555 93.8386 55.4675 93.9154C55.5515 94.417 56.7443 95.9818 56.7851 95.9458V95.6722" stroke="#7A472F" stroke-width="3.6" stroke-linecap="round"/>
<path d="M56.1273 94.4648C56.1129 94.0832 56.5449 93.5096 56.9505 93.1472C57.5553 92.612 58.6353 91.8752 59.3121 91.6088C60.4377 91.172 63.4065 89.8568 65.4273 89.2688C68.1465 88.4984 70.2033 87.98 71.7633 87.5912C73.3617 87.188 77.0193 86.9744 78.0225 86.708C80.8401 85.9616 84.0609 85.7912 84.1281 85.7888C84.0897 85.8848 76.7313 87.992 76.3329 88.0952C75.5361 88.2968 72.1041 88.6352 70.6401 88.8584C68.4153 89.2112 65.9769 89.6936 65.1321 90.1328C64.5057 90.464 63.1977 90.9608 62.9889 91.1144C62.9793 91.1216 62.3961 91.772 62.3313 91.8824C62.0481 92.3504 61.3641 92.7104 61.2321 92.816C60.5337 93.3728 58.4649 94.7576 58.4313 94.7936C58.3833 94.8488 58.3473 94.94 58.3233 95.0672C58.4481 95.2016 62.2089 94.112 63.9801 93.5816C65.2305 93.1856 67.5345 92.36 70.0185 91.664C77.2785 89.6744 92.1873 85.5056 94.6449 84.752" stroke="#7A472F" stroke-width="3.6" stroke-linecap="round"/>
<path d="M94.5347 84.7783C93.5243 84.9295 88.3499 85.5583 86.3363 86.0743C84.9419 86.4055 83.0459 87.2647 82.3715 87.4351C81.6971 87.6103 78.8435 88.9111 77.0459 89.5231C74.5739 90.3247 69.2795 91.8367 69.0851 91.8943C68.1419 92.1871 63.7499 94.3495 62.4947 94.8487C61.8827 95.0863 59.6435 96.1015 59.4755 96.1663C59.4539 96.3727 59.5427 96.6151 59.7515 96.6607C60.4163 96.8023 63.3107 96.5215 65.5427 95.9263C66.7019 95.6119 69.5507 94.4767 71.7515 93.9175C72.7355 93.6679 75.9179 92.5375 78.1451 91.9951C79.9643 91.5607 83.8667 90.6199 84.8051 90.4663C86.3123 90.2263 90.5219 89.7151 90.8291 89.6311C91.2899 89.5087 92.4131 89.5231 92.6411 89.5231C92.6843 89.5807 92.7227 90.0055 92.6939 90.2911C92.6747 90.4615 91.9283 91.1023 91.2683 91.4431C90.2315 91.9711 85.9259 92.6815 85.3427 92.7055C84.6035 92.7343 75.4091 94.0831 73.3955 94.2583C71.6171 94.4455 68.5883 95.1847 68.0819 95.2471C67.4627 95.3311 64.6091 95.9191 64.5131 95.9455C64.3091 96.0031 63.1139 96.5455 62.3579 96.6895C61.2347 96.8935 60.3107 97.0951 59.3675 97.3471C58.5395 97.5751 57.8051 97.9279 57.7739 98.1439C57.7643 98.2159 57.7787 98.8711 57.7739 98.9671C57.8291 99.0799 62.2715 99.6391 65.7347 99.1303C66.5051 99.0127 70.3907 97.7455 72.1019 97.1863C73.7099 96.6775 77.6195 95.7559 78.1139 95.6239C78.8915 95.4151 84.3947 93.5263 87.3779 93.0487C88.7771 92.8279 94.3979 92.8159 94.7267 92.8159" stroke="#7A472F" stroke-width="3.6" stroke-linecap="round"/>
<path d="M94.5612 93.4206C93.8364 94.1286 93.294 94.4598 92.4372 94.7406C91.6356 94.9998 88.59 95.8854 87.2604 96.1662C86.3484 96.3534 83.1996 96.615 81.2604 96.6486C79.4436 96.6558 74.8884 96.6606 74.8812 96.6606C72.2628 96.7566 65.3076 98.0358 63.4836 98.3622C62.346 98.583 60.0948 99.6918 59.3124 100.229C59.1276 100.359 58.6644 100.695 58.6524 100.834C58.6476 101.089 58.6476 101.835 58.6524 101.876C58.6836 102.073 58.962 102.229 59.2572 102.26C59.3172 102.265 63.9036 102.257 65.3748 101.989C65.9388 101.883 69.7548 100.568 71.3508 100.174C72.9828 99.7974 76.3692 99.0678 77.5956 98.7246C83.7372 96.9342 84.8244 96.6534 87.0948 96.2766C87.15 96.267 88.6572 95.991 90.2532 95.9982C90.8172 96.003 91.6164 96.0102 91.6524 96.0558C91.7076 96.2262 91.6884 97.131 91.6524 97.2102C91.458 97.587 89.5812 98.703 89.214 98.8878C88.0308 99.4734 84.5484 100.28 83.2548 100.359C82.6116 100.395 77.7228 100.395 75.5724 100.39C73.014 100.393 71.3148 100.532 69.414 100.834C67.2396 101.18 62.6028 102.43 62.2212 102.591C62.0556 102.661 60.9876 102.939 60.9588 102.975C61.1028 103.071 61.3572 103.227 61.5084 103.249C61.7244 103.282 62.4492 103.251 62.6604 103.304C63.6732 103.546 64.2036 103.594 65.754 103.604C67.734 103.585 70.5588 103.553 72.642 103.21C74.8812 102.843 77.8836 101.972 78.5292 101.821C79.542 101.583 80.3196 101.307 80.946 101.273C81.0012 101.271 81.0564 101.252 81.1092 101.218C80.6316 101.321 77.3724 102.603 76.818 102.757C76.4412 102.862 75.0396 103.153 74.4228 103.407C73.7316 103.69 72.7116 103.913 71.3724 104.168C70.2732 104.374 68.5884 104.494 67.2876 104.485C65.6892 104.463 64.5468 104.393 63.8676 104.019C63.4644 103.784 62.3172 102.113 62.1108 101.602C61.302 99.5454 60.1644 96.5622 59.478 95.607C58.7748 94.6278 57.75 92.5662 57.6636 92.3214C57.606 92.1582 57.5172 91.575 57.4452 91.443C57.3156 91.2126 56.8908 90.543 56.8956 90.4566C56.7012 88.071 55.7004 83.499 55.194 81.4518C55.002 80.8206 54.594 79.3302 54.3708 78.9798C54.318 78.903 54.0156 78.303 53.8764 78.1014C53.8452 78.0582 52.3644 76.287 51.0204 74.4222C50.5332 73.7334 49.8924 72.7158 49.8684 72.3918C49.7892 71.1966 49.1436 67.6038 49.098 67.4502C49.0572 67.299 48.7836 67.0302 48.7692 66.9558C48.7356 66.795 48.6444 65.7582 48.6588 65.6934" stroke="#7A472F" stroke-width="3.6" stroke-linecap="round"/>
<path d="M75.7842 76.4551C76.3338 76.6711 78.477 79.0399 79.4634 79.8271C81.0786 81.1063 85.629 83.2855 85.9962 83.2639C86.1378 83.2399 86.3322 83.0047 86.3802 82.7695C86.6346 81.4447 86.685 78.8047 86.601 78.4855C86.3706 77.6527 85.5618 76.5943 85.1178 76.3447" stroke="#7A472F" stroke-width="3.6" stroke-linecap="round"/>
<path d="M95.879 82.0547C95.8742 83.1899 96.4526 85.4603 96.539 86.7227C96.5558 86.9771 96.659 88.9235 96.6638 89.9099C96.6662 90.7883 96.3566 92.6003 96.155 93.2027C96.0134 93.5699 95.6966 94.5779 95.1662 95.5067C95.1062 95.6099 94.7246 96.3659 94.3982 96.9899C94.0814 97.5851 93.6758 97.9715 93.5198 98.1443C93.431 98.0171 93.5006 97.5131 93.887 96.9683C94.1606 96.5843 94.9982 95.2331 95.1662 94.6283C95.3318 93.9995 95.3414 88.0739 95.3318 87.8747C95.2718 86.8955 93.899 83.3555 93.9038 83.3171L93.5726 82.8251" stroke="#7A472F" stroke-width="3.6" stroke-linecap="round"/>
<path d="M93.1336 80.4082C93.1144 80.9722 93.472 83.2858 93.4648 84.9106C93.46 85.2178 93.4384 86.9482 93.1336 87.601C92.968 87.9442 90.5176 90.8818 89.3368 91.8514C88.7056 92.3746 88.012 93.2338 87.808 93.5866C87.604 92.4226 88.276 90.3418 88.3456 89.1106C88.4128 87.8506 88.42 83.485 88.3024 83.0434C88.0792 82.285 87.9664 81.781 87.808 81.6154C87.736 81.541 86.8792 80.593 86.8192 80.4634C86.7232 80.2522 86.2288 78.841 86.1616 78.7066C85.564 77.4826 84.4096 75.9202 83.4712 74.917C82.6984 74.029 81.8176 72.6034 81.604 72.1162C81.5728 72.0442 80.7832 71.4106 80.6704 71.3482L80.6152 71.1826" stroke="#7A472F" stroke-width="3.6" stroke-linecap="round"/>
<path d="M35.0309 21.5964C35.1965 21.498 35.9193 24.1765 36.5673 24.9661C37.9161 26.6005 39.2289 28.8589 39.5793 29.4709C39.8193 29.8429 39.9417 30.4357 40.0161 30.6949C40.0449 30.7933 41.3361 32.7229 41.5905 33.4933C41.6193 33.5773 41.8569 34.8925 41.9409 34.9813C42.1137 35.1517 42.1617 35.2261 42.2913 35.5069C42.2457 35.1709 40.3953 31.8469 39.6657 30.5197C39.5265 30.2773 39.0753 29.6893 39.0537 29.6461C38.4153 28.2733 37.7625 27.2101 37.7433 27.1093C37.6593 26.6749 37.3569 26.3893 37.2177 25.8829C37.0977 25.4629 36.0033 23.8045 35.9937 23.7829C35.6769 23.1205 35.2977 22.7197 35.0313 22.3837C34.9761 22.3213 34.4781 23.06 34.4997 23C34.5525 23.1344 35.1273 23.3869 35.2041 23.6077C35.3769 24.1021 35.5641 25.2565 35.7249 25.6645C35.9817 26.3173 36.0225 27.2653 36.1665 27.4573C36.4569 27.8413 38.1489 32.0533 38.3553 32.4445C38.4345 32.5933 39.1497 34.1413 39.3177 34.2829L39.4929 33.3205" stroke="#7A472F" stroke-width="3.6" stroke-linecap="round"/>
<path d="M37.3928 20.3723C37.3664 20.0459 37.9424 19.7267 38.0912 19.5851C38.1608 19.5203 39.6128 19.0043 39.7544 18.8843C39.9128 18.7475 40.1408 18.3179 40.3664 18.2723C40.4864 18.2483 40.7552 17.9267 40.8032 17.9219C40.9784 17.9027 41.444 17.8595 41.504 17.8355C41.7656 17.7467 42.2624 17.5763 42.5528 17.6603C42.6416 17.9891 44.0168 21.1043 44.9168 22.4723C45.0344 22.6715 45.5696 24.2315 45.6872 24.5915C45.8504 25.0787 46.2656 25.8659 46.4912 26.4947C46.5824 26.7587 47.024 27.3515 47.1032 27.5459C47.1944 27.7667 47.3432 28.4411 47.5424 28.7123C47.7704 29.0315 47.8712 29.3123 47.8904 29.7323C47.8928 29.8043 47.8808 31.8707 47.9768 32.0075C47.9984 32.0339 48.056 32.0939 48.152 32.1827C47.8088 32.2115 47.576 32.1371 47.3648 31.8323C46.5488 30.6083 43.8632 27.7403 42.6344 26.4491C42.0632 25.8395 41.828 25.4051 41.5424 24.5723C41.3984 24.1547 39.6944 20.5859 39.404 20.1083H35.1176C35.1008 20.6891 35.1272 20.8715 35.2928 21.0707C35.4944 21.3131 35.792 21.9611 35.9048 22.1219C36.0848 22.3739 37.388 23.8931 37.8968 24.3587C38.4152 24.8291 39.6224 25.6931 39.7544 25.8827C40.0736 26.3435 41.1536 28.7267 41.504 29.3819C41.6288 29.6723 42.1184 31.4867 42.3896 32.0147C43.0496 33.1667 44.6912 36.8963 44.7416 37.0811C44.78 36.2099 44.4104 32.3891 44.3792 32.1707C44.0552 30.0347 43.2728 27.0227 42.968 26.1875C42.3728 24.5651 41.3168 23.1491 41.2424 23.0843C41.312 22.9787 40.4384 21.9491 40.3664 21.6851C40.364 21.6755 40.3784 21.0059 40.3664 20.6339C40.3664 20.5403 41.9888 20.3123 42.2912 20.3723C42.5768 20.4323 43.1216 20.9027 43.34 21.2459C43.4168 21.3683 45.0536 24.9707 45.7976 27.0635C46.7024 29.6195 48.1256 32.4779 48.3272 33.1451C48.68 34.3283 49.112 38.2187 49.1888 38.6411C49.232 38.8619 49.9208 42.6179 50.1656 43.4675C50.288 43.9379 50.5616 45.4331 50.996 46.2923C51.8624 47.9747 52.424 49.1579 52.4384 49.3283C52.4744 49.7627 52.5512 49.8971 52.6136 49.9403" stroke="#7A472F" stroke-width="3.6" stroke-linecap="round"/>
<path d="M44.041 34.1942V34.1077C44.209 33.9901 44.4442 34.067 44.7418 34.3694C44.9746 34.6142 45.5146 35.7661 46.0906 37.2085C46.501 38.2621 47.2066 41.2526 48.0394 44.0198C48.457 45.4382 49.0642 47.4661 49.9162 49.7557C51.0946 52.8037 53.5042 57.1166 54.3634 58.2518C54.8626 58.8758 55.285 59.8116 55.501 60.09C55.537 60.1356 55.7242 60.3062 55.8514 60.4382C55.9402 60.3374 55.957 58.9358 55.7626 58.1654C55.753 58.1246 54.2458 52.6573 54.1258 52.2733C53.9506 51.7237 52.5754 47.9438 52.0906 46.0046C51.8698 45.1742 50.3482 42.1789 49.9906 41.1061C49.8274 40.6309 49.1866 39.143 48.9802 38.7254C48.7354 38.2214 48.6154 37.2974 48.589 36.9062C48.5554 36.6974 48.0226 35.6389 47.977 35.5933C47.797 35.3989 47.5714 34.331 47.5402 34.283C47.4538 34.1942 47.3266 34.0452 47.2786 33.8438C47.1586 34.1172 47.221 34.4342 47.5402 35.0702C48.3562 36.7286 49.7386 38.8022 50.3626 39.815C51.4138 41.4926 53.0122 43.547 53.6722 44.6462C54.7618 46.4654 56.2882 49.2638 56.6938 49.907C57.3394 50.9366 58.6186 55.259 59.5258 58.2518C59.7706 59.1422 60.0874 60.4814 60.1378 60.527C59.6554 58.6262 59.1706 57.4118 57.697 54.3326C57.1426 53.1614 55.4986 48.7598 55.3258 48.191C55.0546 47.2886 53.3074 43.3454 53.1394 42.155C53.017 41.3006 52.0498 38.3534 51.6514 37.8686C51.649 37.8638 51.4666 37.5086 51.3898 37.4318C51.3154 37.3574 49.8802 36.3758 49.6402 36.2054C48.829 35.6318 47.353 34.2302 47.1898 34.1942C47.113 34.1774 46.3234 34.2086 46.141 34.1942C45.8818 34.1822 44.7442 34.9886 44.4778 35.3318C44.3962 35.4422 44.3746 37.355 44.5018 37.8398C44.5762 38.1038 46.4698 41.1829 47.3242 42.4837C47.6002 42.9325 48.4114 43.8974 48.589 44.1686C48.7018 44.3126 49.5274 45.347 49.9906 46.2662C50.1058 46.4966 51.0082 48.1381 51.2914 48.5317C52.0474 49.5973 53.7154 52.7462 54.5506 53.9486C56.0506 56.0918 59.3914 62.8646 59.701 63.3254C59.7922 63.4646 59.7538 63.7668 59.7874 63.8508C59.8642 64.0476 60.2626 64.5782 60.313 64.8134C60.5002 65.6582 61.3114 66.3853 61.3618 66.4765C61.7746 65.0221 61.7266 58.8037 61.7122 58.6885C61.6954 58.5589 61.477 58.0334 61.3618 57.7262C61.8418 58.1726 62.2714 59.039 62.5882 59.5646C62.7634 59.8838 62.965 61.59 62.965 62.1036C62.9626 62.6052 62.9002 62.8694 62.7634 62.9774C62.6002 63.1022 62.5762 63.191 62.5882 63.6758C62.6002 64.0454 62.5786 65.0893 62.5882 65.1637C62.7226 66.1501 63.8074 68.3965 64.0738 68.8381C64.5538 68.8549 64.729 68.8309 65.125 68.6629C65.9794 68.2885 66.121 67.9716 66.0874 67.7868" stroke="#7A472F" stroke-width="3.6" stroke-linecap="round"/>
<path d="M47.1901 57.8142C46.8349 57.7854 46.2517 58.6302 46.1413 59.3022C46.1317 59.3526 45.3877 61.4502 45.3541 61.575C45.0877 62.547 45.0757 65.0334 45.0733 66.0822C45.0661 66.8046 45.6157 68.4006 45.8797 69.1878C46.1269 69.855 48.4357 73.0998 48.5029 73.2102C49.4293 74.727 50.1349 75.4878 50.9533 76.0974C51.7933 76.7262 54.2701 79.7718 54.3637 79.947C54.4957 80.2974 54.8677 81.0918 54.9757 81.3462C55.0021 81.4062 55.4437 82.3926 55.4149 82.659C55.3765 82.9974 55.5517 84.0054 55.5901 84.147C55.6381 84.3366 55.9285 84.8286 55.9381 85.0206C55.9429 85.0806 55.9429 85.2246 55.9381 85.4598" stroke="#4B2513" stroke-width="3.6" stroke-linecap="round"/>
<path d="M55.9379 83.5352C55.9307 87.2384 55.7675 88.688 55.7627 88.784C55.7579 88.9952 55.4099 89.4656 55.3259 89.6576C55.2323 89.8784 55.2515 91.8728 55.2395 92.3696C55.2179 93.1736 55.5011 94.9064 55.5899 95.3456C55.6211 95.6216 55.5731 96.416 55.5899 96.4808C55.6283 96.6344 56.1011 98.132 56.3771 98.6696C56.6627 99.2264 56.9675 100.41 57.3395 101.118C57.7091 101.818 59.1635 104.401 59.5259 104.881C59.7131 105.128 61.5851 107.583 62.0627 108.291C62.5523 109.023 63.4499 109.976 64.0739 110.13C64.3355 110.19 65.7803 111.09 66.2627 111.267C66.4283 111.325 66.8771 111.373 66.9611 111.442" stroke="#4B2513" stroke-width="3.6" stroke-linecap="round"/>
<path d="M58.3887 102.256C58.8015 102.755 59.6775 103.847 60.1383 104.442C60.7767 105.181 61.7127 105.798 61.8879 105.93C62.7999 106.501 64.0551 106.854 64.2495 106.981C64.4271 107.094 64.5735 107.272 64.7751 107.329C64.9719 107.387 65.5143 107.351 65.9991 107.593C68.9199 109.041 70.0167 109.228 70.1991 109.254C70.3167 109.273 78.7311 109.254 79.8231 109.254" stroke="#4B2513" stroke-width="3.6" stroke-linecap="round"/>
<path d="M95.8307 95.6074C95.8307 96.0634 95.4059 96.8146 94.9427 97.3906C94.4843 97.945 93.5987 98.7154 93.4595 98.9002C93.0419 99.481 92.1947 100.664 91.6331 101.118C90.0851 102.426 87.8891 103.753 87.4235 104.106C87.1259 104.331 85.9691 105.323 85.3331 105.668C83.4467 106.674 81.0515 107.603 80.2595 107.679C78.5267 107.833 77.7275 108.123 76.6715 108.205C76.3307 108.231 74.8835 108.863 74.2235 108.992C72.9587 109.232 71.9291 109.292 71.6867 109.429C71.3267 109.631 69.2315 109.741 69.0611 109.779C68.9579 109.801 68.7731 109.967 68.5355 109.955C68.4755 109.95 68.3579 109.95 68.1875 109.955" stroke="#4B2513" stroke-width="3.6" stroke-linecap="round"/>
<path d="M68.5361 108.205C69.2561 108.409 69.8345 108.543 70.4609 108.555C73.8209 108.551 75.6281 108.604 77.1113 108.301C77.5481 108.253 81.5393 107.392 81.6593 107.329" stroke="#4B2513" stroke-width="3.6" stroke-linecap="round"/>
<path d="M44.5671 64.2871L44.1279 64.3759C44.0967 64.4935 43.7847 64.7623 43.6911 64.8991C43.2975 65.4967 43.3479 66.3055 43.3383 67.5895C43.3335 68.0575 43.3647 68.3407 43.3407 68.4007C43.2351 68.6671 42.9351 69.3799 42.9639 69.8671C42.9927 70.3639 43.0263 72.0007 43.3407 72.3367C43.5303 72.5311 43.8639 73.2079 44.4783 73.9111C44.7519 74.2759 46.7487 76.6351 47.5407 77.3239C47.6535 77.4175 48.3591 77.9983 48.4167 78.0223C48.6063 78.1039 49.1655 78.1567 49.2903 78.3727C49.3071 78.4015 50.0343 78.5911 50.1663 78.6343C50.3031 78.6967 51.1767 79.4839 51.3471 79.7095C51.7815 80.2879 52.8375 82.0855 52.9647 82.2223C53.0367 82.2991 53.5743 82.8295 53.5767 82.8343L51.0399 79.6855" stroke="#4B2513" stroke-width="3.6" stroke-linecap="round"/>
<path d="M44.3916 69.5361C44.4204 69.8169 46.854 73.1697 47.802 74.5233C48.4572 75.5169 49.1148 76.7985 49.4652 77.4105C49.5636 77.6001 50.0604 78.9201 50.6028 79.7721C50.8476 80.1585 50.8836 80.6841 51.0396 80.9961C51.2652 81.4497 51.4116 82.1481 51.39 82.2225C51.5316 82.3521 51.6324 82.7601 51.9156 83.0961C51.9516 83.1417 51.9612 83.6313 52.0908 83.9721C52.2636 84.2769 52.6596 85.1913 52.614 85.4601C52.5612 85.7721 52.8972 86.2209 52.9644 86.4201C52.998 86.5233 52.962 91.5321 52.9644 93.6345C52.9644 94.9737 52.9524 95.3889 53.1396 95.9577C53.5572 97.1673 53.766 97.6977 53.8404 99.0177C53.8668 99.5121 53.9292 99.7305 54.102 99.9801C54.1812 100.093 54.282 101.13 54.5388 101.382C54.7548 101.591 55.122 102.397 55.6764 103.131C56.3172 103.964 59.2164 106.275 59.2644 106.367C59.6316 107.067 60.69 107.36 61.014 107.329" stroke="#4B2513" stroke-width="3.6" stroke-linecap="round"/>
<path d="M47.7857 58.417C47.7233 58.8202 46.8521 60.2722 46.9985 62.2498C47.0393 62.7394 46.8425 63.2578 46.8017 63.4306C46.7849 63.5098 46.7657 68.3266 46.8017 68.4418C46.8857 68.6938 47.0873 68.8882 47.1953 69.1306C47.2361 69.2194 47.4545 70.3714 47.4905 70.4074C47.8313 70.7506 48.0569 71.2714 48.2753 71.3914C48.3521 71.4298 49.1753 72.6346 50.1449 73.6522C50.3393 73.7986 51.0017 74.4226 51.0281 74.437C51.3401 74.617 51.9641 75.0106 52.1105 75.2242C52.3217 75.5434 53.8433 76.861 54.4673 77.977C54.6545 78.3082 55.2401 78.8242 55.4513 79.4506C55.6697 80.1274 56.6921 81.5002 56.6297 81.7114C57.0089 81.9418 57.0449 82.3138 57.1217 82.4002C57.2129 82.501 57.6113 84.001 57.6137 84.169C57.6161 84.2674 57.7673 84.9178 57.8105 85.1506C57.8273 85.249 57.9737 85.6954 58.0073 85.8394C58.0505 86.0314 58.0121 86.8906 58.1057 87.1162C58.1753 87.2938 58.4225 87.6826 58.4009 88.297C58.3673 89.2282 58.5665 90.5194 58.5953 90.7546C58.6217 90.9562 58.5929 91.9906 58.5905 93.5386C58.5905 95.077 58.6169 95.5714 58.9889 96.2578C59.0153 96.3034 59.0153 96.337 58.9889 96.3562" stroke="#7A472F" stroke-width="3.6" stroke-linecap="round"/>
<path d="M56.2383 81.416H56.3367C56.4135 81.5384 57.0063 82.772 57.0231 82.8896C57.2199 84.32 57.4167 85.9496 57.4119 87.8216C57.4119 89.8448 57.4359 93.104 57.4167 93.2096C57.3807 93.4136 57.1911 93.9176 57.2031 94.316C57.2247 94.9904 57.2247 96.9392 57.2199 97.0448C57.1935 97.6976 57.8103 98.444 57.8103 98.6168C57.9231 99.0272 58.3335 99.476 58.4007 99.5984C58.4055 99.6104 58.3959 100.014 58.4991 100.189C58.6911 100.527 59.4711 101.581 59.6631 101.766C60.2535 102.327 60.5127 102.601 61.2495 103.138C61.4007 103.246 62.1399 103.892 62.5287 104.022C62.6919 104.077 62.7687 104.269 62.8215 104.317C62.9103 104.398 63.6663 104.682 63.7071 104.71C63.8223 104.787 64.2111 105.128 64.3959 105.202C64.4871 105.236 64.9983 105.176 65.0823 105.202C65.2527 105.248 65.5911 105.404 65.7711 105.399C65.8287 105.397 72.3663 105.409 72.4551 105.399C73.4847 105.277 75.3567 104.432 76.5975 104.204C77.1807 104.113 78.3615 103.906 79.3455 103.58C80.3367 103.246 81.9639 102.522 82.1847 102.45C82.2399 102.433 86.3943 101.449 87.1983 101.173C88.8543 100.592 89.9367 100.342 90.7359 100.09C91.2831 99.9152 92.0031 99.8504 92.7015 99.4016C93.2871 99.0224 94.3311 98.4056 94.4703 98.3216C94.6983 98.1848 95.2767 97.8224 95.3559 97.5344" stroke="#7A472F" stroke-width="3.6" stroke-linecap="round"/>
<path d="M93.9805 96.9468L94.0789 97.4364C94.3549 97.4892 94.6837 97.3356 94.9621 96.9468C95.1205 96.7236 96.4333 94.29 96.5341 94.0956C96.9085 93.3684 96.9325 93.2964 96.9277 92.8188C96.9205 92.6532 96.9733 92.4828 96.9277 92.3268C96.9109 92.2716 96.0493 91.014 95.9461 90.9492C95.6869 91.7988 95.3317 94.9428 94.5685 95.766C94.5181 95.8188 94.4197 95.886 94.2733 95.9628L94.1749 95.1756" stroke="#7A472F" stroke-width="3.6" stroke-linecap="round"/>
<path d="M78.0564 108.74H77.958C77.9796 108.51 78.138 108.378 78.63 108.246C79.4076 108.037 80.49 107.67 81.0852 107.466C82.1388 107.108 85.9164 105.301 86.6076 104.711C86.9604 104.406 89.1132 103.295 89.3604 103.139C89.7804 102.87 90.4836 102.63 90.7356 102.253C90.9132 101.977 92.7564 101.255 92.7996 101.173C92.8332 101.106 93.7932 100.295 93.9804 100.189C94.3044 100.081 94.5108 99.8509 94.5684 99.7957V99.6973" stroke="#4B2513" stroke-width="3.6" stroke-linecap="round"/>
<path d="M56.8213 65.2066L56.6053 65.317C56.6077 67.1122 56.5957 70.3954 56.6053 70.5298C56.6149 70.6522 56.7661 71.245 56.8213 71.5066C56.8717 71.7202 57.7261 72.7378 57.8005 72.8098C58.3549 73.357 59.9173 74.485 61.8181 74.9818C62.0797 75.049 63.8557 75.3034 64.4077 75.4738C64.5133 75.5074 65.7133 75.8698 66.7165 75.8746C67.3189 75.8746 67.7653 75.8314 68.2261 75.7426C68.5285 75.0994 68.9797 74.677 69.3109 74.4394C69.5869 74.2426 69.6685 74.0362 69.9637 73.6786C70.2277 73.357 70.2805 72.7738 70.2901 72.5938C70.2949 72.4498 70.5181 71.2546 70.5373 69.7114C70.5373 68.5738 70.5181 65.9122 70.5061 65.8594C70.3309 65.0458 69.4213 64.1866 69.3109 64.0138C69.2053 63.8506 68.9413 63.1858 68.6605 62.9266C68.5645 62.8378 68.0797 62.437 68.0077 62.2762C67.4485 62.1274 66.5941 62.113 66.0853 62.3866C66.0181 62.4226 65.9005 62.4946 65.7277 62.6002" stroke="#4B2513" stroke-width="3.6" stroke-linecap="round"/>
<path d="M57.0395 66.7285L56.6051 66.8365C56.6075 68.1205 56.6123 71.8717 56.5763 72.7789C56.5691 73.2589 56.9939 74.4517 57.3803 74.8717C58.4435 75.9973 58.7891 76.4989 58.8851 76.5037C59.1035 76.5085 59.3291 76.4437 59.5379 76.5037C59.7419 76.5589 60.2747 76.9117 60.7307 76.9381C60.8603 76.9453 63.4043 76.9597 63.5555 76.9381C63.8171 76.8973 64.6187 76.6645 64.9667 76.7197C65.1491 76.7509 65.4443 76.3933 65.6195 76.2853C65.7107 76.2277 66.0443 76.2829 66.3803 76.1629C67.8659 75.6517 69.4043 74.8813 69.6371 74.3317C69.6443 74.3149 70.5227 73.2613 70.7243 73.0285C70.8731 72.8533 71.3867 71.9581 71.4827 71.8333C71.5883 71.6965 72.2675 71.0821 72.3515 70.9645C72.3611 70.9525 73.1819 69.0589 73.2419 68.7301C73.3475 68.1229 73.3379 65.7709 73.3307 65.7517C73.2899 65.6605 72.1955 64.6093 72.1355 64.5565C71.5307 64.0261 70.8851 63.5317 70.7243 63.4693C70.6883 63.4573 70.0907 62.8189 69.7451 62.7109C69.2963 62.5693 68.7611 62.0845 68.5523 62.0581C68.4947 62.0509 68.3867 62.0509 68.2259 62.0581C68.1683 62.2261 69.0899 63.8293 69.6011 64.5037C69.9347 64.9357 70.0091 65.2213 70.0715 65.3173C70.2299 65.5621 71.2547 66.7981 71.3747 67.0549C71.5379 67.3813 72.1619 68.7805 72.2435 69.0085C72.2651 69.0757 72.2363 72.0877 72.2435 72.2677C72.2627 72.8317 72.2339 72.9565 72.0275 73.3525C71.9867 73.4245 71.1275 74.5141 71.0483 74.5477C70.3859 74.7997 68.9531 74.7637 68.1611 74.7421C67.6355 74.7373 66.5099 75.0109 65.6483 75.0013C64.7747 74.9797 63.9347 74.9821 63.6635 74.9821C63.4403 74.6749 63.0443 74.1781 63.0131 74.1133C62.9507 73.9909 62.5019 72.6229 62.3603 72.4837C62.3003 72.4309 61.5779 71.9629 61.4915 71.8333C61.2635 71.4877 60.9587 71.2573 60.9491 71.1805C60.9179 70.8925 60.9347 69.7333 60.9491 69.4429C60.9755 68.9893 61.2083 68.6533 61.2755 68.5741C61.7603 68.0533 63.4715 66.6949 63.7715 66.6205C63.9299 66.5821 65.1971 66.3589 65.4011 66.1861C65.4107 66.0637 63.3251 66.0709 63.1211 66.1861C62.0627 66.8149 60.7571 68.1157 60.4067 68.5741C60.3011 68.7229 60.0347 69.1405 60.0563 69.6613C60.0827 70.1485 60.0779 70.7437 60.0803 70.7461C60.1163 70.8421 60.4307 71.1901 60.5147 71.2909C60.7331 71.5285 61.7459 71.4997 62.8451 71.5093C65.8931 71.5381 67.6043 71.4181 68.1179 71.1805C68.3795 71.0437 69.0011 70.7173 69.0947 70.6381C69.4907 70.2853 69.6995 69.8557 69.6803 69.3973C69.6683 69.2101 69.6467 68.1445 69.6371 68.0317C69.5387 66.9637 68.7083 66.5245 68.6603 66.5101C68.6363 66.5053 66.5435 66.5029 66.2699 66.6205C66.0731 66.7069 63.8051 68.4325 63.7715 68.4661C63.5099 68.7445 62.9291 69.6637 62.7947 69.9877C62.6627 70.3261 62.7083 71.3461 62.6867 72.0493C62.6891 72.1501 64.7771 72.1669 64.9739 72.1429C65.7587 72.0445 67.4651 71.0509 68.0075 70.6381C68.3435 70.3789 69.0803 69.7189 69.2027 69.5533C69.2963 69.4237 69.8819 68.0557 69.8699 67.6429C69.8531 67.2829 69.8483 66.7933 69.8507 66.5245C69.8483 66.2053 69.5651 65.8549 69.0947 65.5333C69.0275 65.4901 68.7515 65.2549 68.6603 65.2069C68.6291 65.1949 66.4307 65.1997 66.3803 65.2069C65.7275 65.3101 61.6499 66.9973 60.6227 67.4893C60.5099 67.5445 59.2139 68.3341 59.2115 68.3581C59.1923 68.6053 58.7819 68.9821 58.7771 69.0085C58.7699 69.0541 58.7699 69.2005 58.7771 69.4429L59.2115 69.7693" stroke="#4B2513" stroke-width="3.6" stroke-linecap="round"/>
<path d="M69.4212 65.4251C68.7324 65.4107 67.3116 65.3939 66.7092 65.5811C66.5076 65.6531 66.1956 65.9099 66.162 66.0755C66.1476 66.1643 66.2076 67.2227 66.162 67.4891C66.054 67.9235 65.97 68.6483 65.9436 68.7923C65.91 68.9819 65.5164 69.7427 65.5092 69.7691C65.478 69.9107 65.49 70.3475 65.3052 70.9211C65.1276 71.4803 65.034 71.7275 64.9668 71.8331C65.1636 72.3323 65.9604 71.6003 66.162 71.2907" stroke="#4B2513" stroke-width="3.6" stroke-linecap="round"/>
<path d="M72.0273 59.9935C72.2601 59.9623 72.4953 60.0463 72.7857 60.3199C73.3305 60.8623 74.3313 61.8463 74.5353 62.2879C74.6745 62.6047 74.8473 62.8759 74.8497 62.9263C74.8641 63.1807 74.8713 63.8599 75.0465 64.1431C75.2265 64.4407 75.4617 64.8991 75.5025 65.0983C75.5289 65.2399 75.5169 65.8495 75.6105 66.0751C75.6105 66.0751 75.9201 66.5407 75.9369 66.7279C75.9585 66.9799 75.9177 67.6591 75.9369 67.7047C75.9921 67.8559 76.1697 68.2063 76.1529 68.6839C76.1529 69.9871 76.3449 71.1463 76.3713 71.2903C76.4121 71.5231 76.7937 72.2023 76.8057 72.2671C76.8225 72.3799 76.8033 74.0647 76.8057 74.3311" stroke="#7A472F" stroke-width="3.6" stroke-linecap="round"/>
<path d="M51.8271 70.8564C51.9087 70.9884 51.9999 71.3652 52.0431 71.5068C52.1127 71.7372 52.7848 72.6564 52.804 72.702C52.876 72.9924 52.9479 73.2804 53.0223 73.5708C53.0751 73.6908 53.5215 73.9213 53.6727 74.2213C53.7255 74.3245 54.2295 75.1452 54.3255 75.2004C54.6783 75.4068 55.7607 76.7604 56.0895 77.0436C56.3823 77.2956 57.8007 78.2412 58.6695 79.11C58.9911 79.4604 60.1983 79.9284 60.4071 79.9788C62.1039 80.3796 62.4711 80.4252 66.3039 80.4252C67.8663 80.4156 68.3511 80.262 68.6847 80.202C69.1167 80.118 70.1655 79.4797 70.2903 79.4341C70.4631 79.3717 71.0968 79.2564 71.3752 79.11C72.8296 78.3468 73.8399 77.5404 74.1999 77.046C74.4183 76.7412 74.5816 76.71 74.7424 76.7196L76.8063 74.766" stroke="#7A472F" stroke-width="3.6" stroke-linecap="round"/>
<path d="M53.8984 100.357C54.0688 101.154 55.7968 104.075 56.8888 105.45C57.7192 106.314 59.7136 108.654 60.2008 109.245C60.3424 109.41 61.2184 110.034 61.7512 110.07" stroke="#4B2513" stroke-width="3.6" stroke-linecap="round"/>
<path d="M53.8984 95.3984C54.0784 96.5744 58.1536 104.048 58.2376 104.18C58.3576 104.365 59.224 105.79 59.788 106.453C60.5608 107.37 61.06 107.787 61.9576 108.21C62.608 108.524 64.1968 109.472 64.4368 109.554C64.7056 109.645 65.5792 109.846 65.7808 109.966C65.8864 110.029 66.244 110.242 66.916 110.482" stroke="#4B2513" stroke-width="3.6" stroke-linecap="round"/>
<path d="M52.8633 97.8779C53.0865 97.9331 56.0025 101.207 56.9097 102.404C57.4689 103.132 58.8513 104.476 59.4345 105.138C60.0009 105.774 61.4505 106.816 61.8897 107.156C62.5737 107.682 63.8889 108.359 64.2441 108.613C64.7265 108.959 65.7489 109.331 66.3993 109.657C66.7785 109.83 67.3641 109.856 67.5345 109.864C67.6977 109.866 68.4993 110.284 68.5689 110.38V110.483" stroke="#4B2513" stroke-width="3.6" stroke-linecap="round"/>
<path d="M58.6504 104.077C58.7704 104.233 59.716 104.404 60.304 104.8C60.364 104.84 62.0776 105.937 62.2672 106.04C62.728 106.295 63.5728 106.9 64.2304 107.075C64.4104 107.12 64.984 107.372 65.1592 107.384C65.8792 107.432 66.7528 107.6 67.5088 107.605C71.2528 107.598 75.2944 107.591 75.5944 107.591" stroke="#4B2513" stroke-width="3.6" stroke-linecap="round"/>
<path d="M70.8418 107.591C71.593 107.612 75.109 106.693 75.7618 106.376C76.2418 106.153 78.3178 105.572 78.4882 105.524C78.7402 105.452 79.393 105.114 79.417 105.112C79.585 105.078 80.2858 105.063 80.6578 104.905C81.9682 104.348 83.881 103.775 84.8938 103.148C84.985 103.091 86.4106 102.316 86.6482 102.217C86.8978 102.116 87.7906 101.951 87.889 101.908C88.7722 101.521 89.7154 100.803 89.8522 100.772C90.733 100.551 94.1434 98.1227 94.3978 97.5683C94.429 97.4987 94.6858 97.3835 94.7074 97.3619C94.7338 97.3355 95.821 95.5451 95.845 95.5019C96.1378 94.9979 96.2194 94.5252 96.2578 94.47C96.3106 94.3884 96.433 94.3546 96.4642 94.2634C96.5098 94.1314 96.4714 93.8051 96.6706 93.4355C96.9538 92.9099 97.1386 92.485 97.0834 92.5066" stroke="#4B2513" stroke-width="3.6" stroke-linecap="round"/>
<path d="M60.0971 100.357C60.0515 100.652 60.6659 101.684 61.0259 101.804C61.7891 102.049 62.3819 102.418 62.8859 102.63C63.0731 102.706 63.5867 103.023 63.9203 103.045C64.0883 103.054 65.1227 103.045 65.1587 103.045C65.2115 103.042 66.5027 103.354 66.8123 103.458C66.9827 103.489 67.4747 103.47 67.5347 103.561C67.6187 103.681 69.2243 103.645 69.2915 103.664C69.8891 103.904 70.9835 103.863 71.8643 103.861C72.5699 103.858 74.2139 103.921 75.0923 103.662C75.7643 103.458 77.6795 103.251 78.1763 103.251C78.4451 103.22 78.7547 102.843 78.7979 102.838C79.0691 102.79 80.0099 102.805 80.4491 102.63C80.5931 102.574 81.0083 102.452 81.0707 102.423C81.0827 102.418 81.4571 102.032 81.5867 102.01C81.7571 101.982 81.9371 102.054 82.1027 102.01C82.3283 101.955 83.8019 101.314 84.3851 100.909C84.6371 100.734 86.0579 100.371 86.2355 100.254C86.4203 100.134 86.9459 99.6873 87.0635 99.6345C87.1619 99.5913 88.3883 99.0297 88.4051 99.0153C89.1995 98.3121 89.9363 98.2497 90.4715 97.7745C90.7259 97.5585 92.5235 96.5529 92.5379 96.5361C92.6627 96.3777 92.9603 95.8401 93.0539 95.8113C93.1571 95.7777 93.4691 95.6193 93.8819 95.0889C94.4459 94.3545 95.0243 93.4569 95.1203 93.2289C95.3075 92.7801 95.3771 91.7025 95.4323 91.5753C95.5283 91.3473 95.8331 90.8169 95.8451 90.7497C95.8595 90.6681 96.3611 89.2521 96.4643 88.8897C96.4859 88.7721 96.4619 86.8377 96.4643 86.5137" stroke="#B87D47" stroke-width="3.6" stroke-linecap="round"/>
<path d="M61.5448 101.598V101.494C61.468 101.422 60.94 101.079 60.82 100.978C60.6136 100.822 59.7808 100.107 59.4784 99.2215C59.0896 98.0815 58.3408 97.4119 58.1344 97.2583C58.0384 97.1695 57.6088 96.5263 57.2056 95.9143C57.004 95.6095 56.9944 95.3695 56.584 94.8823C56.5696 94.8631 56.5696 90.9871 56.584 90.9559C56.6296 90.8695 56.8096 90.6895 56.7904 90.1303C56.7904 89.6119 56.7784 88.6567 56.9368 88.1431C57.0688 87.7207 57.196 87.5191 57.2056 87.4423C57.2104 87.3847 57.2176 85.6399 56.9968 84.8599C56.7952 84.1471 56.5384 83.7919 56.3776 82.8967C56.224 82.0495 55.9912 81.9295 55.7584 81.1399C55.7104 80.9767 55.4752 80.7919 55.4488 80.7271C55.4224 80.6695 55.3288 80.1151 55.2424 80.0047C54.7936 79.4263 54.3928 78.9607 54.3112 78.8671C53.92 78.4159 53.6056 77.7415 53.176 77.6287C52.8736 77.5519 52.8352 77.4223 52.1416 76.9039C51.832 76.6975 50.32 75.6463 49.8688 75.2527C49.8424 75.2287 48.628 74.1151 48.3184 73.8055C47.7784 73.2703 47.4208 72.4255 47.1832 72.2551C47.032 72.1423 46.912 70.7023 46.8736 70.4983C46.8448 70.3471 46.636 70.0039 46.648 69.6727C46.6672 69.1423 46.6768 62.6311 46.6672 62.4415C46.648 62.0383 47.1376 61.1335 47.2864 60.6847C47.3008 60.6415 48.628 58.7503 48.94 58.6183C49.0936 58.5151 49.8184 58.1671 50.0752 57.8935C50.116 57.8527 50.2048 57.6247 50.2816 57.5839C50.3896 57.5455 50.6848 57.6727 50.7976 57.8935C50.932 58.1575 51.172 58.8703 51.4192 59.2375C52.4344 60.7639 53.3728 62.3263 53.8984 62.6479L54.3112 63.9895" stroke="#B87D47" stroke-width="3.6" stroke-linecap="round"/>
<path d="M54.7237 63.9902C54.7285 64.7102 54.7165 65.0222 54.6205 65.1278C53.9653 65.783 53.7781 66.2558 53.6917 66.3662C53.4685 66.6638 53.4853 67.1102 53.4805 68.4806C53.4685 70.6478 53.4757 75.4214 53.6269 75.9134C53.6773 76.0742 53.8789 77.0246 54.0013 77.3198C54.0493 77.4302 54.1525 77.5334 54.3109 77.6294" stroke="#B87D47" stroke-width="3.6" stroke-linecap="round"/>
<path d="M49.5593 59.4444C49.0505 59.4252 48.7841 59.4732 48.7337 59.6508C48.6593 59.9052 48.0953 61.2132 48.0977 62.1228C48.1001 64.2396 48.1073 67.242 48.1841 67.6572C48.2249 67.878 48.7241 68.6148 48.7337 68.6388C48.7937 68.838 48.6785 69.0612 48.7337 69.2604C48.8969 69.8772 49.6625 71.43 49.6625 71.43C49.7705 71.1828 49.7753 66.8964 49.7705 64.9404C49.7705 64.386 49.7153 63.2052 49.9721 62.6028C50.0417 62.4444 50.2025 62.0628 50.1785 62.0268C50.1785 62.5452 50.1977 64.1964 50.2121 64.4916C50.2577 65.3172 50.8529 70.038 51.0065 70.602C51.3977 72.0492 51.4193 73.5996 51.4193 74.2188C51.4193 72.4116 51.4481 68.4012 51.3593 67.6956C51.1745 66.3612 51.2105 63.3108 51.2129 63.2676C51.2225 63.1332 51.4793 62.9652 51.5225 62.958C51.7649 62.9436 52.1321 63.2028 52.3481 63.5772C52.6529 64.1172 53.3033 66.9636 53.2793 67.8132C53.2721 67.9212 53.0609 67.9092 52.5737 67.914C52.4801 67.9116 51.7793 67.9164 51.6257 67.9164" stroke="#B87D47" stroke-width="3.6" stroke-linecap="round"/>
<path d="M47.4929 70.3951V70.4983C47.1497 70.5103 47.0537 70.4935 46.9769 70.3951C46.9457 70.3567 46.5305 69.7039 46.4585 69.4663C46.4057 69.2839 46.4729 68.3215 46.4825 67.8871C46.4969 67.4983 46.2881 67.2079 46.2521 67.0903C46.2209 66.9751 46.2521 62.9047 46.2521 62.3359" stroke="#B87D47" stroke-width="3.6" stroke-linecap="round"/>
<path d="M46.8735 60.8911C46.5999 60.8743 46.0239 61.3135 45.9423 61.4071C45.6807 61.7287 45.6255 62.0743 45.6327 63.4735C45.6303 64.3423 45.6255 65.9959 45.7359 66.1591C45.8367 66.3007 46.2687 67.2103 46.7703 67.7095C46.8519 67.8007 46.9143 68.1727 46.9767 68.2255C47.1423 68.3671 47.6991 68.5735 47.6991 68.5351" stroke="#B87D47" stroke-width="3.6" stroke-linecap="round"/>
<path d="M51.0059 68.5352H51.1091C51.3467 69.0272 52.0235 69.8624 52.2515 70.2824C52.5419 70.808 54.2411 72.7856 54.3107 72.8744C54.6515 73.3232 57.4667 78.1592 57.5147 78.248C58.2947 79.7192 59.6915 80.8328 59.8907 81.14" stroke="#B87D47" stroke-width="3.6" stroke-linecap="round"/>
<path d="M57.4121 78.4546C57.7985 78.4354 59.1161 78.6706 60.6497 78.6802C62.8337 78.6706 66.0809 78.6562 66.8153 78.6754C67.2641 78.6874 67.5185 78.4834 67.6385 78.4546C67.8401 78.4042 68.4113 78.4522 68.6729 78.3514C69.4841 78.0418 70.0937 78.0442 70.3265 77.629C70.4513 77.6266 71.0897 77.629 71.2553 77.5258C71.8409 77.161 72.9089 76.0258 73.4249 75.5626C73.5257 75.4378 73.4753 75.133 73.5281 75.0442C73.6289 74.8786 73.8209 74.785 73.9409 74.6314C73.9841 74.5786 74.7137 72.7546 74.7689 71.6362C74.7833 71.3458 75.1841 69.5218 74.9753 67.813C74.8625 66.9226 74.5889 66.5914 74.5625 66.0562C74.5505 65.8546 73.7633 64.5994 73.7345 64.5058C73.6961 64.3738 73.6625 63.9562 73.6313 63.8866C73.4849 63.445 73.2233 63.1594 73.1153 62.8546C72.9041 62.2546 71.7401 61.081 71.5649 60.9946C71.4929 60.9586 70.9289 60.889 70.8425 60.7882C70.4417 60.3226 69.0089 60.1114 68.8793 60.0634C68.7185 60.0058 68.3273 59.6698 68.0537 59.6506C67.8953 59.641 66.7481 59.6506 66.7097 59.6506C66.1721 59.6698 66.0017 59.629 65.7809 59.4442C65.6249 59.3002 64.9745 57.2314 64.8497 56.6554C64.8497 55.7242 63.5561 53.4778 63.1961 53.1418L63.2993 52.8322C63.4313 52.8658 64.5929 52.5034 65.4689 52.4194C65.6033 52.4074 65.7545 52.2178 65.7809 52.213C65.8361 52.201 67.5905 52.2202 67.8473 52.213C68.8889 52.1914 69.8561 52.4098 70.6361 52.4194C71.0921 52.4266 72.6401 53.2114 72.7025 53.245C72.9065 53.3602 73.7993 54.1522 74.6657 54.589C74.8721 54.6922 75.3041 54.913 75.3881 55.105C75.4409 55.2394 76.0625 55.9522 76.1105 56.0338C76.2065 56.1946 76.7417 57.277 76.8353 57.5842C76.8401 57.6034 77.5505 58.5826 77.9705 59.4442C78.0785 59.6674 78.0641 60.241 78.0737 60.2698C78.1745 60.5626 78.5753 61.2922 78.6233 61.633C78.6761 61.9882 78.7193 62.5642 78.7265 62.893C78.7433 63.4738 79.6313 64.6474 79.7273 65.5402C79.7417 65.677 79.7393 65.9938 79.9337 66.2626C80.1161 66.505 80.1113 67.093 80.1401 67.297C80.1593 67.4458 80.5289 68.2186 80.5553 68.4322C80.5697 68.569 80.5697 68.881 80.5553 69.3634" stroke="#B87D47" stroke-width="3.6" stroke-linecap="round"/>
<path d="M66.5027 53.8639L66.3995 53.7607C66.3731 53.9287 66.4115 53.9839 66.6995 54.0967C67.5947 54.4471 69.8699 55.9351 71.0483 56.9647C71.2715 57.1663 71.7803 57.6247 71.8739 57.6871C71.9771 57.7567 72.2075 57.9271 72.2891 58.3087C72.3419 58.5679 72.4115 58.7407 72.4955 58.8247C72.6347 58.9687 73.1891 59.2831 73.4243 59.7535C73.5635 60.0295 73.6595 60.3295 73.8371 60.5815C73.9091 60.6823 74.8907 61.7023 74.9747 61.8199C75.0347 61.9039 76.0595 63.7327 76.4219 64.2991C76.9763 65.2783 77.6675 67.4311 78.0731 68.0191C78.4643 68.5807 78.4763 68.9143 78.4883 69.0535C78.4907 69.1015 78.5243 69.1711 78.5915 69.2599C78.6155 68.7967 78.5699 68.5207 78.3539 67.9831C77.2331 65.1631 76.2371 63.0247 75.1859 61.5487C74.5307 60.6487 72.9875 59.0311 72.8051 58.9279C72.3563 58.6783 70.9739 57.5431 70.7387 57.5839C70.5659 57.6127 70.2635 57.2359 70.1195 57.0679C69.7019 56.5831 68.8259 55.8799 68.4659 55.5175C68.0675 55.2079 67.4435 55.3303 67.3283 55.4143V56.2423C67.5395 56.4103 68.7371 56.9575 68.8787 56.9647C71.1203 57.0727 71.7443 56.9479 71.8739 56.8615L71.9771 56.4487C72.5531 56.6551 72.8123 56.8375 73.1219 57.3199C74.6939 59.6911 75.8771 61.6111 76.3187 62.9575C76.3835 63.1591 76.9907 65.3143 77.1443 65.7463C77.4059 66.4591 77.6099 68.3695 77.6603 68.6383C77.7203 68.9575 78.3371 71.0359 78.5915 71.5327C78.7019 71.7583 78.6971 73.1215 78.6947 73.4959" stroke="#B87D47" stroke-width="3.6" stroke-linecap="round"/>
<path d="M78.0729 71.2236C78.0873 72.4788 77.8305 73.5732 77.2473 74.6316C77.1633 74.7828 76.1457 76.7076 75.8001 77.1108C75.4401 77.4732 74.7945 78.1668 74.5617 78.6612C74.4537 78.8892 73.8417 80.1036 73.1145 80.8308C72.6441 81.3708 72.0201 81.7236 71.7705 81.8652L72.9081 79.6956" stroke="#B87D47" stroke-width="3.6" stroke-linecap="round"/>
<path d="M75.3876 67.5029C75.4572 68.2085 75.2724 69.3245 74.8716 70.1885C74.7444 70.4549 74.4828 70.8629 74.3556 71.0165C74.1372 71.2709 73.8204 72.3533 73.122 73.2365C69.9372 77.3789 69.6852 77.9381 69.498 78.1445C69.282 78.3845 68.4276 78.4325 68.2596 78.5573C68.1876 78.6077 67.7868 79.2797 67.7412 79.2797" stroke="#B87D47" stroke-width="3.6" stroke-linecap="round"/>
<path d="M60.923 80.7272H59.375C59.8838 80.4968 61.8518 80.2808 62.0678 80.2472C63.8198 79.9184 67.1846 79.4336 68.0534 79.28C68.3222 79.2344 69.9686 79.0256 70.1198 78.9704C70.2662 78.9176 70.8902 78.6944 71.1518 78.6608C71.4278 78.6272 72.2846 78.668 72.4958 78.6608C72.8582 78.6512 73.583 78.3056 73.8374 78.248C74.027 78.2024 74.9366 78.2792 75.0782 78.248C75.7502 78.092 77.3102 77.6456 79.0046 76.5944C79.1294 76.5104 79.4582 75.9944 79.5206 75.7688C79.5422 75.6824 79.5206 72.308 79.5206 71.9456C79.283 71.8496 78.6638 71.8304 78.1766 71.9456C77.6798 72.068 76.7702 73.064 75.9902 73.9928C75.0998 75.0872 73.2302 78.3872 72.7022 80.2112C72.7022 79.8248 72.6974 79.1 72.7022 78.9704C72.7238 78.4712 73.427 77.276 73.631 76.4912C73.6622 76.3736 74.6054 74.0264 74.8718 73.9088C74.9918 73.8584 75.587 73.9208 75.5942 73.9088" stroke="#B87D47" stroke-width="3.6" stroke-linecap="round"/>
<path d="M78.6953 70.1887C80.2433 70.1887 83.2001 70.1815 83.2409 70.1887C83.2745 70.1959 85.8569 72.3247 86.3393 72.5647C86.6585 72.7591 89.6057 76.58 89.9561 76.8008C90.4193 77.096 90.5513 77.6288 90.7817 77.8352C91.0361 78.0584 93.9545 81.3583 94.6049 84.1375C94.6529 84.3487 94.5977 85.3711 94.6049 85.5823C94.6289 86.2495 95.0417 87.6919 95.1209 87.8551C95.2385 88.1167 95.2241 90.6463 95.2241 90.9559L94.6049 89.4055" stroke="#B87D47" stroke-width="3.6" stroke-linecap="round"/>
<path d="M80.7614 69.5693H80.6582C80.4542 69.8213 80.8646 70.4477 81.071 70.7045C81.419 71.3021 82.259 72.0293 82.9046 72.4469C83.5718 72.8765 85.0454 74.0333 85.4822 74.3237C85.9982 74.6717 86.9486 75.7445 87.167 75.9749C87.8678 76.7189 90.2054 80.1101 90.575 80.3141C90.767 80.4221 92.3294 82.6805 92.3318 82.6901C92.4206 82.9397 92.6102 83.8757 92.6414 83.9309C93.1142 84.7613 93.2198 85.1069 93.3662 85.7909C93.4166 86.0333 93.635 86.2181 93.6758 86.3069C93.7166 86.3957 93.8222 87.1469 93.8822 87.2357C93.9734 87.3821 94.1486 87.4829 94.1918 87.6485C94.2518 87.8837 94.1558 88.1333 94.1918 88.3733C94.2182 88.5557 94.415 88.9805 94.3982 89.7149C94.391 89.9861 94.4054 91.0589 94.3982 91.1621C94.3646 91.5533 93.7454 92.2661 93.4694 92.4029C93.059 92.6021 92.5142 92.7413 92.435 92.8157C92.3462 92.8997 92.1566 93.2045 91.919 93.3317C91.8158 93.3845 91.1942 93.6269 90.8846 94.0541C90.8438 94.1165 90.587 94.4813 89.9558 94.7789C88.0454 95.6765 85.871 97.2125 85.823 97.2581C85.6382 97.4309 85.3574 97.4645 85.2038 97.4645C85.103 97.4909 83.243 98.2901 83.2406 98.2901C82.1198 98.9813 79.991 99.9173 79.5206 99.9437C79.3142 99.9557 78.4886 100.085 78.2798 100.15C78.1454 100.193 77.3966 100.493 77.1446 100.563C76.9838 100.606 62.5094 100.585 62.4734 100.563C62.3894 100.517 62.3606 100.383 62.267 100.357C62.1014 100.306 61.6166 100.347 61.4414 100.15C60.0926 98.6429 59.4854 97.5965 59.4782 97.4645C59.4158 96.4421 59.0438 95.1533 58.9598 94.8821C58.9286 94.7765 58.6598 93.0221 58.6502 92.9189C58.4342 91.8413 58.4318 88.5677 58.4414 86.6717C58.4462 85.1237 58.4414 83.7533 58.547 83.5157C58.6526 83.2949 59.1014 83.2301 59.1662 83.2061C59.375 83.1029 59.939 82.9757 60.0974 82.8965C60.2294 82.8317 60.5894 82.4237 60.8198 82.3805C60.995 82.3445 61.7702 82.3565 62.0606 82.2773C62.2646 82.2221 63.4046 81.7133 63.611 81.6581C64.0622 81.5309 65.5382 81.5717 66.1454 81.4661C66.755 81.3557 67.4054 80.9741 67.9502 80.9333C68.183 80.9165 69.5414 80.3405 69.911 80.1077C70.4606 79.7669 72.9086 79.1765 74.3558 78.7637C74.5214 78.7061 76.5134 77.3477 77.7614 76.9565C78.3014 76.7837 78.9686 76.4213 79.211 76.2845C79.9166 75.8861 80.7086 75.2117 81.071 75.1469C81.1382 75.1397 82.6382 74.6765 83.7734 75.0917C83.9078 75.1421 84.8462 75.5309 85.5134 76.2845C86.027 76.8677 86.1422 77.1293 86.7518 77.9381C88.0574 79.6445 90.0518 82.9733 90.4718 83.6189C91.1342 84.6341 92.087 86.3429 92.2286 86.6165C92.5286 87.2045 92.5622 87.3245 92.5382 87.7517C92.5142 88.0877 92.5574 90.2837 92.5382 90.3365C92.4806 90.4925 91.3862 91.5869 91.1126 91.7717C90.0422 92.4773 85.8662 94.2101 85.7198 94.2629C85.2038 94.3661 83.4806 94.8941 83.4326 94.9013C82.4726 95.0669 81.395 95.5253 80.8646 95.6045C80.5886 95.6477 79.8518 95.7509 79.4534 95.9549C78.6662 96.3581 77.555 96.5645 76.9382 96.8453C76.8758 96.8717 75.0806 97.0973 74.6654 97.2581C74.6438 97.2677 73.487 97.8485 73.3214 97.8773C73.2206 97.8941 72.6086 98.0549 72.3926 98.0837C72.0854 98.1269 69.7718 98.2613 69.6014 98.2901C69.4766 98.3117 68.6366 98.6765 68.4662 98.7053C68.363 98.7221 66.0422 98.7845 65.5718 98.2901C65.3846 98.0909 65.2862 98.0573 64.9526 98.0837C64.6118 98.1149 64.4246 97.9109 64.3334 97.8773C64.2806 97.8581 64.1414 97.8581 63.9206 97.8773C63.7718 97.5893 63.1622 97.2941 62.783 97.2581C62.6198 97.2437 62.0246 96.7997 61.9574 96.7421C61.3118 96.1733 60.935 95.8421 60.6134 95.1917C60.503 94.9661 60.3638 94.3613 60.0974 94.0541C59.915 93.8429 59.4398 92.4053 59.4782 92.0909C59.5118 91.8101 59.2982 91.2749 59.2694 91.0589C59.2358 90.7853 59.3174 90.5045 59.2694 90.2333C59.2502 90.1109 59.0366 89.8565 59.063 89.5085C59.075 89.3381 59.1086 88.6109 59.063 88.4765C59.0054 88.2941 58.4774 87.5861 58.4438 87.4421C58.439 87.4253 58.4102 86.1317 58.4438 85.8941C58.4822 85.6901 58.9406 85.4693 59.063 85.3757C59.3222 85.1909 59.9462 84.6365 60.0974 84.6533C60.3614 84.6797 60.5918 84.4205 60.7166 84.3437C61.7726 83.6957 64.115 83.3717 66.0902 83.2061C66.731 83.1509 68.0774 82.4693 68.879 82.2773C69.347 82.1669 70.9934 81.4805 71.1518 81.4493C72.1742 81.2525 72.3758 81.0893 73.4246 80.9333C73.5326 80.9189 75.2054 80.4485 75.8006 80.2109C76.4222 80.0549 77.5478 79.4933 77.9702 79.4885C78.359 79.4813 79.727 78.9701 80.4494 78.6605C80.5478 78.6293 80.8838 78.6461 80.9678 78.5573C81.0638 78.4589 81.4814 78.2117 81.8966 78.0413C82.3406 77.8589 82.8398 77.8829 82.931 77.8349C83.1494 77.7197 83.3174 77.5109 83.5502 77.4221C83.771 77.3381 84.9062 77.6165 84.9974 77.7317C85.1822 77.9765 86.003 79.5125 86.6486 80.4173C87.1526 81.1397 87.9158 82.3925 88.0958 82.5869C88.4582 82.9997 89.2022 83.7269 89.3366 83.9309C89.4134 84.0485 89.447 84.3797 89.543 84.4469C89.6726 84.5405 89.9318 85.0469 89.9558 85.0661C90.2078 85.2629 90.7286 86.0093 90.8846 86.4101C90.9374 86.5541 91.091 86.8229 91.091 87.6485C91.091 87.7877 91.0358 88.3157 90.8846 88.4765C90.6638 88.6421 90.0278 89.3453 89.1902 89.8493C88.7678 90.1037 88.3262 90.4685 88.0958 90.7493C88.0814 90.7661 86.1134 91.8413 84.695 92.3525C83.7302 92.6909 83.1038 92.8853 82.619 92.9189C82.343 92.9381 82.0118 93.2405 81.8966 93.3317C81.6998 93.4901 81.3398 93.5117 81.2774 93.5381C81.2606 93.5453 80.6438 93.9725 80.4494 94.0541C80.1758 94.1717 78.2294 94.3733 77.7638 94.4693C77.4614 94.5293 76.6742 94.7669 76.5254 94.7789C76.2158 94.8005 74.1134 94.9637 73.9406 94.9853C73.2062 95.0837 72.3302 95.6285 71.7398 95.6021C71.255 95.5781 70.2446 95.8229 69.4166 95.8301C68.411 95.8325 65.9294 95.8181 65.8838 95.8109C65.7278 95.7077 65.2982 95.5541 64.9526 95.2949C64.9382 95.2829 64.5086 94.4021 64.2302 94.0541C64.1702 93.9845 63.7142 93.5381 63.7142 93.5381C63.6278 93.5165 63.575 92.9453 63.5054 92.7125C63.4886 92.6525 63.0302 91.7645 62.9894 91.5749C62.8358 90.8141 62.855 89.9093 62.783 89.7149C62.7326 89.5781 62.459 89.3789 62.3702 88.8893C62.3558 88.8149 61.7846 88.1477 61.9574 87.2357C61.9934 87.0581 62.699 86.4677 62.783 86.4101C62.9486 86.3045 63.4814 86.3141 63.5054 86.3069C63.695 86.2517 64.4078 85.6997 64.4366 85.6853C65.3918 85.2773 67.8686 84.7805 67.9502 84.7565C68.1134 84.7085 69.2774 84.1877 69.4982 84.1373C69.7694 84.0725 70.6406 83.9813 71.0486 83.8277C71.2862 83.7365 72.2582 83.3117 72.599 83.2061C72.839 83.1317 74.0774 82.8509 74.2526 82.7933C74.4062 82.7429 75.2702 82.3397 75.491 82.2773C75.7814 82.1933 77.0246 82.0037 77.1446 81.9677C77.1806 81.9557 78.0446 81.5789 78.383 81.4733C78.7382 81.3581 79.3166 81.3749 79.5206 81.3461C79.6598 81.3269 80.279 80.9981 80.4494 80.9333C80.9078 80.7509 81.539 80.8085 81.6902 80.7269C81.827 80.5901 81.9662 80.4509 82.103 80.3141C82.1798 80.2757 85.2398 80.3117 85.307 80.3141C85.7462 80.3381 86.3606 80.8445 87.167 81.3461C87.4094 81.4997 88.3934 82.4357 88.715 82.7933C88.9094 83.0117 89.351 83.4317 89.4398 83.7245C89.4998 83.9333 89.6558 84.4133 89.6462 85.1693C89.6414 85.3421 89.6174 86.2301 89.543 86.4101C89.4854 86.5445 88.5326 87.4301 88.4054 87.5453C87.971 87.9317 86.855 88.3037 86.435 88.4261C82.3262 89.6189 79.4606 89.9189 78.4982 90.0149C78.3758 90.0269 73.5182 91.5269 73.2182 91.5749C72.9926 91.6109 70.763 91.7525 69.7766 91.9373C68.8262 92.1173 67.3118 92.5253 66.6398 92.5133C63.0014 92.4941 62.339 92.5469 62.267 92.5061C62.0558 92.3693 61.9286 91.7261 61.9358 91.1093C61.9454 90.2069 61.9694 88.6781 61.8542 88.5797C61.7702 88.5173 61.6214 87.9293 61.5446 87.7517C61.4582 87.5645 61.0814 87.0701 61.1294 86.6165C61.163 86.4077 61.4054 86.0837 61.6478 85.9973C61.9862 85.8797 63.4478 85.9109 63.899 85.8389C64.2014 85.7909 69.4382 84.8189 70.0166 84.7565C70.9382 84.6605 72.9974 84.6629 73.3214 84.6533C74.1326 84.6269 75.5534 84.3821 76.9454 84.0773C77.8526 83.8877 79.5254 83.8205 80.3342 83.8013C81.119 83.7557 81.647 83.5421 82.5158 83.4125C83.5382 83.1869 84.3926 83.2109 86.2142 83.2013C88.0118 83.1965 88.2206 83.2229 88.4054 83.3093C88.4342 83.5253 88.319 83.8853 88.0958 84.0341C87.9494 84.1277 85.4054 84.7301 85.307 84.7565C84.5534 84.9461 81.2102 85.1789 79.2134 85.6397C78.2942 85.8413 77.0774 86.1077 76.1102 86.5133C76.1006 86.5181 74.1806 86.9261 73.115 87.3389C72.2174 87.6869 70.9598 87.7253 70.223 87.8549C69.6998 87.9485 67.5494 88.5293 66.7598 88.5797C66.5534 88.5917 65.855 88.5677 65.7806 88.5797C65.675 88.5989 65.5238 89.2493 65.0558 89.5085V90.3365C65.6822 90.4541 67.7198 90.4613 68.0534 90.4397C68.6294 90.3989 72.251 89.4677 73.4246 88.9925C74.135 88.7021 75.7166 87.8669 76.2134 87.6485C76.7342 87.4229 78.7814 86.7149 79.7342 86.4341C82.163 85.7357 83.123 85.9109 83.2406 85.9973C83.2406 86.5133 83.243 88.3325 83.2406 88.3733C83.2046 88.7597 82.9358 88.9589 82.2062 89.1989C81.9998 89.2637 81.4094 89.4509 80.9174 89.5421C79.607 89.7869 77.4878 91.2989 77.351 91.3685C77.099 91.4957 76.1702 92.0549 76.007 92.0909C75.0566 92.1989 73.043 92.7629 72.8054 92.8157C72.5606 92.8661 70.619 93.1469 70.3262 93.3317C70.2878 93.6317 70.3646 93.8621 70.6526 94.2101C71.6918 95.4653 72.851 96.3509 73.8038 96.8285C74.375 97.1069 74.8694 97.2317 75.491 97.2581C75.5438 97.2605 78.6158 97.2605 78.695 97.2581C79.2614 97.2269 80.2142 96.4037 80.6582 95.8109C80.7302 95.7101 81.5366 94.7045 81.8462 93.5525C81.8918 93.3845 82.5086 89.8229 82.8278 88.5797C82.8806 88.3709 83.2982 87.3629 83.447 87.2357C82.799 87.4277 80.5166 89.0573 79.4342 89.6261C79.0766 89.8133 70.5278 93.1661 70.2734 93.2549C69.9518 93.3629 68.0966 93.8045 67.4318 94.0541C67.1678 94.1573 66.7382 94.4021 66.503 94.5725C66.0542 94.8989 65.9198 95.0693 65.987 95.1917C66.7574 95.2301 67.991 95.0309 68.9798 94.7141C70.6166 94.1837 75.0662 92.8877 75.5942 92.9189" stroke="#B87D47" stroke-width="3.6" stroke-linecap="round"/>
<path d="M56.6797 95.5908L56.8501 95.6748C57.0037 96.1428 56.9413 96.9276 57.0181 97.1988C57.0925 97.4532 57.3229 97.638 57.4405 97.8756C57.5197 98.0292 57.6397 98.8356 57.8653 99.2292C57.9613 99.3996 58.8757 100.4 59.2189 100.753C59.2285 100.76 60.5941 101.394 60.5725 101.344" stroke="#B87D47" stroke-width="3.6" stroke-linecap="round"/>
<path d="M41.5 34.1338C41.5144 32.9914 41.4544 32.6026 40.9288 31.9474C40.4848 31.3162 39.9424 30.4354 39.7888 29.9506C39.7384 29.7826 39.4936 29.6578 39.4096 29.2858C39.3088 28.8514 38.2792 26.9386 38.1736 26.8138C37.888 26.4778 37.8904 26.0554 37.5064 25.4818C37.4656 25.3978 37.2904 24.5098 37.3168 24.3418C36.9472 24.1114 36.9064 23.5834 36.8416 23.4874C36.748 23.3506 36.796 23.0914 36.7456 23.0098C36.6544 22.8586 36.2704 22.345 36.1768 22.2514C36.1744 22.2466 36.1768 21.7882 36.0808 21.6802C35.9656 21.5434 35.5504 21.037 35.6056 20.7298C35.6488 20.5186 35.9968 20.2786 36.4624 20.0626C36.8632 19.885 37.1944 19.9018 37.3168 19.873C37.4272 19.849 38.092 19.2466 38.1736 19.2082C39.1648 18.7474 40.0264 18.1186 40.0744 18.0682C40.1224 18.0154 40.4056 17.6026 40.4536 17.593C40.78 17.533 41.1496 17.6242 41.404 17.8762C41.8576 18.3346 42.2536 18.721 42.2608 18.733C42.3304 18.8266 43.4992 20.6194 43.6912 20.8882C43.9264 21.2194 44.6992 22.045 45.0184 22.6306C45.5032 23.5402 46.0768 24.6034 46.1584 24.817C46.264 25.0906 46.4032 25.8442 46.6336 26.149C46.7896 26.3554 48.3448 29.4634 48.3448 29.665C48.376 29.7298 47.7768 29.6856 48 30L47.9656 30.1402" stroke="#B87D47" stroke-width="3.6" stroke-linecap="round"/>
<path d="M39.0273 20.8232C39.2793 21.7832 41.3577 25.8008 42.2601 27.0992C42.8505 27.9512 44.5161 32.4176 44.9217 33.1832C45.2601 33.824 46.4337 37.2056 46.7289 38.0312C47.0145 38.744 47.6169 40.2992 47.9649 40.6928C48.1209 40.8704 48.1689 41.504 48.4401 41.7392L48.5337 41.36" stroke="#B87D47" stroke-width="3.6" stroke-linecap="round"/>
<path d="M41.689 20.4443C41.6938 20.5283 41.677 21.1067 41.689 21.2051C41.7346 21.5051 42.8914 23.4227 43.021 23.6771C43.1434 23.9171 43.8274 25.4915 44.4466 26.5283C45.0826 27.5939 45.7282 28.9259 45.7786 29.0003C45.9106 29.2019 48.961 33.2075 49.7698 34.7051C50.209 35.5259 51.2842 37.5083 51.5314 37.9355C52.2226 39.1259 52.6738 40.3115 52.813 40.5035C52.9306 40.6691 53.2594 41.0987 53.3122 41.4659C53.3962 42.0827 53.581 42.3755 53.8594 42.5003" stroke="#B87D47" stroke-width="3.6" stroke-linecap="round"/>
<path d="M41.8814 24.0566C41.8358 24.9614 41.9342 25.7078 42.3278 26.5766C43.811 29.7902 46.5566 34.3166 50.0438 39.4214C51.4646 41.5646 52.2278 43.0502 53.1638 44.7398C54.8198 47.8742 58.3478 54.467 58.5182 55.4294C58.571 55.7318 58.679 56.9366 58.7078 57.047C58.7438 57.1838 58.9238 57.4766 58.8974 57.5222L58.043 56.5718" stroke="#B87D47" stroke-width="3.6" stroke-linecap="round"/>
<path d="M38.8384 27.2891C38.7952 27.3515 39.7096 28.4435 40.0744 29.0003C41.0056 30.5843 42.46 32.9435 43.456 34.2035C43.7536 34.5923 45.0832 36.4619 45.6904 37.3283C46.3576 38.3027 46.8568 39.2411 47.3344 40.4795C47.9992 42.2171 49.6384 45.0899 50.0872 46.3163C50.6464 47.8403 52.7536 52.3235 53.1928 52.9595C53.2984 53.1083 53.6104 53.2811 53.6704 53.4347L52.9096 52.5779" stroke="#B87D47" stroke-width="3.6" stroke-linecap="round"/>
<path d="M47.2041 40.7891C47.8833 41.7107 49.8969 45.2699 50.7633 46.6427C51.6033 47.9195 54.1065 51.5387 54.3345 51.8171C55.4169 53.1371 57.0609 55.7867 57.4713 56.3819C58.9305 58.6043 59.6673 60.2171 59.5641 60.6587C59.5497 60.7067 59.5185 60.7379 59.4681 60.7547L56.1393 57.1403" stroke="#B87D47" stroke-width="3.6" stroke-linecap="round"/>
<path d="M49.6768 48.7764C50.1232 49.6908 52.4272 53.3148 52.8904 54.2172C53.4928 55.3908 54.1744 56.5236 54.9784 57.7068C55.4872 58.4724 56.4496 61.398 56.6176 61.7052C56.656 61.7772 57.0664 62.2932 57.0928 62.37C57.112 62.43 57.1336 62.7564 57.2824 62.9412C57.3952 63.0804 57.7648 63.5916 57.8536 63.702C57.964 63.8412 58.2832 64.182 58.2328 64.4628L58.708 64.7484C58.8856 64.7004 59.3248 63.702 59.812 63.1764C60.5848 62.3868 60.7 62.3124 61.3696 62.2764C61.7776 62.2596 62.2144 60.8532 62.2552 59.9436C62.2672 59.3652 62.1904 59.1276 61.8448 58.758C61.48 58.3764 61.0456 57.6924 60.8944 57.522C60.3496 56.9124 58.192 55.3308 57.8536 55.146L57.6616 55.3356C57.82 55.9164 58.8472 57.1764 59.2528 57.7788C59.4736 58.11 61.084 60.5652 61.3696 61.0404C61.876 61.6692 62.3152 61.7124 62.6056 61.7052" stroke="#B87D47" stroke-width="3.6" stroke-linecap="round"/>
<path d="M68.7832 108.178C69.0544 108.118 69.9616 107.509 70.6024 107.334C71.9104 106.981 75.6184 105.603 76.4752 105.476C77.3416 105.37 78.8656 105.128 79.5256 104.991C79.6696 104.97 80.4544 105.032 80.6344 104.991C81.82 104.715 83.992 103.501 85.1392 103.119C86.0368 102.694 86.7976 102.586 87.0784 102.495C87.2872 102.356 88.1032 102.018 88.396 101.871C89.1136 101.516 89.5768 101.535 90.0592 101.247C90.6304 100.899 92.8984 99.8217 92.9008 99.8625" stroke="#4B2513" stroke-width="3.6" stroke-linecap="round"/>
<path d="M75.1572 105.822C75.306 105.505 76.5348 105.167 76.9092 105.023C78.2964 104.509 81.7068 103.362 82.2276 103.119C82.3548 103.059 83.0076 102.661 83.1276 102.635C83.31 102.596 83.5092 102.63 83.682 102.565C83.8884 102.488 84.4236 102.174 84.5148 102.15C85.5276 101.857 88.0788 100.827 88.2564 100.763C88.4652 100.688 89.574 99.8626 90.5436 99.3778C90.6012 99.3442 91.638 98.8474 92.1396 98.3362L93.7332 97.021L94.4268 95.9122C94.5516 95.7778 94.5132 95.461 94.5636 95.3578C94.6212 95.2402 94.7892 95.1994 94.842 95.0794C94.8972 94.9522 94.9812 93.901 95.118 93.4858C95.1468 93.3082 95.0988 92.5042 95.118 92.4466C95.466 91.6834 96.1596 90.2146 96.2268 90.0202C96.294 89.8234 96.3756 88.7314 96.366 88.2178" stroke="#4B2513" stroke-width="3.6" stroke-linecap="round"/>
<path d="M91.9306 87.6631C92.2066 87.6415 92.4131 87.8839 92.4851 88.4263C92.5139 88.6591 92.6435 89.2615 92.6435 89.6479C92.6387 90.3007 92.3147 91.3039 92.2067 91.7527C92.1683 91.9207 91.9138 92.4775 91.9306 92.8615C91.945 92.9167 93.1569 91.7671 93.2481 91.4743C93.3129 91.2535 93.6058 89.1703 93.5938 88.9111C93.553 88.1287 93.6105 87.8647 93.8697 87.5935L94.2179 87.0391C94.2923 87.1975 94.5394 87.6751 94.5634 87.8023C94.5826 87.8959 94.5586 89.8999 94.5658 90.3559C94.5658 90.6703 93.6274 92.1295 93.5938 92.1679C93.1834 92.6215 93.0922 93.0535 93.0394 93.1399C92.9986 93.2047 92.5571 93.5503 92.1395 93.9007C91.8611 94.1791 91.0809 94.4455 91.0281 94.4551C90.9729 94.4671 89.869 94.5631 89.7826 94.5943C89.6722 94.6327 89.4395 94.8439 89.2979 94.8703" stroke="#B87D47" stroke-width="3.6" stroke-linecap="round"/>
<path d="M88.3265 88.6327C88.0385 88.5655 84.1073 90.4471 83.8217 90.5743C79.6217 92.4511 74.6633 95.3671 72.3857 96.1183C71.9993 96.2455 71.6369 96.2623 71.4161 96.1879C71.4185 95.7439 71.4017 94.3279 71.4761 93.9391C71.5625 93.5071 72.0833 91.9111 72.1793 91.4743C72.2609 91.1023 72.9209 86.8231 73.0337 85.4119C73.1657 83.8351 73.6313 81.1687 73.6337 80.1367C73.6361 79.7335 73.7921 78.3631 73.7729 78.2383" stroke="#B87D47" stroke-width="3.6" stroke-linecap="round"/>
<path d="M75.4354 69.6445C75.469 70.4365 75.229 71.4877 74.7418 72.5557C74.3602 73.3765 73.7242 74.1493 73.249 74.8045C72.6994 75.5629 72.2002 76.2181 71.8234 76.6069C70.6114 77.8213 67.6762 79.0285 67.6738 79.0693" stroke="#B87D47" stroke-width="3.6" stroke-linecap="round"/>
<path d="M65.5938 79.3478C66.3497 78.7814 67.2233 78.4814 67.9505 78.239C70.6313 77.1902 71.3896 76.5374 71.4856 76.4366L71.9705 76.1582" stroke="#B87D47" stroke-width="3.6" stroke-linecap="round"/>
<path d="M70.7224 75.8818C70.2664 75.9778 69.4048 76.6882 69.268 76.7818C69.0688 76.9186 68.2504 77.6674 67.6048 77.9602C66.9448 78.2026 65.4784 78.8602 65.3176 78.9322C65.2 78.9826 64.696 79.4722 64.624 79.4866" stroke="#B87D47" stroke-width="3.6" stroke-linecap="round"/>
<path d="M68.9195 66.5938C68.8163 66.7089 68.4899 68.2161 68.0891 68.8809C67.2251 70.2729 66.2219 70.712 66.0107 70.7528" stroke="#4B2513" stroke-width="3.6" stroke-linecap="round"/>
<path d="M70.4463 59.5254C71.2983 60.2262 74.1495 65.4438 75.0207 66.663C75.1935 67.011 75.5847 67.803 75.6447 67.911C76.0479 68.6502 76.0959 69.0246 76.2663 69.159V69.2286" stroke="#B87D47" stroke-width="3.6" stroke-linecap="round"/>
<path d="M69.1982 59.8018C69.4718 59.8282 70.6694 61.309 71.0702 61.5346C71.5358 61.7986 72.9254 63.6562 73.1486 64.0306C73.3334 64.3402 73.8302 65.3098 74.0486 65.9698C74.1134 66.1666 74.8502 68.1586 74.8814 68.1874C74.8742 68.497 75.2774 69.9154 75.2966 70.0594C75.431 71.053 75.4334 73.3858 75.4358 74.6338" stroke="#B87D47" stroke-width="3.6" stroke-linecap="round"/>
<path d="M36.9037 35.4874L37.0645 35.4082C37.0765 35.1466 37.0573 35.0554 36.9037 34.8442C36.7669 34.657 35.8885 33.5962 35.6149 32.9938C35.5813 32.9146 34.8901 31.0618 34.7293 30.577C34.6621 30.4426 34.3021 30.0394 34.2469 29.9338C33.8485 29.1778 33.1429 27.5338 33.1189 27.5194C32.7469 27.2698 32.6317 26.3698 32.3149 25.9906C32.2165 25.8682 31.9213 25.621 31.9117 25.5874C31.8829 25.4842 31.9093 25.1674 31.8325 25.105C31.7581 25.0426 31.4125 24.7282 31.4293 24.541" stroke="#DDDDDD" stroke-width="3.6" stroke-linecap="round"/>
<path d="M50.5887 27.2772C50.6103 26.6556 50.1519 26.1948 49.5423 25.0236C49.2207 24.5412 48.5319 23.3484 48.4143 23.1732C48.3447 23.046 47.4159 21.666 47.3679 21.5628C47.3343 21.4884 47.1639 20.9652 47.1279 20.9172C46.8135 20.5308 46.6935 20.1852 46.7247 20.1132L45.5967 18.0996" stroke="#DDDDDD" stroke-width="3.6" stroke-linecap="round"/>
<path d="M32.375 27.5746L33.4046 27.2002L33.779 26.8882L34.4654 26.6386L34.6214 26.5762" stroke="#706B66" stroke-width="1.68" stroke-linecap="round"/>
<path d="M34.9336 31.8779V31.9091C35.1208 32.0891 35.7856 32.0507 36.088 31.8779C36.256 31.7795 36.6208 31.6067 36.6472 31.5971L37.0216 31.3787L37.4272 31.2539" stroke="#706B66" stroke-width="1.68" stroke-linecap="round"/>
<path d="M48.0952 20.7754C47.164 20.7802 46.4776 21.0202 46.2856 21.1186C45.9376 21.2986 45.3784 21.4402 45.3496 21.4618" stroke="#706B66" stroke-width="1.2" stroke-linecap="round"/>
<path d="M49.5275 23.958L48.6251 24.3012L48.1883 24.5172L47.4707 24.7668" stroke="#706B66" stroke-width="1.2" stroke-linecap="round"/>
<path d="M44.3801 60.1045C44.4137 60.2557 43.3673 62.2285 43.2953 62.4253C43.0529 63.0757 42.5801 64.3309 42.5705 64.3885C42.5633 64.4365 42.2681 65.6509 42.2705 66.5605C42.2705 67.2541 42.2705 68.8525 42.2705 68.8213V68.4901" stroke="#402010" stroke-width="2.4" stroke-linecap="round"/>
<path d="M46.7341 58.2921C46.7629 57.9681 45.5845 59.6649 45.5581 59.7105C44.7541 61.1001 43.9333 62.2113 43.8373 62.3361C43.2013 63.1905 43.8589 68.8569 43.9597 69.2745C44.5165 71.5857 45.8965 74.1345 46.0093 74.3721C46.8397 76.1217 49.2397 77.9457 50.2645 79.5009C51.2173 80.9649 51.6853 83.1249 51.7429 83.1825L51.8029 83.6337" stroke="#402010" stroke-width="2.4" stroke-linecap="round"/>
<path d="M44.207 60.5239C44.2478 60.4183 47.279 57.2167 48.131 56.6935C49.091 56.0935 49.7774 55.8775 49.8326 55.8919L50.2574 55.7959" stroke="#402010" stroke-width="2.4" stroke-linecap="round"/>
<path d="M46.3335 63.9704V63.6896L46.1104 62.1272C46.1104 62.1272 47.2096 61.124 47.3368 61.0112C48.0472 60.3896 48.1647 60.3104 48.2871 60.1736L50.1304 59.168" stroke="#B87D47" stroke-width="2.4" stroke-linecap="round"/>
<path d="M46.1099 63.078C45.3443 62.7516 46.5851 61.5564 46.8899 60.6204C46.9355 60.4908 47.1875 60.1452 47.3363 60.006C47.4659 59.7444 48.0443 59.3556 48.2867 59.1132C48.5459 58.9164 49.0163 58.29 49.3475 58.1076C49.4579 58.0644 50.2355 57.594 50.5187 57.606L50.9099 57.3828" stroke="#B87D47" stroke-width="2.4" stroke-linecap="round"/>
<path d="M32.3271 21.234C32.2959 20.9676 32.3895 20.6892 32.6175 20.5044C32.6847 20.4516 36.2655 18.2532 36.3327 18.174C36.4815 18.0108 37.6431 17.574 38.3007 17.3724C38.4783 17.3196 38.7375 17.082 38.8839 16.9356C38.8983 16.9236 39.4455 16.8564 39.6855 16.7172C39.7095 16.7028 41.5023 15.954 41.5791 15.8436L42.0903 15.5508" stroke="black" stroke-width="2.88" stroke-linecap="round"/>
<path d="M42.3809 15.9876C42.6041 15.9588 42.7961 15.7404 42.8897 15.6972C42.9449 15.6732 43.2329 15.702 43.2545 15.6972" stroke="black" stroke-width="2.88" stroke-linecap="round"/>
<path d="M43.2539 15.6973L43.6307 16.4509" stroke="black" stroke-width="2.88" stroke-linecap="round" stroke-linejoin="round"/>
<path d="M31.7441 21.9609L32.1449 22.7049" stroke="black" stroke-width="2.88" stroke-linecap="round" stroke-linejoin="round"/>
<path d="M41.3604 36.5342L58.5227 66.8174" stroke="black" stroke-width="2.88" stroke-linecap="round" stroke-linejoin="round"/>
<path d="M50.6006 33.0127L65.2574 62.3215" stroke="black" stroke-width="2.88" stroke-linecap="round" stroke-linejoin="round"/>
<path d="M58.5547 66.7667C58.5883 66.7187 61.2355 65.1851 61.6867 65.0915C62.1619 64.9907 63.5371 64.1003 64.6003 63.7811C64.6555 63.7619 64.6771 63.6899 64.7467 63.6347L65.6203 63.4883" stroke="black" stroke-width="2.88" stroke-linecap="round"/>
<path d="M66.1308 62.0312L65.9844 63.1978" stroke="black" stroke-width="2.88" stroke-linecap="round"/>
<path d="M49.9577 54.4551C49.7177 54.8847 49.2041 55.3119 48.9377 55.5471C48.8753 55.6023 48.4289 55.7319 47.1881 56.6415C45.8441 57.6279 44.9801 58.4775 44.7113 58.8999C44.6849 58.9455 43.8281 60.0111 43.4009 60.7935C43.2641 61.0383 42.9089 61.7103 42.8897 61.7415C42.8273 61.8423 42.8345 62.2023 42.8177 62.3223C42.8057 62.4159 42.3593 63.0807 42.3089 63.1983C41.7905 64.3791 41.5697 65.2743 41.5073 65.5287C41.4665 65.6943 41.3657 68.0295 41.3609 68.2239C41.3465 68.8719 41.3921 69.1263 41.5721 69.5631" stroke="black" stroke-width="2.88" stroke-linecap="round"/>
<path d="M41.5067 69.0254C41.4683 70.283 42.0348 71.9582 42.09 72.2318C42.222 72.5294 43.0044 74.5718 43.11 75.1454C43.1388 75.311 43.2923 75.4502 43.3283 75.5102C43.4867 75.7718 43.5131 76.1726 43.5467 76.2374C43.7051 76.5566 44.5307 77.519 45.0755 78.2774C45.4451 78.7838 48.1908 80.9702 48.354 81.5558C48.4284 81.8342 49.9331 83.6126 49.9571 83.6702C49.9835 83.7374 50.2043 84.3518 50.3219 84.3974C50.3843 84.419 50.3843 85.0286 50.3939 85.271C50.3963 85.3262 50.5403 85.6358 50.6123 85.8542C50.6363 85.9046 50.8547 87.0326 50.8427 87.539C50.8403 87.731 50.8355 87.9206 50.8307 88.1126" stroke="black" stroke-width="2.88" stroke-linecap="round"/>
<path d="M50.8316 87.0928C50.8316 87.8152 50.846 89.776 50.8316 89.8624C50.81 89.992 50.546 90.9904 50.5412 91.0288C50.5412 91.0288 50.4044 95.1688 50.3948 95.3992C50.3876 95.6008 50.534 95.9296 50.5412 95.9824C50.5724 96.2344 50.5316 97.0432 50.5412 97.0744C50.738 97.72 51.5996 99.7408 51.6332 99.844C52.6076 102.846 53.846 104.898 54.4028 105.525C54.95 106.139 55.6124 106.634 55.6412 106.691C55.8212 107.073 56.8196 107.687 56.9516 107.858C57.0188 107.944 58.0892 109.211 58.2644 109.317" stroke="black" stroke-width="2.88" stroke-linecap="round"/>
<path d="M56.8047 107.492C56.8431 107.516 57.2319 107.996 57.6807 108.222C57.8007 108.289 58.5423 108.795 58.6263 108.877C59.6175 109.815 63.6111 111.241 63.9447 111.279C64.0431 111.291 65.5215 111.99 66.4215 111.863L66.5271 111.896" stroke="black" stroke-width="2.88" stroke-linecap="round"/>
<path d="M65.4014 111.719C65.507 111.885 66.6254 111.861 68.0414 111.858C68.8718 111.861 71.2022 111.88 71.303 111.863C71.5022 111.832 73.3406 111.282 73.343 111.28C74.123 111.15 74.3846 110.968 75.383 110.989L75.6758 110.843L76.403 110.553C76.4726 110.569 77.5886 110.255 77.6414 110.188C77.7926 110.015 79.3982 109.864 79.463 109.823C79.6118 109.729 79.7342 109.59 79.8998 109.533C80.015 109.492 80.8574 109.355 81.3566 109.168C82.1486 108.885 83.2742 108.505 83.3246 108.441C83.5166 108.232 85.0454 107.752 85.0718 107.711" stroke="black" stroke-width="2.88" stroke-linecap="round"/>
<path d="M85.2588 107.559L85.3644 107.492" stroke="black" stroke-width="2.88" stroke-linecap="round"/>
<path d="M49.958 55.0381H50.03L50.6876 55.1845" stroke="black" stroke-width="2.88" stroke-linecap="round"/>
<path d="M60.4482 50.8113V50.7393C60.5778 50.5641 63.6666 49.7217 64.0194 49.6473C64.6938 49.5105 69.2202 49.4889 69.2634 49.5009C70.1394 49.7577 72.033 50.5209 72.105 50.5209C72.3498 50.5233 72.4746 50.6721 72.7602 50.8857C72.8154 50.9265 73.8378 51.7665 73.9986 51.8313C74.2218 51.9225 75.1506 52.5417 75.6018 52.9977C76.4322 53.8233 77.4306 55.1289 77.6418 55.4025C78.5874 56.6193 79.041 57.6249 79.3914 58.4625C79.6386 58.9569 79.7466 59.7177 79.8282 59.8449C80.1042 60.2937 80.1234 60.5769 80.1186 60.8649" stroke="black" stroke-width="2.88" stroke-linecap="round"/>
<path d="M80.2646 61.5947C80.3558 61.6955 80.9127 62.8859 80.9199 62.9051C80.9967 63.1019 80.9846 64.1867 80.9918 64.2179C80.9942 64.2227 81.3038 64.6043 81.2846 64.8011C81.2246 65.4755 81.5943 65.8307 81.5751 66.1835C81.5727 66.2267 81.5727 66.2747 81.5751 66.3299C81.7071 66.4235 81.7263 66.8675 81.9399 67.2035C81.9615 67.2347 81.9854 67.3067 82.0118 67.4219" stroke="black" stroke-width="2.88" stroke-linecap="round"/>
<path d="M82.1582 66.6943H82.2326C82.6622 67.4719 83.6078 68.9623 83.6894 69.0247C84.4814 69.6487 84.7286 69.9631 85.2182 70.1191C85.595 70.2367 86.8718 71.3383 88.3502 72.0847C89.5526 72.6895 90.131 73.3903 90.9014 74.0527C91.1582 74.2543 92.1062 75.0007 93.1598 75.8743C94.0166 76.5847 95.075 78.0847 95.1254 78.3511C95.1278 78.3535 95.6198 79.0015 95.5646 79.1527L96.0014 79.5895C96.2702 80.4871 97.2902 82.9279 97.6766 83.8135C97.7462 83.9743 97.727 84.6415 97.7486 84.9079C97.775 85.2559 98.0174 85.9207 98.0414 86.0719C98.051 86.1439 98.0366 90.3175 98.0366 91.1191" stroke="black" stroke-width="2.88" stroke-linecap="round"/>
<path d="M97.2402 95.7637L96.585 96.9277" stroke="black" stroke-width="2.88" stroke-linecap="round"/>
<path d="M83.7617 107.929L83.9801 107.639C84.1817 107.661 84.5081 107.517 84.6353 107.493C84.7769 107.466 86.2409 106.746 86.4809 106.729" stroke="black" stroke-width="2.88" stroke-linecap="round"/>
<path d="M79.6816 109.24C79.9192 109.232 80.4688 109.268 80.5552 109.24C80.884 109.096 82.624 108.448 82.8136 108.366C83.0728 108.256 83.5984 108.035 84.4168 107.783C84.688 107.699 86.3584 106.667 86.6032 106.619C86.6512 106.609 86.788 106.609 86.8936 106.544C87.0112 106.417 88.4704 105.539 88.4968 105.524C88.7728 105.383 89.632 104.646 89.9536 104.579C90.2488 104.519 90.5824 104.166 90.6088 104.068C92.3872 103.144 92.7952 102.464 93.8152 101.444L94.6168 100.424C94.6816 100.314 94.8376 99.5605 95.7832 98.5309C95.9824 98.3125 96.2968 97.6885 96.292 97.5109C96.2872 97.2997 96.7504 95.9749 96.7288 95.7637" stroke="black" stroke-width="2.88" stroke-linecap="round"/>
<path d="M97.48 92.3125L97.1104 94.7797" stroke="black" stroke-width="2.88" stroke-linecap="round"/>
<path d="M97.3572 92.3125C97.362 93.0109 97.374 94.5205 97.2324 94.9021C97.0164 95.3053 96.5316 96.0805 96.4932 96.3829" stroke="black" stroke-width="2.88" stroke-linecap="round"/>
<path d="M31.504 23.3125C31.3216 23.1709 31.0192 23.3101 30.9832 23.3125C30.5824 23.3413 30.1336 23.7421 30.0424 23.7829C29.9368 23.8381 29.9464 25.3933 29.9896 25.5061C30.1024 25.7821 30.6712 27.2653 30.8248 27.5437C31.1632 28.1461 31.816 29.0653 31.8712 29.1613C31.936 29.2765 33.3568 31.8853 33.3856 31.9309C33.6424 32.3341 33.7024 32.7349 33.7504 32.9245C33.7816 33.0373 34.6936 34.6717 34.744 34.8565C34.816 35.1205 34.9552 35.3773 34.9528 35.4829C35.4496 36.4957 35.7832 36.7789 35.8408 36.7885C35.9224 36.8005 37.8856 36.7885 38.2432 36.7885C39.0088 36.0277 39.8752 35.7373 40.0192 35.7445L40.384 35.6389" stroke="black" stroke-width="2.88" stroke-linecap="round"/>
<path d="M43.3096 16.1025L43.5 16.5L44.1976 17.0433L44.6152 17.3577L46.1824 17.3601" stroke="black" stroke-width="2.88" stroke-linecap="round"/>
<path d="M51.666 27.4912L51.7812 28.7368" stroke="black" stroke-width="2.88" stroke-linecap="round"/>
<path d="M51.6163 29.1104L51.5635 29.2136" stroke="black" stroke-width="2.88" stroke-linecap="round"/>
<path d="M51.3017 29.3721L50.7881 29.5017" stroke="black" stroke-width="2.88" stroke-linecap="round"/>
<path d="M51.417 27.0225L51.5106 27.1257C51.657 27.3585 51.8658 27.6297 51.8778 27.6993C51.9042 27.8889 51.8802 28.3737 51.9282 28.4313" stroke="black" stroke-width="2.88" stroke-linecap="round"/>
<path d="M51.4984 29.0967L51.4072 29.1615" stroke="black" stroke-width="2.88" stroke-linecap="round"/>
<path d="M51.3013 29.2139L49.4725 30.4691L49.2637 30.7283" stroke="black" stroke-width="2.88" stroke-linecap="round"/>
<path d="M47.1758 17.4609L47.6462 18.4545" stroke="black" stroke-width="2.88" stroke-linecap="round"/>
<path d="M51.4189 27.5508L51.5101 27.6996L51.6661 27.9084" stroke="black" stroke-width="2.88" stroke-linecap="round"/>
<path d="M51.1312 30.2148L50.6992 30.4548" stroke="black" stroke-width="2.88" stroke-linecap="round"/>
<path d="M48.0068 18.0039C48.0092 18.1527 48.83 19.8327 49.058 20.3367C49.106 20.4663 49.6196 22.3767 50.2916 23.6295C50.9156 24.7863 52.0652 28.3959 52.0868 28.4487" stroke="black" stroke-width="2.88" stroke-linecap="round"/>
<path d="M50.1757 31.2061L50.6365 32.7637L50.0605 31.8973" stroke="black" stroke-width="2.88" stroke-linecap="round"/>
<path d="M71.6582 92.7709C72.6398 92.2093 75.7478 90.9133 76.895 90.3949C78.035 89.9413 79.1582 89.7253 79.235 89.6869C80.9102 88.7821 83.1158 87.6205 83.2574 87.6757L83.3246 88.9501C83.0822 89.1469 82.0214 89.5309 81.5798 89.5525C80.7566 89.5933 80.351 89.8069 79.5038 90.0229C79.3478 90.0613 77.8358 90.6421 77.6918 90.7597C77.6174 90.8221 73.1126 92.0581 73.067 92.1013L72.6638 92.2357L71.7926 92.8381L72.7982 93.4429L73.067 93.5101L73.3358 93.8437C73.391 93.7525 73.7678 93.1093 74.0726 92.9725C74.9774 92.5837 77.6342 92.0029 79.235 91.3645C80.3366 90.9973 81.3134 90.3253 81.7814 90.0229C81.8174 89.9965 82.0142 89.7085 82.0502 89.6869C81.6326 89.7421 80.3462 90.4309 79.7366 90.6109C79.1366 90.7885 77.7926 91.1293 77.291 91.2973C76.6406 91.4605 76.1246 91.7701 75.9494 91.8997C75.8846 91.9477 74.3654 92.4853 74.2742 92.5045C74.1638 92.5261 73.8734 92.5189 73.7366 92.6365C73.5398 92.6149 73.3814 92.6677 73.2014 92.8381C73.0574 92.9749 72.0662 93.1069 72.0614 93.2413C72.0542 93.6901 72.0734 93.8821 72.1286 93.9781C72.7526 93.9997 73.031 93.9661 73.5374 93.7765C73.7822 93.6853 74.5286 93.3085 74.675 93.2413C74.8142 93.1765 75.2606 93.1981 75.347 93.1741C75.3926 93.1597 76.9982 92.5429 77.0894 92.5045C77.1806 92.4637 77.4038 92.3533 77.4926 92.3701C78.059 92.1565 79.1966 91.2613 79.8374 91.0285C80.2286 90.8893 80.7278 90.6085 81.1118 90.4933C81.8558 90.2701 83.1902 89.4877 83.2574 89.4205C83.3582 89.3845 83.5982 88.7605 83.7926 88.6813L83.6582 88.0117C83.9246 87.9421 84.0662 87.9493 84.1958 88.0789C84.2942 88.1797 84.551 89.1349 84.4646 89.2861C84.059 89.1637 83.2286 89.9149 83.1902 89.9557" stroke="#4B2513" stroke-width="1.2" stroke-linecap="round"/>
<path d="M83.6563 85.7656C83.6923 86.2624 83.7835 86.5456 84.0331 86.8192C84.4651 87.2872 85.2859 88.1848 85.6747 88.612C85.8043 88.7584 86.5363 90.2728 86.5867 90.436C86.6947 90.7984 87.0259 91.312 86.9827 91.3864H86.5075C86.5051 90.6904 86.5219 89.1448 86.5075 89.092C86.3683 88.6408 86.0179 87.8368 86.0323 87.5872L85.6363 87.508L85.4779 87.2704C85.3867 88.096 85.4155 89.5768 85.3195 89.5648C85.3147 89.5648 84.7315 90.2872 84.6859 90.3568C84.5803 90.5224 83.6491 91 83.4979 91.0696C83.3587 91.1344 83.0227 91.3384 82.8643 91.3072" stroke="#B87D47" stroke-width="1.2" stroke-linecap="round"/>
<path d="M75.8561 92.8567L36.1289 20.7607" stroke="#D7D7D7" stroke-width="0.72" stroke-linecap="round" stroke-linejoin="round"/>
<path d="M78.1117 92.6101L37.9717 19.4893" stroke="#D7D7D7" stroke-width="0.72" stroke-linecap="round" stroke-linejoin="round"/>
<path d="M79.7559 91.3188L40.6719 18.666" stroke="#D7D7D7" stroke-width="0.72" stroke-linecap="round" stroke-linejoin="round"/>
<path d="M81.8584 85.6816C82.684 86.1016 85.408 88.588 86.5072 89.0224L86.7688 89.3896L86.8744 89.8072V90.172" stroke="#B87D47" stroke-width="2.4" stroke-linecap="round"/>
<path d="M81.9639 86.4112C82.1847 86.404 83.0415 87.1624 83.2695 87.352C83.5479 87.5848 84.2391 88.0936 84.6255 88.576C84.8079 88.8256 85.1535 89.3272 85.2015 89.3896C85.3503 89.5816 85.4367 89.9032 85.6191 90.172" stroke="#B87D47" stroke-width="2.4" stroke-linecap="round"/>
<path d="M84.993 88.71V90.1212L84.7842 90.5388V90.3804" stroke="#B87D47" stroke-width="2.4" stroke-linecap="round"/>
<path d="M83.5308 86.6191C83.5092 87.2167 84.1884 88.1719 84.21 88.2391C84.654 88.4623 85.0116 89.3095 85.2012 89.7535" stroke="#B87D47" stroke-width="2.4" stroke-linecap="round"/>
<path d="M83.4258 87.1426L84.4722 89.389L84.5754 89.4418" stroke="#B87D47" stroke-width="2.4" stroke-linecap="round"/>
<path d="M70.7852 93.2031L72.1964 95.4495L72.458 95.7615L73.0844 96.4407" stroke="#B87D47" stroke-width="2.4" stroke-linecap="round"/>
<path d="M85.3073 91.4268C84.8729 91.422 84.4385 91.4292 84.4193 91.4268C84.3497 91.4124 83.8025 91.1052 83.5312 91.1124" stroke="#B87D47" stroke-width="2.4" stroke-linecap="round"/>
<path d="M69.8438 91.0088C70.1244 91.016 70.3909 91.3712 70.4725 91.7384C70.4821 91.7912 70.5997 92.12 70.6285 92.2088L71.2022 92.888" stroke="#B87D47" stroke-width="2.4" stroke-linecap="round"/>
</svg>
