<svg width="72" height="100" viewBox="0 0 72 100" fill="none" xmlns="http://www.w3.org/2000/svg">
<path d="M27.2538 67.0223C28.1034 67.0223 30.753 67.0247 30.8898 67.0223C32.073 67.0079 33.0762 67.3198 34.1682 67.7782C36.057 68.5966 37.2522 68.9494 37.6722 69.1846C37.9146 69.3214 39.0018 70.1038 39.2442 70.267C39.5946 70.5094 39.8298 70.9175 39.9258 71.0951C40.3866 71.9951 40.4346 72.295 40.4298 73.891C40.4274 74.2414 40.425 74.7862 40.425 74.983C40.1058 75.0382 39.585 74.6494 38.6466 73.8358C37.0914 72.475 34.5882 69.4366 33.741 68.1046C32.8242 66.6598 30.9978 63.979 30.8898 63.8782C30.201 63.2278 29.5266 62.4262 28.7706 62.0158C28.1754 61.6966 26.6874 60.9886 26.565 60.9286C26.433 60.8614 23.913 58.4254 23.4642 58.1926C22.7922 57.8662 22.2858 57.3502 22.2402 57.2926C22.1874 57.2182 21.1842 55.9151 21.1602 55.7207C21.1578 55.7087 21.1602 54.3431 21.1602 54.0479" stroke="#7A472F" stroke-width="12" stroke-linecap="round"/>
<path d="M28.8739 55.0368L28.7491 55.0056C28.5091 54.66 27.6067 53.1504 27.0667 52.248C26.2891 50.9832 23.2963 46.7664 23.2939 46.572L22.6603 45.1752C22.1779 45.1464 22.0219 45.0696 21.8347 45.24C21.7699 45.3 20.9467 46.3128 20.8195 46.6032C20.7331 46.8048 19.7515 49.3152 19.6459 49.8384C19.6363 49.8792 19.6171 49.9416 19.5835 50.028L21.2011 45.8088C21.0211 45.7248 20.0419 46.8024 19.0771 48.348C18.3283 49.6848 18.8059 52.3656 18.8227 52.4064C19.0603 52.2072 19.2379 51.2832 19.3459 50.8152C19.5355 49.9632 19.6147 48.0144 19.6147 47.712C19.4611 47.4144 17.8987 48.4152 17.7763 48.7272C17.5147 49.428 17.4523 50.5728 17.4595 53.388C17.4595 53.9592 17.4595 55.5144 17.6563 56.1168C17.9083 56.8608 18.4603 57.8136 18.7267 58.1448C19.0987 58.6056 19.3867 58.8312 19.4563 58.9056L20.2171 59.2872L20.7883 59.256C21.2635 58.2768 21.2635 54.8832 21.2635 54.468" stroke="#7A472F" stroke-width="6" stroke-linecap="round"/>
<path d="M21.3282 51.7393C21.3258 54.1849 21.441 54.6793 21.7026 55.9945C21.861 56.7889 22.041 57.1297 22.089 57.1945" stroke="#7A472F" stroke-width="6" stroke-linecap="round"/>
<path d="M17.0345 49.9365C17.0321 51.4005 17.0393 51.7749 16.9241 52.0221C16.7441 52.4061 16.5977 53.4549 16.4849 53.7237C16.3625 54.0381 16.3841 56.0685 16.3673 56.6421C16.3577 57.1005 16.8017 58.3461 17.2001 59.2149C17.6537 60.1893 17.9393 60.6717 18.6833 61.6845C19.2977 62.5149 20.1041 63.3261 20.9873 63.9909C22.1993 64.8933 22.9505 65.3421 23.1305 65.5293C23.3825 65.8005 23.7425 66.4101 24.5033 67.0653C25.1321 67.6269 26.6801 69.6045 26.8097 69.7557C26.9681 69.9477 29.1521 71.9133 29.2793 72.0621C29.4641 72.2805 29.9273 72.8037 30.1577 72.7773C30.2033 72.7701 30.2585 72.7701 30.3233 72.7773C30.6689 72.5349 31.0961 71.8821 31.4753 70.7445C31.5569 70.5213 31.9289 69.6285 32.0249 69.2637C32.2049 68.5461 32.1953 65.7549 32.1905 65.6949C32.0969 64.8165 31.8017 64.4781 31.6409 64.2117" stroke="#7A472F" stroke-width="6" stroke-linecap="round"/>
<path d="M28.1279 56.6358C28.1687 56.4414 28.8863 55.8342 29.8847 55.371C31.4543 54.5862 33.9599 53.5638 34.6055 53.067C36.7079 51.5958 37.0271 51.5022 38.6135 50.595C38.6399 50.5806 40.5695 49.7238 40.7015 49.7166C40.7855 49.7142 41.5799 49.263 41.6903 49.167C41.8247 49.0446 41.8895 48.5958 41.7983 48.2334C41.7263 47.955 39.3455 43.9278 39.2735 43.8966C38.9159 43.7382 38.0951 42.2214 37.6271 41.7558C37.6223 41.751 36.8687 40.8438 36.8015 40.767L35.6495 39.0654" stroke="#7A472F" stroke-width="6" stroke-linecap="round"/>
<path d="M35.4834 38.7334C38.9346 38.7406 40.497 38.7022 41.3586 38.9542C41.8362 39.0982 42.1674 39.5806 43.3362 40.1614C43.5882 40.291 44.6946 41.4862 44.9826 41.9182C45.201 42.1366 46.2522 43.975 46.3002 44.0614C46.3122 44.0782 47.5938 45.7366 47.949 46.4206C48.2562 47.0254 48.7266 49.1014 49.5402 51.4174C51.981 58.3414 52.1802 60.5302 52.2306 60.751" stroke="#7A472F" stroke-width="6" stroke-linecap="round"/>
<path d="M37.1328 39.7229C36.9768 39.5597 36.1968 38.8349 36.144 38.7893C35.88 38.5829 35.688 38.4029 34.8264 38.4053C34.7136 38.4077 34.584 38.4077 34.4424 38.4053C35.1888 38.7221 36.0984 39.4781 36.696 39.8909C37.176 40.2269 41.3664 43.9229 41.676 44.2397C41.8608 44.4293 45.78 48.9629 46.4832 49.8317C47.5176 51.1109 48.8112 53.1341 50.1744 55.6349C50.8824 56.9693 51.8808 59.7485 52.5048 60.9173C52.5624 61.0229 52.9272 61.8053 52.9992 62.0165C53.2464 61.3373 52.296 59.7029 51.2928 57.4517C51.0672 56.9429 50.496 55.4165 50.0904 54.8237C48.9168 53.1845 46.9056 50.6717 46.2888 50.0597C45.9336 49.7117 44.9352 48.8261 44.7096 48.5093C44.6016 48.3557 44.3472 47.8685 44.2152 47.7941L44.16 46.6421" stroke="#7A472F" stroke-width="3.6" stroke-linecap="round"/>
<path d="M45.8057 42.7969C46.1297 42.8305 46.8545 43.6105 47.3009 44.0953C48.2225 45.0529 49.7057 47.4649 50.4737 48.7273C50.9585 49.5481 52.1561 52.6681 52.4921 53.7529C52.7057 54.4129 52.8473 55.2865 52.8449 55.7353C52.8377 56.5345 52.8329 58.2481 52.8353 59.1601C52.8353 59.3449 53.2913 60.7921 53.3849 60.9169C53.4545 61.0105 53.6489 61.2577 53.7137 61.4113C53.7257 60.6625 53.5409 59.5441 53.1641 58.6105C52.8929 57.9385 52.6745 56.8273 52.6145 56.5249" stroke="#7A472F" stroke-width="3.6" stroke-linecap="round"/>
<path d="M51.2974 51.2545C51.3358 49.8265 50.8366 48.5689 50.3638 46.8049C50.3422 46.7257 49.819 45.3577 49.651 45.1033C48.5518 43.5385 47.4478 41.9617 47.3998 41.8633C47.1238 41.9353 47.035 42.0961 47.0158 42.6889C46.9606 43.6225 46.8934 44.8441 46.9054 45.5425C46.9078 46.0945 46.3078 48.3169 46.3006 48.3433C46.159 48.8737 45.8662 51.5089 45.4222 51.8017C45.3262 51.8665 44.4478 52.2121 43.423 52.8265C43.099 53.0233 41.5246 53.8609 40.7014 54.2185C40.3534 54.4009 39.127 55.3321 38.107 56.0545C37.6918 56.3449 36.439 57.6025 35.7046 58.0081C33.9118 58.9801 32.9758 59.4625 32.8486 59.4889C32.6998 59.1793 35.4142 56.9449 36.9766 56.0425C37.8526 55.5409 40.4542 54.5257 41.4694 53.8345C42.0526 53.4529 42.4606 53.0641 42.5686 52.6801C42.6214 52.4833 42.7126 51.8449 43.1158 51.4177C43.8766 50.6017 44.203 50.0449 44.2702 49.9897C43.9894 49.9033 43.0726 49.9897 42.2926 50.3209C41.803 50.5321 33.379 55.8001 33.1246 55.9753C32.7118 56.2633 30.9094 57.2401 30.2686 57.8977C30.8062 58.1257 31.4326 58.0369 32.5918 57.7873C34.3414 57.4129 36.6286 56.7961 37.2958 56.5729C39.091 55.9705 40.4158 55.7881 42.2926 55.2625C42.7654 55.1305 44.551 54.4849 46.2454 54.4393C45.9622 54.7441 45.139 55.1569 43.687 55.7113C42.2038 56.2633 39.8758 57.0169 38.191 57.6457C35.0926 58.8001 33.0454 60.3745 32.7382 60.5329C33.1438 60.4849 36.3334 58.4785 36.9622 58.0105C37.243 57.8065 39.3694 56.7745 42.1822 55.6465C44.755 54.6145 46.399 54.1825 47.5102 53.8897C47.575 54.1705 47.5366 54.4945 47.3446 54.7129C46.2382 55.9705 44.5198 56.8417 42.9502 57.7321C42.2326 58.1305 38.527 59.7889 37.8574 60.2305C36.7798 60.9457 35.7454 61.4185 34.9366 62.0713C35.0566 62.1625 38.2894 60.8761 42.7414 58.7401C44.0302 58.1137 47.3758 56.3473 48.1126 56.4145L48.223 56.6905C48.0718 57.1057 47.3662 57.5713 46.4542 58.2745C46.4134 58.3057 43.1926 60.4081 41.6974 61.0369C41.0926 61.2913 39.7534 61.6465 39.439 61.7953C38.0662 62.5105 36.0862 63.5185 36.0334 63.6073C37.3366 63.6505 38.311 63.5569 38.9446 63.2233C40.8958 62.1553 43.0462 61.3657 45.3118 60.8617C45.8134 60.7417 47.4214 60.0769 48.091 59.9881C48.8542 59.8921 50.983 59.3689 51.079 59.4337C50.983 59.7745 50.0422 60.7729 49.183 61.3249C47.7166 62.2777 45.6718 63.5497 44.4334 64.2673C43.9198 64.6201 42.8398 65.4889 42.3838 65.7841C41.8918 66.0985 40.531 66.8329 40.0414 67.2313C40.0654 67.3561 43.2718 67.2529 44.7094 66.9577C45.7822 66.7321 48.6262 65.7265 50.035 65.3641C51.7918 64.9249 52.2478 64.8001 53.3302 64.4305C53.9758 64.2241 55.7686 63.9097 55.9102 63.8281C55.7614 64.3393 55.123 65.0065 54.1894 65.6377C53.191 66.2929 46.1662 70.2217 44.7718 71.0449C44.0806 71.4553 43.7278 71.7697 43.447 72.0625C44.3038 72.1633 45.2014 71.8849 46.5214 71.3233C48.2494 70.5433 51.6766 68.9737 53.1334 68.2705C55.7782 66.8137 59.1214 64.9897 59.479 64.6513C58.5406 64.4641 55.0222 64.9129 54.2686 65.0569C52.8046 65.3689 51.1558 65.7217 48.0574 66.7225C47.7526 66.8233 45.7102 67.3681 45.067 67.6153C44.251 67.9321 42.6094 68.6713 42.6214 68.6593C42.583 68.2657 43.1254 67.4833 43.7014 67.0369C44.5462 66.4009 49.1134 64.2817 50.419 63.9361C51.0862 63.7153 52.1062 63.0265 52.1758 62.9497C52.1134 62.8945 40.471 62.8873 40.207 63.0577C40.1902 63.0697 40.171 63.0889 40.1518 63.1129C40.7782 63.1465 43.9582 62.8969 45.3694 62.7721C46.5574 62.6641 59.035 62.6833 59.2606 62.6185C59.4022 62.5777 59.6302 62.4265 59.6446 62.4001L54.9214 59.4889" stroke="#7A472F" stroke-width="3.6" stroke-linecap="round"/>
<path d="M51.957 56.9642C52.629 56.957 54.0522 56.945 54.7026 57.1298C55.3074 57.3074 57.5922 58.3514 59.973 59.6546C59.9946 59.6666 63.3474 62.5082 63.597 62.9498V62.8946" stroke="#7A472F" stroke-width="3.6" stroke-linecap="round"/>
<path d="M57.2275 59.4893C57.5851 59.5661 60.0547 61.3853 61.4563 62.4005C61.6171 62.5277 63.8875 64.3085 64.2547 64.7069C64.9675 65.4797 66.6283 67.6085 66.9451 68.0549L67.0915 68.2085" stroke="#7A472F" stroke-width="3.6" stroke-linecap="round"/>
<path d="M59.7525 65.0905C59.6445 64.8409 63.0789 67.3705 63.9261 68.3305C64.8045 69.3721 65.9325 70.7065 66.6669 71.6401" stroke="#7A472F" stroke-width="3.6" stroke-linecap="round"/>
<path d="M67.1659 81.2334C67.1203 81.2718 65.8747 83.1318 65.1883 83.5398C64.5955 83.8926 61.7347 86.3622 61.0171 86.835C56.7619 89.607 56.0443 90.939 55.5811 91.3902V91.5558" stroke="#7A472F" stroke-width="3.6" stroke-linecap="round"/>
<path d="M67.2213 83.9788C67.1589 84.3892 66.9045 84.862 66.5613 85.1308C66.2109 85.402 60.5277 88.678 60.4125 88.7548C59.7525 89.2492 58.3557 89.7988 58.2165 89.854C57.4029 90.1636 53.8653 92.5156 52.6149 92.9284C52.4013 92.998 47.4573 94.3852 47.3445 94.4116C47.2917 94.4212 46.1829 94.4524 45.8061 94.5748C45.3189 94.7404 44.0469 94.966 43.8861 95.014C42.8613 95.326 38.9565 95.0788 38.7237 95.014C36.8709 94.4452 35.5629 94.3084 35.5389 94.3012C35.4453 94.27 34.2021 93.7708 33.1245 93.1492C32.7357 93.0196 31.3869 92.1268 31.1469 91.8844C30.9909 91.75 29.4669 90.8812 29.3901 90.7876C29.3133 90.694 28.2357 89.7988 27.7413 89.3044C27.0261 88.4836 25.7205 84.0988 25.7109 84.0892C25.6389 83.9956 25.4997 83.6668 25.4901 83.5948C25.4373 83.3188 25.1589 82.114 25.1613 82.0564C25.1925 81.3964 25.0533 80.398 25.0557 77.1196C25.0557 74.9428 25.0533 71.482 25.1613 69.7564C25.1805 69.4828 25.1757 68.8036 25.2717 68.7148" stroke="#7A472F" stroke-width="3.6" stroke-linecap="round"/>
<path d="M25.4902 69.3717C25.5334 69.3981 25.6102 69.6189 25.711 69.7557C25.8646 69.9645 26.3854 70.4061 26.6998 70.7997C26.9638 71.1381 27.7414 73.1037 27.7414 73.1061C27.907 74.3421 28.4302 77.7093 28.7854 79.3101C28.939 79.9173 29.8942 82.0701 30.1582 82.6053C30.4054 83.0709 30.6598 83.5509 31.3126 85.5165C31.3462 85.6149 31.903 86.5893 32.2438 87.4917C32.4862 88.0869 33.0766 89.0853 33.727 89.5773C34.1638 89.8989 34.9966 90.2061 35.3206 90.3477C35.5222 90.4341 36.5566 90.6333 37.1326 91.0053C37.2766 91.1013 38.6902 91.7469 38.8342 91.7757C39.5086 91.8957 43.5214 91.8861 44.4334 91.6653C44.9662 91.5093 48.8254 90.6549 50.2006 90.1821C52.5526 89.3685 53.0926 89.2557 56.0758 88.2597C56.4022 88.1421 57.7582 87.4989 58.3798 86.9973C58.4926 86.9085 60.0454 85.6797 60.907 84.9117C60.9358 84.8853 62.275 83.5749 62.8294 83.0997C63.1174 82.8501 63.6622 81.7485 63.871 80.7381C64.015 80.0661 64.207 79.6941 64.3654 79.2549C64.5814 78.6381 64.5862 78.4869 64.5886 77.0565C64.5886 76.0941 64.5862 74.0781 64.531 73.7661C64.4302 73.2453 63.595 71.8437 63.1582 71.3493C62.455 70.5669 62.2606 70.4997 61.675 69.7029C61.1806 69.0981 60.7102 68.4189 60.4678 68.1645C60.1006 67.7925 58.9318 67.4925 58.6558 67.3965C58.3198 67.2813 57.7966 67.2885 57.4486 67.2861" stroke="#7A472F" stroke-width="3.6" stroke-linecap="round"/>
<path d="M27.0283 74.0954H26.8627C26.8531 74.1146 26.4931 76.4114 26.4787 76.565C26.3803 77.7314 26.6995 80.8058 26.7547 81.0146C26.9467 81.7826 27.2419 82.9682 27.6883 83.9234C27.7555 84.0818 28.5163 85.9226 28.7851 86.285C29.2531 86.861 30.6715 88.877 30.9259 89.1386C31.1467 89.441 31.9627 90.3242 32.2987 90.5666C32.5051 90.7154 33.7771 91.7018 34.3315 91.9946C34.7419 92.2154 36.1987 93.0218 36.5827 93.149C37.1035 93.3146 37.4707 93.2714 37.6267 93.4226C37.9603 93.4034 38.9947 93.6338 39.0523 93.641C39.1051 93.6482 41.7619 93.6386 41.9635 93.641C42.4603 93.6506 47.6563 92.0546 48.2779 91.9394C48.4219 91.913 49.6747 91.7426 50.5843 91.5002C51.2011 91.3298 52.1251 90.6338 52.3411 90.5114C52.5547 90.3914 53.2243 90.1586 53.2747 90.1274C53.4307 90.0338 53.9059 89.5418 53.9323 89.525C54.0499 89.4482 56.7283 88.2026 57.8731 87.5954C59.0323 86.945 59.2987 86.7722 60.5323 85.8626C61.1995 85.3706 61.5091 84.977 61.8955 84.1442C62.0035 83.9498 62.4475 82.9826 63.2683 82.001C63.6547 81.5378 63.8155 80.8754 63.8707 80.5202C64.1707 79.5674 64.7107 76.9346 64.7107 75.4514C64.7059 74.729 64.6819 74.4266 64.5859 74.2058C64.2139 73.3946 63.9595 73.2194 63.7075 72.8882C63.2539 72.293 61.9363 71.0426 60.7963 70.361C60.5635 70.2218 60.0547 70.0298 59.9731 69.977C59.8435 69.9002 59.7643 69.7106 59.6995 69.7034C59.6227 69.6938 54.4771 69.6962 52.2739 69.6914C50.4163 69.6938 46.6723 69.7034 45.8611 69.9218C44.8723 70.1954 43.6531 70.721 43.2163 70.8602C42.8755 70.9682 40.1803 71.5994 38.6011 72.1874C37.2019 72.7082 33.5299 73.6658 33.2323 73.7114C32.7187 73.7906 29.9107 74.7482 29.3899 74.8634C29.2387 74.897 28.5619 75.3122 28.4011 75.5234C28.2883 75.6698 27.7267 76.5434 27.5227 77.1146C27.4675 77.2802 27.4555 79.8386 27.4675 79.9154C27.5515 80.417 28.7443 81.9818 28.7851 81.9458V81.6722" stroke="#7A472F" stroke-width="3.6" stroke-linecap="round"/>
<path d="M28.1273 80.4648C28.1129 80.0832 28.5449 79.5096 28.9505 79.1472C29.5553 78.612 30.6353 77.8752 31.3121 77.6088C32.4377 77.172 35.4065 75.8568 37.4273 75.2688C40.1465 74.4984 42.2033 73.98 43.7633 73.5912C45.3617 73.188 49.0193 72.9744 50.0225 72.708C52.8401 71.9616 56.0609 71.7912 56.1281 71.7888C56.0897 71.8848 48.7313 73.992 48.3329 74.0952C47.5361 74.2968 44.1041 74.6352 42.6401 74.8584C40.4153 75.2112 37.9769 75.6936 37.1321 76.1328C36.5057 76.464 35.1977 76.9608 34.9889 77.1144C34.9793 77.1216 34.3961 77.772 34.3313 77.8824C34.0481 78.3504 33.3641 78.7104 33.2321 78.816C32.5337 79.3728 30.4649 80.7576 30.4313 80.7936C30.3833 80.8488 30.3473 80.94 30.3233 81.0672C30.4481 81.2016 34.2089 80.112 35.9801 79.5816C37.2305 79.1856 39.5345 78.36 42.0185 77.664C49.2785 75.6744 64.1873 71.5056 66.6449 70.752" stroke="#7A472F" stroke-width="3.6" stroke-linecap="round"/>
<path d="M66.5347 70.7783C65.5243 70.9295 60.3499 71.5583 58.3363 72.0743C56.9419 72.4055 55.0459 73.2647 54.3715 73.4351C53.6971 73.6103 50.8435 74.9111 49.0459 75.5231C46.5739 76.3247 41.2795 77.8367 41.0851 77.8943C40.1419 78.1871 35.7499 80.3495 34.4947 80.8487C33.8827 81.0863 31.6435 82.1015 31.4755 82.1663C31.4539 82.3727 31.5427 82.6151 31.7515 82.6607C32.4163 82.8023 35.3107 82.5215 37.5427 81.9263C38.7019 81.6119 41.5507 80.4767 43.7515 79.9175C44.7355 79.6679 47.9179 78.5375 50.1451 77.9951C51.9643 77.5607 55.8667 76.6199 56.8051 76.4663C58.3123 76.2263 62.5219 75.7151 62.8291 75.6311C63.2899 75.5087 64.4131 75.5231 64.6411 75.5231C64.6843 75.5807 64.7227 76.0055 64.6939 76.2911C64.6747 76.4615 63.9283 77.1023 63.2683 77.4431C62.2315 77.9711 57.9259 78.6815 57.3427 78.7055C56.6035 78.7343 47.4091 80.0831 45.3955 80.2583C43.6171 80.4455 40.5883 81.1847 40.0819 81.2471C39.4627 81.3311 36.6091 81.9191 36.5131 81.9455C36.3091 82.0031 35.1139 82.5455 34.3579 82.6895C33.2347 82.8935 32.3107 83.0951 31.3675 83.3471C30.5395 83.5751 29.8051 83.9279 29.7739 84.1439C29.7643 84.2159 29.7787 84.8711 29.7739 84.9671C29.8291 85.0799 34.2715 85.6391 37.7347 85.1303C38.5051 85.0127 42.3907 83.7455 44.1019 83.1863C45.7099 82.6775 49.6195 81.7559 50.1139 81.6239C50.8915 81.4151 56.3947 79.5263 59.3779 79.0487C60.7771 78.8279 66.3979 78.8159 66.7267 78.8159" stroke="#7A472F" stroke-width="3.6" stroke-linecap="round"/>
<path d="M66.5612 79.4206C65.8364 80.1286 65.294 80.4598 64.4372 80.7406C63.6356 80.9998 60.59 81.8854 59.2604 82.1662C58.3484 82.3534 55.1996 82.615 53.2604 82.6486C51.4436 82.6558 46.8884 82.6606 46.8812 82.6606C44.2628 82.7566 37.3076 84.0358 35.4836 84.3622C34.346 84.583 32.0948 85.6918 31.3124 86.2294C31.1276 86.359 30.6644 86.695 30.6524 86.8342C30.6476 87.0886 30.6476 87.835 30.6524 87.8758C30.6836 88.0726 30.962 88.2286 31.2572 88.2598C31.3172 88.2646 35.9036 88.2574 37.3748 87.9886C37.9388 87.883 41.7548 86.5678 43.3508 86.1742C44.9828 85.7974 48.3692 85.0678 49.5956 84.7246C55.7372 82.9342 56.8244 82.6534 59.0948 82.2766C59.15 82.267 60.6572 81.991 62.2532 81.9982C62.8172 82.003 63.6164 82.0102 63.6524 82.0558C63.7076 82.2262 63.6884 83.131 63.6524 83.2102C63.458 83.587 61.5812 84.703 61.214 84.8878C60.0308 85.4734 56.5484 86.2798 55.2548 86.359C54.6116 86.395 49.7228 86.395 47.5724 86.3902C45.014 86.3926 43.3148 86.5318 41.414 86.8342C39.2396 87.1798 34.6028 88.4302 34.2212 88.591C34.0556 88.6606 32.9876 88.939 32.9588 88.975C33.1028 89.071 33.3572 89.227 33.5084 89.2486C33.7244 89.2822 34.4492 89.251 34.6604 89.3038C35.6732 89.5462 36.2036 89.5942 37.754 89.6038C39.734 89.5846 42.5588 89.5534 44.642 89.2102C46.8812 88.843 49.8836 87.9718 50.5292 87.8206C51.542 87.583 52.3196 87.307 52.946 87.2734C53.0012 87.271 53.0564 87.2518 53.1092 87.2182C52.6316 87.3214 49.3724 88.603 48.818 88.7566C48.4412 88.8622 47.0396 89.1526 46.4228 89.407C45.7316 89.6902 44.7116 89.9134 43.3724 90.1678C42.2732 90.3742 40.5884 90.4942 39.2876 90.4846C37.6892 90.463 36.5468 90.3934 35.8676 90.019C35.4644 89.7838 34.3172 88.1134 34.1108 87.6022C33.302 85.5454 32.1644 82.5622 31.478 81.607C30.7748 80.6278 29.75 78.5662 29.6636 78.3214C29.606 78.1582 29.5172 77.575 29.4452 77.443C29.3156 77.2126 28.8908 76.543 28.8956 76.4566C28.7012 74.071 27.7004 69.499 27.194 67.4518C27.002 66.8206 26.594 65.3302 26.3708 64.9798C26.318 64.903 26.0156 64.303 25.8764 64.1014C25.8452 64.0582 24.3644 62.287 23.0204 60.4222C22.5332 59.7334 21.8924 58.7158 21.8684 58.3918C21.7892 57.1966 21.1436 53.6038 21.098 53.4502C21.0572 53.299 20.7836 53.0302 20.7692 52.9558C20.7356 52.795 20.6444 51.7582 20.6588 51.6934" stroke="#7A472F" stroke-width="3.6" stroke-linecap="round"/>
<path d="M47.7842 62.4551C48.3338 62.6711 50.477 65.0399 51.4634 65.8271C53.0786 67.1063 57.629 69.2855 57.9962 69.2639C58.1378 69.2399 58.3322 69.0047 58.3802 68.7695C58.6346 67.4447 58.685 64.8047 58.601 64.4855C58.3706 63.6527 57.5618 62.5943 57.1178 62.3447" stroke="#7A472F" stroke-width="3.6" stroke-linecap="round"/>
<path d="M67.879 68.0547C67.8742 69.1899 68.4526 71.4603 68.539 72.7227C68.5558 72.9771 68.659 74.9235 68.6638 75.9099C68.6662 76.7883 68.3566 78.6003 68.155 79.2027C68.0134 79.5699 67.6966 80.5779 67.1662 81.5067C67.1062 81.6099 66.7246 82.3659 66.3982 82.9899C66.0814 83.5851 65.6758 83.9715 65.5198 84.1443C65.431 84.0171 65.5006 83.5131 65.887 82.9683C66.1606 82.5843 66.9982 81.2331 67.1662 80.6283C67.3318 79.9995 67.3414 74.0739 67.3318 73.8747C67.2718 72.8955 65.899 69.3555 65.9038 69.3171L65.5726 68.8251" stroke="#7A472F" stroke-width="3.6" stroke-linecap="round"/>
<path d="M65.1336 66.4082C65.1144 66.9722 65.472 69.2858 65.4648 70.9106C65.46 71.2178 65.4384 72.9482 65.1336 73.601C64.968 73.9442 62.5176 76.8818 61.3368 77.8514C60.7056 78.3746 60.012 79.2338 59.808 79.5866C59.604 78.4226 60.276 76.3418 60.3456 75.1106C60.4128 73.8506 60.42 69.485 60.3024 69.0434C60.0792 68.285 59.9664 67.781 59.808 67.6154C59.736 67.541 58.8792 66.593 58.8192 66.4634C58.7232 66.2522 58.2288 64.841 58.1616 64.7066C57.564 63.4826 56.4096 61.9202 55.4712 60.917C54.6984 60.029 53.8176 58.6034 53.604 58.1162C53.5728 58.0442 52.7832 57.4106 52.6704 57.3482L52.6152 57.1826" stroke="#7A472F" stroke-width="3.6" stroke-linecap="round"/>
<path d="M7.03091 7.59639C7.19651 7.49799 7.91932 10.1765 8.56732 10.9661C9.91612 12.6005 11.2289 14.8589 11.5793 15.4709C11.8193 15.8429 11.9417 16.4357 12.0161 16.6949C12.0449 16.7933 13.3361 18.7229 13.5905 19.4933C13.6193 19.5773 13.8569 20.8925 13.9409 20.9813C14.1137 21.1517 14.1617 21.2261 14.2913 21.5069C14.2457 21.1709 12.3953 17.8469 11.6657 16.5197C11.5265 16.2773 11.0753 15.6893 11.0537 15.6461C10.4153 14.2733 9.76252 13.2101 9.74332 13.1093C9.65932 12.6749 9.35692 12.3893 9.21772 11.8829C9.09772 11.4629 8.00332 9.80452 7.99372 9.78292C7.67692 9.12052 7.29772 8.71972 7.03132 8.38372C6.97612 8.32132 6.47811 9.06 6.49971 9C6.55251 9.1344 7.12732 9.38692 7.20412 9.60772C7.37692 10.1021 7.56412 11.2565 7.72492 11.6645C7.98172 12.3173 8.02252 13.2653 8.16652 13.4573C8.45692 13.8413 10.1489 18.0533 10.3553 18.4445C10.4345 18.5933 11.1497 20.1413 11.3177 20.2829L11.4929 19.3205" stroke="#7A472F" stroke-width="3.6" stroke-linecap="round"/>
<path d="M9.39284 6.37233C9.36644 6.04593 9.94244 5.72673 10.0912 5.58513C10.1608 5.52033 11.6128 5.00433 11.7544 4.88433C11.9128 4.74753 12.1408 4.31793 12.3664 4.27233C12.4864 4.24833 12.7552 3.92673 12.8032 3.92193C12.9784 3.90273 13.444 3.85953 13.504 3.83553C13.7656 3.74673 14.2624 3.57633 14.5528 3.66033C14.6416 3.98913 16.0168 7.10433 16.9168 8.47233C17.0344 8.67153 17.5696 10.2315 17.6872 10.5915C17.8504 11.0787 18.2656 11.8659 18.4912 12.4947C18.5824 12.7587 19.024 13.3515 19.1032 13.5459C19.1944 13.7667 19.3432 14.4411 19.5424 14.7123C19.7704 15.0315 19.8712 15.3123 19.8904 15.7323C19.8928 15.8043 19.8808 17.8707 19.9768 18.0075C19.9984 18.0339 20.056 18.0939 20.152 18.1827C19.8088 18.2115 19.576 18.1371 19.3648 17.8323C18.5488 16.6083 15.8632 13.7403 14.6344 12.4491C14.0632 11.8395 13.828 11.4051 13.5424 10.5723C13.3984 10.1547 11.6944 6.58593 11.404 6.10833H7.11764C7.10084 6.68913 7.12724 6.87153 7.29284 7.07073C7.49444 7.31313 7.79204 7.96113 7.90484 8.12193C8.08484 8.37393 9.38804 9.89313 9.89684 10.3587C10.4152 10.8291 11.6224 11.6931 11.7544 11.8827C12.0736 12.3435 13.1536 14.7267 13.504 15.3819C13.6288 15.6723 14.1184 17.4867 14.3896 18.0147C15.0496 19.1667 16.6912 22.8963 16.7416 23.0811C16.78 22.2099 16.4104 18.3891 16.3792 18.1707C16.0552 16.0347 15.2728 13.0227 14.968 12.1875C14.3728 10.5651 13.3168 9.14913 13.2424 9.08433C13.312 8.97873 12.4384 7.94913 12.3664 7.68513C12.364 7.67553 12.3784 7.00593 12.3664 6.63393C12.3664 6.54033 13.9888 6.31233 14.2912 6.37233C14.5768 6.43233 15.1216 6.90273 15.34 7.24593C15.4168 7.36833 17.0536 10.9707 17.7976 13.0635C18.7024 15.6195 20.1256 18.4779 20.3272 19.1451C20.68 20.3283 21.112 24.2187 21.1888 24.6411C21.232 24.8619 21.9208 28.6179 22.1656 29.4675C22.288 29.9379 22.5616 31.4331 22.996 32.2923C23.8624 33.9747 24.424 35.1579 24.4384 35.3283C24.4744 35.7627 24.5512 35.8971 24.6136 35.9403" stroke="#7A472F" stroke-width="3.6" stroke-linecap="round"/>
<path d="M16.041 20.1942V20.1078C16.209 19.9902 16.4442 20.067 16.7418 20.3694C16.9746 20.6142 17.5146 21.7662 18.0906 23.2086C18.501 24.2622 19.2066 27.2526 20.0394 30.0198C20.457 31.4382 21.0642 33.4662 21.9162 35.7558C23.0946 38.8038 25.5042 43.1166 26.3634 44.2518C26.8626 44.8758 27.285 45.8117 27.501 46.0901C27.537 46.1357 27.7242 46.3062 27.8514 46.4382C27.9402 46.3374 27.957 44.9358 27.7626 44.1654C27.753 44.1246 26.2458 38.6574 26.1258 38.2734C25.9506 37.7238 24.5754 33.9438 24.0906 32.0046C23.8698 31.1742 22.3482 28.179 21.9906 27.1062C21.8274 26.631 21.1866 25.143 20.9802 24.7254C20.7354 24.2214 20.6154 23.2974 20.589 22.9062C20.5554 22.6974 20.0226 21.639 19.977 21.5934C19.797 21.399 19.5714 20.331 19.5402 20.283C19.4538 20.1942 19.3266 20.0453 19.2786 19.8438C19.1586 20.1173 19.221 20.4342 19.5402 21.0702C20.3562 22.7286 21.7386 24.8022 22.3626 25.815C23.4138 27.4926 25.0122 29.547 25.6722 30.6462C26.7618 32.4654 28.2882 35.2638 28.6938 35.907C29.3394 36.9366 30.6186 41.259 31.5258 44.2518C31.7706 45.1422 32.0874 46.4814 32.1378 46.527C31.6554 44.6262 31.1706 43.4118 29.697 40.3326C29.1426 39.1614 27.4986 34.7598 27.3258 34.191C27.0546 33.2886 25.3074 29.3454 25.1394 28.155C25.017 27.3006 24.0498 24.3534 23.6514 23.8686C23.649 23.8638 23.4666 23.5086 23.3898 23.4318C23.3154 23.3574 21.8802 22.3758 21.6402 22.2054C20.829 21.6318 19.353 20.2302 19.1898 20.1942C19.113 20.1774 18.3234 20.2086 18.141 20.1942C17.8818 20.1822 16.7442 20.9886 16.4778 21.3318C16.3962 21.4422 16.3746 23.355 16.5018 23.8398C16.5762 24.1038 18.4698 27.1829 19.3242 28.4837C19.6002 28.9325 20.4114 29.8974 20.589 30.1686C20.7018 30.3126 21.5274 31.347 21.9906 32.2662C22.1058 32.4966 23.0082 34.1382 23.2914 34.5318C24.0474 35.5974 25.7154 38.7462 26.5506 39.9486C28.0506 42.0918 31.3914 48.8646 31.701 49.3254C31.7922 49.4646 31.7538 49.7669 31.7874 49.8509C31.8642 50.0477 32.2626 50.5782 32.313 50.8134C32.5002 51.6582 33.3114 52.3853 33.3618 52.4765C33.7746 51.0221 33.7266 44.8038 33.7122 44.6886C33.6954 44.559 33.477 44.0334 33.3618 43.7262C33.8418 44.1726 34.2714 45.039 34.5882 45.5646C34.7634 45.8838 34.965 47.5901 34.965 48.1037C34.9626 48.6053 34.9002 48.8694 34.7634 48.9774C34.6002 49.1022 34.5762 49.191 34.5882 49.6758C34.6002 50.0454 34.5786 51.0893 34.5882 51.1637C34.7226 52.1501 35.8074 54.3965 36.0738 54.8381C36.5538 54.8549 36.729 54.831 37.125 54.663C37.9794 54.2886 38.121 53.9717 38.0874 53.7869" stroke="#7A472F" stroke-width="3.6" stroke-linecap="round"/>
<path d="M19.1901 43.8142C18.8349 43.7854 18.2517 44.6302 18.1413 45.3022C18.1317 45.3526 17.3877 47.4502 17.3541 47.575C17.0877 48.547 17.0757 51.0334 17.0733 52.0822C17.0661 52.8046 17.6157 54.4006 17.8797 55.1878C18.1269 55.855 20.4357 59.0998 20.5029 59.2102C21.4293 60.727 22.1349 61.4878 22.9533 62.0974C23.7933 62.7262 26.2701 65.7718 26.3637 65.947C26.4957 66.2974 26.8677 67.0918 26.9757 67.3462C27.0021 67.4062 27.4437 68.3926 27.4149 68.659C27.3765 68.9974 27.5517 70.0054 27.5901 70.147C27.6381 70.3366 27.9285 70.8286 27.9381 71.0206C27.9429 71.0806 27.9429 71.2246 27.9381 71.4598" stroke="#4B2513" stroke-width="3.6" stroke-linecap="round"/>
<path d="M27.9379 69.5352C27.9307 73.2384 27.7675 74.688 27.7627 74.784C27.7579 74.9952 27.4099 75.4656 27.3259 75.6576C27.2323 75.8784 27.2515 77.8728 27.2395 78.3696C27.2179 79.1736 27.5011 80.9064 27.5899 81.3456C27.6211 81.6216 27.5731 82.416 27.5899 82.4808C27.6283 82.6344 28.1011 84.132 28.3771 84.6696C28.6627 85.2264 28.9675 86.4096 29.3395 87.1176C29.7091 87.8184 31.1635 90.4008 31.5259 90.8808C31.7131 91.128 33.5851 93.5832 34.0627 94.2912C34.5523 95.0232 35.4499 95.976 36.0739 96.1296C36.3355 96.1896 37.7803 97.0896 38.2627 97.2672C38.4283 97.3248 38.8771 97.3728 38.9611 97.4424" stroke="#4B2513" stroke-width="3.6" stroke-linecap="round"/>
<path d="M30.3887 88.2559C30.8015 88.7551 31.6775 89.8471 32.1383 90.4423C32.7767 91.1815 33.7127 91.7983 33.8879 91.9303C34.7999 92.5015 36.0551 92.8543 36.2495 92.9815C36.4271 93.0943 36.5735 93.2719 36.7751 93.3295C36.9719 93.3871 37.5143 93.3511 37.9991 93.5935C40.9199 95.0407 42.0167 95.2279 42.1991 95.2543C42.3167 95.2735 50.7311 95.2543 51.8231 95.2543" stroke="#4B2513" stroke-width="3.6" stroke-linecap="round"/>
<path d="M67.8307 81.6074C67.8307 82.0634 67.4059 82.8146 66.9427 83.3906C66.4843 83.945 65.5987 84.7154 65.4595 84.9002C65.0419 85.481 64.1947 86.6642 63.6331 87.1178C62.0851 88.4258 59.8891 89.753 59.4235 90.1058C59.1259 90.3314 57.9691 91.3226 57.3331 91.6682C55.4467 92.6738 53.0515 93.6026 52.2595 93.6794C50.5267 93.833 49.7275 94.1234 48.6715 94.205C48.3307 94.2314 46.8835 94.8626 46.2235 94.9922C44.9587 95.2322 43.9291 95.2922 43.6867 95.429C43.3267 95.6306 41.2315 95.741 41.0611 95.7794C40.9579 95.801 40.7731 95.9666 40.5355 95.9546C40.4755 95.9498 40.3579 95.9498 40.1875 95.9546" stroke="#4B2513" stroke-width="3.6" stroke-linecap="round"/>
<path d="M40.5361 94.2051C41.2561 94.4091 41.8345 94.5435 42.4609 94.5555C45.8209 94.5507 47.6281 94.6035 49.1113 94.3011C49.5481 94.2531 53.5393 93.3915 53.6593 93.3291" stroke="#4B2513" stroke-width="3.6" stroke-linecap="round"/>
<path d="M16.5671 50.2871L16.1279 50.3759C16.0967 50.4935 15.7847 50.7623 15.6911 50.8991C15.2975 51.4967 15.3479 52.3055 15.3383 53.5895C15.3335 54.0575 15.3647 54.3407 15.3407 54.4007C15.2351 54.6671 14.9351 55.3799 14.9639 55.8671C14.9927 56.3639 15.0263 58.0007 15.3407 58.3367C15.5303 58.5311 15.8639 59.2079 16.4783 59.9111C16.7519 60.2759 18.7487 62.6351 19.5407 63.3239C19.6535 63.4175 20.3591 63.9983 20.4167 64.0223C20.6063 64.1039 21.1655 64.1567 21.2903 64.3727C21.3071 64.4015 22.0343 64.5911 22.1663 64.6343C22.3031 64.6967 23.1767 65.4839 23.3471 65.7095C23.7815 66.2879 24.8375 68.0855 24.9647 68.2223C25.0367 68.2991 25.5743 68.8295 25.5767 68.8343L23.0399 65.6855" stroke="#4B2513" stroke-width="3.6" stroke-linecap="round"/>
<path d="M16.3916 55.5361C16.4204 55.8169 18.854 59.1697 19.802 60.5233C20.4572 61.5169 21.1148 62.7985 21.4652 63.4105C21.5636 63.6001 22.0604 64.9201 22.6028 65.7721C22.8476 66.1585 22.8836 66.6841 23.0396 66.9961C23.2652 67.4497 23.4116 68.1481 23.39 68.2225C23.5316 68.3521 23.6324 68.7601 23.9156 69.0961C23.9516 69.1417 23.9612 69.6313 24.0908 69.9721C24.2636 70.2769 24.6596 71.1913 24.614 71.4601C24.5612 71.7721 24.8972 72.2209 24.9644 72.4201C24.998 72.5233 24.962 77.5321 24.9644 79.6345C24.9644 80.9737 24.9524 81.3889 25.1396 81.9577C25.5572 83.1673 25.766 83.6977 25.8404 85.0177C25.8668 85.5121 25.9292 85.7305 26.102 85.9801C26.1812 86.0929 26.282 87.1297 26.5388 87.3817C26.7548 87.5905 27.122 88.3969 27.6764 89.1313C28.3172 89.9641 31.2164 92.2753 31.2644 92.3665C31.6316 93.0673 32.69 93.3601 33.014 93.3289" stroke="#4B2513" stroke-width="3.6" stroke-linecap="round"/>
<path d="M19.7857 44.417C19.7233 44.8202 18.8521 46.2722 18.9985 48.2498C19.0393 48.7394 18.8425 49.2578 18.8017 49.4306C18.7849 49.5098 18.7657 54.3266 18.8017 54.4418C18.8857 54.6938 19.0873 54.8882 19.1953 55.1306C19.2361 55.2194 19.4545 56.3714 19.4905 56.4074C19.8313 56.7506 20.0569 57.2714 20.2753 57.3914C20.3521 57.4298 21.1753 58.6346 22.1449 59.6522C22.3393 59.7986 23.0017 60.4226 23.0281 60.437C23.3401 60.617 23.9641 61.0106 24.1105 61.2242C24.3217 61.5434 25.8433 62.861 26.4673 63.977C26.6545 64.3082 27.2401 64.8242 27.4513 65.4506C27.6697 66.1274 28.6921 67.5002 28.6297 67.7114C29.0089 67.9418 29.0449 68.3138 29.1217 68.4002C29.2129 68.501 29.6113 70.001 29.6137 70.169C29.6161 70.2674 29.7673 70.9178 29.8105 71.1506C29.8273 71.249 29.9737 71.6954 30.0073 71.8394C30.0505 72.0314 30.0121 72.8906 30.1057 73.1162C30.1753 73.2938 30.4225 73.6826 30.4009 74.297C30.3673 75.2282 30.5665 76.5194 30.5953 76.7546C30.6217 76.9562 30.5929 77.9906 30.5905 79.5386C30.5905 81.077 30.6169 81.5714 30.9889 82.2578C31.0153 82.3034 31.0153 82.337 30.9889 82.3562" stroke="#7A472F" stroke-width="3.6" stroke-linecap="round"/>
<path d="M28.2383 67.416H28.3367C28.4135 67.5384 29.0063 68.772 29.0231 68.8896C29.2199 70.32 29.4167 71.9496 29.4119 73.8216C29.4119 75.8448 29.4359 79.104 29.4167 79.2096C29.3807 79.4136 29.1911 79.9176 29.2031 80.316C29.2247 80.9904 29.2247 82.9392 29.2199 83.0448C29.1935 83.6976 29.8103 84.444 29.8103 84.6168C29.9231 85.0272 30.3335 85.476 30.4007 85.5984C30.4055 85.6104 30.3959 86.0136 30.4991 86.1888C30.6911 86.5272 31.4711 87.5808 31.6631 87.7656C32.2535 88.3272 32.5127 88.6008 33.2495 89.1384C33.4007 89.2464 34.1399 89.892 34.5287 90.0216C34.6919 90.0768 34.7687 90.2688 34.8215 90.3168C34.9103 90.3984 35.6663 90.6816 35.7071 90.7104C35.8223 90.7872 36.2111 91.128 36.3959 91.2024C36.4871 91.236 36.9983 91.176 37.0823 91.2024C37.2527 91.248 37.5911 91.404 37.7711 91.3992C37.8287 91.3968 44.3663 91.4088 44.4551 91.3992C45.4847 91.2768 47.3567 90.432 48.5975 90.204C49.1807 90.1128 50.3615 89.9064 51.3455 89.58C52.3367 89.2464 53.9639 88.5216 54.1847 88.4496C54.2399 88.4328 58.3943 87.4488 59.1983 87.1728C60.8543 86.592 61.9367 86.3424 62.7359 86.0904C63.2831 85.9152 64.0031 85.8504 64.7015 85.4016C65.2871 85.0224 66.3311 84.4056 66.4703 84.3216C66.6983 84.1848 67.2767 83.8224 67.3559 83.5344" stroke="#7A472F" stroke-width="3.6" stroke-linecap="round"/>
<path d="M65.9805 82.9468L66.0789 83.4364C66.3549 83.4892 66.6837 83.3356 66.9621 82.9468C67.1205 82.7236 68.4333 80.29 68.5341 80.0956C68.9085 79.3684 68.9325 79.2964 68.9277 78.8188C68.9205 78.6532 68.9733 78.4828 68.9277 78.3268C68.9109 78.2716 68.0493 77.014 67.9461 76.9492C67.6869 77.7988 67.3317 80.9428 66.5685 81.766C66.5181 81.8188 66.4197 81.886 66.2733 81.9628L66.1749 81.1756" stroke="#7A472F" stroke-width="3.6" stroke-linecap="round"/>
<path d="M50.0564 94.7405H49.958C49.9796 94.5101 50.138 94.3781 50.63 94.2461C51.4076 94.0373 52.49 93.6701 53.0852 93.4661C54.1388 93.1085 57.9164 91.3013 58.6076 90.7109C58.9604 90.4061 61.1132 89.2949 61.3604 89.1389C61.7804 88.8701 62.4836 88.6301 62.7356 88.2533C62.9132 87.9773 64.7564 87.2549 64.7996 87.1733C64.8332 87.1061 65.7932 86.2949 65.9804 86.1893C66.3044 86.0813 66.5108 85.8509 66.5684 85.7957V85.6973" stroke="#4B2513" stroke-width="3.6" stroke-linecap="round"/>
<path d="M28.8213 51.2066L28.6053 51.317C28.6077 53.1122 28.5957 56.3954 28.6053 56.5298C28.6149 56.6522 28.7661 57.245 28.8213 57.5066C28.8717 57.7202 29.7261 58.7378 29.8005 58.8098C30.3549 59.357 31.9173 60.485 33.8181 60.9818C34.0797 61.049 35.8557 61.3034 36.4077 61.4738C36.5133 61.5074 37.7133 61.8698 38.7165 61.8746C39.3189 61.8746 39.7653 61.8314 40.2261 61.7426C40.5285 61.0994 40.9797 60.677 41.3109 60.4394C41.5869 60.2426 41.6685 60.0362 41.9637 59.6786C42.2277 59.357 42.2805 58.7738 42.2901 58.5938C42.2949 58.4498 42.5181 57.2546 42.5373 55.7114C42.5373 54.5738 42.5181 51.9122 42.5061 51.8594C42.3309 51.0458 41.4213 50.1866 41.3109 50.0138C41.2053 49.8506 40.9413 49.1858 40.6605 48.9266C40.5645 48.8378 40.0797 48.437 40.0077 48.2762C39.4485 48.1274 38.5941 48.113 38.0853 48.3866C38.0181 48.4226 37.9005 48.4946 37.7277 48.6002" stroke="#4B2513" stroke-width="3.6" stroke-linecap="round"/>
<path d="M29.0395 52.7285L28.6051 52.8365C28.6075 54.1205 28.6123 57.8717 28.5763 58.7789C28.5691 59.2589 28.9939 60.4517 29.3803 60.8717C30.4435 61.9973 30.7891 62.4989 30.8851 62.5037C31.1035 62.5085 31.3291 62.4437 31.5379 62.5037C31.7419 62.5589 32.2747 62.9117 32.7307 62.9381C32.8603 62.9453 35.4043 62.9597 35.5555 62.9381C35.8171 62.8973 36.6187 62.6645 36.9667 62.7197C37.1491 62.7509 37.4443 62.3933 37.6195 62.2853C37.7107 62.2277 38.0443 62.2829 38.3803 62.1629C39.8659 61.6517 41.4043 60.8813 41.6371 60.3317C41.6443 60.3149 42.5227 59.2613 42.7243 59.0285C42.8731 58.8533 43.3867 57.9581 43.4827 57.8333C43.5883 57.6965 44.2675 57.0821 44.3515 56.9645C44.3611 56.9525 45.1819 55.0589 45.2419 54.7301C45.3475 54.1229 45.3379 51.7709 45.3307 51.7517C45.2899 51.6605 44.1955 50.6093 44.1355 50.5565C43.5307 50.0261 42.8851 49.5317 42.7243 49.4693C42.6883 49.4573 42.0907 48.8189 41.7451 48.7109C41.2963 48.5693 40.7611 48.0845 40.5523 48.0581C40.4947 48.0509 40.3867 48.0509 40.2259 48.0581C40.1683 48.2261 41.0899 49.8293 41.6011 50.5037C41.9347 50.9357 42.0091 51.2213 42.0715 51.3173C42.2299 51.5621 43.2547 52.7981 43.3747 53.0549C43.5379 53.3813 44.1619 54.7805 44.2435 55.0085C44.2651 55.0757 44.2363 58.0877 44.2435 58.2677C44.2627 58.8317 44.2339 58.9565 44.0275 59.3525C43.9867 59.4245 43.1275 60.5141 43.0483 60.5477C42.3859 60.7997 40.9531 60.7637 40.1611 60.7421C39.6355 60.7373 38.5099 61.0109 37.6483 61.0013C36.7747 60.9797 35.9347 60.9821 35.6635 60.9821C35.4403 60.6749 35.0443 60.1781 35.0131 60.1133C34.9507 59.9909 34.5019 58.6229 34.3603 58.4837C34.3003 58.4309 33.5779 57.9629 33.4915 57.8333C33.2635 57.4877 32.9587 57.2573 32.9491 57.1805C32.9179 56.8925 32.9347 55.7333 32.9491 55.4429C32.9755 54.9893 33.2083 54.6533 33.2755 54.5741C33.7603 54.0533 35.4715 52.6949 35.7715 52.6205C35.9299 52.5821 37.1971 52.3589 37.4011 52.1861C37.4107 52.0637 35.3251 52.0709 35.1211 52.1861C34.0627 52.8149 32.7571 54.1157 32.4067 54.5741C32.3011 54.7229 32.0347 55.1405 32.0563 55.6613C32.0827 56.1485 32.0779 56.7437 32.0803 56.7461C32.1163 56.8421 32.4307 57.1901 32.5147 57.2909C32.7331 57.5285 33.7459 57.4997 34.8451 57.5093C37.8931 57.5381 39.6043 57.4181 40.1179 57.1805C40.3795 57.0437 41.0011 56.7173 41.0947 56.6381C41.4907 56.2853 41.6995 55.8557 41.6803 55.3973C41.6683 55.2101 41.6467 54.1445 41.6371 54.0317C41.5387 52.9637 40.7083 52.5245 40.6603 52.5101C40.6363 52.5053 38.5435 52.5029 38.2699 52.6205C38.0731 52.7069 35.8051 54.4325 35.7715 54.4661C35.5099 54.7445 34.9291 55.6637 34.7947 55.9877C34.6627 56.3261 34.7083 57.3461 34.6867 58.0493C34.6891 58.1501 36.7771 58.1669 36.9739 58.1429C37.7587 58.0445 39.4651 57.0509 40.0075 56.6381C40.3435 56.3789 41.0803 55.7189 41.2027 55.5533C41.2963 55.4237 41.8819 54.0557 41.8699 53.6429C41.8531 53.2829 41.8483 52.7933 41.8507 52.5245C41.8483 52.2053 41.5651 51.8549 41.0947 51.5333C41.0275 51.4901 40.7515 51.2549 40.6603 51.2069C40.6291 51.1949 38.4307 51.1997 38.3803 51.2069C37.7275 51.3101 33.6499 52.9973 32.6227 53.4893C32.5099 53.5445 31.2139 54.3341 31.2115 54.3581C31.1923 54.6053 30.7819 54.9821 30.7771 55.0085C30.7699 55.0541 30.7699 55.2005 30.7771 55.4429L31.2115 55.7693" stroke="#4B2513" stroke-width="3.6" stroke-linecap="round"/>
<path d="M41.4212 51.4251C40.7324 51.4107 39.3116 51.3939 38.7092 51.5811C38.5076 51.6531 38.1956 51.9099 38.162 52.0755C38.1476 52.1643 38.2076 53.2227 38.162 53.4891C38.054 53.9235 37.97 54.6483 37.9436 54.7923C37.91 54.9819 37.5164 55.7427 37.5092 55.7691C37.478 55.9107 37.49 56.3475 37.3052 56.9211C37.1276 57.4803 37.034 57.7275 36.9668 57.8331C37.1636 58.3323 37.9604 57.6003 38.162 57.2907" stroke="#4B2513" stroke-width="3.6" stroke-linecap="round"/>
<path d="M44.0273 45.9935C44.2601 45.9623 44.4953 46.0463 44.7857 46.3199C45.3305 46.8623 46.3313 47.8463 46.5353 48.2879C46.6745 48.6047 46.8473 48.8759 46.8497 48.9263C46.8641 49.1807 46.8713 49.8599 47.0465 50.1431C47.2265 50.4407 47.4617 50.8991 47.5025 51.0983C47.5289 51.2399 47.5169 51.8495 47.6105 52.0751C47.6105 52.0751 47.9201 52.5407 47.9369 52.7279C47.9585 52.9799 47.9177 53.6591 47.9369 53.7047C47.9921 53.8559 48.1697 54.2063 48.1529 54.6839C48.1529 55.9871 48.3449 57.1463 48.3713 57.2903C48.4121 57.5231 48.7937 58.2023 48.8057 58.2671C48.8225 58.3799 48.8033 60.0647 48.8057 60.3311" stroke="#7A472F" stroke-width="3.6" stroke-linecap="round"/>
<path d="M23.8271 56.8564C23.9087 56.9884 23.9999 57.3652 24.0431 57.5068C24.1127 57.7372 24.7848 58.6564 24.804 58.702C24.876 58.9924 24.9479 59.2804 25.0223 59.5708C25.0751 59.6908 25.5215 59.9213 25.6727 60.2213C25.7255 60.3245 26.2295 61.1452 26.3255 61.2004C26.6783 61.4068 27.7607 62.7604 28.0895 63.0436C28.3823 63.2956 29.8007 64.2412 30.6695 65.11C30.9911 65.4604 32.1983 65.9284 32.4071 65.9788C34.1039 66.3796 34.4711 66.4252 38.3039 66.4252C39.8663 66.4156 40.3511 66.262 40.6847 66.202C41.1167 66.118 42.1655 65.4797 42.2903 65.4341C42.4631 65.3717 43.0968 65.2564 43.3752 65.11C44.8296 64.3468 45.8399 63.5404 46.1999 63.046C46.4183 62.7412 46.5816 62.71 46.7424 62.7196L48.8063 60.766" stroke="#7A472F" stroke-width="3.6" stroke-linecap="round"/>
<path d="M25.8984 86.3574C26.0688 87.1542 27.7968 90.075 28.8888 91.4502C29.7192 92.3142 31.7136 94.6542 32.2008 95.2446C32.3424 95.4102 33.2184 96.0342 33.7512 96.0702" stroke="#4B2513" stroke-width="3.6" stroke-linecap="round"/>
<path d="M25.8984 81.3984C26.0784 82.5744 30.1536 90.048 30.2376 90.18C30.3576 90.3648 31.224 91.7904 31.788 92.4528C32.5608 93.3696 33.06 93.7872 33.9576 94.2096C34.608 94.524 36.1968 95.472 36.4368 95.5536C36.7056 95.6448 37.5792 95.8464 37.7808 95.9664C37.8864 96.0288 38.244 96.2424 38.916 96.4824" stroke="#4B2513" stroke-width="3.6" stroke-linecap="round"/>
<path d="M24.8633 83.8779C25.0865 83.9331 28.0025 87.2067 28.9097 88.4043C29.4689 89.1315 30.8513 90.4755 31.4345 91.1379C32.0009 91.7739 33.4505 92.8155 33.8897 93.1563C34.5737 93.6819 35.8889 94.3587 36.2441 94.6131C36.7265 94.9587 37.7489 95.3307 38.3993 95.6571C38.7785 95.8299 39.3641 95.8563 39.5345 95.8635C39.6977 95.8659 40.4993 96.2835 40.5689 96.3795V96.4827" stroke="#4B2513" stroke-width="3.6" stroke-linecap="round"/>
<path d="M30.6504 90.0771C30.7704 90.2331 31.716 90.4035 32.304 90.7995C32.364 90.8403 34.0776 91.9371 34.2672 92.0403C34.728 92.2947 35.5728 92.8995 36.2304 93.0747C36.4104 93.1203 36.984 93.3723 37.1592 93.3843C37.8792 93.4323 38.7528 93.6003 39.5088 93.6051C43.2528 93.5979 47.2944 93.5907 47.5944 93.5907" stroke="#4B2513" stroke-width="3.6" stroke-linecap="round"/>
<path d="M42.8418 93.5906C43.593 93.6122 47.109 92.6931 47.7618 92.3763C48.2418 92.1531 50.3178 91.5723 50.4882 91.5243C50.7402 91.4523 51.393 91.1139 51.417 91.1115C51.585 91.0779 52.2858 91.0634 52.6578 90.905C53.9682 90.3482 55.881 89.7747 56.8938 89.1483C56.985 89.0907 58.4106 88.3155 58.6482 88.2171C58.8978 88.1163 59.7906 87.9507 59.889 87.9075C60.7722 87.5211 61.7154 86.8034 61.8522 86.7722C62.733 86.5514 66.1434 84.1227 66.3978 83.5683C66.429 83.4987 66.6858 83.3835 66.7074 83.3619C66.7338 83.3355 67.821 81.5451 67.845 81.5019C68.1378 80.9979 68.2194 80.5251 68.2578 80.4699C68.3106 80.3883 68.433 80.3546 68.4642 80.2634C68.5098 80.1314 68.4714 79.8051 68.6706 79.4355C68.9538 78.9099 69.1386 78.485 69.0834 78.5066" stroke="#4B2513" stroke-width="3.6" stroke-linecap="round"/>
<path d="M32.0971 86.3569C32.0515 86.6521 32.6659 87.6841 33.0259 87.8041C33.7891 88.0489 34.3819 88.4185 34.8859 88.6297C35.0731 88.7065 35.5867 89.0233 35.9203 89.0449C36.0883 89.0545 37.1227 89.0449 37.1587 89.0449C37.2115 89.0425 38.5027 89.3545 38.8123 89.4577C38.9827 89.4889 39.4747 89.4697 39.5347 89.5609C39.6187 89.6809 41.2243 89.6449 41.2915 89.6641C41.8891 89.9041 42.9835 89.8633 43.8643 89.8609C44.5699 89.8585 46.2139 89.9209 47.0923 89.6617C47.7643 89.4577 49.6795 89.2513 50.1763 89.2513C50.4451 89.2201 50.7547 88.8433 50.7979 88.8385C51.0691 88.7905 52.0099 88.8049 52.4491 88.6297C52.5931 88.5745 53.0083 88.4521 53.0707 88.4233C53.0827 88.4185 53.4571 88.0321 53.5867 88.0105C53.7571 87.9817 53.9371 88.0537 54.1027 88.0105C54.3283 87.9553 55.8019 87.3145 56.3851 86.9089C56.6371 86.7337 58.0579 86.3713 58.2355 86.2537C58.4203 86.1337 58.9459 85.6873 59.0635 85.6345C59.1619 85.5913 60.3883 85.0297 60.4051 85.0153C61.1995 84.3121 61.9363 84.2497 62.4715 83.7745C62.7259 83.5585 64.5235 82.5529 64.5379 82.5361C64.6627 82.3777 64.9603 81.8401 65.0539 81.8113C65.1571 81.7777 65.4691 81.6193 65.8819 81.0889C66.4459 80.3545 67.0243 79.4569 67.1203 79.2289C67.3075 78.7801 67.3771 77.7025 67.4323 77.5753C67.5283 77.3473 67.8331 76.8169 67.8451 76.7497C67.8595 76.6681 68.3611 75.2521 68.4643 74.8897C68.4859 74.7721 68.4619 72.8377 68.4643 72.5137" stroke="#B87D47" stroke-width="3.6" stroke-linecap="round"/>
<path d="M33.5448 87.5975V87.4943C33.468 87.4223 32.94 87.0791 32.82 86.9783C32.6136 86.8223 31.7808 86.1071 31.4784 85.2215C31.0896 84.0815 30.3408 83.4119 30.1344 83.2583C30.0384 83.1695 29.6088 82.5263 29.2056 81.9143C29.004 81.6095 28.9944 81.3695 28.584 80.8823C28.5696 80.8631 28.5696 76.9871 28.584 76.9559C28.6296 76.8695 28.8096 76.6895 28.7904 76.1303C28.7904 75.6119 28.7784 74.6567 28.9368 74.1431C29.0688 73.7207 29.196 73.5191 29.2056 73.4423C29.2104 73.3847 29.2176 71.6399 28.9968 70.8599C28.7952 70.1471 28.5384 69.7919 28.3776 68.8967C28.224 68.0495 27.9912 67.9295 27.7584 67.1399C27.7104 66.9767 27.4752 66.7919 27.4488 66.7271C27.4224 66.6695 27.3288 66.1151 27.2424 66.0047C26.7936 65.4263 26.3928 64.9607 26.3112 64.8671C25.92 64.4159 25.6056 63.7415 25.176 63.6287C24.8736 63.5519 24.8352 63.4223 24.1416 62.9039C23.832 62.6975 22.32 61.6463 21.8688 61.2527C21.8424 61.2287 20.628 60.1151 20.3184 59.8055C19.7784 59.2703 19.4208 58.4255 19.1832 58.2551C19.032 58.1423 18.912 56.7023 18.8736 56.4983C18.8448 56.3471 18.636 56.0039 18.648 55.6727C18.6672 55.1423 18.6768 48.6311 18.6672 48.4415C18.648 48.0383 19.1376 47.1335 19.2864 46.6847C19.3008 46.6415 20.628 44.7503 20.94 44.6183C21.0936 44.5151 21.8184 44.1671 22.0752 43.8935C22.116 43.8527 22.2048 43.6247 22.2816 43.5839C22.3896 43.5455 22.6848 43.6727 22.7976 43.8935C22.932 44.1575 23.172 44.8703 23.4192 45.2375C24.4344 46.7639 25.3728 48.3263 25.8984 48.6479L26.3112 49.9895" stroke="#B87D47" stroke-width="3.6" stroke-linecap="round"/>
<path d="M26.7237 49.9902C26.7285 50.7102 26.7165 51.0222 26.6205 51.1278C25.9653 51.783 25.7781 52.2558 25.6917 52.3662C25.4685 52.6638 25.4853 53.1102 25.4805 54.4806C25.4685 56.6478 25.4757 61.4214 25.6269 61.9134C25.6773 62.0742 25.8789 63.0246 26.0013 63.3198C26.0493 63.4302 26.1525 63.5334 26.3109 63.6294" stroke="#B87D47" stroke-width="3.6" stroke-linecap="round"/>
<path d="M21.5593 45.4444C21.0505 45.4252 20.7841 45.4732 20.7337 45.6508C20.6593 45.9052 20.0953 47.2132 20.0977 48.1228C20.1001 50.2396 20.1073 53.242 20.1841 53.6572C20.2249 53.878 20.7241 54.6148 20.7337 54.6388C20.7937 54.838 20.6785 55.0612 20.7337 55.2604C20.8969 55.8772 21.6625 57.43 21.6625 57.43C21.7705 57.1828 21.7753 52.8964 21.7705 50.9404C21.7705 50.386 21.7153 49.2052 21.9721 48.6028C22.0417 48.4444 22.2025 48.0628 22.1785 48.0268C22.1785 48.5452 22.1977 50.1964 22.2121 50.4916C22.2577 51.3172 22.8529 56.038 23.0065 56.602C23.3977 58.0492 23.4193 59.5996 23.4193 60.2188C23.4193 58.4116 23.4481 54.4012 23.3593 53.6956C23.1745 52.3612 23.2105 49.3108 23.2129 49.2676C23.2225 49.1332 23.4793 48.9652 23.5225 48.958C23.7649 48.9436 24.1321 49.2028 24.3481 49.5772C24.6529 50.1172 25.3033 52.9636 25.2793 53.8132C25.2721 53.9212 25.0609 53.9092 24.5737 53.914C24.4801 53.9116 23.7793 53.9164 23.6257 53.9164" stroke="#B87D47" stroke-width="3.6" stroke-linecap="round"/>
<path d="M19.4929 56.3951V56.4983C19.1497 56.5103 19.0537 56.4935 18.9769 56.3951C18.9457 56.3567 18.5305 55.7039 18.4585 55.4663C18.4057 55.2839 18.4729 54.3215 18.4825 53.8871C18.4969 53.4983 18.2881 53.2079 18.2521 53.0903C18.2209 52.9751 18.2521 48.9047 18.2521 48.3359" stroke="#B87D47" stroke-width="3.6" stroke-linecap="round"/>
<path d="M18.8735 46.8911C18.5999 46.8743 18.0239 47.3135 17.9423 47.4071C17.6807 47.7287 17.6255 48.0743 17.6327 49.4735C17.6303 50.3423 17.6255 51.9959 17.7359 52.1591C17.8367 52.3007 18.2687 53.2103 18.7703 53.7095C18.8519 53.8007 18.9143 54.1727 18.9767 54.2255C19.1423 54.3671 19.6991 54.5735 19.6991 54.5351" stroke="#B87D47" stroke-width="3.6" stroke-linecap="round"/>
<path d="M23.0059 54.5352H23.1091C23.3467 55.0272 24.0235 55.8624 24.2515 56.2824C24.5419 56.808 26.2411 58.7856 26.3107 58.8744C26.6515 59.3232 29.4667 64.1592 29.5147 64.248C30.2947 65.7192 31.6915 66.8328 31.8907 67.14" stroke="#B87D47" stroke-width="3.6" stroke-linecap="round"/>
<path d="M29.4121 64.4546C29.7985 64.4354 31.1161 64.6706 32.6497 64.6802C34.8337 64.6706 38.0809 64.6562 38.8153 64.6754C39.2641 64.6874 39.5185 64.4834 39.6385 64.4546C39.8401 64.4042 40.4113 64.4522 40.6729 64.3514C41.4841 64.0418 42.0937 64.0442 42.3265 63.629C42.4513 63.6266 43.0897 63.629 43.2553 63.5258C43.8409 63.161 44.9089 62.0258 45.4249 61.5626C45.5257 61.4378 45.4753 61.133 45.5281 61.0442C45.6289 60.8786 45.8209 60.785 45.9409 60.6314C45.9841 60.5786 46.7137 58.7546 46.7689 57.6362C46.7833 57.3458 47.1841 55.5218 46.9753 53.813C46.8625 52.9226 46.5889 52.5914 46.5625 52.0562C46.5505 51.8546 45.7633 50.5994 45.7345 50.5058C45.6961 50.3738 45.6625 49.9562 45.6313 49.8866C45.4849 49.445 45.2233 49.1594 45.1153 48.8546C44.9041 48.2546 43.7401 47.081 43.5649 46.9946C43.4929 46.9586 42.9289 46.889 42.8425 46.7882C42.4417 46.3226 41.0089 46.1114 40.8793 46.0634C40.7185 46.0058 40.3273 45.6698 40.0537 45.6506C39.8953 45.641 38.7481 45.6506 38.7097 45.6506C38.1721 45.6698 38.0017 45.629 37.7809 45.4442C37.6249 45.3002 36.9745 43.2314 36.8497 42.6554C36.8497 41.7242 35.5561 39.4778 35.1961 39.1418L35.2993 38.8322C35.4313 38.8658 36.5929 38.5034 37.4689 38.4194C37.6033 38.4074 37.7545 38.2178 37.7809 38.213C37.8361 38.201 39.5905 38.2202 39.8473 38.213C40.8889 38.1914 41.8561 38.4098 42.6361 38.4194C43.0921 38.4266 44.6401 39.2114 44.7025 39.245C44.9065 39.3602 45.7993 40.1522 46.6657 40.589C46.8721 40.6922 47.3041 40.913 47.3881 41.105C47.4409 41.2394 48.0625 41.9522 48.1105 42.0338C48.2065 42.1946 48.7417 43.277 48.8353 43.5842C48.8401 43.6034 49.5505 44.5826 49.9705 45.4442C50.0785 45.6674 50.0641 46.241 50.0737 46.2698C50.1745 46.5626 50.5753 47.2922 50.6233 47.633C50.6761 47.9882 50.7193 48.5642 50.7265 48.893C50.7433 49.4738 51.6313 50.6474 51.7273 51.5402C51.7417 51.677 51.7393 51.9938 51.9337 52.2626C52.1161 52.505 52.1113 53.093 52.1401 53.297C52.1593 53.4458 52.5289 54.2186 52.5553 54.4322C52.5697 54.569 52.5697 54.881 52.5553 55.3634" stroke="#B87D47" stroke-width="3.6" stroke-linecap="round"/>
<path d="M38.5027 39.8639L38.3995 39.7607C38.3731 39.9287 38.4115 39.9839 38.6995 40.0967C39.5947 40.4471 41.8699 41.9351 43.0483 42.9647C43.2715 43.1663 43.7803 43.6247 43.8739 43.6871C43.9771 43.7567 44.2075 43.9271 44.2891 44.3087C44.3419 44.5679 44.4115 44.7407 44.4955 44.8247C44.6347 44.9687 45.1891 45.2831 45.4243 45.7535C45.5635 46.0295 45.6595 46.3295 45.8371 46.5815C45.9091 46.6823 46.8907 47.7023 46.9747 47.8199C47.0347 47.9039 48.0595 49.7327 48.4219 50.2991C48.9763 51.2783 49.6675 53.4311 50.0731 54.0191C50.4643 54.5807 50.4763 54.9143 50.4883 55.0535C50.4907 55.1015 50.5243 55.1711 50.5915 55.2599C50.6155 54.7967 50.5699 54.5207 50.3539 53.9831C49.2331 51.1631 48.2371 49.0247 47.1859 47.5487C46.5307 46.6487 44.9875 45.0311 44.8051 44.9279C44.3563 44.6783 42.9739 43.5431 42.7387 43.5839C42.5659 43.6127 42.2635 43.2359 42.1195 43.0679C41.7019 42.5831 40.8259 41.8799 40.4659 41.5175C40.0675 41.2079 39.4435 41.3303 39.3283 41.4143V42.2423C39.5395 42.4103 40.7371 42.9575 40.8787 42.9647C43.1203 43.0727 43.7443 42.9479 43.8739 42.8615L43.9771 42.4487C44.5531 42.6551 44.8123 42.8375 45.1219 43.3199C46.6939 45.6911 47.8771 47.6111 48.3187 48.9575C48.3835 49.1591 48.9907 51.3143 49.1443 51.7463C49.4059 52.4591 49.6099 54.3695 49.6603 54.6383C49.7203 54.9575 50.3371 57.0359 50.5915 57.5327C50.7019 57.7583 50.6971 59.1215 50.6947 59.4959" stroke="#B87D47" stroke-width="3.6" stroke-linecap="round"/>
<path d="M50.0729 57.2236C50.0873 58.4788 49.8305 59.5732 49.2473 60.6316C49.1633 60.7828 48.1457 62.7076 47.8001 63.1108C47.4401 63.4732 46.7945 64.1668 46.5617 64.6612C46.4537 64.8892 45.8417 66.1036 45.1145 66.8308C44.6441 67.3708 44.0201 67.7236 43.7705 67.8652L44.9081 65.6956" stroke="#B87D47" stroke-width="3.6" stroke-linecap="round"/>
<path d="M47.3876 53.5029C47.4572 54.2085 47.2724 55.3245 46.8716 56.1885C46.7444 56.4549 46.4828 56.8629 46.3556 57.0165C46.1372 57.2709 45.8204 58.3533 45.122 59.2365C41.9372 63.3789 41.6852 63.9381 41.498 64.1445C41.282 64.3845 40.4276 64.4325 40.2596 64.5573C40.1876 64.6077 39.7868 65.2797 39.7412 65.2797" stroke="#B87D47" stroke-width="3.6" stroke-linecap="round"/>
<path d="M32.923 66.7272H31.375C31.8838 66.4968 33.8518 66.2808 34.0678 66.2472C35.8198 65.9184 39.1846 65.4336 40.0534 65.28C40.3222 65.2344 41.9686 65.0256 42.1198 64.9704C42.2662 64.9176 42.8902 64.6944 43.1518 64.6608C43.4278 64.6272 44.2846 64.668 44.4958 64.6608C44.8582 64.6512 45.583 64.3056 45.8374 64.248C46.027 64.2024 46.9366 64.2792 47.0782 64.248C47.7502 64.092 49.3102 63.6456 51.0046 62.5944C51.1294 62.5104 51.4582 61.9944 51.5206 61.7688C51.5422 61.6824 51.5206 58.308 51.5206 57.9456C51.283 57.8496 50.6638 57.8304 50.1766 57.9456C49.6798 58.068 48.7702 59.064 47.9902 59.9928C47.0998 61.0872 45.2302 64.3872 44.7022 66.2112C44.7022 65.8248 44.6974 65.1 44.7022 64.9704C44.7238 64.4712 45.427 63.276 45.631 62.4912C45.6622 62.3736 46.6054 60.0264 46.8718 59.9088C46.9918 59.8584 47.587 59.9208 47.5942 59.9088" stroke="#B87D47" stroke-width="3.6" stroke-linecap="round"/>
<path d="M50.6953 56.1887C52.2433 56.1887 55.2001 56.1815 55.2409 56.1887C55.2745 56.1959 57.8569 58.3247 58.3393 58.5647C58.6585 58.7591 61.6057 62.58 61.9561 62.8008C62.4193 63.096 62.5513 63.6288 62.7817 63.8352C63.0361 64.0584 65.9545 67.3583 66.6049 70.1375C66.6529 70.3487 66.5977 71.3711 66.6049 71.5823C66.6289 72.2495 67.0417 73.6919 67.1209 73.8551C67.2385 74.1167 67.2241 76.6463 67.2241 76.9559L66.6049 75.4055" stroke="#B87D47" stroke-width="3.6" stroke-linecap="round"/>
<path d="M52.7614 55.5693H52.6582C52.4542 55.8213 52.8646 56.4477 53.071 56.7045C53.419 57.3021 54.259 58.0293 54.9046 58.4469C55.5718 58.8765 57.0454 60.0333 57.4822 60.3237C57.9982 60.6717 58.9486 61.7445 59.167 61.9749C59.8678 62.7189 62.2054 66.1101 62.575 66.3141C62.767 66.4221 64.3294 68.6805 64.3318 68.6901C64.4206 68.9397 64.6102 69.8757 64.6414 69.9309C65.1142 70.7613 65.2198 71.1069 65.3662 71.7909C65.4166 72.0333 65.635 72.2181 65.6758 72.3069C65.7166 72.3957 65.8222 73.1469 65.8822 73.2357C65.9734 73.3821 66.1486 73.4829 66.1918 73.6485C66.2518 73.8837 66.1558 74.1333 66.1918 74.3733C66.2182 74.5557 66.415 74.9805 66.3982 75.7149C66.391 75.9861 66.4054 77.0589 66.3982 77.1621C66.3646 77.5533 65.7454 78.2661 65.4694 78.4029C65.059 78.6021 64.5142 78.7413 64.435 78.8157C64.3462 78.8997 64.1566 79.2045 63.919 79.3317C63.8158 79.3845 63.1942 79.6269 62.8846 80.0541C62.8438 80.1165 62.587 80.4813 61.9558 80.7789C60.0454 81.6765 57.871 83.2125 57.823 83.2581C57.6382 83.4309 57.3574 83.4645 57.2038 83.4645C57.103 83.4909 55.243 84.2901 55.2406 84.2901C54.1198 84.9813 51.991 85.9173 51.5206 85.9437C51.3142 85.9557 50.4886 86.0853 50.2798 86.1501C50.1454 86.1933 49.3966 86.4933 49.1446 86.5629C48.9838 86.6061 34.5094 86.5845 34.4734 86.5629C34.3894 86.5173 34.3606 86.3829 34.267 86.3565C34.1014 86.3061 33.6166 86.3469 33.4414 86.1501C32.0926 84.6429 31.4854 83.5965 31.4782 83.4645C31.4158 82.4421 31.0438 81.1533 30.9598 80.8821C30.9286 80.7765 30.6598 79.0221 30.6502 78.9189C30.4342 77.8413 30.4318 74.5677 30.4414 72.6717C30.4462 71.1237 30.4414 69.7533 30.547 69.5157C30.6526 69.2949 31.1014 69.2301 31.1662 69.2061C31.375 69.1029 31.939 68.9757 32.0974 68.8965C32.2294 68.8317 32.5894 68.4237 32.8198 68.3805C32.995 68.3445 33.7702 68.3565 34.0606 68.2773C34.2646 68.2221 35.4046 67.7133 35.611 67.6581C36.0622 67.5309 37.5382 67.5717 38.1454 67.4661C38.755 67.3557 39.4054 66.9741 39.9502 66.9333C40.183 66.9165 41.5414 66.3405 41.911 66.1077C42.4606 65.7669 44.9086 65.1765 46.3558 64.7637C46.5214 64.7061 48.5134 63.3477 49.7614 62.9565C50.3014 62.7837 50.9686 62.4213 51.211 62.2845C51.9166 61.8861 52.7086 61.2117 53.071 61.1469C53.1382 61.1397 54.6382 60.6765 55.7734 61.0917C55.9078 61.1421 56.8462 61.5309 57.5134 62.2845C58.027 62.8677 58.1422 63.1293 58.7518 63.9381C60.0574 65.6445 62.0518 68.9733 62.4718 69.6189C63.1342 70.6341 64.087 72.3429 64.2286 72.6165C64.5286 73.2045 64.5622 73.3245 64.5382 73.7517C64.5142 74.0877 64.5574 76.2837 64.5382 76.3365C64.4806 76.4925 63.3862 77.5869 63.1126 77.7717C62.0422 78.4773 57.8662 80.2101 57.7198 80.2629C57.2038 80.3661 55.4806 80.8941 55.4326 80.9013C54.4726 81.0669 53.395 81.5253 52.8646 81.6045C52.5886 81.6477 51.8518 81.7509 51.4534 81.9549C50.6662 82.3581 49.555 82.5645 48.9382 82.8453C48.8758 82.8717 47.0806 83.0973 46.6654 83.2581C46.6438 83.2677 45.487 83.8485 45.3214 83.8773C45.2206 83.8941 44.6086 84.0549 44.3926 84.0837C44.0854 84.1269 41.7718 84.2613 41.6014 84.2901C41.4766 84.3117 40.6366 84.6765 40.4662 84.7053C40.363 84.7221 38.0422 84.7845 37.5718 84.2901C37.3846 84.0909 37.2862 84.0573 36.9526 84.0837C36.6118 84.1149 36.4246 83.9109 36.3334 83.8773C36.2806 83.8581 36.1414 83.8581 35.9206 83.8773C35.7718 83.5893 35.1622 83.2941 34.783 83.2581C34.6198 83.2437 34.0246 82.7997 33.9574 82.7421C33.3118 82.1733 32.935 81.8421 32.6134 81.1917C32.503 80.9661 32.3638 80.3613 32.0974 80.0541C31.915 79.8429 31.4398 78.4053 31.4782 78.0909C31.5118 77.8101 31.2982 77.2749 31.2694 77.0589C31.2358 76.7853 31.3174 76.5045 31.2694 76.2333C31.2502 76.1109 31.0366 75.8565 31.063 75.5085C31.075 75.3381 31.1086 74.6109 31.063 74.4765C31.0054 74.2941 30.4774 73.5861 30.4438 73.4421C30.439 73.4253 30.4102 72.1317 30.4438 71.8941C30.4822 71.6901 30.9406 71.4693 31.063 71.3757C31.3222 71.1909 31.9462 70.6365 32.0974 70.6533C32.3614 70.6797 32.5918 70.4205 32.7166 70.3437C33.7726 69.6957 36.115 69.3717 38.0902 69.2061C38.731 69.1509 40.0774 68.4693 40.879 68.2773C41.347 68.1669 42.9934 67.4805 43.1518 67.4493C44.1742 67.2525 44.3758 67.0893 45.4246 66.9333C45.5326 66.9189 47.2054 66.4485 47.8006 66.2109C48.4222 66.0549 49.5478 65.4933 49.9702 65.4885C50.359 65.4813 51.727 64.9701 52.4494 64.6605C52.5478 64.6293 52.8838 64.6461 52.9678 64.5573C53.0638 64.4589 53.4814 64.2117 53.8966 64.0413C54.3406 63.8589 54.8398 63.8829 54.931 63.8349C55.1494 63.7197 55.3174 63.5109 55.5502 63.4221C55.771 63.3381 56.9062 63.6165 56.9974 63.7317C57.1822 63.9765 58.003 65.5125 58.6486 66.4173C59.1526 67.1397 59.9158 68.3925 60.0958 68.5869C60.4582 68.9997 61.2022 69.7269 61.3366 69.9309C61.4134 70.0485 61.447 70.3797 61.543 70.4469C61.6726 70.5405 61.9318 71.0469 61.9558 71.0661C62.2078 71.2629 62.7286 72.0093 62.8846 72.4101C62.9374 72.5541 63.091 72.8229 63.091 73.6485C63.091 73.7877 63.0358 74.3157 62.8846 74.4765C62.6638 74.6421 62.0278 75.3453 61.1902 75.8493C60.7678 76.1037 60.3262 76.4685 60.0958 76.7493C60.0814 76.7661 58.1134 77.8413 56.695 78.3525C55.7302 78.6909 55.1038 78.8853 54.619 78.9189C54.343 78.9381 54.0118 79.2405 53.8966 79.3317C53.6998 79.4901 53.3398 79.5117 53.2774 79.5381C53.2606 79.5453 52.6438 79.9725 52.4494 80.0541C52.1758 80.1717 50.2294 80.3733 49.7638 80.4693C49.4614 80.5293 48.6742 80.7669 48.5254 80.7789C48.2158 80.8005 46.1134 80.9637 45.9406 80.9853C45.2062 81.0837 44.3302 81.6285 43.7398 81.6021C43.255 81.5781 42.2446 81.8229 41.4166 81.8301C40.411 81.8325 37.9294 81.8181 37.8838 81.8109C37.7278 81.7077 37.2982 81.5541 36.9526 81.2949C36.9382 81.2829 36.5086 80.4021 36.2302 80.0541C36.1702 79.9845 35.7142 79.5381 35.7142 79.5381C35.6278 79.5165 35.575 78.9453 35.5054 78.7125C35.4886 78.6525 35.0302 77.7645 34.9894 77.5749C34.8358 76.8141 34.855 75.9093 34.783 75.7149C34.7326 75.5781 34.459 75.3789 34.3702 74.8893C34.3558 74.8149 33.7846 74.1477 33.9574 73.2357C33.9934 73.0581 34.699 72.4677 34.783 72.4101C34.9486 72.3045 35.4814 72.3141 35.5054 72.3069C35.695 72.2517 36.4078 71.6997 36.4366 71.6853C37.3918 71.2773 39.8686 70.7805 39.9502 70.7565C40.1134 70.7085 41.2774 70.1877 41.4982 70.1373C41.7694 70.0725 42.6406 69.9813 43.0486 69.8277C43.2862 69.7365 44.2582 69.3117 44.599 69.2061C44.839 69.1317 46.0774 68.8509 46.2526 68.7933C46.4062 68.7429 47.2702 68.3397 47.491 68.2773C47.7814 68.1933 49.0246 68.0037 49.1446 67.9677C49.1806 67.9557 50.0446 67.5789 50.383 67.4733C50.7382 67.3581 51.3166 67.3749 51.5206 67.3461C51.6598 67.3269 52.279 66.9981 52.4494 66.9333C52.9078 66.7509 53.539 66.8085 53.6902 66.7269C53.827 66.5901 53.9662 66.4509 54.103 66.3141C54.1798 66.2757 57.2398 66.3117 57.307 66.3141C57.7462 66.3381 58.3606 66.8445 59.167 67.3461C59.4094 67.4997 60.3934 68.4357 60.715 68.7933C60.9094 69.0117 61.351 69.4317 61.4398 69.7245C61.4998 69.9333 61.6558 70.4133 61.6462 71.1693C61.6414 71.3421 61.6174 72.2301 61.543 72.4101C61.4854 72.5445 60.5326 73.4301 60.4054 73.5453C59.971 73.9317 58.855 74.3037 58.435 74.4261C54.3262 75.6189 51.4606 75.9189 50.4982 76.0149C50.3758 76.0269 45.5182 77.5269 45.2182 77.5749C44.9926 77.6109 42.763 77.7525 41.7766 77.9373C40.8262 78.1173 39.3118 78.5253 38.6398 78.5133C35.0014 78.4941 34.339 78.5469 34.267 78.5061C34.0558 78.3693 33.9286 77.7261 33.9358 77.1093C33.9454 76.2069 33.9694 74.6781 33.8542 74.5797C33.7702 74.5173 33.6214 73.9293 33.5446 73.7517C33.4582 73.5645 33.0814 73.0701 33.1294 72.6165C33.163 72.4077 33.4054 72.0837 33.6478 71.9973C33.9862 71.8797 35.4478 71.9109 35.899 71.8389C36.2014 71.7909 41.4382 70.8189 42.0166 70.7565C42.9382 70.6605 44.9974 70.6629 45.3214 70.6533C46.1326 70.6269 47.5534 70.3821 48.9454 70.0773C49.8526 69.8877 51.5254 69.8205 52.3342 69.8013C53.119 69.7557 53.647 69.5421 54.5158 69.4125C55.5382 69.1869 56.3926 69.2109 58.2142 69.2013C60.0118 69.1965 60.2206 69.2229 60.4054 69.3093C60.4342 69.5253 60.319 69.8853 60.0958 70.0341C59.9494 70.1277 57.4054 70.7301 57.307 70.7565C56.5534 70.9461 53.2102 71.1789 51.2134 71.6397C50.2942 71.8413 49.0774 72.1077 48.1102 72.5133C48.1006 72.5181 46.1806 72.9261 45.115 73.3389C44.2174 73.6869 42.9598 73.7253 42.223 73.8549C41.6998 73.9485 39.5494 74.5293 38.7598 74.5797C38.5534 74.5917 37.855 74.5677 37.7806 74.5797C37.675 74.5989 37.5238 75.2493 37.0558 75.5085V76.3365C37.6822 76.4541 39.7198 76.4613 40.0534 76.4397C40.6294 76.3989 44.251 75.4677 45.4246 74.9925C46.135 74.7021 47.7166 73.8669 48.2134 73.6485C48.7342 73.4229 50.7814 72.7149 51.7342 72.4341C54.163 71.7357 55.123 71.9109 55.2406 71.9973C55.2406 72.5133 55.243 74.3325 55.2406 74.3733C55.2046 74.7597 54.9358 74.9589 54.2062 75.1989C53.9998 75.2637 53.4094 75.4509 52.9174 75.5421C51.607 75.7869 49.4878 77.2989 49.351 77.3685C49.099 77.4957 48.1702 78.0549 48.007 78.0909C47.0566 78.1989 45.043 78.7629 44.8054 78.8157C44.5606 78.8661 42.619 79.1469 42.3262 79.3317C42.2878 79.6317 42.3646 79.8621 42.6526 80.2101C43.6918 81.4653 44.851 82.3509 45.8038 82.8285C46.375 83.1069 46.8694 83.2317 47.491 83.2581C47.5438 83.2605 50.6158 83.2605 50.695 83.2581C51.2614 83.2269 52.2142 82.4037 52.6582 81.8109C52.7302 81.7101 53.5366 80.7045 53.8462 79.5525C53.8918 79.3845 54.5086 75.8229 54.8278 74.5797C54.8806 74.3709 55.2982 73.3629 55.447 73.2357C54.799 73.4277 52.5166 75.0573 51.4342 75.6261C51.0766 75.8133 42.5278 79.1661 42.2734 79.2549C41.9518 79.3629 40.0966 79.8045 39.4318 80.0541C39.1678 80.1573 38.7382 80.4021 38.503 80.5725C38.0542 80.8989 37.9198 81.0693 37.987 81.1917C38.7574 81.2301 39.991 81.0309 40.9798 80.7141C42.6166 80.1837 47.0662 78.8877 47.5942 78.9189" stroke="#B87D47" stroke-width="3.6" stroke-linecap="round"/>
<path d="M28.6797 81.5908L28.8501 81.6748C29.0037 82.1428 28.9413 82.9276 29.0181 83.1988C29.0925 83.4532 29.3229 83.638 29.4405 83.8756C29.5197 84.0292 29.6397 84.8356 29.8653 85.2292C29.9613 85.3996 30.8757 86.4004 31.2189 86.7532C31.2285 86.7604 32.5941 87.394 32.5725 87.3436" stroke="#B87D47" stroke-width="3.6" stroke-linecap="round"/>
<path d="M13.5 20.1338C13.5144 18.9914 13.4544 18.6026 12.9288 17.9474C12.4848 17.3162 11.9424 16.4354 11.7888 15.9506C11.7384 15.7826 11.4936 15.6578 11.4096 15.2858C11.3088 14.8514 10.2792 12.9386 10.1736 12.8138C9.88801 12.4778 9.89041 12.0554 9.50641 11.4818C9.46561 11.3978 9.29041 10.5098 9.31681 10.3418C8.94721 10.1114 8.90641 9.58338 8.84161 9.48738C8.74801 9.35058 8.79601 9.09138 8.74561 9.00978C8.65441 8.85858 8.27041 8.34498 8.17681 8.25138C8.17441 8.24658 8.17681 7.78818 8.08081 7.68018C7.96561 7.54338 7.55041 7.03698 7.60561 6.72978C7.64881 6.51858 7.99681 6.27858 8.46241 6.06258C8.86321 5.88498 9.19441 5.90178 9.31681 5.87298C9.42721 5.84898 10.092 5.24658 10.1736 5.20818C11.1648 4.74738 12.0264 4.11858 12.0744 4.06818C12.1224 4.01538 12.4056 3.60258 12.4536 3.59298C12.78 3.53298 13.1496 3.62418 13.404 3.87618C13.8576 4.33458 14.2536 4.72098 14.2608 4.73298C14.3304 4.82658 15.4992 6.61938 15.6912 6.88818C15.9264 7.21938 16.6992 8.04498 17.0184 8.63058C17.5032 9.54018 18.0768 10.6034 18.1584 10.817C18.264 11.0906 18.4032 11.8442 18.6336 12.149C18.7896 12.3554 20.3448 15.4634 20.3448 15.665C20.376 15.7298 19.7768 15.6856 20 16L19.9656 16.1402" stroke="#B87D47" stroke-width="3.6" stroke-linecap="round"/>
<path d="M11.0273 6.82324C11.2793 7.78324 13.3577 11.8008 14.2601 13.0992C14.8505 13.9512 16.5161 18.4176 16.9217 19.1832C17.2601 19.824 18.4337 23.2056 18.7289 24.0312C19.0145 24.744 19.6169 26.2992 19.9649 26.6928C20.1209 26.8704 20.1689 27.504 20.4401 27.7392L20.5337 27.36" stroke="#B87D47" stroke-width="3.6" stroke-linecap="round"/>
<path d="M13.689 6.44434C13.6938 6.52834 13.677 7.10674 13.689 7.20514C13.7346 7.50514 14.8914 9.42274 15.021 9.67714C15.1434 9.91714 15.8274 11.4915 16.4466 12.5283C17.0826 13.5939 17.7282 14.9259 17.7786 15.0003C17.9106 15.2019 20.961 19.2075 21.7698 20.7051C22.209 21.5259 23.2842 23.5083 23.5314 23.9355C24.2226 25.1259 24.6738 26.3115 24.813 26.5035C24.9306 26.6691 25.2594 27.0987 25.3122 27.4659C25.3962 28.0827 25.581 28.3755 25.8594 28.5003" stroke="#B87D47" stroke-width="3.6" stroke-linecap="round"/>
<path d="M13.8814 10.0566C13.8358 10.9614 13.9342 11.7078 14.3278 12.5766C15.811 15.7902 18.5566 20.3166 22.0438 25.4214C23.4646 27.5646 24.2278 29.0502 25.1638 30.7398C26.8198 33.8742 30.3478 40.467 30.5182 41.4294C30.571 41.7318 30.679 42.9366 30.7078 43.047C30.7438 43.1838 30.9238 43.4766 30.8974 43.5222L30.043 42.5718" stroke="#B87D47" stroke-width="3.6" stroke-linecap="round"/>
<path d="M10.8384 13.2891C10.7952 13.3515 11.7096 14.4435 12.0744 15.0003C13.0056 16.5843 14.46 18.9435 15.456 20.2035C15.7536 20.5923 17.0832 22.4619 17.6904 23.3283C18.3576 24.3027 18.8568 25.2411 19.3344 26.4795C19.9992 28.2171 21.6384 31.0899 22.0872 32.3163C22.6464 33.8403 24.7536 38.3235 25.1928 38.9595C25.2984 39.1083 25.6104 39.2811 25.6704 39.4347L24.9096 38.5779" stroke="#B87D47" stroke-width="3.6" stroke-linecap="round"/>
<path d="M19.2041 26.7891C19.8833 27.7107 21.8969 31.2699 22.7633 32.6427C23.6033 33.9195 26.1065 37.5387 26.3345 37.8171C27.4169 39.1371 29.0609 41.7867 29.4713 42.3819C30.9305 44.6043 31.6673 46.2171 31.5641 46.6587C31.5497 46.7067 31.5185 46.7379 31.4681 46.7547L28.1393 43.1403" stroke="#B87D47" stroke-width="3.6" stroke-linecap="round"/>
<path d="M21.6768 34.7764C22.1232 35.6908 24.4272 39.3148 24.8904 40.2172C25.4928 41.3908 26.1744 42.5236 26.9784 43.7068C27.4872 44.4724 28.4496 47.398 28.6176 47.7052C28.656 47.7772 29.0664 48.2932 29.0928 48.37C29.112 48.43 29.1336 48.7564 29.2824 48.9412C29.3952 49.0804 29.7648 49.5916 29.8536 49.702C29.964 49.8412 30.2832 50.182 30.2328 50.4628L30.708 50.7484C30.8856 50.7004 31.3248 49.702 31.812 49.1764C32.5848 48.3868 32.7 48.3124 33.3696 48.2764C33.7776 48.2596 34.2144 46.8532 34.2552 45.9436C34.2672 45.3652 34.1904 45.1276 33.8448 44.758C33.48 44.3764 33.0456 43.6924 32.8944 43.522C32.3496 42.9124 30.192 41.3308 29.8536 41.146L29.6616 41.3356C29.82 41.9164 30.8472 43.1764 31.2528 43.7788C31.4736 44.11 33.084 46.5652 33.3696 47.0404C33.876 47.6692 34.3152 47.7124 34.6056 47.7052" stroke="#B87D47" stroke-width="3.6" stroke-linecap="round"/>
<path d="M40.7832 94.1785C41.0544 94.1185 41.9616 93.5089 42.6024 93.3337C43.9104 92.9809 47.6184 91.6033 48.4752 91.4761C49.3416 91.3705 50.8656 91.1281 51.5256 90.9913C51.6696 90.9697 52.4544 91.0321 52.6344 90.9913C53.82 90.7153 55.992 89.5009 57.1392 89.1193C58.0368 88.6945 58.7976 88.5865 59.0784 88.4953C59.2872 88.3561 60.1032 88.0177 60.396 87.8713C61.1136 87.5161 61.5768 87.5353 62.0592 87.2473C62.6304 86.8993 64.8984 85.8217 64.9008 85.8625" stroke="#4B2513" stroke-width="3.6" stroke-linecap="round"/>
<path d="M47.1572 91.8218C47.306 91.505 48.5348 91.1666 48.9092 91.0226C50.2964 90.509 53.7068 89.3618 54.2276 89.1194C54.3548 89.0594 55.0076 88.661 55.1276 88.6346C55.31 88.5962 55.5092 88.6298 55.682 88.565C55.8884 88.4882 56.4236 88.1738 56.5148 88.1498C57.5276 87.857 60.0788 86.8274 60.2564 86.7626C60.4652 86.6882 61.574 85.8626 62.5436 85.3778C62.6012 85.3442 63.638 84.8474 64.1396 84.3362L65.7332 83.021L66.4268 81.9122C66.5516 81.7778 66.5132 81.461 66.5636 81.3578C66.6212 81.2402 66.7892 81.1994 66.842 81.0794C66.8972 80.9522 66.9812 79.901 67.118 79.4858C67.1468 79.3082 67.0988 78.5042 67.118 78.4466C67.466 77.6834 68.1596 76.2146 68.2268 76.0202C68.294 75.8234 68.3756 74.7314 68.366 74.2178" stroke="#4B2513" stroke-width="3.6" stroke-linecap="round"/>
<path d="M63.9307 73.6631C64.2067 73.6415 64.4131 73.8839 64.4851 74.4263C64.5139 74.6591 64.6435 75.2615 64.6435 75.6479C64.6387 76.3007 64.3147 77.3039 64.2067 77.7527C64.1683 77.9207 63.9139 78.4775 63.9307 78.8615C63.9451 78.9167 65.157 77.7671 65.2482 77.4743C65.313 77.2535 65.6058 75.1703 65.5938 74.9111C65.553 74.1287 65.6106 73.8647 65.8698 73.5935L66.2179 73.0391C66.2923 73.1975 66.5395 73.6751 66.5635 73.8023C66.5827 73.8959 66.5586 75.8999 66.5658 76.3559C66.5658 76.6703 65.6274 78.1295 65.5938 78.1679C65.1834 78.6215 65.0923 79.0535 65.0395 79.1399C64.9987 79.2047 64.5571 79.5503 64.1395 79.9007C63.8611 80.1791 63.081 80.4455 63.0282 80.4551C62.973 80.4671 61.869 80.5631 61.7826 80.5943C61.6722 80.6327 61.4395 80.8439 61.2979 80.8703" stroke="#B87D47" stroke-width="3.6" stroke-linecap="round"/>
<path d="M60.3265 74.6327C60.0385 74.5655 56.1073 76.4471 55.8217 76.5743C51.6217 78.4511 46.6633 81.3671 44.3857 82.1183C43.9993 82.2455 43.6369 82.2623 43.4161 82.1879C43.4185 81.7439 43.4017 80.3279 43.4761 79.9391C43.5625 79.5071 44.0833 77.9111 44.1793 77.4743C44.2609 77.1023 44.9209 72.8231 45.0337 71.4119C45.1657 69.8351 45.6313 67.1687 45.6337 66.1367C45.6361 65.7335 45.7921 64.3631 45.7729 64.2383" stroke="#B87D47" stroke-width="3.6" stroke-linecap="round"/>
<path d="M47.4354 55.6445C47.469 56.4365 47.229 57.4877 46.7418 58.5557C46.3602 59.3765 45.7242 60.1493 45.249 60.8045C44.6994 61.5629 44.2002 62.2181 43.8234 62.6069C42.6114 63.8213 39.6762 65.0285 39.6738 65.0693" stroke="#B87D47" stroke-width="3.6" stroke-linecap="round"/>
<path d="M37.5938 65.3478C38.3498 64.7814 39.2233 64.4814 39.9505 64.239C42.6313 63.1902 43.3897 62.5374 43.4857 62.4366L43.9705 62.1582" stroke="#B87D47" stroke-width="3.6" stroke-linecap="round"/>
<path d="M42.7224 61.8818C42.2664 61.9778 41.4048 62.6882 41.268 62.7818C41.0688 62.9186 40.2504 63.6674 39.6048 63.9602C38.9448 64.2026 37.4784 64.8602 37.3176 64.9322C37.2 64.9826 36.696 65.4722 36.624 65.4866" stroke="#B87D47" stroke-width="3.6" stroke-linecap="round"/>
<path d="M40.9195 52.5938C40.8163 52.709 40.4899 54.2161 40.0891 54.8809C39.2251 56.2729 38.2219 56.7121 38.0107 56.7529" stroke="#4B2513" stroke-width="3.6" stroke-linecap="round"/>
<path d="M42.4463 45.5254C43.2983 46.2262 46.1495 51.4438 47.0207 52.663C47.1935 53.011 47.5847 53.803 47.6447 53.911C48.0479 54.6502 48.0959 55.0246 48.2663 55.159V55.2286" stroke="#B87D47" stroke-width="3.6" stroke-linecap="round"/>
<path d="M41.1982 45.8018C41.4718 45.8282 42.6694 47.309 43.0702 47.5346C43.5358 47.7986 44.9254 49.6562 45.1486 50.0306C45.3334 50.3402 45.8302 51.3098 46.0486 51.9698C46.1134 52.1666 46.8502 54.1586 46.8814 54.1874C46.8742 54.497 47.2774 55.9154 47.2966 56.0594C47.431 57.053 47.4334 59.3858 47.4358 60.6338" stroke="#B87D47" stroke-width="3.6" stroke-linecap="round"/>
<path d="M8.9037 21.4874L9.0645 21.4082C9.0765 21.1466 9.0573 21.0554 8.9037 20.8442C8.7669 20.657 7.8885 19.5962 7.6149 18.9938C7.5813 18.9146 6.8901 17.0618 6.7293 16.577C6.6621 16.4426 6.3021 16.0394 6.2469 15.9338C5.8485 15.1778 5.1429 13.5338 5.1189 13.5194C4.7469 13.2698 4.6317 12.3698 4.3149 11.9906C4.2165 11.8682 3.9213 11.621 3.9117 11.5874C3.8829 11.4842 3.9093 11.1674 3.8325 11.105C3.7581 11.0426 3.4125 10.7282 3.4293 10.541" stroke="#DDDDDD" stroke-width="3.6" stroke-linecap="round"/>
<path d="M22.5887 13.2772C22.6103 12.6556 22.1519 12.1948 21.5423 11.0236C21.2207 10.5412 20.5319 9.34841 20.4143 9.17321C20.3447 9.04601 19.4159 7.66601 19.3679 7.56281C19.3343 7.48841 19.1639 6.96521 19.1279 6.91721C18.8135 6.53081 18.6935 6.18521 18.7247 6.11321L17.5967 4.09961" stroke="#DDDDDD" stroke-width="3.6" stroke-linecap="round"/>
<path d="M4.375 13.5746L5.4046 13.2002L5.779 12.8882L6.4654 12.6386L6.6214 12.5762" stroke="#706B66" stroke-width="1.68" stroke-linecap="round"/>
<path d="M6.93359 17.8779V17.9091C7.12079 18.0891 7.78559 18.0507 8.08799 17.8779C8.25599 17.7795 8.62079 17.6067 8.64719 17.5971L9.02159 17.3787L9.42719 17.2539" stroke="#706B66" stroke-width="1.68" stroke-linecap="round"/>
<path d="M20.0952 6.77539C19.164 6.78019 18.4776 7.02019 18.2856 7.11859C17.9376 7.29859 17.3784 7.44019 17.3496 7.46179" stroke="#706B66" stroke-width="1.2" stroke-linecap="round"/>
<path d="M21.5275 9.95801L20.6251 10.3012L20.1883 10.5172L19.4707 10.7668" stroke="#706B66" stroke-width="1.2" stroke-linecap="round"/>
<path d="M16.3801 46.1045C16.4137 46.2557 15.3673 48.2285 15.2953 48.4253C15.0529 49.0757 14.5801 50.3309 14.5705 50.3885C14.5633 50.4365 14.2681 51.6509 14.2705 52.5605C14.2705 53.2541 14.2705 54.8525 14.2705 54.8213V54.4901" stroke="#402010" stroke-width="2.4" stroke-linecap="round"/>
<path d="M18.7341 44.2921C18.7629 43.9681 17.5845 45.6649 17.5581 45.7105C16.7541 47.1001 15.9333 48.2113 15.8373 48.3361C15.2013 49.1905 15.8589 54.8569 15.9597 55.2745C16.5165 57.5857 17.8965 60.1345 18.0093 60.3721C18.8397 62.1217 21.2397 63.9457 22.2645 65.5009C23.2173 66.9649 23.6853 69.1249 23.7429 69.1825L23.8029 69.6337" stroke="#402010" stroke-width="2.4" stroke-linecap="round"/>
<path d="M16.207 46.5239C16.2478 46.4183 19.279 43.2167 20.131 42.6935C21.091 42.0935 21.7774 41.8775 21.8326 41.8919L22.2574 41.7959" stroke="#402010" stroke-width="2.4" stroke-linecap="round"/>
<path d="M18.3335 49.9704V49.6896L18.1104 48.1272C18.1104 48.1272 19.2096 47.124 19.3368 47.0112C20.0472 46.3896 20.1647 46.3104 20.2871 46.1736L22.1304 45.168" stroke="#B87D47" stroke-width="2.4" stroke-linecap="round"/>
<path d="M18.1099 49.078C17.3443 48.7516 18.5851 47.5564 18.8899 46.6204C18.9355 46.4908 19.1875 46.1452 19.3363 46.006C19.4659 45.7444 20.0443 45.3556 20.2867 45.1132C20.5459 44.9164 21.0163 44.29 21.3475 44.1076C21.4579 44.0644 22.2355 43.594 22.5187 43.606L22.9099 43.3828" stroke="#B87D47" stroke-width="2.4" stroke-linecap="round"/>
<path d="M4.32712 7.23398C4.29592 6.96758 4.38952 6.68918 4.61752 6.50438C4.68472 6.45158 8.26552 4.25318 8.33272 4.17398C8.48152 4.01078 9.64312 3.57398 10.3007 3.37238C10.4783 3.31958 10.7375 3.08198 10.8839 2.93558C10.8983 2.92358 11.4455 2.85638 11.6855 2.71718C11.7095 2.70278 13.5023 1.95398 13.5791 1.84358L14.0903 1.55078" stroke="black" stroke-width="2.88" stroke-linecap="round"/>
<path d="M14.3809 1.98758C14.6041 1.95878 14.7961 1.74038 14.8897 1.69718C14.9449 1.67318 15.2329 1.70198 15.2545 1.69718" stroke="black" stroke-width="2.88" stroke-linecap="round"/>
<path d="M15.2539 1.69727L15.6307 2.45087" stroke="black" stroke-width="2.88" stroke-linecap="round" stroke-linejoin="round"/>
<path d="M3.74414 7.96094L4.14494 8.70494" stroke="black" stroke-width="2.88" stroke-linecap="round" stroke-linejoin="round"/>
<path d="M13.3604 22.5342L30.5227 52.8174" stroke="black" stroke-width="2.88" stroke-linecap="round" stroke-linejoin="round"/>
<path d="M22.6006 19.0127L37.2574 48.3215" stroke="black" stroke-width="2.88" stroke-linecap="round" stroke-linejoin="round"/>
<path d="M30.5547 52.7667C30.5883 52.7187 33.2355 51.1851 33.6867 51.0915C34.1619 50.9907 35.5371 50.1003 36.6003 49.7811C36.6555 49.7619 36.6771 49.6899 36.7467 49.6347L37.6203 49.4883" stroke="black" stroke-width="2.88" stroke-linecap="round"/>
<path d="M38.1308 48.0312L37.9844 49.1977" stroke="black" stroke-width="2.88" stroke-linecap="round"/>
<path d="M21.9577 40.4551C21.7177 40.8847 21.2041 41.3119 20.9377 41.5471C20.8753 41.6023 20.4289 41.7319 19.1881 42.6415C17.8441 43.6279 16.9801 44.4775 16.7113 44.8999C16.6849 44.9455 15.8281 46.0111 15.4009 46.7935C15.2641 47.0383 14.9089 47.7103 14.8897 47.7415C14.8273 47.8423 14.8345 48.2023 14.8177 48.3223C14.8057 48.4159 14.3593 49.0807 14.3089 49.1983C13.7905 50.3791 13.5697 51.2743 13.5073 51.5287C13.4665 51.6943 13.3657 54.0295 13.3609 54.2239C13.3465 54.8719 13.3921 55.1263 13.5721 55.5631" stroke="black" stroke-width="2.88" stroke-linecap="round"/>
<path d="M13.5067 55.0254C13.4683 56.283 14.0348 57.9582 14.09 58.2318C14.222 58.5294 15.0044 60.5718 15.11 61.1454C15.1388 61.311 15.2923 61.4502 15.3283 61.5102C15.4867 61.7718 15.5131 62.1726 15.5467 62.2374C15.7051 62.5566 16.5307 63.519 17.0755 64.2774C17.4451 64.7838 20.1907 66.9702 20.3539 67.5558C20.4283 67.8342 21.9331 69.6126 21.9571 69.6702C21.9835 69.7374 22.2043 70.3518 22.3219 70.3974C22.3843 70.419 22.3843 71.0286 22.3939 71.271C22.3963 71.3262 22.5403 71.6358 22.6123 71.8542C22.6363 71.9046 22.8547 73.0326 22.8427 73.539C22.8403 73.731 22.8355 73.9206 22.8307 74.1126" stroke="black" stroke-width="2.88" stroke-linecap="round"/>
<path d="M22.8316 73.0928C22.8316 73.8152 22.846 75.776 22.8316 75.8624C22.81 75.992 22.546 76.9904 22.5412 77.0288C22.5412 77.0288 22.4044 81.1688 22.3948 81.3992C22.3876 81.6008 22.534 81.9296 22.5412 81.9824C22.5724 82.2344 22.5316 83.0432 22.5412 83.0744C22.738 83.72 23.5996 85.7408 23.6332 85.844C24.6076 88.8464 25.846 90.8984 26.4028 91.5248C26.95 92.1392 27.6124 92.6336 27.6412 92.6912C27.8212 93.0728 28.8196 93.6872 28.9516 93.8576C29.0188 93.944 30.0892 95.2112 30.2644 95.3168" stroke="black" stroke-width="2.88" stroke-linecap="round"/>
<path d="M28.8047 93.4922C28.8431 93.5162 29.2319 93.9962 29.6807 94.2218C29.8007 94.289 30.5423 94.7954 30.6263 94.877C31.6175 95.8154 35.6111 97.241 35.9447 97.2794C36.0431 97.2914 37.5215 97.9898 38.4215 97.8626L38.5271 97.8962" stroke="black" stroke-width="2.88" stroke-linecap="round"/>
<path d="M37.4014 97.7189C37.507 97.8845 38.6254 97.8605 40.0414 97.8581C40.8718 97.8605 43.2022 97.8797 43.303 97.8629C43.5022 97.8317 45.3406 97.2821 45.343 97.2797C46.123 97.1501 46.3846 96.9677 47.383 96.9893L47.6758 96.8429L48.403 96.5525C48.4726 96.5693 49.5886 96.2549 49.6414 96.1877C49.7926 96.0149 51.3982 95.8637 51.463 95.8229C51.6118 95.7293 51.7342 95.5901 51.8998 95.5325C52.015 95.4917 52.8574 95.3549 53.3566 95.1677C54.1486 94.8845 55.2742 94.5053 55.3246 94.4405C55.5166 94.2317 57.0454 93.7517 57.0718 93.7109" stroke="black" stroke-width="2.88" stroke-linecap="round"/>
<path d="M57.2588 93.5594L57.3644 93.4922" stroke="black" stroke-width="2.88" stroke-linecap="round"/>
<path d="M21.958 41.0381H22.03L22.6876 41.1845" stroke="black" stroke-width="2.88" stroke-linecap="round"/>
<path d="M32.4482 36.8113V36.7393C32.5778 36.5641 35.6666 35.7217 36.0194 35.6473C36.6938 35.5105 41.2202 35.4889 41.2634 35.5009C42.1394 35.7577 44.033 36.5209 44.105 36.5209C44.3498 36.5233 44.4746 36.6721 44.7602 36.8857C44.8154 36.9265 45.8378 37.7665 45.9986 37.8313C46.2218 37.9225 47.1506 38.5417 47.6018 38.9977C48.4322 39.8233 49.4306 41.1289 49.6418 41.4025C50.5874 42.6193 51.041 43.6249 51.3914 44.4625C51.6386 44.9569 51.7466 45.7177 51.8282 45.8449C52.1042 46.2937 52.1234 46.5769 52.1186 46.8649" stroke="black" stroke-width="2.88" stroke-linecap="round"/>
<path d="M52.2646 47.5947C52.3558 47.6955 52.9127 48.8859 52.9199 48.9051C52.9967 49.1019 52.9846 50.1867 52.9918 50.2179C52.9942 50.2227 53.3038 50.6043 53.2846 50.8011C53.2246 51.4755 53.5943 51.8307 53.5751 52.1835C53.5727 52.2267 53.5727 52.2747 53.5751 52.3299C53.7071 52.4235 53.7263 52.8675 53.9399 53.2035C53.9615 53.2347 53.9854 53.3067 54.0118 53.4219" stroke="black" stroke-width="2.88" stroke-linecap="round"/>
<path d="M54.1582 52.6943H54.2326C54.6622 53.4719 55.6078 54.9623 55.6894 55.0247C56.4814 55.6487 56.7286 55.9631 57.2182 56.1191C57.595 56.2367 58.8718 57.3383 60.3502 58.0847C61.5526 58.6895 62.131 59.3903 62.9014 60.0527C63.1582 60.2543 64.1062 61.0007 65.1598 61.8743C66.0166 62.5847 67.075 64.0847 67.1254 64.3511C67.1278 64.3535 67.6198 65.0015 67.5646 65.1527L68.0014 65.5895C68.2702 66.4871 69.2902 68.9279 69.6766 69.8135C69.7462 69.9743 69.727 70.6415 69.7486 70.9079C69.775 71.2559 70.0174 71.9207 70.0414 72.0719C70.051 72.1439 70.0366 76.3175 70.0366 77.1191" stroke="black" stroke-width="2.88" stroke-linecap="round"/>
<path d="M69.2402 81.7637L68.585 82.9277" stroke="black" stroke-width="2.88" stroke-linecap="round"/>
<path d="M55.7617 93.9295L55.9801 93.6391C56.1817 93.6607 56.5081 93.5167 56.6353 93.4927C56.7769 93.4663 58.2409 92.7463 58.4809 92.7295" stroke="black" stroke-width="2.88" stroke-linecap="round"/>
<path d="M51.6816 95.2397C51.9192 95.2325 52.4688 95.2685 52.5552 95.2397C52.884 95.0957 54.624 94.4477 54.8136 94.3661C55.0728 94.2557 55.5984 94.0349 56.4168 93.7829C56.688 93.6989 58.3584 92.6669 58.6032 92.6189C58.6512 92.6093 58.788 92.6093 58.8936 92.5445C59.0112 92.4173 60.4704 91.5389 60.4968 91.5245C60.7728 91.3829 61.632 90.6461 61.9536 90.5789C62.2488 90.5189 62.5824 90.1661 62.6088 90.0677C64.3872 89.1437 64.7952 88.4645 65.8152 87.4445L66.6168 86.4245C66.6816 86.3141 66.8376 85.5605 67.7832 84.5309C67.9824 84.3125 68.2968 83.6885 68.292 83.5109C68.2872 83.2997 68.7504 81.9749 68.7288 81.7637" stroke="black" stroke-width="2.88" stroke-linecap="round"/>
<path d="M69.48 78.3125L69.1104 80.7797" stroke="black" stroke-width="2.88" stroke-linecap="round"/>
<path d="M69.3572 78.3125C69.362 79.0109 69.374 80.5205 69.2324 80.9021C69.0164 81.3053 68.5316 82.0805 68.4932 82.3829" stroke="black" stroke-width="2.88" stroke-linecap="round"/>
<path d="M3.50399 9.31249C3.32159 9.17089 3.01919 9.31009 2.98319 9.31249C2.58239 9.34129 2.13359 9.74209 2.04239 9.78289C1.93679 9.83809 1.94639 11.3933 1.98959 11.5061C2.10239 11.7821 2.67119 13.2653 2.82479 13.5437C3.16319 14.1461 3.81599 15.0653 3.87119 15.1613C3.93599 15.2765 5.35679 17.8853 5.38559 17.9309C5.64239 18.3341 5.70239 18.7349 5.75039 18.9245C5.78159 19.0373 6.69359 20.6717 6.74399 20.8565C6.81599 21.1205 6.95519 21.3773 6.95279 21.4829C7.44959 22.4957 7.78319 22.7789 7.84079 22.7885C7.92239 22.8005 9.88559 22.7885 10.2432 22.7885C11.0088 22.0277 11.8752 21.7373 12.0192 21.7445L12.384 21.6389" stroke="black" stroke-width="2.88" stroke-linecap="round"/>
<path d="M15.3096 2.10254L15.5 2.5L16.1976 3.04334L16.6152 3.35774L18.1824 3.36014" stroke="black" stroke-width="2.88" stroke-linecap="round"/>
<path d="M23.666 13.4912L23.7812 14.7368" stroke="black" stroke-width="2.88" stroke-linecap="round"/>
<path d="M23.6163 15.1104L23.5635 15.2136" stroke="black" stroke-width="2.88" stroke-linecap="round"/>
<path d="M23.3017 15.3721L22.7881 15.5017" stroke="black" stroke-width="2.88" stroke-linecap="round"/>
<path d="M23.417 13.0225L23.5106 13.1257C23.657 13.3585 23.8658 13.6297 23.8778 13.6993C23.9042 13.8889 23.8802 14.3737 23.9282 14.4313" stroke="black" stroke-width="2.88" stroke-linecap="round"/>
<path d="M23.4984 15.0967L23.4072 15.1615" stroke="black" stroke-width="2.88" stroke-linecap="round"/>
<path d="M23.3013 15.2139L21.4725 16.4691L21.2637 16.7283" stroke="black" stroke-width="2.88" stroke-linecap="round"/>
<path d="M19.1758 3.46094L19.6462 4.45454" stroke="black" stroke-width="2.88" stroke-linecap="round"/>
<path d="M23.4189 13.5508L23.5101 13.6996L23.6661 13.9084" stroke="black" stroke-width="2.88" stroke-linecap="round"/>
<path d="M23.1312 16.2148L22.6992 16.4548" stroke="black" stroke-width="2.88" stroke-linecap="round"/>
<path d="M20.0068 4.00391C20.0092 4.15271 20.83 5.83271 21.058 6.33671C21.106 6.46631 21.6196 8.37671 22.2916 9.62951C22.9156 10.7863 24.0652 14.3959 24.0868 14.4487" stroke="black" stroke-width="2.88" stroke-linecap="round"/>
<path d="M22.1757 17.2061L22.6365 18.7637L22.0605 17.8973" stroke="black" stroke-width="2.88" stroke-linecap="round"/>
<path d="M43.6582 78.7709C44.6398 78.2093 47.7478 76.9133 48.895 76.3949C50.035 75.9413 51.1582 75.7253 51.235 75.6869C52.9102 74.7821 55.1158 73.6205 55.2574 73.6757L55.3246 74.9501C55.0822 75.1469 54.0214 75.5309 53.5798 75.5525C52.7566 75.5933 52.351 75.8069 51.5038 76.0229C51.3478 76.0613 49.8358 76.6421 49.6918 76.7597C49.6174 76.8221 45.1126 78.0581 45.067 78.1013L44.6638 78.2357L43.7926 78.8381L44.7982 79.4429L45.067 79.5101L45.3358 79.8437C45.391 79.7525 45.7678 79.1093 46.0726 78.9725C46.9774 78.5837 49.6342 78.0029 51.235 77.3645C52.3366 76.9973 53.3134 76.3253 53.7814 76.0229C53.8174 75.9965 54.0142 75.7085 54.0502 75.6869C53.6326 75.7421 52.3462 76.4309 51.7366 76.6109C51.1366 76.7885 49.7926 77.1293 49.291 77.2973C48.6406 77.4605 48.1246 77.7701 47.9494 77.8997C47.8846 77.9477 46.3654 78.4853 46.2742 78.5045C46.1638 78.5261 45.8734 78.5189 45.7366 78.6365C45.5398 78.6149 45.3814 78.6677 45.2014 78.8381C45.0574 78.9749 44.0662 79.1069 44.0614 79.2413C44.0542 79.6901 44.0734 79.8821 44.1286 79.9781C44.7526 79.9997 45.031 79.9661 45.5374 79.7765C45.7822 79.6853 46.5286 79.3085 46.675 79.2413C46.8142 79.1765 47.2606 79.1981 47.347 79.1741C47.3926 79.1597 48.9982 78.5429 49.0894 78.5045C49.1806 78.4637 49.4038 78.3533 49.4926 78.3701C50.059 78.1565 51.1966 77.2613 51.8374 77.0285C52.2286 76.8893 52.7278 76.6085 53.1118 76.4933C53.8558 76.2701 55.1902 75.4877 55.2574 75.4205C55.3582 75.3845 55.5982 74.7605 55.7926 74.6813L55.6582 74.0117C55.9246 73.9421 56.0662 73.9493 56.1958 74.0789C56.2942 74.1797 56.551 75.1349 56.4646 75.2861C56.059 75.1637 55.2286 75.9149 55.1902 75.9557" stroke="#4B2513" stroke-width="1.2" stroke-linecap="round"/>
<path d="M55.6563 71.7656C55.6923 72.2624 55.7835 72.5456 56.0331 72.8192C56.4651 73.2872 57.2859 74.1848 57.6747 74.612C57.8043 74.7584 58.5363 76.2728 58.5867 76.436C58.6947 76.7984 59.0259 77.312 58.9827 77.3864H58.5075C58.5051 76.6904 58.5219 75.1448 58.5075 75.092C58.3683 74.6408 58.0179 73.8368 58.0323 73.5872L57.6363 73.508L57.4779 73.2704C57.3867 74.096 57.4155 75.5768 57.3195 75.5648C57.3147 75.5648 56.7315 76.2872 56.6859 76.3568C56.5803 76.5224 55.6491 77 55.4979 77.0696C55.3587 77.1344 55.0227 77.3384 54.8643 77.3072" stroke="#B87D47" stroke-width="1.2" stroke-linecap="round"/>
<path d="M47.8561 78.8567L8.12891 6.76074" stroke="#D7D7D7" stroke-width="0.72" stroke-linecap="round" stroke-linejoin="round"/>
<path d="M50.1117 78.6101L9.97168 5.48926" stroke="#D7D7D7" stroke-width="0.72" stroke-linecap="round" stroke-linejoin="round"/>
<path d="M51.7559 77.3188L12.6719 4.66602" stroke="#D7D7D7" stroke-width="0.72" stroke-linecap="round" stroke-linejoin="round"/>
<path d="M53.8584 71.6816C54.684 72.1016 57.408 74.588 58.5072 75.0224L58.7688 75.3896L58.8744 75.8072V76.172" stroke="#B87D47" stroke-width="2.4" stroke-linecap="round"/>
<path d="M53.9639 72.4112C54.1847 72.404 55.0415 73.1624 55.2695 73.352C55.5479 73.5848 56.2391 74.0936 56.6255 74.576C56.8079 74.8256 57.1535 75.3272 57.2015 75.3896C57.3503 75.5816 57.4367 75.9032 57.6191 76.172" stroke="#B87D47" stroke-width="2.4" stroke-linecap="round"/>
<path d="M56.993 74.71V76.1212L56.7842 76.5388V76.3804" stroke="#B87D47" stroke-width="2.4" stroke-linecap="round"/>
<path d="M55.5308 72.6191C55.5092 73.2167 56.1884 74.1719 56.21 74.2391C56.654 74.4623 57.0116 75.3095 57.2012 75.7535" stroke="#B87D47" stroke-width="2.4" stroke-linecap="round"/>
<path d="M55.4258 73.1426L56.4722 75.389L56.5754 75.4418" stroke="#B87D47" stroke-width="2.4" stroke-linecap="round"/>
<path d="M42.7852 79.2031L44.1964 81.4495L44.458 81.7615L45.0844 82.4407" stroke="#B87D47" stroke-width="2.4" stroke-linecap="round"/>
<path d="M57.3072 77.4268C56.8728 77.422 56.4384 77.4292 56.4192 77.4268C56.3496 77.4124 55.8024 77.1052 55.5312 77.1124" stroke="#B87D47" stroke-width="2.4" stroke-linecap="round"/>
<path d="M41.8438 77.0088C42.1245 77.016 42.3909 77.3712 42.4725 77.7384C42.4821 77.7912 42.5997 78.12 42.6285 78.2088L43.2022 78.888" stroke="#B87D47" stroke-width="2.4" stroke-linecap="round"/>
</svg>
