<svg width="8" height="8" viewBox="0 0 8 8" fill="none" xmlns="http://www.w3.org/2000/svg">
<path d="M4 4L3.64645 4.35355L4 4.70711L4.35355 4.35355L4 4ZM0.978553 0.271447C0.783291 0.0761852 0.466708 0.0761852 0.271446 0.271447C0.076184 0.466709 0.076184 0.783292 0.271446 0.978554L0.978553 0.271447ZM7.72855 0.978553C7.92382 0.783291 7.92382 0.466709 7.72855 0.271447C7.53329 0.0761845 7.21671 0.0761845 7.02145 0.271447L7.72855 0.978553ZM4.35355 3.64645L0.978553 0.271447L0.271446 0.978554L3.64645 4.35355L4.35355 3.64645ZM7.02145 0.271447L3.64645 3.64645L4.35355 4.35355L7.72855 0.978553L7.02145 0.271447Z" fill="#F1F3F5"/>
<path d="M4 4L4.35355 3.64645L4 3.29289L3.64645 3.64645L4 4ZM7.02145 7.72855C7.21671 7.92382 7.53329 7.92382 7.72855 7.72855C7.92382 7.53329 7.92382 7.21671 7.72855 7.02145L7.02145 7.72855ZM0.271447 7.02145C0.0761845 7.21671 0.0761845 7.53329 0.271447 7.72855C0.466709 7.92382 0.783291 7.92382 0.978553 7.72855L0.271447 7.02145ZM3.64645 4.35355L7.02145 7.72855L7.72855 7.02145L4.35355 3.64645L3.64645 4.35355ZM0.978553 7.72855L4.35355 4.35355L3.64645 3.64645L0.271447 7.02145L0.978553 7.72855Z" fill="#F1F3F5"/>
</svg>
