<svg width="17" height="22" viewBox="0 0 17 22" fill="none" xmlns="http://www.w3.org/2000/svg">
<path d="M8.5 1L9.27396 0.366762C9.08403 0.134627 8.79993 0 8.5 0C8.20007 0 7.91597 0.134627 7.72604 0.366762L8.5 1ZM15.226 10.7999C15.5758 11.2274 16.2058 11.2904 16.6332 10.9406C17.0607 10.5909 17.1237 9.96088 16.774 9.53343L15.226 10.7999ZM0.226043 9.53343C-0.123685 9.96087 -0.0606825 10.5909 0.366762 10.9406C0.794207 11.2904 1.42423 11.2274 1.77396 10.7999L0.226043 9.53343ZM7.72604 1.63324L15.226 10.7999L16.774 9.53343L9.27396 0.366762L7.72604 1.63324ZM1.77396 10.7999L9.27396 1.63324L7.72604 0.366762L0.226043 9.53343L1.77396 10.7999Z" fill="#CED4DA"/>
<path d="M8.5 1V21" stroke="#CED4DA" stroke-width="2" stroke-linecap="round"/>
</svg>
