<svg width="48" height="48" viewBox="0 0 48 48" fill="none" xmlns="http://www.w3.org/2000/svg">
<path d="M33 21C33 20.4477 32.5523 20 32 20C31.4477 20 31 20.4477 31 21H33ZM32 30V31C32.5523 31 33 30.5523 33 30H32ZM16 30H15C15 30.5523 15.4477 31 16 31V30ZM17 21C17 20.4477 16.5523 20 16 20C15.4477 20 15 20.4477 15 21L17 21ZM31 21V30H33V21H31ZM32 29H16V31H32V29ZM17 30V21L15 21V30H17Z" fill="#EF586A"/>
<path d="M12.4118 18.1913C11.9652 18.5161 11.8664 19.1415 12.1913 19.5882C12.5161 20.0348 13.1415 20.1336 13.5882 19.8087L12.4118 18.1913ZM24 11L24.5882 10.1913C24.2375 9.93625 23.7625 9.93625 23.4118 10.1913L24 11ZM34.4118 19.8087C34.8585 20.1336 35.4839 20.0348 35.8087 19.5882C36.1336 19.1415 36.0348 18.5161 35.5882 18.1913L34.4118 19.8087ZM13.5882 19.8087L24.5882 11.8087L23.4118 10.1913L12.4118 18.1913L13.5882 19.8087ZM23.4118 11.8087L34.4118 19.8087L35.5882 18.1913L24.5882 10.1913L23.4118 11.8087Z" fill="#EF586A"/>
</svg>
