<svg width="48" height="48" viewBox="0 0 48 48" fill="none" xmlns="http://www.w3.org/2000/svg">
<path d="M15 26C14.4477 26 14 26.4477 14 27C14 27.5523 14.4477 28 15 28V26ZM33 28C33.5523 28 34 27.5523 34 27C34 26.4477 33.5523 26 33 26V28ZM15 28H33V26H15V28Z" fill="#212529"/>
<path d="M15 12C14.4477 12 14 12.4477 14 13C14 13.5523 14.4477 14 15 14V12ZM33 14C33.5523 14 34 13.5523 34 13C34 12.4477 33.5523 12 33 12V14ZM15 14H33V12H15V14Z" fill="#212529"/>
<path d="M15 19C14.4477 19 14 19.4477 14 20C14 20.5523 14.4477 21 15 21V19ZM33 21C33.5523 21 34 20.5523 34 20C34 19.4477 33.5523 19 33 19V21ZM15 21H33V19H15V21Z" fill="#212529"/>
</svg>
