<svg width="23" height="18" viewBox="0 0 23 18" fill="none" xmlns="http://www.w3.org/2000/svg">
<g clip-path="url(#clip0_36_446)">
<path d="M22.119 8.06596C22.2169 7.77088 22.3148 7.57416 22.3148 7.27907C22.3148 7.18071 22.3148 7.08235 22.4127 6.98399C22.5105 6.68891 22.5105 6.39383 22.5105 6.00038C22.5105 2.9512 20.0637 0.492188 17.0297 0.492188C13.9956 0.492188 11.5488 2.9512 11.5488 6.00038C11.5488 2.9512 9.10202 0.492188 6.06798 0.492188C2.93607 0.492188 0.489258 2.9512 0.489258 6.00038V6.09875C0.489258 6.39383 0.489258 6.59055 0.58713 6.88563C0.58713 7.08235 0.685002 7.18071 0.685002 7.37743C0.782875 7.57416 0.782875 7.77088 0.880747 7.9676C0.880747 8.06596 0.97862 8.16432 0.97862 8.26268C3.03394 13.3774 11.5488 17.5086 11.5488 17.5086C11.5488 17.5086 20.0637 13.3774 22.119 8.26268C22.119 8.16432 22.119 8.06596 22.119 8.06596Z" stroke="black" stroke-width="2" stroke-miterlimit="10"/>
</g>
<defs>
<clipPath id="clip0_36_446">
<rect width="23" height="18" fill="white"/>
</clipPath>
</defs>
</svg>
