<svg width="21" height="20" viewBox="0 0 21 20" fill="none" xmlns="http://www.w3.org/2000/svg">
<g clip-path="url(#clip0_36_434)">
<path d="M4.7 1C6.8 1 8.4 2.7 8.4 4.7C8.4 6.7 6.8 8.5 4.7 8.5C2.6 8.5 1 6.8 1 4.7C1 2.6 2.7 1 4.7 1ZM4.7 0C2.1 0 0 2.1 0 4.7C0 7.3 2.1 9.4 4.7 9.4C7.3 9.4 9.4 7.3 9.4 4.7C9.5 2.1 7.4 0 4.7 0Z" fill="black"/>
<path d="M15.4998 1C17.5998 1 19.1998 2.7 19.1998 4.7C19.1998 6.7 17.4998 8.4 15.4998 8.4C13.4998 8.4 11.7998 6.7 11.7998 4.7C11.7998 2.7 13.4998 1 15.4998 1ZM15.4998 0C12.8998 0 10.7998 2.1 10.7998 4.7C10.7998 7.3 12.8998 9.4 15.4998 9.4C18.0998 9.4 20.1998 7.3 20.1998 4.7C20.2998 2.1 18.1998 0 15.4998 0Z" fill="black"/>
<path d="M4.7 11.5996C6.8 11.5996 8.4 13.2996 8.4 15.2996C8.4 17.2996 6.8 18.9996 4.7 18.9996C2.6 18.9996 1 17.3996 1 15.2996C1 13.1996 2.7 11.5996 4.7 11.5996ZM4.7 10.5996C2.1 10.5996 0 12.6996 0 15.2996C0 17.8996 2.1 19.9996 4.7 19.9996C7.3 19.9996 9.4 17.8996 9.4 15.2996C9.5 12.6996 7.4 10.5996 4.7 10.5996Z" fill="black"/>
<mask id="path-4-inside-1_36_434" fill="white">
<path d="M15.4998 11.5996C17.5998 11.5996 19.1998 13.2996 19.1998 15.2996C19.1998 17.2996 17.5998 18.9996 15.4998 18.9996C13.3998 18.9996 11.7998 17.2996 11.7998 15.2996C11.7998 13.2996 13.4998 11.5996 15.4998 11.5996ZM15.4998 10.5996C12.8998 10.5996 10.7998 12.6996 10.7998 15.2996C10.7998 17.8996 12.8998 19.9996 15.4998 19.9996C18.0998 19.9996 20.1998 17.8996 20.1998 15.2996C20.2998 12.6996 18.1998 10.5996 15.4998 10.5996Z"/>
</mask>
<path d="M15.4998 11.5996C17.5998 11.5996 19.1998 13.2996 19.1998 15.2996C19.1998 17.2996 17.5998 18.9996 15.4998 18.9996C13.3998 18.9996 11.7998 17.2996 11.7998 15.2996C11.7998 13.2996 13.4998 11.5996 15.4998 11.5996ZM15.4998 10.5996C12.8998 10.5996 10.7998 12.6996 10.7998 15.2996C10.7998 17.8996 12.8998 19.9996 15.4998 19.9996C18.0998 19.9996 20.1998 17.8996 20.1998 15.2996C20.2998 12.6996 18.1998 10.5996 15.4998 10.5996Z" fill="black"/>
<path d="M20.1998 15.2996L18.2013 15.2227L18.1998 15.2612V15.2996H20.1998ZM15.4998 13.5996C16.4602 13.5996 17.1998 14.3688 17.1998 15.2996H21.1998C21.1998 12.2304 18.7395 9.59961 15.4998 9.59961V13.5996ZM17.1998 15.2996C17.1998 16.2304 16.4602 16.9996 15.4998 16.9996V20.9996C18.7395 20.9996 21.1998 18.3688 21.1998 15.2996H17.1998ZM15.4998 16.9996C14.5395 16.9996 13.7998 16.2304 13.7998 15.2996H9.7998C9.7998 18.3688 12.2602 20.9996 15.4998 20.9996V16.9996ZM13.7998 15.2996C13.7998 14.4042 14.6044 13.5996 15.4998 13.5996V9.59961C12.3952 9.59961 9.7998 12.195 9.7998 15.2996H13.7998ZM15.4998 8.59961C11.7952 8.59961 8.7998 11.595 8.7998 15.2996H12.7998C12.7998 13.8042 14.0044 12.5996 15.4998 12.5996V8.59961ZM8.7998 15.2996C8.7998 19.0042 11.7952 21.9996 15.4998 21.9996V17.9996C14.0044 17.9996 12.7998 16.795 12.7998 15.2996H8.7998ZM15.4998 21.9996C19.2044 21.9996 22.1998 19.0042 22.1998 15.2996H18.1998C18.1998 16.795 16.9952 17.9996 15.4998 17.9996V21.9996ZM22.1983 15.3765C22.3448 11.5694 19.2599 8.59961 15.4998 8.59961V12.5996C17.1397 12.5996 18.2549 13.8298 18.2013 15.2227L22.1983 15.3765Z" fill="black" mask="url(#path-4-inside-1_36_434)"/>
</g>
<defs>
<clipPath id="clip0_36_434">
<rect width="20.3" height="20" fill="white"/>
</clipPath>
</defs>
</svg>
