<svg width="48" height="48" viewBox="0 0 48 48" fill="none" xmlns="http://www.w3.org/2000/svg">
<path d="M23.0484 27.6302C27.2285 27.6302 30.6172 24.2386 30.6172 20.0548C30.6172 15.8711 27.2285 12.4795 23.0484 12.4795C18.8682 12.4795 15.4795 15.8711 15.4795 20.0548C15.4795 24.2386 18.8682 27.6302 23.0484 27.6302Z" stroke="#212529" stroke-width="2" stroke-miterlimit="10"/>
<path d="M28.8718 28.5101C28.6012 28.0286 27.9915 27.8577 27.5101 28.1282C27.0286 28.3988 26.8577 29.0085 27.1282 29.4899L28.8718 28.5101ZM28.9786 33.2978C29.2492 33.7792 29.8589 33.9502 30.3403 33.6796C30.8218 33.409 30.9927 32.7993 30.7221 32.3179L28.9786 33.2978ZM27.1282 29.4899C27.5329 30.21 27.7632 30.739 28.0081 31.3025C28.2572 31.8758 28.521 32.4835 28.9786 33.2978L30.7221 32.3179C30.3175 31.5979 30.0872 31.0689 29.8423 30.5053C29.5932 29.9321 29.3294 29.3243 28.8718 28.5101L27.1282 29.4899Z" fill="#212529"/>
</svg>
