<svg width="48" height="48" viewBox="0 0 48 48" fill="none" xmlns="http://www.w3.org/2000/svg">
<path d="M33.6444 19.0116L32.6827 18.7377L32.6444 18.8719V19.0116H33.6444ZM33.9111 17.8671L34.6714 18.5166L34.8131 18.3507L34.8729 18.1409L33.9111 17.8671ZM23.0444 16C23.0444 16.5523 23.4922 17 24.0444 17C24.5967 17 25.0444 16.5523 25.0444 16H23.0444ZM14.0889 17.763H15.0889V17.6234L15.0507 17.4891L14.0889 17.763ZM14.1778 18.2832H13.1778V18.4879L13.2582 18.6761L14.1778 18.2832ZM14.3556 18.9075H15.3556V18.7029L15.2752 18.5147L14.3556 18.9075ZM14.4444 19.2197H13.4444V19.3873L13.4991 19.5458L14.4444 19.2197ZM24.0444 29L23.5525 29.8706L24.0444 30.1486L24.5364 29.8706L24.0444 29ZM33.6444 19.2197L34.5898 19.5458L34.6444 19.3873V19.2197H33.6444ZM34.6062 19.2854C34.6626 19.0875 34.8222 18.6741 34.8222 18.1792H32.8222C32.8222 18.2314 32.8162 18.276 32.798 18.3471C32.7874 18.3884 32.7738 18.4347 32.7533 18.5019C32.7342 18.5642 32.7082 18.6481 32.6827 18.7377L34.6062 19.2854ZM34.8222 18.1792C34.8222 18.1488 34.8225 18.1494 34.8222 18.1545C34.8217 18.163 34.8198 18.1919 34.8113 18.232C34.8023 18.2739 34.7869 18.3245 34.761 18.3782C34.7351 18.4323 34.7038 18.4787 34.6714 18.5166L33.1508 17.2175C32.8011 17.6268 32.8222 18.079 32.8222 18.1792H34.8222ZM34.8729 18.1409C35.007 17.6699 35 17.2113 35 16.8266H33C33 17.2742 32.993 17.4399 32.9493 17.5932L34.8729 18.1409ZM35 16.8266C35 13.2023 32.472 10 29.0222 10V12C31.0836 12 33 14 33 16.8266H35ZM29.0222 10C27.4322 10 25.929 10.5138 24.8147 11.5622C23.6905 12.6199 23.0444 14.1453 23.0444 16H25.0444C25.0444 14.6293 25.5095 13.6546 26.1853 13.0188C26.871 12.3735 27.8567 12 29.0222 12V10ZM25.0444 16C25.0444 14.1453 24.3984 12.6199 23.2742 11.5622C22.1599 10.5138 20.6567 10 19.0667 10V12C20.2322 12 21.2179 12.3735 21.9036 13.0188C22.5794 13.6546 23.0444 14.6293 23.0444 16H25.0444ZM19.0667 10C15.5386 10 13 13.1901 13 16.8266H15C15 14.0122 16.9059 12 19.0667 12V10ZM13 16.8266V16.9306H15V16.8266H13ZM13 16.9306C13 17.2496 12.9969 17.5797 13.1271 18.0369L15.0507 17.4891C15.0031 17.322 15 17.2359 15 16.9306H13ZM13.0889 17.763C13.0889 18.0199 13.1487 18.2168 13.1716 18.297C13.1932 18.3729 13.1778 18.332 13.1778 18.2832H15.1778C15.1778 18.0264 15.1179 17.8295 15.0951 17.7492C15.0735 17.6734 15.0889 17.7142 15.0889 17.763H13.0889ZM13.2582 18.6761C13.2567 18.6726 13.259 18.6771 13.2644 18.6972C13.2707 18.7209 13.2768 18.7483 13.2887 18.8042C13.3084 18.8965 13.3477 19.0937 13.4359 19.3003L15.2752 18.5147C15.2766 18.5181 15.2743 18.5136 15.2689 18.4935C15.2626 18.4699 15.2566 18.4424 15.2446 18.3865C15.2249 18.2943 15.1857 18.0971 15.0974 17.8904L13.2582 18.6761ZM13.3556 18.9075C13.3556 19.0734 13.3906 19.2079 13.4171 19.2906C13.4423 19.3691 13.4728 19.4387 13.4804 19.4564C13.4951 19.4908 13.4867 19.4732 13.4782 19.4467C13.4684 19.4159 13.4444 19.3335 13.4444 19.2197H15.4444C15.4444 19.0538 15.4094 18.9193 15.3829 18.8365C15.3577 18.7581 15.3272 18.6884 15.3196 18.6708C15.3049 18.6364 15.3133 18.654 15.3218 18.6805C15.3316 18.7112 15.3556 18.7937 15.3556 18.9075H13.3556ZM13.4991 19.5458C14.5278 22.5272 17.1155 25.1202 19.3121 26.9134C20.4288 27.825 21.4834 28.5609 22.2588 29.0691C22.6471 29.3235 22.9668 29.5218 23.1911 29.6574C23.3033 29.7252 23.3917 29.7775 23.453 29.8132C23.4837 29.8311 23.5076 29.8449 23.5243 29.8545C23.5327 29.8593 23.5392 29.8631 23.5439 29.8658C23.5463 29.8671 23.5482 29.8682 23.5496 29.869C23.5503 29.8694 23.5509 29.8697 23.5514 29.87C23.5516 29.8701 23.5519 29.8703 23.552 29.8704C23.5523 29.8705 23.5525 29.8706 24.0444 29C24.5364 28.1294 24.5366 28.1295 24.5367 28.1295C24.5367 28.1295 24.5368 28.1296 24.5368 28.1296C24.5368 28.1296 24.5367 28.1295 24.5365 28.1294C24.536 28.1292 24.5351 28.1286 24.5337 28.1279C24.531 28.1263 24.5264 28.1237 24.5201 28.1201C24.5074 28.1128 24.4877 28.1014 24.4612 28.086C24.4084 28.0551 24.3288 28.0081 24.2259 27.9459C24.02 27.8214 23.721 27.636 23.3551 27.3963C22.6222 26.916 21.6268 26.2212 20.5768 25.3641C18.4401 23.6197 16.2278 21.3225 15.3898 18.8935L13.4991 19.5458ZM24.0444 29C24.5364 29.8706 24.5366 29.8705 24.5369 29.8704C24.537 29.8703 24.5373 29.8701 24.5375 29.87C24.538 29.8697 24.5386 29.8694 24.5393 29.869C24.5407 29.8682 24.5426 29.8671 24.545 29.8658C24.5497 29.8631 24.5562 29.8593 24.5646 29.8545C24.5813 29.8449 24.6052 29.8311 24.6359 29.8132C24.6972 29.7775 24.7856 29.7252 24.8978 29.6574C25.1221 29.5218 25.4418 29.3235 25.8301 29.0691C26.6055 28.5609 27.6601 27.825 28.7768 26.9134C30.9734 25.1202 33.5611 22.5272 34.5898 19.5458L32.6991 18.8935C31.8611 21.3225 29.6488 23.6197 27.5121 25.3641C26.4621 26.2212 25.4667 26.916 24.7338 27.3963C24.3679 27.636 24.0689 27.8214 23.863 27.9459C23.7601 28.0081 23.6805 28.0551 23.6276 28.086C23.6012 28.1014 23.5815 28.1128 23.5688 28.1201C23.5625 28.1237 23.5579 28.1263 23.5552 28.1279C23.5538 28.1286 23.5529 28.1292 23.5524 28.1294C23.5522 28.1295 23.5521 28.1296 23.5521 28.1296C23.5521 28.1296 23.5522 28.1295 23.5522 28.1295C23.5523 28.1295 23.5525 28.1294 24.0444 29ZM34.6444 19.2197C34.6444 19.2194 34.6444 19.2192 34.6444 19.219C34.6444 19.2188 34.6444 19.2186 34.6444 19.2184C34.6444 19.2182 34.6444 19.218 34.6444 19.2178C34.6444 19.2176 34.6444 19.2174 34.6444 19.2172C34.6444 19.217 34.6444 19.2168 34.6444 19.2166C34.6444 19.2164 34.6444 19.2162 34.6444 19.216C34.6444 19.2158 34.6444 19.2156 34.6444 19.2154C34.6444 19.2152 34.6444 19.215 34.6444 19.2148C34.6444 19.2146 34.6444 19.2144 34.6444 19.2142C34.6444 19.214 34.6444 19.2138 34.6444 19.2136C34.6444 19.2134 34.6444 19.2132 34.6444 19.2129C34.6444 19.2127 34.6444 19.2125 34.6444 19.2123C34.6444 19.2121 34.6444 19.2119 34.6444 19.2117C34.6444 19.2115 34.6444 19.2113 34.6444 19.2111C34.6444 19.2109 34.6444 19.2107 34.6444 19.2105C34.6444 19.2103 34.6444 19.2101 34.6444 19.2099C34.6444 19.2097 34.6444 19.2095 34.6444 19.2093C34.6444 19.2091 34.6444 19.2089 34.6444 19.2087C34.6444 19.2085 34.6444 19.2083 34.6444 19.2081C34.6444 19.2079 34.6444 19.2077 34.6444 19.2075C34.6444 19.2073 34.6444 19.2071 34.6444 19.2069C34.6444 19.2067 34.6444 19.2065 34.6444 19.2062C34.6444 19.206 34.6444 19.2058 34.6444 19.2056C34.6444 19.2054 34.6444 19.2052 34.6444 19.205C34.6444 19.2048 34.6444 19.2046 34.6444 19.2044C34.6444 19.2042 34.6444 19.204 34.6444 19.2038C34.6444 19.2036 34.6444 19.2034 34.6444 19.2032C34.6444 19.203 34.6444 19.2028 34.6444 19.2026C34.6444 19.2024 34.6444 19.2022 34.6444 19.202C34.6444 19.2018 34.6444 19.2016 34.6444 19.2014C34.6444 19.2012 34.6444 19.201 34.6444 19.2008C34.6444 19.2006 34.6444 19.2004 34.6444 19.2002C34.6444 19.2 34.6444 19.1998 34.6444 19.1996C34.6444 19.1994 34.6444 19.1992 34.6444 19.199C34.6444 19.1988 34.6444 19.1986 34.6444 19.1983C34.6444 19.1981 34.6444 19.1979 34.6444 19.1977C34.6444 19.1975 34.6444 19.1973 34.6444 19.1971C34.6444 19.1969 34.6444 19.1967 34.6444 19.1965C34.6444 19.1963 34.6444 19.1961 34.6444 19.1959C34.6444 19.1957 34.6444 19.1955 34.6444 19.1953C34.6444 19.1951 34.6444 19.1949 34.6444 19.1947C34.6444 19.1945 34.6444 19.1943 34.6444 19.1941C34.6444 19.1939 34.6444 19.1937 34.6444 19.1935C34.6444 19.1933 34.6444 19.1931 34.6444 19.1929C34.6444 19.1927 34.6444 19.1925 34.6444 19.1923C34.6444 19.1921 34.6444 19.1919 34.6444 19.1917C34.6444 19.1915 34.6444 19.1913 34.6444 19.1911C34.6444 19.1909 34.6444 19.1907 34.6444 19.1905C34.6444 19.1903 34.6444 19.1901 34.6444 19.1899C34.6444 19.1897 34.6444 19.1895 34.6444 19.1893C34.6444 19.1891 34.6444 19.1889 34.6444 19.1887C34.6444 19.1885 34.6444 19.1883 34.6444 19.1881C34.6444 19.1879 34.6444 19.1877 34.6444 19.1875C34.6444 19.1873 34.6444 19.1871 34.6444 19.1869C34.6444 19.1867 34.6444 19.1865 34.6444 19.1863C34.6444 19.1861 34.6444 19.1859 34.6444 19.1856C34.6444 19.1854 34.6444 19.1852 34.6444 19.185C34.6444 19.1848 34.6444 19.1846 34.6444 19.1844C34.6444 19.1842 34.6444 19.184 34.6444 19.1838C34.6444 19.1836 34.6444 19.1834 34.6444 19.1832C34.6444 19.183 34.6444 19.1828 34.6444 19.1826C34.6444 19.1824 34.6444 19.1822 34.6444 19.182C34.6444 19.1818 34.6444 19.1816 34.6444 19.1814C34.6444 19.1812 34.6444 19.181 34.6444 19.1808C34.6444 19.1806 34.6444 19.1804 34.6444 19.1802C34.6444 19.18 34.6444 19.1798 34.6444 19.1796C34.6444 19.1794 34.6444 19.1792 34.6444 19.179C34.6444 19.1788 34.6444 19.1786 34.6444 19.1784C34.6444 19.1782 34.6444 19.178 34.6444 19.1778C34.6444 19.1776 34.6444 19.1774 34.6444 19.1772C34.6444 19.177 34.6444 19.1768 34.6444 19.1766C34.6444 19.1764 34.6444 19.1762 34.6444 19.176C34.6444 19.1758 34.6444 19.1756 34.6444 19.1755C34.6444 19.1753 34.6444 19.1751 34.6444 19.1749C34.6444 19.1747 34.6444 19.1745 34.6444 19.1743C34.6444 19.1741 34.6444 19.1739 34.6444 19.1737C34.6444 19.1735 34.6444 19.1733 34.6444 19.1731C34.6444 19.1729 34.6444 19.1727 34.6444 19.1725C34.6444 19.1723 34.6444 19.1721 34.6444 19.1719C34.6444 19.1717 34.6444 19.1715 34.6444 19.1713C34.6444 19.1711 34.6444 19.1709 34.6444 19.1707C34.6444 19.1705 34.6444 19.1703 34.6444 19.1701C34.6444 19.1699 34.6444 19.1697 34.6444 19.1695C34.6444 19.1693 34.6444 19.1691 34.6444 19.1689C34.6444 19.1687 34.6444 19.1685 34.6444 19.1683C34.6444 19.1681 34.6444 19.1679 34.6444 19.1677C34.6444 19.1675 34.6444 19.1673 34.6444 19.1671C34.6444 19.1669 34.6444 19.1667 34.6444 19.1665C34.6444 19.1663 34.6444 19.1661 34.6444 19.1659C34.6444 19.1657 34.6444 19.1655 34.6444 19.1653C34.6444 19.1652 34.6444 19.165 34.6444 19.1648C34.6444 19.1646 34.6444 19.1644 34.6444 19.1642C34.6444 19.164 34.6444 19.1638 34.6444 19.1636C34.6444 19.1634 34.6444 19.1632 34.6444 19.163C34.6444 19.1628 34.6444 19.1626 34.6444 19.1624C34.6444 19.1622 34.6444 19.162 34.6444 19.1618C34.6444 19.1616 34.6444 19.1614 34.6444 19.1612C34.6444 19.161 34.6444 19.1608 34.6444 19.1606C34.6444 19.1604 34.6444 19.1602 34.6444 19.1601C34.6444 19.1599 34.6444 19.1597 34.6444 19.1595C34.6444 19.1593 34.6444 19.1591 34.6444 19.1589C34.6444 19.1587 34.6444 19.1585 34.6444 19.1583C34.6444 19.1581 34.6444 19.1579 34.6444 19.1577C34.6444 19.1575 34.6444 19.1573 34.6444 19.1571C34.6444 19.1569 34.6444 19.1567 34.6444 19.1565C34.6444 19.1563 34.6444 19.1561 34.6444 19.156C34.6444 19.1558 34.6444 19.1556 34.6444 19.1554C34.6444 19.1552 34.6444 19.155 34.6444 19.1548C34.6444 19.1546 34.6444 19.1544 34.6444 19.1542C34.6444 19.154 34.6444 19.1538 34.6444 19.1536C34.6444 19.1534 34.6444 19.1532 34.6444 19.153C34.6444 19.1528 34.6444 19.1527 34.6444 19.1525C34.6444 19.1523 34.6444 19.1521 34.6444 19.1519C34.6444 19.1517 34.6444 19.1515 34.6444 19.1513C34.6444 19.1511 34.6444 19.1509 34.6444 19.1507C34.6444 19.1505 34.6444 19.1503 34.6444 19.1501C34.6444 19.15 34.6444 19.1498 34.6444 19.1496C34.6444 19.1494 34.6444 19.1492 34.6444 19.149C34.6444 19.1488 34.6444 19.1486 34.6444 19.1484C34.6444 19.1482 34.6444 19.148 34.6444 19.1478C34.6444 19.1476 34.6444 19.1475 34.6444 19.1473C34.6444 19.1471 34.6444 19.1469 34.6444 19.1467C34.6444 19.1465 34.6444 19.1463 34.6444 19.1461C34.6444 19.1459 34.6444 19.1457 34.6444 19.1455C34.6444 19.1453 34.6444 19.1452 34.6444 19.145C34.6444 19.1448 34.6444 19.1446 34.6444 19.1444C34.6444 19.1442 34.6444 19.144 34.6444 19.1438C34.6444 19.1436 34.6444 19.1434 34.6444 19.1432C34.6444 19.1431 34.6444 19.1429 34.6444 19.1427C34.6444 19.1425 34.6444 19.1423 34.6444 19.1421C34.6444 19.1419 34.6444 19.1417 34.6444 19.1415C34.6444 19.1413 34.6444 19.1412 34.6444 19.141C34.6444 19.1408 34.6444 19.1406 34.6444 19.1404C34.6444 19.1402 34.6444 19.14 34.6444 19.1398C34.6444 19.1396 34.6444 19.1394 34.6444 19.1393C34.6444 19.1391 34.6444 19.1389 34.6444 19.1387C34.6444 19.1385 34.6444 19.1383 34.6444 19.1381C34.6444 19.1379 34.6444 19.1377 34.6444 19.1376C34.6444 19.1374 34.6444 19.1372 34.6444 19.137C34.6444 19.1368 34.6444 19.1366 34.6444 19.1364C34.6444 19.1362 34.6444 19.1361 34.6444 19.1359C34.6444 19.1357 34.6444 19.1355 34.6444 19.1353C34.6444 19.1351 34.6444 19.1349 34.6444 19.1347C34.6444 19.1346 34.6444 19.1344 34.6444 19.1342C34.6444 19.134 34.6444 19.1338 34.6444 19.1336C34.6444 19.1334 34.6444 19.1332 34.6444 19.1331C34.6444 19.1329 34.6444 19.1327 34.6444 19.1325C34.6444 19.1323 34.6444 19.1321 34.6444 19.1319C34.6444 19.1318 34.6444 19.1316 34.6444 19.1314C34.6444 19.1312 34.6444 19.131 34.6444 19.1308C34.6444 19.1306 34.6444 19.1305 34.6444 19.1303C34.6444 19.1301 34.6444 19.1299 34.6444 19.1297C34.6444 19.1295 34.6444 19.1293 34.6444 19.1292C34.6444 19.129 34.6444 19.1288 34.6444 19.1286C34.6444 19.1284 34.6444 19.1282 34.6444 19.128C34.6444 19.1279 34.6444 19.1277 34.6444 19.1275C34.6444 19.1273 34.6444 19.1271 34.6444 19.1269C34.6444 19.1268 34.6444 19.1266 34.6444 19.1264C34.6444 19.1262 34.6444 19.126 34.6444 19.1258C34.6444 19.1257 34.6444 19.1255 34.6444 19.1253C34.6444 19.1251 34.6444 19.1249 34.6444 19.1247C34.6444 19.1246 34.6444 19.1244 34.6444 19.1242C34.6444 19.124 34.6444 19.1238 34.6444 19.1236C34.6444 19.1235 34.6444 19.1233 34.6444 19.1231C34.6444 19.1229 34.6444 19.1227 34.6444 19.1225C34.6444 19.1224 34.6444 19.1222 34.6444 19.122C34.6444 19.1218 34.6444 19.1216 34.6444 19.1215C34.6444 19.1213 34.6444 19.1211 34.6444 19.1209C34.6444 19.1207 34.6444 19.1205 34.6444 19.1204C34.6444 19.1202 34.6444 19.12 34.6444 19.1198C34.6444 19.1196 34.6444 19.1195 34.6444 19.1193C34.6444 19.1191 34.6444 19.1189 34.6444 19.1187C34.6444 19.1186 34.6444 19.1184 34.6444 19.1182C34.6444 19.118 34.6444 19.1178 34.6444 19.1177C34.6444 19.1175 34.6444 19.1173 34.6444 19.1171C34.6444 19.1169 34.6444 19.1168 34.6444 19.1166C34.6444 19.1164 34.6444 19.1162 34.6444 19.116C34.6444 19.1159 34.6444 19.1157 34.6444 19.1155C34.6444 19.1153 34.6444 19.1152 34.6444 19.115C34.6444 19.1148 34.6444 19.1146 34.6444 19.1144C34.6444 19.1143 34.6444 19.1141 34.6444 19.1139C34.6444 19.1137 34.6444 19.1135 34.6444 19.1134C34.6444 19.1132 34.6444 19.113 34.6444 19.1128C34.6444 19.1127 34.6444 19.1125 34.6444 19.1123C34.6444 19.1121 34.6444 19.112 34.6444 19.1118C34.6444 19.1116 34.6444 19.1114 34.6444 19.1112C34.6444 19.1111 34.6444 19.1109 34.6444 19.1107C34.6444 19.1105 34.6444 19.1104 34.6444 19.1102C34.6444 19.11 34.6444 19.1098 34.6444 19.1097C34.6444 19.1095 34.6444 19.1093 34.6444 19.1091C34.6444 19.109 34.6444 19.1088 34.6444 19.1086C34.6444 19.1084 34.6444 19.1083 34.6444 19.1081C34.6444 19.1079 34.6444 19.1077 34.6444 19.1076C34.6444 19.1074 34.6444 19.1072 34.6444 19.107C34.6444 19.1069 34.6444 19.1067 34.6444 19.1065C34.6444 19.1063 34.6444 19.1062 34.6444 19.106C34.6444 19.1058 34.6444 19.1057 34.6444 19.1055C34.6444 19.1053 34.6444 19.1051 34.6444 19.105C34.6444 19.1048 34.6444 19.1046 34.6444 19.1044C34.6444 19.1043 34.6444 19.1041 34.6444 19.1039C34.6444 19.1038 34.6444 19.1036 34.6444 19.1034C34.6444 19.1032 34.6444 19.1031 34.6444 19.1029C34.6444 19.1027 34.6444 19.1026 34.6444 19.1024C34.6444 19.1022 34.6444 19.102 34.6444 19.1019C34.6444 19.1017 34.6444 19.1015 34.6444 19.1014C34.6444 19.1012 34.6444 19.101 34.6444 19.1008C34.6444 19.1007 34.6444 19.1005 34.6444 19.1003C34.6444 19.1002 34.6444 19.1 34.6444 19.0998C34.6444 19.0997 34.6444 19.0995 34.6444 19.0993C34.6444 19.0991 34.6444 19.099 34.6444 19.0988C34.6444 19.0986 34.6444 19.0985 34.6444 19.0983C34.6444 19.0981 34.6444 19.098 34.6444 19.0978C34.6444 19.0976 34.6444 19.0975 34.6444 19.0973C34.6444 19.0971 34.6444 19.097 34.6444 19.0968C34.6444 19.0966 34.6444 19.0965 34.6444 19.0963C34.6444 19.0961 34.6444 19.0959 34.6444 19.0958C34.6444 19.0956 34.6444 19.0954 34.6444 19.0953C34.6444 19.0951 34.6444 19.0949 34.6444 19.0948C34.6444 19.0946 34.6444 19.0944 34.6444 19.0943C34.6444 19.0941 34.6444 19.094 34.6444 19.0938C34.6444 19.0936 34.6444 19.0935 34.6444 19.0933C34.6444 19.0931 34.6444 19.093 34.6444 19.0928C34.6444 19.0926 34.6444 19.0925 34.6444 19.0923C34.6444 19.0921 34.6444 19.092 34.6444 19.0918C34.6444 19.0916 34.6444 19.0915 34.6444 19.0913C34.6444 19.0911 34.6444 19.091 34.6444 19.0908C34.6444 19.0907 34.6444 19.0905 34.6444 19.0903C34.6444 19.0902 34.6444 19.09 34.6444 19.0898C34.6444 19.0897 34.6444 19.0895 34.6444 19.0894C34.6444 19.0892 34.6444 19.089 34.6444 19.0889C34.6444 19.0887 34.6444 19.0885 34.6444 19.0884C34.6444 19.0882 34.6444 19.0881 34.6444 19.0879C34.6444 19.0877 34.6444 19.0876 34.6444 19.0874C34.6444 19.0873 34.6444 19.0871 34.6444 19.0869C34.6444 19.0868 34.6444 19.0866 34.6444 19.0864C34.6444 19.0863 34.6444 19.0861 34.6444 19.086C34.6444 19.0858 34.6444 19.0856 34.6444 19.0855C34.6444 19.0853 34.6444 19.0852 34.6444 19.085C34.6444 19.0848 34.6444 19.0847 34.6444 19.0845C34.6444 19.0844 34.6444 19.0842 34.6444 19.0841C34.6444 19.0839 34.6444 19.0837 34.6444 19.0836C34.6444 19.0834 34.6444 19.0833 34.6444 19.0831C34.6444 19.0829 34.6444 19.0828 34.6444 19.0826C34.6444 19.0825 34.6444 19.0823 34.6444 19.0822C34.6444 19.082 34.6444 19.0818 34.6444 19.0817C34.6444 19.0815 34.6444 19.0814 34.6444 19.0812C34.6444 19.0811 34.6444 19.0809 34.6444 19.0808C34.6444 19.0806 34.6444 19.0804 34.6444 19.0803C34.6444 19.0801 34.6444 19.08 34.6444 19.0798C34.6444 19.0797 34.6444 19.0795 34.6444 19.0794C34.6444 19.0792 34.6444 19.079 34.6444 19.0789C34.6444 19.0787 34.6444 19.0786 34.6444 19.0784C34.6444 19.0783 34.6444 19.0781 34.6444 19.078C34.6444 19.0778 34.6444 19.0777 34.6444 19.0775C34.6444 19.0774 34.6444 19.0772 34.6444 19.077C34.6444 19.0769 34.6444 19.0767 34.6444 19.0766C34.6444 19.0764 34.6444 19.0763 34.6444 19.0761C34.6444 19.076 34.6444 19.0758 34.6444 19.0757C34.6444 19.0755 34.6444 19.0754 34.6444 19.0752C34.6444 19.0751 34.6444 19.0749 34.6444 19.0748C34.6444 19.0746 34.6444 19.0745 34.6444 19.0743C34.6444 19.0742 34.6444 19.074 34.6444 19.0739C34.6444 19.0737 34.6444 19.0736 34.6444 19.0734C34.6444 19.0733 34.6444 19.0731 34.6444 19.073C34.6444 19.0728 34.6444 19.0727 34.6444 19.0725C34.6444 19.0724 34.6444 19.0722 34.6444 19.0721C34.6444 19.0719 34.6444 19.0718 34.6444 19.0716C34.6444 19.0715 34.6444 19.0713 34.6444 19.0712C34.6444 19.071 34.6444 19.0709 34.6444 19.0707C34.6444 19.0706 34.6444 19.0705 34.6444 19.0703C34.6444 19.0702 34.6444 19.07 34.6444 19.0699C34.6444 19.0697 34.6444 19.0696 34.6444 19.0694C34.6444 19.0693 34.6444 19.0691 34.6444 19.069C34.6444 19.0688 34.6444 19.0687 34.6444 19.0686C34.6444 19.0684 34.6444 19.0683 34.6444 19.0681C34.6444 19.068 34.6444 19.0678 34.6444 19.0677C34.6444 19.0675 34.6444 19.0674 34.6444 19.0673C34.6444 19.0671 34.6444 19.067 34.6444 19.0668C34.6444 19.0667 34.6444 19.0665 34.6444 19.0664C34.6444 19.0663 34.6444 19.0661 34.6444 19.066C34.6444 19.0658 34.6444 19.0657 34.6444 19.0655C34.6444 19.0654 34.6444 19.0653 34.6444 19.0651C34.6444 19.065 34.6444 19.0648 34.6444 19.0647C34.6444 19.0646 34.6444 19.0644 34.6444 19.0643C34.6444 19.0641 34.6444 19.064 34.6444 19.0638C34.6444 19.0637 34.6444 19.0636 34.6444 19.0634C34.6444 19.0633 34.6444 19.0632 34.6444 19.063C34.6444 19.0629 34.6444 19.0627 34.6444 19.0626C34.6444 19.0625 34.6444 19.0623 34.6444 19.0622C34.6444 19.062 34.6444 19.0619 34.6444 19.0618C34.6444 19.0616 34.6444 19.0615 34.6444 19.0613C34.6444 19.0612 34.6444 19.0611 34.6444 19.0609C34.6444 19.0608 34.6444 19.0607 34.6444 19.0605C34.6444 19.0604 34.6444 19.0603 34.6444 19.0601C34.6444 19.06 34.6444 19.0598 34.6444 19.0597C34.6444 19.0596 34.6444 19.0594 34.6444 19.0593C34.6444 19.0592 34.6444 19.059 34.6444 19.0589C34.6444 19.0588 34.6444 19.0586 34.6444 19.0585C34.6444 19.0584 34.6444 19.0582 34.6444 19.0581C34.6444 19.058 34.6444 19.0578 34.6444 19.0577C34.6444 19.0576 34.6444 19.0574 34.6444 19.0573C34.6444 19.0572 34.6444 19.057 34.6444 19.0569C34.6444 19.0568 34.6444 19.0566 34.6444 19.0565C34.6444 19.0564 34.6444 19.0562 34.6444 19.0561C34.6444 19.056 34.6444 19.0558 34.6444 19.0557C34.6444 19.0556 34.6444 19.0554 34.6444 19.0553C34.6444 19.0552 34.6444 19.0551 34.6444 19.0549C34.6444 19.0548 34.6444 19.0547 34.6444 19.0545C34.6444 19.0544 34.6444 19.0543 34.6444 19.0541C34.6444 19.054 34.6444 19.0539 34.6444 19.0538C34.6444 19.0536 34.6444 19.0535 34.6444 19.0534C34.6444 19.0532 34.6444 19.0531 34.6444 19.053C34.6444 19.0529 34.6444 19.0527 34.6444 19.0526C34.6444 19.0525 34.6444 19.0524 34.6444 19.0522C34.6444 19.0521 34.6444 19.052 34.6444 19.0518C34.6444 19.0517 34.6444 19.0516 34.6444 19.0515C34.6444 19.0513 34.6444 19.0512 34.6444 19.0511C34.6444 19.051 34.6444 19.0508 34.6444 19.0507C34.6444 19.0506 34.6444 19.0505 34.6444 19.0503C34.6444 19.0502 34.6444 19.0501 34.6444 19.05C34.6444 19.0498 34.6444 19.0497 34.6444 19.0496C34.6444 19.0495 34.6444 19.0494 34.6444 19.0492C34.6444 19.0491 34.6444 19.049 34.6444 19.0489C34.6444 19.0487 34.6444 19.0486 34.6444 19.0485C34.6444 19.0484 34.6444 19.0483 34.6444 19.0481C34.6444 19.048 34.6444 19.0479 34.6444 19.0478C34.6444 19.0476 34.6444 19.0475 34.6444 19.0474C34.6444 19.0473 34.6444 19.0472 34.6444 19.047C34.6444 19.0469 34.6444 19.0468 34.6444 19.0467C34.6444 19.0466 34.6444 19.0464 34.6444 19.0463C34.6444 19.0462 34.6444 19.0461 34.6444 19.046C34.6444 19.0459 34.6444 19.0457 34.6444 19.0456C34.6444 19.0455 34.6444 19.0454 34.6444 19.0453C34.6444 19.0451 34.6444 19.045 34.6444 19.0449C34.6444 19.0448 34.6444 19.0447 34.6444 19.0446C34.6444 19.0444 34.6444 19.0443 34.6444 19.0442C34.6444 19.0441 34.6444 19.044 34.6444 19.0439C34.6444 19.0438 34.6444 19.0436 34.6444 19.0435C34.6444 19.0434 34.6444 19.0433 34.6444 19.0432C34.6444 19.0431 34.6444 19.043 34.6444 19.0428C34.6444 19.0427 34.6444 19.0426 34.6444 19.0425C34.6444 19.0424 34.6444 19.0423 34.6444 19.0422C34.6444 19.0421 34.6444 19.0419 34.6444 19.0418C34.6444 19.0417 34.6444 19.0416 34.6444 19.0415C34.6444 19.0414 34.6444 19.0413 34.6444 19.0412C34.6444 19.041 34.6444 19.0409 34.6444 19.0408C34.6444 19.0407 34.6444 19.0406 34.6444 19.0405C34.6444 19.0404 34.6444 19.0403 34.6444 19.0402C34.6444 19.0401 34.6444 19.0399 34.6444 19.0398C34.6444 19.0397 34.6444 19.0396 34.6444 19.0395C34.6444 19.0394 34.6444 19.0393 34.6444 19.0392C34.6444 19.0391 34.6444 19.039 34.6444 19.0389C34.6444 19.0388 34.6444 19.0387 34.6444 19.0385C34.6444 19.0384 34.6444 19.0383 34.6444 19.0382C34.6444 19.0381 34.6444 19.038 34.6444 19.0379C34.6444 19.0378 34.6444 19.0377 34.6444 19.0376C34.6444 19.0375 34.6444 19.0374 34.6444 19.0373C34.6444 19.0372 34.6444 19.0371 34.6444 19.037C34.6444 19.0369 34.6444 19.0368 34.6444 19.0367C34.6444 19.0366 34.6444 19.0365 34.6444 19.0363C34.6444 19.0362 34.6444 19.0361 34.6444 19.036C34.6444 19.0359 34.6444 19.0358 34.6444 19.0357C34.6444 19.0356 34.6444 19.0355 34.6444 19.0354C34.6444 19.0353 34.6444 19.0352 34.6444 19.0351C34.6444 19.035 34.6444 19.0349 34.6444 19.0348C34.6444 19.0347 34.6444 19.0346 34.6444 19.0345C34.6444 19.0344 34.6444 19.0343 34.6444 19.0342C34.6444 19.0341 34.6444 19.034 34.6444 19.0339C34.6444 19.0338 34.6444 19.0337 34.6444 19.0336C34.6444 19.0335 34.6444 19.0334 34.6444 19.0334C34.6444 19.0333 34.6444 19.0332 34.6444 19.0331C34.6444 19.033 34.6444 19.0329 34.6444 19.0328C34.6444 19.0327 34.6444 19.0326 34.6444 19.0325C34.6444 19.0324 34.6444 19.0323 34.6444 19.0322C34.6444 19.0321 34.6444 19.032 34.6444 19.0319C34.6444 19.0318 34.6444 19.0317 34.6444 19.0316C34.6444 19.0315 34.6444 19.0314 34.6444 19.0314C34.6444 19.0313 34.6444 19.0312 34.6444 19.0311C34.6444 19.031 34.6444 19.0309 34.6444 19.0308C34.6444 19.0307 34.6444 19.0306 34.6444 19.0305C34.6444 19.0304 34.6444 19.0303 34.6444 19.0303C34.6444 19.0302 34.6444 19.0301 34.6444 19.03C34.6444 19.0299 34.6444 19.0298 34.6444 19.0297C34.6444 19.0296 34.6444 19.0295 34.6444 19.0294C34.6444 19.0294 34.6444 19.0293 34.6444 19.0292C34.6444 19.0291 34.6444 19.029 34.6444 19.0289C34.6444 19.0288 34.6444 19.0287 34.6444 19.0287C34.6444 19.0286 34.6444 19.0285 34.6444 19.0284C34.6444 19.0283 34.6444 19.0282 34.6444 19.0281C34.6444 19.028 34.6444 19.028 34.6444 19.0279C34.6444 19.0278 34.6444 19.0277 34.6444 19.0276C34.6444 19.0275 34.6444 19.0275 34.6444 19.0274C34.6444 19.0273 34.6444 19.0272 34.6444 19.0271C34.6444 19.027 34.6444 19.0269 34.6444 19.0269C34.6444 19.0268 34.6444 19.0267 34.6444 19.0266C34.6444 19.0265 34.6444 19.0265 34.6444 19.0264C34.6444 19.0263 34.6444 19.0262 34.6444 19.0261C34.6444 19.026 34.6444 19.026 34.6444 19.0259C34.6444 19.0258 34.6444 19.0257 34.6444 19.0256C34.6444 19.0256 34.6444 19.0255 34.6444 19.0254C34.6444 19.0253 34.6444 19.0253 34.6444 19.0252C34.6444 19.0251 34.6444 19.025 34.6444 19.0249C34.6444 19.0249 34.6444 19.0248 34.6444 19.0247C34.6444 19.0246 34.6444 19.0245 34.6444 19.0245C34.6444 19.0244 34.6444 19.0243 34.6444 19.0242C34.6444 19.0242 34.6444 19.0241 34.6444 19.024C34.6444 19.0239 34.6444 19.0239 34.6444 19.0238C34.6444 19.0237 34.6444 19.0236 34.6444 19.0236C34.6444 19.0235 34.6444 19.0234 34.6444 19.0233C34.6444 19.0233 34.6444 19.0232 34.6444 19.0231C34.6444 19.0231 34.6444 19.023 34.6444 19.0229C34.6444 19.0228 34.6444 19.0228 34.6444 19.0227C34.6444 19.0226 34.6444 19.0226 34.6444 19.0225C34.6444 19.0224 34.6444 19.0223 34.6444 19.0223C34.6444 19.0222 34.6444 19.0221 34.6444 19.0221C34.6444 19.022 34.6444 19.0219 34.6444 19.0218C34.6444 19.0218 34.6444 19.0217 34.6444 19.0216C34.6444 19.0216 34.6444 19.0215 34.6444 19.0214C34.6444 19.0214 34.6444 19.0213 34.6444 19.0212C34.6444 19.0212 34.6444 19.0211 34.6444 19.021C34.6444 19.021 34.6444 19.0209 34.6444 19.0208C34.6444 19.0208 34.6444 19.0207 34.6444 19.0206C34.6444 19.0206 34.6444 19.0205 34.6444 19.0204C34.6444 19.0204 34.6444 19.0203 34.6444 19.0203C34.6444 19.0202 34.6444 19.0201 34.6444 19.0201C34.6444 19.02 34.6444 19.0199 34.6444 19.0199C34.6444 19.0198 34.6444 19.0197 34.6444 19.0197C34.6444 19.0196 34.6444 19.0196 34.6444 19.0195C34.6444 19.0194 34.6444 19.0194 34.6444 19.0193C34.6444 19.0193 34.6444 19.0192 34.6444 19.0191C34.6444 19.0191 34.6444 19.019 34.6444 19.019C34.6444 19.0189 34.6444 19.0188 34.6444 19.0188C34.6444 19.0187 34.6444 19.0187 34.6444 19.0186C34.6444 19.0186 34.6444 19.0185 34.6444 19.0184C34.6444 19.0184 34.6444 19.0183 34.6444 19.0183C34.6444 19.0182 34.6444 19.0182 34.6444 19.0181C34.6444 19.018 34.6444 19.018 34.6444 19.0179C34.6444 19.0179 34.6444 19.0178 34.6444 19.0178C34.6444 19.0177 34.6444 19.0177 34.6444 19.0176C34.6444 19.0176 34.6444 19.0175 34.6444 19.0174C34.6444 19.0174 34.6444 19.0173 34.6444 19.0173C34.6444 19.0172 34.6444 19.0172 34.6444 19.0171C34.6444 19.0171 34.6444 19.017 34.6444 19.017C34.6444 19.0169 34.6444 19.0169 34.6444 19.0168C34.6444 19.0168 34.6444 19.0167 34.6444 19.0167C34.6444 19.0166 34.6444 19.0166 34.6444 19.0165C34.6444 19.0165 34.6444 19.0164 34.6444 19.0164C34.6444 19.0163 34.6444 19.0163 34.6444 19.0162C34.6444 19.0162 34.6444 19.0161 34.6444 19.0161C34.6444 19.016 34.6444 19.016 34.6444 19.016C34.6444 19.0159 34.6444 19.0159 34.6444 19.0158C34.6444 19.0158 34.6444 19.0157 34.6444 19.0157C34.6444 19.0156 34.6444 19.0156 34.6444 19.0155C34.6444 19.0155 34.6444 19.0155 34.6444 19.0154C34.6444 19.0154 34.6444 19.0153 34.6444 19.0153C34.6444 19.0152 34.6444 19.0152 34.6444 19.0152C34.6444 19.0151 34.6444 19.0151 34.6444 19.015C34.6444 19.015 34.6444 19.015 34.6444 19.0149C34.6444 19.0149 34.6444 19.0148 34.6444 19.0148C34.6444 19.0148 34.6444 19.0147 34.6444 19.0147C34.6444 19.0146 34.6444 19.0146 34.6444 19.0146C34.6444 19.0145 34.6444 19.0145 34.6444 19.0144C34.6444 19.0144 34.6444 19.0144 34.6444 19.0143C34.6444 19.0143 34.6444 19.0143 34.6444 19.0142C34.6444 19.0142 34.6444 19.0141 34.6444 19.0141C34.6444 19.0141 34.6444 19.014 34.6444 19.014C34.6444 19.014 34.6444 19.0139 34.6444 19.0139C34.6444 19.0139 34.6444 19.0138 34.6444 19.0138C34.6444 19.0138 34.6444 19.0137 34.6444 19.0137C34.6444 19.0137 34.6444 19.0136 34.6444 19.0136C34.6444 19.0136 34.6444 19.0135 34.6444 19.0135C34.6444 19.0135 34.6444 19.0134 34.6444 19.0134C34.6444 19.0134 34.6444 19.0134 34.6444 19.0133C34.6444 19.0133 34.6444 19.0133 34.6444 19.0132C34.6444 19.0132 34.6444 19.0132 34.6444 19.0132C34.6444 19.0131 34.6444 19.0131 34.6444 19.0131C34.6444 19.013 34.6444 19.013 34.6444 19.013C34.6444 19.013 34.6444 19.0129 34.6444 19.0129C34.6444 19.0129 34.6444 19.0129 34.6444 19.0128C34.6444 19.0128 34.6444 19.0128 34.6444 19.0128C34.6444 19.0127 34.6444 19.0127 34.6444 19.0127C34.6444 19.0127 34.6444 19.0126 34.6444 19.0126C34.6444 19.0126 34.6444 19.0126 34.6444 19.0125C34.6444 19.0125 34.6444 19.0125 34.6444 19.0125C34.6444 19.0125 34.6444 19.0124 34.6444 19.0124C34.6444 19.0124 34.6444 19.0124 34.6444 19.0124C34.6444 19.0123 34.6444 19.0123 34.6444 19.0123C34.6444 19.0123 34.6444 19.0123 34.6444 19.0122C34.6444 19.0122 34.6444 19.0122 34.6444 19.0122C34.6444 19.0122 34.6444 19.0121 34.6444 19.0121C34.6444 19.0121 34.6444 19.0121 34.6444 19.0121C34.6444 19.0121 34.6444 19.012 34.6444 19.012C34.6444 19.012 34.6444 19.012 34.6444 19.012C34.6444 19.012 34.6444 19.012 34.6444 19.0119C34.6444 19.0119 34.6444 19.0119 34.6444 19.0119C34.6444 19.0119 34.6444 19.0119 34.6444 19.0119C34.6444 19.0119 34.6444 19.0118 34.6444 19.0118C34.6444 19.0118 34.6444 19.0118 34.6444 19.0118C34.6444 19.0118 34.6444 19.0118 34.6444 19.0118C34.6444 19.0118 34.6444 19.0117 34.6444 19.0117C34.6444 19.0117 34.6444 19.0117 34.6444 19.0117C34.6444 19.0117 34.6444 19.0117 34.6444 19.0117C34.6444 19.0117 34.6444 19.0117 34.6444 19.0117C34.6444 19.0117 34.6444 19.0116 34.6444 19.0116C34.6444 19.0116 34.6444 19.0116 34.6444 19.0116C34.6444 19.0116 34.6444 19.0116 34.6444 19.0116C34.6444 19.0116 34.6444 19.0116 34.6444 19.0116C34.6444 19.0116 34.6444 19.0116 34.6444 19.0116C34.6444 19.0116 34.6444 19.0116 34.6444 19.0116C34.6444 19.0116 34.6444 19.0116 34.6444 19.0116C34.6444 19.0116 34.6444 19.0116 34.6444 19.0116C34.6444 19.0116 34.6444 19.0116 33.6444 19.0116C32.6444 19.0116 32.6444 19.0116 32.6444 19.0116C32.6444 19.0116 32.6444 19.0116 32.6444 19.0116C32.6444 19.0116 32.6444 19.0116 32.6444 19.0116C32.6444 19.0116 32.6444 19.0116 32.6444 19.0116C32.6444 19.0116 32.6444 19.0116 32.6444 19.0116C32.6444 19.0116 32.6444 19.0116 32.6444 19.0116C32.6444 19.0116 32.6444 19.0116 32.6444 19.0116C32.6444 19.0116 32.6444 19.0116 32.6444 19.0116C32.6444 19.0116 32.6444 19.0117 32.6444 19.0117C32.6444 19.0117 32.6444 19.0117 32.6444 19.0117C32.6444 19.0117 32.6444 19.0117 32.6444 19.0117C32.6444 19.0117 32.6444 19.0117 32.6444 19.0117C32.6444 19.0117 32.6444 19.0118 32.6444 19.0118C32.6444 19.0118 32.6444 19.0118 32.6444 19.0118C32.6444 19.0118 32.6444 19.0118 32.6444 19.0118C32.6444 19.0118 32.6444 19.0119 32.6444 19.0119C32.6444 19.0119 32.6444 19.0119 32.6444 19.0119C32.6444 19.0119 32.6444 19.0119 32.6444 19.0119C32.6444 19.012 32.6444 19.012 32.6444 19.012C32.6444 19.012 32.6444 19.012 32.6444 19.012C32.6444 19.012 32.6444 19.0121 32.6444 19.0121C32.6444 19.0121 32.6444 19.0121 32.6444 19.0121C32.6444 19.0121 32.6444 19.0122 32.6444 19.0122C32.6444 19.0122 32.6444 19.0122 32.6444 19.0122C32.6444 19.0123 32.6444 19.0123 32.6444 19.0123C32.6444 19.0123 32.6444 19.0123 32.6444 19.0124C32.6444 19.0124 32.6444 19.0124 32.6444 19.0124C32.6444 19.0124 32.6444 19.0125 32.6444 19.0125C32.6444 19.0125 32.6444 19.0125 32.6444 19.0125C32.6444 19.0126 32.6444 19.0126 32.6444 19.0126C32.6444 19.0126 32.6444 19.0127 32.6444 19.0127C32.6444 19.0127 32.6444 19.0127 32.6444 19.0128C32.6444 19.0128 32.6444 19.0128 32.6444 19.0128C32.6444 19.0129 32.6444 19.0129 32.6444 19.0129C32.6444 19.0129 32.6444 19.013 32.6444 19.013C32.6444 19.013 32.6444 19.013 32.6444 19.0131C32.6444 19.0131 32.6444 19.0131 32.6444 19.0132C32.6444 19.0132 32.6444 19.0132 32.6444 19.0132C32.6444 19.0133 32.6444 19.0133 32.6444 19.0133C32.6444 19.0134 32.6444 19.0134 32.6444 19.0134C32.6444 19.0134 32.6444 19.0135 32.6444 19.0135C32.6444 19.0135 32.6444 19.0136 32.6444 19.0136C32.6444 19.0136 32.6444 19.0137 32.6444 19.0137C32.6444 19.0137 32.6444 19.0138 32.6444 19.0138C32.6444 19.0138 32.6444 19.0139 32.6444 19.0139C32.6444 19.0139 32.6444 19.014 32.6444 19.014C32.6444 19.014 32.6444 19.0141 32.6444 19.0141C32.6444 19.0141 32.6444 19.0142 32.6444 19.0142C32.6444 19.0143 32.6444 19.0143 32.6444 19.0143C32.6444 19.0144 32.6444 19.0144 32.6444 19.0144C32.6444 19.0145 32.6444 19.0145 32.6444 19.0146C32.6444 19.0146 32.6444 19.0146 32.6444 19.0147C32.6444 19.0147 32.6444 19.0148 32.6444 19.0148C32.6444 19.0148 32.6444 19.0149 32.6444 19.0149C32.6444 19.015 32.6444 19.015 32.6444 19.015C32.6444 19.0151 32.6444 19.0151 32.6444 19.0152C32.6444 19.0152 32.6444 19.0152 32.6444 19.0153C32.6444 19.0153 32.6444 19.0154 32.6444 19.0154C32.6444 19.0155 32.6444 19.0155 32.6444 19.0155C32.6444 19.0156 32.6444 19.0156 32.6444 19.0157C32.6444 19.0157 32.6444 19.0158 32.6444 19.0158C32.6444 19.0159 32.6444 19.0159 32.6444 19.016C32.6444 19.016 32.6444 19.016 32.6444 19.0161C32.6444 19.0161 32.6444 19.0162 32.6444 19.0162C32.6444 19.0163 32.6444 19.0163 32.6444 19.0164C32.6444 19.0164 32.6444 19.0165 32.6444 19.0165C32.6444 19.0166 32.6444 19.0166 32.6444 19.0167C32.6444 19.0167 32.6444 19.0168 32.6444 19.0168C32.6444 19.0169 32.6444 19.0169 32.6444 19.017C32.6444 19.017 32.6444 19.0171 32.6444 19.0171C32.6444 19.0172 32.6444 19.0172 32.6444 19.0173C32.6444 19.0173 32.6444 19.0174 32.6444 19.0174C32.6444 19.0175 32.6444 19.0176 32.6444 19.0176C32.6444 19.0177 32.6444 19.0177 32.6444 19.0178C32.6444 19.0178 32.6444 19.0179 32.6444 19.0179C32.6444 19.018 32.6444 19.018 32.6444 19.0181C32.6444 19.0182 32.6444 19.0182 32.6444 19.0183C32.6444 19.0183 32.6444 19.0184 32.6444 19.0184C32.6444 19.0185 32.6444 19.0186 32.6444 19.0186C32.6444 19.0187 32.6444 19.0187 32.6444 19.0188C32.6444 19.0188 32.6444 19.0189 32.6444 19.019C32.6444 19.019 32.6444 19.0191 32.6444 19.0191C32.6444 19.0192 32.6444 19.0193 32.6444 19.0193C32.6444 19.0194 32.6444 19.0194 32.6444 19.0195C32.6444 19.0196 32.6444 19.0196 32.6444 19.0197C32.6444 19.0197 32.6444 19.0198 32.6444 19.0199C32.6444 19.0199 32.6444 19.02 32.6444 19.0201C32.6444 19.0201 32.6444 19.0202 32.6444 19.0203C32.6444 19.0203 32.6444 19.0204 32.6444 19.0204C32.6444 19.0205 32.6444 19.0206 32.6444 19.0206C32.6444 19.0207 32.6444 19.0208 32.6444 19.0208C32.6444 19.0209 32.6444 19.021 32.6444 19.021C32.6444 19.0211 32.6444 19.0212 32.6444 19.0212C32.6444 19.0213 32.6444 19.0214 32.6444 19.0214C32.6444 19.0215 32.6444 19.0216 32.6444 19.0216C32.6444 19.0217 32.6444 19.0218 32.6444 19.0218C32.6444 19.0219 32.6444 19.022 32.6444 19.0221C32.6444 19.0221 32.6444 19.0222 32.6444 19.0223C32.6444 19.0223 32.6444 19.0224 32.6444 19.0225C32.6444 19.0226 32.6444 19.0226 32.6444 19.0227C32.6444 19.0228 32.6444 19.0228 32.6444 19.0229C32.6444 19.023 32.6444 19.0231 32.6444 19.0231C32.6444 19.0232 32.6444 19.0233 32.6444 19.0233C32.6444 19.0234 32.6444 19.0235 32.6444 19.0236C32.6444 19.0236 32.6444 19.0237 32.6444 19.0238C32.6444 19.0239 32.6444 19.0239 32.6444 19.024C32.6444 19.0241 32.6444 19.0242 32.6444 19.0242C32.6444 19.0243 32.6444 19.0244 32.6444 19.0245C32.6444 19.0245 32.6444 19.0246 32.6444 19.0247C32.6444 19.0248 32.6444 19.0249 32.6444 19.0249C32.6444 19.025 32.6444 19.0251 32.6444 19.0252C32.6444 19.0253 32.6444 19.0253 32.6444 19.0254C32.6444 19.0255 32.6444 19.0256 32.6444 19.0256C32.6444 19.0257 32.6444 19.0258 32.6444 19.0259C32.6444 19.026 32.6444 19.026 32.6444 19.0261C32.6444 19.0262 32.6444 19.0263 32.6444 19.0264C32.6444 19.0265 32.6444 19.0265 32.6444 19.0266C32.6444 19.0267 32.6444 19.0268 32.6444 19.0269C32.6444 19.0269 32.6444 19.027 32.6444 19.0271C32.6444 19.0272 32.6444 19.0273 32.6444 19.0274C32.6444 19.0275 32.6444 19.0275 32.6444 19.0276C32.6444 19.0277 32.6444 19.0278 32.6444 19.0279C32.6444 19.028 32.6444 19.028 32.6444 19.0281C32.6444 19.0282 32.6444 19.0283 32.6444 19.0284C32.6444 19.0285 32.6444 19.0286 32.6444 19.0287C32.6444 19.0287 32.6444 19.0288 32.6444 19.0289C32.6444 19.029 32.6444 19.0291 32.6444 19.0292C32.6444 19.0293 32.6444 19.0294 32.6444 19.0294C32.6444 19.0295 32.6444 19.0296 32.6444 19.0297C32.6444 19.0298 32.6444 19.0299 32.6444 19.03C32.6444 19.0301 32.6444 19.0302 32.6444 19.0303C32.6444 19.0303 32.6444 19.0304 32.6444 19.0305C32.6444 19.0306 32.6444 19.0307 32.6444 19.0308C32.6444 19.0309 32.6444 19.031 32.6444 19.0311C32.6444 19.0312 32.6444 19.0313 32.6444 19.0314C32.6444 19.0314 32.6444 19.0315 32.6444 19.0316C32.6444 19.0317 32.6444 19.0318 32.6444 19.0319C32.6444 19.032 32.6444 19.0321 32.6444 19.0322C32.6444 19.0323 32.6444 19.0324 32.6444 19.0325C32.6444 19.0326 32.6444 19.0327 32.6444 19.0328C32.6444 19.0329 32.6444 19.033 32.6444 19.0331C32.6444 19.0332 32.6444 19.0333 32.6444 19.0334C32.6444 19.0334 32.6444 19.0335 32.6444 19.0336C32.6444 19.0337 32.6444 19.0338 32.6444 19.0339C32.6444 19.034 32.6444 19.0341 32.6444 19.0342C32.6444 19.0343 32.6444 19.0344 32.6444 19.0345C32.6444 19.0346 32.6444 19.0347 32.6444 19.0348C32.6444 19.0349 32.6444 19.035 32.6444 19.0351C32.6444 19.0352 32.6444 19.0353 32.6444 19.0354C32.6444 19.0355 32.6444 19.0356 32.6444 19.0357C32.6444 19.0358 32.6444 19.0359 32.6444 19.036C32.6444 19.0361 32.6444 19.0362 32.6444 19.0363C32.6444 19.0365 32.6444 19.0366 32.6444 19.0367C32.6444 19.0368 32.6444 19.0369 32.6444 19.037C32.6444 19.0371 32.6444 19.0372 32.6444 19.0373C32.6444 19.0374 32.6444 19.0375 32.6444 19.0376C32.6444 19.0377 32.6444 19.0378 32.6444 19.0379C32.6444 19.038 32.6444 19.0381 32.6444 19.0382C32.6444 19.0383 32.6444 19.0384 32.6444 19.0385C32.6444 19.0387 32.6444 19.0388 32.6444 19.0389C32.6444 19.039 32.6444 19.0391 32.6444 19.0392C32.6444 19.0393 32.6444 19.0394 32.6444 19.0395C32.6444 19.0396 32.6444 19.0397 32.6444 19.0398C32.6444 19.0399 32.6444 19.0401 32.6444 19.0402C32.6444 19.0403 32.6444 19.0404 32.6444 19.0405C32.6444 19.0406 32.6444 19.0407 32.6444 19.0408C32.6444 19.0409 32.6444 19.041 32.6444 19.0412C32.6444 19.0413 32.6444 19.0414 32.6444 19.0415C32.6444 19.0416 32.6444 19.0417 32.6444 19.0418C32.6444 19.0419 32.6444 19.0421 32.6444 19.0422C32.6444 19.0423 32.6444 19.0424 32.6444 19.0425C32.6444 19.0426 32.6444 19.0427 32.6444 19.0428C32.6444 19.043 32.6444 19.0431 32.6444 19.0432C32.6444 19.0433 32.6444 19.0434 32.6444 19.0435C32.6444 19.0436 32.6444 19.0438 32.6444 19.0439C32.6444 19.044 32.6444 19.0441 32.6444 19.0442C32.6444 19.0443 32.6444 19.0444 32.6444 19.0446C32.6444 19.0447 32.6444 19.0448 32.6444 19.0449C32.6444 19.045 32.6444 19.0451 32.6444 19.0453C32.6444 19.0454 32.6444 19.0455 32.6444 19.0456C32.6444 19.0457 32.6444 19.0459 32.6444 19.046C32.6444 19.0461 32.6444 19.0462 32.6444 19.0463C32.6444 19.0464 32.6444 19.0466 32.6444 19.0467C32.6444 19.0468 32.6444 19.0469 32.6444 19.047C32.6444 19.0472 32.6444 19.0473 32.6444 19.0474C32.6444 19.0475 32.6444 19.0476 32.6444 19.0478C32.6444 19.0479 32.6444 19.048 32.6444 19.0481C32.6444 19.0483 32.6444 19.0484 32.6444 19.0485C32.6444 19.0486 32.6444 19.0487 32.6444 19.0489C32.6444 19.049 32.6444 19.0491 32.6444 19.0492C32.6444 19.0494 32.6444 19.0495 32.6444 19.0496C32.6444 19.0497 32.6444 19.0498 32.6444 19.05C32.6444 19.0501 32.6444 19.0502 32.6444 19.0503C32.6444 19.0505 32.6444 19.0506 32.6444 19.0507C32.6444 19.0508 32.6444 19.051 32.6444 19.0511C32.6444 19.0512 32.6444 19.0513 32.6444 19.0515C32.6444 19.0516 32.6444 19.0517 32.6444 19.0518C32.6444 19.052 32.6444 19.0521 32.6444 19.0522C32.6444 19.0524 32.6444 19.0525 32.6444 19.0526C32.6444 19.0527 32.6444 19.0529 32.6444 19.053C32.6444 19.0531 32.6444 19.0532 32.6444 19.0534C32.6444 19.0535 32.6444 19.0536 32.6444 19.0538C32.6444 19.0539 32.6444 19.054 32.6444 19.0541C32.6444 19.0543 32.6444 19.0544 32.6444 19.0545C32.6444 19.0547 32.6444 19.0548 32.6444 19.0549C32.6444 19.0551 32.6444 19.0552 32.6444 19.0553C32.6444 19.0554 32.6444 19.0556 32.6444 19.0557C32.6444 19.0558 32.6444 19.056 32.6444 19.0561C32.6444 19.0562 32.6444 19.0564 32.6444 19.0565C32.6444 19.0566 32.6444 19.0568 32.6444 19.0569C32.6444 19.057 32.6444 19.0572 32.6444 19.0573C32.6444 19.0574 32.6444 19.0576 32.6444 19.0577C32.6444 19.0578 32.6444 19.058 32.6444 19.0581C32.6444 19.0582 32.6444 19.0584 32.6444 19.0585C32.6444 19.0586 32.6444 19.0588 32.6444 19.0589C32.6444 19.059 32.6444 19.0592 32.6444 19.0593C32.6444 19.0594 32.6444 19.0596 32.6444 19.0597C32.6444 19.0598 32.6444 19.06 32.6444 19.0601C32.6444 19.0603 32.6444 19.0604 32.6444 19.0605C32.6444 19.0607 32.6444 19.0608 32.6444 19.0609C32.6444 19.0611 32.6444 19.0612 32.6444 19.0613C32.6444 19.0615 32.6444 19.0616 32.6444 19.0618C32.6444 19.0619 32.6444 19.062 32.6444 19.0622C32.6444 19.0623 32.6444 19.0625 32.6444 19.0626C32.6444 19.0627 32.6444 19.0629 32.6444 19.063C32.6444 19.0632 32.6444 19.0633 32.6444 19.0634C32.6444 19.0636 32.6444 19.0637 32.6444 19.0638C32.6444 19.064 32.6444 19.0641 32.6444 19.0643C32.6444 19.0644 32.6444 19.0646 32.6444 19.0647C32.6444 19.0648 32.6444 19.065 32.6444 19.0651C32.6444 19.0653 32.6444 19.0654 32.6444 19.0655C32.6444 19.0657 32.6444 19.0658 32.6444 19.066C32.6444 19.0661 32.6444 19.0663 32.6444 19.0664C32.6444 19.0665 32.6444 19.0667 32.6444 19.0668C32.6444 19.067 32.6444 19.0671 32.6444 19.0673C32.6444 19.0674 32.6444 19.0675 32.6444 19.0677C32.6444 19.0678 32.6444 19.068 32.6444 19.0681C32.6444 19.0683 32.6444 19.0684 32.6444 19.0686C32.6444 19.0687 32.6444 19.0688 32.6444 19.069C32.6444 19.0691 32.6444 19.0693 32.6444 19.0694C32.6444 19.0696 32.6444 19.0697 32.6444 19.0699C32.6444 19.07 32.6444 19.0702 32.6444 19.0703C32.6444 19.0705 32.6444 19.0706 32.6444 19.0707C32.6444 19.0709 32.6444 19.071 32.6444 19.0712C32.6444 19.0713 32.6444 19.0715 32.6444 19.0716C32.6444 19.0718 32.6444 19.0719 32.6444 19.0721C32.6444 19.0722 32.6444 19.0724 32.6444 19.0725C32.6444 19.0727 32.6444 19.0728 32.6444 19.073C32.6444 19.0731 32.6444 19.0733 32.6444 19.0734C32.6444 19.0736 32.6444 19.0737 32.6444 19.0739C32.6444 19.074 32.6444 19.0742 32.6444 19.0743C32.6444 19.0745 32.6444 19.0746 32.6444 19.0748C32.6444 19.0749 32.6444 19.0751 32.6444 19.0752C32.6444 19.0754 32.6444 19.0755 32.6444 19.0757C32.6444 19.0758 32.6444 19.076 32.6444 19.0761C32.6444 19.0763 32.6444 19.0764 32.6444 19.0766C32.6444 19.0767 32.6444 19.0769 32.6444 19.077C32.6444 19.0772 32.6444 19.0774 32.6444 19.0775C32.6444 19.0777 32.6444 19.0778 32.6444 19.078C32.6444 19.0781 32.6444 19.0783 32.6444 19.0784C32.6444 19.0786 32.6444 19.0787 32.6444 19.0789C32.6444 19.079 32.6444 19.0792 32.6444 19.0794C32.6444 19.0795 32.6444 19.0797 32.6444 19.0798C32.6444 19.08 32.6444 19.0801 32.6444 19.0803C32.6444 19.0804 32.6444 19.0806 32.6444 19.0808C32.6444 19.0809 32.6444 19.0811 32.6444 19.0812C32.6444 19.0814 32.6444 19.0815 32.6444 19.0817C32.6444 19.0818 32.6444 19.082 32.6444 19.0822C32.6444 19.0823 32.6444 19.0825 32.6444 19.0826C32.6444 19.0828 32.6444 19.0829 32.6444 19.0831C32.6444 19.0833 32.6444 19.0834 32.6444 19.0836C32.6444 19.0837 32.6444 19.0839 32.6444 19.0841C32.6444 19.0842 32.6444 19.0844 32.6444 19.0845C32.6444 19.0847 32.6444 19.0848 32.6444 19.085C32.6444 19.0852 32.6444 19.0853 32.6444 19.0855C32.6444 19.0856 32.6444 19.0858 32.6444 19.086C32.6444 19.0861 32.6444 19.0863 32.6444 19.0864C32.6444 19.0866 32.6444 19.0868 32.6444 19.0869C32.6444 19.0871 32.6444 19.0873 32.6444 19.0874C32.6444 19.0876 32.6444 19.0877 32.6444 19.0879C32.6444 19.0881 32.6444 19.0882 32.6444 19.0884C32.6444 19.0885 32.6444 19.0887 32.6444 19.0889C32.6444 19.089 32.6444 19.0892 32.6444 19.0894C32.6444 19.0895 32.6444 19.0897 32.6444 19.0898C32.6444 19.09 32.6444 19.0902 32.6444 19.0903C32.6444 19.0905 32.6444 19.0907 32.6444 19.0908C32.6444 19.091 32.6444 19.0911 32.6444 19.0913C32.6444 19.0915 32.6444 19.0916 32.6444 19.0918C32.6444 19.092 32.6444 19.0921 32.6444 19.0923C32.6444 19.0925 32.6444 19.0926 32.6444 19.0928C32.6444 19.093 32.6444 19.0931 32.6444 19.0933C32.6444 19.0935 32.6444 19.0936 32.6444 19.0938C32.6444 19.094 32.6444 19.0941 32.6444 19.0943C32.6444 19.0944 32.6444 19.0946 32.6444 19.0948C32.6444 19.0949 32.6444 19.0951 32.6444 19.0953C32.6444 19.0954 32.6444 19.0956 32.6444 19.0958C32.6444 19.0959 32.6444 19.0961 32.6444 19.0963C32.6444 19.0965 32.6444 19.0966 32.6444 19.0968C32.6444 19.097 32.6444 19.0971 32.6444 19.0973C32.6444 19.0975 32.6444 19.0976 32.6444 19.0978C32.6444 19.098 32.6444 19.0981 32.6444 19.0983C32.6444 19.0985 32.6444 19.0986 32.6444 19.0988C32.6444 19.099 32.6444 19.0991 32.6444 19.0993C32.6444 19.0995 32.6444 19.0997 32.6444 19.0998C32.6444 19.1 32.6444 19.1002 32.6444 19.1003C32.6444 19.1005 32.6444 19.1007 32.6444 19.1008C32.6444 19.101 32.6444 19.1012 32.6444 19.1014C32.6444 19.1015 32.6444 19.1017 32.6444 19.1019C32.6444 19.102 32.6444 19.1022 32.6444 19.1024C32.6444 19.1026 32.6444 19.1027 32.6444 19.1029C32.6444 19.1031 32.6444 19.1032 32.6444 19.1034C32.6444 19.1036 32.6444 19.1038 32.6444 19.1039C32.6444 19.1041 32.6444 19.1043 32.6444 19.1044C32.6444 19.1046 32.6444 19.1048 32.6444 19.105C32.6444 19.1051 32.6444 19.1053 32.6444 19.1055C32.6444 19.1057 32.6444 19.1058 32.6444 19.106C32.6444 19.1062 32.6444 19.1063 32.6444 19.1065C32.6444 19.1067 32.6444 19.1069 32.6444 19.107C32.6444 19.1072 32.6444 19.1074 32.6444 19.1076C32.6444 19.1077 32.6444 19.1079 32.6444 19.1081C32.6444 19.1083 32.6444 19.1084 32.6444 19.1086C32.6444 19.1088 32.6444 19.109 32.6444 19.1091C32.6444 19.1093 32.6444 19.1095 32.6444 19.1097C32.6444 19.1098 32.6444 19.11 32.6444 19.1102C32.6444 19.1104 32.6444 19.1105 32.6444 19.1107C32.6444 19.1109 32.6444 19.1111 32.6444 19.1112C32.6444 19.1114 32.6444 19.1116 32.6444 19.1118C32.6444 19.112 32.6444 19.1121 32.6444 19.1123C32.6444 19.1125 32.6444 19.1127 32.6444 19.1128C32.6444 19.113 32.6444 19.1132 32.6444 19.1134C32.6444 19.1135 32.6444 19.1137 32.6444 19.1139C32.6444 19.1141 32.6444 19.1143 32.6444 19.1144C32.6444 19.1146 32.6444 19.1148 32.6444 19.115C32.6444 19.1152 32.6444 19.1153 32.6444 19.1155C32.6444 19.1157 32.6444 19.1159 32.6444 19.116C32.6444 19.1162 32.6444 19.1164 32.6444 19.1166C32.6444 19.1168 32.6444 19.1169 32.6444 19.1171C32.6444 19.1173 32.6444 19.1175 32.6444 19.1177C32.6444 19.1178 32.6444 19.118 32.6444 19.1182C32.6444 19.1184 32.6444 19.1186 32.6444 19.1187C32.6444 19.1189 32.6444 19.1191 32.6444 19.1193C32.6444 19.1195 32.6444 19.1196 32.6444 19.1198C32.6444 19.12 32.6444 19.1202 32.6444 19.1204C32.6444 19.1205 32.6444 19.1207 32.6444 19.1209C32.6444 19.1211 32.6444 19.1213 32.6444 19.1215C32.6444 19.1216 32.6444 19.1218 32.6444 19.122C32.6444 19.1222 32.6444 19.1224 32.6444 19.1225C32.6444 19.1227 32.6444 19.1229 32.6444 19.1231C32.6444 19.1233 32.6444 19.1235 32.6444 19.1236C32.6444 19.1238 32.6444 19.124 32.6444 19.1242C32.6444 19.1244 32.6444 19.1246 32.6444 19.1247C32.6444 19.1249 32.6444 19.1251 32.6444 19.1253C32.6444 19.1255 32.6444 19.1257 32.6444 19.1258C32.6444 19.126 32.6444 19.1262 32.6444 19.1264C32.6444 19.1266 32.6444 19.1268 32.6444 19.1269C32.6444 19.1271 32.6444 19.1273 32.6444 19.1275C32.6444 19.1277 32.6444 19.1279 32.6444 19.128C32.6444 19.1282 32.6444 19.1284 32.6444 19.1286C32.6444 19.1288 32.6444 19.129 32.6444 19.1292C32.6444 19.1293 32.6444 19.1295 32.6444 19.1297C32.6444 19.1299 32.6444 19.1301 32.6444 19.1303C32.6444 19.1305 32.6444 19.1306 32.6444 19.1308C32.6444 19.131 32.6444 19.1312 32.6444 19.1314C32.6444 19.1316 32.6444 19.1318 32.6444 19.1319C32.6444 19.1321 32.6444 19.1323 32.6444 19.1325C32.6444 19.1327 32.6444 19.1329 32.6444 19.1331C32.6444 19.1332 32.6444 19.1334 32.6444 19.1336C32.6444 19.1338 32.6444 19.134 32.6444 19.1342C32.6444 19.1344 32.6444 19.1346 32.6444 19.1347C32.6444 19.1349 32.6444 19.1351 32.6444 19.1353C32.6444 19.1355 32.6444 19.1357 32.6444 19.1359C32.6444 19.1361 32.6444 19.1362 32.6444 19.1364C32.6444 19.1366 32.6444 19.1368 32.6444 19.137C32.6444 19.1372 32.6444 19.1374 32.6444 19.1376C32.6444 19.1377 32.6444 19.1379 32.6444 19.1381C32.6444 19.1383 32.6444 19.1385 32.6444 19.1387C32.6444 19.1389 32.6444 19.1391 32.6444 19.1393C32.6444 19.1394 32.6444 19.1396 32.6444 19.1398C32.6444 19.14 32.6444 19.1402 32.6444 19.1404C32.6444 19.1406 32.6444 19.1408 32.6444 19.141C32.6444 19.1412 32.6444 19.1413 32.6444 19.1415C32.6444 19.1417 32.6444 19.1419 32.6444 19.1421C32.6444 19.1423 32.6444 19.1425 32.6444 19.1427C32.6444 19.1429 32.6444 19.1431 32.6444 19.1432C32.6444 19.1434 32.6444 19.1436 32.6444 19.1438C32.6444 19.144 32.6444 19.1442 32.6444 19.1444C32.6444 19.1446 32.6444 19.1448 32.6444 19.145C32.6444 19.1452 32.6444 19.1453 32.6444 19.1455C32.6444 19.1457 32.6444 19.1459 32.6444 19.1461C32.6444 19.1463 32.6444 19.1465 32.6444 19.1467C32.6444 19.1469 32.6444 19.1471 32.6444 19.1473C32.6444 19.1475 32.6444 19.1476 32.6444 19.1478C32.6444 19.148 32.6444 19.1482 32.6444 19.1484C32.6444 19.1486 32.6444 19.1488 32.6444 19.149C32.6444 19.1492 32.6444 19.1494 32.6444 19.1496C32.6444 19.1498 32.6444 19.15 32.6444 19.1501C32.6444 19.1503 32.6444 19.1505 32.6444 19.1507C32.6444 19.1509 32.6444 19.1511 32.6444 19.1513C32.6444 19.1515 32.6444 19.1517 32.6444 19.1519C32.6444 19.1521 32.6444 19.1523 32.6444 19.1525C32.6444 19.1527 32.6444 19.1528 32.6444 19.153C32.6444 19.1532 32.6444 19.1534 32.6444 19.1536C32.6444 19.1538 32.6444 19.154 32.6444 19.1542C32.6444 19.1544 32.6444 19.1546 32.6444 19.1548C32.6444 19.155 32.6444 19.1552 32.6444 19.1554C32.6444 19.1556 32.6444 19.1558 32.6444 19.156C32.6444 19.1561 32.6444 19.1563 32.6444 19.1565C32.6444 19.1567 32.6444 19.1569 32.6444 19.1571C32.6444 19.1573 32.6444 19.1575 32.6444 19.1577C32.6444 19.1579 32.6444 19.1581 32.6444 19.1583C32.6444 19.1585 32.6444 19.1587 32.6444 19.1589C32.6444 19.1591 32.6444 19.1593 32.6444 19.1595C32.6444 19.1597 32.6444 19.1599 32.6444 19.1601C32.6444 19.1602 32.6444 19.1604 32.6444 19.1606C32.6444 19.1608 32.6444 19.161 32.6444 19.1612C32.6444 19.1614 32.6444 19.1616 32.6444 19.1618C32.6444 19.162 32.6444 19.1622 32.6444 19.1624C32.6444 19.1626 32.6444 19.1628 32.6444 19.163C32.6444 19.1632 32.6444 19.1634 32.6444 19.1636C32.6444 19.1638 32.6444 19.164 32.6444 19.1642C32.6444 19.1644 32.6444 19.1646 32.6444 19.1648C32.6444 19.165 32.6444 19.1652 32.6444 19.1653C32.6444 19.1655 32.6444 19.1657 32.6444 19.1659C32.6444 19.1661 32.6444 19.1663 32.6444 19.1665C32.6444 19.1667 32.6444 19.1669 32.6444 19.1671C32.6444 19.1673 32.6444 19.1675 32.6444 19.1677C32.6444 19.1679 32.6444 19.1681 32.6444 19.1683C32.6444 19.1685 32.6444 19.1687 32.6444 19.1689C32.6444 19.1691 32.6444 19.1693 32.6444 19.1695C32.6444 19.1697 32.6444 19.1699 32.6444 19.1701C32.6444 19.1703 32.6444 19.1705 32.6444 19.1707C32.6444 19.1709 32.6444 19.1711 32.6444 19.1713C32.6444 19.1715 32.6444 19.1717 32.6444 19.1719C32.6444 19.1721 32.6444 19.1723 32.6444 19.1725C32.6444 19.1727 32.6444 19.1729 32.6444 19.1731C32.6444 19.1733 32.6444 19.1735 32.6444 19.1737C32.6444 19.1739 32.6444 19.1741 32.6444 19.1743C32.6444 19.1745 32.6444 19.1747 32.6444 19.1749C32.6444 19.1751 32.6444 19.1753 32.6444 19.1755C32.6444 19.1756 32.6444 19.1758 32.6444 19.176C32.6444 19.1762 32.6444 19.1764 32.6444 19.1766C32.6444 19.1768 32.6444 19.177 32.6444 19.1772C32.6444 19.1774 32.6444 19.1776 32.6444 19.1778C32.6444 19.178 32.6444 19.1782 32.6444 19.1784C32.6444 19.1786 32.6444 19.1788 32.6444 19.179C32.6444 19.1792 32.6444 19.1794 32.6444 19.1796C32.6444 19.1798 32.6444 19.18 32.6444 19.1802C32.6444 19.1804 32.6444 19.1806 32.6444 19.1808C32.6444 19.181 32.6444 19.1812 32.6444 19.1814C32.6444 19.1816 32.6444 19.1818 32.6444 19.182C32.6444 19.1822 32.6444 19.1824 32.6444 19.1826C32.6444 19.1828 32.6444 19.183 32.6444 19.1832C32.6444 19.1834 32.6444 19.1836 32.6444 19.1838C32.6444 19.184 32.6444 19.1842 32.6444 19.1844C32.6444 19.1846 32.6444 19.1848 32.6444 19.185C32.6444 19.1852 32.6444 19.1854 32.6444 19.1856C32.6444 19.1859 32.6444 19.1861 32.6444 19.1863C32.6444 19.1865 32.6444 19.1867 32.6444 19.1869C32.6444 19.1871 32.6444 19.1873 32.6444 19.1875C32.6444 19.1877 32.6444 19.1879 32.6444 19.1881C32.6444 19.1883 32.6444 19.1885 32.6444 19.1887C32.6444 19.1889 32.6444 19.1891 32.6444 19.1893C32.6444 19.1895 32.6444 19.1897 32.6444 19.1899C32.6444 19.1901 32.6444 19.1903 32.6444 19.1905C32.6444 19.1907 32.6444 19.1909 32.6444 19.1911C32.6444 19.1913 32.6444 19.1915 32.6444 19.1917C32.6444 19.1919 32.6444 19.1921 32.6444 19.1923C32.6444 19.1925 32.6444 19.1927 32.6444 19.1929C32.6444 19.1931 32.6444 19.1933 32.6444 19.1935C32.6444 19.1937 32.6444 19.1939 32.6444 19.1941C32.6444 19.1943 32.6444 19.1945 32.6444 19.1947C32.6444 19.1949 32.6444 19.1951 32.6444 19.1953C32.6444 19.1955 32.6444 19.1957 32.6444 19.1959C32.6444 19.1961 32.6444 19.1963 32.6444 19.1965C32.6444 19.1967 32.6444 19.1969 32.6444 19.1971C32.6444 19.1973 32.6444 19.1975 32.6444 19.1977C32.6444 19.1979 32.6444 19.1981 32.6444 19.1983C32.6444 19.1986 32.6444 19.1988 32.6444 19.199C32.6444 19.1992 32.6444 19.1994 32.6444 19.1996C32.6444 19.1998 32.6444 19.2 32.6444 19.2002C32.6444 19.2004 32.6444 19.2006 32.6444 19.2008C32.6444 19.201 32.6444 19.2012 32.6444 19.2014C32.6444 19.2016 32.6444 19.2018 32.6444 19.202C32.6444 19.2022 32.6444 19.2024 32.6444 19.2026C32.6444 19.2028 32.6444 19.203 32.6444 19.2032C32.6444 19.2034 32.6444 19.2036 32.6444 19.2038C32.6444 19.204 32.6444 19.2042 32.6444 19.2044C32.6444 19.2046 32.6444 19.2048 32.6444 19.205C32.6444 19.2052 32.6444 19.2054 32.6444 19.2056C32.6444 19.2058 32.6444 19.206 32.6444 19.2062C32.6444 19.2065 32.6444 19.2067 32.6444 19.2069C32.6444 19.2071 32.6444 19.2073 32.6444 19.2075C32.6444 19.2077 32.6444 19.2079 32.6444 19.2081C32.6444 19.2083 32.6444 19.2085 32.6444 19.2087C32.6444 19.2089 32.6444 19.2091 32.6444 19.2093C32.6444 19.2095 32.6444 19.2097 32.6444 19.2099C32.6444 19.2101 32.6444 19.2103 32.6444 19.2105C32.6444 19.2107 32.6444 19.2109 32.6444 19.2111C32.6444 19.2113 32.6444 19.2115 32.6444 19.2117C32.6444 19.2119 32.6444 19.2121 32.6444 19.2123C32.6444 19.2125 32.6444 19.2127 32.6444 19.2129C32.6444 19.2132 32.6444 19.2134 32.6444 19.2136C32.6444 19.2138 32.6444 19.214 32.6444 19.2142C32.6444 19.2144 32.6444 19.2146 32.6444 19.2148C32.6444 19.215 32.6444 19.2152 32.6444 19.2154C32.6444 19.2156 32.6444 19.2158 32.6444 19.216C32.6444 19.2162 32.6444 19.2164 32.6444 19.2166C32.6444 19.2168 32.6444 19.217 32.6444 19.2172C32.6444 19.2174 32.6444 19.2176 32.6444 19.2178C32.6444 19.218 32.6444 19.2182 32.6444 19.2184C32.6444 19.2186 32.6444 19.2188 32.6444 19.219C32.6444 19.2192 32.6444 19.2194 32.6444 19.2197H34.6444Z" fill="#EF586A"/>
</svg>
