<svg width="60" height="20" viewBox="0 0 60 20" fill="none" xmlns="http://www.w3.org/2000/svg">
<g clip-path="url(#clip0_342_4027)">
<path d="M9.33492 19.9995C14.4905 19.9995 18.6698 16.3536 18.6698 11.8562C18.6698 7.35878 14.4905 3.71289 9.33492 3.71289C4.17939 3.71289 0 7.35878 0 11.8562C0 16.3536 4.17939 19.9995 9.33492 19.9995Z" fill="#EF586A"/>
<path d="M9.37577 8.14332H2.82495V3.25733C2.82495 1.45765 4.2907 0 6.10036 0C7.91003 0 9.37577 1.45765 9.37577 3.25733V8.14332Z" fill="#EF586A"/>
<path d="M15.8855 8.14332H9.33472V3.25733C9.33472 1.45765 10.8005 0 12.6101 0C14.4198 0 15.8855 1.45765 15.8855 3.25733V8.14332Z" fill="#EF586A"/>
<path d="M17.1876 20H9.35938V14.4463L17.4005 19.2427C17.7526 19.4544 17.597 20 17.1876 20Z" fill="#EF586A"/>
</g>
<g clip-path="url(#clip1_342_4027)">
<path d="M9.33492 19.9995C14.4905 19.9995 18.6698 16.3536 18.6698 11.8562C18.6698 7.35878 14.4905 3.71289 9.33492 3.71289C4.17939 3.71289 0 7.35878 0 11.8562C0 16.3536 4.17939 19.9995 9.33492 19.9995Z" fill="#EF586A"/>
<path d="M9.37577 8.14332H2.82495V3.25733C2.82495 1.45765 4.2907 0 6.10036 0C7.91003 0 9.37577 1.45765 9.37577 3.25733V8.14332Z" fill="#EF586A"/>
<path d="M15.8855 8.14332H9.33472V3.25733C9.33472 1.45765 10.8005 0 12.6101 0C14.4198 0 15.8855 1.45765 15.8855 3.25733V8.14332Z" fill="#EF586A"/>
<path d="M17.1876 20H9.35938V14.4463L17.4005 19.2427C17.7526 19.4544 17.597 20 17.1876 20Z" fill="#EF586A"/>
</g>
<path d="M25.5141 12.2049C31.0504 12.2049 33.4142 12.1024 35.0938 11.9177C35.6951 11.8562 35.9232 11.2819 35.861 10.687C35.7988 10.1536 35.4463 9.72288 34.8035 9.78442C34.4303 9.82544 34.0363 9.86647 33.6216 9.88698V4.24595H34.4925C35.1353 4.24595 35.4256 3.73313 35.4256 3.17929C35.4256 2.62544 35.1353 2.11262 34.4925 2.11262H25.6385C24.9958 2.11262 24.7055 2.62544 24.7055 3.17929C24.7055 3.73313 24.9958 4.24595 25.6385 4.24595H26.6131V10.0716H25.5141C24.8713 10.0716 24.5811 10.5844 24.5811 11.1383C24.5811 11.6921 24.8713 12.2049 25.5141 12.2049ZM29.1221 4.24595H31.1126V10.0101C30.4698 10.0511 29.8271 10.0511 29.1221 10.0511V4.24595ZM37.6649 13.7434C37.6649 14.5024 38.3077 14.8511 38.9713 14.8511C39.6348 14.8511 40.2776 14.5024 40.2776 13.7434V1.96903C40.2776 1.21006 39.6348 0.861338 38.9713 0.861338C38.3077 0.861338 37.6649 1.21006 37.6649 1.96903V4.02031H36.1928C35.55 4.02031 35.2597 4.53313 35.2597 5.128C35.2597 5.72288 35.55 6.2357 36.1928 6.2357H37.6649V7.40493H36.1928C35.55 7.40493 35.2597 7.91775 35.2597 8.51262C35.2597 9.10749 35.55 9.62031 36.1928 9.62031H37.6649V13.7434ZM39.8007 19.7331C40.4435 19.7331 40.7338 19.2203 40.7338 18.6254C40.7338 18.0101 40.4435 17.4972 39.8007 17.4972H30.8638C30.5113 17.4972 30.3869 17.3742 30.3869 17.0254V14.5639C30.3869 13.8049 29.7441 13.4562 29.0599 13.4562C28.3549 13.4562 27.7121 13.8049 27.7121 14.5639V18.0306C27.7121 19.3229 28.1475 19.7331 29.4746 19.7331H39.8007Z" fill="black"/>
<path d="M47.7662 6.58442C44.9255 6.58442 43.163 8.22544 43.163 10.7075C43.163 13.1895 44.9255 14.8306 47.7662 14.8306C50.6069 14.8306 52.3694 13.1895 52.3694 10.7075C52.3694 8.22544 50.6069 6.58442 47.7662 6.58442ZM42.9349 3.34339C42.2921 3.34339 42.0018 3.85621 42.0018 4.45108C42.0018 5.04595 42.2921 5.55877 42.9349 5.55877H52.3487C52.9915 5.55877 53.2818 5.04595 53.2818 4.45108C53.2818 3.85621 52.9915 3.34339 52.3487 3.34339H49.0933V1.92801C49.0933 1.16903 48.4505 0.820312 47.7662 0.820312C47.082 0.820312 46.4392 1.16903 46.4392 1.92801V3.34339H42.9349ZM47.7662 12.7383C46.4392 12.7383 45.5683 11.9588 45.5683 10.7075C45.5683 9.45621 46.4392 8.67672 47.7662 8.67672C49.0933 8.67672 49.9641 9.45621 49.9641 10.7075C49.9641 11.9588 49.0933 12.7383 47.7662 12.7383ZM57.097 1.96903C57.097 1.21006 56.4543 0.861338 55.7907 0.861338C55.1065 0.861338 54.4637 1.21006 54.4637 1.96903V17.6819C54.4637 18.4408 55.1065 18.7895 55.7907 18.7895C56.4543 18.7895 57.097 18.4408 57.097 17.6819V9.39467H59.0462C59.7097 9.39467 60 8.88185 60 8.24595C60 7.63057 59.7097 7.11775 59.0462 7.11775H57.097V1.96903Z" fill="black"/>
<defs>
<clipPath id="clip0_342_4027">
<rect width="18.6617" height="20" fill="white"/>
</clipPath>
<clipPath id="clip1_342_4027">
<rect width="18.6617" height="20" fill="white"/>
</clipPath>
</defs>
</svg>
