<svg width="25" height="22" viewBox="0 0 25 22" fill="none" xmlns="http://www.w3.org/2000/svg">
<path d="M22.4521 10.0116L21.4921 9.73161L21.4521 9.86873V10.0116H22.4521ZM22.7252 8.86705L23.4778 9.52548L23.6233 9.35916L23.6852 9.147L22.7252 8.86705ZM11.6217 7C11.6217 7.55228 12.0694 8 12.6217 8C13.174 8 13.6217 7.55228 13.6217 7H11.6217ZM2.4272 8.76301H3.4272V8.62018L3.38722 8.48306L2.4272 8.76301ZM2.51823 9.28324H1.51823V9.49238L1.60204 9.68399L2.51823 9.28324ZM2.70027 9.90752H3.70027V9.69838L3.61646 9.50676L2.70027 9.90752ZM2.79129 10.2197H1.79129V10.3911L1.84841 10.5528L2.79129 10.2197ZM12.6217 20L12.1385 20.8755L12.6217 21.1422L13.1048 20.8755L12.6217 20ZM22.4521 10.2197L23.395 10.5528L23.4521 10.3911V10.2197H22.4521ZM23.4121 10.2915C23.4691 10.0961 23.6341 9.67828 23.6341 9.17919H21.6341C21.6341 9.22888 21.6284 9.27158 21.61 9.34153C21.5993 9.38235 21.5854 9.42828 21.5644 9.4955C21.545 9.55771 21.5183 9.6418 21.4921 9.73161L23.4121 10.2915ZM23.6341 9.17919C23.6341 9.14865 23.6344 9.14995 23.6341 9.15576C23.6336 9.16517 23.6315 9.1953 23.6224 9.23678C23.6129 9.28019 23.5967 9.33195 23.5698 9.38662C23.5428 9.44147 23.5106 9.488 23.4778 9.52548L21.9725 8.20862C21.6133 8.61928 21.6341 9.07668 21.6341 9.17919H23.6341ZM23.6852 9.147C23.8235 8.67267 23.8162 8.21074 23.8162 7.82659H21.8162C21.8162 8.27481 21.8089 8.43716 21.7651 8.5871L23.6852 9.147ZM23.8162 7.82659C23.8162 4.17868 21.2143 1 17.7189 1V3C19.8669 3 21.8162 5.02364 21.8162 7.82659H23.8162ZM17.7189 1C16.1024 1 14.5723 1.50963 13.4356 2.55411C12.2867 3.60981 11.6217 5.13757 11.6217 7H13.6217C13.6217 5.637 14.0945 4.66476 14.7888 4.02681C15.4953 3.37766 16.5138 3 17.7189 3V1ZM13.6217 7C13.6217 5.13757 12.9567 3.60981 11.8078 2.55411C10.6711 1.50963 9.141 1 7.52445 1V3C8.72958 3 9.74812 3.37766 10.4546 4.02681C11.1489 4.66476 11.6217 5.637 11.6217 7H13.6217ZM7.52445 1C3.94875 1 1.33618 4.1665 1.33618 7.82659H3.33618C3.33618 5.03582 5.27473 3 7.52445 3V1ZM1.33618 7.82659V7.93064H3.33618V7.82659H1.33618ZM1.33618 7.93064C1.33618 8.24994 1.333 8.58278 1.46719 9.04295L3.38722 8.48306C3.33936 8.31895 3.33618 8.23561 3.33618 7.93064H1.33618ZM1.4272 8.76301C1.4272 9.02348 1.48937 9.22305 1.5127 9.30307C1.53488 9.37912 1.51823 9.33562 1.51823 9.28324H3.51823C3.51823 9.02277 3.45606 8.82319 3.43273 8.74317C3.41055 8.66712 3.4272 8.71063 3.4272 8.76301H1.4272ZM1.60204 9.68399C1.60199 9.68388 1.60699 9.69314 1.63234 9.80903C1.6525 9.90124 1.69302 10.1001 1.78408 10.3083L3.61646 9.50676C3.6165 9.50687 3.6115 9.49761 3.58616 9.38172C3.56599 9.28952 3.52548 9.09068 3.43441 8.88249L1.60204 9.68399ZM1.70027 9.90752C1.70027 10.0768 1.73688 10.2136 1.76432 10.2973C1.79033 10.3766 1.82194 10.4468 1.8296 10.4643C1.8447 10.4989 1.83584 10.4806 1.82689 10.4533C1.81652 10.4217 1.79129 10.3369 1.79129 10.2197H3.79129C3.79129 10.0504 3.75468 9.91354 3.72725 9.8299C3.70123 9.7506 3.66962 9.68032 3.66197 9.66283C3.64686 9.6283 3.65572 9.64655 3.66467 9.67383C3.67504 9.70545 3.70027 9.7903 3.70027 9.90752H1.70027ZM1.84841 10.5528C2.90272 13.537 5.55308 16.1294 7.79992 17.9207C8.94278 18.8318 10.022 19.5672 10.8155 20.0749C11.2128 20.3292 11.5398 20.5273 11.7693 20.6628C11.884 20.7305 11.9744 20.7827 12.0371 20.8184C12.0684 20.8362 12.0928 20.85 12.1099 20.8596C12.1184 20.8643 12.1251 20.8681 12.1299 20.8707C12.1323 20.8721 12.1342 20.8731 12.1356 20.8739C12.1364 20.8743 12.137 20.8747 12.1375 20.8749C12.1377 20.8751 12.138 20.8752 12.1381 20.8753C12.1383 20.8754 12.1385 20.8755 12.6217 20C13.1048 19.1245 13.105 19.1245 13.1051 19.1246L13.1052 19.1247C13.1052 19.1247 13.1051 19.1246 13.1049 19.1245C13.1044 19.1242 13.1034 19.1237 13.102 19.1229C13.0992 19.1213 13.0945 19.1187 13.088 19.115C13.0749 19.1077 13.0546 19.0963 13.0275 19.0808C12.9732 19.0499 12.8917 19.0029 12.7861 18.9406C12.575 18.8159 12.2685 18.6303 11.8935 18.3904C11.1425 17.9097 10.1225 17.2145 9.04667 16.3568C6.85617 14.6105 4.59134 12.3127 3.73418 9.88654L1.84841 10.5528ZM12.6217 20C13.1048 20.8755 13.1051 20.8754 13.1053 20.8753C13.1054 20.8752 13.1057 20.8751 13.1059 20.8749C13.1064 20.8747 13.107 20.8743 13.1077 20.8739C13.1092 20.8731 13.1111 20.8721 13.1135 20.8707C13.1183 20.8681 13.125 20.8643 13.1335 20.8596C13.1506 20.85 13.175 20.8362 13.2063 20.8184C13.269 20.7827 13.3594 20.7305 13.4741 20.6628C13.7035 20.5273 14.0306 20.3292 14.4279 20.0749C15.2214 19.5672 16.3006 18.8318 17.4435 17.9207C19.6903 16.1294 22.3407 13.537 23.395 10.5528L21.5092 9.88654C20.652 12.3127 18.3872 14.6105 16.1967 16.3568C15.1209 17.2145 14.1009 17.9097 13.3499 18.3904C12.9749 18.6303 12.6684 18.8159 12.4573 18.9406C12.3517 19.0029 12.2701 19.0499 12.2159 19.0808C12.1887 19.0963 12.1685 19.1077 12.1554 19.115C12.1489 19.1187 12.1442 19.1213 12.1414 19.1229C12.14 19.1237 12.139 19.1242 12.1385 19.1245C12.1383 19.1246 12.1382 19.1247 12.1382 19.1247L12.1383 19.1246C12.1384 19.1245 12.1385 19.1245 12.6217 20ZM23.4521 10.2197C23.4521 10.2194 23.4521 10.2192 23.4521 10.219C23.4521 10.2188 23.4521 10.2186 23.4521 10.2184C23.4521 10.2182 23.4521 10.218 23.4521 10.2178C23.4521 10.2176 23.4521 10.2174 23.4521 10.2172C23.4521 10.217 23.4521 10.2168 23.4521 10.2166C23.4521 10.2164 23.4521 10.2162 23.4521 10.216C23.4521 10.2158 23.4521 10.2156 23.4521 10.2154C23.4521 10.2152 23.4521 10.215 23.4521 10.2148C23.4521 10.2146 23.4521 10.2144 23.4521 10.2142C23.4521 10.214 23.4521 10.2138 23.4521 10.2136C23.4521 10.2134 23.4521 10.2132 23.4521 10.2129C23.4521 10.2127 23.4521 10.2125 23.4521 10.2123C23.4521 10.2121 23.4521 10.2119 23.4521 10.2117C23.4521 10.2115 23.4521 10.2113 23.4521 10.2111C23.4521 10.2109 23.4521 10.2107 23.4521 10.2105C23.4521 10.2103 23.4521 10.2101 23.4521 10.2099C23.4521 10.2097 23.4521 10.2095 23.4521 10.2093C23.4521 10.2091 23.4521 10.2089 23.4521 10.2087C23.4521 10.2085 23.4521 10.2083 23.4521 10.2081C23.4521 10.2079 23.4521 10.2077 23.4521 10.2075C23.4521 10.2073 23.4521 10.2071 23.4521 10.2069C23.4521 10.2067 23.4521 10.2065 23.4521 10.2062C23.4521 10.206 23.4521 10.2058 23.4521 10.2056C23.4521 10.2054 23.4521 10.2052 23.4521 10.205C23.4521 10.2048 23.4521 10.2046 23.4521 10.2044C23.4521 10.2042 23.4521 10.204 23.4521 10.2038C23.4521 10.2036 23.4521 10.2034 23.4521 10.2032C23.4521 10.203 23.4521 10.2028 23.4521 10.2026C23.4521 10.2024 23.4521 10.2022 23.4521 10.202C23.4521 10.2018 23.4521 10.2016 23.4521 10.2014C23.4521 10.2012 23.4521 10.201 23.4521 10.2008C23.4521 10.2006 23.4521 10.2004 23.4521 10.2002C23.4521 10.2 23.4521 10.1998 23.4521 10.1996C23.4521 10.1994 23.4521 10.1992 23.4521 10.199C23.4521 10.1988 23.4521 10.1986 23.4521 10.1983C23.4521 10.1981 23.4521 10.1979 23.4521 10.1977C23.4521 10.1975 23.4521 10.1973 23.4521 10.1971C23.4521 10.1969 23.4521 10.1967 23.4521 10.1965C23.4521 10.1963 23.4521 10.1961 23.4521 10.1959C23.4521 10.1957 23.4521 10.1955 23.4521 10.1953C23.4521 10.1951 23.4521 10.1949 23.4521 10.1947C23.4521 10.1945 23.4521 10.1943 23.4521 10.1941C23.4521 10.1939 23.4521 10.1937 23.4521 10.1935C23.4521 10.1933 23.4521 10.1931 23.4521 10.1929C23.4521 10.1927 23.4521 10.1925 23.4521 10.1923C23.4521 10.1921 23.4521 10.1919 23.4521 10.1917C23.4521 10.1915 23.4521 10.1913 23.4521 10.1911C23.4521 10.1909 23.4521 10.1907 23.4521 10.1905C23.4521 10.1903 23.4521 10.1901 23.4521 10.1899C23.4521 10.1897 23.4521 10.1895 23.4521 10.1893C23.4521 10.1891 23.4521 10.1889 23.4521 10.1887C23.4521 10.1885 23.4521 10.1883 23.4521 10.1881C23.4521 10.1879 23.4521 10.1877 23.4521 10.1875C23.4521 10.1873 23.4521 10.1871 23.4521 10.1869C23.4521 10.1867 23.4521 10.1865 23.4521 10.1863C23.4521 10.1861 23.4521 10.1859 23.4521 10.1856C23.4521 10.1854 23.4521 10.1852 23.4521 10.185C23.4521 10.1848 23.4521 10.1846 23.4521 10.1844C23.4521 10.1842 23.4521 10.184 23.4521 10.1838C23.4521 10.1836 23.4521 10.1834 23.4521 10.1832C23.4521 10.183 23.4521 10.1828 23.4521 10.1826C23.4521 10.1824 23.4521 10.1822 23.4521 10.182C23.4521 10.1818 23.4521 10.1816 23.4521 10.1814C23.4521 10.1812 23.4521 10.181 23.4521 10.1808C23.4521 10.1806 23.4521 10.1804 23.4521 10.1802C23.4521 10.18 23.4521 10.1798 23.4521 10.1796C23.4521 10.1794 23.4521 10.1792 23.4521 10.179C23.4521 10.1788 23.4521 10.1786 23.4521 10.1784C23.4521 10.1782 23.4521 10.178 23.4521 10.1778C23.4521 10.1776 23.4521 10.1774 23.4521 10.1772C23.4521 10.177 23.4521 10.1768 23.4521 10.1766C23.4521 10.1764 23.4521 10.1762 23.4521 10.176C23.4521 10.1758 23.4521 10.1756 23.4521 10.1755C23.4521 10.1753 23.4521 10.1751 23.4521 10.1749C23.4521 10.1747 23.4521 10.1745 23.4521 10.1743C23.4521 10.1741 23.4521 10.1739 23.4521 10.1737C23.4521 10.1735 23.4521 10.1733 23.4521 10.1731C23.4521 10.1729 23.4521 10.1727 23.4521 10.1725C23.4521 10.1723 23.4521 10.1721 23.4521 10.1719C23.4521 10.1717 23.4521 10.1715 23.4521 10.1713C23.4521 10.1711 23.4521 10.1709 23.4521 10.1707C23.4521 10.1705 23.4521 10.1703 23.4521 10.1701C23.4521 10.1699 23.4521 10.1697 23.4521 10.1695C23.4521 10.1693 23.4521 10.1691 23.4521 10.1689C23.4521 10.1687 23.4521 10.1685 23.4521 10.1683C23.4521 10.1681 23.4521 10.1679 23.4521 10.1677C23.4521 10.1675 23.4521 10.1673 23.4521 10.1671C23.4521 10.1669 23.4521 10.1667 23.4521 10.1665C23.4521 10.1663 23.4521 10.1661 23.4521 10.1659C23.4521 10.1657 23.4521 10.1655 23.4521 10.1653C23.4521 10.1652 23.4521 10.165 23.4521 10.1648C23.4521 10.1646 23.4521 10.1644 23.4521 10.1642C23.4521 10.164 23.4521 10.1638 23.4521 10.1636C23.4521 10.1634 23.4521 10.1632 23.4521 10.163C23.4521 10.1628 23.4521 10.1626 23.4521 10.1624C23.4521 10.1622 23.4521 10.162 23.4521 10.1618C23.4521 10.1616 23.4521 10.1614 23.4521 10.1612C23.4521 10.161 23.4521 10.1608 23.4521 10.1606C23.4521 10.1604 23.4521 10.1602 23.4521 10.1601C23.4521 10.1599 23.4521 10.1597 23.4521 10.1595C23.4521 10.1593 23.4521 10.1591 23.4521 10.1589C23.4521 10.1587 23.4521 10.1585 23.4521 10.1583C23.4521 10.1581 23.4521 10.1579 23.4521 10.1577C23.4521 10.1575 23.4521 10.1573 23.4521 10.1571C23.4521 10.1569 23.4521 10.1567 23.4521 10.1565C23.4521 10.1563 23.4521 10.1561 23.4521 10.156C23.4521 10.1558 23.4521 10.1556 23.4521 10.1554C23.4521 10.1552 23.4521 10.155 23.4521 10.1548C23.4521 10.1546 23.4521 10.1544 23.4521 10.1542C23.4521 10.154 23.4521 10.1538 23.4521 10.1536C23.4521 10.1534 23.4521 10.1532 23.4521 10.153C23.4521 10.1528 23.4521 10.1527 23.4521 10.1525C23.4521 10.1523 23.4521 10.1521 23.4521 10.1519C23.4521 10.1517 23.4521 10.1515 23.4521 10.1513C23.4521 10.1511 23.4521 10.1509 23.4521 10.1507C23.4521 10.1505 23.4521 10.1503 23.4521 10.1501C23.4521 10.15 23.4521 10.1498 23.4521 10.1496C23.4521 10.1494 23.4521 10.1492 23.4521 10.149C23.4521 10.1488 23.4521 10.1486 23.4521 10.1484C23.4521 10.1482 23.4521 10.148 23.4521 10.1478C23.4521 10.1476 23.4521 10.1475 23.4521 10.1473C23.4521 10.1471 23.4521 10.1469 23.4521 10.1467C23.4521 10.1465 23.4521 10.1463 23.4521 10.1461C23.4521 10.1459 23.4521 10.1457 23.4521 10.1455C23.4521 10.1453 23.4521 10.1452 23.4521 10.145C23.4521 10.1448 23.4521 10.1446 23.4521 10.1444C23.4521 10.1442 23.4521 10.144 23.4521 10.1438C23.4521 10.1436 23.4521 10.1434 23.4521 10.1432C23.4521 10.1431 23.4521 10.1429 23.4521 10.1427C23.4521 10.1425 23.4521 10.1423 23.4521 10.1421C23.4521 10.1419 23.4521 10.1417 23.4521 10.1415C23.4521 10.1413 23.4521 10.1412 23.4521 10.141C23.4521 10.1408 23.4521 10.1406 23.4521 10.1404C23.4521 10.1402 23.4521 10.14 23.4521 10.1398C23.4521 10.1396 23.4521 10.1394 23.4521 10.1393C23.4521 10.1391 23.4521 10.1389 23.4521 10.1387C23.4521 10.1385 23.4521 10.1383 23.4521 10.1381C23.4521 10.1379 23.4521 10.1377 23.4521 10.1376C23.4521 10.1374 23.4521 10.1372 23.4521 10.137C23.4521 10.1368 23.4521 10.1366 23.4521 10.1364C23.4521 10.1362 23.4521 10.1361 23.4521 10.1359C23.4521 10.1357 23.4521 10.1355 23.4521 10.1353C23.4521 10.1351 23.4521 10.1349 23.4521 10.1347C23.4521 10.1346 23.4521 10.1344 23.4521 10.1342C23.4521 10.134 23.4521 10.1338 23.4521 10.1336C23.4521 10.1334 23.4521 10.1332 23.4521 10.1331C23.4521 10.1329 23.4521 10.1327 23.4521 10.1325C23.4521 10.1323 23.4521 10.1321 23.4521 10.1319C23.4521 10.1318 23.4521 10.1316 23.4521 10.1314C23.4521 10.1312 23.4521 10.131 23.4521 10.1308C23.4521 10.1306 23.4521 10.1305 23.4521 10.1303C23.4521 10.1301 23.4521 10.1299 23.4521 10.1297C23.4521 10.1295 23.4521 10.1293 23.4521 10.1292C23.4521 10.129 23.4521 10.1288 23.4521 10.1286C23.4521 10.1284 23.4521 10.1282 23.4521 10.128C23.4521 10.1279 23.4521 10.1277 23.4521 10.1275C23.4521 10.1273 23.4521 10.1271 23.4521 10.1269C23.4521 10.1268 23.4521 10.1266 23.4521 10.1264C23.4521 10.1262 23.4521 10.126 23.4521 10.1258C23.4521 10.1257 23.4521 10.1255 23.4521 10.1253C23.4521 10.1251 23.4521 10.1249 23.4521 10.1247C23.4521 10.1246 23.4521 10.1244 23.4521 10.1242C23.4521 10.124 23.4521 10.1238 23.4521 10.1236C23.4521 10.1235 23.4521 10.1233 23.4521 10.1231C23.4521 10.1229 23.4521 10.1227 23.4521 10.1225C23.4521 10.1224 23.4521 10.1222 23.4521 10.122C23.4521 10.1218 23.4521 10.1216 23.4521 10.1215C23.4521 10.1213 23.4521 10.1211 23.4521 10.1209C23.4521 10.1207 23.4521 10.1205 23.4521 10.1204C23.4521 10.1202 23.4521 10.12 23.4521 10.1198C23.4521 10.1196 23.4521 10.1195 23.4521 10.1193C23.4521 10.1191 23.4521 10.1189 23.4521 10.1187C23.4521 10.1186 23.4521 10.1184 23.4521 10.1182C23.4521 10.118 23.4521 10.1178 23.4521 10.1177C23.4521 10.1175 23.4521 10.1173 23.4521 10.1171C23.4521 10.1169 23.4521 10.1168 23.4521 10.1166C23.4521 10.1164 23.4521 10.1162 23.4521 10.116C23.4521 10.1159 23.4521 10.1157 23.4521 10.1155C23.4521 10.1153 23.4521 10.1152 23.4521 10.115C23.4521 10.1148 23.4521 10.1146 23.4521 10.1144C23.4521 10.1143 23.4521 10.1141 23.4521 10.1139C23.4521 10.1137 23.4521 10.1135 23.4521 10.1134C23.4521 10.1132 23.4521 10.113 23.4521 10.1128C23.4521 10.1127 23.4521 10.1125 23.4521 10.1123C23.4521 10.1121 23.4521 10.112 23.4521 10.1118C23.4521 10.1116 23.4521 10.1114 23.4521 10.1112C23.4521 10.1111 23.4521 10.1109 23.4521 10.1107C23.4521 10.1105 23.4521 10.1104 23.4521 10.1102C23.4521 10.11 23.4521 10.1098 23.4521 10.1097C23.4521 10.1095 23.4521 10.1093 23.4521 10.1091C23.4521 10.109 23.4521 10.1088 23.4521 10.1086C23.4521 10.1084 23.4521 10.1083 23.4521 10.1081C23.4521 10.1079 23.4521 10.1077 23.4521 10.1076C23.4521 10.1074 23.4521 10.1072 23.4521 10.107C23.4521 10.1069 23.4521 10.1067 23.4521 10.1065C23.4521 10.1063 23.4521 10.1062 23.4521 10.106C23.4521 10.1058 23.4521 10.1057 23.4521 10.1055C23.4521 10.1053 23.4521 10.1051 23.4521 10.105C23.4521 10.1048 23.4521 10.1046 23.4521 10.1044C23.4521 10.1043 23.4521 10.1041 23.4521 10.1039C23.4521 10.1038 23.4521 10.1036 23.4521 10.1034C23.4521 10.1032 23.4521 10.1031 23.4521 10.1029C23.4521 10.1027 23.4521 10.1026 23.4521 10.1024C23.4521 10.1022 23.4521 10.102 23.4521 10.1019C23.4521 10.1017 23.4521 10.1015 23.4521 10.1014C23.4521 10.1012 23.4521 10.101 23.4521 10.1008C23.4521 10.1007 23.4521 10.1005 23.4521 10.1003C23.4521 10.1002 23.4521 10.1 23.4521 10.0998C23.4521 10.0997 23.4521 10.0995 23.4521 10.0993C23.4521 10.0991 23.4521 10.099 23.4521 10.0988C23.4521 10.0986 23.4521 10.0985 23.4521 10.0983C23.4521 10.0981 23.4521 10.098 23.4521 10.0978C23.4521 10.0976 23.4521 10.0975 23.4521 10.0973C23.4521 10.0971 23.4521 10.097 23.4521 10.0968C23.4521 10.0966 23.4521 10.0965 23.4521 10.0963C23.4521 10.0961 23.4521 10.0959 23.4521 10.0958C23.4521 10.0956 23.4521 10.0954 23.4521 10.0953C23.4521 10.0951 23.4521 10.0949 23.4521 10.0948C23.4521 10.0946 23.4521 10.0944 23.4521 10.0943C23.4521 10.0941 23.4521 10.094 23.4521 10.0938C23.4521 10.0936 23.4521 10.0935 23.4521 10.0933C23.4521 10.0931 23.4521 10.093 23.4521 10.0928C23.4521 10.0926 23.4521 10.0925 23.4521 10.0923C23.4521 10.0921 23.4521 10.092 23.4521 10.0918C23.4521 10.0916 23.4521 10.0915 23.4521 10.0913C23.4521 10.0911 23.4521 10.091 23.4521 10.0908C23.4521 10.0907 23.4521 10.0905 23.4521 10.0903C23.4521 10.0902 23.4521 10.09 23.4521 10.0898C23.4521 10.0897 23.4521 10.0895 23.4521 10.0894C23.4521 10.0892 23.4521 10.089 23.4521 10.0889C23.4521 10.0887 23.4521 10.0885 23.4521 10.0884C23.4521 10.0882 23.4521 10.0881 23.4521 10.0879C23.4521 10.0877 23.4521 10.0876 23.4521 10.0874C23.4521 10.0873 23.4521 10.0871 23.4521 10.0869C23.4521 10.0868 23.4521 10.0866 23.4521 10.0864C23.4521 10.0863 23.4521 10.0861 23.4521 10.086C23.4521 10.0858 23.4521 10.0856 23.4521 10.0855C23.4521 10.0853 23.4521 10.0852 23.4521 10.085C23.4521 10.0848 23.4521 10.0847 23.4521 10.0845C23.4521 10.0844 23.4521 10.0842 23.4521 10.0841C23.4521 10.0839 23.4521 10.0837 23.4521 10.0836C23.4521 10.0834 23.4521 10.0833 23.4521 10.0831C23.4521 10.0829 23.4521 10.0828 23.4521 10.0826C23.4521 10.0825 23.4521 10.0823 23.4521 10.0822C23.4521 10.082 23.4521 10.0818 23.4521 10.0817C23.4521 10.0815 23.4521 10.0814 23.4521 10.0812C23.4521 10.0811 23.4521 10.0809 23.4521 10.0808C23.4521 10.0806 23.4521 10.0804 23.4521 10.0803C23.4521 10.0801 23.4521 10.08 23.4521 10.0798C23.4521 10.0797 23.4521 10.0795 23.4521 10.0794C23.4521 10.0792 23.4521 10.079 23.4521 10.0789C23.4521 10.0787 23.4521 10.0786 23.4521 10.0784C23.4521 10.0783 23.4521 10.0781 23.4521 10.078C23.4521 10.0778 23.4521 10.0777 23.4521 10.0775C23.4521 10.0774 23.4521 10.0772 23.4521 10.077C23.4521 10.0769 23.4521 10.0767 23.4521 10.0766C23.4521 10.0764 23.4521 10.0763 23.4521 10.0761C23.4521 10.076 23.4521 10.0758 23.4521 10.0757C23.4521 10.0755 23.4521 10.0754 23.4521 10.0752C23.4521 10.0751 23.4521 10.0749 23.4521 10.0748C23.4521 10.0746 23.4521 10.0745 23.4521 10.0743C23.4521 10.0742 23.4521 10.074 23.4521 10.0739C23.4521 10.0737 23.4521 10.0736 23.4521 10.0734C23.4521 10.0733 23.4521 10.0731 23.4521 10.073C23.4521 10.0728 23.4521 10.0727 23.4521 10.0725C23.4521 10.0724 23.4521 10.0722 23.4521 10.0721C23.4521 10.0719 23.4521 10.0718 23.4521 10.0716C23.4521 10.0715 23.4521 10.0713 23.4521 10.0712C23.4521 10.071 23.4521 10.0709 23.4521 10.0707C23.4521 10.0706 23.4521 10.0705 23.4521 10.0703C23.4521 10.0702 23.4521 10.07 23.4521 10.0699C23.4521 10.0697 23.4521 10.0696 23.4521 10.0694C23.4521 10.0693 23.4521 10.0691 23.4521 10.069C23.4521 10.0688 23.4521 10.0687 23.4521 10.0686C23.4521 10.0684 23.4521 10.0683 23.4521 10.0681C23.4521 10.068 23.4521 10.0678 23.4521 10.0677C23.4521 10.0675 23.4521 10.0674 23.4521 10.0673C23.4521 10.0671 23.4521 10.067 23.4521 10.0668C23.4521 10.0667 23.4521 10.0665 23.4521 10.0664C23.4521 10.0663 23.4521 10.0661 23.4521 10.066C23.4521 10.0658 23.4521 10.0657 23.4521 10.0655C23.4521 10.0654 23.4521 10.0653 23.4521 10.0651C23.4521 10.065 23.4521 10.0648 23.4521 10.0647C23.4521 10.0646 23.4521 10.0644 23.4521 10.0643C23.4521 10.0641 23.4521 10.064 23.4521 10.0638C23.4521 10.0637 23.4521 10.0636 23.4521 10.0634C23.4521 10.0633 23.4521 10.0632 23.4521 10.063C23.4521 10.0629 23.4521 10.0627 23.4521 10.0626C23.4521 10.0625 23.4521 10.0623 23.4521 10.0622C23.4521 10.062 23.4521 10.0619 23.4521 10.0618C23.4521 10.0616 23.4521 10.0615 23.4521 10.0613C23.4521 10.0612 23.4521 10.0611 23.4521 10.0609C23.4521 10.0608 23.4521 10.0607 23.4521 10.0605C23.4521 10.0604 23.4521 10.0603 23.4521 10.0601C23.4521 10.06 23.4521 10.0598 23.4521 10.0597C23.4521 10.0596 23.4521 10.0594 23.4521 10.0593C23.4521 10.0592 23.4521 10.059 23.4521 10.0589C23.4521 10.0588 23.4521 10.0586 23.4521 10.0585C23.4521 10.0584 23.4521 10.0582 23.4521 10.0581C23.4521 10.058 23.4521 10.0578 23.4521 10.0577C23.4521 10.0576 23.4521 10.0574 23.4521 10.0573C23.4521 10.0572 23.4521 10.057 23.4521 10.0569C23.4521 10.0568 23.4521 10.0566 23.4521 10.0565C23.4521 10.0564 23.4521 10.0562 23.4521 10.0561C23.4521 10.056 23.4521 10.0558 23.4521 10.0557C23.4521 10.0556 23.4521 10.0554 23.4521 10.0553C23.4521 10.0552 23.4521 10.0551 23.4521 10.0549C23.4521 10.0548 23.4521 10.0547 23.4521 10.0545C23.4521 10.0544 23.4521 10.0543 23.4521 10.0541C23.4521 10.054 23.4521 10.0539 23.4521 10.0538C23.4521 10.0536 23.4521 10.0535 23.4521 10.0534C23.4521 10.0532 23.4521 10.0531 23.4521 10.053C23.4521 10.0529 23.4521 10.0527 23.4521 10.0526C23.4521 10.0525 23.4521 10.0524 23.4521 10.0522C23.4521 10.0521 23.4521 10.052 23.4521 10.0518C23.4521 10.0517 23.4521 10.0516 23.4521 10.0515C23.4521 10.0513 23.4521 10.0512 23.4521 10.0511C23.4521 10.051 23.4521 10.0508 23.4521 10.0507C23.4521 10.0506 23.4521 10.0505 23.4521 10.0503C23.4521 10.0502 23.4521 10.0501 23.4521 10.05C23.4521 10.0498 23.4521 10.0497 23.4521 10.0496C23.4521 10.0495 23.4521 10.0494 23.4521 10.0492C23.4521 10.0491 23.4521 10.049 23.4521 10.0489C23.4521 10.0487 23.4521 10.0486 23.4521 10.0485C23.4521 10.0484 23.4521 10.0483 23.4521 10.0481C23.4521 10.048 23.4521 10.0479 23.4521 10.0478C23.4521 10.0476 23.4521 10.0475 23.4521 10.0474C23.4521 10.0473 23.4521 10.0472 23.4521 10.047C23.4521 10.0469 23.4521 10.0468 23.4521 10.0467C23.4521 10.0466 23.4521 10.0464 23.4521 10.0463C23.4521 10.0462 23.4521 10.0461 23.4521 10.046C23.4521 10.0459 23.4521 10.0457 23.4521 10.0456C23.4521 10.0455 23.4521 10.0454 23.4521 10.0453C23.4521 10.0451 23.4521 10.045 23.4521 10.0449C23.4521 10.0448 23.4521 10.0447 23.4521 10.0446C23.4521 10.0444 23.4521 10.0443 23.4521 10.0442C23.4521 10.0441 23.4521 10.044 23.4521 10.0439C23.4521 10.0438 23.4521 10.0436 23.4521 10.0435C23.4521 10.0434 23.4521 10.0433 23.4521 10.0432C23.4521 10.0431 23.4521 10.043 23.4521 10.0428C23.4521 10.0427 23.4521 10.0426 23.4521 10.0425C23.4521 10.0424 23.4521 10.0423 23.4521 10.0422C23.4521 10.0421 23.4521 10.0419 23.4521 10.0418C23.4521 10.0417 23.4521 10.0416 23.4521 10.0415C23.4521 10.0414 23.4521 10.0413 23.4521 10.0412C23.4521 10.041 23.4521 10.0409 23.4521 10.0408C23.4521 10.0407 23.4521 10.0406 23.4521 10.0405C23.4521 10.0404 23.4521 10.0403 23.4521 10.0402C23.4521 10.0401 23.4521 10.0399 23.4521 10.0398C23.4521 10.0397 23.4521 10.0396 23.4521 10.0395C23.4521 10.0394 23.4521 10.0393 23.4521 10.0392C23.4521 10.0391 23.4521 10.039 23.4521 10.0389C23.4521 10.0388 23.4521 10.0387 23.4521 10.0385C23.4521 10.0384 23.4521 10.0383 23.4521 10.0382C23.4521 10.0381 23.4521 10.038 23.4521 10.0379C23.4521 10.0378 23.4521 10.0377 23.4521 10.0376C23.4521 10.0375 23.4521 10.0374 23.4521 10.0373C23.4521 10.0372 23.4521 10.0371 23.4521 10.037C23.4521 10.0369 23.4521 10.0368 23.4521 10.0367C23.4521 10.0366 23.4521 10.0365 23.4521 10.0363C23.4521 10.0362 23.4521 10.0361 23.4521 10.036C23.4521 10.0359 23.4521 10.0358 23.4521 10.0357C23.4521 10.0356 23.4521 10.0355 23.4521 10.0354C23.4521 10.0353 23.4521 10.0352 23.4521 10.0351C23.4521 10.035 23.4521 10.0349 23.4521 10.0348C23.4521 10.0347 23.4521 10.0346 23.4521 10.0345C23.4521 10.0344 23.4521 10.0343 23.4521 10.0342C23.4521 10.0341 23.4521 10.034 23.4521 10.0339C23.4521 10.0338 23.4521 10.0337 23.4521 10.0336C23.4521 10.0335 23.4521 10.0334 23.4521 10.0334C23.4521 10.0333 23.4521 10.0332 23.4521 10.0331C23.4521 10.033 23.4521 10.0329 23.4521 10.0328C23.4521 10.0327 23.4521 10.0326 23.4521 10.0325C23.4521 10.0324 23.4521 10.0323 23.4521 10.0322C23.4521 10.0321 23.4521 10.032 23.4521 10.0319C23.4521 10.0318 23.4521 10.0317 23.4521 10.0316C23.4521 10.0315 23.4521 10.0314 23.4521 10.0314C23.4521 10.0313 23.4521 10.0312 23.4521 10.0311C23.4521 10.031 23.4521 10.0309 23.4521 10.0308C23.4521 10.0307 23.4521 10.0306 23.4521 10.0305C23.4521 10.0304 23.4521 10.0303 23.4521 10.0303C23.4521 10.0302 23.4521 10.0301 23.4521 10.03C23.4521 10.0299 23.4521 10.0298 23.4521 10.0297C23.4521 10.0296 23.4521 10.0295 23.4521 10.0294C23.4521 10.0294 23.4521 10.0293 23.4521 10.0292C23.4521 10.0291 23.4521 10.029 23.4521 10.0289C23.4521 10.0288 23.4521 10.0287 23.4521 10.0287C23.4521 10.0286 23.4521 10.0285 23.4521 10.0284C23.4521 10.0283 23.4521 10.0282 23.4521 10.0281C23.4521 10.028 23.4521 10.028 23.4521 10.0279C23.4521 10.0278 23.4521 10.0277 23.4521 10.0276C23.4521 10.0275 23.4521 10.0275 23.4521 10.0274C23.4521 10.0273 23.4521 10.0272 23.4521 10.0271C23.4521 10.027 23.4521 10.0269 23.4521 10.0269C23.4521 10.0268 23.4521 10.0267 23.4521 10.0266C23.4521 10.0265 23.4521 10.0265 23.4521 10.0264C23.4521 10.0263 23.4521 10.0262 23.4521 10.0261C23.4521 10.026 23.4521 10.026 23.4521 10.0259C23.4521 10.0258 23.4521 10.0257 23.4521 10.0256C23.4521 10.0256 23.4521 10.0255 23.4521 10.0254C23.4521 10.0253 23.4521 10.0253 23.4521 10.0252C23.4521 10.0251 23.4521 10.025 23.4521 10.0249C23.4521 10.0249 23.4521 10.0248 23.4521 10.0247C23.4521 10.0246 23.4521 10.0245 23.4521 10.0245C23.4521 10.0244 23.4521 10.0243 23.4521 10.0242C23.4521 10.0242 23.4521 10.0241 23.4521 10.024C23.4521 10.0239 23.4521 10.0239 23.4521 10.0238C23.4521 10.0237 23.4521 10.0236 23.4521 10.0236C23.4521 10.0235 23.4521 10.0234 23.4521 10.0233C23.4521 10.0233 23.4521 10.0232 23.4521 10.0231C23.4521 10.0231 23.4521 10.023 23.4521 10.0229C23.4521 10.0228 23.4521 10.0228 23.4521 10.0227C23.4521 10.0226 23.4521 10.0226 23.4521 10.0225C23.4521 10.0224 23.4521 10.0223 23.4521 10.0223C23.4521 10.0222 23.4521 10.0221 23.4521 10.0221C23.4521 10.022 23.4521 10.0219 23.4521 10.0218C23.4521 10.0218 23.4521 10.0217 23.4521 10.0216C23.4521 10.0216 23.4521 10.0215 23.4521 10.0214C23.4521 10.0214 23.4521 10.0213 23.4521 10.0212C23.4521 10.0212 23.4521 10.0211 23.4521 10.021C23.4521 10.021 23.4521 10.0209 23.4521 10.0208C23.4521 10.0208 23.4521 10.0207 23.4521 10.0206C23.4521 10.0206 23.4521 10.0205 23.4521 10.0204C23.4521 10.0204 23.4521 10.0203 23.4521 10.0203C23.4521 10.0202 23.4521 10.0201 23.4521 10.0201C23.4521 10.02 23.4521 10.0199 23.4521 10.0199C23.4521 10.0198 23.4521 10.0197 23.4521 10.0197C23.4521 10.0196 23.4521 10.0196 23.4521 10.0195C23.4521 10.0194 23.4521 10.0194 23.4521 10.0193C23.4521 10.0193 23.4521 10.0192 23.4521 10.0191C23.4521 10.0191 23.4521 10.019 23.4521 10.019C23.4521 10.0189 23.4521 10.0188 23.4521 10.0188C23.4521 10.0187 23.4521 10.0187 23.4521 10.0186C23.4521 10.0186 23.4521 10.0185 23.4521 10.0184C23.4521 10.0184 23.4521 10.0183 23.4521 10.0183C23.4521 10.0182 23.4521 10.0182 23.4521 10.0181C23.4521 10.018 23.4521 10.018 23.4521 10.0179C23.4521 10.0179 23.4521 10.0178 23.4521 10.0178C23.4521 10.0177 23.4521 10.0177 23.4521 10.0176C23.4521 10.0176 23.4521 10.0175 23.4521 10.0174C23.4521 10.0174 23.4521 10.0173 23.4521 10.0173C23.4521 10.0172 23.4521 10.0172 23.4521 10.0171C23.4521 10.0171 23.4521 10.017 23.4521 10.017C23.4521 10.0169 23.4521 10.0169 23.4521 10.0168C23.4521 10.0168 23.4521 10.0167 23.4521 10.0167C23.4521 10.0166 23.4521 10.0166 23.4521 10.0165C23.4521 10.0165 23.4521 10.0164 23.4521 10.0164C23.4521 10.0163 23.4521 10.0163 23.4521 10.0162C23.4521 10.0162 23.4521 10.0161 23.4521 10.0161C23.4521 10.016 23.4521 10.016 23.4521 10.016C23.4521 10.0159 23.4521 10.0159 23.4521 10.0158C23.4521 10.0158 23.4521 10.0157 23.4521 10.0157C23.4521 10.0156 23.4521 10.0156 23.4521 10.0155C23.4521 10.0155 23.4521 10.0155 23.4521 10.0154C23.4521 10.0154 23.4521 10.0153 23.4521 10.0153C23.4521 10.0152 23.4521 10.0152 23.4521 10.0152C23.4521 10.0151 23.4521 10.0151 23.4521 10.015C23.4521 10.015 23.4521 10.015 23.4521 10.0149C23.4521 10.0149 23.4521 10.0148 23.4521 10.0148C23.4521 10.0148 23.4521 10.0147 23.4521 10.0147C23.4521 10.0146 23.4521 10.0146 23.4521 10.0146C23.4521 10.0145 23.4521 10.0145 23.4521 10.0144C23.4521 10.0144 23.4521 10.0144 23.4521 10.0143C23.4521 10.0143 23.4521 10.0143 23.4521 10.0142C23.4521 10.0142 23.4521 10.0141 23.4521 10.0141C23.4521 10.0141 23.4521 10.014 23.4521 10.014C23.4521 10.014 23.4521 10.0139 23.4521 10.0139C23.4521 10.0139 23.4521 10.0138 23.4521 10.0138C23.4521 10.0138 23.4521 10.0137 23.4521 10.0137C23.4521 10.0137 23.4521 10.0136 23.4521 10.0136C23.4521 10.0136 23.4521 10.0135 23.4521 10.0135C23.4521 10.0135 23.4521 10.0134 23.4521 10.0134C23.4521 10.0134 23.4521 10.0134 23.4521 10.0133C23.4521 10.0133 23.4521 10.0133 23.4521 10.0132C23.4521 10.0132 23.4521 10.0132 23.4521 10.0132C23.4521 10.0131 23.4521 10.0131 23.4521 10.0131C23.4521 10.013 23.4521 10.013 23.4521 10.013C23.4521 10.013 23.4521 10.0129 23.4521 10.0129C23.4521 10.0129 23.4521 10.0129 23.4521 10.0128C23.4521 10.0128 23.4521 10.0128 23.4521 10.0128C23.4521 10.0127 23.4521 10.0127 23.4521 10.0127C23.4521 10.0127 23.4521 10.0126 23.4521 10.0126C23.4521 10.0126 23.4521 10.0126 23.4521 10.0125C23.4521 10.0125 23.4521 10.0125 23.4521 10.0125C23.4521 10.0125 23.4521 10.0124 23.4521 10.0124C23.4521 10.0124 23.4521 10.0124 23.4521 10.0124C23.4521 10.0123 23.4521 10.0123 23.4521 10.0123C23.4521 10.0123 23.4521 10.0123 23.4521 10.0122C23.4521 10.0122 23.4521 10.0122 23.4521 10.0122C23.4521 10.0122 23.4521 10.0121 23.4521 10.0121C23.4521 10.0121 23.4521 10.0121 23.4521 10.0121C23.4521 10.0121 23.4521 10.012 23.4521 10.012C23.4521 10.012 23.4521 10.012 23.4521 10.012C23.4521 10.012 23.4521 10.012 23.4521 10.0119C23.4521 10.0119 23.4521 10.0119 23.4521 10.0119C23.4521 10.0119 23.4521 10.0119 23.4521 10.0119C23.4521 10.0119 23.4521 10.0118 23.4521 10.0118C23.4521 10.0118 23.4521 10.0118 23.4521 10.0118C23.4521 10.0118 23.4521 10.0118 23.4521 10.0118C23.4521 10.0118 23.4521 10.0117 23.4521 10.0117C23.4521 10.0117 23.4521 10.0117 23.4521 10.0117C23.4521 10.0117 23.4521 10.0117 23.4521 10.0117C23.4521 10.0117 23.4521 10.0117 23.4521 10.0117C23.4521 10.0117 23.4521 10.0116 23.4521 10.0116C23.4521 10.0116 23.4521 10.0116 23.4521 10.0116C23.4521 10.0116 23.4521 10.0116 23.4521 10.0116C23.4521 10.0116 23.4521 10.0116 23.4521 10.0116C23.4521 10.0116 23.4521 10.0116 23.4521 10.0116C23.4521 10.0116 23.4521 10.0116 23.4521 10.0116C23.4521 10.0116 23.4521 10.0116 23.4521 10.0116C23.4521 10.0116 23.4521 10.0116 23.4521 10.0116C23.4521 10.0116 23.4521 10.0116 22.4521 10.0116C21.4521 10.0116 21.4521 10.0116 21.4521 10.0116C21.4521 10.0116 21.4521 10.0116 21.4521 10.0116C21.4521 10.0116 21.4521 10.0116 21.4521 10.0116C21.4521 10.0116 21.4521 10.0116 21.4521 10.0116C21.4521 10.0116 21.4521 10.0116 21.4521 10.0116C21.4521 10.0116 21.4521 10.0116 21.4521 10.0116C21.4521 10.0116 21.4521 10.0116 21.4521 10.0116C21.4521 10.0116 21.4521 10.0116 21.4521 10.0116C21.4521 10.0116 21.4521 10.0117 21.4521 10.0117C21.4521 10.0117 21.4521 10.0117 21.4521 10.0117C21.4521 10.0117 21.4521 10.0117 21.4521 10.0117C21.4521 10.0117 21.4521 10.0117 21.4521 10.0117C21.4521 10.0117 21.4521 10.0118 21.4521 10.0118C21.4521 10.0118 21.4521 10.0118 21.4521 10.0118C21.4521 10.0118 21.4521 10.0118 21.4521 10.0118C21.4521 10.0118 21.4521 10.0119 21.4521 10.0119C21.4521 10.0119 21.4521 10.0119 21.4521 10.0119C21.4521 10.0119 21.4521 10.0119 21.4521 10.0119C21.4521 10.012 21.4521 10.012 21.4521 10.012C21.4521 10.012 21.4521 10.012 21.4521 10.012C21.4521 10.012 21.4521 10.0121 21.4521 10.0121C21.4521 10.0121 21.4521 10.0121 21.4521 10.0121C21.4521 10.0121 21.4521 10.0122 21.4521 10.0122C21.4521 10.0122 21.4521 10.0122 21.4521 10.0122C21.4521 10.0123 21.4521 10.0123 21.4521 10.0123C21.4521 10.0123 21.4521 10.0123 21.4521 10.0124C21.4521 10.0124 21.4521 10.0124 21.4521 10.0124C21.4521 10.0124 21.4521 10.0125 21.4521 10.0125C21.4521 10.0125 21.4521 10.0125 21.4521 10.0125C21.4521 10.0126 21.4521 10.0126 21.4521 10.0126C21.4521 10.0126 21.4521 10.0127 21.4521 10.0127C21.4521 10.0127 21.4521 10.0127 21.4521 10.0128C21.4521 10.0128 21.4521 10.0128 21.4521 10.0128C21.4521 10.0129 21.4521 10.0129 21.4521 10.0129C21.4521 10.0129 21.4521 10.013 21.4521 10.013C21.4521 10.013 21.4521 10.013 21.4521 10.0131C21.4521 10.0131 21.4521 10.0131 21.4521 10.0132C21.4521 10.0132 21.4521 10.0132 21.4521 10.0132C21.4521 10.0133 21.4521 10.0133 21.4521 10.0133C21.4521 10.0134 21.4521 10.0134 21.4521 10.0134C21.4521 10.0134 21.4521 10.0135 21.4521 10.0135C21.4521 10.0135 21.4521 10.0136 21.4521 10.0136C21.4521 10.0136 21.4521 10.0137 21.4521 10.0137C21.4521 10.0137 21.4521 10.0138 21.4521 10.0138C21.4521 10.0138 21.4521 10.0139 21.4521 10.0139C21.4521 10.0139 21.4521 10.014 21.4521 10.014C21.4521 10.014 21.4521 10.0141 21.4521 10.0141C21.4521 10.0141 21.4521 10.0142 21.4521 10.0142C21.4521 10.0143 21.4521 10.0143 21.4521 10.0143C21.4521 10.0144 21.4521 10.0144 21.4521 10.0144C21.4521 10.0145 21.4521 10.0145 21.4521 10.0146C21.4521 10.0146 21.4521 10.0146 21.4521 10.0147C21.4521 10.0147 21.4521 10.0148 21.4521 10.0148C21.4521 10.0148 21.4521 10.0149 21.4521 10.0149C21.4521 10.015 21.4521 10.015 21.4521 10.015C21.4521 10.0151 21.4521 10.0151 21.4521 10.0152C21.4521 10.0152 21.4521 10.0152 21.4521 10.0153C21.4521 10.0153 21.4521 10.0154 21.4521 10.0154C21.4521 10.0155 21.4521 10.0155 21.4521 10.0155C21.4521 10.0156 21.4521 10.0156 21.4521 10.0157C21.4521 10.0157 21.4521 10.0158 21.4521 10.0158C21.4521 10.0159 21.4521 10.0159 21.4521 10.016C21.4521 10.016 21.4521 10.016 21.4521 10.0161C21.4521 10.0161 21.4521 10.0162 21.4521 10.0162C21.4521 10.0163 21.4521 10.0163 21.4521 10.0164C21.4521 10.0164 21.4521 10.0165 21.4521 10.0165C21.4521 10.0166 21.4521 10.0166 21.4521 10.0167C21.4521 10.0167 21.4521 10.0168 21.4521 10.0168C21.4521 10.0169 21.4521 10.0169 21.4521 10.017C21.4521 10.017 21.4521 10.0171 21.4521 10.0171C21.4521 10.0172 21.4521 10.0172 21.4521 10.0173C21.4521 10.0173 21.4521 10.0174 21.4521 10.0174C21.4521 10.0175 21.4521 10.0176 21.4521 10.0176C21.4521 10.0177 21.4521 10.0177 21.4521 10.0178C21.4521 10.0178 21.4521 10.0179 21.4521 10.0179C21.4521 10.018 21.4521 10.018 21.4521 10.0181C21.4521 10.0182 21.4521 10.0182 21.4521 10.0183C21.4521 10.0183 21.4521 10.0184 21.4521 10.0184C21.4521 10.0185 21.4521 10.0186 21.4521 10.0186C21.4521 10.0187 21.4521 10.0187 21.4521 10.0188C21.4521 10.0188 21.4521 10.0189 21.4521 10.019C21.4521 10.019 21.4521 10.0191 21.4521 10.0191C21.4521 10.0192 21.4521 10.0193 21.4521 10.0193C21.4521 10.0194 21.4521 10.0194 21.4521 10.0195C21.4521 10.0196 21.4521 10.0196 21.4521 10.0197C21.4521 10.0197 21.4521 10.0198 21.4521 10.0199C21.4521 10.0199 21.4521 10.02 21.4521 10.0201C21.4521 10.0201 21.4521 10.0202 21.4521 10.0203C21.4521 10.0203 21.4521 10.0204 21.4521 10.0204C21.4521 10.0205 21.4521 10.0206 21.4521 10.0206C21.4521 10.0207 21.4521 10.0208 21.4521 10.0208C21.4521 10.0209 21.4521 10.021 21.4521 10.021C21.4521 10.0211 21.4521 10.0212 21.4521 10.0212C21.4521 10.0213 21.4521 10.0214 21.4521 10.0214C21.4521 10.0215 21.4521 10.0216 21.4521 10.0216C21.4521 10.0217 21.4521 10.0218 21.4521 10.0218C21.4521 10.0219 21.4521 10.022 21.4521 10.0221C21.4521 10.0221 21.4521 10.0222 21.4521 10.0223C21.4521 10.0223 21.4521 10.0224 21.4521 10.0225C21.4521 10.0226 21.4521 10.0226 21.4521 10.0227C21.4521 10.0228 21.4521 10.0228 21.4521 10.0229C21.4521 10.023 21.4521 10.0231 21.4521 10.0231C21.4521 10.0232 21.4521 10.0233 21.4521 10.0233C21.4521 10.0234 21.4521 10.0235 21.4521 10.0236C21.4521 10.0236 21.4521 10.0237 21.4521 10.0238C21.4521 10.0239 21.4521 10.0239 21.4521 10.024C21.4521 10.0241 21.4521 10.0242 21.4521 10.0242C21.4521 10.0243 21.4521 10.0244 21.4521 10.0245C21.4521 10.0245 21.4521 10.0246 21.4521 10.0247C21.4521 10.0248 21.4521 10.0249 21.4521 10.0249C21.4521 10.025 21.4521 10.0251 21.4521 10.0252C21.4521 10.0253 21.4521 10.0253 21.4521 10.0254C21.4521 10.0255 21.4521 10.0256 21.4521 10.0256C21.4521 10.0257 21.4521 10.0258 21.4521 10.0259C21.4521 10.026 21.4521 10.026 21.4521 10.0261C21.4521 10.0262 21.4521 10.0263 21.4521 10.0264C21.4521 10.0265 21.4521 10.0265 21.4521 10.0266C21.4521 10.0267 21.4521 10.0268 21.4521 10.0269C21.4521 10.0269 21.4521 10.027 21.4521 10.0271C21.4521 10.0272 21.4521 10.0273 21.4521 10.0274C21.4521 10.0275 21.4521 10.0275 21.4521 10.0276C21.4521 10.0277 21.4521 10.0278 21.4521 10.0279C21.4521 10.028 21.4521 10.028 21.4521 10.0281C21.4521 10.0282 21.4521 10.0283 21.4521 10.0284C21.4521 10.0285 21.4521 10.0286 21.4521 10.0287C21.4521 10.0287 21.4521 10.0288 21.4521 10.0289C21.4521 10.029 21.4521 10.0291 21.4521 10.0292C21.4521 10.0293 21.4521 10.0294 21.4521 10.0294C21.4521 10.0295 21.4521 10.0296 21.4521 10.0297C21.4521 10.0298 21.4521 10.0299 21.4521 10.03C21.4521 10.0301 21.4521 10.0302 21.4521 10.0303C21.4521 10.0303 21.4521 10.0304 21.4521 10.0305C21.4521 10.0306 21.4521 10.0307 21.4521 10.0308C21.4521 10.0309 21.4521 10.031 21.4521 10.0311C21.4521 10.0312 21.4521 10.0313 21.4521 10.0314C21.4521 10.0314 21.4521 10.0315 21.4521 10.0316C21.4521 10.0317 21.4521 10.0318 21.4521 10.0319C21.4521 10.032 21.4521 10.0321 21.4521 10.0322C21.4521 10.0323 21.4521 10.0324 21.4521 10.0325C21.4521 10.0326 21.4521 10.0327 21.4521 10.0328C21.4521 10.0329 21.4521 10.033 21.4521 10.0331C21.4521 10.0332 21.4521 10.0333 21.4521 10.0334C21.4521 10.0334 21.4521 10.0335 21.4521 10.0336C21.4521 10.0337 21.4521 10.0338 21.4521 10.0339C21.4521 10.034 21.4521 10.0341 21.4521 10.0342C21.4521 10.0343 21.4521 10.0344 21.4521 10.0345C21.4521 10.0346 21.4521 10.0347 21.4521 10.0348C21.4521 10.0349 21.4521 10.035 21.4521 10.0351C21.4521 10.0352 21.4521 10.0353 21.4521 10.0354C21.4521 10.0355 21.4521 10.0356 21.4521 10.0357C21.4521 10.0358 21.4521 10.0359 21.4521 10.036C21.4521 10.0361 21.4521 10.0362 21.4521 10.0363C21.4521 10.0365 21.4521 10.0366 21.4521 10.0367C21.4521 10.0368 21.4521 10.0369 21.4521 10.037C21.4521 10.0371 21.4521 10.0372 21.4521 10.0373C21.4521 10.0374 21.4521 10.0375 21.4521 10.0376C21.4521 10.0377 21.4521 10.0378 21.4521 10.0379C21.4521 10.038 21.4521 10.0381 21.4521 10.0382C21.4521 10.0383 21.4521 10.0384 21.4521 10.0385C21.4521 10.0387 21.4521 10.0388 21.4521 10.0389C21.4521 10.039 21.4521 10.0391 21.4521 10.0392C21.4521 10.0393 21.4521 10.0394 21.4521 10.0395C21.4521 10.0396 21.4521 10.0397 21.4521 10.0398C21.4521 10.0399 21.4521 10.0401 21.4521 10.0402C21.4521 10.0403 21.4521 10.0404 21.4521 10.0405C21.4521 10.0406 21.4521 10.0407 21.4521 10.0408C21.4521 10.0409 21.4521 10.041 21.4521 10.0412C21.4521 10.0413 21.4521 10.0414 21.4521 10.0415C21.4521 10.0416 21.4521 10.0417 21.4521 10.0418C21.4521 10.0419 21.4521 10.0421 21.4521 10.0422C21.4521 10.0423 21.4521 10.0424 21.4521 10.0425C21.4521 10.0426 21.4521 10.0427 21.4521 10.0428C21.4521 10.043 21.4521 10.0431 21.4521 10.0432C21.4521 10.0433 21.4521 10.0434 21.4521 10.0435C21.4521 10.0436 21.4521 10.0438 21.4521 10.0439C21.4521 10.044 21.4521 10.0441 21.4521 10.0442C21.4521 10.0443 21.4521 10.0444 21.4521 10.0446C21.4521 10.0447 21.4521 10.0448 21.4521 10.0449C21.4521 10.045 21.4521 10.0451 21.4521 10.0453C21.4521 10.0454 21.4521 10.0455 21.4521 10.0456C21.4521 10.0457 21.4521 10.0459 21.4521 10.046C21.4521 10.0461 21.4521 10.0462 21.4521 10.0463C21.4521 10.0464 21.4521 10.0466 21.4521 10.0467C21.4521 10.0468 21.4521 10.0469 21.4521 10.047C21.4521 10.0472 21.4521 10.0473 21.4521 10.0474C21.4521 10.0475 21.4521 10.0476 21.4521 10.0478C21.4521 10.0479 21.4521 10.048 21.4521 10.0481C21.4521 10.0483 21.4521 10.0484 21.4521 10.0485C21.4521 10.0486 21.4521 10.0487 21.4521 10.0489C21.4521 10.049 21.4521 10.0491 21.4521 10.0492C21.4521 10.0494 21.4521 10.0495 21.4521 10.0496C21.4521 10.0497 21.4521 10.0498 21.4521 10.05C21.4521 10.0501 21.4521 10.0502 21.4521 10.0503C21.4521 10.0505 21.4521 10.0506 21.4521 10.0507C21.4521 10.0508 21.4521 10.051 21.4521 10.0511C21.4521 10.0512 21.4521 10.0513 21.4521 10.0515C21.4521 10.0516 21.4521 10.0517 21.4521 10.0518C21.4521 10.052 21.4521 10.0521 21.4521 10.0522C21.4521 10.0524 21.4521 10.0525 21.4521 10.0526C21.4521 10.0527 21.4521 10.0529 21.4521 10.053C21.4521 10.0531 21.4521 10.0532 21.4521 10.0534C21.4521 10.0535 21.4521 10.0536 21.4521 10.0538C21.4521 10.0539 21.4521 10.054 21.4521 10.0541C21.4521 10.0543 21.4521 10.0544 21.4521 10.0545C21.4521 10.0547 21.4521 10.0548 21.4521 10.0549C21.4521 10.0551 21.4521 10.0552 21.4521 10.0553C21.4521 10.0554 21.4521 10.0556 21.4521 10.0557C21.4521 10.0558 21.4521 10.056 21.4521 10.0561C21.4521 10.0562 21.4521 10.0564 21.4521 10.0565C21.4521 10.0566 21.4521 10.0568 21.4521 10.0569C21.4521 10.057 21.4521 10.0572 21.4521 10.0573C21.4521 10.0574 21.4521 10.0576 21.4521 10.0577C21.4521 10.0578 21.4521 10.058 21.4521 10.0581C21.4521 10.0582 21.4521 10.0584 21.4521 10.0585C21.4521 10.0586 21.4521 10.0588 21.4521 10.0589C21.4521 10.059 21.4521 10.0592 21.4521 10.0593C21.4521 10.0594 21.4521 10.0596 21.4521 10.0597C21.4521 10.0598 21.4521 10.06 21.4521 10.0601C21.4521 10.0603 21.4521 10.0604 21.4521 10.0605C21.4521 10.0607 21.4521 10.0608 21.4521 10.0609C21.4521 10.0611 21.4521 10.0612 21.4521 10.0613C21.4521 10.0615 21.4521 10.0616 21.4521 10.0618C21.4521 10.0619 21.4521 10.062 21.4521 10.0622C21.4521 10.0623 21.4521 10.0625 21.4521 10.0626C21.4521 10.0627 21.4521 10.0629 21.4521 10.063C21.4521 10.0632 21.4521 10.0633 21.4521 10.0634C21.4521 10.0636 21.4521 10.0637 21.4521 10.0638C21.4521 10.064 21.4521 10.0641 21.4521 10.0643C21.4521 10.0644 21.4521 10.0646 21.4521 10.0647C21.4521 10.0648 21.4521 10.065 21.4521 10.0651C21.4521 10.0653 21.4521 10.0654 21.4521 10.0655C21.4521 10.0657 21.4521 10.0658 21.4521 10.066C21.4521 10.0661 21.4521 10.0663 21.4521 10.0664C21.4521 10.0665 21.4521 10.0667 21.4521 10.0668C21.4521 10.067 21.4521 10.0671 21.4521 10.0673C21.4521 10.0674 21.4521 10.0675 21.4521 10.0677C21.4521 10.0678 21.4521 10.068 21.4521 10.0681C21.4521 10.0683 21.4521 10.0684 21.4521 10.0686C21.4521 10.0687 21.4521 10.0688 21.4521 10.069C21.4521 10.0691 21.4521 10.0693 21.4521 10.0694C21.4521 10.0696 21.4521 10.0697 21.4521 10.0699C21.4521 10.07 21.4521 10.0702 21.4521 10.0703C21.4521 10.0705 21.4521 10.0706 21.4521 10.0707C21.4521 10.0709 21.4521 10.071 21.4521 10.0712C21.4521 10.0713 21.4521 10.0715 21.4521 10.0716C21.4521 10.0718 21.4521 10.0719 21.4521 10.0721C21.4521 10.0722 21.4521 10.0724 21.4521 10.0725C21.4521 10.0727 21.4521 10.0728 21.4521 10.073C21.4521 10.0731 21.4521 10.0733 21.4521 10.0734C21.4521 10.0736 21.4521 10.0737 21.4521 10.0739C21.4521 10.074 21.4521 10.0742 21.4521 10.0743C21.4521 10.0745 21.4521 10.0746 21.4521 10.0748C21.4521 10.0749 21.4521 10.0751 21.4521 10.0752C21.4521 10.0754 21.4521 10.0755 21.4521 10.0757C21.4521 10.0758 21.4521 10.076 21.4521 10.0761C21.4521 10.0763 21.4521 10.0764 21.4521 10.0766C21.4521 10.0767 21.4521 10.0769 21.4521 10.077C21.4521 10.0772 21.4521 10.0774 21.4521 10.0775C21.4521 10.0777 21.4521 10.0778 21.4521 10.078C21.4521 10.0781 21.4521 10.0783 21.4521 10.0784C21.4521 10.0786 21.4521 10.0787 21.4521 10.0789C21.4521 10.079 21.4521 10.0792 21.4521 10.0794C21.4521 10.0795 21.4521 10.0797 21.4521 10.0798C21.4521 10.08 21.4521 10.0801 21.4521 10.0803C21.4521 10.0804 21.4521 10.0806 21.4521 10.0808C21.4521 10.0809 21.4521 10.0811 21.4521 10.0812C21.4521 10.0814 21.4521 10.0815 21.4521 10.0817C21.4521 10.0818 21.4521 10.082 21.4521 10.0822C21.4521 10.0823 21.4521 10.0825 21.4521 10.0826C21.4521 10.0828 21.4521 10.0829 21.4521 10.0831C21.4521 10.0833 21.4521 10.0834 21.4521 10.0836C21.4521 10.0837 21.4521 10.0839 21.4521 10.0841C21.4521 10.0842 21.4521 10.0844 21.4521 10.0845C21.4521 10.0847 21.4521 10.0848 21.4521 10.085C21.4521 10.0852 21.4521 10.0853 21.4521 10.0855C21.4521 10.0856 21.4521 10.0858 21.4521 10.086C21.4521 10.0861 21.4521 10.0863 21.4521 10.0864C21.4521 10.0866 21.4521 10.0868 21.4521 10.0869C21.4521 10.0871 21.4521 10.0873 21.4521 10.0874C21.4521 10.0876 21.4521 10.0877 21.4521 10.0879C21.4521 10.0881 21.4521 10.0882 21.4521 10.0884C21.4521 10.0885 21.4521 10.0887 21.4521 10.0889C21.4521 10.089 21.4521 10.0892 21.4521 10.0894C21.4521 10.0895 21.4521 10.0897 21.4521 10.0898C21.4521 10.09 21.4521 10.0902 21.4521 10.0903C21.4521 10.0905 21.4521 10.0907 21.4521 10.0908C21.4521 10.091 21.4521 10.0911 21.4521 10.0913C21.4521 10.0915 21.4521 10.0916 21.4521 10.0918C21.4521 10.092 21.4521 10.0921 21.4521 10.0923C21.4521 10.0925 21.4521 10.0926 21.4521 10.0928C21.4521 10.093 21.4521 10.0931 21.4521 10.0933C21.4521 10.0935 21.4521 10.0936 21.4521 10.0938C21.4521 10.094 21.4521 10.0941 21.4521 10.0943C21.4521 10.0944 21.4521 10.0946 21.4521 10.0948C21.4521 10.0949 21.4521 10.0951 21.4521 10.0953C21.4521 10.0954 21.4521 10.0956 21.4521 10.0958C21.4521 10.0959 21.4521 10.0961 21.4521 10.0963C21.4521 10.0965 21.4521 10.0966 21.4521 10.0968C21.4521 10.097 21.4521 10.0971 21.4521 10.0973C21.4521 10.0975 21.4521 10.0976 21.4521 10.0978C21.4521 10.098 21.4521 10.0981 21.4521 10.0983C21.4521 10.0985 21.4521 10.0986 21.4521 10.0988C21.4521 10.099 21.4521 10.0991 21.4521 10.0993C21.4521 10.0995 21.4521 10.0997 21.4521 10.0998C21.4521 10.1 21.4521 10.1002 21.4521 10.1003C21.4521 10.1005 21.4521 10.1007 21.4521 10.1008C21.4521 10.101 21.4521 10.1012 21.4521 10.1014C21.4521 10.1015 21.4521 10.1017 21.4521 10.1019C21.4521 10.102 21.4521 10.1022 21.4521 10.1024C21.4521 10.1026 21.4521 10.1027 21.4521 10.1029C21.4521 10.1031 21.4521 10.1032 21.4521 10.1034C21.4521 10.1036 21.4521 10.1038 21.4521 10.1039C21.4521 10.1041 21.4521 10.1043 21.4521 10.1044C21.4521 10.1046 21.4521 10.1048 21.4521 10.105C21.4521 10.1051 21.4521 10.1053 21.4521 10.1055C21.4521 10.1057 21.4521 10.1058 21.4521 10.106C21.4521 10.1062 21.4521 10.1063 21.4521 10.1065C21.4521 10.1067 21.4521 10.1069 21.4521 10.107C21.4521 10.1072 21.4521 10.1074 21.4521 10.1076C21.4521 10.1077 21.4521 10.1079 21.4521 10.1081C21.4521 10.1083 21.4521 10.1084 21.4521 10.1086C21.4521 10.1088 21.4521 10.109 21.4521 10.1091C21.4521 10.1093 21.4521 10.1095 21.4521 10.1097C21.4521 10.1098 21.4521 10.11 21.4521 10.1102C21.4521 10.1104 21.4521 10.1105 21.4521 10.1107C21.4521 10.1109 21.4521 10.1111 21.4521 10.1112C21.4521 10.1114 21.4521 10.1116 21.4521 10.1118C21.4521 10.112 21.4521 10.1121 21.4521 10.1123C21.4521 10.1125 21.4521 10.1127 21.4521 10.1128C21.4521 10.113 21.4521 10.1132 21.4521 10.1134C21.4521 10.1135 21.4521 10.1137 21.4521 10.1139C21.4521 10.1141 21.4521 10.1143 21.4521 10.1144C21.4521 10.1146 21.4521 10.1148 21.4521 10.115C21.4521 10.1152 21.4521 10.1153 21.4521 10.1155C21.4521 10.1157 21.4521 10.1159 21.4521 10.116C21.4521 10.1162 21.4521 10.1164 21.4521 10.1166C21.4521 10.1168 21.4521 10.1169 21.4521 10.1171C21.4521 10.1173 21.4521 10.1175 21.4521 10.1177C21.4521 10.1178 21.4521 10.118 21.4521 10.1182C21.4521 10.1184 21.4521 10.1186 21.4521 10.1187C21.4521 10.1189 21.4521 10.1191 21.4521 10.1193C21.4521 10.1195 21.4521 10.1196 21.4521 10.1198C21.4521 10.12 21.4521 10.1202 21.4521 10.1204C21.4521 10.1205 21.4521 10.1207 21.4521 10.1209C21.4521 10.1211 21.4521 10.1213 21.4521 10.1215C21.4521 10.1216 21.4521 10.1218 21.4521 10.122C21.4521 10.1222 21.4521 10.1224 21.4521 10.1225C21.4521 10.1227 21.4521 10.1229 21.4521 10.1231C21.4521 10.1233 21.4521 10.1235 21.4521 10.1236C21.4521 10.1238 21.4521 10.124 21.4521 10.1242C21.4521 10.1244 21.4521 10.1246 21.4521 10.1247C21.4521 10.1249 21.4521 10.1251 21.4521 10.1253C21.4521 10.1255 21.4521 10.1257 21.4521 10.1258C21.4521 10.126 21.4521 10.1262 21.4521 10.1264C21.4521 10.1266 21.4521 10.1268 21.4521 10.1269C21.4521 10.1271 21.4521 10.1273 21.4521 10.1275C21.4521 10.1277 21.4521 10.1279 21.4521 10.128C21.4521 10.1282 21.4521 10.1284 21.4521 10.1286C21.4521 10.1288 21.4521 10.129 21.4521 10.1292C21.4521 10.1293 21.4521 10.1295 21.4521 10.1297C21.4521 10.1299 21.4521 10.1301 21.4521 10.1303C21.4521 10.1305 21.4521 10.1306 21.4521 10.1308C21.4521 10.131 21.4521 10.1312 21.4521 10.1314C21.4521 10.1316 21.4521 10.1318 21.4521 10.1319C21.4521 10.1321 21.4521 10.1323 21.4521 10.1325C21.4521 10.1327 21.4521 10.1329 21.4521 10.1331C21.4521 10.1332 21.4521 10.1334 21.4521 10.1336C21.4521 10.1338 21.4521 10.134 21.4521 10.1342C21.4521 10.1344 21.4521 10.1346 21.4521 10.1347C21.4521 10.1349 21.4521 10.1351 21.4521 10.1353C21.4521 10.1355 21.4521 10.1357 21.4521 10.1359C21.4521 10.1361 21.4521 10.1362 21.4521 10.1364C21.4521 10.1366 21.4521 10.1368 21.4521 10.137C21.4521 10.1372 21.4521 10.1374 21.4521 10.1376C21.4521 10.1377 21.4521 10.1379 21.4521 10.1381C21.4521 10.1383 21.4521 10.1385 21.4521 10.1387C21.4521 10.1389 21.4521 10.1391 21.4521 10.1393C21.4521 10.1394 21.4521 10.1396 21.4521 10.1398C21.4521 10.14 21.4521 10.1402 21.4521 10.1404C21.4521 10.1406 21.4521 10.1408 21.4521 10.141C21.4521 10.1412 21.4521 10.1413 21.4521 10.1415C21.4521 10.1417 21.4521 10.1419 21.4521 10.1421C21.4521 10.1423 21.4521 10.1425 21.4521 10.1427C21.4521 10.1429 21.4521 10.1431 21.4521 10.1432C21.4521 10.1434 21.4521 10.1436 21.4521 10.1438C21.4521 10.144 21.4521 10.1442 21.4521 10.1444C21.4521 10.1446 21.4521 10.1448 21.4521 10.145C21.4521 10.1452 21.4521 10.1453 21.4521 10.1455C21.4521 10.1457 21.4521 10.1459 21.4521 10.1461C21.4521 10.1463 21.4521 10.1465 21.4521 10.1467C21.4521 10.1469 21.4521 10.1471 21.4521 10.1473C21.4521 10.1475 21.4521 10.1476 21.4521 10.1478C21.4521 10.148 21.4521 10.1482 21.4521 10.1484C21.4521 10.1486 21.4521 10.1488 21.4521 10.149C21.4521 10.1492 21.4521 10.1494 21.4521 10.1496C21.4521 10.1498 21.4521 10.15 21.4521 10.1501C21.4521 10.1503 21.4521 10.1505 21.4521 10.1507C21.4521 10.1509 21.4521 10.1511 21.4521 10.1513C21.4521 10.1515 21.4521 10.1517 21.4521 10.1519C21.4521 10.1521 21.4521 10.1523 21.4521 10.1525C21.4521 10.1527 21.4521 10.1528 21.4521 10.153C21.4521 10.1532 21.4521 10.1534 21.4521 10.1536C21.4521 10.1538 21.4521 10.154 21.4521 10.1542C21.4521 10.1544 21.4521 10.1546 21.4521 10.1548C21.4521 10.155 21.4521 10.1552 21.4521 10.1554C21.4521 10.1556 21.4521 10.1558 21.4521 10.156C21.4521 10.1561 21.4521 10.1563 21.4521 10.1565C21.4521 10.1567 21.4521 10.1569 21.4521 10.1571C21.4521 10.1573 21.4521 10.1575 21.4521 10.1577C21.4521 10.1579 21.4521 10.1581 21.4521 10.1583C21.4521 10.1585 21.4521 10.1587 21.4521 10.1589C21.4521 10.1591 21.4521 10.1593 21.4521 10.1595C21.4521 10.1597 21.4521 10.1599 21.4521 10.1601C21.4521 10.1602 21.4521 10.1604 21.4521 10.1606C21.4521 10.1608 21.4521 10.161 21.4521 10.1612C21.4521 10.1614 21.4521 10.1616 21.4521 10.1618C21.4521 10.162 21.4521 10.1622 21.4521 10.1624C21.4521 10.1626 21.4521 10.1628 21.4521 10.163C21.4521 10.1632 21.4521 10.1634 21.4521 10.1636C21.4521 10.1638 21.4521 10.164 21.4521 10.1642C21.4521 10.1644 21.4521 10.1646 21.4521 10.1648C21.4521 10.165 21.4521 10.1652 21.4521 10.1653C21.4521 10.1655 21.4521 10.1657 21.4521 10.1659C21.4521 10.1661 21.4521 10.1663 21.4521 10.1665C21.4521 10.1667 21.4521 10.1669 21.4521 10.1671C21.4521 10.1673 21.4521 10.1675 21.4521 10.1677C21.4521 10.1679 21.4521 10.1681 21.4521 10.1683C21.4521 10.1685 21.4521 10.1687 21.4521 10.1689C21.4521 10.1691 21.4521 10.1693 21.4521 10.1695C21.4521 10.1697 21.4521 10.1699 21.4521 10.1701C21.4521 10.1703 21.4521 10.1705 21.4521 10.1707C21.4521 10.1709 21.4521 10.1711 21.4521 10.1713C21.4521 10.1715 21.4521 10.1717 21.4521 10.1719C21.4521 10.1721 21.4521 10.1723 21.4521 10.1725C21.4521 10.1727 21.4521 10.1729 21.4521 10.1731C21.4521 10.1733 21.4521 10.1735 21.4521 10.1737C21.4521 10.1739 21.4521 10.1741 21.4521 10.1743C21.4521 10.1745 21.4521 10.1747 21.4521 10.1749C21.4521 10.1751 21.4521 10.1753 21.4521 10.1755C21.4521 10.1756 21.4521 10.1758 21.4521 10.176C21.4521 10.1762 21.4521 10.1764 21.4521 10.1766C21.4521 10.1768 21.4521 10.177 21.4521 10.1772C21.4521 10.1774 21.4521 10.1776 21.4521 10.1778C21.4521 10.178 21.4521 10.1782 21.4521 10.1784C21.4521 10.1786 21.4521 10.1788 21.4521 10.179C21.4521 10.1792 21.4521 10.1794 21.4521 10.1796C21.4521 10.1798 21.4521 10.18 21.4521 10.1802C21.4521 10.1804 21.4521 10.1806 21.4521 10.1808C21.4521 10.181 21.4521 10.1812 21.4521 10.1814C21.4521 10.1816 21.4521 10.1818 21.4521 10.182C21.4521 10.1822 21.4521 10.1824 21.4521 10.1826C21.4521 10.1828 21.4521 10.183 21.4521 10.1832C21.4521 10.1834 21.4521 10.1836 21.4521 10.1838C21.4521 10.184 21.4521 10.1842 21.4521 10.1844C21.4521 10.1846 21.4521 10.1848 21.4521 10.185C21.4521 10.1852 21.4521 10.1854 21.4521 10.1856C21.4521 10.1859 21.4521 10.1861 21.4521 10.1863C21.4521 10.1865 21.4521 10.1867 21.4521 10.1869C21.4521 10.1871 21.4521 10.1873 21.4521 10.1875C21.4521 10.1877 21.4521 10.1879 21.4521 10.1881C21.4521 10.1883 21.4521 10.1885 21.4521 10.1887C21.4521 10.1889 21.4521 10.1891 21.4521 10.1893C21.4521 10.1895 21.4521 10.1897 21.4521 10.1899C21.4521 10.1901 21.4521 10.1903 21.4521 10.1905C21.4521 10.1907 21.4521 10.1909 21.4521 10.1911C21.4521 10.1913 21.4521 10.1915 21.4521 10.1917C21.4521 10.1919 21.4521 10.1921 21.4521 10.1923C21.4521 10.1925 21.4521 10.1927 21.4521 10.1929C21.4521 10.1931 21.4521 10.1933 21.4521 10.1935C21.4521 10.1937 21.4521 10.1939 21.4521 10.1941C21.4521 10.1943 21.4521 10.1945 21.4521 10.1947C21.4521 10.1949 21.4521 10.1951 21.4521 10.1953C21.4521 10.1955 21.4521 10.1957 21.4521 10.1959C21.4521 10.1961 21.4521 10.1963 21.4521 10.1965C21.4521 10.1967 21.4521 10.1969 21.4521 10.1971C21.4521 10.1973 21.4521 10.1975 21.4521 10.1977C21.4521 10.1979 21.4521 10.1981 21.4521 10.1983C21.4521 10.1986 21.4521 10.1988 21.4521 10.199C21.4521 10.1992 21.4521 10.1994 21.4521 10.1996C21.4521 10.1998 21.4521 10.2 21.4521 10.2002C21.4521 10.2004 21.4521 10.2006 21.4521 10.2008C21.4521 10.201 21.4521 10.2012 21.4521 10.2014C21.4521 10.2016 21.4521 10.2018 21.4521 10.202C21.4521 10.2022 21.4521 10.2024 21.4521 10.2026C21.4521 10.2028 21.4521 10.203 21.4521 10.2032C21.4521 10.2034 21.4521 10.2036 21.4521 10.2038C21.4521 10.204 21.4521 10.2042 21.4521 10.2044C21.4521 10.2046 21.4521 10.2048 21.4521 10.205C21.4521 10.2052 21.4521 10.2054 21.4521 10.2056C21.4521 10.2058 21.4521 10.206 21.4521 10.2062C21.4521 10.2065 21.4521 10.2067 21.4521 10.2069C21.4521 10.2071 21.4521 10.2073 21.4521 10.2075C21.4521 10.2077 21.4521 10.2079 21.4521 10.2081C21.4521 10.2083 21.4521 10.2085 21.4521 10.2087C21.4521 10.2089 21.4521 10.2091 21.4521 10.2093C21.4521 10.2095 21.4521 10.2097 21.4521 10.2099C21.4521 10.2101 21.4521 10.2103 21.4521 10.2105C21.4521 10.2107 21.4521 10.2109 21.4521 10.2111C21.4521 10.2113 21.4521 10.2115 21.4521 10.2117C21.4521 10.2119 21.4521 10.2121 21.4521 10.2123C21.4521 10.2125 21.4521 10.2127 21.4521 10.2129C21.4521 10.2132 21.4521 10.2134 21.4521 10.2136C21.4521 10.2138 21.4521 10.214 21.4521 10.2142C21.4521 10.2144 21.4521 10.2146 21.4521 10.2148C21.4521 10.215 21.4521 10.2152 21.4521 10.2154C21.4521 10.2156 21.4521 10.2158 21.4521 10.216C21.4521 10.2162 21.4521 10.2164 21.4521 10.2166C21.4521 10.2168 21.4521 10.217 21.4521 10.2172C21.4521 10.2174 21.4521 10.2176 21.4521 10.2178C21.4521 10.218 21.4521 10.2182 21.4521 10.2184C21.4521 10.2186 21.4521 10.2188 21.4521 10.219C21.4521 10.2192 21.4521 10.2194 21.4521 10.2197H23.4521Z" fill="black"/>
</svg>
