<svg width="24" height="24" viewBox="0 0 24 24" fill="none" xmlns="http://www.w3.org/2000/svg">
<path fill-rule="evenodd" clip-rule="evenodd" d="M18 6H7C5.34315 6 4 7.34315 4 9V15C4 16.6569 5.34315 18 7 18H18C19.6569 18 21 16.6569 21 15V9C21 7.34315 19.6569 6 18 6ZM7 4C4.23858 4 2 6.23858 2 9V15C2 17.7614 4.23858 20 7 20H18C20.7614 20 23 17.7614 23 15V9C23 6.23858 20.7614 4 18 4H7Z" fill="#212529"/>
<path d="M12.5 12L11.9233 12.817C12.269 13.061 12.731 13.061 13.0767 12.817L12.5 12ZM3.42332 6.81697L11.9233 12.817L13.0767 11.183L4.57668 5.18303L3.42332 6.81697ZM13.0767 12.817L21.5767 6.81697L20.4233 5.18303L11.9233 11.183L13.0767 12.817Z" fill="#212529"/>
</svg>
