<svg width="28" height="28" viewBox="0 0 28 28" fill="none" xmlns="http://www.w3.org/2000/svg">
<path d="M16.0726 24.6094H12.7712C12.5685 24.6094 12.3731 24.5345 12.2224 24.399C12.0717 24.2635 11.9766 24.077 11.9552 23.8755L11.7108 21.5737C11.3695 21.4575 11.0361 21.3194 10.7127 21.1602L8.91405 22.6149C8.75663 22.7417 8.55794 22.8059 8.35609 22.7952C8.15424 22.7845 7.96344 22.6997 7.8203 22.557L5.48569 20.2223C5.34297 20.0792 5.25813 19.8884 5.24743 19.6866C5.23673 19.4847 5.30093 19.286 5.42772 19.1286L6.88296 17.3277C6.72349 17.0044 6.5852 16.671 6.46897 16.3297L4.16335 16.0836C3.96194 16.0623 3.77554 15.9672 3.64004 15.8166C3.50455 15.6661 3.42953 15.4707 3.42944 15.2682V11.9662C3.42953 11.7636 3.50455 11.5683 3.64004 11.4177C3.77554 11.2672 3.96194 11.1721 4.16335 11.1508L6.46515 10.9063C6.58137 10.565 6.71966 10.2316 6.87913 9.90828L5.4239 8.10742C5.29711 7.95 5.2329 7.75131 5.2436 7.54946C5.2543 7.34761 5.33914 7.15681 5.48187 7.01367L7.81647 4.67906C7.95961 4.53634 8.15041 4.4515 8.35226 4.4408C8.55411 4.4301 8.7528 4.4943 8.91022 4.6211L10.7111 6.07578C11.0345 5.91658 11.3679 5.77848 11.7091 5.66235L11.9536 3.36055C11.9746 3.15847 12.0698 2.97136 12.2209 2.83548C12.3719 2.69959 12.568 2.62459 12.7712 2.625H16.0726C16.2753 2.62496 16.4708 2.69991 16.6214 2.83542C16.7721 2.97093 16.8672 3.1574 16.8886 3.35891L17.1325 5.6607C17.4739 5.77684 17.8075 5.91494 18.1311 6.07414L19.9314 4.61945C20.0888 4.49266 20.2875 4.42846 20.4894 4.43916C20.6912 4.44986 20.882 4.5347 21.0251 4.67742L23.3598 7.01203C23.5025 7.15517 23.5873 7.34597 23.598 7.54782C23.6087 7.74967 23.5445 7.94836 23.4177 8.10578L21.9625 9.90664C22.1217 10.2301 22.26 10.5635 22.3765 10.9047L24.6783 11.1491C24.8796 11.1706 25.0659 11.2657 25.2012 11.4163C25.3366 11.5668 25.4116 11.7621 25.4116 11.9645V15.2666C25.412 15.469 25.3376 15.6644 25.2026 15.8152C25.0676 15.966 24.8817 16.0616 24.6805 16.0836L22.3787 16.328C22.2622 16.6693 22.1239 17.0026 21.9647 17.3261L23.4199 19.127C23.5467 19.2844 23.6109 19.4831 23.6002 19.6849C23.5895 19.8868 23.5047 20.0776 23.3619 20.2207L21.0273 22.557C20.8842 22.6997 20.6934 22.7845 20.4916 22.7952C20.2897 22.8059 20.091 22.7417 19.9336 22.6149L18.1333 21.1602C17.8097 21.3194 17.4761 21.4575 17.1347 21.5737L16.8908 23.8755C16.8694 24.0774 16.7739 24.2641 16.6228 24.3997C16.4717 24.5353 16.2757 24.61 16.0726 24.6094V24.6094ZM13.5078 22.9688H15.3338L15.5575 20.86C15.575 20.6949 15.6422 20.5391 15.7502 20.413C15.8582 20.287 16.0019 20.1967 16.1623 20.154C16.7401 19.9999 17.2948 19.7695 17.8117 19.4688C17.9556 19.3849 18.1217 19.3468 18.2877 19.3596C18.4538 19.3724 18.612 19.4355 18.7414 19.5404L20.3908 20.8731L21.6819 19.582L20.347 17.9375C20.2421 17.8081 20.1791 17.6499 20.1663 17.4838C20.1535 17.3178 20.1915 17.1517 20.2754 17.0078C20.5755 16.4913 20.8052 15.9369 20.9584 15.3595C21.0011 15.199 21.0915 15.0553 21.2177 14.9473C21.3439 14.8393 21.4998 14.7721 21.665 14.7547L23.7732 14.5305V12.7045L21.665 12.4802C21.4998 12.4628 21.3439 12.3956 21.2177 12.2876C21.0915 12.1796 21.0011 12.0359 20.9584 11.8754C20.8052 11.2978 20.5755 10.7433 20.2754 10.2266C20.1915 10.0827 20.1535 9.91662 20.1663 9.75055C20.1791 9.58448 20.2421 9.42624 20.347 9.29688L21.6798 7.6475L20.3886 6.35633L18.7392 7.68906C18.6098 7.79398 18.4516 7.85703 18.2855 7.86982C18.1195 7.88262 17.9534 7.84456 17.8095 7.7607C17.2929 7.46084 16.7386 7.23114 16.1612 7.07766C16.0008 7.03499 15.8571 6.94466 15.7491 6.81861C15.6412 6.69255 15.5739 6.5367 15.5564 6.37164L15.3349 4.26563H13.5078L13.2841 6.37438C13.2665 6.5395 13.1993 6.69541 13.0912 6.82147C12.9831 6.94753 12.8393 7.03782 12.6787 7.08039C12.1018 7.23457 11.5481 7.46502 11.0321 7.76563C10.8882 7.84948 10.7222 7.88754 10.5561 7.87474C10.39 7.86195 10.2318 7.7989 10.1024 7.69399L8.45468 6.35906L7.16405 7.65024L8.49733 9.29961C8.60216 9.42904 8.66511 9.5873 8.67781 9.75337C8.69051 9.91944 8.65236 10.0854 8.56843 10.2293C8.2688 10.7461 8.03911 11.3003 7.88538 11.8776C7.84271 12.038 7.75238 12.1817 7.62633 12.2897C7.50027 12.3977 7.34442 12.4649 7.17937 12.4824L5.07062 12.7066V14.5321L7.17937 14.7563C7.34442 14.7739 7.50027 14.8411 7.62633 14.9491C7.75238 15.0571 7.84271 15.2008 7.88538 15.3612C8.03908 15.9378 8.26858 16.4915 8.56788 17.0078C8.65181 17.1517 8.68996 17.3177 8.67726 17.4837C8.66457 17.6498 8.60162 17.8081 8.49679 17.9375L7.16405 19.5841L8.45522 20.8753L10.1051 19.5426C10.2345 19.4377 10.3928 19.3746 10.5588 19.3618C10.7249 19.349 10.8909 19.3871 11.0348 19.4709C11.5513 19.7709 12.1054 20.0006 12.6826 20.154C12.8431 20.1966 12.9869 20.2868 13.095 20.4129C13.2031 20.539 13.2704 20.6949 13.288 20.86L13.5078 22.9688Z" fill="black"/>
<path d="M14.4217 18.6136C13.4336 18.6135 12.4677 18.3204 11.6461 17.7713C10.8246 17.2222 10.1843 16.4419 9.80619 15.5289C9.42812 14.616 9.32925 13.6114 9.5221 12.6423C9.71494 11.6731 10.1908 10.783 10.8896 10.0843C11.5883 9.38559 12.4786 8.90979 13.4478 8.71706C14.4169 8.52432 15.4215 8.62329 16.3344 9.00147C17.2473 9.37964 18.0276 10.02 18.5765 10.8416C19.1255 11.6633 19.4185 12.6292 19.4185 13.6173C19.4171 14.9421 18.8902 16.2121 17.9534 17.1488C17.0166 18.0855 15.7465 18.6123 14.4217 18.6136ZM14.4217 10.2617C13.7581 10.2618 13.1094 10.4587 12.5576 10.8275C12.0058 11.1963 11.5758 11.7204 11.3219 12.3336C11.068 12.9468 11.0017 13.6214 11.1312 14.2723C11.2607 14.9232 11.5804 15.5211 12.0497 15.9903C12.519 16.4596 13.1169 16.7791 13.7678 16.9085C14.4187 17.038 15.0934 16.9715 15.7065 16.7175C16.3197 16.4635 16.8437 16.0334 17.2124 15.4816C17.5811 14.9298 17.7779 14.281 17.7779 13.6173C17.7769 12.7276 17.423 11.8746 16.7938 11.2455C16.1645 10.6164 15.3115 10.2626 14.4217 10.2617Z" fill="black"/>
</svg>
