<svg width="9" height="9" viewBox="0 0 9 9" fill="none" xmlns="http://www.w3.org/2000/svg">
<line x1="0.5" y1="1.5" x2="8.5" y2="1.5" stroke="black" stroke-opacity="0.5" stroke-linecap="round"/>
<line x1="0.5" y1="4.5" x2="8.5" y2="4.5" stroke="black" stroke-opacity="0.5" stroke-linecap="round"/>
<line x1="0.5" y1="7.5" x2="8.5" y2="7.5" stroke="black" stroke-opacity="0.5" stroke-linecap="round"/>
<circle cx="2.5" cy="1.5" r="1.5" fill="white"/>
<circle cx="2.5" cy="1.5" r="1.5" fill="white"/>
<circle cx="2.5" cy="1.5" r="1.5" fill="white"/>
<circle cx="2.5" cy="1.5" r="1.5" fill="white"/>
<circle cx="2.5" cy="1.5" r="1.5" fill="white"/>
<circle cx="2.5" cy="1.5" r="1" stroke="black" stroke-opacity="0.5"/>
<circle cx="6.5" cy="4.5" r="1.5" fill="white"/>
<circle cx="6.5" cy="4.5" r="1.5" fill="white"/>
<circle cx="6.5" cy="4.5" r="1.5" fill="white"/>
<circle cx="6.5" cy="4.5" r="1.5" fill="white"/>
<circle cx="6.5" cy="4.5" r="1.5" fill="white"/>
<circle cx="6.5" cy="4.5" r="1" stroke="black" stroke-opacity="0.5"/>
<circle cx="2.5" cy="7.5" r="1.5" fill="white"/>
<circle cx="2.5" cy="7.5" r="1.5" fill="white"/>
<circle cx="2.5" cy="7.5" r="1.5" fill="white"/>
<circle cx="2.5" cy="7.5" r="1.5" fill="white"/>
<circle cx="2.5" cy="7.5" r="1.5" fill="white"/>
<circle cx="2.5" cy="7.5" r="1" stroke="black" stroke-opacity="0.5"/>
</svg>
